<svg width="553" height="393" viewBox="0 0 553 393" fill="none" xmlns="http://www.w3.org/2000/svg">
<g opacity="0.4">
<path d="M0 24C0 10.7452 10.7452 0 24 0H1008C1021.25 0 1032 10.7452 1032 24V660C1032 673.255 1021.25 684 1008 684H24C10.7452 684 0 673.255 0 660V24Z" fill="#4EA7FF" fill-opacity="0.2"/>
</g>
<g opacity="0.4">
<path d="M54 53C54 39.7452 64.7452 29 78 29H1062C1075.25 29 1086 39.7452 1086 53V689C1086 702.255 1075.25 713 1062 713H78C64.7452 713 54 702.255 54 689V53Z" fill="#4EA7FF" fill-opacity="0.4"/>
</g>
<g opacity="0.4">
<path d="M101 89C101 75.7452 111.745 65 125 65H1109C1122.25 65 1133 75.7452 1133 89V725C1133 738.255 1122.25 749 1109 749H125C111.745 749 101 738.255 101 725V89Z" fill="#4EA7FF"/>
</g>
</svg>
