<svg width="305" height="318" viewBox="0 0 305 318" fill="none" xmlns="http://www.w3.org/2000/svg">
<g filter="url(#filter0_d_1362_9543)">
<path d="M8 54.2216C8 43.0535 17.0535 34 28.2216 34H276.778C287.946 34 297 43.0535 297 54.2216V289.297C297 300.465 287.947 309.519 276.778 309.519H28.2216C17.0535 309.519 8 300.465 8 289.297V54.2216Z" fill="white"/>
</g>
<path d="M152.075 92.1367C170.701 92.1367 188.745 98.6327 203.097 110.506C217.449 122.379 227.211 138.885 230.701 157.182L214.976 160.181C212.184 145.544 204.374 132.339 192.892 122.841C181.411 113.342 166.976 108.145 152.075 108.145V92.1367Z" fill="#F36960"/>
<path d="M152.074 108.145C162.367 108.145 172.508 110.626 181.638 115.378C190.768 120.13 198.618 127.013 204.523 135.443C210.428 143.874 214.214 153.603 215.559 163.808C216.905 174.012 215.771 184.391 212.253 194.064C208.736 203.737 202.938 212.42 195.352 219.376C187.766 226.332 178.614 231.357 168.673 234.026C158.733 236.694 148.295 236.926 138.245 234.703C128.195 232.481 118.829 227.868 110.941 221.256L121.224 208.987C127.14 213.946 134.165 217.405 141.702 219.072C149.24 220.74 157.068 220.565 164.524 218.564C171.979 216.563 178.843 212.794 184.532 207.577C190.222 202.36 194.57 195.848 197.209 188.593C199.847 181.338 200.697 173.554 199.688 165.901C198.679 158.247 195.84 150.95 191.411 144.627C186.982 138.304 181.095 133.142 174.247 129.578C167.4 126.014 159.794 124.153 152.074 124.153V108.145Z" fill="#3FC587"/>
<path d="M110.913 221.233C100.841 212.781 93.6143 201.434 90.2155 188.732C86.8166 176.031 87.4102 162.591 91.9155 150.238C96.4209 137.885 104.62 127.219 115.398 119.688C126.176 112.157 139.011 108.127 152.16 108.145L152.138 124.153C142.277 124.14 132.651 127.163 124.567 132.811C116.483 138.459 110.334 146.459 106.955 155.723C103.576 164.988 103.131 175.068 105.68 184.594C108.229 194.12 113.649 202.631 121.203 208.97L110.913 221.233Z" fill="#66B1FE"/>
<path d="M133.349 172.676V169.627H135.797C137.727 169.627 139.028 168.48 139.028 166.815C139.028 165.178 137.867 164.101 135.769 164.101C133.811 164.101 132.51 165.262 132.398 167.025H128.509C128.663 163.29 131.573 160.856 135.951 160.856C140.147 160.856 143.015 163.01 143.015 166.241C143.015 168.717 141.322 170.508 138.846 170.955V171.039C141.854 171.291 143.798 173.11 143.798 175.907C143.798 179.53 140.511 181.936 135.853 181.936C131.293 181.936 128.313 179.432 128.117 175.711H132.16C132.286 177.418 133.685 178.537 135.909 178.537C138.021 178.537 139.504 177.348 139.504 175.641C139.504 173.795 138.119 172.676 135.839 172.676H133.349ZM147.533 181.488L156.219 164.745V164.661H145.952V161.304H160.388V164.703L151.967 181.488H147.533ZM170.795 181.95C167.899 181.95 165.507 180.635 164.094 178.229C162.975 176.523 162.402 174.243 162.402 171.557C162.402 164.871 165.647 160.842 170.865 160.842C174.711 160.842 177.719 163.122 178.278 166.423H174.124C173.718 165.08 172.417 164.185 170.837 164.185C168.025 164.185 166.318 166.885 166.416 171.445H166.5C167.312 169.473 169.298 168.158 171.872 168.158C175.704 168.158 178.544 170.983 178.544 174.816C178.544 178.97 175.313 181.95 170.795 181.95ZM170.753 178.579C172.809 178.579 174.431 176.97 174.431 174.942C174.431 172.858 172.879 171.333 170.767 171.333C168.668 171.333 167.074 172.858 167.074 174.9C167.074 176.956 168.682 178.579 170.753 178.579Z" fill="black"/>
<g opacity="0.3" clip-path="url(#clip0_1362_9543)">
<path d="M56.3684 89.4148C57.5473 89.4148 58.4746 89.8064 59.1504 90.5897C59.83 91.3692 60.1699 92.4271 60.1699 93.7634C60.1699 95.0996 59.83 96.1594 59.1504 96.9427C58.4746 97.726 57.5473 98.1177 56.3684 98.1177C55.1819 98.1177 54.2489 97.726 53.5692 96.9427C52.8896 96.1594 52.5497 95.0996 52.5497 93.7634C52.5497 92.4271 52.8915 91.3692 53.575 90.5897C54.2623 89.8064 55.1935 89.4148 56.3684 89.4148ZM56.3684 90.3709C55.5237 90.3709 54.8536 90.6761 54.3583 91.2867C53.863 91.8972 53.6153 92.7228 53.6153 93.7634C53.6153 94.8039 53.8591 95.6314 54.3468 96.2458C54.8383 96.8563 55.5122 97.1616 56.3684 97.1616C57.217 97.1616 57.8852 96.8544 58.3728 96.24C58.8605 95.6257 59.1043 94.8001 59.1043 93.7634C59.1043 92.7189 58.8605 91.8934 58.3728 91.2867C57.8852 90.6761 57.217 90.3709 56.3684 90.3709ZM66.8684 91.7129V97.9219H65.9238V96.9485H65.8317C65.6742 97.2979 65.4323 97.5667 65.1059 97.7548C64.7796 97.9392 64.3802 98.0313 63.9079 98.0313C63.2168 98.0313 62.6907 97.8336 62.3298 97.4381C61.9688 97.0426 61.7883 96.4743 61.7883 95.7332V91.7129H62.779V95.4913C62.779 96.0557 62.8904 96.4704 63.1131 96.7354C63.3358 96.9965 63.6929 97.127 64.1844 97.127C64.7258 97.127 65.1424 96.9754 65.4343 96.672C65.7299 96.3648 65.8778 95.9367 65.8778 95.3876V91.7129H66.8684ZM69.1493 90.1059H70.1399V91.7129H71.5223V92.5423H70.1399V96.0557C70.1399 96.4205 70.2129 96.6855 70.3588 96.8506C70.5047 97.0157 70.739 97.0982 71.0615 97.0982C71.2036 97.0982 71.3572 97.0906 71.5223 97.0752V97.9104C71.3034 97.9488 71.1095 97.968 70.9405 97.968C70.2993 97.968 69.8404 97.8393 69.564 97.5821C69.2875 97.3248 69.1493 96.9005 69.1493 96.3092V92.5423H68.1471V91.7129H69.1493V90.1059ZM75.4389 96.9542C76.011 96.9542 76.4603 96.7546 76.7867 96.3552C77.1169 95.952 77.282 95.4087 77.282 94.7252C77.282 94.0456 77.1169 93.5042 76.7867 93.101C76.4564 92.6978 76.0072 92.4962 75.4389 92.4962C74.8706 92.4962 74.429 92.6959 74.1142 93.0952C73.7993 93.4946 73.6419 94.0379 73.6419 94.7252C73.6419 95.4126 73.7993 95.9559 74.1142 96.3552C74.429 96.7546 74.8706 96.9542 75.4389 96.9542ZM75.485 100.306C74.7439 100.306 74.143 100.153 73.6822 99.8456C73.2252 99.5384 72.9584 99.1257 72.8816 98.6073H73.9298C73.9836 98.8646 74.1468 99.0681 74.4194 99.2178C74.6921 99.3676 75.0472 99.4424 75.485 99.4424C76.0417 99.4424 76.4756 99.3119 76.7867 99.0508C77.1015 98.7935 77.259 98.4364 77.259 97.9795V96.7584H77.1668C76.971 97.1002 76.7041 97.3651 76.3662 97.5533C76.0283 97.7376 75.6462 97.8297 75.22 97.8297C74.4213 97.8297 73.7878 97.5475 73.3193 96.983C72.8509 96.4147 72.6166 95.6621 72.6166 94.7252C72.6166 93.7883 72.8528 93.0338 73.3251 92.4617C73.7974 91.8895 74.429 91.6035 75.22 91.6035C75.6539 91.6035 76.0494 91.7033 76.4065 91.903C76.7636 92.0988 77.0324 92.3637 77.2129 92.6978H77.305V91.7129H78.2496V98.0313C78.2496 98.7263 78.0001 99.2793 77.5009 99.6901C77.0017 100.101 76.3297 100.306 75.485 100.306ZM84.7581 97.1731C84.2474 97.7452 83.5505 98.0313 82.6674 98.0313C81.7842 98.0313 81.0853 97.7452 80.5708 97.1731C80.0601 96.5971 79.8048 95.8119 79.8048 94.8174C79.8048 93.819 80.0601 93.0338 80.5708 92.4617C81.0815 91.8895 81.7804 91.6035 82.6674 91.6035C83.5543 91.6035 84.2532 91.8895 84.7639 92.4617C85.2746 93.0338 85.5299 93.819 85.5299 94.8174C85.5299 95.8119 85.2727 96.5971 84.7581 97.1731ZM81.3081 96.5338C81.6268 96.937 82.0799 97.1386 82.6674 97.1386C83.2548 97.1386 83.7079 96.937 84.0266 96.5338C84.3454 96.1268 84.5047 95.5546 84.5047 94.8174C84.5047 94.0801 84.3454 93.5099 84.0266 93.1067C83.7079 92.6997 83.2548 92.4962 82.6674 92.4962C82.0799 92.4962 81.6268 92.6997 81.3081 93.1067C80.9894 93.5099 80.83 94.0801 80.83 94.8174C80.83 95.5546 80.9894 96.1268 81.3081 96.5338ZM87.1081 97.9219V91.7129H88.0988V97.9219H87.1081ZM88.093 90.2499C87.9586 90.3843 87.7954 90.4515 87.6034 90.4515C87.4114 90.4515 87.2483 90.3843 87.1139 90.2499C86.9795 90.1117 86.9123 89.9485 86.9123 89.7603C86.9123 89.5722 86.9795 89.4109 87.1139 89.2765C87.2483 89.1383 87.4114 89.0692 87.6034 89.0692C87.7954 89.0692 87.9586 89.1383 88.093 89.2765C88.2274 89.4109 88.2946 89.5722 88.2946 89.7603C88.2946 89.9485 88.2274 90.1117 88.093 90.2499ZM89.988 97.9219V91.7129H90.9326V92.692H91.0247C91.3549 91.9663 91.977 91.6035 92.8909 91.6035C93.5859 91.6035 94.1215 91.8031 94.4978 92.2025C94.8741 92.598 95.0623 93.1643 95.0623 93.9016V97.9219H94.0716V94.1435C94.0716 93.5867 93.9507 93.1739 93.7087 92.9052C93.4707 92.6325 93.104 92.4962 92.6086 92.4962C92.1095 92.4962 91.712 92.6536 91.4164 92.9685C91.1245 93.2795 90.9786 93.7058 90.9786 94.2472V97.9219H89.988ZM99.3878 96.9542C99.96 96.9542 100.409 96.7546 100.736 96.3552C101.066 95.952 101.231 95.4087 101.231 94.7252C101.231 94.0456 101.066 93.5042 100.736 93.101C100.405 92.6978 99.9561 92.4962 99.3878 92.4962C98.8195 92.4962 98.378 92.6959 98.0631 93.0952C97.7482 93.4946 97.5908 94.0379 97.5908 94.7252C97.5908 95.4126 97.7482 95.9559 98.0631 96.3552C98.378 96.7546 98.8195 96.9542 99.3878 96.9542ZM99.4339 100.306C98.6928 100.306 98.0919 100.153 97.6311 99.8456C97.1742 99.5384 96.9073 99.1257 96.8305 98.6073H97.8788C97.9325 98.8646 98.0957 99.0681 98.3684 99.2178C98.641 99.3676 98.9962 99.4424 99.4339 99.4424C99.9907 99.4424 100.425 99.3119 100.736 99.0508C101.05 98.7935 101.208 98.4364 101.208 97.9795V96.7584H101.116C100.92 97.1002 100.653 97.3651 100.315 97.5533C99.9772 97.7376 99.5952 97.8297 99.169 97.8297C98.3703 97.8297 97.7367 97.5475 97.2683 96.983C96.7998 96.4147 96.5656 95.6621 96.5656 94.7252C96.5656 93.7883 96.8017 93.0338 97.274 92.4617C97.7463 91.8895 98.378 91.6035 99.169 91.6035C99.6029 91.6035 99.9984 91.7033 100.355 91.903C100.713 92.0988 100.981 92.3637 101.162 92.6978H101.254V91.7129H102.199V98.0313C102.199 98.7263 101.949 99.2793 101.45 99.6901C100.951 100.101 100.279 100.306 99.4339 100.306Z" fill="black"/>
<path d="M29.907 101.404C29.4417 101.404 29.0645 101.027 29.0645 100.562V95.5062C29.0645 94.1102 30.1961 92.9785 31.5921 92.9785H36.6475C37.1129 92.9785 37.4901 93.3557 37.4901 93.8211C37.4901 94.2864 37.1129 94.6636 36.6475 94.6636H31.9412L38.9285 101.651C39.2575 101.98 39.2575 102.513 38.9285 102.843C38.5994 103.172 38.0659 103.172 37.7369 102.843L30.7496 95.8552V100.562C30.7496 101.027 30.3724 101.404 29.907 101.404Z" fill="#66B1FE"/>
<path d="M42.5455 108.145C43.4762 108.145 44.2306 107.39 44.2306 106.46C44.2306 105.529 43.4762 104.774 42.5455 104.774C41.6148 104.774 40.8604 105.529 40.8604 106.46C40.8604 107.39 41.6148 108.145 42.5455 108.145Z" fill="#66B1FE"/>
<path d="M54.6636 121.145V114.527H54.5599L52.5209 115.932V114.313L54.6693 112.833H56.403V121.145H54.6636ZM59.0813 121.145L62.6235 114.365V114.262H58.4304V112.827H64.3745V114.279L60.9013 121.145H59.0813ZM65.7568 115.321C65.7568 113.714 66.9894 112.62 68.7864 112.62C70.5201 112.62 71.7296 113.617 71.7296 115.045C71.7296 115.949 71.2401 116.727 69.8001 118.08L68.2104 119.595V119.699H71.8506V121.145H65.8547V119.929L68.5675 117.274C69.7368 116.134 70.0305 115.702 70.0305 115.16C70.0305 114.492 69.4891 114.02 68.7288 114.02C67.9225 114.02 67.3695 114.55 67.3695 115.316V115.35H65.7568V115.321Z" fill="white"/>
</g>
<g clip-path="url(#clip1_1362_9543)">
<path d="M221.915 264.456C221.915 262.849 223.147 261.755 224.944 261.755C226.678 261.755 227.888 262.751 227.888 264.18C227.888 265.084 227.398 265.862 225.958 267.215L224.369 268.73V268.834H228.009V270.279H222.013V269.064L224.726 266.409C225.895 265.268 226.189 264.836 226.189 264.295C226.189 263.627 225.647 263.155 224.887 263.155C224.081 263.155 223.528 263.684 223.528 264.45V264.485H221.915V264.456ZM232.801 270.492C230.745 270.492 229.5 268.868 229.5 266.109C229.5 263.356 230.756 261.755 232.801 261.755C234.84 261.755 236.101 263.356 236.101 266.115C236.101 268.862 234.857 270.492 232.801 270.492ZM232.801 269.076C233.757 269.076 234.339 268.056 234.339 266.109C234.339 264.174 233.751 263.178 232.801 263.178C231.856 263.178 231.263 264.18 231.263 266.109C231.263 268.05 231.85 269.076 232.801 269.076ZM241.561 270.279V268.828H237.495V267.29C238.244 265.879 239.327 264.162 240.784 261.968H243.22V267.382H244.309V268.828H243.22V270.279H241.561ZM239.056 267.342V267.434H241.602V263.322H241.509C240.749 264.456 240.006 265.62 239.056 267.342Z" fill="black"/>
<path d="M223.268 250.428H222.232V242.116H223.268V250.428ZM225.261 250.428V244.219H226.206V245.198H226.298C226.628 244.472 227.25 244.109 228.164 244.109C228.859 244.109 229.395 244.309 229.771 244.708C230.147 245.104 230.336 245.67 230.336 246.407V250.428H229.345V246.649C229.345 246.093 229.224 245.68 228.982 245.411C228.744 245.138 228.377 245.002 227.882 245.002C227.383 245.002 226.985 245.16 226.69 245.474C226.398 245.785 226.252 246.212 226.252 246.753V250.428H225.261ZM237.288 246.119H236.285C236.201 245.793 236.019 245.526 235.738 245.319C235.462 245.108 235.11 245.002 234.684 245.002C234.127 245.002 233.684 245.209 233.354 245.624C233.027 246.039 232.864 246.598 232.864 247.3C232.864 248.014 233.029 248.585 233.359 249.011C233.69 249.433 234.131 249.644 234.684 249.644C235.103 249.644 235.45 249.55 235.727 249.362C236.007 249.174 236.193 248.905 236.285 248.556H237.288C237.195 249.143 236.921 249.621 236.464 249.99C236.007 250.355 235.416 250.537 234.69 250.537C233.818 250.537 233.125 250.245 232.611 249.662C232.096 249.074 231.839 248.287 231.839 247.3C231.839 246.333 232.096 245.559 232.611 244.979C233.125 244.399 233.816 244.109 234.684 244.109C235.41 244.109 236.001 244.299 236.458 244.68C236.919 245.06 237.195 245.54 237.288 246.119ZM243.393 249.679C242.882 250.251 242.185 250.537 241.302 250.537C240.419 250.537 239.72 250.251 239.206 249.679C238.695 249.103 238.44 248.318 238.44 247.323C238.44 246.325 238.695 245.54 239.206 244.968C239.716 244.395 240.415 244.109 241.302 244.109C242.189 244.109 242.888 244.395 243.399 244.968C243.909 245.54 244.165 246.325 244.165 247.323C244.165 248.318 243.907 249.103 243.393 249.679ZM239.943 249.04C240.262 249.443 240.715 249.644 241.302 249.644C241.89 249.644 242.343 249.443 242.661 249.04C242.98 248.633 243.139 248.06 243.139 247.323C243.139 246.586 242.98 246.016 242.661 245.613C242.343 245.206 241.89 245.002 241.302 245.002C240.715 245.002 240.262 245.206 239.943 245.613C239.624 246.016 239.465 246.586 239.465 247.323C239.465 248.06 239.624 248.633 239.943 249.04ZM245.72 250.428V244.219H246.664V245.198H246.757C246.899 244.852 247.119 244.585 247.419 244.397C247.718 244.205 248.076 244.109 248.49 244.109C248.897 244.109 249.247 244.207 249.539 244.403C249.834 244.599 250.057 244.864 250.207 245.198H250.299C250.468 244.864 250.721 244.599 251.059 244.403C251.397 244.207 251.777 244.109 252.2 244.109C252.833 244.109 253.321 244.286 253.662 244.639C254.004 244.989 254.175 245.488 254.175 246.137V250.428H253.184V246.367C253.184 245.457 252.749 245.002 251.877 245.002C251.455 245.002 251.109 245.14 250.84 245.417C250.571 245.693 250.437 246.033 250.437 246.436V250.428H249.446V246.212C249.446 245.843 249.327 245.549 249.089 245.33C248.855 245.112 248.542 245.002 248.15 245.002C247.747 245.002 247.406 245.156 247.125 245.463C246.849 245.77 246.71 246.142 246.71 246.58V250.428H245.72ZM256.007 250.428V244.219H256.997V250.428H256.007ZM256.992 242.756C256.857 242.89 256.694 242.957 256.502 242.957C256.31 242.957 256.147 242.89 256.012 242.756C255.878 242.618 255.811 242.454 255.811 242.266C255.811 242.078 255.878 241.917 256.012 241.782C256.147 241.644 256.31 241.575 256.502 241.575C256.694 241.575 256.857 241.644 256.992 241.782C257.126 241.917 257.193 242.078 257.193 242.266C257.193 242.454 257.126 242.618 256.992 242.756ZM258.887 250.428V244.219H259.831V245.198H259.923C260.254 244.472 260.876 244.109 261.789 244.109C262.484 244.109 263.02 244.309 263.396 244.708C263.773 245.104 263.961 245.67 263.961 246.407V250.428H262.97V246.649C262.97 246.093 262.849 245.68 262.607 245.411C262.369 245.138 262.003 245.002 261.507 245.002C261.008 245.002 260.611 245.16 260.315 245.474C260.023 245.785 259.877 246.212 259.877 246.753V250.428H258.887ZM268.286 249.46C268.859 249.46 269.308 249.26 269.634 248.861C269.964 248.458 270.13 247.915 270.13 247.231C270.13 246.551 269.964 246.01 269.634 245.607C269.304 245.204 268.855 245.002 268.286 245.002C267.718 245.002 267.277 245.202 266.962 245.601C266.647 246 266.489 246.544 266.489 247.231C266.489 247.918 266.647 248.462 266.962 248.861C267.277 249.26 267.718 249.46 268.286 249.46ZM268.333 252.812C267.591 252.812 266.99 252.659 266.53 252.351C266.073 252.044 265.806 251.632 265.729 251.113H266.777C266.831 251.37 266.994 251.574 267.267 251.724C267.54 251.873 267.895 251.948 268.333 251.948C268.889 251.948 269.323 251.818 269.634 251.557C269.949 251.299 270.107 250.942 270.107 250.485V249.264H270.014C269.819 249.606 269.552 249.871 269.214 250.059C268.876 250.243 268.494 250.336 268.068 250.336C267.269 250.336 266.635 250.053 266.167 249.489C265.698 248.921 265.464 248.168 265.464 247.231C265.464 246.294 265.7 245.54 266.173 244.968C266.645 244.395 267.277 244.109 268.068 244.109C268.501 244.109 268.897 244.209 269.254 244.409C269.611 244.605 269.88 244.87 270.06 245.204H270.153V244.219H271.097V250.537C271.097 251.232 270.848 251.785 270.348 252.196C269.849 252.607 269.177 252.812 268.333 252.812Z" fill="black"/>
<path d="M198.175 240.675C197.846 240.345 197.312 240.345 196.983 240.675C196.654 241.004 196.654 241.537 196.983 241.866L203.97 248.853H199.264C198.799 248.853 198.421 249.231 198.421 249.696C198.421 250.161 198.799 250.539 199.264 250.539H204.319C205.715 250.539 206.847 249.407 206.847 248.011V242.955C206.847 242.49 206.47 242.113 206.005 242.113C205.539 242.113 205.162 242.49 205.162 242.955V247.662L198.175 240.675Z" fill="#3FC587"/>
<path d="M211.902 253.909C211.902 254.839 211.148 255.594 210.217 255.594C209.287 255.594 208.532 254.839 208.532 253.909C208.532 252.978 209.287 252.224 210.217 252.224C211.148 252.224 211.902 252.978 211.902 253.909Z" fill="#3FC587"/>
</g>
<g clip-path="url(#clip2_1362_9543)">
<path d="M201.457 89.1289V87.6775H197.391V86.1396C198.14 84.7285 199.223 83.0121 200.68 80.8176H203.116V86.2318H204.205V87.6775H203.116V89.1289H201.457ZM198.952 86.1914V86.2836H201.498V82.1712H201.406C200.645 83.3058 199.902 84.4693 198.952 86.1914ZM208.836 89.342C207.027 89.342 205.794 88.2534 205.743 86.7674H207.35C207.447 87.4586 208.058 87.9194 208.847 87.9194C209.74 87.9194 210.356 87.3204 210.356 86.4161C210.356 85.5003 209.734 84.8897 208.853 84.8897C208.208 84.8897 207.718 85.172 207.43 85.6385H205.875L206.29 80.8176H211.514V82.2633H207.638L207.453 84.4002H207.557C207.908 83.8933 208.496 83.5881 209.319 83.5881C210.898 83.5881 212.015 84.7458 212.015 86.3758C212.015 88.1382 210.742 89.342 208.836 89.342Z" fill="black"/>
<path d="M205.984 69.2773H205.017V62.9301H204.948L202.327 69.2197H201.452L198.831 62.9301H198.762V69.2773H197.794V60.9661H198.998L201.843 67.8432H201.935L204.781 60.9661H205.984V69.2773ZM208 69.2773V63.0684H208.991V69.2773H208ZM208.985 61.6054C208.851 61.7398 208.688 61.807 208.496 61.807C208.304 61.807 208.141 61.7398 208.006 61.6054C207.872 61.4672 207.805 61.304 207.805 61.1158C207.805 60.9277 207.872 60.7664 208.006 60.632C208.141 60.4938 208.304 60.4246 208.496 60.4246C208.688 60.4246 208.851 60.4938 208.985 60.632C209.12 60.7664 209.187 60.9277 209.187 61.1158C209.187 61.304 209.12 61.4672 208.985 61.6054ZM210.736 64.7675C210.736 64.2529 210.957 63.8229 211.399 63.4773C211.84 63.1317 212.391 62.9589 213.052 62.9589C213.701 62.9589 214.236 63.1087 214.659 63.4082C215.081 63.7077 215.325 64.1128 215.39 64.6235H214.411C214.342 64.3701 214.188 64.1704 213.95 64.0245C213.716 63.8747 213.415 63.7998 213.046 63.7998C212.673 63.7998 212.361 63.8862 212.107 64.059C211.857 64.2318 211.733 64.4545 211.733 64.7272C211.733 64.9384 211.819 65.115 211.992 65.2571C212.169 65.3953 212.441 65.5086 212.81 65.5969L213.766 65.8273C214.357 65.9693 214.793 66.1748 215.073 66.4436C215.357 66.7123 215.5 67.0675 215.5 67.5091C215.5 68.0582 215.263 68.5094 214.791 68.8626C214.319 69.2121 213.726 69.3868 213.011 69.3868C212.32 69.3868 211.754 69.2332 211.312 68.926C210.871 68.6188 210.623 68.208 210.569 67.6934H211.589C211.673 67.9622 211.84 68.1734 212.09 68.327C212.339 68.4767 212.658 68.5516 213.046 68.5516C213.464 68.5516 213.808 68.4614 214.077 68.2809C214.346 68.1004 214.48 67.8681 214.48 67.584C214.48 67.1616 214.152 66.8698 213.495 66.7085L212.43 66.4493C211.842 66.3072 211.412 66.1037 211.139 65.8388C210.871 65.57 210.736 65.2129 210.736 64.7675ZM216.796 64.7675C216.796 64.2529 217.016 63.8229 217.458 63.4773C217.899 63.1317 218.45 62.9589 219.111 62.9589C219.76 62.9589 220.295 63.1087 220.718 63.4082C221.14 63.7077 221.384 64.1128 221.449 64.6235H220.47C220.401 64.3701 220.247 64.1704 220.009 64.0245C219.775 63.8747 219.474 63.7998 219.105 63.7998C218.733 63.7998 218.42 63.8862 218.166 64.059C217.917 64.2318 217.792 64.4545 217.792 64.7272C217.792 64.9384 217.878 65.115 218.051 65.2571C218.228 65.3953 218.5 65.5086 218.869 65.5969L219.825 65.8273C220.416 65.9693 220.852 66.1748 221.133 66.4436C221.417 66.7123 221.559 67.0675 221.559 67.5091C221.559 68.0582 221.323 68.5094 220.85 68.8626C220.378 69.2121 219.785 69.3868 219.071 69.3868C218.379 69.3868 217.813 69.2332 217.371 68.926C216.93 68.6188 216.682 68.208 216.628 67.6934H217.648C217.732 67.9622 217.899 68.1734 218.149 68.327C218.399 68.4767 218.717 68.5516 219.105 68.5516C219.524 68.5516 219.867 68.4614 220.136 68.2809C220.405 68.1004 220.539 67.8681 220.539 67.584C220.539 67.1616 220.211 66.8698 219.554 66.7085L218.489 66.4493C217.901 66.3072 217.471 66.1037 217.199 65.8388C216.93 65.57 216.796 65.2129 216.796 64.7675ZM225.591 63.8344C225.095 63.8344 224.688 64.0014 224.37 64.3355C224.051 64.6696 223.872 65.1111 223.834 65.6602H227.255C227.244 65.1111 227.086 64.6696 226.783 64.3355C226.48 64.0014 226.082 63.8344 225.591 63.8344ZM227.226 67.6704H228.217C228.067 68.208 227.762 68.6284 227.301 68.9318C226.844 69.2351 226.278 69.3868 225.602 69.3868C224.742 69.3868 224.06 69.0988 223.557 68.5228C223.054 67.943 222.803 67.1616 222.803 66.1786C222.803 65.1995 223.056 64.4181 223.563 63.8344C224.07 63.2508 224.75 62.9589 225.602 62.9589C226.439 62.9589 227.098 63.2373 227.578 63.7941C228.058 64.3509 228.298 65.1131 228.298 66.0807V66.4608H223.834V66.5069C223.861 67.1213 224.034 67.6089 224.352 67.9699C224.675 68.3308 225.099 68.5113 225.625 68.5113C226.428 68.5113 226.961 68.231 227.226 67.6704ZM232.151 69.3868C231.356 69.3868 230.723 69.095 230.25 68.5113C229.778 67.9276 229.542 67.1482 229.542 66.1729C229.542 65.2014 229.778 64.4238 230.25 63.8402C230.726 63.2527 231.36 62.9589 232.151 62.9589C232.585 62.9589 232.973 63.0568 233.314 63.2527C233.66 63.4447 233.921 63.7096 234.098 64.0475H234.184V60.6032H235.175V69.2773H234.23V68.2867H234.138C233.942 68.6323 233.67 68.903 233.32 69.0988C232.971 69.2908 232.581 69.3868 232.151 69.3868ZM232.381 63.8517C231.817 63.8517 231.373 64.059 231.051 64.4737C230.728 64.8846 230.567 65.451 230.567 66.1729C230.567 66.8986 230.726 67.4669 231.045 67.8777C231.368 68.2886 231.813 68.494 232.381 68.494C232.946 68.494 233.391 68.2867 233.718 67.872C234.044 67.4573 234.207 66.8909 234.207 66.1729C234.207 65.4625 234.042 64.898 233.712 64.4795C233.385 64.061 232.942 63.8517 232.381 63.8517Z" fill="black"/>
<path d="M173.737 59.5241C173.408 59.1951 172.875 59.1951 172.546 59.5241C172.217 59.8532 172.217 60.3867 172.546 60.7157L179.533 67.703H174.827C174.361 67.703 173.984 68.0802 173.984 68.5456C173.984 69.0109 174.361 69.3881 174.827 69.3881H179.882C181.278 69.3881 182.41 68.2564 182.41 66.8604V61.805C182.41 61.3397 182.032 60.9625 181.567 60.9625C181.102 60.9625 180.724 61.3397 180.724 61.805V66.5114L173.737 59.5241Z" fill="#F36960"/>
<path d="M183.499 70.4775C183.828 70.1484 184.361 70.1484 184.691 70.4775L185.78 71.5668L186.869 70.4775C187.198 70.1484 187.732 70.1484 188.061 70.4775C188.39 70.8065 188.39 71.34 188.061 71.669L186.971 72.7584L188.061 73.8477C188.39 74.1768 188.39 74.7103 188.061 75.0393C187.732 75.3684 187.198 75.3684 186.869 75.0393L185.78 73.95L184.691 75.0393C184.361 75.3684 183.828 75.3684 183.499 75.0393C183.17 74.7103 183.17 74.1768 183.499 73.8477L184.588 72.7584L183.499 71.669C183.17 71.34 183.17 70.8065 183.499 70.4775Z" fill="#F36960"/>
</g>
<g opacity="0.3" filter="url(#filter1_d_1362_9543)">
<circle cx="66.1333" cy="122.469" r="21.9067" fill="black" fill-opacity="0.01"/>
</g>
<circle cx="66.1333" cy="122.469" r="21.9067" fill="#66B1FE"/>
<defs>
<filter id="filter0_d_1362_9543" x="-2.11079" y="28.9446" width="309.222" height="295.741" filterUnits="userSpaceOnUse" color-interpolation-filters="sRGB">
<feFlood flood-opacity="0" result="BackgroundImageFix"/>
<feColorMatrix in="SourceAlpha" type="matrix" values="0 0 0 0 0 0 0 0 0 0 0 0 0 0 0 0 0 0 127 0" result="hardAlpha"/>
<feOffset dy="5.05539"/>
<feGaussianBlur stdDeviation="5.05539"/>
<feColorMatrix type="matrix" values="0 0 0 0 0 0 0 0 0 0.137255 0 0 0 0 0.321569 0 0 0 0.15 0"/>
<feBlend mode="normal" in2="BackgroundImageFix" result="effect1_dropShadow_1362_9543"/>
<feBlend mode="normal" in="SourceGraphic" in2="effect1_dropShadow_1362_9543" result="shape"/>
</filter>
<filter id="filter1_d_1362_9543" x="37.486" y="97.1922" width="57.2935" height="57.2935" filterUnits="userSpaceOnUse" color-interpolation-filters="sRGB">
<feFlood flood-opacity="0" result="BackgroundImageFix"/>
<feColorMatrix in="SourceAlpha" type="matrix" values="0 0 0 0 0 0 0 0 0 0 0 0 0 0 0 0 0 0 127 0" result="hardAlpha"/>
<feOffset dy="3.37026"/>
<feGaussianBlur stdDeviation="3.37026"/>
<feColorMatrix type="matrix" values="0 0 0 0 0 0 0 0 0 0 0 0 0 0 0 0 0 0 0.291029 0"/>
<feBlend mode="normal" in2="BackgroundImageFix" result="effect1_dropShadow_1362_9543"/>
<feBlend mode="normal" in="SourceGraphic" in2="effect1_dropShadow_1362_9543" result="shape"/>
</filter>
<clipPath id="clip0_1362_9543">
<rect width="93.5248" height="36.2303" fill="white" transform="translate(24.8516 88.7656)"/>
</clipPath>
<clipPath id="clip1_1362_9543">
<rect width="87.6268" height="37.9155" fill="white" transform="translate(192.523 236.215)"/>
</clipPath>
<clipPath id="clip2_1362_9543">
<rect width="112.061" height="37.9155" fill="white" transform="translate(168.086 55.0645)"/>
</clipPath>
</defs>
</svg>
