<?xml version="1.0" encoding="UTF-8"?>
<svg version="1.1" xmlns="http://www.w3.org/2000/svg" width="2084" height="834">
<path d="M0 0 C25.34394037 26.3593226 23.01893221 67.65242134 22.82442474 101.62415195 C22.80407398 105.67210772 22.79736525 109.72008562 22.78955078 113.76808167 C22.76571973 124.89735105 22.72175451 136.02652161 22.67709351 147.15572357 C22.63634091 157.35315945 22.60028161 167.55055951 22.58066368 177.74806076 C22.57248876 181.74556889 22.56023273 185.74296345 22.53717041 189.74041557 C22.31664724 228.37157186 23.25277683 265.21562451 39.1472168 301.07202148 C39.47761963 301.82169189 39.80802246 302.5713623 40.1484375 303.34375 C40.44540527 304.00310547 40.74237305 304.66246094 41.04833984 305.34179688 C41.6875 307.125 41.6875 307.125 41.6875 310.125 C12.3175 310.125 -17.0525 310.125 -47.3125 310.125 C-56.3125 282.125 -56.3125 282.125 -58.3125 275.125 C-59.17875 275.888125 -60.045 276.65125 -60.9375 277.4375 C-88.65218485 301.07320905 -119.39216076 316.64448514 -156.3125 318.125 C-157.79363281 318.186875 -157.79363281 318.186875 -159.3046875 318.25 C-190.64741288 318.88801986 -221.6751235 311.19316071 -245.01635742 289.39648438 C-264.16281669 270.92288369 -273.94323143 247.19657057 -274.66625977 220.72241211 C-274.90243894 192.53564883 -266.04851449 168.41833842 -246.19921875 147.9453125 C-217.06763178 120.57120701 -171.50259585 115.06737642 -133.87200928 107.68414307 C-112.37225152 103.45164897 -90.59384873 99.07062734 -70.1015625 91.15625 C-67.3125 90.125 -67.3125 90.125 -65.3125 90.125 C-65.56505888 86.49849031 -65.84295988 82.87432653 -66.125 79.25 C-66.23038086 77.73019531 -66.23038086 77.73019531 -66.33789062 76.1796875 C-67.26360943 64.62671687 -69.79565428 53.99244974 -78.5625 45.875 C-93.58495502 34.030372 -117.55675658 33.90422737 -135.8125 35.8125 C-150.02019137 37.55997829 -161.87749046 42.19530943 -171.32421875 53.2890625 C-176.42912836 60.57032847 -180.0346618 68.88877061 -183.3125 77.125 C-191.93735699 75.61531934 -200.56169951 74.10274051 -209.18542671 72.58661938 C-213.19124799 71.88245391 -217.19722932 71.17922906 -221.20361328 70.47827148 C-225.08143236 69.79976993 -228.95878268 69.1186441 -232.83584213 68.43581581 C-234.30338538 68.17780386 -235.77108582 67.92068409 -237.23895645 67.66454124 C-246.64563673 66.02231527 -255.98955564 64.19677176 -265.3125 62.125 C-260.49556707 41.30240226 -251.21317923 22.3424591 -237.3125 6.125 C-236.796875 5.465 -236.28125 4.805 -235.75 4.125 C-215.88841076 -20.50337065 -182.21864531 -29.97285849 -152.04492188 -33.29125977 C-101.11701673 -38.24387111 -39.18099971 -37.34623991 0 0 Z M-71.54296875 150.26953125 C-82.565675 153.35823242 -93.60088326 156.23209274 -104.7578125 158.79296875 C-106.2753286 159.14220146 -106.2753286 159.14220146 -107.82350159 159.49848938 C-112.90216398 160.6645651 -117.98350315 161.81692186 -123.0690918 162.95239258 C-132.73180285 165.13761766 -142.26774513 167.54970076 -151.69921875 170.59375 C-152.53596634 170.85595337 -153.37271393 171.11815674 -154.2348175 171.38830566 C-165.58548064 175.20060447 -175.72164172 182.60341367 -181.25 193.375 C-186.07256811 203.64134838 -185.28465139 214.47349197 -181.62890625 225.05859375 C-176.51589613 236.96872118 -166.94563224 246.3483867 -154.9453125 251.1953125 C-138.35787508 257.05259752 -120.78280068 254.72594492 -105.05664062 247.38891602 C-87.48237651 238.72487057 -75.56130595 227.42479787 -68.3125 209.125 C-64.1491575 195.47352501 -65.17257578 179.90256288 -65.25 165.75 C-65.25503144 164.12760557 -65.2595914 162.5052096 -65.26367188 160.8828125 C-65.27453258 156.96350279 -65.29170388 153.04426906 -65.3125 149.125 C-67.60540308 149.125 -69.3345701 149.63715834 -71.54296875 150.26953125 Z " fill="#000000" transform="translate(311.3125,336.875)"/>
<path d="M0 0 C22.36030838 22.94015431 37.68608424 52.80597227 43.875 84.1875 C44.09929687 85.28698975 44.09929687 85.28698975 44.328125 86.40869141 C49.17813359 111.34337995 49.37362031 140.35231196 43.875 165.1875 C43.57698486 166.56301025 43.57698486 166.56301025 43.27294922 167.96630859 C40.21490361 181.66681107 35.923704 194.52158307 29.875 207.1875 C29.39160156 208.19997803 29.39160156 208.19997803 28.8984375 209.23291016 C9.40447794 249.28071428 -26.66886671 279.12615807 -68.38671875 293.65234375 C-116.26025177 309.59064388 -170.05537237 303.22617041 -214.93457031 281.45117188 C-223.1408758 277.33538541 -230.78162854 272.69159284 -238.125 267.1875 C-239.08148437 266.47207031 -240.03796875 265.75664063 -241.0234375 265.01953125 C-275.87561532 237.60714497 -293.41598302 197.44211706 -299.125 154.1875 C-299.89426766 147.67815042 -300.29363585 141.244385 -300.328125 134.69140625 C-300.33382507 133.81838364 -300.33952515 132.94536102 -300.34539795 132.04588318 C-300.35477533 130.20809105 -300.3613527 128.37028266 -300.36523438 126.5324707 C-300.37486801 123.78760621 -300.40593203 121.04351548 -300.4375 118.29882812 C-300.53231601 102.64106817 -298.87528588 87.46812607 -294.3125 72.4375 C-294.05388184 71.56391846 -293.79526367 70.69033691 -293.52880859 69.7902832 C-283.66726146 37.23403689 -265.41736291 6.02195169 -238.125 -14.8125 C-237.25101563 -15.49054688 -236.37703125 -16.16859375 -235.4765625 -16.8671875 C-170.26290935 -66.01648034 -71.16975841 -61.58302059 0 0 Z M-185.125 49.1875 C-203.59657386 70.41220272 -208.57548393 98.07078378 -208.4375 125.375 C-208.43534485 126.14407684 -208.4331897 126.91315369 -208.43096924 127.70553589 C-208.30290047 156.21860251 -202.68781018 182.33354989 -183.125 204.1875 C-182.58488281 204.82171875 -182.04476563 205.4559375 -181.48828125 206.109375 C-169.20275109 219.60179603 -150.04996988 227.56546348 -132.125 228.5078125 C-110.29504882 229.20308492 -90.41385195 223.27368605 -74.15625 208.21875 C-52.35975191 186.92396159 -45.42720875 157.91734637 -44.76928711 128.20483398 C-44.59211247 100.4870948 -49.37592224 71.72421043 -68.125 50.1875 C-68.79208984 49.30771484 -68.79208984 49.30771484 -69.47265625 48.41015625 C-80.6525661 34.03598644 -99.48103745 25.60506218 -117.125 23.1875 C-143.83272654 21.52468722 -166.56472768 29.6159524 -185.125 49.1875 Z " fill="#000000" transform="translate(1216.125,352.8125)"/>
<path d="M0 0 C5.70001096 5.40365819 10.84164363 11.10145404 15.5 17.4375 C15.89106934 17.96472656 16.28213867 18.49195313 16.68505859 19.03515625 C47.45355118 61.05090375 50.5 113.19056463 50.5 163.4375 C-22.76 163.4375 -96.02 163.4375 -171.5 163.4375 C-168.77655826 189.31019655 -164.06069029 213.22722186 -143.0546875 230.44140625 C-140.59368371 232.22736981 -138.09953233 233.86080077 -135.5 235.4375 C-134.74332031 235.89898438 -133.98664063 236.36046875 -133.20703125 236.8359375 C-117.91909217 245.28655709 -98.77813233 247.13588288 -81.9375 242.875 C-66.81962894 237.82385249 -57.58034162 228.22956269 -50.45654297 214.40917969 C-47.78215199 208.89657593 -45.65118431 203.16940964 -43.5 197.4375 C-26.73075207 199.70050299 -10.04715793 202.43414301 6.63549805 205.25366211 C10.36752689 205.8840696 14.10092756 206.50594629 17.83468723 207.12600803 C20.73932699 207.60980276 23.64297259 208.09936615 26.54636955 208.59055901 C27.92429377 208.82269941 29.30257361 209.05273969 30.68121529 209.28058052 C32.59261298 209.59706095 34.5025249 209.92247567 36.41235352 210.24829102 C38.03609642 210.52117699 38.03609642 210.52117699 39.69264221 210.79957581 C42.26315057 211.38368 44.22314564 212.13611246 46.5 213.4375 C37.23919028 236.31859637 26.69175589 255.57628321 9.5 273.4375 C8.62988281 274.40236328 8.62988281 274.40236328 7.7421875 275.38671875 C-18.44902772 303.61795324 -59.92937351 312.16611661 -96.65625 313.62109375 C-140.94503044 314.39889258 -184.27507999 303.41964116 -216.89379883 272.44311523 C-251.90801857 238.17235789 -263.50692781 189.12571933 -264.46826172 141.62158203 C-264.93108179 95.19004853 -254.73422936 43.98360683 -221.5 9.4375 C-220.34766574 8.08886101 -219.20151891 6.73490342 -218.0625 5.375 C-200.30844894 -14.80005802 -175.95073972 -27.20498055 -150.5 -34.5625 C-149.3346875 -34.90152344 -148.169375 -35.24054688 -146.96875 -35.58984375 C-96.52326078 -48.13878352 -38.3336135 -35.15084705 0 0 Z M-149.25 47.5625 C-164.99936897 64.19691996 -170.5 85.12456064 -170.5 107.4375 C-126.94 107.4375 -83.38 107.4375 -38.5 107.4375 C-38.5 85.24613907 -44.36101612 63.93147755 -59.875 47.5 C-85.07850188 23.87720556 -124.08316256 23.68181309 -149.25 47.5625 Z " fill="#000000" transform="translate(626.5,341.5625)"/>
<path d="M0 0 C2.11276714 0.00747308 4.22554128 0.01316096 6.33831787 0.01715088 C11.8621582 0.03232321 17.38556864 0.07153163 22.90924072 0.1159668 C28.56052844 0.15710187 34.21188654 0.17520064 39.86328125 0.1953125 C50.92466662 0.23803482 61.98573487 0.30618297 73.046875 0.390625 C64.4369107 17.65195082 64.4369107 17.65195082 60.765625 24.734375 C60.24989929 25.73253235 60.24989929 25.73253235 59.72375488 26.75085449 C58.66578425 28.7979581 57.60637275 30.84431143 56.546875 32.890625 C55.81240222 34.31114736 55.07802689 35.73172012 54.34375 37.15234375 C52.57923978 40.56568194 50.81344076 43.97835023 49.046875 47.390625 C47.36899902 47.40464355 47.36899902 47.40464355 45.65722656 47.41894531 C41.45225192 47.459234 37.24797944 47.52509444 33.04345703 47.59814453 C31.23397944 47.62613112 29.42438466 47.64745498 27.61474609 47.66162109 C14.88774171 47.76715181 2.90990021 48.11405516 -7.765625 56.015625 C-8.59707031 56.60601562 -9.42851563 57.19640625 -10.28515625 57.8046875 C-17.19954081 64.50647751 -21.63794585 73.13450563 -26.078125 81.578125 C-27.21432436 83.70800393 -28.35239379 85.83688615 -29.4921875 87.96484375 C-30.35312012 89.57238525 -30.35312012 89.57238525 -31.23144531 91.21240234 C-33.90319813 96.14446108 -36.67489411 101.01799013 -39.453125 105.890625 C-43.88325946 113.67367175 -48.20898115 121.50463734 -52.453125 129.390625 C-57.15465876 138.12325085 -61.97049073 146.7813336 -66.87158203 155.40332031 C-71.24966722 163.11677913 -75.55101329 170.87093242 -79.828125 178.640625 C-80.33261169 179.55692184 -80.33261169 179.55692184 -80.84729004 180.49172974 C-81.18417847 181.10362152 -81.52106689 181.71551331 -81.86816406 182.34594727 C-82.54881593 183.58220072 -83.22947999 184.81844747 -83.91015625 186.0546875 C-84.24711517 186.66672531 -84.5840741 187.27876312 -84.9312439 187.90934753 C-90.28987342 197.63826288 -95.69548192 207.34116885 -101.09423828 217.04785156 C-103.58962982 221.5352302 -106.08310866 226.02367011 -108.57641602 230.51220703 C-109.82543655 232.76067146 -111.07462219 235.00904418 -112.32397461 237.25732422 C-115.47642963 242.93050942 -118.6268263 248.60482121 -121.7734375 254.28125 C-128.14775956 265.77592912 -134.55335005 277.25089238 -141.03735352 288.68408203 C-145.24007619 296.10412332 -149.38335169 303.55616193 -153.515625 311.015625 C-158.86797208 320.67103909 -164.28016032 330.28799291 -169.78125 339.859375 C-172.18265312 344.03787824 -174.56330868 348.22787259 -176.9375 352.421875 C-191.30817673 377.78467378 -206.87146951 401.10750294 -226.953125 422.390625 C-227.75492188 423.2465625 -228.55671875 424.1025 -229.3828125 424.984375 C-262.94506901 459.75707355 -310.81786316 476.42991618 -357.828125 482.078125 C-358.80612061 482.19760498 -359.78411621 482.31708496 -360.79174805 482.44018555 C-380.12463339 484.59243985 -399.6171439 484.53495928 -419.04248047 484.50415039 C-421.577713 484.50386755 -424.11294562 484.50402813 -426.6481781 484.5045929 C-432.05697118 484.50481861 -437.46574857 484.50203297 -442.87453842 484.49635506 C-450.69428323 484.48815167 -458.51402224 484.48561589 -466.33377089 484.48436707 C-479.02753029 484.48219026 -491.72128318 484.47556778 -504.41503906 484.46606445 C-516.72981738 484.45685457 -529.04459392 484.44979133 -541.359375 484.44555664 C-542.12125295 484.44529392 -542.88313089 484.44503119 -543.66809605 484.44476051 C-547.49104839 484.44345526 -551.31400075 484.44219161 -555.13695312 484.44094861 C-586.74234847 484.43061879 -618.34773574 484.4129628 -649.953125 484.390625 C-648.70597608 481.1926065 -647.46030755 478.41989343 -645.49609375 475.6015625 C-644.97571533 474.84746094 -644.45533691 474.09335937 -643.91918945 473.31640625 C-643.33226318 472.47464844 -642.74533691 471.63289063 -642.140625 470.765625 C-640.78251046 468.7951963 -639.42587929 466.8237448 -638.0703125 464.8515625 C-637.68766739 464.29555359 -637.30502228 463.73954468 -636.91078186 463.16668701 C-632.07905306 456.1365201 -627.31109646 449.06331399 -622.54541016 441.98828125 C-620.01827969 438.23835101 -617.47501804 434.5001222 -614.91943359 430.76953125 C-609.1530923 422.32326939 -603.55570937 413.89661987 -598.546875 404.9765625 C-597.32931497 402.88855716 -596.10477282 400.80484006 -594.87728882 398.72265625 C-594.15105414 397.44415466 -593.45800452 396.14606855 -592.80410767 394.82910156 C-590.62562058 390.44303791 -588.26271219 386.82464458 -583.953125 384.390625 C-580.30673911 383.59413038 -576.71657483 383.59686099 -572.99414062 383.58422852 C-571.86571652 383.56098228 -570.73729242 383.53773603 -569.57467365 383.51378536 C-566.388632 383.45638688 -563.20351862 383.42363013 -560.01704621 383.40453529 C-557.91173802 383.39034606 -555.80662646 383.36865327 -553.70140648 383.34481812 C-543.16248325 383.22721662 -532.62384005 383.18366233 -522.08435798 383.1531651 C-517.51120083 383.13844334 -512.93807588 383.11703293 -508.36494446 383.09593201 C-492.87215507 383.02558065 -477.37933913 382.9649753 -461.88647461 382.91381836 C-453.28064207 382.88533177 -444.67486509 382.84987549 -436.06909114 382.80716461 C-431.54328392 382.78503435 -427.01752674 382.76641003 -422.49167442 382.75671577 C-395.66487947 382.70960745 -395.66487947 382.70960745 -368.953125 380.390625 C-367.77292282 380.24203033 -366.59272064 380.09343567 -365.37675476 379.94033813 C-329.37003997 375.20864381 -292.09634953 362.55306322 -263.50537109 339.6328125 C-262.07469135 338.48790867 -260.61844533 337.37514844 -259.16015625 336.265625 C-246.75988594 326.59451315 -235.44334116 314.9100061 -225.953125 302.390625 C-225.55383789 301.87838379 -225.15455078 301.36614258 -224.74316406 300.83837891 C-217.23463289 291.19394797 -210.89583927 280.9511706 -204.6171875 270.4765625 C-201.01205468 264.46286955 -197.30769552 258.51522185 -193.578125 252.578125 C-188.32777392 244.20773299 -183.12259337 235.81120924 -177.953125 227.390625 C-172.21288929 218.04174534 -166.42300933 208.72572463 -160.59765625 199.4296875 C-156.01289838 192.10560889 -151.47437444 184.75405251 -146.953125 177.390625 C-141.21280948 168.04179393 -135.42300979 158.72572536 -129.59765625 149.4296875 C-125.01289838 142.10560889 -120.47437444 134.75405251 -115.953125 127.390625 C-110.82233676 119.03448633 -105.65988081 110.6996424 -100.453125 102.390625 C-93.84293417 91.84064884 -87.31095332 81.24384252 -80.79296875 70.63671875 C-75.76658442 62.45711348 -70.72008686 54.2901393 -65.65527344 46.13427734 C-64.44599545 44.18507109 -63.23849772 42.23475988 -62.03222656 40.28369141 C-60.03029919 37.04625271 -58.02338077 33.81195161 -56.015625 30.578125 C-55.40066162 29.58151855 -54.78569824 28.58491211 -54.15209961 27.55810547 C-46.67513006 15.54311442 -39.85523433 5.64751603 -25.80871582 1.19348145 C-17.3331583 -0.57139878 -8.61814936 -0.09005094 0 0 Z " fill="#F18020" transform="translate(1911.953125,170.609375)"/>
<path d="M0 0 C3.6153693 0.01907692 7.23075069 0.02054114 10.84616256 0.02407622 C17.65602492 0.03330748 24.46573844 0.05779685 31.275536 0.08812469 C39.04368956 0.12195099 46.81185119 0.13822478 54.58006036 0.153211 C70.52613109 0.18435727 86.47205426 0.23693893 102.4180162 0.30418181 C94.75134953 15.63751515 87.08468286 30.97084848 79.4180162 46.30418181 C78.53785905 46.30638165 78.53785905 46.30638165 77.63992095 46.30862594 C63.31521067 46.34579327 48.99071318 46.40493851 34.66619658 46.48808455 C27.73873965 46.52777316 20.81139463 46.56021698 13.88383651 46.57517791 C7.19226386 46.58965007 0.50108826 46.62487703 -6.1903441 46.67249084 C-8.73703065 46.68727244 -11.28376676 46.69522097 -13.83049607 46.69606566 C-17.41111644 46.69844666 -20.99078635 46.72561952 -24.57124162 46.75828338 C-25.61278398 46.75325301 -26.65432633 46.74822265 -27.72743058 46.74303985 C-39.12429512 46.90279439 -49.44605103 50.07282454 -57.5819838 58.30418181 C-63.06661288 65.30070747 -67.5929581 73.03422381 -72.2069838 80.61668181 C-72.91169572 81.76924956 -73.61678041 82.92158945 -74.32221818 84.07371306 C-75.39224337 85.8213965 -76.46204534 87.56921169 -77.53065324 89.31776214 C-80.693521 94.49293707 -83.88410678 99.65059495 -87.0819838 104.80418181 C-91.89259793 112.56342999 -96.67793076 120.33796157 -101.4569838 128.11668181 C-106.66913228 136.59906333 -111.91812893 145.05692954 -117.2069838 153.49168181 C-122.05717121 161.22780035 -126.8488193 168.99592534 -131.5819838 176.80418181 C-136.3151489 184.61243926 -141.10685736 192.38052449 -145.9569838 200.11668181 C-153.22155767 211.70417212 -160.39616558 223.34552177 -167.55268693 234.9999826 C-170.95549502 240.54059913 -174.36219757 246.07881835 -177.7694838 251.61668181 C-178.76770158 253.23908782 -178.76770158 253.23908782 -179.78608537 254.8942697 C-185.50942946 264.19294261 -191.25331368 273.47878789 -197.00532365 282.75974822 C-199.15495452 286.22884901 -201.30314825 289.69883739 -203.45039201 293.16941619 C-204.53466478 294.92034718 -205.62043073 296.67035443 -206.70771623 298.41941619 C-209.45084458 302.83612909 -212.16557591 307.26645394 -214.8319838 311.72996306 C-221.23568614 322.38549299 -228.05821823 332.16617616 -236.14643693 341.60838103 C-238.18782404 344.01985636 -240.12587259 346.51084733 -242.0819838 348.99168181 C-251.33590441 360.2346054 -261.90659005 369.65884808 -273.5819838 378.30418181 C-274.82335099 379.2381076 -274.82335099 379.2381076 -276.0897963 380.19090056 C-318.09006915 410.730082 -370.25271843 420.54556263 -421.24775529 420.4177072 C-422.85585871 420.41742429 -424.46396225 420.4175851 -426.07206559 420.41814971 C-430.38716705 420.41843361 -434.70224003 420.41260336 -439.01733494 420.40557575 C-443.54564269 420.39927381 -448.07395128 420.39873305 -452.60226274 420.39755034 C-461.15472551 420.39445703 -469.70717531 420.38627091 -478.25963241 420.37620085 C-488.00586318 420.36497722 -497.7520946 420.3595136 -507.49833024 420.35450542 C-527.52622196 420.34408637 -547.55410206 420.32652611 -567.5819838 420.30418181 C-566.18180657 416.69002108 -564.63476176 413.64220788 -562.46870255 410.42136931 C-561.81240861 409.44079558 -561.15611466 408.46022185 -560.47993302 407.44993377 C-559.75048478 406.37058562 -559.02103654 405.29123748 -558.2694838 404.17918181 C-557.48802435 403.01561335 -556.70695037 401.85178593 -555.92622209 400.68772674 C-553.67003843 397.3272503 -551.407093 393.97137435 -549.14259171 390.61649871 C-547.47756881 388.14947252 -545.81361185 385.68172989 -544.1498549 383.21384978 C-539.15842081 375.8103357 -534.16637638 368.40723714 -529.16963029 361.00730681 C-521.70084073 349.94445586 -514.2559582 338.86681325 -506.8842299 327.73899627 C-506.31526994 326.88136687 -505.74630998 326.02373748 -505.1601088 325.14011931 C-504.43936173 324.05029754 -504.43936173 324.05029754 -503.70405412 322.93845916 C-502.5819838 321.30418181 -502.5819838 321.30418181 -501.5819838 320.30418181 C-500.12626033 320.198592 -498.66548095 320.16179985 -497.20596147 320.15269256 C-496.26033845 320.1443489 -495.31471543 320.13600524 -494.34043717 320.12740874 C-492.77064607 320.12113212 -492.77064607 320.12113212 -491.16914201 320.11472869 C-490.07292024 320.10643538 -488.97669847 320.09814208 -487.84725785 320.08959746 C-485.45350775 320.07213969 -483.05974001 320.0569888 -480.66596246 320.0438211 C-476.85823611 320.02279638 -473.05059463 319.99576014 -469.24291825 319.96714568 C-461.81386067 319.9123713 -454.3847744 319.86407231 -446.95566392 319.81720519 C-436.93155551 319.75386879 -426.90749 319.68686105 -416.88345742 319.61230254 C-413.16728173 319.58611547 -409.45110151 319.5650502 -405.73489213 319.54429412 C-386.74388224 319.41889514 -367.72002282 319.29114216 -348.8944838 316.55418181 C-347.6682631 316.37717742 -346.4420424 316.20017303 -345.17866349 316.01780486 C-322.1067661 312.53459682 -303.43353905 305.60894721 -285.5819838 290.30418181 C-284.75827287 289.6171115 -283.93456193 288.93004119 -283.08589005 288.22215056 C-274.62142771 280.50823168 -268.77386064 270.62378537 -262.4857924 261.1484201 C-259.60333113 256.84210132 -256.62873476 252.6028188 -253.6444838 248.36668181 C-252.48668613 246.7184168 -251.329137 245.06997717 -250.17182755 243.42136931 C-249.58772111 242.58960174 -249.00361466 241.75783416 -248.40180802 240.9008615 C-245.15830235 236.27275226 -241.93290915 231.63205437 -238.7069838 226.99168181 C-238.03933 226.03141082 -237.37167619 225.07113982 -236.68379045 224.0817697 C-235.32718125 222.13041104 -233.97065483 220.17899483 -232.61421037 218.22752166 C-229.27137326 213.41888019 -225.92659 208.61159289 -222.5819838 203.80418181 C-221.24864093 201.88752178 -219.9153076 199.97085511 -218.5819838 198.05418181 C-210.5819838 186.55418181 -202.5819838 175.05418181 -194.5819838 163.55418181 C-193.92182267 162.60519011 -193.26166154 161.65619842 -192.58149552 160.67844939 C-191.24982795 158.76419759 -189.9181223 156.84997227 -188.58637834 154.93577361 C-185.22724406 150.10737749 -181.86879878 145.27850475 -178.5116713 140.44871306 C-171.64608692 130.57283398 -164.76829738 120.70582171 -157.86616349 110.85545135 C-153.46781576 104.57582276 -149.08429493 98.28598992 -144.7069838 91.99168181 C-144.04360002 91.03785613 -143.38021623 90.08403045 -142.6967299 89.10130095 C-139.25002061 84.14441836 -135.80558377 79.18596771 -132.3632338 74.22605681 C-129.02447187 69.41643174 -125.67924197 64.61137321 -122.32856584 59.81004119 C-121.23608703 58.24263799 -120.14558942 56.6738499 -119.05805802 55.10300994 C-113.69847648 47.36286047 -108.09209121 40.12253294 -101.5819838 33.30418181 C-101.0457338 32.70476775 -100.5094838 32.10535369 -99.9569838 31.48777556 C-73.81294764 3.31757659 -36.06138939 -0.22327575 0 0 Z " fill="#F18020" transform="translate(1915.5819838047028,106.69581818580627)"/>
<path d="M0 0 C2.16026294 0.00084838 4.32052674 0.00036702 6.48078918 -0.00132751 C12.28746709 -0.00218065 18.09395526 0.01533358 23.90058947 0.03639436 C29.99038741 0.05527595 36.08019073 0.05692058 42.17001343 0.06047058 C53.67610324 0.06975755 65.18210651 0.09432558 76.68815839 0.12451905 C89.79835045 0.15816786 102.90854685 0.17457532 116.01877141 0.18960536 C142.96357118 0.22087843 169.90829439 0.27357315 196.85302734 0.34057617 C196.17439724 4.01915173 195.25221907 6.85146331 193.48193359 10.15698242 C192.74233398 11.55400391 192.74233398 11.55400391 191.98779297 12.97924805 C191.46894531 13.94411133 190.95009766 14.90897461 190.41552734 15.90307617 C186.37560451 23.47187967 182.45761337 31.08788294 178.63012695 38.76611328 C177.9388332 40.15089497 177.9388332 40.15089497 177.23357391 41.56365204 C176.10612991 43.82233063 174.97929608 46.08131138 173.85302734 48.34057617 C173.08901769 48.34296453 172.32500803 48.34535288 171.53784657 48.34781361 C152.85383068 48.40723152 134.16994388 48.48294965 115.48606586 48.57629108 C106.45027656 48.62104879 97.41452492 48.6605082 88.37866211 48.68701172 C80.49300049 48.7101555 72.60746008 48.74373212 64.72189492 48.78927773 C60.55562531 48.81299183 56.3894741 48.83186202 52.22313881 48.83819008 C13.56546546 48.90473057 -21.7412945 53.15226024 -50.70947266 81.34057617 C-58.19235372 88.90177041 -64.15215192 97.59101541 -70.14697266 106.34057617 C-71.06976241 107.67547943 -71.99292334 109.01012619 -72.91650391 110.34448242 C-74.71429696 112.94883872 -76.50317519 115.5590755 -78.28759766 118.17260742 C-81.43508222 122.77387768 -84.63315928 127.33915936 -87.83447266 131.90307617 C-94.95388523 142.05644626 -102.03703828 152.23476498 -109.11474609 162.41723633 C-112.4575832 167.22587779 -115.80236646 172.03316509 -119.14697266 176.84057617 C-120.48031553 178.7572362 -121.81364886 180.67390287 -123.14697266 182.59057617 C-151.14697266 222.84057617 -151.14697266 222.84057617 -179.14697266 263.09057617 C-179.80729492 264.03980957 -180.46761719 264.98904297 -181.14794922 265.96704102 C-182.47795101 267.87887798 -183.80802883 269.79066205 -185.13818359 271.70239258 C-189.21195856 277.55757085 -193.2827952 283.41477836 -197.3515625 289.2734375 C-199.36101833 292.16385911 -201.37480561 295.05122341 -203.38916016 297.93823242 C-205.76827245 301.34966416 -208.12772519 304.77301155 -210.46728516 308.21166992 C-226.21603025 331.22221261 -247.59936358 347.95628484 -275.36962891 353.39526367 C-296.03840958 357.21421441 -315.96868735 358.63152138 -336.96728516 358.53588867 C-339.40778486 358.53214936 -341.84828609 358.52930674 -344.28878784 358.52731323 C-350.65082082 358.51974897 -357.0127596 358.50016404 -363.37475586 358.47790527 C-369.89126309 358.45728987 -376.40778583 358.44827826 -382.92431641 358.43823242 C-395.66524155 358.41691 -408.40610205 358.38325855 -421.14697266 358.34057617 C-420.3533454 356.90056987 -419.55831512 355.46133677 -418.76269531 354.02243042 C-418.32011383 353.22087461 -417.87753235 352.41931881 -417.42153931 351.59347343 C-415.90913429 348.92017807 -414.26048755 346.38005312 -412.52197266 343.84838867 C-411.82974609 342.83494385 -411.13751953 341.82149902 -410.42431641 340.77734375 C-410.0554834 340.24106354 -409.68665039 339.70478333 -409.30664062 339.1522522 C-407.67283308 336.77596512 -406.04853419 334.39322861 -404.42358398 332.01087952 C-403.51625788 330.68064805 -402.60853066 329.35069011 -401.70043945 328.02098083 C-395.78920915 319.3615656 -389.92159734 310.67266868 -384.05664062 301.98187256 C-382.19372368 299.22232859 -380.3286105 296.46427858 -378.46337891 293.70629883 C-377.57468109 292.38795044 -377.57468109 292.38795044 -376.66802979 291.04296875 C-375.49578572 289.30857918 -374.31759528 287.57819252 -373.13323975 285.85205078 C-370.34075406 281.75365256 -367.72083899 277.66015702 -365.36279297 273.29516602 C-359.19039309 262.10657232 -359.19039309 262.10657232 -353.66455078 260.03515625 C-349.64681551 259.69576444 -345.88399957 259.90686622 -341.89697266 260.34057617 C-340.46808916 260.42747922 -339.0385733 260.50450613 -337.60864258 260.57202148 C-334.7596881 260.7124361 -331.91706141 260.88844443 -329.07226562 261.09643555 C-323.84091712 261.42180863 -318.69080291 261.34836555 -313.45947266 261.09057617 C-312.57066406 261.0504541 -311.68185547 261.01033203 -310.76611328 260.96899414 C-302.76384651 260.52553281 -294.83696044 259.53406408 -286.89697266 258.46557617 C-285.69468018 258.30412109 -284.4923877 258.14266602 -283.25366211 257.97631836 C-265.63825854 255.4431434 -252.62784735 250.12587501 -239.14697266 238.34057617 C-238.46119141 237.81077148 -237.77541016 237.2809668 -237.06884766 236.73510742 C-230.02854355 231.16868812 -225.23174246 223.62929897 -220.14697266 216.34057617 C-219.54288574 215.47770996 -218.93879883 214.61484375 -218.31640625 213.72583008 C-214.24163217 207.90047313 -210.18928552 202.05977434 -206.14160156 196.21557617 C-203.11452342 191.85243392 -200.06947039 187.50197038 -197.02197266 183.15307617 C-196.45099854 182.33790527 -195.88002441 181.52273437 -195.29174805 180.68286133 C-193.00764836 177.42226614 -190.72279828 174.16219708 -188.43798828 170.90209961 C-181.65767926 161.22643627 -174.89070679 151.54177604 -168.14697266 141.84057617 C-161.40625087 132.14370971 -154.64215875 122.46348434 -147.86474609 112.79223633 C-144.95735175 108.64271189 -142.05229264 104.49155311 -139.14697266 100.34057617 C-137.98031691 98.67390186 -136.81365025 97.00723519 -135.64697266 95.34057617 C-135.06947266 94.51557617 -134.49197266 93.69057617 -133.89697266 92.84057617 C-132.14697266 90.34057617 -130.39697266 87.84057617 -128.64697266 85.34057617 C-127.78023926 84.10235107 -127.78023926 84.10235107 -126.89599609 82.83911133 C-125.73267207 81.17726626 -124.56926102 79.51548212 -123.40576172 77.85375977 C-120.4372255 73.61382525 -117.47034322 69.3727489 -114.50634766 65.12963867 C-111.58713406 60.95119499 -108.66237853 56.77668186 -105.73388672 52.60473633 C-104.26058104 50.50266911 -102.7933296 48.39649417 -101.32666016 46.28979492 C-84.96841405 22.8976563 -62.58788609 7.44903942 -34.2053436 2.09846002 C-22.77131816 0.11379607 -11.58098175 -0.0645743 0 0 Z " fill="#F18020" transform="translate(1854.14697265625,40.659423828125)"/>
<path d="M0 0 C-1.53608759 8.00593063 -4.15019509 15.5015185 -6.90234375 23.16015625 C-7.38598982 24.51802462 -7.86918157 25.87605488 -8.35194397 27.23423767 C-9.61682431 30.78870569 -10.88816686 34.34082873 -12.16082764 37.89251709 C-13.19426013 40.7798747 -14.22320949 43.66881965 -15.25189877 46.55786991 C-23.8186407 70.6170691 -23.8186407 70.6170691 -27 79 C-30.60331078 77.66339906 -33.93154593 75.99676775 -37.31567383 74.18164062 C-49.09278787 67.94966244 -61.48176401 63.68515638 -75 65 C-75.88945313 65.0825 -76.77890625 65.165 -77.6953125 65.25 C-89.00642419 66.79681869 -99.53824146 72.32483399 -107 81 C-128.10449256 110.77171511 -126.78032124 152.44178366 -127.52734375 187.328125 C-127.54776167 188.24540627 -127.56817959 189.16268753 -127.58921623 190.1077652 C-128.16539045 216.33310219 -128.33428027 242.56409626 -128.53222656 268.79443359 C-128.59266657 276.69160305 -128.65803899 284.5887331 -128.72252655 292.48587036 C-128.81867189 304.32388849 -128.9087887 316.16193823 -129 328 C-158.37 328 -187.74 328 -218 328 C-218 216.79 -218 105.58 -218 -9 C-190.61 -9 -163.22 -9 -135 -9 C-134.67 5.52 -134.34 20.04 -134 35 C-130.04 29.39 -126.08 23.78 -122 18 C-106.63565105 -1.1622779 -91.1842361 -13.96835807 -66.25 -16.75 C-42.34707499 -18.20900971 -20.63730033 -11.72036533 0 0 Z " fill="#000000" transform="translate(931,319)"/>
<path d="M0 0 C4.29 0 8.58 0 13 0 C14.95159006 11.56009429 16.05353632 23.14380666 17.125 34.8125 C17.3082391 36.77672583 17.49183021 38.74091885 17.67578125 40.70507812 C18.12124324 45.46968391 18.5619514 50.23470716 19 55 C19.60352295 53.49856445 19.60352295 53.49856445 20.21923828 51.96679688 C24.45745944 41.50491861 29.00042316 31.20975125 33.73632812 20.96435547 C34.89889893 18.44827706 36.0552196 15.92938877 37.2109375 13.41015625 C37.95016369 11.80452302 38.68973322 10.19904782 39.4296875 8.59375 C39.77442108 7.84291138 40.11915466 7.09207275 40.47433472 6.31848145 C42.88438494 1.11561506 42.88438494 1.11561506 44 0 C46.53049402 -0.07313567 49.03304837 -0.09247527 51.5625 -0.0625 C52.62887695 -0.05573242 52.62887695 -0.05573242 53.71679688 -0.04882812 C55.47790013 -0.03700864 57.23896036 -0.01907263 59 0 C59.40909821 5.58267039 59.81802601 11.16535322 60.22680664 16.74804688 C60.36543348 18.64095382 60.50410415 20.53385755 60.64282227 22.42675781 C61.43843192 33.2838138 62.23026201 44.14107333 63 55 C63.4640625 53.95070313 63.928125 52.90140625 64.40625 51.8203125 C69.62867287 40.08413704 75.03870097 28.43888938 80.5 16.8125 C80.86246826 16.03900208 81.22493652 15.26550415 81.59838867 14.46856689 C82.63612187 12.25525638 83.6769105 10.04341131 84.71875 7.83203125 C85.03505371 7.15685959 85.35135742 6.48168793 85.67724609 5.78605652 C87.88505357 1.11494643 87.88505357 1.11494643 89 0 C91.35313555 -0.07271741 93.70833668 -0.08370868 96.0625 -0.0625 C97.99802734 -0.04896484 97.99802734 -0.04896484 99.97265625 -0.03515625 C100.97167969 -0.02355469 101.97070312 -0.01195312 103 0 C97.55877148 12.88712018 91.38227035 25.3653612 85.08935547 37.8503418 C80.36035244 47.2387225 75.7488682 56.67124541 71.27416992 66.18432617 C70.86658447 67.04775635 70.45899902 67.91118652 70.0390625 68.80078125 C69.69053223 69.54497314 69.34200195 70.28916504 68.98291016 71.0559082 C68 73 68 73 66 76 C63.37302936 76.22137393 60.99106036 76.28162025 58.375 76.1875 C57.66859375 76.17396484 56.9621875 76.16042969 56.234375 76.14648438 C54.48925872 76.1111104 52.74453392 76.05730221 51 76 C50.96463638 75.43925278 50.92927277 74.87850555 50.89283752 74.30076599 C50.52293647 68.44403019 50.14916842 62.58755012 49.77319336 56.73120117 C49.63353682 54.54799571 49.49485349 52.36472775 49.35717773 50.18139648 C49.1586723 47.03612451 48.95662324 43.89109675 48.75390625 40.74609375 C48.6934462 39.7760289 48.63298615 38.80596405 48.57069397 37.8065033 C48.24597623 32.82409084 47.78952593 27.93081291 47 23 C44.70513588 27.97549114 42.41236017 32.95193788 40.12133789 37.92919922 C39.34518858 39.61467091 38.56851441 41.29990103 37.79125977 42.98486328 C32.73856879 53.93943699 27.80062746 64.93241797 23 76 C18.05 76 13.1 76 8 76 C6.63391774 73.26783548 6.56296012 70.77630339 6.24389648 67.73364258 C6.17547546 67.09110535 6.10705444 66.44856812 6.03656006 65.78656006 C5.81080917 63.65627704 5.59079242 61.52544632 5.37109375 59.39453125 C5.21581882 57.91197766 5.06030294 56.42944929 4.90455627 54.94694519 C4.57845366 51.83427247 4.25515946 48.72132409 3.93383789 45.6081543 C3.52313795 41.63103094 3.10575113 37.65464431 2.68624783 33.67844105 C2.36359811 30.61339031 2.04444736 27.54798285 1.72633553 24.48245811 C1.57388734 23.01723014 1.42039215 21.55211068 1.2658062 20.0871067 C1.04924592 18.02952892 0.83739054 15.97151704 0.62670898 13.91333008 C0.50537094 12.74465897 0.3840329 11.57598785 0.25901794 10.37190247 C-0.00760387 6.90101263 -0.04442667 3.4796967 0 0 Z " fill="#000000" transform="translate(851,712)"/>
<path d="M0 0 C4.62 0 9.24 0 14 0 C12.77974179 8.64349566 11.19907696 17.11586235 9.32128906 25.63793945 C9.15081055 26.41999756 8.98033203 27.20205566 8.8046875 28.0078125 C8.64983887 28.70535645 8.49499023 29.40290039 8.33544922 30.12158203 C7.91210025 32.17419045 7.91210025 32.17419045 8 35 C8.70125 34.401875 9.4025 33.80375 10.125 33.1875 C16.72745408 28.16389364 22.76747402 26.45116493 31 27 C37.71836087 28.48906079 43.09762878 30.9098597 47.18359375 36.66796875 C54.23291827 48.36519955 53.7096552 61.00170353 51 74 C47.25155716 86.86589591 40.40175127 97.50406658 28.62109375 104.390625 C21.67814073 107.55563087 14.01662647 108.55059363 6.63671875 106.26953125 C1.15187909 103.73886135 -2.65434097 100.01848855 -6 95 C-7.485 99.95 -7.485 99.95 -9 105 C-13.29 105 -17.58 105 -22 105 C-10.53584071 48.39735561 -10.53584071 48.39735561 -4.8125 21 C-4.62277618 20.08890472 -4.43305237 19.17780945 -4.23757935 18.23910522 C-3.70856829 15.70064541 -3.17705424 13.16272509 -2.64453125 10.625 C-2.49091125 9.88715775 -2.33729126 9.14931549 -2.17901611 8.38911438 C-1.57537379 5.5270859 -0.92603397 2.77810192 0 0 Z M6.671875 48.60546875 C-0.19080765 58.43449787 -2.98751809 70.73124772 -1.5390625 82.5546875 C-0.50693152 87.23667294 1.99304865 89.96507778 5.25 93.3125 C9.43097533 95.8780985 13.2912847 96.49108388 18.046875 95.62890625 C24.60084849 93.58396491 29.0261711 89.39669744 32.44140625 83.51953125 C37.62211981 72.80241335 41.12649465 60.99795985 37.875 49.25 C36.00048945 44.1197606 32.88703799 41.443519 28 39 C18.1554606 37.91993363 12.91999177 41.15472773 6.671875 48.60546875 Z " fill="#000000" transform="translate(630,683)"/>
<path d="M0 0 C5.40203922 6.17375911 4.47287907 13.12167507 4 21 C3.26263288 25.75112389 2.19701954 30.39201794 1.0625 35.0625 C-1.71046773 46.67550869 -4.1020347 58.08847003 -2 70 C-4.31243792 70.02685412 -6.6249627 70.04632841 -8.9375 70.0625 C-10.22527344 70.07410156 -11.51304687 70.08570313 -12.83984375 70.09765625 C-16 70 -16 70 -17 69 C-17.04092937 66.66702567 -17.04241723 64.33294775 -17 62 C-17.70125 62.47050781 -18.4025 62.94101562 -19.125 63.42578125 C-29.7252729 70.38221034 -37.05230379 73.30515151 -50 72 C-56.74620532 70.35506169 -61.24575536 66.79044512 -65 61 C-68.05694833 54.74715113 -67.99345334 47.24275181 -65.8125 40.6875 C-63.27762538 34.80043137 -58.53001858 31.01637377 -53 28 C-44.7684745 25.37040687 -36.58877099 24.40084312 -28 23.875 C-25.81230306 23.7294939 -23.62479078 23.58117666 -21.4375 23.4296875 C-20.48746094 23.37022949 -19.53742187 23.31077148 -18.55859375 23.24951172 C-16.24644751 23.02403334 -14.19415636 22.76185985 -12 22 C-10.77308933 19.54617866 -10.79824069 17.80015897 -10.75 15.0625 C-10.71132813 13.74958984 -10.71132813 13.74958984 -10.671875 12.41015625 C-10.81168416 9.9875682 -10.81168416 9.9875682 -12.203125 8.30859375 C-18.17810841 3.95724714 -24.91710393 4.42836652 -32 5 C-37.30614574 6.80029945 -41.48949453 10.13935095 -44.140625 15.16015625 C-44.42421875 15.76730469 -44.7078125 16.37445312 -45 17 C-47.12472576 17.05386629 -49.24983652 17.09273071 -51.375 17.125 C-52.55835938 17.14820313 -53.74171875 17.17140625 -54.9609375 17.1953125 C-58 17 -58 17 -60 15 C-55.86762438 5.74347862 -50.96192523 -0.81230499 -41.53515625 -5.03515625 C-27.39588133 -10.41635949 -12.14130729 -9.35120436 0 0 Z M-28.25 34.3125 C-29.76787109 34.48942383 -29.76787109 34.48942383 -31.31640625 34.66992188 C-42.08534872 35.9627746 -42.08534872 35.9627746 -51 41.6875 C-53.43335034 45.7177365 -53.99595497 48.41312483 -53 53 C-50.89713468 57.05552597 -49.23197039 59.32389703 -45 61 C-37.00350832 62.2135251 -30.61205777 60.57847234 -24 56 C-17.25556711 50.28536224 -13.91188851 41.6629408 -13 33 C-18.1554004 33 -23.14047478 33.66819977 -28.25 34.3125 Z " fill="#000000" transform="translate(1018,718)"/>
<path d="M0 0 C5.40203922 6.17375911 4.47287907 13.12167507 4 21 C3.26263288 25.75112389 2.19701954 30.39201794 1.0625 35.0625 C-1.71046773 46.67550869 -4.1020347 58.08847003 -2 70 C-4.31243792 70.02685412 -6.6249627 70.04632841 -8.9375 70.0625 C-10.22527344 70.07410156 -11.51304687 70.08570313 -12.83984375 70.09765625 C-16 70 -16 70 -17 69 C-17.04092937 66.66702567 -17.04241723 64.33294775 -17 62 C-17.70125 62.47050781 -18.4025 62.94101562 -19.125 63.42578125 C-29.7252729 70.38221034 -37.05230379 73.30515151 -50 72 C-56.74620532 70.35506169 -61.24575536 66.79044512 -65 61 C-68.05694833 54.74715113 -67.99345334 47.24275181 -65.8125 40.6875 C-63.27762538 34.80043137 -58.53001858 31.01637377 -53 28 C-44.7684745 25.37040687 -36.58877099 24.40084312 -28 23.875 C-25.81230306 23.7294939 -23.62479078 23.58117666 -21.4375 23.4296875 C-20.48746094 23.37022949 -19.53742187 23.31077148 -18.55859375 23.24951172 C-16.24644751 23.02403334 -14.19415636 22.76185985 -12 22 C-10.77308933 19.54617866 -10.79824069 17.80015897 -10.75 15.0625 C-10.71132813 13.74958984 -10.71132813 13.74958984 -10.671875 12.41015625 C-10.81168416 9.9875682 -10.81168416 9.9875682 -12.203125 8.30859375 C-18.17810841 3.95724714 -24.91710393 4.42836652 -32 5 C-37.30614574 6.80029945 -41.48949453 10.13935095 -44.140625 15.16015625 C-44.42421875 15.76730469 -44.7078125 16.37445312 -45 17 C-47.12472576 17.05386629 -49.24983652 17.09273071 -51.375 17.125 C-52.55835938 17.14820313 -53.74171875 17.17140625 -54.9609375 17.1953125 C-58 17 -58 17 -60 15 C-55.86762438 5.74347862 -50.96192523 -0.81230499 -41.53515625 -5.03515625 C-27.39588133 -10.41635949 -12.14130729 -9.35120436 0 0 Z M-28.25 34.3125 C-29.76787109 34.48942383 -29.76787109 34.48942383 -31.31640625 34.66992188 C-42.08534872 35.9627746 -42.08534872 35.9627746 -51 41.6875 C-53.43335034 45.7177365 -53.99595497 48.41312483 -53 53 C-50.89713468 57.05552597 -49.23197039 59.32389703 -45 61 C-37.00350832 62.2135251 -30.61205777 60.57847234 -24 56 C-17.25556711 50.28536224 -13.91188851 41.6629408 -13 33 C-18.1554004 33 -23.14047478 33.66819977 -28.25 34.3125 Z " fill="#000000" transform="translate(596,718)"/>
<path d="M0 0 C7.19186874 5.19969604 10.78414721 11.56355183 12.25 20.3125 C12.61022043 26.74407213 12.8217154 33.0256384 11.25 39.3125 C-7.23 39.3125 -25.71 39.3125 -44.75 39.3125 C-43.5735014 51.02160988 -43.5735014 51.02160988 -37.75 60.3125 C-33.49223774 63.27112322 -29.6655377 63.5761934 -24.625 62.75 C-15.75644258 60.49895943 -10.65605436 54.67158155 -5.75 47.3125 C-1.20145106 47.0142345 2.81151204 47.20287801 7.25 48.3125 C6.9448594 54.41531201 4.07320368 57.84921244 0.25 62.3125 C-0.27851562 62.93640625 -0.80703125 63.5603125 -1.3515625 64.203125 C-7.35610582 70.7483618 -15.17979195 74.91275566 -24.0703125 75.55078125 C-33.78138614 75.74021698 -42.81880752 74.9477752 -50.37109375 68.0625 C-57.96732398 58.42195852 -59.47224937 48.18948972 -58.75 36.3125 C-56.78657771 23.13427582 -50.81291931 11.14388652 -40.75 2.3125 C-28.61644948 -5.68247515 -12.70384806 -7.88732288 0 0 Z M-37.05859375 16.60546875 C-39.41959472 20.14871199 -39.41959472 20.14871199 -41.75 28.3125 C-28.22 28.3125 -14.69 28.3125 -0.75 28.3125 C-0.75 21.42601795 -0.91960552 16.94483958 -5.15625 11.5078125 C-9.03965703 7.67935934 -12.7053386 6.29155444 -18.13671875 6.09375 C-26.41393106 6.78661082 -31.65379817 10.52366329 -37.05859375 16.60546875 Z " fill="#000000" transform="translate(783.75,714.6875)"/>
<path d="M0 0 C7.19186874 5.19969604 10.78414721 11.56355183 12.25 20.3125 C12.61022043 26.74407213 12.8217154 33.0256384 11.25 39.3125 C-7.23 39.3125 -25.71 39.3125 -44.75 39.3125 C-43.5735014 51.02160988 -43.5735014 51.02160988 -37.75 60.3125 C-33.49223774 63.27112322 -29.6655377 63.5761934 -24.625 62.75 C-15.75644258 60.49895943 -10.65605436 54.67158155 -5.75 47.3125 C-1.20145106 47.0142345 2.81151204 47.20287801 7.25 48.3125 C6.9448594 54.41531201 4.07320368 57.84921244 0.25 62.3125 C-0.27851563 62.93640625 -0.80703125 63.5603125 -1.3515625 64.203125 C-7.35610582 70.7483618 -15.17979195 74.91275566 -24.0703125 75.55078125 C-33.78138614 75.74021698 -42.81880752 74.9477752 -50.37109375 68.0625 C-57.96732398 58.42195852 -59.47224937 48.18948972 -58.75 36.3125 C-56.78657771 23.13427582 -50.81291931 11.14388652 -40.75 2.3125 C-28.61644948 -5.68247515 -12.70384806 -7.88732288 0 0 Z M-37.05859375 16.60546875 C-39.41959472 20.14871199 -39.41959472 20.14871199 -41.75 28.3125 C-28.22 28.3125 -14.69 28.3125 -0.75 28.3125 C-0.75 21.42601795 -0.91960552 16.94483958 -5.15625 11.5078125 C-9.03965703 7.67935934 -12.7053386 6.29155444 -18.13671875 6.09375 C-26.41393106 6.78661082 -31.65379817 10.52366329 -37.05859375 16.60546875 Z " fill="#000000" transform="translate(442.75,714.6875)"/>
<path d="M0 0 C7.19186874 5.19969604 10.78414721 11.56355183 12.25 20.3125 C12.61022043 26.74407213 12.8217154 33.0256384 11.25 39.3125 C-7.23 39.3125 -25.71 39.3125 -44.75 39.3125 C-43.5735014 51.02160988 -43.5735014 51.02160988 -37.75 60.3125 C-33.49223774 63.27112322 -29.6655377 63.5761934 -24.625 62.75 C-15.75644258 60.49895943 -10.65605436 54.67158155 -5.75 47.3125 C-1.20145106 47.0142345 2.81151204 47.20287801 7.25 48.3125 C6.9448594 54.41531201 4.07320368 57.84921244 0.25 62.3125 C-0.27851563 62.93640625 -0.80703125 63.5603125 -1.3515625 64.203125 C-7.35610582 70.7483618 -15.17979195 74.91275566 -24.0703125 75.55078125 C-33.78138614 75.74021698 -42.81880752 74.9477752 -50.37109375 68.0625 C-57.96732398 58.42195852 -59.47224937 48.18948972 -58.75 36.3125 C-56.78657771 23.13427582 -50.81291931 11.14388652 -40.75 2.3125 C-28.61644948 -5.68247515 -12.70384806 -7.88732288 0 0 Z M-37.05859375 16.60546875 C-39.41959472 20.14871199 -39.41959472 20.14871199 -41.75 28.3125 C-28.22 28.3125 -14.69 28.3125 -0.75 28.3125 C-0.75 21.42601795 -0.91960552 16.94483958 -5.15625 11.5078125 C-9.03965703 7.67935934 -12.7053386 6.29155444 -18.13671875 6.09375 C-26.41393106 6.78661082 -31.65379817 10.52366329 -37.05859375 16.60546875 Z " fill="#000000" transform="translate(272.75,714.6875)"/>
<path d="M0 0 C4.62 0 9.24 0 14 0 C12.22128959 12.77437473 9.58390543 25.36839376 7 38 C7.45165527 37.59370361 7.90331055 37.18740723 8.36865234 36.76879883 C15.82268611 30.1968817 23.6288492 26.56516754 33.74609375 26.71875 C39.30557502 27.41248076 44.34435223 29.509917 48.5 33.25 C55.85608814 46.73616158 49.09247454 65.28689005 46.05883789 79.46875 C45.42835739 82.4177637 44.80819761 85.36881623 44.18945312 88.3203125 C43.79225342 90.20064487 43.39448873 92.08085801 42.99609375 93.9609375 C42.81066513 94.84099457 42.62523651 95.72105164 42.43418884 96.6277771 C42.26053299 97.43687531 42.08687714 98.24597351 41.90795898 99.07958984 C41.68051247 100.14637466 41.68051247 100.14637466 41.44847107 101.23471069 C41 103 41 103 40 105 C35.38 105 30.76 105 26 105 C26.49059347 102.42546969 26.98157798 99.8510135 27.47412109 97.27685547 C27.91322532 94.98185236 28.35102113 92.68659857 28.78759766 90.39111328 C30.03509509 83.87213055 31.33113696 77.3686879 32.703125 70.875 C33.12320485 68.86343995 33.54239308 66.85169592 33.96136475 64.83990479 C34.36775405 62.90942067 34.78751896 60.98176782 35.20751953 59.05419922 C36.53767759 52.65513037 37.36227466 47.42673106 36 41 C28.79926182 39.0096836 22.70791337 39.46628275 16 42.80859375 C6.29851476 48.58779882 3.21722501 58.65095926 0.51339722 68.94845581 C-1.09024643 75.35664364 -2.37112154 81.84060353 -3.6875 88.3125 C-4.14704821 90.56257705 -4.60817313 92.81228021 -5.07392883 95.06108093 C-5.48906363 97.06634798 -5.89838677 99.0728156 -6.30737305 101.0793457 C-7 104 -7 104 -8 105 C-10.35313555 105.07271741 -12.70833668 105.08370868 -15.0625 105.0625 C-16.99802734 105.04896484 -16.99802734 105.04896484 -18.97265625 105.03515625 C-19.97167969 105.02355469 -20.97070312 105.01195312 -22 105 C-10.58172317 48.61699276 -10.58172317 48.61699276 -4.8125 21 C-4.62277618 20.08890472 -4.43305237 19.17780945 -4.23757935 18.23910522 C-3.70856829 15.70064541 -3.17705424 13.16272509 -2.64453125 10.625 C-2.49091125 9.88715775 -2.33729126 9.14931549 -2.17901611 8.38911438 C-1.57537379 5.5270859 -0.92603397 2.77810192 0 0 Z " fill="#000000" transform="translate(152,683)"/>
<path d="M0 0 C7.36460287 7.67146132 8.49724929 16.853883 8.41943359 27.05615234 C8.00590529 39.98224666 3.9426445 51.54257024 -4.94921875 61.09375 C-14.02978042 69.51423155 -24.13911518 72.53039813 -36.4296875 72.30859375 C-45.52627553 71.52234599 -53.03622906 67.97648676 -59 61 C-65.57264372 50.6060518 -65.41336795 37.9794716 -63.31640625 26.140625 C-60.65047502 16.89283036 -56.31283879 8.39873394 -49 2 C-48.113125 1.154375 -47.22625 0.30875 -46.3125 -0.5625 C-33.24441875 -11.26684562 -12.82924647 -10.5383096 0 0 Z M-42 13 C-50.14410132 22.97968893 -51.14215074 35.60700804 -50 48 C-48.81282616 53.01748944 -46.50109511 55.96807181 -42.375 59 C-37.64291277 61.59473185 -33.2739489 61.89160859 -28 61 C-20.50458883 58.70410829 -14.98495627 53.62567464 -11.265625 46.83203125 C-6.42986609 36.64239641 -3.70785823 25.65774692 -6.68359375 14.41796875 C-8.79408904 9.83793125 -11.66839979 6.64708902 -16 4 C-26.84432836 1.07057573 -34.61566687 5.1244344 -42 13 Z " fill="#000000" transform="translate(1251,718)"/>
<path d="M0 0 C4.29 0 8.58 0 13 0 C14.97062101 6.12704579 15.86672909 12.25299613 16.7265625 18.62109375 C16.87910492 19.72099136 17.03164734 20.82088898 17.18881226 21.95411682 C17.67226439 25.44794558 18.14872963 28.94268575 18.625 32.4375 C18.95266342 34.8145168 19.28078344 37.1914707 19.609375 39.56835938 C20.41153877 45.37818838 21.20797684 51.18878038 22 57 C24.90586462 52.41267974 27.72866623 47.81006432 30.34765625 43.05078125 C30.94755371 41.96458496 31.54745117 40.87838867 32.16552734 39.75927734 C33.10452881 38.05312256 33.10452881 38.05312256 34.0625 36.3125 C35.3875221 33.91436585 36.71485197 31.51751522 38.04296875 29.12109375 C38.37423767 28.52323059 38.70550659 27.92536743 39.04681396 27.30938721 C42.28347193 21.47548202 45.56741858 15.66898775 48.875 9.875 C49.6330896 8.54335815 49.6330896 8.54335815 50.40649414 7.18481445 C51.09859985 5.97571411 51.09859985 5.97571411 51.8046875 4.7421875 C52.40772705 3.68813721 52.40772705 3.68813721 53.02294922 2.61279297 C54 1 54 1 55 0 C57.35313555 -0.07271741 59.70833668 -0.08370868 62.0625 -0.0625 C63.99802734 -0.04896484 63.99802734 -0.04896484 65.97265625 -0.03515625 C66.97167969 -0.02355469 67.97070312 -0.01195312 69 0 C67.75563951 4.03063793 66.27934437 7.57946042 64.19921875 11.24609375 C63.64105469 12.23609375 63.08289062 13.22609375 62.5078125 14.24609375 C61.90710937 15.29925781 61.30640625 16.35242188 60.6875 17.4375 C60.06230469 18.54351563 59.43710938 19.64953125 58.79296875 20.7890625 C56.86651995 24.19530363 54.93342271 27.59771379 53 31 C51.35885974 33.90008429 49.71964546 36.80124921 48.08081055 39.70263672 C47.02217213 41.5759771 45.96242889 43.44869353 44.90161133 45.32080078 C42.06796249 50.32398212 39.25224387 55.33633818 36.4609375 60.36328125 C31.07248417 70.06293694 25.66820908 79.74721612 19.9375 89.25 C19.50872559 89.97034424 19.07995117 90.69068848 18.63818359 91.43286133 C14.36356388 98.42070766 8.97747806 104.34084065 1 107 C-0.83140741 107.09377689 -2.66619987 107.12992957 -4.5 107.125 C-5.93859375 107.12886719 -5.93859375 107.12886719 -7.40625 107.1328125 C-10 107 -10 107 -13 106 C-13 101.71 -13 97.42 -13 93 C-11.47375 93.061875 -9.9475 93.12375 -8.375 93.1875 C-3.70999401 93.13501048 -0.79467349 92.95141272 3 90 C10.57986686 79.62092919 11.31883416 74.20241468 9.51852417 61.64041138 C8.94273831 58.04848267 8.33484173 54.46346369 7.71484375 50.87890625 C7.49151669 49.5629143 7.2687547 48.24682635 7.04652405 46.9306488 C6.34908172 42.80697532 5.6436022 38.68469795 4.9375 34.5625 C4.22788139 30.41530174 3.51981269 26.26785664 2.81776428 22.11936951 C2.38212255 19.54778564 1.9426831 16.97684155 1.49900818 14.40663147 C1.30202835 13.24449631 1.10504852 12.08236115 0.90209961 10.88500977 C0.72746689 9.86641373 0.55283417 8.84781769 0.37290955 7.7983551 C0 5 0 5 0 0 Z " fill="#000000" transform="translate(1387,712)"/>
<path d="M0 0 C4.29 0 8.58 0 13 0 C14.97062101 6.12704579 15.86672909 12.25299613 16.7265625 18.62109375 C16.87910492 19.72099136 17.03164734 20.82088898 17.18881226 21.95411682 C17.67226439 25.44794558 18.14872963 28.94268575 18.625 32.4375 C18.95266342 34.8145168 19.28078344 37.1914707 19.609375 39.56835938 C20.41153877 45.37818838 21.20797684 51.18878038 22 57 C24.90586462 52.41267974 27.72866623 47.81006432 30.34765625 43.05078125 C30.94755371 41.96458496 31.54745117 40.87838867 32.16552734 39.75927734 C33.10452881 38.05312256 33.10452881 38.05312256 34.0625 36.3125 C35.3875221 33.91436585 36.71485197 31.51751522 38.04296875 29.12109375 C38.37423767 28.52323059 38.70550659 27.92536743 39.04681396 27.30938721 C42.28347193 21.47548202 45.56741858 15.66898775 48.875 9.875 C49.6330896 8.54335815 49.6330896 8.54335815 50.40649414 7.18481445 C51.09859985 5.97571411 51.09859985 5.97571411 51.8046875 4.7421875 C52.40772705 3.68813721 52.40772705 3.68813721 53.02294922 2.61279297 C54 1 54 1 55 0 C57.35313555 -0.07271741 59.70833668 -0.08370868 62.0625 -0.0625 C63.99802734 -0.04896484 63.99802734 -0.04896484 65.97265625 -0.03515625 C66.97167969 -0.02355469 67.97070312 -0.01195312 69 0 C67.75563951 4.03063793 66.27934437 7.57946042 64.19921875 11.24609375 C63.64105469 12.23609375 63.08289062 13.22609375 62.5078125 14.24609375 C61.90710937 15.29925781 61.30640625 16.35242188 60.6875 17.4375 C60.06230469 18.54351563 59.43710938 19.64953125 58.79296875 20.7890625 C56.86651995 24.19530363 54.93342271 27.59771379 53 31 C51.35885974 33.90008429 49.71964546 36.80124921 48.08081055 39.70263672 C47.02217213 41.5759771 45.96242889 43.44869353 44.90161133 45.32080078 C42.06796249 50.32398212 39.25224387 55.33633818 36.4609375 60.36328125 C31.07248417 70.06293694 25.66820908 79.74721612 19.9375 89.25 C19.50872559 89.97034424 19.07995117 90.69068848 18.63818359 91.43286133 C14.36356388 98.42070766 8.97747806 104.34084065 1 107 C-0.83140741 107.09377689 -2.66619987 107.12992957 -4.5 107.125 C-5.93859375 107.12886719 -5.93859375 107.12886719 -7.40625 107.1328125 C-10 107 -10 107 -13 106 C-13 101.71 -13 97.42 -13 93 C-11.47375 93.061875 -9.9475 93.12375 -8.375 93.1875 C-3.70999401 93.13501048 -0.79467349 92.95141272 3 90 C10.57986686 79.62092919 11.31883416 74.20241468 9.51852417 61.64041138 C8.94273831 58.04848267 8.33484173 54.46346369 7.71484375 50.87890625 C7.49151669 49.5629143 7.2687547 48.24682635 7.04652405 46.9306488 C6.34908172 42.80697532 5.6436022 38.68469795 4.9375 34.5625 C4.22788139 30.41530174 3.51981269 26.26785664 2.81776428 22.11936951 C2.38212255 19.54778564 1.9426831 16.97684155 1.49900818 14.40663147 C1.30202835 13.24449631 1.10504852 12.08236115 0.90209961 10.88500977 C0.72746689 9.86641373 0.55283417 8.84781769 0.37290955 7.7983551 C0 5 0 5 0 0 Z " fill="#000000" transform="translate(1039,712)"/>
<path d="M0 0 C27.39 0 54.78 0 83 0 C82 10 82 10 81 13 C69.78 13 58.56 13 47 13 C46.32582031 16.57585938 45.65164062 20.15171875 44.95703125 23.8359375 C41.92150128 39.73244421 38.54863204 55.55474453 35.16680908 71.38037109 C34.35344967 75.18937475 33.54308557 78.99901564 32.73242188 82.80859375 C31.1577743 90.20633413 29.57969912 97.60333634 28 105 C23.05 105 18.1 105 13 105 C13.5925557 99.05649091 14.43843706 93.29163178 15.67407227 87.45092773 C15.84002899 86.64982071 16.00598572 85.84871368 16.17697144 85.02333069 C16.71951245 82.40924808 17.26790182 79.79643095 17.81640625 77.18359375 C18.19648506 75.35807234 18.57619428 73.53247394 18.95555115 71.70680237 C19.9497595 66.92707286 20.94895173 62.14839881 21.94921875 57.36993408 C22.97113672 52.48358368 23.98829178 47.59624222 25.00585938 42.70898438 C26.99927109 33.13835069 28.99839397 23.56892328 31 14 C20.11 13.67 9.22 13.34 -2 13 C-1 3 -1 3 0 0 Z " fill="#000000" transform="translate(57,683)"/>
<path d="M0 0 C-0.66 4.29 -1.32 8.58 -2 13 C-2.99 12.835 -3.98 12.67 -5 12.5 C-12.06760103 11.25813375 -12.06760103 11.25813375 -18.59765625 13.06640625 C-20.65058641 15.89704811 -21.29232852 18.82288997 -22.1875 22.1875 C-22.53167969 23.45980469 -22.87585937 24.73210938 -23.23046875 26.04296875 C-23.61138672 27.50669922 -23.61138672 27.50669922 -24 29 C-19.38 29 -14.76 29 -10 29 C-10.875 37.75 -10.875 37.75 -12 40 C-15.16015625 40.4140625 -15.16015625 40.4140625 -19.0625 40.625 C-20.35285156 40.69976563 -21.64320312 40.77453125 -22.97265625 40.8515625 C-23.97167969 40.90054688 -24.97070312 40.94953125 -26 41 C-26.16064438 41.7722995 -26.32128876 42.544599 -26.48680115 43.34030151 C-27.99947743 50.61003694 -29.51481287 57.8792105 -31.03315639 65.14776421 C-31.81370047 68.88482499 -32.59320588 72.62209621 -33.37036133 76.35986328 C-34.12006419 79.96540591 -34.87246427 83.57037592 -35.62675667 87.17496109 C-35.91439487 88.55190002 -36.20105217 89.92904422 -36.48672295 91.30639267 C-36.88627479 93.23197969 -37.28960427 95.1567817 -37.69311523 97.08154297 C-38.03619972 98.72701614 -38.03619972 98.72701614 -38.38621521 100.4057312 C-39 103 -39 103 -40 105 C-44.62 105 -49.24 105 -54 105 C-50.00321364 83.59413457 -45.53562839 62.29699829 -41 41 C-44.63 40.67 -48.26 40.34 -52 40 C-51.34 36.37 -50.68 32.74 -50 29 C-46.04 29 -42.08 29 -38 29 C-37.7525 27.2675 -37.505 25.535 -37.25 23.75 C-34.32984653 6.61437719 -34.32984653 6.61437719 -29.3125 1.875 C-19.89295587 -3.45681743 -10.27809265 -2.05561853 0 0 Z " fill="#000000" transform="translate(1362,683)"/>
<path d="M0 0 C-0.61722584 9.56700056 -2.8201341 18.69247957 -5 28 C-1.04 28 2.92 28 7 28 C6.125 36.75 6.125 36.75 5 39 C0.71 39 -3.58 39 -8 39 C-8.12689209 40.45752686 -8.25378418 41.91505371 -8.38452148 43.41674805 C-8.89218472 48.47543017 -9.77453484 53.3668203 -10.84765625 58.33203125 C-11.02380966 59.17166916 -11.19996307 60.01130707 -11.38145447 60.87638855 C-11.93684278 63.52283533 -12.49883667 66.16780425 -13.0625 68.8125 C-13.80913141 72.31782818 -14.54908447 75.82447244 -15.28515625 79.33203125 C-15.45700943 80.12793167 -15.62886261 80.92383209 -15.80592346 81.74385071 C-16.04133095 82.86608284 -16.04133095 82.86608284 -16.28149414 84.01098633 C-16.49014854 84.98833488 -16.49014854 84.98833488 -16.70301819 85.98542786 C-17.12153387 88.48503265 -17.12153387 88.48503265 -17 93 C-13.04 93 -9.08 93 -5 93 C-5.33 96.63 -5.66 100.26 -6 104 C-12.26435183 106.50574073 -17.87881543 106.89675369 -24.25 104.8125 C-28.00650783 103.1930606 -30.1167645 101.766471 -32 98 C-32.75300578 90.27299829 -31.46831842 82.94393638 -29.8125 75.42578125 C-29.59053955 74.37593552 -29.3685791 73.32608978 -29.13989258 72.24443054 C-28.43698816 68.93146845 -27.71878545 65.62204871 -27 62.3125 C-26.51720878 60.05034774 -26.03542836 57.7879795 -25.5546875 55.52539062 C-24.38145394 50.0143631 -23.19450022 44.50645542 -22 39 C-24.97 39 -27.94 39 -31 39 C-30.85957123 37.35369672 -30.71250671 35.70795821 -30.5625 34.0625 C-30.44068359 32.68771484 -30.44068359 32.68771484 -30.31640625 31.28515625 C-30 29 -30 29 -29 28 C-27.31391034 27.92794489 -25.62499341 27.91613932 -23.9375 27.9375 C-23.01839844 27.94652344 -22.09929687 27.95554687 -21.15234375 27.96484375 C-20.44207031 27.97644531 -19.73179688 27.98804688 -19 28 C-18.87882812 27.13117187 -18.75765625 26.26234375 -18.6328125 25.3671875 C-18.46523437 24.21476563 -18.29765625 23.06234375 -18.125 21.875 C-17.96257812 20.73804688 -17.80015625 19.60109375 -17.6328125 18.4296875 C-15.96544487 9.39296663 -15.96544487 9.39296663 -11.77734375 6.4453125 C-10.50806643 5.65448551 -9.22763161 4.8813284 -7.9375 4.125 C-7.28716797 3.7228125 -6.63683594 3.320625 -5.96679688 2.90625 C-1.21695631 0 -1.21695631 0 0 0 Z " fill="#000000" transform="translate(1179,684)"/>
<path d="M0 0 C4.62 0 9.24 0 14 0 C12.37977619 11.49053408 10.06229228 22.78733874 7.68359375 34.140625 C7.26267444 36.15985243 6.84194711 38.1791199 6.42140198 40.19842529 C5.54530198 44.40114728 4.66672382 48.60334141 3.78637695 52.80517578 C2.65604765 58.20129899 1.53230059 63.59876909 0.41038418 68.99664688 C-0.45419304 73.15259054 -1.322323 77.30778579 -2.19154167 81.46276093 C-2.60774042 83.45452976 -3.02278808 85.44653947 -3.43667793 87.43878937 C-4.0121713 90.20638877 -4.592459 92.97293903 -5.17407227 95.73925781 C-5.43046227 96.97960533 -5.43046227 96.97960533 -5.69203186 98.24501038 C-6.885749 103.885749 -6.885749 103.885749 -8 105 C-10.35313555 105.07271741 -12.70833668 105.08370868 -15.0625 105.0625 C-16.99802734 105.04896484 -16.99802734 105.04896484 -18.97265625 105.03515625 C-19.97167969 105.02355469 -20.97070312 105.01195312 -22 105 C-10.58172317 48.61699276 -10.58172317 48.61699276 -4.8125 21 C-4.62277618 20.08890472 -4.43305237 19.17780945 -4.23757935 18.23910522 C-3.70856829 15.70064541 -3.17705424 13.16272509 -2.64453125 10.625 C-2.49091125 9.88715775 -2.33729126 9.14931549 -2.17901611 8.38911438 C-1.57537379 5.5270859 -0.92603397 2.77810192 0 0 Z " fill="#000000" transform="translate(1367,683)"/>
<path d="M0 0 C4.62 0 9.24 0 14 0 C12.37977619 11.49053408 10.06229228 22.78733874 7.68359375 34.140625 C7.26267444 36.15985243 6.84194711 38.1791199 6.42140198 40.19842529 C5.54530198 44.40114728 4.66672382 48.60334141 3.78637695 52.80517578 C2.65604765 58.20129899 1.53230059 63.59876909 0.41038418 68.99664688 C-0.45419304 73.15259054 -1.322323 77.30778579 -2.19154167 81.46276093 C-2.60774042 83.45452976 -3.02278808 85.44653947 -3.43667793 87.43878937 C-4.0121713 90.20638877 -4.592459 92.97293903 -5.17407227 95.73925781 C-5.43046227 96.97960533 -5.43046227 96.97960533 -5.69203186 98.24501038 C-6.885749 103.885749 -6.885749 103.885749 -8 105 C-10.35313555 105.07271741 -12.70833668 105.08370868 -15.0625 105.0625 C-16.99802734 105.04896484 -16.99802734 105.04896484 -18.97265625 105.03515625 C-19.97167969 105.02355469 -20.97070312 105.01195312 -22 105 C-10.58172317 48.61699276 -10.58172317 48.61699276 -4.8125 21 C-4.62277618 20.08890472 -4.43305237 19.17780945 -4.23757935 18.23910522 C-3.70856829 15.70064541 -3.17705424 13.16272509 -2.64453125 10.625 C-2.49091125 9.88715775 -2.33729126 9.14931549 -2.17901611 8.38911438 C-1.57537379 5.5270859 -0.92603397 2.77810192 0 0 Z " fill="#000000" transform="translate(711,683)"/>
<path d="M0 0 C4.62 0 9.24 0 14 0 C12.37977619 11.49053408 10.06229228 22.78733874 7.68359375 34.140625 C7.26267444 36.15985243 6.84194711 38.1791199 6.42140198 40.19842529 C5.54530198 44.40114728 4.66672382 48.60334141 3.78637695 52.80517578 C2.65604765 58.20129899 1.53230059 63.59876909 0.41038418 68.99664688 C-0.45419304 73.15259054 -1.322323 77.30778579 -2.19154167 81.46276093 C-2.60774042 83.45452976 -3.02278808 85.44653947 -3.43667793 87.43878937 C-4.0121713 90.20638877 -4.592459 92.97293903 -5.17407227 95.73925781 C-5.43046227 96.97960533 -5.43046227 96.97960533 -5.69203186 98.24501038 C-6.885749 103.885749 -6.885749 103.885749 -8 105 C-10.35313555 105.07271741 -12.70833668 105.08370868 -15.0625 105.0625 C-16.99802734 105.04896484 -16.99802734 105.04896484 -18.97265625 105.03515625 C-19.97167969 105.02355469 -20.97070312 105.01195312 -22 105 C-10.58172317 48.61699276 -10.58172317 48.61699276 -4.8125 21 C-4.62277618 20.08890472 -4.43305237 19.17780945 -4.23757935 18.23910522 C-3.70856829 15.70064541 -3.17705424 13.16272509 -2.64453125 10.625 C-2.49091125 9.88715775 -2.33729126 9.14931549 -2.17901611 8.38911438 C-1.57537379 5.5270859 -0.92603397 2.77810192 0 0 Z " fill="#000000" transform="translate(484,683)"/>
<path d="M0 0 C1.28197266 0.10054687 1.28197266 0.10054687 2.58984375 0.203125 C5.0625 0.75 5.0625 0.75 9.0625 3.75 C7.4125 7.71 5.7625 11.67 4.0625 15.75 C2.7425 15.42 1.4225 15.09 0.0625 14.75 C-4.50740473 14.24315602 -7.94813877 14.265019 -12.125 16.3125 C-24.93854602 27.41757321 -27.34692947 42.61243365 -30.75 58.5 C-31.15977782 60.3726214 -31.57057759 62.24501949 -31.98242188 64.1171875 C-32.97923807 68.65897185 -33.96221234 73.20354626 -34.9375 77.75 C-39.5575 77.75 -44.1775 77.75 -48.9375 77.75 C-47.46586407 70.46171438 -45.99066725 63.17416091 -44.51245117 55.88720703 C-44.012171 53.41864557 -43.51279162 50.94990134 -43.0144043 48.48095703 C-39.8591473 32.85401454 -36.55725298 17.27628605 -32.9375 1.75 C-28.6475 1.75 -24.3575 1.75 -19.9375 1.75 C-20.2675 5.05 -20.5975 8.35 -20.9375 11.75 C-19.9475 10.4196875 -19.9475 10.4196875 -18.9375 9.0625 C-14.11186295 3.24416047 -7.64377013 -0.68966347 0 0 Z " fill="#000000" transform="translate(381.9375,710.25)"/>
<path d="M0 0 C1.79244141 0.01740234 1.79244141 0.01740234 3.62109375 0.03515625 C5.41740234 0.04869141 5.41740234 0.04869141 7.25 0.0625 C8.17683594 0.07410156 9.10367188 0.08570313 10.05859375 0.09765625 C9.47531037 8.46525333 7.87154882 16.55296965 6.15234375 24.75 C5.86431048 26.14091457 5.57667935 27.53191248 5.28942871 28.92298889 C4.69070117 31.8172376 4.0886574 34.71076787 3.48388672 37.60375977 C2.70907136 41.31046663 1.94039517 45.01841231 1.17388153 48.72684383 C0.58182269 51.58987708 -0.01226889 54.45248516 -0.60710144 57.31494331 C-0.89132801 58.68281218 -1.1751953 60.05075575 -1.45869446 61.41877556 C-1.8540325 63.3237672 -2.25214678 65.22818206 -2.65039062 67.13256836 C-2.87609741 68.21493271 -3.1018042 69.29729706 -3.33435059 70.41246033 C-3.94140625 73.09765625 -3.94140625 73.09765625 -4.94140625 76.09765625 C-9.56140625 76.09765625 -14.18140625 76.09765625 -18.94140625 76.09765625 C-17.58000019 66.75318113 -15.88381218 57.53978577 -13.9375 48.30078125 C-13.6510981 46.93174198 -13.36489284 45.56266156 -13.07887268 44.19354248 C-12.4852691 41.35608612 -11.88917893 38.51916718 -11.29125977 35.68261719 C-10.52408739 32.0419944 -9.76358106 28.40001472 -9.00488186 24.75761795 C-8.41824364 21.94504188 -7.82805463 19.13322023 -7.23677254 16.32161713 C-6.95455131 14.97738029 -6.67347274 13.63290304 -6.39355278 12.28818512 C-6.00485922 10.42345736 -5.61084509 8.559841 -5.21655273 6.69628906 C-4.99386215 5.636297 -4.77117157 4.57630493 -4.54173279 3.48419189 C-3.67362083 0.0331032 -3.66462253 0.12166741 0 0 Z " fill="#000000" transform="translate(513.94140625,711.90234375)"/>
<path d="M0 0 C4.29 0 8.58 0 13 0 C12.25 10.375 12.25 10.375 10 16 C5.71 16 1.42 16 -3 16 C-2.51771891 10.05186659 -1.91607362 5.74822085 0 0 Z " fill="#000000" transform="translate(517,683)"/>
</svg>
