<svg width="560" height="592" viewBox="0 0 560 592" fill="none" xmlns="http://www.w3.org/2000/svg">
<g opacity="0.3">
<path opacity="0.5" d="M136.874 753.884L22.0732 701.561C2.75402 692.623 -5.23373 669.347 4.42588 650.354C143.747 377.563 420.16 199.178 725.553 185.027C746.916 184.096 764.749 201.04 764.749 222.267V348.701C764.749 368.439 749.516 384.638 729.825 385.756C499.666 398.046 291.428 532.486 184.801 737.498C175.698 755.001 154.521 762.078 136.688 753.884H136.874Z" fill="url(#paint0_linear_961_2276)" fill-opacity="0.6"/>
<path opacity="0.5" d="M1041.22 374.235C904.237 406.053 773.262 458.511 653.155 528.742C458.121 404.621 295.974 229.474 187.59 17.0615C172.72 -12.1774 184.73 -48.2959 214.758 -61.7689L391.203 -142.319C418.657 -154.931 451.258 -143.752 465.27 -117.093C587.665 117.964 796.14 292.537 1041.22 374.235Z" fill="url(#paint1_linear_961_2276)" fill-opacity="0.5"/>
</g>
<defs>
<linearGradient id="paint0_linear_961_2276" x1="1750.92" y1="-661.098" x2="60.789" y2="-1498.09" gradientUnits="userSpaceOnUse">
<stop offset="0.2" stop-color="white"/>
<stop offset="0.34" stop-color="#99CBFF"/>
<stop offset="0.75" stop-color="white"/>
<stop offset="0.78" stop-color="#99CBFF"/>
<stop offset="0.81" stop-color="white"/>
<stop offset="0.875" stop-color="#99CBFF"/>
</linearGradient>
<linearGradient id="paint1_linear_961_2276" x1="2875.97" y1="-875.308" x2="274.073" y2="-2163.82" gradientUnits="userSpaceOnUse">
<stop offset="0.2" stop-color="white"/>
<stop offset="0.34" stop-color="#99CBFF"/>
<stop offset="0.75" stop-color="white"/>
<stop offset="0.78" stop-color="#99CBFF"/>
<stop offset="0.81" stop-color="white"/>
<stop offset="0.875" stop-color="#99CBFF"/>
</linearGradient>
</defs>
</svg>
