<?xml version="1.0" encoding="UTF-8"?>
<svg version="1.1" xmlns="http://www.w3.org/2000/svg" width="389" height="129">
<path d="M0 0 C128.37 0 256.74 0 389 0 C389 42.57 389 85.14 389 129 C260.63 129 132.26 129 0 129 C0 86.43 0 43.86 0 0 Z " fill="#FDFDFD" transform="translate(0,0)"/>
<path d="M0 0 C9.32154947 5.74358099 15.7331009 14.14347283 19.12109375 24.56640625 C21.26049547 36.25748032 18.91003095 46.46174886 12.7578125 56.4296875 C6.21664133 65.54176674 -2.07579186 70.58222613 -12.96875 73.296875 C-25.17459272 75.14853535 -35.72734202 73.06647614 -46.1015625 66.4765625 C-54.65968225 60.04398883 -60.42622903 51.18164304 -62.4921875 40.6796875 C-63.54611851 26.42388389 -59.59396656 16.18488307 -50.7421875 5.0546875 C-49.6284375 3.8790625 -49.6284375 3.8790625 -48.4921875 2.6796875 C-47.8321875 2.6796875 -47.1721875 2.6796875 -46.4921875 2.6796875 C-46.4921875 3.3396875 -46.4921875 3.9996875 -46.4921875 4.6796875 C-45.5021875 5.0096875 -44.5121875 5.3396875 -43.4921875 5.6796875 C-42.16015625 7.03515625 -42.16015625 7.03515625 -40.6796875 8.8671875 C-37.03396205 13.13878856 -33.21591813 17.21474668 -29.3046875 21.2421875 C-28.69842529 21.88631592 -28.09216309 22.53044434 -27.4675293 23.1940918 C-26.88398682 23.78875244 -26.30044434 24.38341309 -25.69921875 24.99609375 C-25.1781958 25.53693604 -24.65717285 26.07777832 -24.12036133 26.63500977 C-22.53049809 27.88512034 -22.53049809 27.88512034 -20.47851562 27.53125 C-18.22376818 26.56461295 -17.12744537 25.56602539 -15.50390625 23.73828125 C-14.96185547 23.15498047 -14.41980469 22.57167969 -13.86132812 21.97070312 C-12.74355562 20.73868674 -11.63407928 19.49909041 -10.53320312 18.25195312 C-9.98728516 17.66994141 -9.44136719 17.08792969 -8.87890625 16.48828125 C-8.15513794 15.68088501 -8.15513794 15.68088501 -7.41674805 14.85717773 C-5.4921875 13.6796875 -5.4921875 13.6796875 1.5078125 13.6796875 C1.5078125 23.2496875 1.5078125 32.8196875 1.5078125 42.6796875 C-2.4921875 40.6796875 -2.4921875 40.6796875 -5.4921875 38.6796875 C-6.22042754 34.35471991 -6.27701489 30.06920879 -6.4921875 25.6796875 C-11.1121875 30.2996875 -15.7321875 34.9196875 -20.4921875 39.6796875 C-24.67086924 36.09796029 -28.51382376 32.76427509 -32.3046875 28.8671875 C-35.11231925 25.88049965 -35.11231925 25.88049965 -38.4921875 23.6796875 C-40.01174934 33.76407004 -40.01174934 33.76407004 -36.734375 43.09765625 C-33.9735675 46.61377901 -30.60494885 49.01196984 -26.4921875 50.6796875 C-17.26228079 51.76470873 -17.26228079 51.76470873 -8.8671875 48.6796875 C-8.0834375 48.0196875 -7.2996875 47.3596875 -6.4921875 46.6796875 C-5.1721875 46.6796875 -3.8521875 46.6796875 -2.4921875 46.6796875 C-0.4921875 48.6796875 -0.4921875 48.6796875 -0.4921875 51.6796875 C-6.9321383 56.77204296 -14.85797366 60.36453293 -23.18359375 60.12109375 C-30.63572883 58.69623543 -37.87742559 54.57226125 -42.37890625 48.4375 C-47.00179063 41.13820887 -47.50027866 34.28799534 -46.4921875 25.6796875 C-45.53361837 23.65950305 -44.54090319 21.65457874 -43.4921875 19.6796875 C-44.43553626 16.28363195 -45.48335683 15.68557462 -48.4921875 13.6796875 C-48.7603125 14.4840625 -49.0284375 15.2884375 -49.3046875 16.1171875 C-49.92890916 17.98985247 -50.56415038 19.86082332 -51.29296875 21.6953125 C-54.23546201 29.44899143 -54.75100299 36.8960831 -51.9921875 44.8046875 C-47.9909555 53.63547673 -41.39920517 59.92936427 -32.4921875 63.6796875 C-24.20127155 66.4373956 -13.44520107 65.64102561 -5.63671875 61.9375 C2.96522274 56.89228113 8.15771305 49.55063854 11 40.02734375 C12.76087714 31.88667327 11.51721921 24.94896792 7.5078125 17.6796875 C2.50071635 10.09599545 -4.61958866 5.5908519 -13.4921875 3.6796875 C-16.27373598 3.58406298 -19.02409682 3.54026784 -21.8046875 3.5546875 C-22.90586914 3.54888672 -22.90586914 3.54888672 -24.02929688 3.54296875 C-27.59606972 3.54929843 -30.84253117 3.73561586 -34.3828125 4.30078125 C-37.4921875 4.6796875 -37.4921875 4.6796875 -39.9296875 2.8671875 C-41.4921875 0.6796875 -41.4921875 0.6796875 -41.4921875 -1.3203125 C-27.82435991 -7.80673915 -13.31194133 -7.05240779 0 0 Z " fill="#EB3237" transform="translate(70.4921875,30.3203125)"/>
<path d="M0 0 C3.59950927 1.42752393 4.89823164 2.97708343 6.6875 6.375 C7.10386719 7.14585938 7.52023438 7.91671875 7.94921875 8.7109375 C11.1856263 15.76125283 10.82766478 23.28986187 8.4375 30.5625 C4.72271126 39.75855044 -1.16239915 46.43914 -10 51 C-18.12602983 54.27064271 -28.01325732 54.44290277 -36.3125 51.5625 C-45.85987575 47.02749652 -52.2161125 39.75011012 -56 30 C-58.95857085 21.12428746 -56.53104851 12.35080085 -53 4 C-52.34 3.01 -51.68 2.02 -51 1 C-48.62561905 1.94975238 -47.19724966 2.75986998 -45.5625 4.75 C-45 7 -45 7 -46.43359375 9.71875 C-49.42229176 15.97936429 -49.11818437 23.38262578 -47.0859375 29.95703125 C-43.48148362 37.71242072 -38.12439876 42.06691217 -30.28125 45.26953125 C-22.69020684 47.70022486 -15.97579471 45.23876183 -9 42 C-7.66212603 41.00608299 -6.32777086 40.00737398 -5 39 C-4.34 39 -3.68 39 -3 39 C-3.99 37.35 -4.98 35.7 -6 34 C-8.20643401 35.06235711 -10.20313729 36.14126625 -12.21875 37.54296875 C-17.45938912 40.28841593 -23.25042269 39.69514664 -29 39 C-35.1603734 36.70754864 -39.21496953 32.39155788 -42.25 26.625 C-43.85304639 21.01433765 -43.09158529 16.3596873 -41 11 C-38.06769807 12.32120828 -36.01335101 13.74638197 -33.765625 16.0390625 C-33.19199219 16.61914062 -32.61835937 17.19921875 -32.02734375 17.796875 C-31.44082031 18.40015625 -30.85429688 19.0034375 -30.25 19.625 C-29.64800781 20.23601563 -29.04601562 20.84703125 -28.42578125 21.4765625 C-26.94594695 22.97988624 -25.47235324 24.48934856 -24 26 C-19.27435503 22.06196253 -14.88503809 17.95484622 -10.6015625 13.5390625 C-9 12 -9 12 -8 12 C-7.99613281 13.44632813 -7.99613281 13.44632813 -7.9921875 14.921875 C-7.93417969 16.81679688 -7.93417969 16.81679688 -7.875 18.75 C-7.85179687 20.00296875 -7.82859375 21.2559375 -7.8046875 22.546875 C-7.33549985 26.26465393 -7.33549985 26.26465393 -3.94970703 28.21582031 C-2.97630371 28.80459961 -2.00290039 29.39337891 -1 30 C-1.00523682 29.12674072 -1.01047363 28.25348145 -1.01586914 27.35375977 C-1.03287751 24.12410727 -1.04543369 20.89447755 -1.05493164 17.66479492 C-1.0599708 16.26504772 -1.06680216 14.8653058 -1.07543945 13.46557617 C-1.0875232 11.45754223 -1.09269807 9.44947043 -1.09765625 7.44140625 C-1.10289307 6.23170166 -1.10812988 5.02199707 -1.11352539 3.77563477 C-1 1 -1 1 0 0 Z " fill="#FAF7F7" transform="translate(73,43)"/>
<path d="M0 0 C4.43118719 2.13646525 7.2290203 4.37577522 9 9 C9.68956235 15.26352468 9.68250903 20.66671107 6 26 C3.3125 28.875 3.3125 28.875 1 31 C4.26545761 32.88391785 7.28111761 33.49287967 11 34 C11 35.98 11 37.96 11 40 C5.25334765 40.45973219 2.49408448 39.59526758 -2 36 C-2.61875 35.319375 -3.2375 34.63875 -3.875 33.9375 C-6.03929367 31.96417342 -7.21815945 31.4941724 -9.9375 30.625 C-15.00280521 28.91451447 -17.60487084 25.79025831 -20 21 C-20.5238576 15.74424835 -20.66505372 11.35473905 -18.3125 6.5625 C-17.549375 5.716875 -16.78625 4.87125 -16 4 C-14.9790625 2.824375 -14.9790625 2.824375 -13.9375 1.625 C-9.39324094 -0.88884544 -5.07334788 -0.73753515 0 0 Z " fill="#3F4196" transform="translate(370,48)"/>
<path d="M0 0 C3.3 0 6.6 0 10 0 C12.5629371 6.27477704 14.9410545 12.54239821 17 19 C17.32613281 18.21496094 17.65226562 17.42992188 17.98828125 16.62109375 C20.29789053 11.06849327 22.61590894 5.52105299 25 0 C27.97 0 30.94 0 34 0 C34 9.9 34 19.8 34 30 C32.02 30 30.04 30 28 30 C27.505 20.1 27.505 20.1 27 10 C24.69 16.6 22.38 23.2 20 30 C18.02 30 16.04 30 14 30 C11.69 23.73 9.38 17.46 7 11 C6.67 17.27 6.34 23.54 6 30 C4.02 30 2.04 30 0 30 C0 20.1 0 10.2 0 0 Z " fill="#3E4095" transform="translate(242,48)"/>
<path d="M0 0 C3.69726243 0.20927901 6.2149608 0.40041411 9.19921875 2.6796875 C12.05573209 6.36031423 11.54117058 9.63904314 11.3984375 14.140625 C10.89211367 17.77424307 9.7854969 19.624135 7 22 C4.26094655 23.36952673 2.02912668 23.12621361 -1 23 C-1.66 22.67 -2.32 22.34 -3 22 C-3.33 25.63 -3.66 29.26 -4 33 C-6.31 33 -8.62 33 -11 33 C-11 22.44 -11 11.88 -11 1 C-7.66666667 1 -4.33333333 1 -1 1 C-0.67 0.67 -0.34 0.34 0 0 Z " fill="#464898" transform="translate(162,56)"/>
<path d="M0 0 C1.65 1.65 3.3 3.3 5 5 C4.67 5.845625 4.34 6.69125 4 7.5625 C2.14423748 13.94168367 2.65112798 18.46734335 5.79296875 24.20703125 C8.31583991 27.95459715 11.8687428 30.3247823 16 32 C25.22990671 33.08502123 25.22990671 33.08502123 33.625 30 C34.40875 29.34 35.1925 28.68 36 28 C37.32 28 38.64 28 40 28 C42 30 42 30 42 33 C35.5600492 38.09235546 27.63421384 41.68484543 19.30859375 41.44140625 C11.85645867 40.01654793 4.61476191 35.89257375 0.11328125 29.7578125 C-4.54460433 22.40325633 -4.96426983 15.66827827 -4 7 C-2.96016695 4.16409168 -1.84689222 2.42404604 0 0 Z " fill="#3F4196" transform="translate(28,49)"/>
<path d="M0 0 C1 1 1 1 1.0625 4.0625 C1.041875 5.031875 1.02125 6.00125 1 7 C0.16855469 6.95359375 -0.66289063 6.9071875 -1.51953125 6.859375 C-2.60621094 6.82328125 -3.69289063 6.7871875 -4.8125 6.75 C-5.89144531 6.70359375 -6.97039062 6.6571875 -8.08203125 6.609375 C-11.06123206 6.72154655 -11.06123206 6.72154655 -12.859375 8.734375 C-14.74442847 12.47865928 -14.65259488 15.91190562 -14 20 C-12.68620182 22.73061576 -12.68620182 22.73061576 -10 24 C-6.1367292 24.52857629 -2.71792169 24.23930723 1 23 C1 25.31 1 27.62 1 30 C-4.9761931 31.69371371 -10.80031665 32.07984455 -16.4375 29.3125 C-19.83292707 26.24833411 -21.74881595 23.68134912 -22.43359375 19.09765625 C-22.44699993 8.68105256 -22.44699993 8.68105256 -18 4 C-12.71633183 -1.01948476 -6.90275 -0.65484876 0 0 Z " fill="#414396" transform="translate(123,48)"/>
<path d="M0 0 C4.24878262 2.485137 4.24878262 2.485137 6 5 C6.7924287 8.09720498 6.90358044 10.76994471 7 14 C2.38 14 -2.24 14 -7 14 C-6.01 15.485 -6.01 15.485 -5 17 C-2.56306689 17.36416047 -2.56306689 17.36416047 0.125 17.1875 C1.03507812 17.16042969 1.94515625 17.13335937 2.8828125 17.10546875 C3.58148438 17.07066406 4.28015625 17.03585938 5 17 C5 18.65 5 20.3 5 22 C0.00673858 23.66442047 -5.07740999 23.8359087 -9.875 21.75 C-12.22900289 19.81140938 -13.13327966 18.91533206 -14 16 C-14.46846274 11.15921834 -14.50094246 8.96610332 -12.25 4.625 C-8.58030399 0.34368799 -5.6683465 -0.79356851 0 0 Z " fill="#4B4D9B" transform="translate(295,56)"/>
<path d="M0 0 C4.6 2.2 4.6 2.2 6 5 C6.07194869 7.88370333 6.09291708 10.74239664 6.0625 13.625 C6.05798828 14.42679688 6.05347656 15.22859375 6.04882812 16.0546875 C6.03703168 18.03649006 6.01909605 20.01825433 6 22 C3.33333333 22 0.66666667 22 -2 22 C-2.33 22.33 -2.66 22.66 -3 23 C-6.56299065 23.39588785 -8.37639795 23.42667508 -11.375 21.375 C-13 19 -13 19 -13.5625 16 C-13 13 -13 13 -11 10.625 C-7.00223382 8.45954332 -4.49937346 8.69495773 0 9 C-0.33 8.01 -0.66 7.02 -1 6 C-6.08303686 5.88679144 -6.08303686 5.88679144 -11 7 C-11 5.35 -11 3.7 -11 2 C-7.34387956 -0.33991708 -4.26792624 -0.37437949 0 0 Z " fill="#424497" transform="translate(218,56)"/>
<path d="M0 0 C4.63235294 2.26470588 4.63235294 2.26470588 6 5 C6.07194869 7.88370333 6.09291708 10.74239664 6.0625 13.625 C6.05798828 14.42679688 6.05347656 15.22859375 6.04882812 16.0546875 C6.03703168 18.03649006 6.01909605 20.01825433 6 22 C3.33333333 22 0.66666667 22 -2 22 C-2.66 22.33 -3.32 22.66 -4 23 C-9.21653972 23.44396083 -9.21653972 23.44396083 -11.875 21.9375 C-13.68953275 18.81247137 -13.49493962 16.52644482 -13 13 C-10.83868824 10.36590129 -9.32118648 9.14896927 -5.88671875 8.76171875 C-3.92290019 8.75125435 -1.95934865 8.8671628 0 9 C-0.33 8.01 -0.66 7.02 -1 6 C-6.08303686 5.88679144 -6.08303686 5.88679144 -11 7 C-11 5.35 -11 3.7 -11 2 C-7.16730743 0.19637997 -4.23150665 -0.44078194 0 0 Z " fill="#3D3F95" transform="translate(140,56)"/>
<path d="M0 0 C0 2.31 0 4.62 0 7 C1.32 7 2.64 7 4 7 C4 8.65 4 10.3 4 12 C2.68 12 1.36 12 0 12 C0.33 15.63 0.66 19.26 1 23 C1.99 23.33 2.98 23.66 4 24 C4 25.65 4 27.3 4 29 C-2.32288828 29.48637602 -2.32288828 29.48637602 -5.21875 27.40625 C-7.59081856 24.20187668 -7.40764083 22.19102073 -7.25 18.25 C-7.21390625 17.07953125 -7.1778125 15.9090625 -7.140625 14.703125 C-7.09421875 13.81109375 -7.0478125 12.9190625 -7 12 C-7.99 12 -8.98 12 -10 12 C-10 10.35 -10 8.7 -10 7 C-9.01 7 -8.02 7 -7 7 C-7 5.35 -7 3.7 -7 2 C-2.25 0 -2.25 0 0 0 Z " fill="#444698" transform="translate(314,50)"/>
<path d="M0 0 C3.5 0.5625 3.5 0.5625 5.9375 1.9375 C8.37578333 6.03381599 8.22717991 9.92204262 7.5 14.5625 C5.9375 17.6875 5.9375 17.6875 3.5 19.5625 C-0.07629221 20.06443575 -2.34939263 20.36792516 -5.375 18.25 C-7.95556798 14.37914803 -8.11203579 10.05659136 -7.5 5.5625 C-5.42750961 1.58331846 -4.45868531 0.71657442 0 0 Z " fill="#FAFAFB" transform="translate(364.5,53.4375)"/>
<path d="M0 0 C0 2.31 0 4.62 0 7 C1.65 7 3.3 7 5 7 C5 8.65 5 10.3 5 12 C3.35 12 1.7 12 0 12 C0.33 15.63 0.66 19.26 1 23 C2.32 23.33 3.64 23.66 5 24 C4.67 25.65 4.34 27.3 4 29 C-2.41281139 29.36298932 -2.41281139 29.36298932 -4.71875 27.9375 C-6.69137102 24.95451212 -6.28441673 22.33380768 -6.1875 18.8125 C-6.16042969 17.54019531 -6.13335937 16.26789063 -6.10546875 14.95703125 C-6.07066406 13.98121094 -6.03585938 13.00539063 -6 12 C-7.32 12 -8.64 12 -10 12 C-10 10.35 -10 8.7 -10 7 C-9.01 7 -8.02 7 -7 7 C-7 5.35 -7 3.7 -7 2 C-1.125 0 -1.125 0 0 0 Z " fill="#404296" transform="translate(198,50)"/>
<path d="M0 0 C4.66666667 0 9.33333333 0 14 0 C14 1.98 14 3.96 14 6 C12.7934375 5.9690625 12.7934375 5.9690625 11.5625 5.9375 C9.06645115 5.70366379 9.06645115 5.70366379 8 7 C7.76346477 9.52596259 7.57826308 12.03107207 7.4375 14.5625 C7.39431641 15.27341797 7.35113281 15.98433594 7.30664062 16.71679688 C7.20028223 18.47761912 7.09961154 20.2387832 7 22 C4.69 22 2.38 22 0 22 C0 14.74 0 7.48 0 0 Z " fill="#464899" transform="translate(322,57)"/>
<path d="M0 0 C1.98 0 3.96 0 6 0 C6 10.23 6 20.46 6 31 C4.02 31 2.04 31 0 31 C0 20.77 0 10.54 0 0 Z " fill="#373992" transform="translate(230,47)"/>
<path d="M0 0 C2.31 0 4.62 0 7 0 C7 7.26 7 14.52 7 22 C4.69 22 2.38 22 0 22 C0 14.74 0 7.48 0 0 Z " fill="#3F4195" transform="translate(339,57)"/>
<path d="M0 0 C0.8353125 0.37125 0.8353125 0.37125 1.6875 0.75 C0.6975 2.235 0.6975 2.235 -0.3125 3.75 C1.6675 3.42 3.6475 3.09 5.6875 2.75 C6.17291424 10.15256709 6.17291424 10.15256709 4.0625 12.75 C1.03053035 14.0266188 -1.05253936 14.16616519 -4.3125 13.75 C-6.1875 12.6875 -6.1875 12.6875 -7.3125 10.75 C-7.8125 7.3125 -7.8125 7.3125 -7.3125 3.75 C-3.58836207 -0.38793103 -3.58836207 -0.38793103 0 0 Z " fill="#434597" transform="translate(134.3125,65.25)"/>
<path d="M0 0 C1.98 0 3.96 0 6 0 C6 6.93 6 13.86 6 21 C4.02 21 2.04 21 0 21 C0 14.07 0 7.14 0 0 Z " fill="#353792" transform="translate(178,57)"/>
<path d="M0 0 C1.12148438 -0.01417969 2.24296875 -0.02835938 3.3984375 -0.04296875 C6.57384842 0.18384632 8.76734718 0.83359332 11.625 2.1875 C10.8125 4.125 10.8125 4.125 9.625 6.1875 C6.14472258 7.34759247 3.29178357 7.39166521 -0.375 7.4375 C-1.6125 7.46328125 -2.85 7.4890625 -4.125 7.515625 C-7.375 7.1875 -7.375 7.1875 -9.3125 5.671875 C-9.663125 5.18203125 -10.01375 4.6921875 -10.375 4.1875 C-10.045 3.1975 -9.715 2.2075 -9.375 1.1875 C-6.0588381 0.0821127 -3.48963365 0.01996358 0 0 Z " fill="#3B3D94" transform="translate(49.375,36.8125)"/>
<path d="M0 0 C1.9375 0.8125 1.9375 0.8125 3.9375 2.8125 C4.48936722 8.88303942 4.48936722 8.88303942 2.75 11.8125 C0.9375 12.8125 0.9375 12.8125 -1.6875 12.5625 C-4.0625 11.8125 -4.0625 11.8125 -5.0625 10.8125 C-5.5289723 3.5821793 -5.5289723 3.5821793 -3.8125 0.75 C-2.0625 -0.1875 -2.0625 -0.1875 0 0 Z " fill="#F5F5F8" transform="translate(163.0625,61.1875)"/>
<path d="M0 0 C-0.33 2.31 -0.66 4.62 -1 7 C0.65 7.99 2.3 8.98 4 10 C3.01 11.485 3.01 11.485 2 13 C-1.60745994 13.54896129 -3.33871982 13.45245486 -6.375 11.375 C-8.46379841 8.32214079 -8.54068562 6.63031776 -8 3 C-5.87141064 -0.36093057 -3.79035926 -0.30732643 0 0 Z " fill="#414396" transform="translate(213,66)"/>
<path d="M0 0 C2.31 0 4.62 0 7 0 C7 7.26 7 14.52 7 22 C4.69 22 2.38 22 0 22 C0 21.34 0 20.68 0 20 C1.65 20 3.3 20 5 20 C5 13.73 5 7.46 5 1 C3.35 1 1.7 1 0 1 C0 0.67 0 0.34 0 0 Z " fill="#5F61A5" transform="translate(339,57)"/>
<path d="M0 0 C1.2065625 0.0309375 1.2065625 0.0309375 2.4375 0.0625 C2.81968767 1.71864657 3.15145102 3.38707024 3.4375 5.0625 C2.4375 6.0625 2.4375 6.0625 -0.125 6.125 C-1.3315625 6.0940625 -1.3315625 6.0940625 -2.5625 6.0625 C-2.94468767 4.40635343 -3.27645102 2.73792976 -3.5625 1.0625 C-2.5625 0.0625 -2.5625 0.0625 0 0 Z " fill="#383A93" transform="translate(342.5625,46.9375)"/>
<path d="M0 0 C1.98 0 3.96 0 6 0 C7.125 3.75 7.125 3.75 6 6 C4.33388095 6.042721 2.66617115 6.04063832 1 6 C0 5 0 5 -0.0625 2.4375 C-0.041875 1.633125 -0.02125 0.82875 0 0 Z " fill="#3E3F95" transform="translate(178,47)"/>
<path d="M0 0 C-0.33 1.65 -0.66 3.3 -1 5 C-2.65 5.33 -4.3 5.66 -6 6 C-6.33 4.68 -6.66 3.36 -7 2 C-4 0 -4 0 0 0 Z " fill="#F1F1F6" transform="translate(140,68)"/>
<path d="M0 0 C1.4540625 0.0309375 1.4540625 0.0309375 2.9375 0.0625 C2.6075 1.3825 2.2775 2.7025 1.9375 4.0625 C0.2875 4.3925 -1.3625 4.7225 -3.0625 5.0625 C-3.625 3.125 -3.625 3.125 -4.0625 1.0625 C-3.0625 0.0625 -3.0625 0.0625 0 0 Z " fill="#FAFBFB" transform="translate(215.0625,68.9375)"/>
<path d="M0 0 C1.65 0.33 3.3 0.66 5 1 C5 1.99 5 2.98 5 4 C2.69 4 0.38 4 -2 4 C-1.34 2.68 -0.68 1.36 0 0 Z " fill="#FCFCFC" transform="translate(290,61)"/>
</svg>
