<?xml version="1.0" encoding="UTF-8"?>
<svg version="1.1" xmlns="http://www.w3.org/2000/svg" width="512" height="512">
<path d="M0 0 C168.96 0 337.92 0 512 0 C512 168.96 512 337.92 512 512 C343.04 512 174.08 512 0 512 C0 343.04 0 174.08 0 0 Z " fill="#5C2683" transform="translate(0,0)"/>
<path d="M0 0 C1.20426122 -0.00199105 2.40852245 -0.0039821 3.64927644 -0.00603348 C4.99245611 -0.00318027 6.33563559 -0.00023467 7.67881489 0.00279331 C9.10033557 0.00235747 10.52185618 0.00148233 11.94337636 0.00020415 C15.85874992 -0.00203832 19.77409627 0.0019771 23.68946636 0.00698221 C27.90826695 0.01129007 32.12706594 0.00984004 36.34586811 0.00907993 C43.65827201 0.00855491 50.970667 0.01169944 58.28306866 0.01731777 C68.85564809 0.02543571 79.4282232 0.0280483 90.00080542 0.02930576 C107.1530246 0.03149582 124.30523903 0.03815465 141.45745564 0.04760838 C158.12184341 0.05678369 174.7862299 0.06386394 191.4506197 0.06811619 C192.47735801 0.06837891 193.50409631 0.06864164 194.5619479 0.06891232 C199.7126565 0.07021733 204.86336511 0.07148105 210.01407373 0.07272422 C252.76221295 0.08309539 295.51034637 0.10098715 338.25848103 0.12304783 C338.25848103 14.31304783 338.25848103 28.50304783 338.25848103 43.12304783 C220.77848103 43.12304783 103.29848103 43.12304783 -17.74151897 43.12304783 C-17.74151897 11.12304783 -17.74151897 11.12304783 -13.74151897 5.12304783 C-9.17722917 1.00405459 -6.07113827 -0.00220849 0 0 Z " fill="#F5BF0B" transform="translate(95.7415189743042,334.8769521713257)"/>
<path d="M0 0 C117.48 0 234.96 0 356 0 C356 14.19 356 28.38 356 43 C312.15118702 43.09039154 268.30239637 43.16202008 224.45350873 43.20426132 C219.2789015 43.20926425 214.10429445 43.21444153 208.9296875 43.21972656 C207.38440515 43.22130043 207.38440515 43.22130043 205.80790497 43.22290608 C189.1185911 43.24032001 172.42933224 43.27186314 155.74005102 43.30861118 C138.62033761 43.34599312 121.50065305 43.36823004 104.3809005 43.37635398 C93.81372313 43.38184745 83.24670123 43.3992095 72.6795717 43.43166587 C65.43717389 43.45277984 58.19485667 43.45920712 50.95243029 43.45400551 C46.77143013 43.45143887 42.590702 43.45542384 38.40974998 43.4768219 C34.58261661 43.49626637 30.75593858 43.49728399 26.92878439 43.48359558 C25.54375167 43.48190344 24.1586907 43.4869958 22.77371369 43.49953273 C9.94416253 43.60892099 9.94416253 43.60892099 5 39 C-4.94983691 28.24341956 0 15.23963522 0 0 Z " fill="#F5BF0B" transform="translate(78,390)"/>
<path d="M0 0 C1.24269653 -0.01913956 1.24269653 -0.01913956 2.51049805 -0.03866577 C3.40937744 -0.04089142 4.30825684 -0.04311707 5.234375 -0.04541016 C6.1622583 -0.05206696 7.0901416 -0.05872375 8.04614258 -0.06558228 C10.01658138 -0.07572533 11.98705465 -0.08039879 13.95751953 -0.08007812 C16.94493129 -0.08441539 19.93082217 -0.12061654 22.91796875 -0.15869141 C24.83593248 -0.16456673 26.75390319 -0.16853133 28.671875 -0.17041016 C29.55456055 -0.18478119 30.43724609 -0.19915222 31.34667969 -0.21395874 C38.42951479 -0.16290631 45.58201382 1.18432672 50.96557617 6.09927368 C55.19905011 10.79444596 56.34709091 14.73640231 56.265625 21.00927734 C55.68906835 25.68579241 52.90234561 28.42087097 49.609375 31.54052734 C46.80301654 33.41143299 44.22195831 34.38701572 40.984375 35.29052734 C40.984375 35.95052734 40.984375 36.61052734 40.984375 37.29052734 C41.995 37.37302734 43.005625 37.45552734 44.046875 37.54052734 C49.65847715 38.3697722 53.49411499 40.76205554 57.421875 44.79052734 C60.1624664 50.92945208 59.93624007 57.38205075 57.859375 63.72802734 C52.99264787 70.37922109 47.86402117 72.57727969 39.984375 74.29052734 C36.29381079 74.64922541 32.6504017 74.64359478 28.9453125 74.58349609 C27.43500961 74.57712883 27.43500961 74.57712883 25.89419556 74.57063293 C22.71563621 74.55399894 19.53773886 74.5163761 16.359375 74.47802734 C14.18881132 74.46296074 12.01823758 74.44927581 9.84765625 74.43701172 C4.55967448 74.40414582 -0.72792794 74.35410196 -6.015625 74.29052734 C-6.06190398 64.93745123 -6.09747153 55.58441435 -6.11924934 46.23124886 C-6.1297 41.88849985 -6.14388247 37.54582901 -6.16650391 33.203125 C-6.18818674 29.01453759 -6.20018396 24.82602551 -6.20537949 20.63738632 C-6.20908347 19.03694345 -6.21631613 17.43650483 -6.22708511 15.8360939 C-6.24153963 13.59962202 -6.24360551 11.36346397 -6.24267578 9.12695312 C-6.247117 7.85232208 -6.25155823 6.57769104 -6.25613403 5.26443481 C-5.88560195 0.68278514 -4.21735411 0.04408607 0 0 Z " fill="#FCFBFC" transform="translate(368.015625,195.70947265625)"/>
<path d="M0 0 C3.61373805 0.14832238 6.07322966 0.27396923 9.13037109 2.28808594 C11.02330755 4.99636782 12.3685422 7.77682403 13.80615234 10.75683594 C15.32100905 13.39712059 16.88189293 16.00617923 18.453125 18.61328125 C19.55797873 20.4498455 20.64772597 22.29558783 21.72167969 24.15039062 C22.22006348 25.0027832 22.71844727 25.85517578 23.23193359 26.73339844 C23.90349487 27.89476318 23.90349487 27.89476318 24.58862305 29.07958984 C24.99040771 29.63308105 25.39219238 30.18657227 25.80615234 30.75683594 C26.46615234 30.75683594 27.12615234 30.75683594 27.80615234 30.75683594 C29.34419494 28.67092097 29.34419494 28.67092097 30.88818359 25.97167969 C31.79213867 24.46250977 31.79213867 24.46250977 32.71435547 22.92285156 C33.34277344 21.85744141 33.97119141 20.79203125 34.61865234 19.69433594 C36.44723731 16.61612238 38.28178907 13.54347397 40.14941406 10.48876953 C41.151455 8.83642086 42.12564021 7.16609192 43.04492188 5.46630859 C44.57397683 2.86777233 45.86731544 1.0066796 48.86206055 0.2097168 C51.30243397 0.03031885 53.61531046 0.09411315 56.05615234 0.25683594 C57.29751953 0.29164063 57.29751953 0.29164063 58.56396484 0.32714844 C64.59393933 0.54462293 64.59393933 0.54462293 65.80615234 1.75683594 C65.90055213 4.0267548 65.92357461 6.29965561 65.91967773 8.5715332 C65.91982376 9.28368988 65.91996979 9.99584656 65.92012024 10.72958374 C65.91942105 13.09416706 65.9116284 15.45867255 65.90380859 17.82324219 C65.90194444 19.45849057 65.90052052 21.09373951 65.89952087 22.72898865 C65.89569552 27.04118379 65.88586509 31.35334546 65.87481689 35.66552734 C65.86460315 40.06249539 65.86002333 44.45946883 65.85498047 48.85644531 C65.84424283 57.48992596 65.8266459 66.12337293 65.80615234 74.75683594 C60.19615234 74.75683594 54.58615234 74.75683594 48.80615234 74.75683594 C48.47615234 59.24683594 48.14615234 43.73683594 47.80615234 27.75683594 C42.34505734 36.13232323 42.34505734 36.13232323 36.88696289 44.50976562 C35.86276245 46.07839355 35.86276245 46.07839355 34.81787109 47.67871094 C34.12137451 48.74702148 33.42487793 49.81533203 32.70727539 50.91601562 C31.13925364 53.25908755 29.52704675 55.52508779 27.80615234 57.75683594 C23.31915613 56.25430968 21.45931941 52.68431547 19.05615234 48.88183594 C18.24918879 47.63422782 17.44188486 46.3868398 16.63427734 45.13964844 C15.70099609 43.69332031 14.76771484 42.24699219 13.80615234 40.75683594 C11.16615234 36.79683594 8.52615234 32.83683594 5.80615234 28.75683594 C5.47615234 43.93683594 5.14615234 59.11683594 4.80615234 74.75683594 C-1.13384766 74.75683594 -7.07384766 74.75683594 -13.19384766 74.75683594 C-13.23897799 65.40374716 -13.27569417 56.05073034 -13.297472 46.69755745 C-13.30792266 42.35480845 -13.32210513 38.01213761 -13.34472656 33.66943359 C-13.36640939 29.48084619 -13.37840662 25.2923341 -13.38360214 21.10369492 C-13.38730612 19.50325204 -13.39453879 17.90281343 -13.40530777 16.3024025 C-13.41976229 14.06593062 -13.42182817 11.82977256 -13.42089844 9.59326172 C-13.42533966 8.31863068 -13.42978088 7.04399963 -13.43435669 5.73074341 C-12.86051713 -1.3648144 -5.57069665 0.0151938 0 0 Z " fill="#FBFAFC" transform="translate(271.19384765625,195.2431640625)"/>
<path d="M0 0 C3.51564202 2.82906927 6.80316552 5.81676907 10 9 C8.35446591 10.69393215 6.69580608 12.35732623 5 14 C4.49597656 14.48855469 3.99195313 14.97710937 3.47265625 15.48046875 C-0.38047321 18.98063979 -0.38047321 18.98063979 -3 19.0625 C-5.80410585 17.57281877 -8.37697956 15.78588626 -11 14 C-17.21460611 11.92846463 -24.5588382 11.86660345 -30.5 14.625 C-36.09999762 19.94499774 -39.07650268 23.85203959 -39.39428711 31.8527832 C-39.53043824 39.01187115 -39.55929281 44.56634862 -34.7578125 50.328125 C-30.24733557 54.61808972 -26.87299755 56.21236682 -20.5625 56.5 C-14.18895169 56.2636184 -9.66190708 54.14431404 -4.75 50.1875 C-3 49 -3 49 -1.1875 49.203125 C1.58160736 50.21187125 3.46232325 51.71217322 5.75 53.5625 C6.54921875 54.20316406 7.3484375 54.84382813 8.171875 55.50390625 C8.77515625 55.99761719 9.3784375 56.49132812 10 57 C6.99751294 63.79275538 1.0478857 67.79736953 -5.5 70.9375 C-15.49648974 74.75411176 -26.7736693 74.46890805 -36.609375 70.2578125 C-46.68044781 64.95898007 -54.36795181 56.87661742 -58 46 C-60.43275265 36.20323931 -60.03558578 25.91922217 -55.6796875 16.7890625 C-51.08958542 9.16735811 -45.05024357 2.88305866 -37 -1 C-36.38382813 -1.31710938 -35.76765625 -1.63421875 -35.1328125 -1.9609375 C-25.02623646 -6.24738415 -9.2445952 -6.09375566 0 0 Z " fill="#FBFAFC" transform="translate(224,199)"/>
<path d="M0 0 C1.68140327 0.00033989 1.68140327 0.00033989 3.39677429 0.00068665 C4.60622208 0.0161705 5.81566986 0.03165436 7.06176758 0.04760742 C8.30050125 0.05185226 9.53923492 0.05609711 10.81550598 0.06047058 C14.10528884 0.07442885 17.39463086 0.10137404 20.68426514 0.13458252 C24.04246629 0.16529685 27.40073201 0.17897878 30.7590332 0.1940918 C37.34581685 0.2272027 43.93222218 0.27900758 50.51879883 0.34057617 C50.51879883 5.62057617 50.51879883 10.90057617 50.51879883 16.34057617 C37.31879883 16.34057617 24.11879883 16.34057617 10.51879883 16.34057617 C10.51879883 21.62057617 10.51879883 26.90057617 10.51879883 32.34057617 C22.39879883 32.34057617 34.27879883 32.34057617 46.51879883 32.34057617 C46.51879883 36.96057617 46.51879883 41.58057617 46.51879883 46.34057617 C34.30879883 46.34057617 22.09879883 46.34057617 9.51879883 46.34057617 C9.51879883 55.58057617 9.51879883 64.82057617 9.51879883 74.34057617 C3.57879883 74.34057617 -2.36120117 74.34057617 -8.48120117 74.34057617 C-8.54893668 65.13514706 -8.60399382 55.92988305 -8.63663769 46.72426128 C-8.65230389 42.44986918 -8.67355937 38.1756562 -8.70751953 33.90136719 C-8.74007926 29.77760364 -8.758047 25.65401254 -8.7658329 21.53013039 C-8.77138253 19.95561826 -8.78221949 18.38111572 -8.79839134 16.80667686 C-8.82012122 14.60381945 -8.82317005 12.40167755 -8.82177734 10.19873047 C-8.82843918 8.94408493 -8.83510101 7.68943939 -8.84196472 6.39677429 C-8.48120117 3.34057617 -8.48120117 3.34057617 -7.30249023 1.43322754 C-4.77591452 -0.08254855 -2.94038313 -0.01982281 0 0 Z " fill="#F7F4F9" transform="translate(91.481201171875,195.659423828125)"/>
<path d="M0 0 C3.89625106 -0.08098443 7.7908163 -0.14049807 11.6875 -0.1875 C12.79029297 -0.21263672 13.89308594 -0.23777344 15.02929688 -0.26367188 C16.09599609 -0.27333984 17.16269531 -0.28300781 18.26171875 -0.29296875 C19.24100342 -0.3086792 20.22028809 -0.32438965 21.22924805 -0.34057617 C24.52251457 0.06422661 26.34115396 1.0417397 29 3 C31 6 31 6 30.9375 9.4375 C29.82623229 13.66031728 28.65436216 14.7377758 25 17 C21.99984088 18.00005304 20.02576244 18.11575585 16.89453125 18.09765625 C15.91162109 18.09443359 14.92871094 18.09121094 13.91601562 18.08789062 C12.89185547 18.07951172 11.86769531 18.07113281 10.8125 18.0625 C9.77673828 18.05798828 8.74097656 18.05347656 7.67382812 18.04882812 C5.1158608 18.03704026 2.55792314 18.01910482 0 18 C0 12.06 0 6.12 0 0 Z " fill="#5C2684" transform="translate(379,239)"/>
<path d="M0 0 C3.56331377 -0.10807017 7.1233422 -0.18735316 10.6875 -0.25 C12.19860352 -0.30027344 12.19860352 -0.30027344 13.74023438 -0.3515625 C21.17848401 -0.44975721 21.17848401 -0.44975721 25.16796875 1.734375 C27.19191327 4.23733411 27.67949688 5.31738243 27.625 8.5 C27.63789063 9.2528125 27.65078125 10.005625 27.6640625 10.78125 C26.60234195 14.32864573 25.2511786 15.22006992 22 17 C18.2148989 17.47836981 14.49476268 17.37666517 10.6875 17.25 C9.14739258 17.22292969 9.14739258 17.22292969 7.57617188 17.1953125 C5.05037929 17.14832101 2.52506863 17.07658169 0 17 C0 11.39 0 5.78 0 0 Z " fill="#5B2483" transform="translate(379,210)"/>
</svg>
