<?xml version="1.0" encoding="UTF-8"?>
<svg version="1.1" xmlns="http://www.w3.org/2000/svg" width="619" height="261">
<path d="M0 0 C204.27 0 408.54 0 619 0 C619 86.13 619 172.26 619 261 C414.73 261 210.46 261 0 261 C0 174.87 0 88.74 0 0 Z " fill="#180035" transform="translate(0,0)"/>
<path d="M0 0 C0.73541016 0.00202423 1.47082031 0.00404846 2.22851562 0.00613403 C2.97939453 0.00517731 3.73027344 0.00422058 4.50390625 0.00323486 C6.09440189 0.00255315 7.6849003 0.00440682 9.27539062 0.00857544 C11.71816217 0.01392386 14.16074984 0.00863019 16.60351562 0.00222778 C18.1451827 0.00288857 19.68684966 0.00416973 21.22851562 0.00613403 C21.96392578 0.0041098 22.69933594 0.00208557 23.45703125 0 C28.61356402 0.02399493 28.61356402 0.02399493 29.72851562 1.13894653 C30.08748998 7.60048499 30.08748998 7.60048499 27.72851562 11.13894653 C20.46851562 11.46894653 13.20851562 11.79894653 5.72851562 12.13894653 C5.72851562 31.60894653 5.72851562 51.07894653 5.72851562 71.13894653 C7.04851562 71.13894653 8.36851563 71.13894653 9.72851562 71.13894653 C11.30304046 69.62748652 11.30304046 69.62748652 12.57495117 67.49661255 C13.10092896 66.69559616 13.62690674 65.89457977 14.16882324 65.06929016 C14.72863892 64.18606583 15.28845459 63.30284149 15.86523438 62.39285278 C16.45800171 61.48267899 17.05076904 60.57250519 17.66149902 59.63475037 C19.59223438 56.66492016 21.503814 53.68323614 23.41601562 50.70144653 C24.72923687 48.67645705 26.04409849 46.65253042 27.3605957 44.62966919 C29.32356613 41.61327856 31.2856877 38.59638775 33.24272156 35.57614136 C38.37458348 27.65765391 43.59808848 19.80843838 48.91601562 12.01394653 C49.59688232 11.01049194 50.27774902 10.00703735 50.97924805 8.97317505 C55.46380304 2.40365912 55.46380304 2.40365912 57.72851562 0.13894653 C60.00561523 -0.10829163 60.00561523 -0.10829163 62.88085938 -0.10397339 C63.95537354 -0.10705002 65.0298877 -0.11012665 66.13696289 -0.11329651 C67.30155029 -0.10611099 68.4661377 -0.09892548 69.66601562 -0.09152222 C70.85702881 -0.091064 72.04804199 -0.09060577 73.27514648 -0.09013367 C75.79704787 -0.08710829 78.31894735 -0.07921356 80.84082031 -0.06686401 C84.71230654 -0.04862981 88.58355348 -0.04635412 92.45507812 -0.04660034 C94.9003927 -0.04168448 97.34570565 -0.03585587 99.79101562 -0.02902222 C100.95560303 -0.02790939 102.12019043 -0.02679657 103.32006836 -0.02565002 C104.39458252 -0.01927017 105.46909668 -0.01289032 106.57617188 -0.00631714 C107.52500244 -0.00250534 108.47383301 0.00130646 109.45141602 0.00523376 C111.72851562 0.13894653 111.72851562 0.13894653 113.72851562 1.13894653 C113.17328646 4.93135261 112.18899995 7.33807553 109.95507812 10.43972778 C109.38305664 11.24394165 108.81103516 12.04815552 108.22167969 12.8767395 C107.60518555 13.72639282 106.98869141 14.57604614 106.35351562 15.45144653 C105.06902032 17.25177052 103.78517374 19.05255751 102.50195312 20.85379028 C101.54240723 22.19352905 101.54240723 22.19352905 100.56347656 23.56033325 C97.53369034 27.81799717 94.59096396 32.13437635 91.65966797 36.4602356 C89.44859626 39.70534495 87.18575008 42.88173438 84.79101562 45.99441528 C84.31889648 46.61848267 83.84677734 47.24255005 83.36035156 47.88552856 C82.46890952 49.05700311 81.56165308 50.21668864 80.63574219 51.3611145 C78.4185847 54.2966454 77.72953524 55.95480444 77.70898438 59.66629028 C78.85348748 63.56461694 80.32650618 65.91327808 82.79101562 69.13894653 C83.70078031 70.35604578 84.6081546 71.57493394 85.51367188 72.79519653 C86.02043457 73.47324341 86.52719727 74.15129028 87.04931641 74.84988403 C90.37135838 79.37844837 93.5363808 84.01838663 96.72851562 88.63894653 C102.26300141 96.6604577 102.26300141 96.6604577 107.97851562 104.55300903 C108.4503125 105.1917395 108.92210937 105.83046997 109.40820312 106.48855591 C110.63029229 108.13186811 111.86631488 109.76479358 113.10351562 111.39675903 C114.84003832 114.32714108 115.20390174 115.79935907 114.72851562 119.13894653 C110.82533011 123.04213205 96.0916668 120.92930654 90.75878906 121.0383606 C88.17226433 121.10498026 85.58630693 121.20031491 83.00195312 121.32546997 C62.1296305 122.31658385 62.1296305 122.31658385 56.49938965 118.71170044 C52.97018203 115.31696332 50.67201053 111.43801272 48.63682556 107.01585388 C47.72519777 105.1320906 46.67510736 103.49662389 45.47631836 101.78421021 C43.72851562 99.13894653 43.72851562 99.13894653 43.77148438 97.00222778 C44.93332486 94.7401955 46.25726719 93.14075168 48.04101562 91.32644653 C48.63527344 90.70125122 49.22953125 90.07605591 49.84179688 89.43191528 C51.72851562 88.13894653 51.72851562 88.13894653 53.69970703 88.33328247 C56.27222186 89.35485876 56.76946295 90.32827901 58.07617188 92.73660278 C62.62835617 100.93856345 62.62835617 100.93856345 70.14404297 105.8923645 C75.74219918 106.55041371 81.17766112 105.97505851 86.72851562 105.13894653 C87.46402795 103.34681211 87.46402795 103.34681211 87.72851562 101.13894653 C86.8391956 99.04363332 86.8391956 99.04363332 85.33178711 97.0005188 C84.51115028 95.79390343 84.51115028 95.79390343 83.67393494 94.56291199 C83.0719075 93.70241745 82.46988007 92.84192291 81.84960938 91.95535278 C80.60650809 90.1228487 79.36367784 88.29016073 78.12109375 86.45730591 C76.14275532 83.57187014 74.15856176 80.69067153 72.16821289 77.81350708 C70.25469537 75.03777968 68.36379573 72.24767373 66.47460938 69.45535278 C65.56853188 68.16764732 65.56853188 68.16764732 64.64414978 66.85392761 C63.8282412 65.642584 63.8282412 65.642584 62.99584961 64.4067688 C62.50874008 63.70157608 62.02163055 62.99638336 61.51976013 62.26982117 C60.72851562 60.13894653 60.72851562 60.13894653 61.51567078 57.48835754 C62.60976136 55.36898633 63.73532843 53.46307256 65.12695312 51.52957153 C65.60068359 50.86546265 66.07441406 50.20135376 66.5625 49.51712036 C67.07103516 48.814823 67.57957031 48.11252563 68.10351562 47.38894653 C69.18436412 45.8773131 70.26508959 44.36559169 71.34570312 42.85379028 C72.18053223 41.69145874 72.18053223 41.69145874 73.03222656 40.50564575 C75.78312996 36.66752579 78.50551461 32.80938552 81.22851562 28.95144653 C81.72013184 28.25760864 82.21174805 27.56377075 82.71826172 26.84890747 C83.63763647 25.54891601 84.55399924 24.24678722 85.46679688 22.94216919 C86.29046648 21.76499742 87.12092185 20.59253644 87.95898438 19.42556763 C90.28491285 16.12076016 90.28491285 16.12076016 90.72851562 12.13894653 C77.81979866 10.12230941 77.81979866 10.12230941 65.67089844 13.40310669 C62.00355751 16.9524549 59.55715054 21.30857341 57.09863281 25.74343872 C54.7406127 29.86619235 51.9505686 33.68899593 49.22851562 37.57644653 C48.13351251 39.18538758 47.04105476 40.79606394 45.95117188 42.40847778 C41.46350288 49.01925799 36.83629028 55.53034815 32.21240234 62.0461731 C29.71178715 65.57287159 27.22073355 69.10631173 24.72851562 72.63894653 C23.73374304 74.04781417 22.73895135 75.45666833 21.74414062 76.86550903 C19.68990337 79.77545529 17.63813076 82.68712032 15.58789062 85.59988403 C10.02970446 93.49247372 4.44244811 101.35791495 -1.27148438 109.13894653 C-2.92148438 108.80894653 -4.57148437 108.47894653 -6.27148438 108.13894653 C-6.29481486 94.20515381 -6.31239787 80.27136411 -6.32329655 66.33755589 C-6.32852606 59.86826973 -6.33562493 53.39899665 -6.34692383 46.92971802 C-6.35775029 40.69224353 -6.3637607 34.45478166 -6.36636162 28.21729851 C-6.3682163 25.83174376 -6.37183774 23.44618974 -6.37721443 21.06064034 C-6.38442166 17.73199062 -6.38547545 14.40339375 -6.38500977 11.07473755 C-6.38860504 10.0778038 -6.39220032 9.08087006 -6.39590454 8.0537262 C-6.39452988 7.15203705 -6.39315521 6.2503479 -6.39173889 5.32133484 C-6.39266068 4.53320184 -6.39358248 3.74506884 -6.3945322 2.93305302 C-6.12612736 -0.98044049 -3.25680437 0.01515491 0 0 Z " fill="#FBFBFC" transform="translate(67.271484375,54.861053466796875)"/>
<path d="M0 0 C30.56756757 0 30.56756757 0 41.4375 7.3125 C50.63782502 16.96162136 51.64320621 26.94737125 51.375 39.765625 C50.96261499 48.00743396 48.3495578 54.6897568 42.9375 60.9375 C31.00314669 71.6653033 14.95111678 70 0 70 C0 46.9 0 23.8 0 0 Z " fill="#1C0438" transform="translate(505,95)"/>
<path d="M0 0 C4.62 0 9.24 0 14 0 C15.22140746 3.21221933 16.44275816 6.42446021 17.6640625 9.63671875 C18.04836929 10.64748474 18.43267609 11.65825073 18.82862854 12.699646 C20.96024077 18.30656503 23.09090748 23.91384104 25.2199707 29.52172852 C26.0932483 31.82178244 26.96653937 34.12183125 27.83984375 36.421875 C28.27607559 37.57082748 28.71230743 38.71977997 29.16175842 39.90354919 C31.54925535 46.18920567 33.9427957 52.47248502 36.34576416 58.75224304 C37.65838246 62.18374303 38.9674161 65.61660355 40.27581787 69.04971313 C40.88215623 70.63777408 41.4902621 72.22516133 42.10015869 73.81185913 C42.93973884 75.99659205 43.77330064 78.18352906 44.60546875 80.37109375 C45.07106201 81.58724365 45.53665527 82.80339355 46.01635742 84.05639648 C47 87 47 87 47 90 C43.04 90 39.08 90 35 90 C33.66058446 86.56475792 32.32825585 83.12705443 31 79.6875 C30.6184375 78.71103516 30.236875 77.73457031 29.84375 76.72851562 C29.30234375 75.32182617 29.30234375 75.32182617 28.75 73.88671875 C28.41484375 73.02264404 28.0796875 72.15856934 27.734375 71.26831055 C27 69 27 69 27 66 C13.8 66.33 0.6 66.66 -13 67 C-15.97 74.59 -18.94 82.18 -22 90 C-25.96 90 -29.92 90 -34 90 C-31.376645 80.5236053 -27.81079319 71.46524939 -24.25 62.3125 C-23.58995009 60.60797663 -22.93028883 58.90330271 -22.27099609 57.19848633 C-21.24261723 54.53977675 -20.21383532 51.88122793 -19.18356323 49.22325134 C-16.68043835 42.76549075 -14.19172287 36.30231054 -11.7109375 29.8359375 C-11.19345947 28.48755043 -11.19345947 28.48755043 -10.66552734 27.11192322 C-9.32008646 23.60591815 -7.97477697 20.09986321 -6.63049316 16.59341431 C-5.70512946 14.18040113 -4.77849506 11.76787962 -3.8515625 9.35546875 C-3.43854385 8.27699173 -3.43854385 8.27699173 -3.0171814 7.17672729 C-1.11394943 2.22789885 -1.11394943 2.22789885 0 0 Z " fill="#F7F6F8" transform="translate(297,85)"/>
<path d="M0 0 C49.6444739 0 49.6444739 0 62.8046875 12.64453125 C68.4861106 18.74043539 70.98264462 24.9851016 73 33 C73.18691406 33.62261719 73.37382813 34.24523437 73.56640625 34.88671875 C76.55062928 49.43144542 72.71447489 62.75159096 64.8125 74.8125 C57.69296732 84.30521024 46.12820302 87.7743594 35 90 C23.45 90 11.9 90 0 90 C0 60.3 0 30.6 0 0 Z M11 10 C11 33.1 11 56.2 11 80 C34.19930211 80.89737383 34.19930211 80.89737383 53.54296875 70.54296875 C60.90250779 62.78365228 62.36409443 54.84061808 62.5 44.4375 C62.51853027 43.5511084 62.53706055 42.6647168 62.55615234 41.75146484 C62.47374945 33.04745747 59.31284488 25.71332889 53.98046875 18.859375 C41.84234953 7.46342875 26.88608227 10 11 10 Z " fill="#F9F9FA" transform="translate(494,85)"/>
<path d="M0 0 C18.81 0 37.62 0 57 0 C57 3.3 57 6.6 57 10 C41.82 10 26.64 10 11 10 C11 19.57 11 29.14 11 39 C23.54 39 36.08 39 49 39 C49 42.3 49 45.6 49 49 C36.46 49 23.92 49 11 49 C11 58.9 11 68.8 11 79 C26.84 79 42.68 79 59 79 C59 82.63 59 86.26 59 90 C39.53 90 20.06 90 0 90 C0 60.3 0 30.6 0 0 Z " fill="#FAFAFB" transform="translate(423,85)"/>
<path d="M0 0 C4.57485204 -0.8687767 8.45289724 -1.11987136 13 0 C17.01309979 3.96831246 19.30324805 8.68054266 21.8125 13.6875 C22.49987391 14.97711659 23.1919054 16.26426193 23.88867188 17.54882812 C25.26404111 20.09340873 26.61938809 22.64722411 27.96337891 25.20849609 C29.99070436 29.02833924 32.14616366 32.75866831 34.38671875 36.45703125 C35.03213623 37.52542236 35.67755371 38.59381348 36.3425293 39.69458008 C37.16297729 40.83576294 37.16297729 40.83576294 38 42 C38.66 42 39.32 42 40 42 C41.29162519 40.08990624 42.48369804 38.11235348 43.6328125 36.11328125 C43.98834198 35.5004277 44.34387146 34.88757416 44.71017456 34.25614929 C45.85550173 32.27890997 46.99059548 30.29602267 48.125 28.3125 C48.86646468 27.0249741 49.60864462 25.73785982 50.3515625 24.45117188 C50.71747498 23.81716965 51.08338745 23.18316742 51.46038818 22.529953 C52.57042375 20.61308913 53.68780168 18.70063763 54.80566406 16.78833008 C56.27637636 14.27009438 57.69780611 11.73153318 59.09277344 9.1706543 C59.76697363 7.97801094 60.44175208 6.78569424 61.1171875 5.59375 C61.69839355 4.53478516 62.27959961 3.47582031 62.87841797 2.38476562 C65 0 65 0 68.36767578 -0.80664062 C71.68193528 -0.81198692 74.74081249 -0.58128802 78 0 C73.52827094 8.40809463 68.74396142 16.60979788 63.86914062 24.78759766 C62.63182177 26.86355453 61.39770082 28.94138555 60.1640625 31.01953125 C59.7603241 31.69745224 59.35658569 32.37537323 58.94061279 33.07383728 C58.13225505 34.43437233 57.32791661 35.79730361 56.52764893 37.16261292 C54.67891319 40.29588485 52.79847375 43.33863702 50.65136719 46.27709961 C44.21446537 55.43813386 43.85580335 63.0057622 44 73.8125 C43.99188612 75.39129868 43.9801888 76.97008317 43.96484375 78.54882812 C43.93537159 82.36698198 43.95395041 86.18204101 44 90 C40.37 90 36.74 90 33 90 C33.08809937 88.62956543 33.08809937 88.62956543 33.17797852 87.23144531 C34.38125419 63.85602436 31.03918363 49.2708599 17.36279297 30.359375 C13.35832049 24.76146432 9.93835076 18.79446531 6.4375 12.875 C5.78894043 11.80685059 5.14038086 10.73870117 4.47216797 9.63818359 C3.88193848 8.66187988 3.29170898 7.68557617 2.68359375 6.6796875 C2.16337646 5.82101074 1.64315918 4.96233398 1.10717773 4.07763672 C0 2 0 2 0 0 Z " fill="#FAFAFB" transform="translate(335,85)"/>
<path d="M0 0 C3.63 0 7.26 0 11 0 C11 26.4 11 52.8 11 80 C24.53 80 38.06 80 52 80 C52 83.3 52 86.6 52 90 C34.84 90 17.68 90 0 90 C0 60.3 0 30.6 0 0 Z " fill="#FBFBFC" transform="translate(206,85)"/>
<path d="M0 0 C3.44174893 1.72087446 4.00359821 5.84340096 5.2578125 9.3046875 C5.56572723 10.13960724 5.87364197 10.97452698 6.19088745 11.83474731 C6.84148241 13.6038989 7.48852978 15.37435847 8.13232422 17.14599609 C9.11949733 19.8598724 10.11937398 22.56880782 11.12109375 25.27734375 C11.75076405 26.99451169 12.37969499 28.71195096 13.0078125 30.4296875 C13.3077713 31.2422702 13.6077301 32.05485291 13.91677856 32.89205933 C14.32753128 34.02806076 14.32753128 34.02806076 14.74658203 35.18701172 C14.98925812 35.8523996 15.2319342 36.51778748 15.48196411 37.20333862 C16 39 16 39 16 42 C5.77 42 -4.46 42 -15 42 C-13.87485626 35.24913758 -13.87485626 35.24913758 -12.70898438 32.12182617 C-12.45201782 31.42478073 -12.19505127 30.72773529 -11.93029785 30.00956726 C-11.65423706 29.27808975 -11.37817627 28.54661224 -11.09375 27.79296875 C-10.80898804 27.02696854 -10.52422607 26.26096832 -10.23083496 25.47175598 C-9.63155184 23.86310694 -9.02965815 22.25542827 -8.42529297 20.64868164 C-7.49725922 18.1802098 -6.57808906 15.70857162 -5.66015625 13.23632812 C-5.07603628 11.67168247 -4.49141852 10.10722255 -3.90625 8.54296875 C-3.49215881 7.43057076 -3.49215881 7.43057076 -3.06970215 6.29570007 C-1.11604145 1.11604145 -1.11604145 1.11604145 0 0 Z " fill="#1C0539" transform="translate(303,98)"/>
</svg>
