<svg width="143" height="28" viewBox="0 0 143 28" fill="none" xmlns="http://www.w3.org/2000/svg">
<g clip-path="url(#clip0_3059_275)">
<path d="M13.0089 12.3581C13.9683 11.4959 14.9668 10.6337 15.9766 9.94296C17.2726 9.05646 18.7409 8.33984 20.3264 8.33984C23.4389 8.33984 26.0178 10.9055 26.0178 14.0017C26.0178 17.0979 23.4389 19.6635 20.3264 19.6635C18.7409 19.6635 17.2726 18.9453 15.9766 18.0604C14.9668 17.3696 13.9683 16.5075 13.0089 15.6453C12.0495 16.5075 11.0511 17.3696 10.0413 18.0604C8.74524 18.9453 7.27687 19.6635 5.6914 19.6635C2.57902 19.6635 0 17.0979 0 14.0017C0 10.9055 2.57902 8.33984 5.6914 8.33984C7.27687 8.33984 8.74524 9.05646 10.0413 9.94296C11.0511 10.6337 12.0495 11.4959 13.0089 12.3581ZM14.8204 14.0017C15.692 14.783 16.5311 15.4932 17.3571 16.061C18.5018 16.8423 19.471 17.2371 20.3264 17.2371C22.0923 17.2371 23.5787 15.7585 23.5787 14.0017C23.5787 12.2449 22.0923 10.7663 20.3264 10.7663C19.4728 10.7663 18.502 11.1611 17.3588 11.9424C16.5295 12.5086 15.692 13.2204 14.8204 14.0017ZM5.6914 10.7663C3.92544 10.7663 2.43917 12.2449 2.43917 14.0017C2.43917 15.7585 3.92544 17.2371 5.6914 17.2371C6.5451 17.2371 7.5159 16.8423 8.65905 16.061C9.48837 15.4948 10.3258 14.783 11.1974 14.0017C10.3258 13.2204 9.48675 12.5102 8.66069 11.9424C7.51428 11.1611 6.5451 10.7663 5.6914 10.7663Z" fill="white"/>
<path d="M36.8723 7.67202H34.0156V5.08594H36.8723V7.67202ZM36.8723 22.011H34.0156V10.115H36.8723V22.011ZM52.7819 22.011H49.9252V15.4083C49.9252 15.0341 49.8593 14.7003 49.7274 14.4068C49.6029 14.106 49.4307 13.8493 49.2109 13.6365C48.9912 13.4238 48.7312 13.2624 48.4309 13.1523C48.1379 13.0349 47.8193 12.9762 47.4751 12.9762H42.4758V22.011H39.6191V11.5346C39.6191 11.3366 39.6557 11.1531 39.729 10.9844C39.8023 10.8083 39.9048 10.6579 40.0366 10.5332C40.1685 10.4012 40.3223 10.2985 40.4981 10.2251C40.6739 10.1517 40.8606 10.115 41.0585 10.115H47.4969C47.8559 10.115 48.2331 10.1554 48.6287 10.2361C49.0316 10.3168 49.4271 10.4488 49.8153 10.6323C50.2108 10.8083 50.5844 11.0358 50.936 11.3145C51.295 11.586 51.6098 11.9198 51.8809 12.316C52.1592 12.7048 52.3789 13.156 52.5401 13.6695C52.7014 14.1831 52.7819 14.7626 52.7819 15.4083V22.011ZM65.7358 12.9762H60.7477V22.011H57.858V12.9762H54.1443V10.115H57.858V6.23042H60.7477V10.115H65.7358V12.9762ZM79.1952 18.0714C79.1952 18.4675 79.1256 18.8966 78.9866 19.359C78.8473 19.8138 78.6202 20.2394 78.3052 20.6355C77.9975 21.0243 77.5911 21.3507 77.0857 21.6148C76.5877 21.879 75.9796 22.011 75.2618 22.011H70.1089C69.7133 22.011 69.2847 21.9413 68.8233 21.8018C68.3692 21.6626 67.9443 21.4388 67.5487 21.1306C67.1606 20.8151 66.8345 20.408 66.5708 19.909C66.3071 19.403 66.1753 18.7903 66.1753 18.0714C66.1753 17.6752 66.2449 17.246 66.3841 16.7838C66.5233 16.3216 66.7466 15.8961 67.0542 15.5073C67.3693 15.1111 67.7759 14.781 68.2739 14.5169C68.7793 14.2528 69.3909 14.1207 70.1089 14.1207H75.2618V16.8499H70.1089C69.7205 16.8499 69.4203 16.9709 69.2077 17.213C68.9954 17.4477 68.8892 17.7412 68.8892 18.0934C68.8892 18.4675 69.0101 18.761 69.2517 18.9737C69.5008 19.1792 69.7938 19.2819 70.1307 19.2819H75.2618C75.65 19.2819 75.9504 19.1644 76.1628 18.9297C76.3751 18.695 76.4815 18.4015 76.4815 18.0494V14.0547C76.4815 13.6805 76.3642 13.3834 76.1299 13.1633C75.9028 12.9432 75.6134 12.8332 75.2618 12.8332H68.988V10.115H75.2618C75.6573 10.115 76.0822 10.1847 76.5363 10.3241C76.9978 10.4635 77.4227 10.6909 77.8108 11.0064C78.2064 11.3145 78.536 11.7217 78.7997 12.2279C79.0634 12.7268 79.1952 13.3357 79.1952 14.0547V18.0714ZM92.0284 12.9762H85.6007C85.2126 12.9762 84.9197 13.0753 84.7217 13.2734C84.5242 13.4641 84.4252 13.7466 84.4252 14.1207V22.011H81.5685V14.1207C81.5685 13.6292 81.6307 13.189 81.7554 12.8002C81.8798 12.4113 82.0445 12.0702 82.2497 11.7767C82.4621 11.4759 82.7038 11.2228 82.9749 11.0174C83.2459 10.8047 83.5279 10.6323 83.821 10.5002C84.1212 10.3681 84.4215 10.2728 84.7217 10.2141C85.0294 10.1481 85.3152 10.115 85.5789 10.115H92.0284V12.9762ZM108.092 10.115C107.77 11.1201 107.392 12.1105 106.96 13.0863C106.528 14.062 106.03 14.9937 105.466 15.8815C104.909 16.7618 104.283 17.5798 103.587 18.3355C102.898 19.0838 102.133 19.733 101.291 20.2834C100.456 20.8262 99.5436 21.2553 98.5548 21.5708C97.5733 21.879 96.5075 22.033 95.3574 22.033C95.1598 22.033 94.9729 21.9964 94.7971 21.923C94.6214 21.8496 94.4675 21.7506 94.3357 21.6258C94.2038 21.4937 94.1013 21.3433 94.028 21.1747C93.9547 20.9986 93.9182 20.8116 93.9182 20.6133V10.115H96.7749V19.0618C97.4707 19.0618 98.1373 18.9114 98.7745 18.6107C99.4192 18.3098 100.027 17.9136 100.598 17.4222C101.17 16.9232 101.697 16.3583 102.181 15.7274C102.671 15.0965 103.107 14.4509 103.488 13.7906C103.869 13.123 104.191 12.47 104.455 11.8318C104.726 11.1935 104.927 10.6213 105.059 10.115H108.092ZM124.902 22.011H122.046V18.1374H112.003V22.011H109.147V14.1207C109.147 12.9689 109.344 11.9088 109.74 10.9404C110.135 9.97198 110.685 9.13929 111.388 8.44234C112.091 7.74539 112.922 7.20248 113.882 6.81366C114.842 6.42484 115.889 6.23042 117.024 6.23042H123.463C123.661 6.23042 123.847 6.26709 124.023 6.34046C124.199 6.41383 124.353 6.51654 124.485 6.64859C124.617 6.78065 124.719 6.93471 124.792 7.11078C124.866 7.28686 124.902 7.47394 124.902 7.67202V22.011ZM112.003 15.2762H122.046V9.09161H117.024C116.936 9.09161 116.75 9.10628 116.464 9.13563C116.186 9.15764 115.86 9.22001 115.486 9.32271C115.12 9.42541 114.732 9.58316 114.322 9.79591C113.911 10.0087 113.534 10.3021 113.19 10.6763C112.846 11.0504 112.56 11.52 112.333 12.0849C112.113 12.6424 112.003 13.321 112.003 14.1207V15.2762ZM143.372 17.3671C143.372 17.9319 143.299 18.4418 143.152 18.8966C143.013 19.3442 142.826 19.7404 142.592 20.0851C142.357 20.43 142.083 20.7236 141.768 20.9655C141.453 21.2078 141.127 21.4057 140.79 21.5599C140.453 21.7138 140.109 21.8275 139.757 21.901C139.413 21.9744 139.087 22.011 138.779 22.011H127.759V19.1498H138.779C139.329 19.1498 139.753 18.9884 140.054 18.6656C140.361 18.3429 140.515 17.9099 140.515 17.3671C140.515 17.103 140.475 16.8609 140.394 16.6408C140.314 16.4207 140.197 16.2299 140.043 16.0685C139.896 15.9071 139.713 15.7824 139.493 15.6944C139.281 15.6063 139.043 15.5623 138.779 15.5623H132.209C131.747 15.5623 131.249 15.4816 130.715 15.3202C130.18 15.1515 129.682 14.8837 129.22 14.5169C128.766 14.1501 128.385 13.6695 128.078 13.0753C127.777 12.481 127.627 11.7547 127.627 10.8964C127.627 10.038 127.777 9.31537 128.078 8.72846C128.385 8.13421 128.766 7.65367 129.22 7.28686C129.682 6.9127 130.18 6.64493 130.715 6.48352C131.249 6.31479 131.747 6.23042 132.209 6.23042H141.932V9.09161H132.209C131.667 9.09161 131.242 9.25668 130.934 9.58682C130.634 9.91696 130.484 10.3535 130.484 10.8964C130.484 11.4466 130.634 11.8831 130.934 12.2059C131.242 12.5214 131.667 12.6791 132.209 12.6791H138.779H138.801C139.109 12.6865 139.435 12.7305 139.779 12.8112C140.123 12.8845 140.464 13.0019 140.801 13.1633C141.145 13.3247 141.471 13.5301 141.779 13.7796C142.086 14.0217 142.357 14.3151 142.592 14.6599C142.833 15.0047 143.024 15.4009 143.163 15.8484C143.302 16.296 143.372 16.8022 143.372 17.3671Z" fill="white"/>
</g>
<defs>
<clipPath id="clip0_3059_275">
<rect width="143" height="28" fill="white"/>
</clipPath>
</defs>
</svg>
