<?xml version="1.0" encoding="UTF-8"?>
<svg version="1.1" xmlns="http://www.w3.org/2000/svg" width="512" height="512">
<path d="M0 0 C168.96 0 337.92 0 512 0 C512 168.96 512 337.92 512 512 C343.04 512 174.08 512 0 512 C0 343.04 0 174.08 0 0 Z " fill="#FFFFFF" transform="translate(0,0)"/>
<path d="M0 0 C107.25 0 214.5 0 325 0 C325 107.25 325 214.5 325 325 C217.75 325 110.5 325 0 325 C0 217.75 0 110.5 0 0 Z " fill="#F9FAFC" transform="translate(94,94)"/>
<path d="M0 0 C107.25 0 214.5 0 325 0 C325 107.25 325 214.5 325 325 C217.75 325 110.5 325 0 325 C0 217.75 0 110.5 0 0 Z M21 21 C21 114.39 21 207.78 21 304 C61.92 304 102.84 304 145 304 C145.495 298.06 145.495 298.06 146 292 C146.66 290.68 147.32 289.36 148 288 C148 286.68 148 285.36 148 284 C152.74510444 285.83746597 153.81106461 288.90196138 155.89453125 293.3125 C157.34752389 296.84486373 158.23827928 300.26064373 159 304 C159.99 304 160.98 304 162 304 C161.65556147 296.67207021 159.02807815 291.53715198 155.5 285.1875 C154.48790153 283.32773719 153.47741009 281.46709865 152.46875 279.60546875 C152.01951172 278.79231201 151.57027344 277.97915527 151.10742188 277.14135742 C148.79426486 272.66853993 148.84995619 268.60026109 148.875 263.6875 C148.87113281 262.94048828 148.86726563 262.19347656 148.86328125 261.42382812 C148.87074644 257.17240142 149.16126405 253.18702309 150 249 C152.8938262 251.74272389 155.16315132 254.51240413 157.34765625 257.84375 C157.95287109 258.76027344 158.55808594 259.67679688 159.18164062 260.62109375 C159.80232422 261.57113281 160.42300781 262.52117187 161.0625 263.5 C162.30239253 265.38606976 163.54324273 267.27151038 164.78515625 269.15625 C165.33051025 269.98962891 165.87586426 270.82300781 166.43774414 271.68164062 C167.44617385 273.17813203 168.49810994 274.64660769 169.59936523 276.07617188 C171.60411564 278.82977711 172.71959258 281.85718179 174 285 C174.33 285.66 174.66 286.32 175 287 C175.66 287 176.32 287 177 287 C177.12375 287.94875 177.2475 288.8975 177.375 289.875 C178.04765054 294.62254802 179.02728241 299.30640153 180 304 C181.65 304 183.3 304 185 304 C186.76892524 299.07227969 187.9318153 294.11365014 189 289 C189.66 289 190.32 289 191 289 C191.12117187 289.66386719 191.24234375 290.32773437 191.3671875 291.01171875 C191.53476562 291.89472656 191.70234375 292.77773438 191.875 293.6875 C192.03742188 294.55761719 192.19984375 295.42773438 192.3671875 296.32421875 C193.03636846 299.44794526 193.03636846 299.44794526 195 304 C230.97 304 266.94 304 304 304 C304 210.61 304 117.22 304 21 C210.61 21 117.22 21 21 21 Z " fill="#21D5D5" transform="translate(94,94)"/>
<path d="M0 0 C5.01308484 1.21845812 8.20843757 4.12201536 11.8125 7.68359375 C12.35519531 8.17730469 12.89789063 8.67101562 13.45703125 9.1796875 C17.22126376 13.00351208 19.41019681 17.5755636 21.6875 22.37109375 C22.15373779 23.35239258 22.15373779 23.35239258 22.62939453 24.35351562 C24.17547762 27.76592311 24.8125 29.86922168 24.8125 33.68359375 C17.60461765 35.26650125 10.60786632 35.87701438 3.25 35.87109375 C2.46447754 35.87173828 1.67895508 35.87238281 0.86962891 35.87304688 C-2.39618646 35.84184256 -5.06976335 35.7228393 -8.1875 34.68359375 C-8.1875 34.02359375 -8.1875 33.36359375 -8.1875 32.68359375 C-9.095 32.58046875 -10.0025 32.47734375 -10.9375 32.37109375 C-14.2600419 31.66824835 -15.61237307 30.7716858 -18.1875 28.68359375 C-18.16429687 29.37324219 -18.14109375 30.06289063 -18.1171875 30.7734375 C-17.99558826 37.10528354 -18.58086375 42.55829304 -20.1875 48.68359375 C-29.68601805 47.5102474 -38.826357 42.01164144 -44.87890625 34.6171875 C-47.50519653 31.01594027 -49.06380593 28.35828866 -49.875 23.93359375 C-49.0112269 19.85030272 -47.36080956 18.30157413 -44.1875 15.68359375 C-40.3922869 17.17457033 -38.57707269 19.44060224 -36.1875 22.68359375 C-36.35507812 21.98492187 -36.52265625 21.28625 -36.6953125 20.56640625 C-37.00082031 19.20128906 -37.00082031 19.20128906 -37.3125 17.80859375 C-37.52132813 16.90367187 -37.73015625 15.99875 -37.9453125 15.06640625 C-38.02523438 14.28007812 -38.10515625 13.49375 -38.1875 12.68359375 C-35.85207643 10.34817018 -35.14073569 10.28997182 -31.9375 10.12109375 C-28.99813116 10.1636933 -27.64095619 10.31796487 -25.33203125 12.1796875 C-23.83701762 13.95524689 -22.50496146 15.77435453 -21.1875 17.68359375 C-20.5275 18.34359375 -19.8675 19.00359375 -19.1875 19.68359375 C-18.5275 18.03359375 -17.8675 16.38359375 -17.1875 14.68359375 C-12.05246656 15.32547293 -7.1931546 16.36631622 -2.1875 17.68359375 C-2.96996094 17.21308594 -3.75242187 16.74257813 -4.55859375 16.2578125 C-5.57050781 15.63519531 -6.58242188 15.01257813 -7.625 14.37109375 C-8.63433594 13.75621094 -9.64367187 13.14132812 -10.68359375 12.5078125 C-13.1875 10.68359375 -13.1875 10.68359375 -14.1875 7.68359375 C-11.28663221 1.2934746 -6.71783876 -0.44724742 0 0 Z " fill="#280C8E" transform="translate(336.1875,267.31640625)"/>
<path d="M0 0 C4.48661538 1.48536473 6.20123542 4.99845645 8.4375 8.875 C8.83001953 9.54249268 9.22253906 10.20998535 9.62695312 10.89770508 C14.72220205 19.74385729 19.12289706 28.66352984 19.1875 39 C19.20167969 40.03125 19.21585937 41.0625 19.23046875 42.125 C18.90159425 46.22757007 17.73096552 48.22473354 14.9375 51.1875 C10.89658799 53.68082869 7.71795303 53.71833116 3 54 C2.34 49.38 1.68 44.76 1 40 C0.67 40 0.34 40 0 40 C-0.09087891 41.13888672 -0.09087891 41.13888672 -0.18359375 42.30078125 C-0.26738281 43.29464844 -0.35117187 44.28851563 -0.4375 45.3125 C-0.51871094 46.29863281 -0.59992188 47.28476563 -0.68359375 48.30078125 C-1 51 -1 51 -2 54 C-6.35357983 54.43535798 -9.04099736 54.38921814 -12.4375 51.625 C-15 49 -15 49 -15 47 C-15.66 47 -16.32 47 -17 47 C-17.66281099 30.09831984 -14.90673212 20.98712871 -5 7 C-4.46246094 6.23558594 -3.92492187 5.47117188 -3.37109375 4.68359375 C-2.25845838 3.11449258 -1.13137635 1.55564247 0 0 Z " fill="#290C8E" transform="translate(257,157)"/>
<path d="M0 0 C3.8026029 2.0050088 5.61790841 3.42686262 8 7 C7.94140625 8.984375 7.94140625 8.984375 7 11 C3.84194699 13.35369421 0.45125597 15.07778148 -3 17 C1.62 16.01 6.24 15.02 11 14 C12.90194682 18.75486705 13.62098195 21.03214439 13 26 C9.86832508 30.17556656 6.10972006 32.89519566 1 34 C-9.75374281 34.84343081 -20.36362421 33.45810782 -31 32 C-32 29 -32 29 -30.48046875 25.33984375 C-29.73279644 23.86384273 -28.96733874 22.39676161 -28.1875 20.9375 C-27.58095581 19.79655884 -27.58095581 19.79655884 -26.9621582 18.63256836 C-21.07610956 8.02730891 -13.16102042 -1.89317971 0 0 Z " fill="#25088C" transform="translate(186,268)"/>
<path d="M0 0 C-1.37949494 4.82089455 -3.50736065 8.78122857 -6.25 12.9375 C-6.65259033 13.55286621 -7.05518066 14.16823242 -7.4699707 14.80224609 C-12.38992144 22.2229833 -17.17035158 29.05678386 -26 32 C-33.08571429 32.68571429 -33.08571429 32.68571429 -37 29.75 C-39 27 -39 27 -39 23 C-36.8125 21.078125 -36.8125 21.078125 -34 19.25 C-33.071875 18.63640625 -32.14375 18.0228125 -31.1875 17.390625 C-30.465625 16.93171875 -29.74375 16.4728125 -29 16 C-29.59167969 16.20496094 -30.18335938 16.40992188 -30.79296875 16.62109375 C-34.83660816 17.9997571 -38.76855249 19.31750847 -43 20 C-45.37502145 16.28902898 -45.64978656 13.33191039 -45 9 C-41.54742495 2.88368328 -36.69746079 -0.34269333 -30.08203125 -2.37890625 C-19.74546424 -4.46194067 -10.02684488 -2.79818927 0 0 Z " fill="#25088C" transform="translate(369,202)"/>
<path d="M0 0 C2.59451344 2.59451344 2.52357651 4.21811862 3.04296875 7.828125 C5.83950082 26.00002746 8.98672185 38.88521044 21.43115234 52.73144531 C25.08210328 56.80697894 28.239873 61.01532295 31.1875 65.625 C31.74896729 66.49511719 31.74896729 66.49511719 32.32177734 67.3828125 C38.52619011 77.32394055 36.18021341 89.02106817 34 100 C33.01 100 32.02 100 31 100 C30.91363281 99.38616455 30.82726562 98.7723291 30.73828125 98.13989258 C29.629668 91.47994932 27.48927488 86.43062706 24 80.6875 C23.51233154 79.86209717 23.02466309 79.03669434 22.5222168 78.1862793 C19.57560004 73.29652429 16.40734398 68.74196196 12.8125 64.3125 C9.10406246 59.681389 6.17388888 55.04653492 3.5 49.75 C3.17362549 49.11231689 2.84725098 48.47463379 2.51098633 47.81762695 C-1.72161476 39.06965052 -2.32231991 30.61854815 -2.25 21 C-2.25773438 19.97132813 -2.26546875 18.94265625 -2.2734375 17.8828125 C-2.25748618 11.61394424 -1.59210572 6.06516466 0 0 Z " fill="#290D8F" transform="translate(245,292)"/>
<path d="M0 0 C2.86690399 2.26685432 3.8296775 3.55742003 4.2578125 7.18359375 C4.3449683 10.97487096 4.0201349 14.34244317 3 18 C2.37351563 17.855625 1.74703125 17.71125 1.1015625 17.5625 C0.28429687 17.376875 -0.53296875 17.19125 -1.375 17 C-2.18710938 16.814375 -2.99921875 16.62875 -3.8359375 16.4375 C-5.95874951 15.93394761 -5.95874951 15.93394761 -8 16 C-5.36 17.98 -2.72 19.96 0 22 C-2.17490228 26.00639893 -4.38214345 29.18611157 -8 32 C-10.80568634 32.41720243 -13.14145211 32.24224982 -16 32 C-16.33 31.34 -16.66 30.68 -17 30 C-17.76699219 29.54238281 -18.53398437 29.08476562 -19.32421875 28.61328125 C-26.23540409 24.44639141 -30.55210423 17.48084504 -34.5 10.625 C-34.8503833 10.01809326 -35.2007666 9.41118652 -35.56176758 8.78588867 C-37.12168852 5.97520261 -38 4.26598032 -38 1 C-25.13755884 -2.93604757 -12.9602571 -5.45346423 0 0 Z " fill="#25088D" transform="translate(186,202)"/>
<path d="M0 0 C3.86848046 1.28949349 4.47991252 2.82092566 6.6875 6.20703125 C7.38617188 7.26857422 8.08484375 8.33011719 8.8046875 9.42382812 C9.53676641 10.55318578 10.26853431 11.68274508 11 12.8125 C12.43511764 15.00807745 13.87409842 17.20110154 15.3125 19.39453125 C15.94800781 20.37268799 16.58351563 21.35084473 17.23828125 22.35864258 C18.33643413 24.00511098 19.47501105 25.62615409 20.67114258 27.20288086 C22.227955 29.3082816 22.91700004 31.25504774 23.6875 33.75 C23.93886719 34.54921875 24.19023437 35.3484375 24.44921875 36.171875 C24.63097656 36.77515625 24.81273437 37.3784375 25 38 C25.66 38 26.32 38 27 38 C27.5161237 39.32717523 28.01190647 40.66226218 28.5 42 C28.7784375 42.7425 29.056875 43.485 29.34375 44.25 C30 47 30 47 30 55 C24.06 55 18.12 55 12 55 C11.61070312 53.55496094 11.22140625 52.10992187 10.8203125 50.62109375 C9.14484938 45.03654484 6.68798935 40.14938997 3.875 35.0625 C2.97470635 33.4085611 2.07618771 31.75365441 1.1796875 30.09765625 C0.58776611 29.02269897 0.58776611 29.02269897 -0.01611328 27.92602539 C-2.24665001 23.55959753 -2.18343566 19.47123339 -2.1875 14.6875 C-2.19974609 13.94048828 -2.21199219 13.19347656 -2.22460938 12.42382812 C-2.23656474 7.88477563 -1.71951855 4.27500858 0 0 Z " fill="#24078C" transform="translate(244,343)"/>
<path d="M0 0 C11.91954924 2.0101015 24.0187535 4.85966217 31.84765625 14.8515625 C33.84232637 18.570439 34.01244677 21.93475571 33 26 C31 29.0625 31 29.0625 29 31 C26.00779732 29.63629701 23.70973471 28.05091917 21.25 25.875 C20.63640625 25.33617187 20.0228125 24.79734375 19.390625 24.2421875 C18.93171875 23.83226562 18.4728125 23.42234375 18 23 C18.44472656 23.60328125 18.88945312 24.2065625 19.34765625 24.828125 C19.91355469 25.62734375 20.47945312 26.4265625 21.0625 27.25 C21.63097656 28.03890625 22.19945312 28.8278125 22.78515625 29.640625 C24 32 24 32 23.87109375 34.171875 C23 36 23 36 20 38 C13.11429894 38.77741786 13.11429894 38.77741786 9.3125 36.125 C0.80874502 24.63343921 -0.35790469 13.97816639 0 0 Z " fill="#25088C" transform="translate(190,175)"/>
<path d="M0 0 C-0.27479018 3.67351089 -0.61972322 7.33592139 -1 11 C-1.09925781 11.98355469 -1.19851563 12.96710938 -1.30078125 13.98046875 C-2.42161465 22.55088169 -5.00021322 31.2992627 -11.5078125 37.3203125 C-14.62325243 39.42006041 -16.30875804 39.47122238 -20 39 C-22.375 38 -22.375 38 -24 37 C-23.54996653 31.37458159 -22.31558515 28.38512875 -19 24 C-19.53109375 24.5053125 -20.0621875 25.010625 -20.609375 25.53125 C-21.31578125 26.1809375 -22.0221875 26.830625 -22.75 27.5 C-23.79414063 28.47453125 -23.79414063 28.47453125 -24.859375 29.46875 C-27 31 -27 31 -31 31 C-33.23303784 28.3682054 -33.96150076 26.16362177 -34.75 22.8125 C-33.53952378 16.65924587 -29.62836869 13.04982261 -25 9 C-21.80322958 6.88931184 -18.56133675 5.39379697 -15 4 C-14.030625 3.60941406 -13.06125 3.21882812 -12.0625 2.81640625 C-7.77389506 1.16825887 -4.64163467 0 0 0 Z " fill="#270B8E" transform="translate(326,175)"/>
<path d="M0 0 C2.05624121 3.42706869 2.71638204 6.58191022 3.5 10.5 C0.2 11.49 -3.1 12.48 -6.5 13.5 C-1.055 13.995 -1.055 13.995 4.5 14.5 C4.98945148 21.84177215 4.98945148 21.84177215 2.6875 24.9375 C-2.66317083 28.75940773 -9.22872848 28.30384559 -15.5 27.5 C-22.14907399 25.43696854 -28.71776229 22.35482514 -34.5 18.5 C-31.63130045 11.31096981 -23.10017257 3.55358121 -16.375 -0.25 C-11.12049778 -2.40456576 -4.95319144 -2.97191486 0 0 Z " fill="#270B8E" transform="translate(200.5,236.5)"/>
<path d="M0 0 C2.50673132 0.81262169 4.64052701 1.79516273 7 3 C7 3.66 7 4.32 7 5 C7.55429687 5.23976562 8.10859375 5.47953125 8.6796875 5.7265625 C11.52556558 7.28844172 13.71106016 9.20605704 16.125 11.375 C17.42824219 12.53128906 17.42824219 12.53128906 18.7578125 13.7109375 C20.81880591 15.81501788 21.78639443 17.37913572 23 20 C20.23012967 21.31456549 17.45916513 22.6267287 14.6875 23.9375 C13.50897461 24.49727539 13.50897461 24.49727539 12.30664062 25.06835938 C11.1706543 25.60493164 11.1706543 25.60493164 10.01171875 26.15234375 C9.31522217 26.48226318 8.61872559 26.81218262 7.90112305 27.15209961 C3.97863952 28.90152626 0.82769609 29.16329344 -3.4375 29.1875 C-4.57058594 29.20167969 -5.70367187 29.21585937 -6.87109375 29.23046875 C-9.85457979 29.01071135 -11.49295423 28.55843386 -14 27 C-14 26.34 -14 25.68 -14 25 C-14.66 25 -15.32 25 -16 25 C-16 22.03 -16 19.06 -16 16 C-10.555 15.505 -10.555 15.505 -5 15 C-6.464375 14.690625 -7.92875 14.38125 -9.4375 14.0625 C-13.875 13.125 -13.875 13.125 -15 12 C-15.48535916 9.01850804 -15.54411383 6.92000925 -13.9765625 4.26953125 C-9.91260859 -0.45677979 -6.00458398 -1.09079813 0 0 Z " fill="#270A8D" transform="translate(328,235)"/>
<path d="M0 0 C0.80824219 0.10183594 1.61648437 0.20367187 2.44921875 0.30859375 C3.06410156 0.39238281 3.67898437 0.47617187 4.3125 0.5625 C4.1475 1.490625 3.9825 2.41875 3.8125 3.375 C3.23501612 6.51871353 3.23501612 6.51871353 3.3125 9.5625 C4.6325 7.9125 5.9525 6.2625 7.3125 4.5625 C9.87543104 4.92863301 11.43824725 5.64406578 13.625 7.0625 C15.86994096 10.38833846 15.62109197 12.43879988 14.984375 16.31640625 C13.21481107 22.23209961 8.44666409 25.59609408 3.3125 28.5625 C2.6525 28.5625 1.9925 28.5625 1.3125 28.5625 C1.3125 29.2225 1.3125 29.8825 1.3125 30.5625 C-8.09752278 34.97024487 -8.09752278 34.97024487 -12.6875 35.5625 C-15.12028729 26.89569528 -16.83918432 15.98144722 -13.4375 7.375 C-9.8470476 1.60463008 -6.89835655 -0.89978564 0 0 Z " fill="#280C8E" transform="translate(214.6875,279.4375)"/>
<path d="M0 0 C5.99119606 1.2281418 10.92052409 6.54289551 14.19140625 11.44921875 C16.63333091 15.68019237 18.19140625 18.47061468 18.19140625 23.44921875 C9.47069078 25.89731137 -0.63762944 27.40033246 -9.46484375 24.609375 C-11.37109375 23.44921875 -11.37109375 23.44921875 -13.80859375 20.44921875 C-14.55760008 16.92011687 -14.45291389 13.73785903 -12.80859375 10.44921875 C-11.69484375 10.61421875 -10.58109375 10.77921875 -9.43359375 10.94921875 C-6.08827342 11.49476455 -6.08827342 11.49476455 -3.80859375 11.44921875 C-5.78859375 10.12921875 -7.76859375 8.80921875 -9.80859375 7.44921875 C-9.49609375 5.07421875 -9.49609375 5.07421875 -8.80859375 2.44921875 C-5.66731645 0.35503388 -3.74643344 -0.08969362 0 0 Z " fill="#2A0E8F" transform="translate(292.80859375,243.55078125)"/>
<path d="M0 0 C2.5625 1.6875 2.5625 1.6875 4 4 C4.0625 6.5625 4.0625 6.5625 3 9 C0.4375 10.8125 0.4375 10.8125 -2 12 C2.455 11.505 2.455 11.505 7 11 C8.13687151 16.94671251 8.13687151 16.94671251 8 20 C5.45743115 22.74872308 2.82602833 24.88183211 -0.99951172 25.12939453 C-1.80146973 25.13052246 -2.60342773 25.13165039 -3.4296875 25.1328125 C-4.74646484 25.13474609 -4.74646484 25.13474609 -6.08984375 25.13671875 C-7.00894531 25.13285156 -7.92804688 25.12898438 -8.875 25.125 C-10.24205078 25.13080078 -10.24205078 25.13080078 -11.63671875 25.13671875 C-12.51714844 25.13542969 -13.39757812 25.13414062 -14.3046875 25.1328125 C-15.10890137 25.13168457 -15.91311523 25.13055664 -16.74169922 25.12939453 C-18.95159635 25.0027734 -20.87779135 24.61146326 -23 24 C-22.45702392 15.49337479 -18.73969149 9.35380463 -12.6875 3.4375 C-8.23802459 -0.27781197 -5.69484786 -1.15827414 0 0 Z " fill="#24078C" transform="translate(228,243)"/>
<path d="M0 0 C7.0466279 2.86269258 12.31891842 11.21892694 15.3671875 17.98828125 C16.53763993 21.70916396 17.00198161 25.19396538 16 29 C12.46113813 32.29757584 10.86024422 33 6 33 C5.67 31.02 5.34 29.04 5 27 C4.67 29.31 4.34 31.62 4 34 C-1.39509537 34.49046322 -1.39509537 34.49046322 -4.3125 32.125 C-8.16143223 27.27819645 -7.52035262 21.9629598 -7 16 C-5.49595532 10.16251967 -3.18629568 5.10355096 0 0 Z " fill="#2C1090" transform="translate(228,197)"/>
<path d="M0 0 C3 1 3 1 4.5703125 3.58203125 C5.08335937 4.64808594 5.59640625 5.71414062 6.125 6.8125 C6.90230469 8.39998047 6.90230469 8.39998047 7.6953125 10.01953125 C9.74499017 14.70187873 10.17999766 18.43482865 10.25 23.5625 C10.27578125 24.69816406 10.3015625 25.83382812 10.328125 27.00390625 C10 30 10 30 8.71484375 31.859375 C6.010814 33.65795515 3.17577233 33.70039884 0 34 C0 31.36 0 28.72 0 26 C-0.66 26 -1.32 26 -2 26 C-2.33 28.64 -2.66 31.28 -3 34 C-5.25 34.3125 -5.25 34.3125 -8 34 C-10.66404249 31.83996555 -11.82413452 30.13921748 -12.3515625 26.72265625 C-12.68241665 16.96245879 -9.22274784 10.3084877 -3 3 C-2.01264945 1.98750858 -1.01650071 0.98322241 0 0 Z " fill="#280B8E" transform="translate(285,197)"/>
<path d="M0 0 C0.33 0 0.66 0 1 0 C1.02505615 0.83660156 1.0501123 1.67320312 1.07592773 2.53515625 C1.17172836 5.67376726 1.27091655 8.81224881 1.37231445 11.95068359 C1.43632741 13.96313601 1.4965197 15.9757088 1.55664062 17.98828125 C1.7656066 24.38585504 2.03900084 30.66871141 3 37 C3.763125 36.690625 4.52625 36.38125 5.3125 36.0625 C7.18789677 35.32106407 9.08684652 34.63771783 11 34 C9.14393939 38.77272727 9.14393939 38.77272727 7.8125 40.875 C5.47486594 46.98881215 9.28178932 53.54287661 11.6484375 59.1328125 C12.94546156 62.02673565 12.94546156 62.02673565 14.6640625 64.6796875 C16 67 16 67 16 70 C11.28894327 69.16189418 9.34814433 66.27091684 6.5625 62.625 C6.07458984 61.99158691 5.58667969 61.35817383 5.08398438 60.70556641 C-3.98488367 48.61475676 -8.61042633 34.15901306 -7 19 C-5.56397764 12.22816908 -3.93332339 5.77605846 0 0 Z " fill="#2B0F90" transform="translate(258,260)"/>
<path d="M0 0 C5.33018958 4.8782822 9.16779756 11.49279161 10.48828125 18.64453125 C10.59683574 22.08970789 10.26698847 24.42386699 8.8125 27.5625 C6.44098326 29.4433581 4.95061143 29.31898502 2 29 C1.34 27.68 0.68 26.36 0 25 C-0.33 26.65 -0.66 28.3 -1 30 C-3.95881315 29.68012831 -5.55010682 29.47351526 -7.63671875 27.27734375 C-10.13695783 23.10072661 -9.68683111 18.69970546 -9 14 C-6.95797851 8.72477782 -3.70259578 4.25112849 0 0 Z " fill="#290C8E" transform="translate(259,215)"/>
<path d="M0 0 C0.33 1.65 0.66 3.3 1 5 C1.33 3.35 1.66 1.7 2 0 C5.36230209 0.60041109 7.64499209 1.47677724 10 4 C10.93209676 9.94211682 9.17115567 14.12342631 6 19 C3.85271851 21.85490834 1.69726915 24.64692993 -1 27 C-1.99 27 -2.98 27 -4 27 C-4.33 25.02 -4.66 23.04 -5 21 C-5.99 20.67 -6.98 20.34 -8 20 C-10.16856354 14.6356586 -10.93395028 8.74429633 -10 3 C-7.24977073 -0.80865084 -4.47098686 -0.25307473 0 0 Z " fill="#2F1392" transform="translate(212,323)"/>
<path d="M0 0 C6.5069212 0.49108839 6.5069212 0.49108839 8.703125 2.7578125 C10.98447612 6.70207619 10.59174328 10.58081084 10 15 C8.70549249 19.1867405 6.95667375 23.08665249 5 27 C0.3575335 25.60315167 -1.71446376 23.39050939 -4.6875 19.625 C-5.45449219 18.66851562 -6.22148437 17.71203125 -7.01171875 16.7265625 C-9.89647796 12.77064515 -11.63983203 9.99068987 -11 5 C-9.8125 3.125 -9.8125 3.125 -8 2 C-5.3125 2.3125 -5.3125 2.3125 -3 3 C-2.67 4.32 -2.34 5.64 -2 7 C-1.34 7 -0.68 7 0 7 C0 4.69 0 2.38 0 0 Z " fill="#2E1291" transform="translate(305,323)"/>
<path d="M0 0 C2.70171489 1.35085744 2.70461636 2.55532476 3.6875 5.375 C7.68012893 15.61696116 14.27354781 23.83720407 21.29272461 32.16650391 C30.73530473 43.45892543 30.73530473 43.45892543 31.3125 49 C31.209375 49.66 31.10625 50.32 31 51 C23.66017323 50.31551113 20.63656937 46.36482633 16 41 C7.01718512 29.82975315 -0.59739547 14.62512604 0 0 Z " fill="#2E1291" transform="translate(250,301)"/>
<path d="M0 0 C5.46595289 1.19801707 9.93135668 4.72715277 13.8515625 8.625 C13.8515625 9.615 13.8515625 10.605 13.8515625 11.625 C11.8046875 13.59765625 11.8046875 13.59765625 9.1015625 15.6875 C8.21984375 16.37972656 7.338125 17.07195312 6.4296875 17.78515625 C1.78683934 21.09846152 -1.31412065 22.36754942 -7.1484375 21.625 C-9.92032908 18.40602913 -10.1484375 16.9314427 -10.1484375 12.625 C-8.8284375 12.295 -7.5084375 11.965 -6.1484375 11.625 C-7.4684375 11.295 -8.7884375 10.965 -10.1484375 10.625 C-10.51612134 4.12925213 -10.51612134 4.12925213 -8.91796875 1.9375 C-6.02319289 -0.20961852 -3.51834053 -0.08302869 0 0 Z " fill="#2B0F90" transform="translate(364.1484375,228.375)"/>
<path d="M0 0 C0.99 0.66 1.98 1.32 3 2 C3.6875 5.625 3.6875 5.625 4 9 C1.69 9 -0.62 9 -3 9 C-3 9.66 -3 10.32 -3 11 C-0.03 11.495 -0.03 11.495 3 12 C2.6875 14.875 2.6875 14.875 2 18 C-1.84456754 20.56304503 -3.4220345 20.59070523 -8 20 C-11.23346666 18.29467854 -14.09508817 16.20990489 -17 14 C-18.5159375 12.9171875 -18.5159375 12.9171875 -20.0625 11.8125 C-20.701875 11.214375 -21.34125 10.61625 -22 10 C-22 9.01 -22 8.02 -22 7 C-7.09682166 -1.20512066 -7.09682166 -1.20512066 0 0 Z " fill="#2F1391" transform="translate(159,230)"/>
<path d="M0 0 C2 1.25 2 1.25 3 3 C2.8125 5.125 2.8125 5.125 2 7 C1.01 7.495 1.01 7.495 0 8 C2.475 8.495 2.475 8.495 5 9 C5.125 14.75 5.125 14.75 4 17 C3.34 17 2.68 17 2 17 C2 17.66 2 18.32 2 19 C-5.28489417 21.42829806 -11.63704618 20.23621228 -18.3828125 16.875 C-19.18332031 16.441875 -19.18332031 16.441875 -20 16 C-19.67576435 10.65011186 -16.65046205 7.59928735 -13 4 C-8.61632243 0.36248032 -5.70578779 -0.75359461 0 0 Z " fill="#2E1291" transform="translate(161,258)"/>
<path d="M0 0 C5.11280412 3.31950715 9.09232989 7.66927146 12 13 C12 13.99 12 14.98 12 16 C4.73226519 19.14888317 -2.0151734 21.21110245 -10 20 C-12 18 -12 18 -12.1953125 16.0546875 C-12.13020833 14.03645833 -12.06510417 12.01822917 -12 10 C-10.35 9.67 -8.7 9.34 -7 9 C-8.32 8.34 -9.64 7.68 -11 7 C-10.61502006 4.76711635 -10.10506663 3.16343698 -8.875 1.25 C-5.7072065 -0.86186233 -3.72496528 -0.61065005 0 0 Z " fill="#290C8E" transform="translate(362,258)"/>
<path d="M0 0 C3.91801303 1.46506898 5.04128737 3.31282507 6.75 7.0625 C8.87403897 12.07996668 10.22679983 16.5825388 9 22 C7 25.0625 7 25.0625 5 27 C3.35 26.67 1.7 26.34 0 26 C-0.33 25.01 -0.66 24.02 -1 23 C-1.33 23.99 -1.66 24.98 -2 26 C-6.75 25.25 -6.75 25.25 -9 23 C-9.92183552 17.12180205 -8.88536785 12.19366212 -6 7 C-4.11219624 4.55498189 -2.11423507 2.25107876 0 0 Z " fill="#290D8F" transform="translate(290,156)"/>
<path d="M0 0 C3.33772993 1.40155759 5.01749057 2.9509686 7.125 5.875 C7.62257812 6.55304688 8.12015625 7.23109375 8.6328125 7.9296875 C11.02651939 11.55444365 12.29018538 14.16651891 12.3125 18.5625 C12.32925781 19.32691406 12.34601563 20.09132812 12.36328125 20.87890625 C12 23 12 23 10.73046875 24.77734375 C9 26 9 26 5 26 C4.67 24.68 4.34 23.36 4 22 C3.67 23.65 3.34 25.3 3 27 C0.75 27.3125 0.75 27.3125 -2 27 C-4.64727754 24.85355875 -5.80338574 23.13996549 -6.38671875 19.7578125 C-6.73367983 12.07681206 -4.19685881 6.29528822 0 0 Z " fill="#280C8E" transform="translate(223,156)"/>
<path d="M0 0 C0.144375 0.804375 0.28875 1.60875 0.4375 2.4375 C0.74135249 4.92103706 0.74135249 4.92103706 2 6 C2.66 5.34 3.32 4.68 4 4 C7.53571429 4.53571429 7.53571429 4.53571429 9 6 C9.36803042 9.82751635 9.39398072 12.26342735 7.5625 15.6875 C4.632545 18.33160573 1.85264913 19.6431977 -1.78125 21.10546875 C-4.01450847 21.96059515 -4.01450847 21.96059515 -6.09375 23.11328125 C-8 24 -8 24 -11 24 C-11.08120751 21.10359882 -11.14059421 18.20949088 -11.1875 15.3125 C-11.21263672 14.49587891 -11.23777344 13.67925781 -11.26367188 12.83789062 C-11.3213146 8.09197299 -11.20816603 4.79146894 -8 1 C-5.07175348 0.02391783 -3.04386724 -0.08226668 0 0 Z " fill="#290D8F" transform="translate(183,310)"/>
<path d="M0 0 C3.25 0.375 3.25 0.375 6.0625 2.5625 C9.63364166 7.15396785 9.36990076 11.50482456 9.3125 17.1875 C9.30347656 18.34894531 9.29445313 19.51039063 9.28515625 20.70703125 C9.27355469 21.58746094 9.26195312 22.46789062 9.25 23.375 C1.75022884 23.13691203 -3.02372054 21.28488218 -8.75 16.375 C-10.75384629 14.01912666 -11.67413884 12.89338462 -12.125 9.8125 C-11.68950114 6.98175742 -10.95844555 6.12335273 -8.75 4.375 C-6.28199953 5.52673355 -4.70216435 6.42283565 -2.75 8.375 C-3.0284375 6.6734375 -3.0284375 6.6734375 -3.3125 4.9375 C-3.456875 3.761875 -3.60125 2.58625 -3.75 1.375 C-2.75 0.375 -2.75 0.375 0 0 Z " fill="#290C8E" transform="translate(334.75,310.625)"/>
<path d="M0 0 C2.75 -0.3125 2.75 -0.3125 6 0 C8.61750234 2.13533086 9.79691402 3.75866546 10.34765625 7.125 C10.54437998 12.18849779 9.65784051 15.6043407 7 20 C6.608125 20.78375 6.21625 21.5675 5.8125 22.375 C5.544375 22.91125 5.27625 23.4475 5 24 C0.96945077 23.48256463 -0.65263855 21.56870538 -3.25 18.5625 C-4.30960937 17.35787109 -4.30960937 17.35787109 -5.390625 16.12890625 C-7 14 -7 14 -7 12 C-7.66 12 -8.32 12 -9 12 C-9.75 8.75 -9.75 8.75 -10 5 C-8.3125 2.5625 -8.3125 2.5625 -6 1 C-4.68 1 -3.36 1 -2 1 C-1.67 1.99 -1.34 2.98 -1 4 C-0.67 2.68 -0.34 1.36 0 0 Z " fill="#311592" transform="translate(277,269)"/>
<path d="M0 0 C5.53846154 1.53846154 5.53846154 1.53846154 7 3 C7.91074995 7.73214406 7.93873079 11.54165285 5.28515625 15.6640625 C3.28400787 17.94385179 1.33308806 20.06044487 -1 22 C-1.66 22 -2.32 22 -3 22 C-3 22.66 -3 23.32 -3 24 C-4.890625 23.78125 -4.890625 23.78125 -7 23 C-9.99031665 17.37641943 -10.90714407 10.27334841 -10 4 C-7.9538822 -0.93475469 -4.93334281 -0.50169588 0 0 Z " fill="#311693" transform="translate(240,269)"/>
<path d="M0 0 C0.33 0 0.66 0 1 0 C1.165 1.155 1.33 2.31 1.5 3.5 C4.22464094 15.42496961 11.08978541 25.49087692 18.48339844 34.98510742 C25.71704852 44.36287026 33.09543827 54.86136523 34 67 C34.33 67 34.66 67 35 67 C35.66 63.04 36.32 59.08 37 55 C37.33 55 37.66 55 38 55 C39.11602213 61.13812173 38.90785354 66.02815707 37 72 C36 73 36 73 33.4375 73.0625 C32.633125 73.041875 31.82875 73.02125 31 73 C29.82877141 67.34853777 28.74660712 61.72398793 28 56 C27.34 56 26.68 56 26 56 C24.1777858 53.38551876 22.94517277 50.85571782 21.8125 47.875 C19.98659753 43.47580492 17.11069996 39.91707087 14.265625 36.12890625 C11.30542718 32.04077099 8.62407069 27.7991843 5.97021484 23.50756836 C4.02350662 20.20466201 4.02350662 20.20466201 1 18 C0.34 24.6 -0.32 31.2 -1 38 C-1.66 37.67 -2.32 37.34 -3 37 C-3.54470737 29.0412201 -2.48901845 23.18052459 1 16 C1.66 16 2.32 16 3 16 C2.505 14.845 2.01 13.69 1.5 12.5 C-0.15562957 8.14717108 -0.24775605 4.62477967 0 0 Z " fill="#DDD8ED" transform="translate(243,325)"/>
<path d="M0 0 C2.54232342 -0.08152344 5.08199202 -0.14073716 7.625 -0.1875 C8.33785156 -0.21263672 9.05070313 -0.23777344 9.78515625 -0.26367188 C14.61896995 -0.33019225 17.76781157 0.41510953 22 3 C23 4 23 4 23.09765625 5.84765625 C23.06510417 7.8984375 23.03255208 9.94921875 23 12 C22.01 12.495 22.01 12.495 21 13 C20.835 13.66 20.67 14.32 20.5 15 C20.335 15.66 20.17 16.32 20 17 C16.64440893 18.67779553 14.73202804 18.60194001 11 18 C6.20365859 13.95912629 2.24071232 8.88186984 0 3 C0 2.01 0 1.02 0 0 Z " fill="#2B0E8F" transform="translate(197,222)"/>
<path d="M0 0 C-1.87406432 5.99700583 -5.68769466 11.0923481 -10.5 15.0625 C-13.79191769 16.29696913 -15.68021456 16.10659515 -19 15 C-20.375 12.9375 -20.375 12.9375 -21 11 C-20.67 10.67 -20.34 10.34 -20 10 C-20.99 9.67 -21.98 9.34 -23 9 C-23.49046322 3.60490463 -23.49046322 3.60490463 -21.125 0.6875 C-14.93978176 -4.22429095 -7.04668668 -2.04994522 0 0 Z " fill="#2E1291" transform="translate(319,224)"/>
<path d="M0 0 C2.51144596 0.37404514 3.70666171 0.66776602 5.4140625 2.6015625 C8.81181107 8.27909075 11 13.24771741 11 20 C6.38 20 1.76 20 -3 20 C-3.25897468 12.40340938 -3.18812019 6.90759374 0 0 Z " fill="#2F1793" transform="translate(242,378)"/>
<path d="M0 0 C0.66 0 1.32 0 2 0 C2.67220351 1.93558599 3.33758077 3.87354372 4 5.8125 C4.556875 7.43091797 4.556875 7.43091797 5.125 9.08203125 C6 12 6 12 6 15 C41.64 15 77.28 15 114 15 C114 15.33 114 15.66 114 16 C75.39 16 36.78 16 -3 16 C-3 8.125 -3 8.125 -1.5 4.0625 C-1.2215625 3.29035156 -0.943125 2.51820313 -0.65625 1.72265625 C-0.33140625 0.86994141 -0.33140625 0.86994141 0 0 Z " fill="#40D6D9" transform="translate(283,383)"/>
<path d="M0 0 C0.78375 0.04125 1.5675 0.0825 2.375 0.125 C2.705 0.785 3.035 1.445 3.375 2.125 C3.99375 1.91875 4.6125 1.7125 5.25 1.5 C5.95125 1.37625 6.6525 1.2525 7.375 1.125 C9.375 3.125 9.375 3.125 10.0625 6.25 C9.01652973 12.14546878 4.97838167 14.60852789 0.375 18.125 C-0.615 17.795 -1.605 17.465 -2.625 17.125 C-4.86722251 12.40453156 -5.32623923 7.28117082 -4.625 2.125 C-2.625 0.125 -2.625 0.125 0 0 Z " fill="#2F1391" transform="translate(227.625,305.875)"/>
<path d="M0 0 C-0.34978143 6.64584719 -1.80477672 9.83664827 -6 15 C-8.31 14.67 -10.62 14.34 -13 14 C-13 13.34 -13 12.68 -13 12 C-13.99 11.34 -14.98 10.68 -16 10 C-15.875 6.6875 -15.875 6.6875 -15 3 C-10.35440156 -0.60033879 -5.60607869 -0.33636472 0 0 Z " fill="#361B95" transform="translate(347,180)"/>
<path d="M0 0 C12.27906977 1.27906977 12.27906977 1.27906977 16 5 C16.04080783 6.99958364 16.04254356 9.00045254 16 11 C15.01 11.33 14.02 11.66 13 12 C12.67 12.99 12.34 13.98 12 15 C8.7049067 15.29955394 6.64500567 15.37625331 3.75 13.6875 C1.0218918 9.49790526 0.64152493 4.89584816 0 0 Z " fill="#301592" transform="translate(169,179)"/>
<path d="M0 0 C4.87716843 0.9425539 8.5688429 3.45106863 12 7 C12.95770306 9.53360599 13 11.24416369 13 14 C11.68 14.33 10.36 14.66 9 15 C8.67 14.01 8.34 13.02 8 12 C7.34 12 6.68 12 6 12 C6 13.32 6 14.64 6 16 C3.0625 15.625 3.0625 15.625 0 15 C-1.16968953 12.66062093 -1.13364221 11.22630632 -1.125 8.625 C-1.12886719 7.46871094 -1.12886719 7.46871094 -1.1328125 6.2890625 C-1.00389788 4.0671811 -0.61383717 2.13381492 0 0 Z " fill="#371C96" transform="translate(200,158)"/>
<path d="M0 0 C4.875 0.875 4.875 0.875 6 2 C6.63004492 7.75521805 6.08977821 11.97911041 3 17 C-0.97927357 14.89982784 -3.63004961 12.86214138 -6 9 C-6.25 5.1875 -6.25 5.1875 -6 2 C-4.0625 1.4375 -4.0625 1.4375 -2 1 C-1.67 1.33 -1.34 1.66 -1 2 C-0.67 1.34 -0.34 0.68 0 0 Z " fill="#2D1191" transform="translate(286,306)"/>
<path d="M0 0 C0.08126087 2.08268593 0.13930839 4.16628658 0.1875 6.25 C0.22230469 7.41015625 0.25710938 8.5703125 0.29296875 9.765625 C-0.02287334 13.25252163 -0.41976408 14.65749368 -3 17 C-4.32 17 -5.64 17 -7 17 C-7 15.68 -7 14.36 -7 13 C-8.98 13.99 -8.98 13.99 -11 15 C-12 14 -12 14 -12.375 11.25 C-11.87690378 6.93316607 -10.27123585 5.75081196 -7 3 C-6.29875 2.401875 -5.5975 1.80375 -4.875 1.1875 C-3 0 -3 0 0 0 Z " fill="#311593" transform="translate(316,158)"/>
<path d="M0 0 C0.33 0 0.66 0 1 0 C1.23074219 1.08796875 1.46148437 2.1759375 1.69921875 3.296875 C5.67879179 21.47261007 12.21224795 34.38814837 25 48 C24.01 48.495 24.01 48.495 23 49 C22.67 49.66 22.34 50.32 22 51 C11.91194822 38.96753915 3.2558011 28.35601421 0.1875 12.75 C0.05118164 12.06405762 -0.08513672 11.37811523 -0.22558594 10.67138672 C-0.90962953 6.8341833 -1.07176689 3.76212051 0 0 Z " fill="#E1DDEF" transform="translate(249,301)"/>
<path d="M0 0 C3.70982506 0.08123705 6.78808026 0.86523211 10.25 2.25 C8.85708122 7.12521572 6.41854559 9.44424816 2.25 12.25 C-1.125 12.5625 -1.125 12.5625 -3.75 12.25 C-5.33969234 8.77254801 -6.16465662 6.08557374 -5.75 2.25 C-3.75 0.25 -3.75 0.25 0 0 Z " fill="#301492" transform="translate(267.75,246.75)"/>
<path d="M0 0 C1.16015625 -0.03867188 1.16015625 -0.03867188 2.34375 -0.078125 C4.5 0.25 4.5 0.25 6.28125 1.515625 C7.5 3.25 7.5 3.25 7.5 7.25 C6.51 7.745 6.51 7.745 5.5 8.25 C4.84786708 10.27463255 4.84786708 10.27463255 4.5 12.25 C1.9375 12.6875 1.9375 12.6875 -1.5 12.25 C-4.27078053 10.27785621 -6.66899796 8.12812461 -8.5 5.25 C-8.37890625 3.078125 -8.37890625 3.078125 -7.5 1.25 C-4.73952457 0.32984152 -2.86637731 0.05732755 0 0 Z " fill="#2F1492" transform="translate(247.5,247.75)"/>
<path d="M0 0 C1.02323436 1.31558703 2.01755155 2.65368175 3 4 C3.515625 4.70125 4.03125 5.4025 4.5625 6.125 C6.61861291 10.23722581 7.25549738 14.48919003 8 19 C8.33 19 8.66 19 9 19 C9.66 15.04 10.32 11.08 11 7 C11.33 7 11.66 7 12 7 C13.11602213 13.13812173 12.90785354 18.02815707 11 24 C10 25 10 25 7.4375 25.0625 C6.633125 25.041875 5.82875 25.02125 5 25 C3.82877141 19.34853777 2.74660712 13.72398793 2 8 C1.34 8 0.68 8 0 8 C-1.6875 5.625 -1.6875 5.625 -3 3 C-2 1 -2 1 0 0 Z " fill="#D5D9EC" transform="translate(269,373)"/>
<path d="M0 0 C2.01135427 3.0170314 2.95126228 5.58549027 4.125 9 C6.72346992 15.90869154 10.39354464 21.28543112 15 27 C15.65871094 27.928125 16.31742187 28.85625 16.99609375 29.8125 C17.98802734 30.8953125 17.98802734 30.8953125 19 32 C20.32 32 21.64 32 23 32 C23 32.66 23 33.32 23 34 C21.68 34 20.36 34 19 34 C18.67 34.66 18.34 35.32 18 36 C16.08061261 33.46037783 14.16499509 30.91793534 12.25 28.375 C11.71117187 27.66214844 11.17234375 26.94929688 10.6171875 26.21484375 C4.20642303 17.69321781 -0.55498828 11.09976561 0 0 Z " fill="#D7D1EA" transform="translate(252,297)"/>
<path d="M0 0 C0.66 0 1.32 0 2 0 C2.508783 1.55966218 3.00663469 3.12289241 3.5 4.6875 C3.7784375 5.55761719 4.056875 6.42773438 4.34375 7.32421875 C4.99850805 9.99391677 5.11831495 12.26396684 5 15 C2.36 15 -0.28 15 -3 15 C-2.22095672 4.44191344 -2.22095672 4.44191344 0 0 Z " fill="#362097" transform="translate(283,383)"/>
<path d="M0 0 C2.7443949 1.04097738 3.9787139 1.97284187 5.8125 4.3125 C7.18729237 7.4238722 7.00295901 8.80876679 6 12 C3.66705225 12.04241723 1.33297433 12.04092937 -1 12 C-2.58894072 10.41105928 -2.16998411 8.75198576 -2.1875 6.5625 C-2.20167969 5.75941406 -2.21585937 4.95632812 -2.23046875 4.12890625 C-2 2 -2 2 0 0 Z " fill="#49309F" transform="translate(272,154)"/>
<path d="M0 0 C1.58538318 2.51796153 2.0373656 3.67865586 1.6875 6.6875 C1 9 1 9 0 10 C-2.33297433 10.04092937 -4.66705225 10.04241723 -7 10 C-7.66 8.68 -8.32 7.36 -9 6 C-4.5 0 -4.5 0 0 0 Z " fill="#321793" transform="translate(168,305)"/>
<path d="M0 0 C3.54470259 0.29539188 4.78215295 0.77626519 7.3125 3.375 C9 6 9 6 9 9 C7.37509046 9.02698189 5.75005367 9.04638757 4.125 9.0625 C2.76761719 9.07990234 2.76761719 9.07990234 1.3828125 9.09765625 C-1 9 -1 9 -3 8 C-3 6.68 -3 5.36 -3 4 C-2.34 4 -1.68 4 -1 4 C-0.67 2.68 -0.34 1.36 0 0 Z " fill="#462D9E" transform="translate(348,305)"/>
<path d="M0 0 C1 1 1 1 1.1875 4.375 C1 8 1 8 -1 11 C-4.34163899 9.61725283 -6.25766748 8.20955991 -8 5 C-7.6875 2.25 -7.6875 2.25 -7 0 C-3.86350275 -1.04549908 -3.0051095 -1.00170317 0 0 Z " fill="#3F269A" transform="translate(328,333)"/>
<path d="M0 0 C0.99 0.33 1.98 0.66 3 1 C3.19406478 2.64507218 3.38007935 4.29109594 3.5625 5.9375 C3.66691406 6.85402344 3.77132812 7.77054688 3.87890625 8.71484375 C3.91886719 9.46894531 3.95882812 10.22304687 4 11 C3 12 3 12 0 12.125 C-3 12 -3 12 -4 11 C-4.44926708 7.04644974 -4.30871428 5.44377677 -2 2.125 C-1.34 1.42375 -0.68 0.7225 0 0 Z " fill="#3F269A" transform="translate(242,154)"/>
<path d="M0 0 C0.33 0 0.66 0 1 0 C1.09796875 0.54527344 1.1959375 1.09054687 1.296875 1.65234375 C2.33534627 6.88946181 3.90798972 11.37395821 6.29296875 16.15234375 C6.52628906 16.76207031 6.75960937 17.37179687 7 18 C6 20 6 20 4 21 C3.01 20.01 2.02 19.02 1 18 C0.34 24.6 -0.32 31.2 -1 38 C-1.66 37.67 -2.32 37.34 -3 37 C-3.54470737 29.0412201 -2.48901845 23.18052459 1 16 C1.66 16 2.32 16 3 16 C2.505 14.845 2.01 13.69 1.5 12.5 C-0.15562957 8.14717108 -0.24775605 4.62477967 0 0 Z " fill="#BEB5DC" transform="translate(243,325)"/>
<path d="M0 0 C6.11098958 7.25100065 10.63113475 15.40950345 11 25 C10.01 25 9.02 25 8 25 C7.75765625 24.13117188 7.5153125 23.26234375 7.265625 22.3671875 C5.1539375 15.10623126 3.40757214 9.40757214 -2 4 C-1.34 4 -0.68 4 0 4 C0 2.68 0 1.36 0 0 Z " fill="#E0DCEE" transform="translate(245,373)"/>
<path d="M0 0 C2.33944736 0.28730055 4.6739143 0.61936779 7 1 C7.25 3.75 7.25 3.75 7 7 C5 9.375 5 9.375 3 11 C2.01 10.67 1.02 10.34 0 10 C-0.19412181 8.52168779 -0.38012131 7.04230684 -0.5625 5.5625 C-0.66691406 4.73878906 -0.77132812 3.91507812 -0.87890625 3.06640625 C-0.91886719 2.38449219 -0.95882812 1.70257813 -1 1 C-0.67 0.67 -0.34 0.34 0 0 Z " fill="#25088C" transform="translate(189,332)"/>
<path d="M0 0 C0.66 0 1.32 0 2 0 C2.33 0.66 2.66 1.32 3 2 C3.99 2 4.98 2 6 2 C6 2.66 6 3.32 6 4 C2.535 5.485 2.535 5.485 -1 7 C0.32 7.66 1.64 8.32 3 9 C-0.20591012 10.60295506 -3.20765636 9.05424092 -6.5 8.125 C-7.18964844 7.93808594 -7.87929687 7.75117188 -8.58984375 7.55859375 C-13.6820211 6.15898945 -13.6820211 6.15898945 -16 5 C-16.33 6.32 -16.66 7.64 -17 9 C-17 7.35 -17 5.7 -17 4 C-12.65535464 4.60825035 -8.32448133 5.26167392 -4 6 C-4.33 5.01 -4.66 4.02 -5 3 C-3.35 3.33 -1.7 3.66 0 4 C0 2.68 0 1.36 0 0 Z " fill="#AFA4D5" transform="translate(206,170)"/>
<path d="M0 0 C4.02135071 1.34045024 4.90551694 3.32529228 7.25 6.8125 C8.34054687 8.39998047 8.34054687 8.39998047 9.453125 10.01953125 C11 13 11 13 10.734375 15.38671875 C10.49203125 15.91910156 10.2496875 16.45148438 10 17 C7.40669218 13.90797914 5.03684256 10.69688268 2.75 7.375 C1.96882812 6.24191406 1.96882812 6.24191406 1.171875 5.0859375 C0 3 0 3 0 0 Z " fill="#E8E5F3" transform="translate(248,344)"/>
<path d="M0 0 C6.09926471 7.84191176 6.09926471 7.84191176 5.8125 11.1875 C5 13 5 13 3 15 C2.67 12.69 2.34 10.38 2 8 C1.34 8 0.68 8 0 8 C-1.6875 5.625 -1.6875 5.625 -3 3 C-2 1 -2 1 0 0 Z " fill="#C7C0E1" transform="translate(269,373)"/>
<path d="M0 0 C0.66 0 1.32 0 2 0 C2.042721 1.66611905 2.04063832 3.33382885 2 5 C1.67 5.33 1.34 5.66 1 6 C1.99 6.66 2.98 7.32 4 8 C2.06643218 8.69848264 0.12797702 9.38344814 -1.8125 10.0625 C-2.89144531 10.44535156 -3.97039062 10.82820313 -5.08203125 11.22265625 C-8 12 -8 12 -11 11 C-10.2059375 10.54109375 -9.411875 10.0821875 -8.59375 9.609375 C-7.5728125 8.99578125 -6.551875 8.3821875 -5.5 7.75 C-4.4790625 7.14671875 -3.458125 6.5434375 -2.40625 5.921875 C-1.6121875 5.28765625 -0.818125 4.6534375 0 4 C0 2.68 0 1.36 0 0 Z " fill="#DAD6EC" transform="translate(193,274)"/>
<path d="M0 0 C0.33 0 0.66 0 1 0 C2.32 6.27 3.64 12.54 5 19 C4.01 19.66 3.02 20.32 2 21 C1.46742809 18.43944242 0.94868156 15.87733671 0.4375 13.3125 C0.28603516 12.59126953 0.13457031 11.87003906 -0.02148438 11.12695312 C-0.80997493 7.11115237 -1.19640878 4.01708115 0 0 Z " fill="#C3BBDF" transform="translate(249,301)"/>
<path d="M0 0 C1.32 0.33 2.64 0.66 4 1 C3.01 1.33 2.02 1.66 1 2 C-0.39712274 3.95597184 -1.73779907 5.95436401 -3 8 C-0.36 8 2.28 8 5 8 C4.67 8.66 4.34 9.32 4 10 C1.69 10 -0.62 10 -3 10 C-3.66 8.68 -4.32 7.36 -5 6 C-3.35 4.02 -1.7 2.04 0 0 Z " fill="#6854AF" transform="translate(164,305)"/>
<path d="M0 0 C0.33 0.99 0.66 1.98 1 3 C0.67 3.33 0.34 3.66 0 4 C1.32 4.99 2.64 5.98 4 7 C2.72125 7.144375 1.4425 7.28875 0.125 7.4375 C-2.25692894 7.70642746 -3.84452691 7.92226346 -6 9 C-6.66 7.02 -7.32 5.04 -8 3 C-6.576875 3.0928125 -6.576875 3.0928125 -5.125 3.1875 C-3.578125 3.0946875 -3.578125 3.0946875 -2 3 C-1.34 2.01 -0.68 1.02 0 0 Z " fill="#D0CAE6" transform="translate(268,240)"/>
<path d="M0 0 C0.33 0 0.66 0 1 0 C2.13253652 6.22895086 1.70366626 10.91748904 0 17 C-0.99 16.67 -1.98 16.34 -3 16 C-2.68806536 14.27073126 -2.37542638 12.54158956 -2.0625 10.8125 C-1.88847656 9.84957031 -1.71445312 8.88664062 -1.53515625 7.89453125 C-1.0476265 5.25760028 -0.53328895 2.6280095 0 0 Z " fill="#CCC5E4" transform="translate(280,380)"/>
<path d="M0 0 C2.90527612 2.90527612 2.71264319 6.21099025 3.125 10.125 C3.21136719 10.87910156 3.29773438 11.63320313 3.38671875 12.41015625 C3.59889261 14.27257127 3.80045763 16.13618931 4 18 C1.70986347 14.5647952 1.82157027 13.014669 2 9 C1.01 9 0.02 9 -1 9 C-0.67 6.03 -0.34 3.06 0 0 Z " fill="#4A31A0" transform="translate(245,292)"/>
<path d="M0 0 C0 0.33 0 0.66 0 1 C-0.99 1 -1.98 1 -3 1 C-7.76765516 1.62018278 -10.12674662 4.74195621 -13.203125 8.1875 C-15 10 -15 10 -18 11 C-14.48767834 2.98197277 -8.63257234 -1.07907154 0 0 Z " fill="#614CAC" transform="translate(228,243)"/>
<path d="M0 0 C3.53790403 3.69172595 3.59115883 7.09390595 4 12 C3.01 12 2.02 12 1 12 C0.63762737 10.37681021 0.28534843 8.7513642 -0.0625 7.125 C-0.25972656 6.22007812 -0.45695313 5.31515625 -0.66015625 4.3828125 C-1 2 -1 2 0 0 Z " fill="#D6D8EC" transform="translate(252,386)"/>
<path d="M0 0 C0.66 0.33 1.32 0.66 2 1 C1.50628906 1.59167969 1.01257813 2.18335938 0.50390625 2.79296875 C-0.13675781 3.58316406 -0.77742188 4.37335938 -1.4375 5.1875 C-2.07558594 5.96480469 -2.71367187 6.74210938 -3.37109375 7.54296875 C-5.07176557 10.10825071 -5.61830031 11.97328271 -6 15 C-6.33 15 -6.66 15 -7 15 C-7.57256004 11.07387404 -7.74950876 9.08011914 -5.44140625 5.75390625 C-3.68344524 3.76956797 -1.89115082 1.85738027 0 0 Z " fill="#4B34A1" transform="translate(331,203)"/>
<path d="M0 0 C2.00993705 3.01490557 2.72623341 5.2149927 3.625 8.6875 C3.88539063 9.68136719 4.14578125 10.67523438 4.4140625 11.69921875 C4.60742188 12.45847656 4.80078125 13.21773438 5 14 C4.01 14 3.02 14 2 14 C0.66416101 9.15758367 -0.25328119 5.06562383 0 0 Z " fill="#C1B9DE" transform="translate(252,297)"/>
<path d="M0 0 C0.66 0 1.32 0 2 0 C3.54296875 1.86328125 3.54296875 1.86328125 5.1875 4.3125 C5.73792969 5.11300781 6.28835938 5.91351563 6.85546875 6.73828125 C7.23316406 7.48464844 7.61085938 8.23101562 8 9 C7.67 9.99 7.34 10.98 7 12 C3.66488612 9.0098979 1.78478881 6.10501426 0 2 C0 1.34 0 0.68 0 0 Z " fill="#CEC8E5" transform="translate(256,311)"/>
<path d="M0 0 C0.33 0 0.66 0 1 0 C1 5.94 1 11.88 1 18 C0.67 18 0.34 18 0 18 C-0.33 14.04 -0.66 10.08 -1 6 C-1.99 6.495 -1.99 6.495 -3 7 C-1.125 1.125 -1.125 1.125 0 0 Z " fill="#4B33A0" transform="translate(258,260)"/>
<path d="M0 0 C-1.28716647 1.00578589 -2.57988658 2.00446798 -3.875 3 C-4.95394531 3.8353125 -4.95394531 3.8353125 -6.0546875 4.6875 C-8 6 -8 6 -10 6 C-10 4.68 -10 3.36 -10 2 C-3.375 -1.125 -3.375 -1.125 0 0 Z " fill="#C5BEE0" transform="translate(341,218)"/>
<path d="M0 0 C-1.58962659 4.03520597 -3.28232318 8.01811282 -5 12 C-6 9 -6 9 -5 6 C-5.66 5.67 -6.32 5.34 -7 5 C-2.25 0 -2.25 0 0 0 Z " fill="#A99ED2" transform="translate(307,199)"/>
<path d="M0 0 C4.53786224 2.26893112 5.94678157 4.09866534 9 8 C7.68 8.33 6.36 8.66 5 9 C3.35 6.03 1.7 3.06 0 0 Z " fill="#B5ACD8" transform="translate(207,197)"/>
<path d="M0 0 C1.875 0.3125 1.875 0.3125 4 1 C6 4 6 4 5.625 6.1875 C5.41875 6.785625 5.2125 7.38375 5 8 C2.20127563 5.47211993 0.54226981 3.79588866 0 0 Z " fill="#E7E4F2" transform="translate(263,367)"/>
<path d="M0 0 C1.4706777 2.9413554 1.17048999 5.60227405 1.1875 8.875 C1.20167969 10.10992187 1.21585938 11.34484375 1.23046875 12.6171875 C1.01765455 15.74086712 0.65237226 17.40061596 -1 20 C-1.90005954 15.57358779 -2.00523762 11.68355297 -1.625 7.1875 C-1.53476563 6.04667969 -1.44453125 4.90585938 -1.3515625 3.73046875 C-1 1 -1 1 0 0 Z " fill="#C1B9DE" transform="translate(221,211)"/>
<path d="M0 0 C1.02270473 0.97676764 2.02714757 1.97357019 3 3 C1.5608866 2.71640113 0.12374482 2.42278601 -1.3125 2.125 C-2.11300781 1.96257812 -2.91351563 1.80015625 -3.73828125 1.6328125 C-6 1 -6 1 -9 -1 C-5.37197314 -2.34371365 -3.3987849 -1.74296662 0 0 Z " fill="#B5ACD8" transform="translate(332,283)"/>
<path d="M0 0 C2.31 0 4.62 0 7 0 C8.125 4.75 8.125 4.75 7 7 C6.34 7 5.68 7 5 7 C5 5.02 5 3.04 5 1 C3.35 1 1.7 1 0 1 C0 0.67 0 0.34 0 0 Z " fill="#8474BE" transform="translate(233,269)"/>
<path d="M0 0 C0.33 0 0.66 0 1 0 C2.0006709 5.96345767 2.0662997 10.28728907 0 16 C-0.33 16 -0.66 16 -1 16 C-1.38063221 13.6739143 -1.71269945 11.33944736 -2 9 C-1.67 8.67 -1.34 8.34 -1 8 C-0.76924918 6.65252916 -0.58846937 5.29622435 -0.4375 3.9375 C-0.293125 2.638125 -0.14875 1.33875 0 0 Z " fill="#D0CAE6" transform="translate(205,251)"/>
<path d="M0 0 C0.12375 0.61875 0.2475 1.2375 0.375 1.875 C0.87197356 4.19120832 0.87197356 4.19120832 3 6 C-0.3 6.66 -3.6 7.32 -7 8 C-3.25 4.125 -3.25 4.125 -1 3 C-0.67 2.01 -0.34 1.02 0 0 Z " fill="#C6BFE1" transform="translate(232,248)"/>
<path d="M0 0 C3.37462715 0.54723683 5.08235 1.0549 8 3 C7.01 3.495 7.01 3.495 6 4 C5.34786708 6.02463255 5.34786708 6.02463255 5 8 C2.20406217 6.60203108 2.04826223 4.86525011 1 2 C0.67 1.34 0.34 0.68 0 0 Z " fill="#8C7DC3" transform="translate(212,231)"/>
<path d="M0 0 C1.65 0 3.3 0 5 0 C5.33 0.66 5.66 1.32 6 2 C7.32 1.67 8.64 1.34 10 1 C8.6875 3.5 8.6875 3.5 7 6 C6.01 6 5.02 6 4 6 C4 4.35 4 2.7 4 1 C2.68 0.67 1.36 0.34 0 0 Z " fill="#3D2499" transform="translate(225,306)"/>
<path d="M0 0 C0.66 0 1.32 0 2 0 C2.33 0.66 2.66 1.32 3 2 C3.99 2 4.98 2 6 2 C6 2.66 6 3.32 6 4 C2.7 4.33 -0.6 4.66 -4 5 C-4.33 4.34 -4.66 3.68 -5 3 C-2.525 3.495 -2.525 3.495 0 4 C0 2.68 0 1.36 0 0 Z " fill="#7B6AB9" transform="translate(206,170)"/>
<path d="M0 0 C0 2.31 0 4.62 0 7 C-0.66 7 -1.32 7 -2 7 C-2.28875 6.38125 -2.5775 5.7625 -2.875 5.125 C-3.93720042 2.86674235 -3.93720042 2.86674235 -6 1 C-3.92446352 0.4465236 -2.15634036 0 0 0 Z " fill="#9A8DCA" transform="translate(305,323)"/>
<path d="M0 0 C0.99 0.33 1.98 0.66 3 1 C3 1.66 3 2.32 3 3 C3.99 3.33 4.98 3.66 6 4 C4.02 5.32 2.04 6.64 0 8 C0 5.36 0 2.72 0 0 Z " fill="#A99ED2" transform="translate(183,310)"/>
<path d="M0 0 C0.33 0 0.66 0 1 0 C1 2.31 1 4.62 1 7 C1.66 7.33 2.32 7.66 3 8 C1.68 8.99 0.36 9.98 -1 11 C-1 10.34 -1 9.68 -1 9 C-1.66 8.67 -2.32 8.34 -3 8 C-2.34 8 -1.68 8 -1 8 C-0.67 5.36 -0.34 2.72 0 0 Z " fill="#C7C0E1" transform="translate(166,267)"/>
<path d="M0 0 C2.4375 1.3125 2.4375 1.3125 5.4375 4.3125 C-0.5025 2.8275 -0.5025 2.8275 -6.5625 1.3125 C-2.5625 -0.6875 -2.5625 -0.6875 0 0 Z " fill="#C7BFE1" transform="translate(286.5625,252.6875)"/>
<path d="M0 0 C1.8871875 0.061875 1.8871875 0.061875 3.8125 0.125 C3.8125 0.455 3.8125 0.785 3.8125 1.125 C2.2346875 1.2178125 2.2346875 1.2178125 0.625 1.3125 C-3.8166735 2.25908616 -5.30343757 3.71656258 -8.1875 7.125 C-7.875 4.75 -7.875 4.75 -7.1875 2.125 C-4.09861478 0.06574319 -3.47814073 -0.1140374 0 0 Z " fill="#3F269A" transform="translate(291.1875,243.875)"/>
<path d="M0 0 C2.33944736 0.28730055 4.6739143 0.61936779 7 1 C5.68 1.99 4.36 2.98 3 4 C2.67 3.34 2.34 2.68 2 2 C1.34 2 0.68 2 0 2 C0 3.65 0 5.3 0 7 C-0.33 7 -0.66 7 -1 7 C-1.04254356 5.00045254 -1.04080783 2.99958364 -1 1 C-0.67 0.67 -0.34 0.34 0 0 Z " fill="#5842A7" transform="translate(189,332)"/>
<path d="M0 0 C1.64826111 2.96687001 2.44271087 5.65626525 3 9 C2.01 9.66 1.02 10.32 0 11 C-1.125 3.375 -1.125 3.375 0 0 Z " fill="#B1A7D6" transform="translate(251,311)"/>
<path d="M0 0 C1.32 1.65 2.64 3.3 4 5 C3.67 5.66 3.34 6.32 3 7 C0.525 6.01 0.525 6.01 -2 5 C-1.34 4.67 -0.68 4.34 0 4 C0 2.68 0 1.36 0 0 Z " fill="#C5BDE0" transform="translate(245,373)"/>
<path d="M0 0 C0.66 0.33 1.32 0.66 2 1 C2.59355614 3.64860427 2.74209269 6.29197322 3 9 C1.35 7.35 -0.3 5.7 -2 4 C-1.34 4 -0.68 4 0 4 C0 2.68 0 1.36 0 0 Z " fill="#9587C7" transform="translate(330,311)"/>
<path d="M0 0 C1.36125 0.37125 1.36125 0.37125 2.75 0.75 C-0.69450737 3.04633824 -3.18812283 3.29016485 -7.25 3.75 C-4.05 -0.31153846 -4.05 -0.31153846 0 0 Z " fill="#B3A9D7" transform="translate(189.25,282.25)"/>
<path d="M0 0 C0.66 0.33 1.32 0.66 2 1 C0.02 3.31 -1.96 5.62 -4 8 C-4.66 7.67 -5.32 7.34 -6 7 C-4.60667426 3.63279613 -3.0210714 2.0140476 0 0 Z " fill="#3E259A" transform="translate(335,221)"/>
<path d="M0 0 C0.99 0.66 1.98 1.32 3 2 C1.72485508 4.55028983 0.59658703 4.93081711 -2 6 C-2.99 6 -3.98 6 -5 6 C-3.35 4.02 -1.7 2.04 0 0 Z " fill="#472F9E" transform="translate(259,215)"/>
<path d="M0 0 C1.32 1.65 2.64 3.3 4 5 C2.02 5.99 2.02 5.99 0 7 C-0.66 5.35 -1.32 3.7 -2 2 C-1.34 2 -0.68 2 0 2 C0 1.34 0 0.68 0 0 Z " fill="#DBD6EC" transform="translate(292,201)"/>
<path d="M0 0 C1.9375 0.8125 1.9375 0.8125 4 2 C4.33 2.99 4.66 3.98 5 5 C4.01 5 3.02 5 2 5 C0.3125 3 0.3125 3 -1 1 C-0.67 0.67 -0.34 0.34 0 0 Z " fill="#CEC7E5" transform="translate(262,338)"/>
<path d="M0 0 C0.99 0.495 0.99 0.495 2 1 C2.73075648 3.3140622 3.40138258 5.64828869 4 8 C2.68 7.34 1.36 6.68 0 6 C0 4.02 0 2.04 0 0 Z " fill="#533CA4" transform="translate(250,301)"/>
<path d="M0 0 C1.32 0.66 2.64 1.32 4 2 C3.67 2.99 3.34 3.98 3 5 C0.36 4.34 -2.28 3.68 -5 3 C-5 2.67 -5 2.34 -5 2 C-3.35 2 -1.7 2 0 2 C0 1.34 0 0.68 0 0 Z " fill="#DCD7EC" transform="translate(282,266)"/>
<path d="M0 0 C0.66 0 1.32 0 2 0 C2 2.64 2 5.28 2 8 C1.01 7.67 0.02 7.34 -1 7 C-0.67 4.69 -0.34 2.38 0 0 Z " fill="#D4CEE8" transform="translate(283,223)"/>
</svg>
