<svg width="154" height="34" viewBox="0 0 154 34" fill="none" xmlns="http://www.w3.org/2000/svg">
<path d="M119.392 8.9036C121.347 5.43816 124.3 3.84574 128.157 4.06055C131.896 4.26863 134.095 5.93755 135.604 9.41401C135.984 9.30231 136.01 8.91584 136.168 8.65146C139.606 2.88246 148.666 2.35828 152.388 7.72397C153.441 9.24112 153.964 10.9556 153.974 12.7769C154.009 19.3559 153.981 25.9349 153.999 32.5139C154.001 33.079 153.902 33.3092 153.268 33.2688C152.267 33.2051 151.256 33.2039 150.254 33.2688C149.467 33.3196 149.198 33.1357 149.204 32.2654C149.25 26.3875 149.224 20.5086 149.231 14.6301C149.232 13.8635 149.152 13.1092 148.951 12.3755C148.234 9.75611 146.355 8.36749 143.495 8.31486C140.437 8.25886 138.017 9.92502 137.176 12.6827C136.9 13.5887 136.802 14.5208 136.804 15.4709C136.813 21.1056 136.796 26.7406 136.825 32.3753C136.829 33.0699 136.681 33.3251 135.947 33.2724C134.977 33.203 133.994 33.1993 133.024 33.2706C132.252 33.3275 132.017 33.1451 132.023 32.3113C132.067 26.3416 132.043 20.3715 132.052 14.4018C132.053 13.6356 131.995 12.8819 131.777 12.1493C130.695 8.51253 125.948 7.05995 122.604 9.34699C120.484 10.7968 119.649 12.9128 119.637 15.3837C119.61 21.0487 119.614 26.7143 119.645 32.3792C119.649 33.091 119.476 33.3131 118.755 33.2703C117.662 33.2051 116.562 33.2308 115.466 33.2639C115 33.2779 114.822 33.1666 114.848 32.6693C114.89 31.8795 114.859 31.0861 114.859 30.2942C114.859 22.0095 114.871 13.7246 114.84 5.44C114.837 4.68295 115.004 4.44611 115.773 4.50395C116.773 4.57861 117.784 4.54618 118.788 4.51221C119.266 4.49599 119.416 4.63736 119.403 5.12206C119.37 6.38186 119.392 7.64288 119.392 8.9036Z" fill="white"/>
<path d="M106.38 24.5915C105.101 27.8951 102.129 29.7228 98.6402 29.5481C95.0395 29.3669 92.3397 27.1227 91.2706 23.4125C90.8376 21.9119 90.6445 20.3812 90.7032 18.9926C90.6668 16.5691 91.0083 14.3876 92.0897 12.3895C93.643 9.51461 96.1234 8.17678 99.3599 8.28052C102.794 8.39037 105.19 10.1306 106.404 13.2839C107.844 17.0205 107.828 20.8506 106.38 24.5915ZM112.127 16.3619C111.391 9.81143 107.293 4.34047 99.624 4.04396C94.0496 3.82639 89.2861 6.44483 87.0661 11.8953C86.1594 14.1236 85.8363 16.4553 85.7935 18.8381C85.7632 19.6634 85.8669 20.4807 85.948 21.298C86.5762 27.6126 90.4226 32.937 97.4144 33.6812C102.582 34.2301 107.775 32.321 110.452 27.0943C112.184 23.7133 112.546 20.0964 112.127 16.3619Z" fill="white"/>
<path d="M84.1381 24.5833C84.1298 24.6727 84.1114 24.7746 84.0833 24.8884C83.0931 29.0601 80.5233 31.7801 76.4878 33.1097C71.1937 34.856 65.4201 33.2988 62.1673 29.2348C59.9715 26.4924 59.1563 23.2559 59.0425 19.8079C58.9103 15.7987 59.563 11.9808 62.096 8.71574C64.8895 5.11934 68.7114 3.81609 73.1273 4.07221C76.8678 4.28978 79.9927 5.78213 82.2311 8.88251C83.1399 10.1408 83.6968 11.5539 84.0325 13.0582H79.2304C79.0716 12.7999 78.9235 12.4991 78.7791 12.1533C77.6405 9.44341 75.2476 8.34579 72.3831 8.28275C69.474 8.21972 67.2028 9.42321 65.6579 11.8994C64.0459 14.4854 63.7041 17.3538 63.9339 20.318C64.1006 22.4627 64.623 24.5102 65.8877 26.3033C68.7806 30.3997 75.3066 30.6944 78.2096 26.8603C78.6894 26.2259 79.1022 25.5347 79.2751 24.7642C79.2892 24.6993 79.3057 24.6381 79.3259 24.5833H84.1381Z" fill="white"/>
<path d="M14.8284 16.5919C14.9517 16.9046 15.075 17.2173 15.198 17.5301C14.139 18.5959 13.9994 19.964 13.9477 21.3578C13.9364 21.6595 13.9624 21.9625 13.971 22.2648C13.5631 22.378 13.4477 22.0374 13.2592 21.8095C12.721 21.1106 12.2127 20.3808 11.3669 20.0022C10.3825 19.2183 9.22034 18.8924 8.00889 18.6892C7.71635 18.6402 7.38832 18.6831 7.17871 18.396C8.32009 17.7467 9.47401 17.1249 10.2577 16.0019C11.31 14.4939 11.5912 12.8281 11.3718 11.0426C11.4569 11.019 11.5377 11.0303 11.6154 11.0713C12.0263 11.4945 12.2852 12.0264 12.6304 12.4973C12.9015 13.1494 13.3091 13.7228 13.6879 14.3128C13.9174 14.7883 14.1264 15.2761 14.4985 15.6671C14.5521 15.7317 14.5977 15.8012 14.6396 15.8737C14.7513 16.1001 14.8752 16.3238 14.8284 16.5919Z" fill="#EB4426"/>
<path d="M32.7678 18.4083C32.762 18.2593 32.7283 18.124 32.5851 18.0439C32.303 17.3523 31.7607 16.7819 31.6417 16.0151C31.6163 15.8532 32.0426 15.2363 32.1237 15.0322C32.2904 14.6133 32.4156 14.1794 32.5239 13.7421C32.7442 12.8526 32.8455 12.0212 32.7522 11.1029C32.8789 11.2241 33.0056 11.3455 33.1322 11.4667C33.1359 11.617 33.1735 11.7504 33.3143 11.8327C33.7023 12.1059 33.9404 12.4774 34.0386 12.9401C34.0429 13.0876 34.0765 13.221 34.2136 13.3042C34.8529 14.7816 35.8247 16.0686 36.598 17.4689C35.963 18.0368 35.598 18.8358 35.434 19.6604C35.355 20.0576 35.3241 20.4655 35.3109 20.8698C35.3033 21.102 35.1684 22.2933 35.3214 22.4337C34.8648 22.0148 34.8617 21.2584 34.2308 20.9692C33.9667 20.2437 33.736 19.4998 33.1332 18.9606C32.9918 18.7893 32.948 18.5536 32.7678 18.4083Z" fill="#EB4426"/>
<path d="M35.356 1.25164C31.9462 3.39578 31.2033 7.86367 32.9245 11.2795C33.2522 11.9304 33.5968 12.573 33.9511 13.2101C34.6427 14.453 35.374 15.6734 36.1051 16.8937C38.3037 20.5638 40.5023 24.234 42.7006 27.9038C43.4772 29.2004 44.2725 30.5195 45.4117 31.5122C47.6244 33.4406 51.0635 33.8081 53.6336 32.391C56.204 30.9739 57.7288 27.8699 57.2793 24.9693C57.0556 23.5265 56.4053 22.2 55.6829 20.9213C55.5124 20.6195 55.3383 20.3209 55.1645 20.0238C52.327 15.1688 49.4895 10.3144 46.6516 5.45973C45.9634 4.28225 45.2621 3.08763 44.2749 2.14638C42.9215 0.85659 41.0488 0.18523 39.1831 0.18523C37.8382 0.18523 36.497 0.534073 35.356 1.25164ZM44.2107 3.3716C44.2079 3.36977 44.2055 3.36793 44.203 3.36579C44.2055 3.3462 44.2088 3.32723 44.2134 3.30949C44.2502 3.31836 44.2866 3.32662 44.3221 3.33427C44.2964 3.35202 44.2728 3.37343 44.2501 3.39546C44.2419 3.39057 44.2336 3.38598 44.2226 3.37986C44.2327 3.3869 44.2404 3.3921 44.248 3.397C44.2404 3.40434 44.2312 3.40955 44.2241 3.4175C44.2104 3.43617 44.1954 3.45269 44.1813 3.47044C44.1801 3.45086 44.1789 3.43127 44.1767 3.41108C44.1838 3.412 44.1899 3.41383 44.1972 3.41475C44.1975 3.39822 44.2006 3.38293 44.2027 3.36732C44.2058 3.36885 44.207 3.37099 44.2104 3.37283C44.2159 3.37589 44.2177 3.37711 44.2226 3.37986C44.218 3.37649 44.2159 3.37558 44.2107 3.3716ZM32.7394 5.17944C32.7691 5.23055 32.7987 5.27644 32.8281 5.31898C32.8049 5.32693 32.7834 5.33643 32.7642 5.34744C32.755 5.29144 32.7467 5.23544 32.7394 5.17944Z" fill="url(#paint0_linear_1216_120)"/>
<path d="M14.2332 1.12429C11.4202 2.76506 9.97646 6.43858 10.9199 9.55579C11.2509 10.6497 11.8327 11.6485 12.4089 12.6354C15.4052 17.7664 18.4012 22.897 21.3973 28.028C22.0891 29.2129 22.7945 30.4148 23.7902 31.3591C25.8339 33.2967 29.0576 33.8726 31.6461 32.7621C34.6862 31.458 36.1639 28.4038 36.0194 25.3628C35.9435 23.7603 35.4172 22.1611 34.4319 20.8239C33.491 19.2391 32.5506 17.6541 31.6097 16.069C29.4392 12.4117 27.2688 8.75438 25.098 5.09708C24.5347 4.14787 23.9649 3.19009 23.203 2.39174C21.8257 0.948647 19.825 0.182426 17.8354 0.182426C16.5772 0.182121 15.3232 0.488731 14.2332 1.12429ZM12.4921 12.087C12.5016 12.087 12.5111 12.087 12.5205 12.0858C12.5166 12.1026 12.5123 12.1173 12.5086 12.1344C12.5034 12.1173 12.4973 12.1035 12.4921 12.087Z" fill="url(#paint1_radial_1216_120)"/>
<path d="M5.22759 18.8092C2.61283 19.6085 0.543967 21.9699 0.0941485 24.667C-0.35567 27.3634 0.835278 30.2683 3.04796 31.8738C5.26125 33.4794 8.39131 33.7104 10.8164 32.4473C13.0804 31.2677 14.4146 29.0764 14.7025 26.7046C14.8445 25.532 14.7313 24.3151 14.3485 23.1547C14.2763 22.9359 14.197 22.719 14.0872 22.5167C13.9834 22.3258 13.8537 22.1501 13.7233 21.976C13.4189 21.5687 13.108 21.1642 12.7585 20.7948C11.3644 19.3233 9.33471 18.5026 7.31267 18.5026C6.60765 18.5026 5.90354 18.6024 5.22759 18.8092ZM8.63214 19.1437C8.63244 19.1421 8.63336 19.14 8.63366 19.1385C8.63428 19.14 8.63428 19.1424 8.63458 19.144C8.63367 19.144 8.63275 19.144 8.63214 19.1437ZM14.6062 26.6893C14.6273 26.7328 14.6487 26.7759 14.6701 26.819C14.6236 26.7796 14.6089 26.7355 14.6062 26.6893Z" fill="url(#paint2_linear_1216_120)"/>
<defs>
<linearGradient id="paint0_linear_1216_120" x1="31.7578" y1="-3.35405" x2="50.9971" y2="26.4644" gradientUnits="userSpaceOnUse">
<stop stop-color="#FAB811"/>
<stop offset="0.7742" stop-color="#E84D19"/>
<stop offset="0.942743" stop-color="#E5361A"/>
<stop offset="1" stop-color="#E5361A"/>
</linearGradient>
<radialGradient id="paint1_radial_1216_120" cx="0" cy="0" r="1" gradientUnits="userSpaceOnUse" gradientTransform="translate(14.0494 2.26435) rotate(55.6468) scale(34.1015 34.1015)">
<stop stop-color="#FBBE0E"/>
<stop offset="0.0428239" stop-color="#FBBE0E"/>
<stop offset="0.548437" stop-color="#E84D19"/>
<stop offset="0.631115" stop-color="#E84D19"/>
<stop offset="1" stop-color="#E84D19"/>
</radialGradient>
<linearGradient id="paint2_linear_1216_120" x1="1.23965" y1="16.5565" x2="14.3247" y2="36.2543" gradientUnits="userSpaceOnUse">
<stop stop-color="#F9B513"/>
<stop offset="0.80776" stop-color="#E84D19"/>
<stop offset="0.939845" stop-color="#E84D19"/>
<stop offset="1" stop-color="#E84D19"/>
</linearGradient>
</defs>
</svg>