<?xml version="1.0" encoding="UTF-8"?>
<svg version="1.1" xmlns="http://www.w3.org/2000/svg" width="450" height="235">
<path d="M0 0 C1.25526993 0.00424484 2.51053986 0.00848969 3.80384827 0.01286316 C7.11994962 0.02676247 10.43541677 0.05365373 13.75134277 0.0869751 C17.14341795 0.11781955 20.53555899 0.131399 23.92773438 0.14648438 C30.56788178 0.17949237 37.20773245 0.2296466 43.84765625 0.29296875 C43.84765625 3.59296875 43.84765625 6.89296875 43.84765625 10.29296875 C42.27878662 10.30755127 40.70991699 10.32213379 39.09350586 10.3371582 C33.25815338 10.39524548 27.42318255 10.4724787 21.58813477 10.55541992 C19.06541144 10.58862004 16.54261471 10.61666717 14.01977539 10.6394043 C10.38786619 10.67303971 6.75662668 10.72536242 3.125 10.78125 C1.44022804 10.79083488 1.44022804 10.79083488 -0.27857971 10.8006134 C-6.30313073 10.91305369 -10.87608546 11.27544914 -16.15234375 14.29296875 C-19.13779663 18.33777588 -19.68175857 22.1393463 -19.5078125 27.04296875 C-18.90255634 30.8740407 -17.45120969 33.16395677 -15.15234375 36.29296875 C-12.22727548 38.15020463 -10.00167365 38.5393133 -6.56738281 38.52001953 C-5.21643524 38.51979294 -5.21643524 38.51979294 -3.8381958 38.51956177 C-2.87452087 38.5092392 -1.91084595 38.49891663 -0.91796875 38.48828125 C0.07519348 38.48545135 1.06835571 38.48262146 2.09161377 38.47970581 C5.26041769 38.46852018 8.4289379 38.44341837 11.59765625 38.41796875 C13.74739175 38.40793687 15.89713168 38.39881138 18.046875 38.390625 C23.31389871 38.36858616 28.58075721 38.33512459 33.84765625 38.29296875 C33.84765625 35.65296875 33.84765625 33.01296875 33.84765625 30.29296875 C19.65765625 30.29296875 5.46765625 30.29296875 -9.15234375 30.29296875 C-9.15234375 26.99296875 -9.15234375 23.69296875 -9.15234375 20.29296875 C8.33765625 20.29296875 25.82765625 20.29296875 43.84765625 20.29296875 C43.84765625 29.86296875 43.84765625 39.43296875 43.84765625 49.29296875 C36.42976801 49.37705061 29.01362387 49.45716222 21.59567261 49.49996948 C18.14072096 49.5210181 14.68616729 49.54910475 11.23144531 49.59472656 C7.2598159 49.64684119 3.28834418 49.66597664 -0.68359375 49.68359375 C-2.52467712 49.71456146 -2.52467712 49.71456146 -4.4029541 49.74615479 C-11.48857635 49.74799929 -16.15462009 49.16320461 -22.15234375 45.29296875 C-28.469197 38.9761155 -30.32752705 33.70662539 -30.65234375 24.98046875 C-30.48103592 16.74137804 -28.55765903 10.78789759 -22.77734375 4.85546875 C-14.96351482 0.2043801 -9.03575544 -0.11556212 0 0 Z " fill="#000000" transform="translate(218.15234375,80.70703125)"/>
<path d="M0 0 C1.17445175 -0.00145523 2.3489035 -0.00291046 3.5589447 -0.00440979 C6.03419483 -0.00275445 8.50945564 0.00876568 10.98461914 0.02954102 C14.76818628 0.0585236 18.55035364 0.05013519 22.33398438 0.03710938 C24.74349638 0.04334642 27.15300397 0.05173709 29.5625 0.0625 C30.69075699 0.05956436 31.81901398 0.05662872 32.98146057 0.05360413 C39.43402872 0.13095744 44.33092367 0.48191315 49.359375 4.9609375 C54.61521068 11.58786075 53.92756453 17.68830437 53.96484375 25.87109375 C53.98546875 26.99515625 54.00609375 28.11921875 54.02734375 29.27734375 C54.07653423 39.6811309 54.07653423 39.6811309 50.71484375 44.49609375 C46.44159175 48.35244312 44.03994709 49.61798959 38.35058594 49.65722656 C37.22892029 49.66683411 36.10725464 49.67644165 34.95159912 49.68634033 C33.12510834 49.69271515 33.12510834 49.69271515 31.26171875 49.69921875 C29.38954681 49.70776886 29.38954681 49.70776886 27.47955322 49.7164917 C24.83317416 49.72595353 22.18690882 49.73284394 19.54052734 49.73632812 C16.16005385 49.74179962 12.77998584 49.76579778 9.39963913 49.79430008 C6.16619659 49.8174856 2.93273276 49.81938073 -0.30078125 49.82421875 C-1.51034485 49.83656555 -2.71990845 49.84891235 -3.96612549 49.8616333 C-14.89783113 49.83270985 -14.89783113 49.83270985 -19.28515625 46.49609375 C-22.93475693 42.2042364 -23.79521295 39.13545813 -23.81640625 33.55859375 C-23.8215625 32.25148438 -23.82671875 30.944375 -23.83203125 29.59765625 C-23.82365234 28.92379883 -23.81527344 28.24994141 -23.80664062 27.55566406 C-23.78520485 25.50075252 -23.80648132 23.44933557 -23.83203125 21.39453125 C-23.826875 20.08742188 -23.82171875 18.7803125 -23.81640625 17.43359375 C-23.81189453 16.24636719 -23.80738281 15.05914062 -23.80273438 13.8359375 C-22.95205456 8.34664511 -20.61230336 5.53923247 -16.30297852 2.15209961 C-11.17783804 -0.47242138 -5.62550093 -0.05611341 0 0 Z M-12.28515625 12.49609375 C-14.29012349 16.50602823 -13.51393509 21.58739787 -13.53515625 25.99609375 C-13.55578125 27.06730469 -13.57640625 28.13851562 -13.59765625 29.2421875 C-13.6028125 30.26441406 -13.60796875 31.28664063 -13.61328125 32.33984375 C-13.62262695 33.28021484 -13.63197266 34.22058594 -13.64160156 35.18945312 C-13.52397461 35.95064453 -13.40634766 36.71183594 -13.28515625 37.49609375 C-10.04206367 39.65815547 -9.14659882 39.74805465 -5.40234375 39.75488281 C-4.41121582 39.76118713 -3.42008789 39.76749146 -2.39892578 39.77398682 C-1.33013184 39.76993835 -0.26133789 39.76588989 0.83984375 39.76171875 C2.48750732 39.76458893 2.48750732 39.76458893 4.16845703 39.76751709 C6.49186431 39.76887865 8.8152792 39.76518423 11.13867188 39.75683594 C14.7006942 39.74613625 18.26221216 39.75673244 21.82421875 39.76953125 C24.0794282 39.76820965 26.33463733 39.76564725 28.58984375 39.76171875 C30.19303467 39.76779144 30.19303467 39.76779144 31.82861328 39.77398682 C32.81974121 39.7676825 33.81086914 39.76137817 34.83203125 39.75488281 C36.14083252 39.75249603 36.14083252 39.75249603 37.47607422 39.75006104 C39.99948659 39.6366607 39.99948659 39.6366607 42.71484375 37.49609375 C43.38289488 33.5568122 43.17772299 29.54774893 43.15234375 25.55859375 C43.17232422 24.44806641 43.19230469 23.33753906 43.21289062 22.19335938 C43.21224609 21.12923828 43.21160156 20.06511719 43.2109375 18.96875 C43.21279053 17.99172119 43.21464355 17.01469238 43.21655273 16.00805664 C42.94800839 13.3987986 42.94800839 13.3987986 40.97755432 11.86236572 C38.39250982 10.30146178 37.0034658 10.12146443 34.00976562 10.1237793 C32.61812195 10.11443611 32.61812195 10.11443611 31.19836426 10.10490417 C30.20348999 10.11411392 29.20861572 10.12332367 28.18359375 10.1328125 C27.15552612 10.132314 26.1274585 10.13181549 25.0682373 10.13130188 C22.89622056 10.13364073 20.72420102 10.14335806 18.55224609 10.15991211 C15.22729256 10.18350542 11.90314098 10.18047127 8.578125 10.17382812 C6.46744314 10.179405 4.35676465 10.18651494 2.24609375 10.1953125 C1.25121948 10.19440109 0.25634521 10.19348969 -0.76867676 10.19255066 C-2.16032043 10.20684868 -2.16032043 10.20684868 -3.58007812 10.22143555 C-4.39408081 10.22604294 -5.2080835 10.23065033 -6.04675293 10.23539734 C-8.54718903 10.52661149 -10.1578238 11.16342724 -12.28515625 12.49609375 Z " fill="#000000" transform="translate(289.28515625,80.50390625)"/>
<path d="M0 0 C14.36251085 0 18.6119734 0.15597992 29 8 C30.0725 8.763125 31.145 9.52625 32.25 10.3125 C34.85938553 12.17634681 37.43911445 14.07035478 40 16 C44.50369718 13.64774641 48.82498626 11.26689472 52.81640625 8.10546875 C53.74743164 7.38520508 53.74743164 7.38520508 54.69726562 6.65039062 C55.93356995 5.68076556 57.15046363 4.68583114 58.34570312 3.66601562 C65.98402933 -2.08031985 69.95402505 0 81 0 C81 15.84 81 31.68 81 48 C77.7 48 74.4 48 71 48 C70.67 35.79 70.34 23.58 70 11 C61.37136533 16.94995208 61.37136533 16.94995208 52.76904297 22.93774414 C51.14699951 24.03783813 51.14699951 24.03783813 49.4921875 25.16015625 C48.93990479 25.55392456 48.38762207 25.94769287 47.81860352 26.35339355 C44.90335009 28.30011356 43.29275173 29.01480255 39.75048828 28.83569336 C36.56926021 27.86912637 34.60925611 26.55478919 32 24.5 C25.56537146 19.6740286 18.76583878 15.34946779 12 11 C11.67 23.21 11.34 35.42 11 48 C7.37 48 3.74 48 0 48 C0 32.16 0 16.32 0 0 Z " fill="#000000" transform="translate(88,82)"/>
<path d="M0 0 C1.21157021 -0.01441132 1.21157021 -0.01441132 2.44761658 -0.02911377 C3.31640945 -0.03336365 4.18520233 -0.03761353 5.08032227 -0.04199219 C5.97662857 -0.04769226 6.87293488 -0.05339233 7.79640198 -0.05926514 C9.69189271 -0.06870883 11.58739982 -0.07524661 13.48291016 -0.07910156 C16.38220785 -0.08881852 19.28079996 -0.11985221 22.17993164 -0.15136719 C24.02172431 -0.15789634 25.86352204 -0.16314716 27.70532227 -0.16699219 C29.00547523 -0.18551239 29.00547523 -0.18551239 30.33189392 -0.20440674 C33.88301682 -0.19126366 36.31207874 -0.16922776 39.50878906 1.46264648 C41.86066554 4.21672908 41.45775217 7.28772491 41.33422852 10.72363281 C41.33293945 11.40876953 41.33165039 12.09390625 41.33032227 12.79980469 C41.24058778 17.87977355 41.24058778 17.87977355 38.95922852 20.16113281 C36.97238159 20.40164185 36.97238159 20.40164185 34.50952148 20.38818359 C33.58871796 20.38803253 32.66791443 20.38788147 31.71920776 20.38772583 C30.72333649 20.37740326 29.72746521 20.36708069 28.70141602 20.35644531 C27.68322784 20.35361542 26.66503967 20.35078552 25.61599731 20.34786987 C22.35528951 20.33665052 19.09485368 20.31154277 15.83422852 20.28613281 C13.62720122 20.27610528 11.42016964 20.26697904 9.21313477 20.25878906 C3.7950728 20.23670549 -1.62282992 20.20321076 -7.04077148 20.16113281 C-8.55791987 17.12683604 -8.18441064 13.98511614 -8.16577148 10.66113281 C-8.16963867 9.97148438 -8.17350586 9.28183594 -8.17749023 8.57128906 C-8.16743795 3.41446574 -8.16743795 3.41446574 -7.04077148 1.16113281 C-4.35201894 0.26488196 -2.76169379 0.02657265 0 0 Z " fill="#000000" transform="translate(288.040771484375,94.8388671875)"/>
<path d="M0 0 C2.31 0 4.62 0 7 0 C8.98 5.94 10.96 11.88 13 18 C15.31 12.06 17.62 6.12 20 0 C21.98 0 23.96 0 26 0 C26 8.58 26 17.16 26 26 C24.35 26 22.7 26 21 26 C20.505 19.565 20.505 19.565 20 13 C18.68 16.96 17.36 20.92 16 25 C14.35 25.33 12.7 25.66 11 26 C10.35309078 24.3962669 9.70751236 22.79199694 9.0625 21.1875 C8.70285156 20.29417969 8.34320313 19.40085938 7.97265625 18.48046875 C7.26386514 16.6729091 6.6139753 14.84192591 6 13 C5.67 17.29 5.34 21.58 5 26 C3.35 26 1.7 26 0 26 C0 17.42 0 8.84 0 0 Z " fill="#000000" transform="translate(243,138)"/>
<path d="M0 0 C3.63 0 7.26 0 11 0 C11 11.88 11 23.76 11 36 C7.37 36 3.74 36 0 36 C0 24.12 0 12.24 0 0 Z " fill="#000000" transform="translate(173,81)"/>
<path d="M0 0 C1.32 0 2.64 0 4 0 C4 2.31 4 4.62 4 7 C5.3303125 6.6596875 5.3303125 6.6596875 6.6875 6.3125 C10 6 10 6 12.75 6.875 C16.12197854 10.0596464 16.84071175 13.42615164 17 18 C16.09432153 22.18187191 14.62397796 24.58401469 11 27 C7.37 26.67 3.74 26.34 0 26 C0 17.42 0 8.84 0 0 Z M5.3125 11 C3.1517486 14.29257356 3.69183122 17.11707331 4 21 C4.66 21.66 5.32 22.32 6 23 C9.30683466 22.71016731 9.30683466 22.71016731 12 21 C12.19941868 18.93227266 12.19941868 18.93227266 12.1875 16.5625 C12.20167969 15.75941406 12.21585937 14.95632812 12.23046875 14.12890625 C12.20162356 11.78369367 12.20162356 11.78369367 10 10 C7.10322171 9.7450988 7.10322171 9.7450988 5.3125 11 Z " fill="#000000" transform="translate(292,138)"/>
<path d="M0 0 C3.38084626 2.37572981 3.92879305 3.64396525 4.75 7.75 C4.87375 9.35875 4.87375 9.35875 5 11 C0.38 11 -4.24 11 -9 11 C-8.67 12.32 -8.34 13.64 -8 15 C-5.08347826 15.16681109 -5.08347826 15.16681109 -2 15 C-1.34 14.34 -0.68 13.68 0 13 C2.625 12.875 2.625 12.875 5 13 C3.55172414 17.5862069 3.55172414 17.5862069 1.25 19.3125 C-2.43393621 20.43814717 -5.61425062 20.5004095 -9.25 19.1875 C-11 18 -11 18 -13 15 C-13.70764306 10.14523949 -13.709087 6.19811251 -11.1875 1.9375 C-7.42226749 -1.39742022 -4.69692922 -1.24612408 0 0 Z M-6 3 C-6.66 4.32 -7.32 5.64 -8 7 C-5.36 7 -2.72 7 0 7 C-0.66 5.68 -1.32 4.36 -2 3 C-3.32 3 -4.64 3 -6 3 Z " fill="#000000" transform="translate(339,145)"/>
<path d="M0 0 C2.59726129 4.19557593 2.40876584 8.82355162 1.625 13.625 C0.18996625 16.23577791 -0.64235086 17.36157559 -3.4609375 18.375 C-7.60909519 18.82804111 -9.67026572 19.036095 -13.375 16.875 C-15.96172239 13.96493731 -16.33855484 12.11700964 -16.625 8.25 C-16.35549408 4.34216414 -15.85642225 2.61981995 -13.375 -0.375 C-8.67644002 -3.16873837 -4.65833767 -2.69693233 0 0 Z M-11.375 3.625 C-12.48282533 7.18586712 -12.61748438 9.00531769 -11.25 12.5 C-9.55068553 14.86082754 -9.55068553 14.86082754 -6.8125 15.125 C-4.01637117 14.8493063 -4.01637117 14.8493063 -2.375 11.625 C-1.86695962 6.89452846 -1.86695962 6.89452846 -3.6875 2.6875 C-6.91204631 0.6572301 -8.34130148 1.60253432 -11.375 3.625 Z " fill="#000000" transform="translate(287.375,146.375)"/>
<path d="M0 0 C2 2 2 2 2.3125 4.9375 C2 8 2 8 0.875 9.9375 C-1 11 -1 11 -4.0625 10.8125 C-7 10 -7 10 -9 8 C-9.375 5.0625 -9.375 5.0625 -9 2 C-6.12524616 -1.3006433 -4.03854228 -1.38160657 0 0 Z " fill="#000000" transform="translate(182,68)"/>
<path d="M0 0 C1.32 0 2.64 0 4 0 C4 8.58 4 17.16 4 26 C2.68 26 1.36 26 0 26 C0 17.42 0 8.84 0 0 Z " fill="#000000" transform="translate(319,138)"/>
<path d="M0 0 C1.32 0 2.64 0 4 0 C4 6.27 4 12.54 4 19 C2.68 19 1.36 19 0 19 C0 12.73 0 6.46 0 0 Z " fill="#000000" transform="translate(311,145)"/>
<path d="M0 0 C1.32 0 2.64 0 4 0 C4 1.32 4 2.64 4 4 C2.68 4 1.36 4 0 4 C0 2.68 0 1.36 0 0 Z " fill="#000000" transform="translate(311,138)"/>
</svg>
