<?xml version="1.0" encoding="UTF-8"?>
<svg version="1.1" xmlns="http://www.w3.org/2000/svg" width="299" height="168">
<path d="M0 0 C98.67 0 197.34 0 299 0 C299 55.44 299 110.88 299 168 C200.33 168 101.66 168 0 168 C0 112.56 0 57.12 0 0 Z " fill="#FEFEFE" transform="translate(0,0)"/>
<path d="M0 0 C2.9838283 1.98921886 4.60276841 3.38502568 5.4765625 6.9375 C5.75890933 10.86063492 5.21925086 12.67112371 3 16 C-1.15562097 18.77041398 -3.06667872 18.70476018 -8 18 C-10.5 16.625 -10.5 16.625 -12 14 C-12.73430028 9.3953253 -12.8440582 5.47710185 -10.5 1.375 C-6.98130065 -0.56028464 -3.86010978 -0.86374734 0 0 Z " fill="#313131" transform="translate(108,79)"/>
<path d="M0 0 C5.33333333 0 10.66666667 0 16 0 C17.010625 -0.061875 18.02125 -0.12375 19.0625 -0.1875 C22 0 22 0 23.671875 1.03125 C25.71464248 4.05935237 25.31549205 7.17264134 25.1875 10.6875 C25.16719727 11.7403418 25.16719727 11.7403418 25.14648438 12.81445312 C25.11120182 14.54329829 25.05739583 16.27174765 25 18 C23.68 18 22.36 18 21 18 C20.67 13.38 20.34 8.76 20 4 C18.68 4 17.36 4 16 4 C14.64908472 6.70183055 14.66141942 9.11808206 14.4375 12.125 C14.35371094 13.22070312 14.26992187 14.31640625 14.18359375 15.4453125 C14.12300781 16.28835937 14.06242187 17.13140625 14 18 C13.01 18 12.02 18 11 18 C10.67 13.38 10.34 8.76 10 4 C8.35 3.67 6.7 3.34 5 3 C4.67 7.95 4.34 12.9 4 18 C2.68 18 1.36 18 0 18 C0 12.06 0 6.12 0 0 Z " fill="#2B2B2B" transform="translate(67,79)"/>
<path d="M0 0 C1.32 0 2.64 0 4 0 C5.32 4.29 6.64 8.58 8 13 C8.7115625 10.0609375 8.7115625 10.0609375 9.4375 7.0625 C10.875 1.125 10.875 1.125 12 0 C13.65 0 15.3 0 17 0 C17.99 3.63 18.98 7.26 20 11 C22.22825644 8.77174356 22.69239369 7.34238372 23.625 4.375 C23.88539063 3.55773437 24.14578125 2.74046875 24.4140625 1.8984375 C24.60742188 1.27195312 24.80078125 0.64546875 25 0 C25.99 0 26.98 0 28 0 C26.75971762 6.17222879 25.10396411 12.06682122 23 18 C21.35 18 19.7 18 18 18 C16.68 14.04 15.36 10.08 14 6 C12.68 9.96 11.36 13.92 10 18 C8.35 18 6.7 18 5 18 C4.16320723 15.37605694 3.33043058 12.75095616 2.5 10.125 C2.26152344 9.37863281 2.02304688 8.63226563 1.77734375 7.86328125 C0 2.2265625 0 2.2265625 0 0 Z " fill="#363636" transform="translate(182,79)"/>
<path d="M0 0 C2.5 2.1875 2.5 2.1875 4 5 C4 6.65 4 8.3 4 10 C-0.29 10 -4.58 10 -9 10 C-8.34 11.32 -7.68 12.64 -7 14 C-3.4780279 14.08004482 -0.38018531 14.04005702 3 13 C1.125 16.875 1.125 16.875 0 18 C-7.13152401 18.46764092 -7.13152401 18.46764092 -10.4375 16.6875 C-12.76903243 14.16944498 -13.00043361 11.99609752 -13.375 8.625 C-13 5 -13 5 -11 2.0625 C-6.83082591 -0.80380719 -4.98902441 -0.79190864 0 0 Z " fill="#383838" transform="translate(158,79)"/>
<path d="M0 0 C2.64 0 5.28 0 8 0 C9.83997197 3.45484098 11.67083882 6.9144248 13.5 10.375 C14.02464844 11.35984375 14.54929687 12.3446875 15.08984375 13.359375 C15.58613281 14.30039063 16.08242188 15.24140625 16.59375 16.2109375 C17.05458984 17.08024902 17.51542969 17.94956055 17.99023438 18.84521484 C19 21 19 21 19 23 C16.36 23 13.72 23 11 23 C10.18595703 21.35451172 10.18595703 21.35451172 9.35546875 19.67578125 C8.6329203 18.22130061 7.91025804 16.7668765 7.1875 15.3125 C6.83107422 14.59126953 6.47464844 13.87003906 6.10742188 13.12695312 C4.573165 10.04436362 3.02998465 7.04926524 1.23828125 4.10546875 C0 2 0 2 0 0 Z " fill="#F49B10" transform="translate(40,74)"/>
<path d="M0 0 C2.64 0 5.28 0 8 0 C9.27339482 2.51956743 10.54376642 5.04058649 11.8125 7.5625 C12.16892578 8.26697266 12.52535156 8.97144531 12.89257812 9.69726562 C15.09092409 14.07378925 17.11663926 18.47874598 19 23 C16.36 23 13.72 23 11 23 C9.34703881 19.92043712 7.70389829 16.83573921 6.0625 13.75 C5.59392578 12.87730469 5.12535156 12.00460938 4.64257812 11.10546875 C4.19462891 10.26113281 3.74667969 9.41679688 3.28515625 8.546875 C2.87144775 7.77182617 2.45773926 6.99677734 2.03149414 6.19824219 C1.0607156 4.1293925 0.46441571 2.2309731 0 0 Z " fill="#F59A0D" transform="translate(27,74)"/>
<path d="M0 0 C0.99 0 1.98 0 3 0 C3 2.64 3 5.28 3 8 C3.99 7.34 4.98 6.68 6 6 C12.10456062 5.45494994 12.10456062 5.45494994 14.70703125 7.0390625 C16.70546676 10.0699224 16.31485327 13.19018327 16.1875 16.6875 C16.16719727 17.7403418 16.16719727 17.7403418 16.14648438 18.81445312 C16.11120182 20.54329829 16.05739583 22.27174765 16 24 C15.01 24 14.02 24 13 24 C12.93941406 23.07316406 12.87882812 22.14632812 12.81640625 21.19140625 C12.73261719 19.99386719 12.64882813 18.79632813 12.5625 17.5625 C12.48128906 16.36753906 12.40007812 15.17257813 12.31640625 13.94140625 C12.32343886 11.11429756 12.32343886 11.11429756 11 10 C8.54207971 9.66656449 8.54207971 9.66656449 6 10 C3.81005752 13.28491373 3.64722661 14.83095639 3.375 18.6875 C3.30023438 19.68136719 3.22546875 20.67523438 3.1484375 21.69921875 C3.09945313 22.45847656 3.05046875 23.21773437 3 24 C2.01 24 1.02 24 0 24 C0 16.08 0 8.16 0 0 Z " fill="#282828" transform="translate(255,73)"/>
<path d="M0 0 C1.97265625 0.265625 1.97265625 0.265625 4.97265625 2.265625 C4.97265625 3.255625 4.97265625 4.245625 4.97265625 5.265625 C1.67265625 4.605625 -1.62734375 3.945625 -5.02734375 3.265625 C-4.69734375 4.255625 -4.36734375 5.245625 -4.02734375 6.265625 C-1.96236988 7.25266452 -1.96236988 7.25266452 0.47265625 7.890625 C4.90090737 9.19387612 4.90090737 9.19387612 5.97265625 10.265625 C5.66015625 13.765625 5.66015625 13.765625 4.97265625 17.265625 C2.64579172 18.42905727 1.12544212 18.46458488 -1.46484375 18.515625 C-2.24730469 18.54140625 -3.02976563 18.5671875 -3.8359375 18.59375 C-6.53535723 18.18955881 -7.40193919 17.41889407 -9.02734375 15.265625 C-9.02734375 14.605625 -9.02734375 13.945625 -9.02734375 13.265625 C-5.39734375 13.595625 -1.76734375 13.925625 1.97265625 14.265625 C1.97265625 13.605625 1.97265625 12.945625 1.97265625 12.265625 C1.33457031 12.06066406 0.69648438 11.85570313 0.0390625 11.64453125 C-0.78722656 11.37511719 -1.61351562 11.10570313 -2.46484375 10.828125 C-3.28855469 10.56128906 -4.11226562 10.29445313 -4.9609375 10.01953125 C-7.02734375 9.265625 -7.02734375 9.265625 -8.02734375 8.265625 C-8.21484375 5.328125 -8.21484375 5.328125 -8.02734375 2.265625 C-5.42029477 -0.34142398 -3.55396134 0.02657167 0 0 Z " fill="#303030" transform="translate(174.02734375,78.734375)"/>
<path d="M0 0 C0.99 0 1.98 0 3 0 C3 0.66 3 1.32 3 2 C3.99 1.34 4.98 0.68 6 0 C12.10456062 -0.54505006 12.10456062 -0.54505006 14.70703125 1.0390625 C16.70546676 4.0699224 16.31485327 7.19018327 16.1875 10.6875 C16.16719727 11.7403418 16.16719727 11.7403418 16.14648438 12.81445312 C16.11120182 14.54329829 16.05739583 16.27174765 16 18 C15.01 18 14.02 18 13 18 C12.93941406 17.07316406 12.87882813 16.14632812 12.81640625 15.19140625 C12.73261719 13.99386719 12.64882812 12.79632813 12.5625 11.5625 C12.48128906 10.36753906 12.40007812 9.17257813 12.31640625 7.94140625 C12.32343886 5.11429756 12.32343886 5.11429756 11 4 C8.54207971 3.66656449 8.54207971 3.66656449 6 4 C3.81005752 7.28491373 3.64722661 8.83095639 3.375 12.6875 C3.30023438 13.68136719 3.22546875 14.67523438 3.1484375 15.69921875 C3.09945312 16.45847656 3.05046875 17.21773437 3 18 C2.01 18 1.02 18 0 18 C0 12.06 0 6.12 0 0 Z " fill="#282828" transform="translate(117,79)"/>
<path d="M0 0 C2.0625 0.5078125 2.0625 0.5078125 4.125 3.0078125 C4.434375 3.8328125 4.74375 4.6578125 5.0625 5.5078125 C4.01449219 5.36472656 4.01449219 5.36472656 2.9453125 5.21875 C2.03523437 5.10789062 1.12515625 4.99703125 0.1875 4.8828125 C-0.71742188 4.76679687 -1.62234375 4.65078125 -2.5546875 4.53125 C-3.34101563 4.52351563 -4.12734375 4.51578125 -4.9375 4.5078125 C-5.5975 5.1678125 -6.2575 5.8278125 -6.9375 6.5078125 C-6.84054884 10.84976186 -6.84054884 10.84976186 -4.9375 14.5078125 C-2.47940002 14.7578898 -2.47940002 14.7578898 0.0625 14.5078125 C0.7225 13.8478125 1.3825 13.1878125 2.0625 12.5078125 C3.0525 12.5078125 4.0425 12.5078125 5.0625 12.5078125 C4.75 14.3828125 4.75 14.3828125 4.0625 16.5078125 C0.38846466 18.9571694 -2.66928115 19.32366922 -6.9375 18.5078125 C-9.5718679 16.40031818 -10.66754456 14.90258229 -11.3125 11.5703125 C-11.53021852 7.97795698 -11.07003539 5.78440811 -9.5 2.5078125 C-6.23147299 -0.04323297 -4.06912521 -0.2007792 0 0 Z " fill="#333333" transform="translate(245.9375,78.4921875)"/>
<path d="M0 0 C0.99 0 1.98 0 3 0 C3 1.65 3 3.3 3 5 C4.98 5 6.96 5 9 5 C9 5.99 9 6.98 9 8 C7.35 8 5.7 8 4 8 C4 11.96 4 15.92 4 20 C5.65 20 7.3 20 9 20 C9 20.99 9 21.98 9 23 C5.625 23.1875 5.625 23.1875 2 23 C-0.35119399 19.47320901 -0.21443452 17.97120515 -0.125 13.8125 C-0.10695312 12.72582031 -0.08890625 11.63914062 -0.0703125 10.51953125 C-0.04710937 9.68808594 -0.02390625 8.85664062 0 8 C-0.99 8 -1.98 8 -3 8 C-3 7.01 -3 6.02 -3 5 C-2.01 5 -1.02 5 0 5 C0 3.35 0 1.7 0 0 Z " fill="#262626" transform="translate(223,74)"/>
<path d="M0 0 C1.875 1.0625 1.875 1.0625 3 3 C2.66666667 9.33333333 2.66666667 9.33333333 0 12 C-3 12.3125 -3 12.3125 -6 12 C-8.31282587 8.53076119 -8.42478586 7.07794425 -8 3 C-5.90534242 -0.30735407 -3.75951639 -0.56392746 0 0 Z " fill="#F5F5F5" transform="translate(107,82)"/>
<path d="M0 0 C3.63 0 7.26 0 11 0 C7 3 7 3 5 3 C4.67 7.95 4.34 12.9 4 18 C2.68 18 1.36 18 0 18 C0 12.06 0 6.12 0 0 Z " fill="#3E3E3E" transform="translate(67,79)"/>
<path d="M0 0 C2.5625 0.1875 2.5625 0.1875 4.5625 2.1875 C4.70747985 4.76814129 4.74927545 7.23693884 4.6875 9.8125 C4.67847656 10.51890625 4.66945313 11.2253125 4.66015625 11.953125 C4.63657603 13.69806098 4.60070461 15.44282295 4.5625 17.1875 C3.2425 17.1875 1.9225 17.1875 0.5625 17.1875 C0.52511719 16.20007813 0.48773438 15.21265625 0.44921875 14.1953125 C0.38347656 12.91398437 0.31773438 11.63265625 0.25 10.3125 C0.19199219 9.03632812 0.13398437 7.76015625 0.07421875 6.4453125 C-0.09464844 5.37023437 -0.26351562 4.29515625 -0.4375 3.1875 C-1.4275 2.5275 -2.4175 1.8675 -3.4375 1.1875 C-2.4375 0.1875 -2.4375 0.1875 0 0 Z " fill="#3F3F3F" transform="translate(87.4375,79.8125)"/>
<path d="M0 0 C1.32 0 2.64 0 4 0 C4 5.94 4 11.88 4 18 C2.68 18 1.36 18 0 18 C0 12.06 0 6.12 0 0 Z " fill="#454545" transform="translate(213,79)"/>
<path d="M0 0 C3.35585467 3.0202692 4.22157001 4.55392503 6 9 C2.37 9 -1.26 9 -5 9 C-3.35 6.03 -1.7 3.06 0 0 Z " fill="#EF9D1A" transform="translate(27,88)"/>
<path d="M0 0 C0.99 0 1.98 0 3 0 C3 5.94 3 11.88 3 18 C2.01 18 1.02 18 0 18 C0 12.06 0 6.12 0 0 Z " fill="#222222" transform="translate(138,79)"/>
<path d="M0 0 C0.37125 0.66 0.7425 1.32 1.125 2 C2.88238873 4.3108499 2.88238873 4.3108499 5.9375 4.3125 C8.41338814 4.05985835 10.62863931 3.72964944 13 3 C11.125 6.875 11.125 6.875 10 8 C2.88827203 8.46634282 2.88827203 8.46634282 -0.5 6.6875 C-2 5 -2 5 -2 2 C-1.34 2 -0.68 2 0 2 C0 1.34 0 0.68 0 0 Z " fill="#2F2F2F" transform="translate(148,89)"/>
<path d="M0 0 C4.29 0 8.58 0 13 0 C13 1.65 13 3.3 13 5 C12.67 4.34 12.34 3.68 12 3 C11.46375 3.33 10.9275 3.66 10.375 4 C7.4070908 5.24964598 5.19200721 5.27756584 2 5 C1.34 4.34 0.68 3.68 0 3 C0 2.01 0 1.02 0 0 Z " fill="#F1F1F1" transform="translate(149,89)"/>
<path d="M0 0 C0 3.96 0 7.92 0 12 C1.65 12 3.3 12 5 12 C5 12.99 5 13.98 5 15 C2.69 15 0.38 15 -2 15 C-4.51109996 10.42093536 -4.26968434 5.95586469 -3 1 C-1 0 -1 0 0 0 Z " fill="#494949" transform="translate(227,82)"/>
<path d="M0 0 C2 1.6875 2 1.6875 4 4 C4 5.65 4 7.3 4 9 C-0.29 9 -4.58 9 -9 9 C-9 8.34 -9 7.68 -9 7 C-5.7 7 -2.4 7 1 7 C-0.485 4.03 -0.485 4.03 -2 1 C-1.34 0.67 -0.68 0.34 0 0 Z " fill="#2B2B2B" transform="translate(158,80)"/>
<path d="M0 0 C0.99 0 1.98 0 3 0 C2.68950274 1.43793392 2.3765224 2.8753318 2.0625 4.3125 C1.88847656 5.11300781 1.71445313 5.91351563 1.53515625 6.73828125 C1 9 1 9 0 12 C-0.99 12 -1.98 12 -3 12 C-2.69230293 10.18667846 -2.37870936 8.37435655 -2.0625 6.5625 C-1.80146484 5.04849609 -1.80146484 5.04849609 -1.53515625 3.50390625 C-1 1 -1 1 0 0 Z " fill="#2F2F2F" transform="translate(207,79)"/>
<path d="M0 0 C1.32 0 2.64 0 4 0 C6.21538462 7.38461538 6.21538462 7.38461538 5.125 10.5 C4.75375 10.995 4.3825 11.49 4 12 C1.78600697 8.20458337 0.99019802 4.24370579 0 0 Z " fill="#373737" transform="translate(182,79)"/>
<path d="M0 0 C1.258125 -0.04125 2.51625 -0.0825 3.8125 -0.125 C4.52019531 -0.14820312 5.22789062 -0.17140625 5.95703125 -0.1953125 C8 0 8 0 11 2 C11 2.99 11 3.98 11 5 C9.54096742 4.69078116 8.08279278 4.37751201 6.625 4.0625 C5.81289062 3.88847656 5.00078125 3.71445313 4.1640625 3.53515625 C2 3 2 3 0 2 C0 1.34 0 0.68 0 0 Z " fill="#3D3D3D" transform="translate(168,79)"/>
<path d="M0 0 C-0.3125 1.875 -0.3125 1.875 -1 4 C-4.4352048 6.29013653 -5.985331 6.17842973 -10 6 C-7.36056774 2.04085161 -4.85144313 0 0 0 Z " fill="#3A3A3A" transform="translate(251,91)"/>
<path d="M0 0 C1.98 0 3.96 0 6 0 C6.33 1.32 6.66 2.64 7 4 C4.03 4 1.06 4 -2 4 C-1.34 2.68 -0.68 1.36 0 0 Z " fill="#F9F9F9" transform="translate(151,82)"/>
<path d="M0 0 C0.66 0.66 1.32 1.32 2 2 C2.66 1.67 3.32 1.34 4 1 C5.70702735 0.93003986 7.41668003 0.91559846 9.125 0.9375 C10.03507813 0.94652344 10.94515625 0.95554687 11.8828125 0.96484375 C12.58148438 0.97644531 13.28015625 0.98804687 14 1 C14 1.66 14 2.32 14 3 C10.7 3 7.4 3 4 3 C3.67 4.32 3.34 5.64 3 7 C2.01 7 1.02 7 0 7 C0 4.69 0 2.38 0 0 Z " fill="#595959" transform="translate(145,84)"/>
<path d="M0 0 C5.37305699 -0.44041451 5.37305699 -0.44041451 8 0 C10 2.5 10 2.5 11 5 C7.1936543 4.32829194 3.64793184 3.27253436 0 2 C0 1.34 0 0.68 0 0 Z " fill="#2F2F2F" transform="translate(240,79)"/>
<path d="M0 0 C0.99 0.33 1.98 0.66 3 1 C3.33 1.99 3.66 2.98 4 4 C3.67 4.66 3.34 5.32 3 6 C2.34 6 1.68 6 1 6 C1 9.3 1 12.6 1 16 C0.67 16 0.34 16 0 16 C0 10.72 0 5.44 0 0 Z " fill="#323232" transform="translate(118,80)"/>
<path d="M0 0 C2.64 0 5.28 0 8 0 C7.67 0.99 7.34 1.98 7 3 C5.68 2.67 4.36 2.34 3 2 C3 2.99 3 3.98 3 5 C3.66 5.33 4.32 5.66 5 6 C4.34 6.66 3.68 7.32 3 8 C0 2.25 0 2.25 0 0 Z " fill="#EDA735" transform="translate(27,74)"/>
<path d="M0 0 C3.34373475 0.55728913 6.03312999 1.35173889 9 3 C7.02 3.66 5.04 4.32 3 5 C1.5 3.625 1.5 3.625 0 2 C0 1.34 0 0.68 0 0 Z " fill="#383838" transform="translate(165,92)"/>
<path d="M0 0 C0.99 0.33 1.98 0.66 3 1 C2.1875 3.4375 2.1875 3.4375 1 6 C0.01 6.33 -0.98 6.66 -2 7 C-1.125 1.125 -1.125 1.125 0 0 Z " fill="#373737" transform="translate(110,89)"/>
<path d="M0 0 C0.99 0 1.98 0 3 0 C3.33 2.31 3.66 4.62 4 7 C3.01 7 2.02 7 1 7 C0.67 4.69 0.34 2.38 0 0 Z " fill="#2F2F2F" transform="translate(198,87)"/>
<path d="M0 0 C1.32 0.33 2.64 0.66 4 1 C4 2.98 4 4.96 4 7 C3.01 6.67 2.02 6.34 1 6 C0.67 4.02 0.34 2.04 0 0 Z " fill="#2A2A2A" transform="translate(109,83)"/>
<path d="M0 0 C1.32 0.66 2.64 1.32 4 2 C3.67 2.99 3.34 3.98 3 5 C1.02 4.34 -0.96 3.68 -3 3 C-2.01 2.01 -1.02 1.02 0 0 Z " fill="#3D3D3D" transform="translate(176,87)"/>
<path d="M0 0 C2 3 2 3 1.625 5.1875 C1.41875 5.785625 1.2125 6.38375 1 7 C0.01 6.34 -0.98 5.68 -2 5 C-2 4.01 -2 3.02 -2 2 C-1.34 2 -0.68 2 0 2 C0 1.34 0 0.68 0 0 Z " fill="#3C3C3C" transform="translate(148,89)"/>
<path d="M0 0 C0.33 0.66 0.66 1.32 1 2 C2.65 2 4.3 2 6 2 C3 3.5 3 3.5 0 5 C-0.99 4.34 -1.98 3.68 -3 3 C-2.01 2.01 -1.02 1.02 0 0 Z " fill="#424242" transform="translate(239,79)"/>
</svg>
