<?xml version="1.0" encoding="UTF-8"?>
<svg version="1.1" xmlns="http://www.w3.org/2000/svg" width="540" height="306">
<path d="M0 0 C3.95502609 1.57157195 6.67306199 4.21002011 9.7890625 7.05859375 C11.13174838 8.25510144 12.47550445 9.45040925 13.8203125 10.64453125 C14.47644531 11.23073242 15.13257813 11.81693359 15.80859375 12.42089844 C18.24937771 14.57521144 20.75803231 16.63643698 23.2890625 18.68359375 C27.29145496 21.92588794 31.23993235 25.22262362 35.1640625 28.55859375 C40.93936006 33.46419944 46.78398747 38.27888364 52.6640625 43.05859375 C59.7156265 48.79056683 66.69666988 54.59612874 73.62109375 60.48046875 C74.62527344 61.33125 75.62945312 62.18203125 76.6640625 63.05859375 C77.16212402 63.55681641 77.66018555 64.05503906 78.17333984 64.56835938 C79.82464715 66.23371432 79.82464715 66.23371432 82.6640625 68.05859375 C86.96187654 67.02526187 90.60467428 65.13808677 94.4375 62.9765625 C95.51 62.37392578 96.5825 61.77128906 97.6875 61.15039062 C98.79351562 60.52197266 99.89953125 59.89355469 101.0390625 59.24609375 C102.68648438 58.32086914 102.68648438 58.32086914 104.3671875 57.37695312 C109.71110966 54.36218649 114.93325225 51.35888155 119.86962891 47.7043457 C121.6640625 47.05859375 121.6640625 47.05859375 123.98193359 47.67456055 C127.18289422 49.32632149 130.13770171 51.24204583 133.1015625 53.27734375 C134.44220961 54.18433136 135.78338837 55.09053345 137.125 55.99609375 C137.85170898 56.48787109 138.57841797 56.97964844 139.32714844 57.48632812 C143.60594661 60.36508494 147.91801507 63.19339364 152.2265625 66.02734375 C154.1146067 67.27079786 156.00262721 68.51428793 157.890625 69.7578125 C159.81507172 71.02478887 161.73955104 72.29171572 163.6640625 73.55859375 C185.60740613 88.00357915 185.60740613 88.00357915 195.12844849 94.36572266 C199.26357962 97.12818704 203.40775336 99.87667064 207.55609131 102.6192627 C210.74639523 104.72912951 213.93410588 106.84289554 217.12158203 108.95703125 C218.75725064 110.04064931 220.39400125 111.12263561 222.03173828 112.203125 C224.43027154 113.78609084 226.82487116 115.37485088 229.21875 116.96484375 C229.95398895 117.44812134 230.68922791 117.93139893 231.44674683 118.42932129 C236.5501926 121.83085394 236.5501926 121.83085394 237.6640625 124.05859375 C233.89158282 123.61319747 230.12148907 123.1500689 226.3515625 122.68359375 C225.27970703 122.55726562 224.20785156 122.4309375 223.10351562 122.30078125 C222.07548828 122.171875 221.04746094 122.04296875 219.98828125 121.91015625 C219.04041748 121.79494629 218.09255371 121.67973633 217.1159668 121.56103516 C214.6640625 121.05859375 214.6640625 121.05859375 211.6640625 119.05859375 C211.73625 120.1465625 211.8084375 121.23453125 211.8828125 122.35546875 C212.43171444 130.93536378 212.81323785 139.45614877 212.6640625 148.05859375 C210.8046875 147.90234375 210.8046875 147.90234375 208.6640625 147.05859375 C207.4609375 144.65234375 207.4609375 144.65234375 206.4140625 141.55859375 C203.05807474 132.93770777 198.08472565 126.53558392 189.5234375 122.71484375 C180.64399218 119.58092187 170.35737397 119.75843534 161.8359375 123.82421875 C152.76592959 128.97911533 148.12792649 137.20694023 145.03515625 147.06274414 C143.36367489 153.61659269 143.29687721 160.13872164 143.2890625 166.87109375 C143.26457031 167.97001953 143.24007813 169.06894531 143.21484375 170.20117188 C143.17444866 181.62624875 146.1116893 192.26784065 153.6640625 201.05859375 C161.54295565 208.65431315 169.99474749 210.56881337 180.7109375 210.47827148 C190.90404273 210.10514816 197.67068668 206.25384021 204.6640625 199.05859375 C207.06590276 196.44630654 209.39584503 193.78754289 211.6640625 191.05859375 C212.9840625 191.71859375 214.3040625 192.37859375 215.6640625 193.05859375 C207.92531753 205.16067365 200.21753211 214.52817093 185.6640625 218.05859375 C172.54438362 220.59388305 158.28610611 219.6383483 146.71484375 212.48828125 C135.58550754 204.72954401 128.58761535 193.99268139 125.078125 180.8671875 C122.55757184 163.77022784 125.00632532 147.55429343 134.6640625 133.05859375 C142.7160891 123.11358645 154.21593876 115.31423633 167.17700195 113.7565918 C169.8054467 113.62216427 172.4074261 113.59202419 175.0390625 113.62109375 C175.96154785 113.6250415 176.8840332 113.62898926 177.83447266 113.63305664 C183.8968575 113.76089412 188.9129465 114.58510359 194.48828125 117.1015625 C197.54125949 118.44443444 200.36089049 118.76497846 203.6640625 119.05859375 C204.3240625 117.73859375 204.9840625 116.41859375 205.6640625 115.05859375 C205.19323242 114.76315674 204.72240234 114.46771973 204.23730469 114.16333008 C192.42665657 106.74538928 180.69759292 99.21126012 169.01611328 91.59179688 C162.57779438 87.39492718 156.12437351 83.22151472 149.6640625 79.05859375 C148.63893555 78.39794922 147.61380859 77.73730469 146.55761719 77.05664062 C143.72398687 75.23144758 140.88854899 73.40908646 138.05209351 71.58828735 C136.38067761 70.5147934 134.71046933 69.43941996 133.0402832 68.36401367 C132.01249756 67.70506104 130.98471191 67.0461084 129.92578125 66.3671875 C129.00756592 65.77736084 128.08935059 65.18753418 127.14331055 64.57983398 C126.32515869 64.07782471 125.50700684 63.57581543 124.6640625 63.05859375 C123.75092285 62.35633667 123.75092285 62.35633667 122.81933594 61.63989258 C119.1226519 60.64285988 116.15290803 62.78110872 112.91796875 64.44921875 C112.1582074 64.82509628 111.39844604 65.20097382 110.61566162 65.58824158 C108.14527015 66.8141772 105.68631449 68.06146988 103.2265625 69.30859375 C101.54344054 70.14670509 99.85943744 70.98304922 98.17456055 71.81762695 C94.85176941 73.46535432 91.53257126 75.1199364 88.21679688 76.78173828 C82.49185288 79.64882093 76.74470672 82.46679673 70.9765625 85.24609375 C70.13617432 85.66084961 69.29578613 86.07560547 68.42993164 86.50292969 C66.53641923 87.41629723 64.60393156 88.2483237 62.6640625 89.05859375 C62.0040625 88.72859375 61.3440625 88.39859375 60.6640625 88.05859375 C65.33072917 83.39192708 69.99739583 78.72526042 74.6640625 74.05859375 C73.60832031 73.30578125 72.55257813 72.55296875 71.46484375 71.77734375 C62.04384071 65.03110746 52.76119285 58.12979831 43.56469727 51.08081055 C36.96267622 46.02743414 30.298782 41.06698553 23.58007812 36.16992188 C19.61017546 33.26716126 15.69431208 30.31658577 11.83984375 27.26171875 C10.67630371 26.34555786 10.67630371 26.34555786 9.48925781 25.41088867 C8.01510457 24.24483154 6.5491118 23.06835909 5.09277344 21.88012695 C4.43696289 21.36281006 3.78115234 20.84549316 3.10546875 20.3125 C2.53513916 19.85174072 1.96480957 19.39098145 1.37719727 18.91625977 C-0.31556141 17.87713942 -0.31556141 17.87713942 -2.32006836 18.26245117 C-4.50486099 19.12530799 -6.14179314 20.14814699 -8.03125 21.54296875 C-8.73765625 22.05923828 -9.4440625 22.57550781 -10.171875 23.10742188 C-10.92726563 23.66880859 -11.68265625 24.23019531 -12.4609375 24.80859375 C-14.08842174 26.00146572 -15.71602931 27.19416944 -17.34375 28.38671875 C-18.58946777 29.30420898 -18.58946777 29.30420898 -19.86035156 30.24023438 C-23.66817953 33.03714786 -27.5023947 35.79709339 -31.3359375 38.55859375 C-32.83608365 39.6417247 -34.3360832 40.72505871 -35.8359375 41.80859375 C-44.8359375 48.30859375 -44.8359375 48.30859375 -47.08959961 49.93603516 C-48.57765056 51.01087339 -50.06544694 52.08606418 -51.55297852 53.16162109 C-55.48369835 56.00299096 -59.41968246 58.83668229 -63.36328125 61.66015625 C-64.18505859 62.24990234 -65.00683594 62.83964844 -65.85351562 63.44726562 C-67.43002198 64.5784312 -69.00807314 65.70744785 -70.58789062 66.83398438 C-71.65233398 67.5987207 -71.65233398 67.5987207 -72.73828125 68.37890625 C-73.36210693 68.82508301 -73.98593262 69.27125977 -74.62866211 69.73095703 C-76.34200834 71.06331465 -77.83669012 72.49189029 -79.3359375 74.05859375 C-78.33691406 74.68507813 -77.33789062 75.3115625 -76.30859375 75.95703125 C-75.00504743 76.78229798 -73.70167076 77.60783273 -72.3984375 78.43359375 C-71.73908203 78.84609375 -71.07972656 79.25859375 -70.40039062 79.68359375 C-65.44921875 82.83203125 -65.44921875 82.83203125 -64.3359375 85.05859375 C-71.71147779 83.00066023 -78.76113838 80.40917755 -85.85546875 77.5390625 C-88.03289307 76.67304815 -90.21063691 75.80783681 -92.38867188 74.94335938 C-95.78675683 73.59039301 -99.1824439 72.23233555 -102.57299805 70.8605957 C-105.86951707 69.52951439 -109.17397136 68.22012243 -112.48046875 66.9140625 C-113.49510696 66.49754929 -114.50974518 66.08103607 -115.55513 65.65190125 C-116.50349228 65.28103897 -117.45185455 64.9101767 -118.42895508 64.52807617 C-119.25816971 64.1951506 -120.08738434 63.86222504 -120.94172668 63.51921082 C-124.76465487 62.78372589 -127.26683439 64.40875154 -130.47875977 66.36108398 C-131.19604248 66.85809814 -131.9133252 67.3551123 -132.65234375 67.8671875 C-133.48427246 68.43945068 -134.31620117 69.01171387 -135.17333984 69.60131836 C-136.07262207 70.22659424 -136.9719043 70.85187012 -137.8984375 71.49609375 C-139.88121222 72.86111033 -141.86430032 74.2256718 -143.84765625 75.58984375 C-145.42619385 76.67845703 -145.42619385 76.67845703 -147.03662109 77.7890625 C-152.74253518 81.71904246 -158.47758655 85.60630819 -164.2109375 89.49609375 C-164.7941275 89.89203735 -165.3773175 90.28798096 -165.97817993 90.69592285 C-178.04898968 98.88974034 -190.18019345 106.99132386 -202.3359375 115.05859375 C-201.28921875 115.10628906 -200.2425 115.15398437 -199.1640625 115.203125 C-194.55226053 116.23372156 -192.82133106 118.14470041 -190.0859375 121.74609375 C-189.62123047 122.32552734 -189.15652344 122.90496094 -188.67773438 123.50195312 C-187.21104637 125.33975465 -185.77222552 127.19697349 -184.3359375 129.05859375 C-183.41524674 130.23270044 -182.49339074 131.40589442 -181.5703125 132.578125 C-180.19701618 134.32415218 -178.82583189 136.07158488 -177.46191406 137.82495117 C-174.34688516 141.82043448 -171.13127302 145.71091506 -167.8359375 149.55859375 C-163.57262972 154.53649005 -159.49733703 159.63351736 -155.47631836 164.80834961 C-151.3723955 170.06633997 -147.08411029 175.1533621 -142.74609375 180.21875 C-140.55901093 182.79575034 -138.4411645 185.41476214 -136.3359375 188.05859375 C-136.28498949 180.40888328 -136.2501001 172.75921702 -136.22607422 165.109375 C-136.21605204 162.51007451 -136.20243071 159.9107852 -136.18505859 157.31152344 C-136.16064372 153.56312289 -136.14941621 149.81487216 -136.140625 146.06640625 C-136.13030243 144.91496124 -136.11997986 143.76351624 -136.10934448 142.57717896 C-136.06412667 132.6518435 -136.06412667 132.6518435 -138.3359375 123.05859375 C-141.19072076 121.15540491 -142.75535058 120.59668385 -146.0234375 119.93359375 C-146.83167969 119.76601562 -147.63992187 119.5984375 -148.47265625 119.42578125 C-149.39498047 119.24402344 -149.39498047 119.24402344 -150.3359375 119.05859375 C-150.3359375 118.06859375 -150.3359375 117.07859375 -150.3359375 116.05859375 C-138.4559375 116.05859375 -126.5759375 116.05859375 -114.3359375 116.05859375 C-114.3359375 117.04859375 -114.3359375 118.03859375 -114.3359375 119.05859375 C-115.10679687 119.21714844 -115.87765625 119.37570313 -116.671875 119.5390625 C-117.67476562 119.77238281 -118.67765625 120.00570312 -119.7109375 120.24609375 C-120.70867187 120.46652344 -121.70640625 120.68695313 -122.734375 120.9140625 C-125.45542678 121.80199847 -125.45542678 121.80199847 -126.47860718 124.07255554 C-127.63062617 128.08497952 -127.64400786 131.82414738 -127.65478516 135.97973633 C-127.66483078 136.86804138 -127.6748764 137.75634644 -127.68522644 138.67156982 C-127.71604151 141.59874849 -127.73308899 144.52583575 -127.75 147.453125 C-127.76871299 149.4862293 -127.7882865 151.51932585 -127.8086853 153.55241394 C-127.85999863 158.89691596 -127.89962873 164.24144316 -127.93682861 169.58605957 C-127.97687319 175.04246241 -128.02796349 180.49876058 -128.078125 185.95507812 C-128.17487488 196.65617647 -128.25928276 207.35733392 -128.3359375 218.05859375 C-133.40106092 217.30869373 -135.37594909 215.27799307 -138.4609375 211.37109375 C-138.93539307 210.79093506 -139.40984863 210.21077637 -139.89868164 209.61303711 C-143.71343733 204.92245428 -147.42383973 200.14598457 -151.13256836 195.37133789 C-154.96331181 190.46338911 -158.98524548 185.74050405 -163.05957031 181.03417969 C-166.61142936 176.92553019 -170.04473993 172.74085183 -173.4140625 168.48046875 C-177.81414927 162.93564396 -182.33567167 157.48704149 -186.8359375 152.0234375 C-188.0425 150.55583984 -188.0425 150.55583984 -189.2734375 149.05859375 C-190.36978516 147.72828125 -190.36978516 147.72828125 -191.48828125 146.37109375 C-193.3359375 144.05859375 -193.3359375 144.05859375 -195.3359375 141.05859375 C-195.40540924 149.74245625 -195.4587342 158.42622329 -195.49137402 167.11030293 C-195.50703852 171.14256408 -195.5282908 175.17463528 -195.56225586 179.20678711 C-195.59482179 183.09713295 -195.61278461 186.98729595 -195.62056923 190.87776756 C-195.62611776 192.36296658 -195.63695261 193.84815545 -195.65312767 195.33327675 C-195.67486601 197.41161447 -195.67790606 199.48919407 -195.67651367 201.56762695 C-195.68317551 202.75121292 -195.68983734 203.93479889 -195.69670105 205.1542511 C-195.57728327 208.04718847 -195.57728327 208.04718847 -193.96968079 209.91862488 C-191.76261818 211.4586359 -189.79092033 211.79996028 -187.1484375 212.24609375 C-186.24738281 212.40464844 -185.34632813 212.56320313 -184.41796875 212.7265625 C-183.73089844 212.83613281 -183.04382813 212.94570312 -182.3359375 213.05859375 C-182.3359375 214.37859375 -182.3359375 215.69859375 -182.3359375 217.05859375 C-194.2159375 217.05859375 -206.0959375 217.05859375 -218.3359375 217.05859375 C-218.3359375 215.73859375 -218.3359375 214.41859375 -218.3359375 213.05859375 C-217.30533203 212.92904297 -217.30533203 212.92904297 -216.25390625 212.796875 C-215.35285156 212.65636719 -214.45179688 212.51585937 -213.5234375 212.37109375 C-212.63011719 212.24347656 -211.73679688 212.11585938 -210.81640625 211.984375 C-207.41078309 210.7132999 -206.87626667 209.32314952 -205.3359375 206.05859375 C-205.02746608 203.47132105 -204.87507948 201.11994073 -204.8684082 198.53369141 C-204.84847557 197.42292488 -204.84847557 197.42292488 -204.82814026 196.28971863 C-204.78956345 193.85058781 -204.77386784 191.41205348 -204.76171875 188.97265625 C-204.7469906 187.27021151 -204.73211099 185.56776808 -204.71708679 183.86532593 C-204.69012546 180.29950169 -204.67655425 176.73388545 -204.67016602 173.16796875 C-204.65929496 168.60872898 -204.59757441 164.05170177 -204.5234499 159.49311256 C-204.47497471 155.97735227 -204.46263589 152.46212226 -204.46010399 148.94605637 C-204.45289206 147.26591513 -204.4324896 145.58577477 -204.39840126 143.9059639 C-203.99043461 134.80734569 -203.99043461 134.80734569 -206.96591187 126.46600342 C-210.62696679 123.02110597 -214.22302988 121.08308003 -219.3359375 121.05859375 C-222.53413714 121.27523508 -222.53413714 121.27523508 -225.828125 121.8359375 C-227.02695313 122.01962891 -228.22578125 122.20332031 -229.4609375 122.39257812 C-230.6984375 122.59173828 -231.9359375 122.79089844 -233.2109375 122.99609375 C-234.47164062 123.19138672 -235.73234375 123.38667969 -237.03125 123.58789062 C-240.1342171 124.06979082 -243.23557025 124.56028641 -246.3359375 125.05859375 C-246.3359375 124.39859375 -246.3359375 123.73859375 -246.3359375 123.05859375 C-244.57389164 121.72514844 -242.73924475 120.48762051 -240.8828125 119.2890625 C-240.2932074 118.90533981 -239.70360229 118.52161713 -239.09613037 118.12626648 C-237.79271023 117.27910204 -236.48719334 116.43515751 -235.17993164 115.59393311 C-233.04476139 114.21958996 -230.91526099 112.83684371 -228.78710938 111.45166016 C-225.65445986 109.41293553 -222.52007765 107.3769125 -219.38476562 105.34228516 C-211.4392077 100.18030785 -203.52396033 94.97221481 -195.61099243 89.76046753 C-192.82879959 87.92889473 -190.04466119 86.10030444 -187.26049805 84.27172852 C-177.71448756 77.99195189 -168.22424807 71.64176577 -158.80859375 65.16796875 C-156.95576423 63.89854909 -155.10290026 62.62917969 -153.25 61.35986328 C-149.74203217 58.95558365 -146.2485294 56.5319962 -142.76171875 54.09716797 C-141.18406741 53.01330761 -139.60596773 51.93009947 -138.02734375 50.84765625 C-137.31796158 50.3440155 -136.60857941 49.84037476 -135.87770081 49.32147217 C-131.06560781 46.05465912 -131.06560781 46.05465912 -127.70996094 46.07275391 C-124.90638469 47.23697037 -122.30343685 48.54606817 -119.66015625 50.04296875 C-118.04657227 50.95175781 -118.04657227 50.95175781 -116.40039062 51.87890625 C-115.28599609 52.51570313 -114.17160156 53.1525 -113.0234375 53.80859375 C-111.92064453 54.42992187 -110.81785156 55.05125 -109.68164062 55.69140625 C-104.94161229 58.37412079 -100.29147653 61.06477042 -95.79296875 64.13671875 C-94.65214844 64.7709375 -93.51132813 65.40515625 -92.3359375 66.05859375 C-89.32964469 64.98473118 -86.9024065 63.11594664 -84.3515625 61.22265625 C-83.58972656 60.65933594 -82.82789063 60.09601562 -82.04296875 59.515625 C-81.23214844 58.91105469 -80.42132813 58.30648437 -79.5859375 57.68359375 C-78.73902344 57.05582031 -77.89210937 56.42804687 -77.01953125 55.78125 C-71.1251744 51.40687723 -65.25112656 47.00540481 -59.38647461 42.59130859 C-54.33429714 38.79296986 -49.2449797 35.0471067 -44.1484375 31.30859375 C-37.15330093 26.17432445 -30.22995413 20.95274558 -23.3359375 15.68359375 C-21.57555916 14.34369965 -19.81514396 13.00385397 -18.0546875 11.6640625 C-15.26730494 9.54094722 -12.49426723 7.40299467 -9.7421875 5.234375 C-8.783125 4.49574219 -7.8240625 3.75710937 -6.8359375 2.99609375 C-6.0625 2.38636719 -5.2890625 1.77664062 -4.4921875 1.1484375 C-2.3359375 0.05859375 -2.3359375 0.05859375 0 0 Z " fill="#221E1F" transform="translate(274.3359375,-0.05859375)"/>
<path d="M0 0 C9.57 0 19.14 0 29 0 C32.06287643 5.51317757 34.63971548 10.30449584 37 16 C38.27581104 18.77809195 39.59574467 21.53483816 40.9140625 24.29296875 C41.67928451 25.90067555 42.44441801 27.50842449 43.20947266 29.11621094 C43.60483215 29.94600464 44.00019165 30.77579834 44.40753174 31.6307373 C55.63717033 55.21371022 55.63717033 55.21371022 60.625 66.25 C60.98416504 67.03914795 61.34333008 67.8282959 61.71337891 68.64135742 C64 73.75072828 64 73.75072828 64 76 C64.66 76 65.32 76 66 76 C66.09192627 75.3385498 66.18385254 74.67709961 66.27856445 73.99560547 C67.21302458 70.11546139 68.8471631 66.66209587 70.54296875 63.0703125 C70.90357391 62.29478027 71.26417908 61.51924805 71.63571167 60.72021484 C72.81489489 58.18623408 74.00124369 55.65567616 75.1875 53.125 C76.82805982 49.60534627 78.46484205 46.08394045 80.1015625 42.5625 C80.51360428 41.6772464 80.92564606 40.7919928 81.35017395 39.87991333 C85.94021763 30.00545111 90.40355041 20.07465945 94.84643555 10.13330078 C95.65141479 8.33868408 95.65141479 8.33868408 96.47265625 6.5078125 C97.17273804 4.93990967 97.17273804 4.93990967 97.88696289 3.34033203 C99 1 99 1 100 0 C102.14558827 -0.08775605 104.29404421 -0.10695219 106.44140625 -0.09765625 C107.74658203 -0.09443359 109.05175781 -0.09121094 110.39648438 -0.08789062 C111.7851569 -0.07953401 113.17382877 -0.07106905 114.5625 -0.0625 C115.95507656 -0.05748666 117.34765481 -0.05292347 118.74023438 -0.04882812 C122.1601987 -0.03699434 125.58007844 -0.0205088 129 0 C129 0.99 129 1.98 129 3 C128.22914063 3.15855469 127.45828125 3.31710938 126.6640625 3.48046875 C125.66117187 3.71378906 124.65828125 3.94710937 123.625 4.1875 C122.62726563 4.40792969 121.62953125 4.62835938 120.6015625 4.85546875 C117.86339361 5.74471281 117.86339361 5.74471281 116.85357666 8.09350586 C115.80923853 11.64955746 115.72008611 14.97744619 115.74121094 18.6484375 C115.7377063 19.40191467 115.73420166 20.15539185 115.73059082 20.93170166 C115.72181577 23.41289588 115.72760764 25.89380307 115.734375 28.375 C115.73302713 30.1046555 115.73108559 31.83431064 115.72857666 33.56396484 C115.72563113 37.18525812 115.72990469 40.8064526 115.73925781 44.42773438 C115.75065201 49.0647671 115.74408949 53.70156829 115.73211288 58.33859253 C115.72487888 61.90911599 115.72718929 65.47958474 115.73236847 69.05010986 C115.7337007 70.75970487 115.73207219 72.46930488 115.72740936 74.17889404 C115.72231881 76.569917 115.73008973 78.96056723 115.74121094 81.3515625 C115.73716248 82.0550885 115.73311401 82.7586145 115.72894287 83.48345947 C115.76276415 87.41723691 116.17953404 90.49024527 118 94 C121.26095954 96.41552558 125.0516319 96.54441907 129 97 C129 98.32 129 99.64 129 101 C114.81 101 100.62 101 86 101 C86 99.68 86 98.36 86 97 C86.68707031 96.91363281 87.37414062 96.82726562 88.08203125 96.73828125 C88.98308594 96.59777344 89.88414062 96.45726562 90.8125 96.3125 C91.70582031 96.18488281 92.59914063 96.05726563 93.51953125 95.92578125 C96.90838368 94.66096546 97.45824245 93.23612566 99 90 C99.43181845 86.75037924 99.43181845 86.75037924 99.34057617 83.19018555 C99.34101425 82.52621262 99.34145233 81.86223969 99.34190369 81.17814636 C99.33982423 78.99736471 99.31653461 76.81736504 99.29296875 74.63671875 C99.28736976 73.1192924 99.28310109 71.6018606 99.28010559 70.08442688 C99.26868058 66.100951 99.23923395 62.11780606 99.20599365 58.13446045 C99.17524197 54.06559729 99.16158939 49.99668038 99.14648438 45.92773438 C99.11436167 37.95167147 99.06319409 29.97587697 99 22 C90.32234909 40.768753 81.65019385 59.54005738 73.04492188 78.34213257 C72.35131453 79.85747419 71.65730758 81.37263297 70.96289062 82.88760376 C69.99484645 85.00002197 69.02841695 87.11317092 68.0625 89.2265625 C67.51722656 90.41846191 66.97195312 91.61036133 66.41015625 92.83837891 C65.20613739 95.53783254 64.07228983 98.2461059 63 101 C61.68 101 60.36 101 59 101 C49.04706279 79.99438623 39.25425006 58.92436428 29.69067383 37.73852539 C27.46977956 32.8214523 25.23388921 27.91117889 23 23 C22.93053234 31.94463131 22.87720535 40.88916996 22.84456348 49.83401203 C22.82889811 53.98733857 22.80764418 58.14048075 22.77368164 62.29370117 C22.7411189 66.30075585 22.72315355 70.30763304 22.71536827 74.3148098 C22.70981918 75.84466535 22.69898324 77.37451103 22.68280983 78.90429115 C22.66107585 81.04488855 22.65803128 83.18474973 22.65942383 85.32543945 C22.65276199 86.54455521 22.64610016 87.76367096 22.63923645 89.01972961 C22.751397 91.97928281 22.751397 91.97928281 24.36625671 93.87150574 C26.57464162 95.3969288 28.55178432 95.74250904 31.1875 96.1875 C32.53908203 96.42533203 32.53908203 96.42533203 33.91796875 96.66796875 C34.94857422 96.83232422 34.94857422 96.83232422 36 97 C36 98.32 36 99.64 36 101 C24.12 101 12.24 101 0 101 C0 99.68 0 98.36 0 97 C0.68707031 96.91363281 1.37414062 96.82726562 2.08203125 96.73828125 C2.98308594 96.59777344 3.88414062 96.45726562 4.8125 96.3125 C5.70582031 96.18488281 6.59914062 96.05726563 7.51953125 95.92578125 C10.93161431 94.65229513 11.46618604 93.27759707 13 90 C13.28419169 87.33916619 13.41081533 84.91651811 13.38818359 82.25976562 C13.39344055 81.49653488 13.39869751 80.73330414 13.40411377 79.94694519 C13.41727845 77.43316972 13.40858848 74.92003151 13.3984375 72.40625 C13.40045926 70.65417357 13.40337154 68.90209797 13.40713501 67.15002441 C13.41155357 63.48160779 13.40514243 59.81341061 13.39111328 56.14501953 C13.37402162 51.44735496 13.38386531 46.75020461 13.40183067 42.0525589 C13.41268119 38.4356907 13.40921636 34.81894404 13.4014473 31.20207214 C13.39944879 29.4701481 13.40189227 27.73821296 13.40888596 26.00630188 C13.41652139 23.58398289 13.40486755 21.16249185 13.38818359 18.74023438 C13.39425629 18.02735764 13.40032898 17.3144809 13.40658569 16.58000183 C13.35123019 12.23265067 12.68859085 9.44840228 10 6 C7.76162201 4.98325288 7.76162201 4.98325288 5.3125 4.6875 C4.50425781 4.54699219 3.69601563 4.40648438 2.86328125 4.26171875 C2.24839844 4.17535156 1.63351563 4.08898437 1 4 C0.67 2.68 0.34 1.36 0 0 Z M98 6 C98 6.33 98 6.66 98 7 C100.64 7 103.28 7 106 7 C106 6.67 106 6.34 106 6 C103.36 6 100.72 6 98 6 Z " fill="#00652E" transform="translate(163,116)"/>
<path d="M0 0 C7.16749132 -0.07669331 14.33487501 -0.12886725 21.50268555 -0.16479492 C23.935994 -0.17978847 26.36927587 -0.2001901 28.80249023 -0.22631836 C32.32021692 -0.26311919 35.83758323 -0.2798213 39.35546875 -0.29296875 C40.96097847 -0.31619453 40.96097847 -0.31619453 42.59892273 -0.33988953 C53.15429399 -0.34218909 63.92088309 0.72228128 72.12109375 7.92578125 C76.81099412 13.10319726 79.24615902 18.50095586 79.5625 25.5 C79.1348718 33.26309656 76.95991697 39.59100895 71.1875 44.9375 C66.39814201 48.7190415 62.23569268 51 56 51 C59.00961829 56.51036393 62.42061168 61.55988272 66.125 66.625 C66.69758545 67.4089917 67.2701709 68.1929834 67.86010742 69.00073242 C69.02128486 70.58621422 70.18458875 72.17014101 71.35009766 73.75244141 C72.84437434 75.78800092 74.32031552 77.83550404 75.79296875 79.88671875 C82.70918106 89.38384302 88.76980709 93.80251452 100 97 C100 98.32 100 99.64 100 101 C77.18530622 103.02887984 77.18530622 103.02887984 70.93310547 99.99804688 C67.73776619 97.29500388 65.88803992 93.69974403 64.06201172 90.01074219 C62.11663777 86.32750084 59.57164793 83.04913252 57.125 79.6875 C56.10795734 78.25583445 55.09364878 76.82222284 54.08203125 75.38671875 C53.57494629 74.66919434 53.06786133 73.95166992 52.54541016 73.21240234 C50.96873953 70.95524765 49.42809817 68.67588886 47.88671875 66.39453125 C46.86310069 64.92890357 45.83839852 63.46403233 44.8125 62 C44.36213379 61.31123779 43.91176758 60.62247559 43.44775391 59.9128418 C41.94619875 57.68982929 41.94619875 57.68982929 39 55 C36.03 54.67 33.06 54.34 30 54 C30.495 73.8 30.495 73.8 31 94 C35.57427092 95.52475697 39.29284832 96.4351418 44 97 C44 98.32 44 99.64 44 101 C29.48 101 14.96 101 0 101 C0 99.68 0 98.36 0 97 C1.03060547 96.83564453 1.03060547 96.83564453 2.08203125 96.66796875 C2.98308594 96.50941406 3.88414062 96.35085937 4.8125 96.1875 C5.70582031 96.03667969 6.59914063 95.88585937 7.51953125 95.73046875 C10.28991633 94.91462306 11.19149962 94.20164139 13 92 C14.42567318 84.09838766 14.1637355 76.04193817 14.16796875 68.03515625 C14.17118991 66.59223906 14.1745546 65.14932218 14.17805481 63.70640564 C14.18401126 60.69496911 14.18589823 57.68356114 14.18530273 54.67211914 C14.1852011 50.83833597 14.19887046 47.00473792 14.21607494 43.17099857 C14.22726156 40.19477009 14.22921994 37.21858552 14.22869301 34.24233818 C14.22986244 32.82993365 14.234225 31.41752759 14.24202538 30.00514412 C14.53469114 18.31108771 14.53469114 18.31108771 12 7 C9.14521674 5.09681116 7.58058692 4.5380901 4.3125 3.875 C3.50425781 3.70742187 2.69601562 3.53984375 1.86328125 3.3671875 C1.24839844 3.24601562 0.63351562 3.12484375 0 3 C0 2.01 0 1.02 0 0 Z M30 8 C29.91131701 10.95705321 29.88479704 13.89065056 29.90234375 16.84765625 C29.9037587 17.7340831 29.90517365 18.62050995 29.90663147 19.53379822 C29.91224785 22.37673254 29.92480309 25.21958931 29.9375 28.0625 C29.94251289 29.98502491 29.94707616 31.90755104 29.95117188 33.83007812 C29.96222259 38.55341549 29.97949817 43.27669458 30 48 C43.55601266 48.35532397 43.55601266 48.35532397 55.20703125 42.05859375 C60.66191596 36.02600231 61.4256536 31.36625877 61.3359375 23.30078125 C60.7516091 17.559415 58.49996125 14.16844465 54.203125 10.44140625 C48.93506115 6.72215317 35.44471946 2.55528054 30 8 Z " fill="#00642D" transform="translate(296,116)"/>
<path d="M0 0 C26.09843222 -2.24734283 26.09843222 -2.24734283 31.921875 2.40234375 C34.35423755 5.02922852 36.16458853 7.99748477 37.89892578 11.11816406 C39.77622051 14.32663142 42.16126194 17.1207446 44.5 20 C45.41822837 21.17586547 46.33490076 22.35294769 47.25 23.53125 C49.91761808 26.92640028 52.69165605 30.22093931 55.5 33.5 C59.76330778 38.4778963 63.83860047 43.57492361 67.85961914 48.74975586 C71.963542 54.00774622 76.25182721 59.09476835 80.58984375 64.16015625 C82.77692657 66.73715659 84.894773 69.35616839 87 72 C87.05094801 64.35028953 87.0858374 56.70062327 87.10986328 49.05078125 C87.11988546 46.45148076 87.13350679 43.85219145 87.15087891 41.25292969 C87.17529378 37.50452914 87.18652129 33.75627841 87.1953125 30.0078125 C87.20563507 28.85636749 87.21595764 27.70492249 87.22659302 26.51858521 C87.27181083 16.59324975 87.27181083 16.59324975 85 7 C82.14521674 5.09681116 80.58058692 4.5380901 77.3125 3.875 C76.50425781 3.70742187 75.69601563 3.53984375 74.86328125 3.3671875 C74.24839844 3.24601562 73.63351563 3.12484375 73 3 C73 2.01 73 1.02 73 0 C84.88 0 96.76 0 109 0 C109 0.99 109 1.98 109 3 C107.84371094 3.23783203 107.84371094 3.23783203 106.6640625 3.48046875 C105.66117187 3.71378906 104.65828125 3.94710937 103.625 4.1875 C102.62726563 4.40792969 101.62953125 4.62835938 100.6015625 4.85546875 C97.88051072 5.74340472 97.88051072 5.74340472 96.85733032 8.01396179 C95.70531133 12.02638577 95.69192964 15.76555363 95.68115234 19.92114258 C95.67110672 20.80944763 95.6610611 21.69775269 95.65071106 22.61297607 C95.61989599 25.54015474 95.60284851 28.467242 95.5859375 31.39453125 C95.56722451 33.42763555 95.547651 35.4607321 95.5272522 37.49382019 C95.47593887 42.83832221 95.43630877 48.18284941 95.39910889 53.52746582 C95.35906431 58.98386866 95.30797401 64.44016683 95.2578125 69.89648438 C95.16106262 80.59758272 95.07665474 91.29874017 95 102 C89.93487658 101.25009998 87.95998841 99.21939932 84.875 95.3125 C84.40054443 94.73234131 83.92608887 94.15218262 83.43725586 93.55444336 C79.62250017 88.86386053 75.91209777 84.08739082 72.20336914 79.31274414 C68.37262569 74.40479536 64.35069202 69.6819103 60.27636719 64.97558594 C56.72450814 60.86693644 53.29119757 56.68225808 49.921875 52.421875 C45.52178823 46.87705021 41.00026583 41.42844774 36.5 35.96484375 C35.695625 34.98644531 34.89125 34.00804687 34.0625 33 C32.96615234 31.6696875 32.96615234 31.6696875 31.84765625 30.3125 C30 28 30 28 28 25 C27.93052826 33.6838625 27.8772033 42.36762954 27.84456348 51.05170918 C27.82889898 55.08397033 27.8076467 59.11604153 27.77368164 63.14819336 C27.74111571 67.0385392 27.72315289 70.9287022 27.71536827 74.81917381 C27.70981974 76.30437283 27.69898489 77.7895617 27.68280983 79.274683 C27.66107149 81.35302072 27.65803144 83.43060032 27.65942383 85.5090332 C27.65276199 86.69261917 27.64610016 87.87620514 27.63923645 89.09565735 C27.75865423 91.98859472 27.75865423 91.98859472 29.36625671 93.86003113 C31.57331932 95.40004215 33.54501717 95.74136653 36.1875 96.1875 C37.53908203 96.42533203 37.53908203 96.42533203 38.91796875 96.66796875 C39.94857422 96.83232422 39.94857422 96.83232422 41 97 C41 98.32 41 99.64 41 101 C29.12 101 17.24 101 5 101 C5 99.68 5 98.36 5 97 C5.68707031 96.91363281 6.37414063 96.82726562 7.08203125 96.73828125 C7.98308594 96.59777344 8.88414063 96.45726562 9.8125 96.3125 C10.70582031 96.18488281 11.59914063 96.05726563 12.51953125 95.92578125 C15.92515441 94.65470615 16.45967083 93.26455577 18 90 C18.30847142 87.4127273 18.46085802 85.06134698 18.4675293 82.47509766 C18.48081772 81.73458664 18.49410614 80.99407562 18.50779724 80.23112488 C18.54637405 77.79199406 18.56206966 75.35345973 18.57421875 72.9140625 C18.5889469 71.21161776 18.60382651 69.50917433 18.61885071 67.80673218 C18.64581204 64.24090794 18.65938325 60.6752917 18.66577148 57.109375 C18.67664254 52.55013523 18.73836309 47.99310802 18.8124876 43.43451881 C18.86096279 39.91875852 18.87330161 36.40352851 18.87583351 32.88746262 C18.88304544 31.20732138 18.9034479 29.52718102 18.93753624 27.84737015 C19.37931303 18.7100373 19.37931303 18.7100373 16.26345825 10.4193573 C12.76329503 7.26906019 9.1166071 5.15253223 4.5 4.0625 C3.6440625 3.84722656 2.788125 3.63195312 1.90625 3.41015625 C0.96265625 3.20712891 0.96265625 3.20712891 0 3 C0 2.01 0 1.02 0 0 Z " fill="#00642D" transform="translate(51,116)"/>
<path d="M0 0 C1.38372803 0.00592163 1.38372803 0.00592163 2.79541016 0.01196289 C9.76636278 0.15895933 15.27386639 1.56628227 21.625 4.4375 C24.23227397 5.27537632 25.82854818 5.49457045 28.625 5.4375 C30.9139924 3.076538 30.9139924 3.076538 32.625 0.4375 C33.615 0.4375 34.605 0.4375 35.625 0.4375 C38.01276806 24.22627436 38.01276806 24.22627436 37.625 34.4375 C35.765625 34.28125 35.765625 34.28125 33.625 33.4375 C32.421875 31.03125 32.421875 31.03125 31.375 27.9375 C28.01901224 19.31661402 23.04566315 12.91449017 14.484375 9.09375 C5.60492968 5.95982812 -4.68168853 6.13734159 -13.203125 10.203125 C-22.27313291 15.35802158 -26.91113601 23.58584648 -30.00390625 33.44165039 C-31.67538761 39.99549894 -31.74218529 46.51762789 -31.75 53.25 C-31.77449219 54.34892578 -31.79898437 55.44785156 -31.82421875 56.58007812 C-31.86461384 68.005155 -28.9273732 78.6467469 -21.375 87.4375 C-13.49610685 95.0332194 -5.04431501 96.94771962 5.671875 96.85717773 C15.86498023 96.48405441 22.63162418 92.63274646 29.625 85.4375 C32.02684026 82.82521279 34.35678253 80.16644914 36.625 77.4375 C38.605 78.4275 38.605 78.4275 40.625 79.4375 C32.88625503 91.5395799 25.17846961 100.90707718 10.625 104.4375 C-2.49467888 106.9727893 -16.75295639 106.01725455 -28.32421875 98.8671875 C-39.45355496 91.10845026 -46.45144715 80.37158764 -49.9609375 67.24609375 C-52.48149066 50.14913409 -50.03273718 33.93319968 -40.375 19.4375 C-30.11098751 6.76048287 -16.25152598 -0.1795175 0 0 Z " fill="#00642D" transform="translate(449.375,113.5625)"/>
<path d="M0 0 C1.98 0 3.96 0 6 0 C6 1.32 6 2.64 6 4 C7.32 4 8.64 4 10 4 C10.33 4.66 10.66 5.32 11 6 C11.66 5.34 12.32 4.68 13 4 C16.2578125 3.8046875 16.2578125 3.8046875 20.125 3.875 C22.04699219 3.90207031 22.04699219 3.90207031 24.0078125 3.9296875 C25.48894531 3.96449219 25.48894531 3.96449219 27 4 C27.13548815 6.73083902 27.23429855 9.45491807 27.3125 12.1875 C27.35439453 12.95642578 27.39628906 13.72535156 27.43945312 14.51757812 C27.53054758 18.76257993 27.37341271 20.49448682 24.76953125 24.01953125 C21.93130807 26.04912103 20.79136629 26.64088108 17.375 26.5 C16.61960938 26.4896875 15.86421875 26.479375 15.0859375 26.46875 C12.56976916 25.90331891 11.6296563 24.95143557 10 23 C10.66 22.01 11.32 21.02 12 20 C15.625 19.8125 15.625 19.8125 19 20 C17.865625 19.690625 16.73125 19.38125 15.5625 19.0625 C12 18 12 18 11 17 C10.67 17.99 10.34 18.98 10 20 C6.92755388 20.96562592 5.29482754 21.09172412 2.1875 20.125 C0 18 0 18 -0.3125 15.79296875 C-0.3125 13.50818111 -0.21453472 11.274068 0 9 C-1.98 9.66 -3.96 10.32 -6 11 C-6.33 13.97 -6.66 16.94 -7 20 C-8.98 20 -10.96 20 -13 20 C-13 14.72 -13 9.44 -13 4 C-8.71 4 -4.42 4 0 4 C0 2.68 0 1.36 0 0 Z M6 9 C6 10.98 6 12.96 6 15 C7.32 15.33 8.64 15.66 10 16 C10 13.69 10 11.38 10 9 C8.68 9 7.36 9 6 9 Z M16 9 C16 10.65 16 12.3 16 14 C17.32 14 18.64 14 20 14 C20.33 12.68 20.66 11.36 21 10 C19.35 9.67 17.7 9.34 16 9 Z " fill="#221E1F" transform="translate(166,243)"/>
<path d="M0 0 C10.546875 -0.48828125 10.546875 -0.48828125 14 0 C16.23178205 2.23542875 17.59733799 4.19467597 19 7 C19 6.01 19 5.02 19 4 C19.3062434 2.66018514 19.63451555 1.32488113 20 0 C21.76949095 -0.10815225 23.54087487 -0.18566083 25.3125 -0.25 C26.29863281 -0.29640625 27.28476562 -0.3428125 28.30078125 -0.390625 C31 0 31 0 32.84375 1.625 C34.32383583 4.66517629 34.29727318 6.88362244 34.1875 10.25 C34.14689453 11.86648438 34.14689453 11.86648438 34.10546875 13.515625 C34.07066406 14.33546875 34.03585937 15.1553125 34 16 C24.02321685 17.45021541 24.02321685 17.45021541 19.875 15.625 C18.89434155 14.77509601 17.91761315 13.91761315 17 13 C16.67 13.495 16.34 13.99 16 14.5 C12.82427253 16.88179561 9.89753934 16.19168226 6 16 C6 17.98 6 19.96 6 22 C4.02 22 2.04 22 0 22 C0 14.74 0 7.48 0 0 Z M7 5 C6.67 6.65 6.34 8.3 6 10 C7.94603274 10.59070014 7.94603274 10.59070014 10 11 C11.29633621 9.93354885 11.29633621 9.93354885 11.0625 7.4375 C11.041875 6.633125 11.02125 5.82875 11 5 C9.68 5 8.36 5 7 5 Z M25 4 C23.02 4.99 23.02 4.99 21 6 C22.98 6 24.96 6 27 6 C26.34 5.34 25.68 4.68 25 4 Z M24 10 C24 10.66 24 11.32 24 12 C25.32 11.67 26.64 11.34 28 11 C26.68 10.67 25.36 10.34 24 10 Z " fill="#221E1F" transform="translate(470,247)"/>
<path d="M0 0 C0.66 0.495 1.32 0.99 2 1.5 C0.25 5.375 0.25 5.375 -2 6.5 C-2.99 5.84 -3.98 5.18 -5 4.5 C-7.62531524 4.33286431 -7.62531524 4.33286431 -10 4.5 C-10.79953138 7.78696233 -11.09658936 9.21023192 -10 12.5 C-6.35019258 13.43852191 -3.53327105 13.98769307 0 12.5 C1.74570339 9.09336492 1.74570339 9.09336492 3 5.5 C5.49040942 3.00959058 6.43154357 3.17608986 9.875 3.125 C13.17617932 3.21086883 14.72014362 3.34008207 17.625 5 C19.58535075 8.56427409 19.76550426 11.5258928 19 15.5 C17.625 18 17.625 18 15 19.5 C10.80478211 20.04356644 6.68486245 20.37785338 2.86328125 18.38671875 C2.24839844 18.09410156 1.63351562 17.80148437 1 17.5 C0.071875 17.974375 -0.85625 18.44875 -1.8125 18.9375 C-5.81978595 20.90185586 -7.73390217 20.66348123 -12 19.5 C-15.35211493 17.31383809 -16.72686604 16.31940188 -18 12.5 C-18.3686858 7.52274174 -18.16456308 4.45570385 -15 0.5 C-10.60126938 -2.92123492 -4.70151767 -2.35075884 0 0 Z M8 8.5 C6.98888907 11.54913228 6.98888907 11.54913228 8 14.5 C9.65 14.17 11.3 13.84 13 13.5 C12.67 11.85 12.34 10.2 12 8.5 C10.68 8.5 9.36 8.5 8 8.5 Z " fill="#221E1F" transform="translate(420,243.5)"/>
<path d="M0 0 C0.99 0 1.98 0 3 0 C3 6.6 3 13.2 3 20 C1.68 19.67 0.36 19.34 -1 19 C-1.495 19.495 -1.495 19.495 -2 20 C-4.8125 20.375 -4.8125 20.375 -8 20 C-8.5775 19.195625 -9.155 18.39125 -9.75 17.5625 C-12.43361595 14.50615961 -13.33057022 14.55081793 -17.25 14.1875 C-18.83230623 14.10289692 -20.41578262 14.03325647 -22 14 C-22 14.66 -22 15.32 -22 16 C-19.36 15.67 -16.72 15.34 -14 15 C-14 16.32 -14 17.64 -14 19 C-16.80915474 20.40457737 -18.88810534 20.24895157 -22 20 C-24.375 18.5 -24.375 18.5 -26 17 C-26.37125 17.495 -26.7425 17.99 -27.125 18.5 C-29.77545942 20.62036754 -31.69560641 20.28122499 -35 20 C-35.66 19.67 -36.32 19.34 -37 19 C-37 17.68 -37 16.36 -37 15 C-34.69 15.66 -32.38 16.32 -30 17 C-30.33 16.34 -30.66 15.68 -31 15 C-31.825 14.731875 -32.65 14.46375 -33.5 14.1875 C-34.325 13.795625 -35.15 13.40375 -36 13 C-36.8125 10.375 -36.8125 10.375 -37 8 C-32.69230769 4.92307692 -32.69230769 4.92307692 -29.1875 5.3125 C-28.465625 5.539375 -27.74375 5.76625 -27 6 C-27 6.99 -27 7.98 -27 9 C-28.65 9 -30.3 9 -32 9 C-29.22739701 10.93798263 -29.22739701 10.93798263 -27 12 C-26.505 11.01 -26.01 10.02 -25.5 9 C-23 6 -23 6 -20.953125 5.6015625 C-18.75 5.625 -18.75 5.625 -15 6 C-14.34 7.32 -13.68 8.64 -13 10 C-12.34 10 -11.68 10 -11 10 C-10.6596875 9.0409375 -10.6596875 9.0409375 -10.3125 8.0625 C-9 6 -9 6 -6.5625 5.1875 C-4 5 -4 5 -1 6 C-0.67 4.02 -0.34 2.04 0 0 Z M-21 9 C-21.33 9.66 -21.66 10.32 -22 11 C-20.02 11 -18.04 11 -16 11 C-16 10.34 -16 9.68 -16 9 C-17.65 9 -19.3 9 -21 9 Z M-8 10 C-8.2500773 12.45809998 -8.2500773 12.45809998 -8 15 C-7.34 15.66 -6.68 16.32 -6 17 C-3.21762345 16.59471099 -3.21762345 16.59471099 -1 15 C-0.83333333 12.5 -0.83333333 12.5 -1 10 C-2.0595877 8.71677453 -2.0595877 8.71677453 -4.5 8.875 C-6.9404123 8.71677453 -6.9404123 8.71677453 -8 10 Z " fill="#353233" transform="translate(137,281)"/>
<path d="M0 0 C5.94 0 11.88 0 18 0 C18 7.26 18 14.52 18 22 C12.06 22 6.12 22 0 22 C0 14.74 0 7.48 0 0 Z " fill="#221F1F" transform="translate(251,71)"/>
<path d="M0 0 C0.99 0.66 1.98 1.32 3 2 C3.99 1.34 4.98 0.68 6 0 C9.06554124 -0.53632858 11.9344591 -0.5422798 15 0 C17.97534329 2.5399272 18.90364743 3.91603362 19.25 7.8125 C19.1675 8.534375 19.085 9.25625 19 10 C18.01 10.495 18.01 10.495 17 11 C17 12.32 17 13.64 17 15 C14.67404054 16.16297973 13.21276769 16.16600691 10.625 16.1875 C9.46871094 16.20876953 9.46871094 16.20876953 8.2890625 16.23046875 C5.78165112 15.97801607 4.16738098 15.25193467 2 14 C1.34 14.66 0.68 15.32 0 16 C-2.27734375 16.30078125 -2.27734375 16.30078125 -4.9375 16.3125 C-6.25041016 16.33763672 -6.25041016 16.33763672 -7.58984375 16.36328125 C-10 16 -10 16 -11.7890625 14.7578125 C-14.05665225 11.46614995 -13.59297304 7.81984955 -13 4 C-10.16268201 -1.05782772 -5.25276169 -0.83192911 0 0 Z M9 4 C8.67 4.66 8.34 5.32 8 6 C9.32 5.67 10.64 5.34 12 5 C11.01 4.67 10.02 4.34 9 4 Z M-6 5 C-6.33 6.65 -6.66 8.3 -7 10 C-3.92677456 10.91058531 -1.19902639 11.08886184 2 11 C2 9.02 2 7.04 2 5 C-0.64 5 -3.28 5 -6 5 Z M9 10 C9.33 10.66 9.66 11.32 10 12 C11.32 11.34 12.64 10.68 14 10 C12.35 10 10.7 10 9 10 Z " fill="#221E1F" transform="translate(377,247)"/>
<path d="M0 0 C1.670625 0.061875 1.670625 0.061875 3.375 0.125 C3.375 3.755 3.375 7.385 3.375 11.125 C2.055 11.125 0.735 11.125 -0.625 11.125 C-0.625 14.755 -0.625 18.385 -0.625 22.125 C-2.605 22.125 -4.585 22.125 -6.625 22.125 C-6.625 18.495 -6.625 14.865 -6.625 11.125 C-7.285 11.125 -7.945 11.125 -8.625 11.125 C-8.625 12.775 -8.625 14.425 -8.625 16.125 C-9.285 16.455 -9.945 16.785 -10.625 17.125 C-10.295 18.445 -9.965 19.765 -9.625 21.125 C-12.07882134 22.35191067 -13.82484103 22.32675931 -16.5625 22.375 C-17.43777344 22.40078125 -18.31304687 22.4265625 -19.21484375 22.453125 C-21.625 22.125 -21.625 22.125 -23.390625 20.7890625 C-25.24483525 18.28939932 -25.44034905 16.20251585 -25.625 13.125 C-24.69917343 9.99143316 -23.94031305 8.44031305 -21.625 6.125 C-19.3125 5.859375 -19.3125 5.859375 -16.625 5.875 C-15.738125 5.86984375 -14.85125 5.8646875 -13.9375 5.859375 C-11.625 6.125 -11.625 6.125 -9.625 8.125 C-9.295 7.465 -8.965 6.805 -8.625 6.125 C-7.965 6.125 -7.305 6.125 -6.625 6.125 C-6.50125 5.50625 -6.3775 4.8875 -6.25 4.25 C-5.11036127 0.37522833 -3.99644789 0.13780855 0 0 Z M-17.625 10.125 C-17.955 10.785 -18.285 11.445 -18.625 12.125 C-17.305 11.795 -15.985 11.465 -14.625 11.125 C-15.615 10.795 -16.605 10.465 -17.625 10.125 Z M-18.625 16.125 C-17.14 17.115 -17.14 17.115 -15.625 18.125 C-14.965 17.465 -14.305 16.805 -13.625 16.125 C-15.275 16.125 -16.925 16.125 -18.625 16.125 Z " fill="#221E1F" transform="translate(297.625,240.875)"/>
<path d="M0 0 C0 7.59 0 15.18 0 23 C-5.94 23 -11.88 23 -18 23 C-18.103125 20.48375 -18.20625 17.9675 -18.3125 15.375 C-18.35802002 14.59431152 -18.40354004 13.81362305 -18.45043945 13.00927734 C-18.5277166 9.08160426 -18.15656396 6.66123706 -15.66796875 3.5390625 C-10.46304025 -1.41438336 -8.12454464 0 0 0 Z " fill="#221E1F" transform="translate(269,45)"/>
<path d="M0 0 C2.31 0 4.62 0 7 0 C7.67154933 1.28913487 8.33708859 2.58140204 9 3.875 C9.37125 4.59429687 9.7425 5.31359375 10.125 6.0546875 C11 8 11 8 11 10 C11.66 10 12.32 10 13 10 C13.20496094 9.36191406 13.40992187 8.72382813 13.62109375 8.06640625 C13.89050781 7.24011719 14.15992187 6.41382813 14.4375 5.5625 C14.83775391 4.32693359 14.83775391 4.32693359 15.24609375 3.06640625 C16 1 16 1 17 0 C19.31 0 21.62 0 24 0 C24 6.93 24 13.86 24 21 C22.02 21 20.04 21 18 21 C17.67 18.69 17.34 16.38 17 14 C16.608125 14.825 16.21625 15.65 15.8125 16.5 C15.214375 17.325 14.61625 18.15 14 19 C11.3125 19.3125 11.3125 19.3125 9 19 C8.01 17.02 7.02 15.04 6 13 C5.67 15.64 5.34 18.28 5 21 C3.35 21 1.7 21 0 21 C0 14.07 0 7.14 0 0 Z " fill="#221E1F" transform="translate(109,242)"/>
<path d="M0 0 C5.61 0 11.22 0 17 0 C17 7.26 17 14.52 17 22 C11.39 22 5.78 22 0 22 C0 14.74 0 7.48 0 0 Z " fill="#231F1F" transform="translate(272,71)"/>
<path d="M0 0 C10.94852941 0 10.94852941 0 15.62109375 4.59375 C17.60849982 8.06185804 17.31989441 11.37736584 17.1875 15.25 C17.0946875 19.08625 17.0946875 19.08625 17 23 C11.39 23 5.78 23 0 23 C0 15.41 0 7.82 0 0 Z " fill="#231F20" transform="translate(272,45)"/>
<path d="M0 0 C6 0 12 0 18 0 C19.155 -0.0825 20.31 -0.165 21.5 -0.25 C25 0 25 0 26.70703125 1.625 C28.3675 4.67504531 28.30005421 6.79833766 28.1875 10.25 C28.16042969 11.32765625 28.13335937 12.4053125 28.10546875 13.515625 C28.07066406 14.33546875 28.03585937 15.1553125 28 16 C26.02 16 24.04 16 22 16 C21.96261719 15.37351562 21.92523438 14.74703125 21.88671875 14.1015625 C21.82097656 13.28429687 21.75523437 12.46703125 21.6875 11.625 C21.62949219 10.81289063 21.57148438 10.00078125 21.51171875 9.1640625 C21.17009472 6.62078662 21.17009472 6.62078662 18 5 C17.67 8.63 17.34 12.26 17 16 C15.02 16 13.04 16 11 16 C10.67 12.7 10.34 9.4 10 6 C9.01 6.33 8.02 6.66 7 7 C6.67 9.97 6.34 12.94 6 16 C4.02 16 2.04 16 0 16 C0 10.72 0 5.44 0 0 Z " fill="#221E20" transform="translate(440,247)"/>
<path d="M0 0 C12.95917816 -0.60556907 12.95917816 -0.60556907 17.4375 2 C19.26994882 5.51830174 19.19641959 7.25054305 18.39453125 11.03515625 C17.68513246 14.56810269 18.02730356 17.59556247 19 21 C16.69 21 14.38 21 12 21 C11.34 19.35 10.68 17.7 10 16 C9.01 16 8.02 16 7 16 C7 17.65 7 19.3 7 21 C4.69 21 2.38 21 0 21 C0 14.07 0 7.14 0 0 Z M7 5 C7 6.98 7 8.96 7 11 C8.65 10.67 10.3 10.34 12 10 C12 8.68 12 7.36 12 6 C10.35 5.67 8.7 5.34 7 5 Z " fill="#221E1F" transform="translate(253,242)"/>
<path d="M0 0 C5 0 5 0 7.01953125 1.96875 C7.61121094 2.8040625 8.20289063 3.639375 8.8125 4.5 C9.41707031 5.3353125 10.02164062 6.170625 10.64453125 7.03125 C11.09183594 7.6809375 11.53914062 8.330625 12 9 C12.33 6.03 12.66 3.06 13 0 C14.98 0 16.96 0 19 0 C19 6.93 19 13.86 19 21 C13 21 13 21 10.8828125 19.03125 C10.01269531 17.77828125 10.01269531 17.77828125 9.125 16.5 C8.23167969 15.24703125 8.23167969 15.24703125 7.3203125 13.96875 C6.88460938 13.3190625 6.44890625 12.669375 6 12 C5.67 14.97 5.34 17.94 5 21 C3.35 21 1.7 21 0 21 C0 14.07 0 7.14 0 0 Z " fill="#221E1F" transform="translate(0,242)"/>
<path d="M0 0 C1.90845703 0.04060547 1.90845703 0.04060547 3.85546875 0.08203125 C5.31919922 0.13423828 5.31919922 0.13423828 6.8125 0.1875 C6.94798815 2.91833902 7.04679855 5.64241807 7.125 8.375 C7.16689453 9.14392578 7.20878906 9.91285156 7.25195312 10.70507812 C7.34304758 14.95007993 7.18591271 16.68198682 4.58203125 20.20703125 C1.74380807 22.23662103 0.60386629 22.82838108 -2.8125 22.6875 C-3.56789062 22.6771875 -4.32328125 22.666875 -5.1015625 22.65625 C-7.61773084 22.09081891 -8.5578437 21.13893557 -10.1875 19.1875 C-9.1975 17.7025 -9.1975 17.7025 -8.1875 16.1875 C-4.5625 16 -4.5625 16 -1.1875 16.1875 C-2.30125 15.89875 -3.415 15.61 -4.5625 15.3125 C-8.1875 14.1875 -8.1875 14.1875 -10.1875 12.1875 C-10.48828125 10.12890625 -10.48828125 10.12890625 -10.5 7.75 C-10.51675781 6.96753906 -10.53351563 6.18507812 -10.55078125 5.37890625 C-10.1875 3.1875 -10.1875 3.1875 -9.1171875 1.4140625 C-6.13047842 -0.48437201 -3.48669225 -0.09596401 0 0 Z M-4.1875 5.1875 C-4.5175 6.1775 -4.8475 7.1675 -5.1875 8.1875 C-4.1975 9.6725 -4.1975 9.6725 -3.1875 11.1875 C-1.8675 10.5275 -0.5475 9.8675 0.8125 9.1875 C0.4825 7.8675 0.1525 6.5475 -0.1875 5.1875 C-1.5075 5.1875 -2.8275 5.1875 -4.1875 5.1875 Z " fill="#221E1F" transform="translate(221.1875,246.8125)"/>
<path d="M0 0 C1.26457031 0.04640625 2.52914062 0.0928125 3.83203125 0.140625 C5.74048828 0.19476563 5.74048828 0.19476563 7.6875 0.25 C9.15123047 0.31960937 9.15123047 0.31960937 10.64453125 0.390625 C10.77963378 3.30883963 10.87866175 6.22080152 10.95703125 9.140625 C10.99892578 9.965625 11.04082031 10.790625 11.08398438 11.640625 C11.20723903 17.75405575 11.20723903 17.75405575 8.3828125 20.94921875 C4.36475076 23.06428977 2.14182165 22.75330971 -2.35546875 22.390625 C-3.34546875 22.060625 -4.33546875 21.730625 -5.35546875 21.390625 C-5.02546875 19.740625 -4.69546875 18.090625 -4.35546875 16.390625 C-1.71546875 16.390625 0.92453125 16.390625 3.64453125 16.390625 C2.55140625 16.308125 1.45828125 16.225625 0.33203125 16.140625 C-3.35546875 15.390625 -3.35546875 15.390625 -5.29296875 13.765625 C-6.77774175 10.44672064 -6.7408136 7.98717694 -6.35546875 4.390625 C-4.66654094 0.92678761 -3.89543718 0.45348512 0 0 Z M-0.35546875 5.390625 C-0.35546875 7.040625 -0.35546875 8.690625 -0.35546875 10.390625 C0.63453125 10.720625 1.62453125 11.050625 2.64453125 11.390625 C3.30453125 10.730625 3.96453125 10.070625 4.64453125 9.390625 C4.32601355 7.28241703 4.32601355 7.28241703 3.64453125 5.390625 C2.32453125 5.390625 1.00453125 5.390625 -0.35546875 5.390625 Z " fill="#221E1F" transform="translate(35.35546875,246.609375)"/>
<path d="M0 0 C2.31 0 4.62 0 7 0 C7.66 1.98 8.32 3.96 9 6 C11.10232344 3.1315587 11.10232344 3.1315587 12 0 C13.98 0 15.96 0 18 0 C17.4070053 4.77324126 15.99326822 8.87914819 14.0625 13.25 C13.66514648 14.18585938 13.66514648 14.18585938 13.25976562 15.140625 C12.07776118 17.86246154 11.11695677 19.88304323 9 22 C2.67741935 22.33870968 2.67741935 22.33870968 0 21 C0.66 19.35 1.32 17.7 2 16 C3.32 16.33 4.64 16.66 6 17 C5.65066406 16.10796875 5.30132813 15.2159375 4.94140625 14.296875 C4.48636719 13.12640625 4.03132812 11.9559375 3.5625 10.75 C3.11003906 9.58984375 2.65757812 8.4296875 2.19140625 7.234375 C1.29849367 4.81033692 0.54205635 2.51713525 0 0 Z " fill="#221E1F" transform="translate(522,247)"/>
<path d="M0 0 C1.31291016 -0.03867188 1.31291016 -0.03867188 2.65234375 -0.078125 C5.0625 0.25 5.0625 0.25 6.8671875 1.34765625 C8.66238538 4.20471954 8.34896088 6.60581713 8.25 9.9375 C8.22292969 11.11699219 8.19585937 12.29648437 8.16796875 13.51171875 C8.13316406 14.41535156 8.09835937 15.31898438 8.0625 16.25 C-1.68628049 17.66707317 -1.68628049 17.66707317 -6.125 16.1875 C-7.9375 14.25 -7.9375 14.25 -8.375 11.1875 C-7.9375 8.25 -7.9375 8.25 -5.9375 6.25 C-6.25791397 3.64719432 -6.25791397 3.64719432 -6.9375 1.25 C-4.48367866 0.02308933 -2.73765897 0.04824069 0 0 Z M-0.9375 4.25 C-1.9275 4.91 -2.9175 5.57 -3.9375 6.25 C-1.9575 6.25 0.0225 6.25 2.0625 6.25 C1.0725 5.59 0.0825 4.93 -0.9375 4.25 Z M-1.9375 10.25 C-1.9375 10.91 -1.9375 11.57 -1.9375 12.25 C-0.6175 11.92 0.7025 11.59 2.0625 11.25 C0.7425 10.92 -0.5775 10.59 -1.9375 10.25 Z " fill="#221E1F" transform="translate(335.9375,246.75)"/>
<path d="M0 0 C1.31291016 -0.03867188 1.31291016 -0.03867188 2.65234375 -0.078125 C5.0625 0.25 5.0625 0.25 6.8671875 1.34765625 C8.66238538 4.20471954 8.34896088 6.60581713 8.25 9.9375 C8.22292969 11.11699219 8.19585937 12.29648437 8.16796875 13.51171875 C8.13316406 14.41535156 8.09835938 15.31898438 8.0625 16.25 C-1.68628049 17.66707317 -1.68628049 17.66707317 -6.125 16.1875 C-7.9375 14.25 -7.9375 14.25 -8.375 11.1875 C-7.9375 8.25 -7.9375 8.25 -5.9375 6.25 C-6.25791397 3.64719432 -6.25791397 3.64719432 -6.9375 1.25 C-4.48367866 0.02308933 -2.73765897 0.04824069 0 0 Z M-0.9375 4.25 C-1.9275 4.91 -2.9175 5.57 -3.9375 6.25 C-1.9575 6.25 0.0225 6.25 2.0625 6.25 C1.0725 5.59 0.0825 4.93 -0.9375 4.25 Z M-1.9375 10.25 C-1.9375 10.91 -1.9375 11.57 -1.9375 12.25 C-0.6175 11.92 0.7025 11.59 2.0625 11.25 C0.7425 10.92 -0.5775 10.59 -1.9375 10.25 Z " fill="#221E1F" transform="translate(201.9375,246.75)"/>
<path d="M0 0 C0.9796875 -0.01417969 1.959375 -0.02835938 2.96875 -0.04296875 C5.5 0.1875 5.5 0.1875 7.5 2.1875 C7.6953125 5.4453125 7.6953125 5.4453125 7.625 9.3125 C7.60695313 10.59382813 7.58890625 11.87515625 7.5703125 13.1953125 C7.54710938 14.18273437 7.52390625 15.17015625 7.5 16.1875 C5.75181409 16.41054441 4.00129677 16.6153645 2.25 16.8125 C0.78820312 16.98652344 0.78820312 16.98652344 -0.703125 17.1640625 C-3.67234076 17.1889442 -5.09278964 16.89584283 -7.5 15.1875 C-8.46770678 12.00789201 -8.93852081 10.11935673 -7.5 7.0625 C-7.17 6.44375 -6.84 5.825 -6.5 5.1875 C-6.79805007 2.99002869 -6.79805007 2.99002869 -7.5 1.1875 C-4.89820337 -0.11339831 -2.9030812 0.01909922 0 0 Z M-4.5 5.1875 C-4.5 5.5175 -4.5 5.8475 -4.5 6.1875 C-2.52 6.1875 -0.54 6.1875 1.5 6.1875 C1.5 5.8575 1.5 5.5275 1.5 5.1875 C-0.48 5.1875 -2.46 5.1875 -4.5 5.1875 Z M-2.5 10.1875 C-2.17 10.8475 -1.84 11.5075 -1.5 12.1875 C-0.51 11.8575 0.48 11.5275 1.5 11.1875 C0.18 10.8575 -1.14 10.5275 -2.5 10.1875 Z " fill="#231E1F" transform="translate(92.5,246.8125)"/>
<path d="M0 0 C2.97534329 2.5399272 3.90364743 3.91603362 4.25 7.8125 C4.1675 8.534375 4.085 9.25625 4 10 C3.01 10.495 3.01 10.495 2 11 C2 12.32 2 13.64 2 15 C-1.46530209 16.73265104 -5.21107035 16.4643626 -9 16 C-11.5625 14.5 -11.5625 14.5 -13 12 C-13.77813307 8.00285328 -13.60389013 5.0502437 -11.5625 1.5 C-7.75809992 -0.7269659 -4.29456373 -0.91407228 0 0 Z M-6 4 C-6.33 4.66 -6.66 5.32 -7 6 C-5.68 5.67 -4.36 5.34 -3 5 C-3.99 4.67 -4.98 4.34 -6 4 Z M-6 10 C-5.67 10.66 -5.34 11.32 -5 12 C-3.68 11.34 -2.36 10.68 -1 10 C-2.65 10 -4.3 10 -6 10 Z " fill="#221D1E" transform="translate(242,247)"/>
<path d="M0 0 C2.3515625 0.484375 2.3515625 0.484375 4.9765625 2.609375 C6.59243608 5.98801976 6.96779445 7.78698332 6.3515625 11.484375 C4.9765625 14.359375 4.9765625 14.359375 2.3515625 16.484375 C-2.26439754 17.36616139 -6.19541166 17.34927133 -10.2734375 14.921875 C-12.19902589 11.50833194 -12.19062527 9.34746287 -11.6484375 5.484375 C-9.06719494 -0.03009775 -5.62279179 -0.29855532 0 0 Z M-4.6484375 5.484375 C-5.65954843 8.53350728 -5.65954843 8.53350728 -4.6484375 11.484375 C-3.3284375 11.484375 -2.0084375 11.484375 -0.6484375 11.484375 C0.36267343 8.43524272 0.36267343 8.43524272 -0.6484375 5.484375 C-1.9684375 5.484375 -3.2884375 5.484375 -4.6484375 5.484375 Z " fill="#221E1F" transform="translate(145.6484375,246.515625)"/>
<path d="M0 0 C2.12890625 0.41796875 2.12890625 0.41796875 4.69140625 2.04296875 C6.49141665 5.01689898 6.43959366 7.00040724 6.12890625 10.41796875 C5.13890625 10.91296875 5.13890625 10.91296875 4.12890625 11.41796875 C4.12890625 12.73796875 4.12890625 14.05796875 4.12890625 15.41796875 C2.47796503 17.06890997 0.58404688 16.70664568 -1.68359375 16.79296875 C-5.45690843 16.74978346 -6.47766674 16.73645728 -9.49609375 14.29296875 C-11.11196733 10.91432399 -11.4873257 9.11536043 -10.87109375 5.41796875 C-8.27912078 0.2340228 -5.4252745 -0.33070042 0 0 Z M-2.87109375 4.41796875 C-3.20109375 5.07796875 -3.53109375 5.73796875 -3.87109375 6.41796875 C-2.55109375 6.08796875 -1.23109375 5.75796875 0.12890625 5.41796875 C-0.86109375 5.08796875 -1.85109375 4.75796875 -2.87109375 4.41796875 Z M-3.87109375 10.41796875 C-2.38609375 11.40796875 -2.38609375 11.40796875 -0.87109375 12.41796875 C-0.21109375 11.75796875 0.44890625 11.09796875 1.12890625 10.41796875 C-0.52109375 10.41796875 -2.17109375 10.41796875 -3.87109375 10.41796875 Z " fill="#221E1F" transform="translate(57.87109375,246.58203125)"/>
<path d="M0 0 C13.34916271 -0.36740815 13.34916271 -0.36740815 15.9375 1.09375 C17.54184575 3.97213503 17.28435886 6.42658514 17.1875 9.6875 C17.16042969 10.86699219 17.13335937 12.04648437 17.10546875 13.26171875 C17.07066406 14.16535156 17.03585937 15.06898438 17 16 C15.02 16 13.04 16 11 16 C10.67 12.37 10.34 8.74 10 5 C6.82990528 6.62078662 6.82990528 6.62078662 6.48828125 9.1640625 C6.43027344 9.97617187 6.37226563 10.78828125 6.3125 11.625 C6.24675781 12.44226563 6.18101562 13.25953125 6.11328125 14.1015625 C6.07589844 14.72804688 6.03851563 15.35453125 6 16 C4.02 16 2.04 16 0 16 C0 10.72 0 5.44 0 0 Z " fill="#221E1F" transform="translate(346,247)"/>
<path d="M0 0 C2.43375 -0.061875 4.8675 -0.12375 7.375 -0.1875 C8.52234619 -0.22846802 8.52234619 -0.22846802 9.69287109 -0.27026367 C11.46407019 -0.2922324 13.23492083 -0.14874263 15 0 C17.42130331 3.63195496 17.21022785 5.38349348 17.125 9.6875 C17.10695313 10.86699219 17.08890625 12.04648437 17.0703125 13.26171875 C17.04710937 14.16535156 17.02390625 15.06898438 17 16 C15.02 16 13.04 16 11 16 C10.67 12.7 10.34 9.4 10 6 C9.01 6.33 8.02 6.66 7 7 C6.67 9.97 6.34 12.94 6 16 C4.02 16 2.04 16 0 16 C0 10.72 0 5.44 0 0 Z " fill="#221E1F" transform="translate(310,247)"/>
<path d="M0 0 C13.41311697 -0.49222448 13.41311697 -0.49222448 15.9375 1.625 C17.29386815 4.65688174 17.29544135 6.93979853 17.1875 10.25 C17.16042969 11.32765625 17.13335938 12.4053125 17.10546875 13.515625 C17.07066406 14.33546875 17.03585937 15.1553125 17 16 C15.02 16 13.04 16 11 16 C10.34 12.7 9.68 9.4 9 6 C8.34 6 7.68 6 7 6 C6.67 9.3 6.34 12.6 6 16 C4.02 16 2.04 16 0 16 C0 10.72 0 5.44 0 0 Z " fill="#231E20" transform="translate(506,247)"/>
<path d="M0 0 C2.95857409 -0.05379226 5.91617721 -0.09357093 8.875 -0.125 C9.71675781 -0.14175781 10.55851562 -0.15851563 11.42578125 -0.17578125 C12.23144531 -0.18222656 13.03710938 -0.18867188 13.8671875 -0.1953125 C14.98262939 -0.21102295 14.98262939 -0.21102295 16.12060547 -0.22705078 C18 0 18 0 20 2 C20.1953125 4.8203125 20.1953125 4.8203125 20.125 8.125 C20.10695313 9.22070312 20.08890625 10.31640625 20.0703125 11.4453125 C20.04710937 12.28835938 20.02390625 13.13140625 20 14 C18.37536158 14.05395478 16.75021459 14.09277195 15.125 14.125 C13.76761719 14.15980469 13.76761719 14.15980469 12.3828125 14.1953125 C10 14 10 14 8 12 C7.875 8.875 7.875 8.875 8 6 C10.64 5.34 13.28 4.68 16 4 C12.75136475 2.91712158 12.12655906 3.14730207 9 4 C7.68 4 6.36 4 5 4 C4.67 7.3 4.34 10.6 4 14 C2.68 14 1.36 14 0 14 C0 9.38 0 4.76 0 0 Z M11 8 C11.33 8.99 11.66 9.98 12 11 C13.97536745 10.65213292 13.97536745 10.65213292 16 10 C16.33 9.34 16.66 8.68 17 8 C15.02 8 13.04 8 11 8 Z " fill="#363334" transform="translate(287,287)"/>
<path d="M0 0 C10.625 -0.25 10.625 -0.25 14 2 C14.2578125 3.91015625 14.2578125 3.91015625 14.125 6.0625 C14.08375 7.361875 14.0425 8.66125 14 10 C14.33 10.33 14.66 10.66 15 11 C15.3125 13.375 15.3125 13.375 15 16 C12.73035733 18.258962 11.41170041 18.95687496 8.203125 19.29296875 C5.46875 19.1953125 2.734375 19.09765625 0 19 C0 12.73 0 6.46 0 0 Z M3 3 C3 4.65 3 6.3 3 8 C5.91634129 8.2502157 5.91634129 8.2502157 9 8 C9.66 7.01 10.32 6.02 11 5 C7.77208445 2.8480563 6.71599191 2.79913557 3 3 Z M3 11 C3 12.65 3 14.3 3 16 C7.25731568 16.40749675 7.25731568 16.40749675 10.875 14.5 C11.24625 14.005 11.6175 13.51 12 13 C10.04366025 10.58878141 10.04366025 10.58878141 6.375 10.875 C4.704375 10.936875 4.704375 10.936875 3 11 Z " fill="#363334" transform="translate(323,282)"/>
<path d="M0 0 C4.5532212 1.1383053 5.08509512 1.92387988 7.75 5.5625 C8.36359375 6.38878906 8.9771875 7.21507812 9.609375 8.06640625 C10.06828125 8.70449219 10.5271875 9.34257812 11 10 C11.33 6.7 11.66 3.4 12 0 C13.32 0 14.64 0 16 0 C16 6.27 16 12.54 16 19 C11 18 11 18 8.98046875 15.71484375 C8.38878906 14.79832031 7.79710937 13.88179688 7.1875 12.9375 C6.58292969 12.01839844 5.97835938 11.09929687 5.35546875 10.15234375 C4.90816406 9.44207031 4.46085937 8.73179687 4 8 C3.67 11.63 3.34 15.26 3 19 C2.01 19 1.02 19 0 19 C0 12.73 0 6.46 0 0 Z " fill="#363334" transform="translate(421,282)"/>
<path d="M0 0 C2.8203125 -0.29296875 2.8203125 -0.29296875 6.125 -0.1875 C7.76855469 -0.14689453 7.76855469 -0.14689453 9.4453125 -0.10546875 C10.28835938 -0.07066406 11.13140625 -0.03585937 12 0 C12.13536629 2.41854446 12.23420279 4.82949783 12.3125 7.25 C12.3753418 8.27287109 12.3753418 8.27287109 12.43945312 9.31640625 C12.53122193 13.09728086 12.3034167 14.66748854 9.71875 17.5 C6.10806701 19.49210096 3.93090351 18.92491847 0 18 C0 16.68 0 15.36 0 14 C0.969375 14.185625 1.93875 14.37125 2.9375 14.5625 C3.948125 14.706875 4.95875 14.85125 6 15 C6.33 14.67 6.66 14.34 7 14 C5.88625 13.71125 4.7725 13.4225 3.625 13.125 C0 12 0 12 -2 10 C-2.31537716 5.66356399 -2.44897847 3.67346771 0 0 Z M4 2 C2.35444301 3.22809091 2.35444301 3.22809091 1 5 C1.22757731 7.16299211 1.22757731 7.16299211 2 9 C3.65614657 9.38218767 5.32457024 9.71395102 7 10 C8.29633621 8.93354885 8.29633621 8.93354885 8.0625 6.4375 C8.041875 5.633125 8.02125 4.82875 8 4 C6.68 3.34 5.36 2.68 4 2 Z " fill="#363334" transform="translate(447,287)"/>
<path d="M0 0 C0.99 0 1.98 0 3 0 C3.33 1.98 3.66 3.96 4 6 C5.093125 5.938125 6.18625 5.87625 7.3125 5.8125 C11 6 11 6 12.9375 7 C14.60357028 10.13613229 14.88175521 13.5562946 14 17 C10 20 10 20 0 20 C0 13.4 0 6.8 0 0 Z M5 9 C4.34 9.66 3.68 10.32 3 11 C3.32041397 13.60280568 3.32041397 13.60280568 4 16 C5.84725052 16.69159401 5.84725052 16.69159401 8 17 C8.99 16.34 9.98 15.68 11 15 C10.67 13.35 10.34 11.7 10 10 C7.60280568 9.32041397 7.60280568 9.32041397 5 9 Z " fill="#363334" transform="translate(150,281)"/>
<path d="M0 0 C1.32 0 2.64 0 4 0 C4.33 2.97 4.66 5.94 5 9 C5.99 8.01 6.98 7.02 8 6 C10.6875 5.8125 10.6875 5.8125 13 6 C11.02 8.97 11.02 8.97 9 12 C9.66 12.94875 10.32 13.8975 11 14.875 C13 18 13 18 13 20 C11.68 20 10.36 20 9 20 C6.75 17.5 6.75 17.5 5 15 C4.67 16.65 4.34 18.3 4 20 C2.68 20 1.36 20 0 20 C0 13.4 0 6.8 0 0 Z " fill="#363434" transform="translate(370,281)"/>
<path d="M0 0 C0.99 0 1.98 0 3 0 C3.33 1.98 3.66 3.96 4 6 C6.64 6 9.28 6 12 6 C13.90608098 9.21182149 14.22266247 11.53882603 14.125 15.25 C14.10695312 16.14203125 14.08890625 17.0340625 14.0703125 17.953125 C14.03550781 18.96632813 14.03550781 18.96632813 14 20 C12.68 20 11.36 20 10 20 C9.67 16.7 9.34 13.4 9 10 C7.68 10 6.36 10 5 10 C4.34 13.3 3.68 16.6 3 20 C2.01 20 1.02 20 0 20 C0 13.4 0 6.8 0 0 Z " fill="#363434" transform="translate(194,281)"/>
<path d="M0 0 C0.33 1.32 0.66 2.64 1 4 C-0.2375 3.7525 -1.475 3.505 -2.75 3.25 C-5.99294466 2.84679196 -6.6898417 2.80331425 -9.5625 4.625 C-11.23761624 6.91182611 -11.23761624 6.91182611 -10.9375 9.625 C-10.13344454 12.32289761 -10.13344454 12.32289761 -7 14 C-4.93089407 14.02749478 -4.93089407 14.02749478 -2.8125 13.625 C-1.554375 13.41875 -0.29625 13.2125 1 13 C0.67 14.32 0.34 15.64 0 17 C-7.98524554 18.44395508 -7.98524554 18.44395508 -12 16.6875 C-14.21377241 14.81962953 -14.86794333 13.85084613 -15.30859375 11.01171875 C-15.56146517 6.45237043 -15.46398948 4.5948583 -12.5625 0.875 C-8.56114839 -1.93650125 -4.53555245 -1.01797955 0 0 Z " fill="#363334" transform="translate(245,283)"/>
<path d="M0 0 C1.45742463 -0.08096803 2.91612807 -0.13917774 4.375 -0.1875 C5.18710937 -0.22230469 5.99921875 -0.25710938 6.8359375 -0.29296875 C7.55007813 -0.19628906 8.26421875 -0.09960938 9 0 C11.28062828 3.42094242 11.21925007 4.68187222 11.125 8.6875 C11.10695313 9.68136719 11.08890625 10.67523438 11.0703125 11.69921875 C11.03550781 12.83810547 11.03550781 12.83810547 11 14 C9.39620659 14.05416188 7.79188594 14.09286638 6.1875 14.125 C5.29417969 14.14820313 4.40085937 14.17140625 3.48046875 14.1953125 C1 14 1 14 -2 12 C-2.3125 9.5 -2.3125 9.5 -2 7 C0 5 0 5 3.625 4.875 C5.295625 4.936875 5.295625 4.936875 7 5 C7 4.34 7 3.68 7 3 C4.69 3.33 2.38 3.66 0 4 C0 2.68 0 1.36 0 0 Z M2 8 C2 8.99 2 9.98 2 11 C3.65 10.67 5.3 10.34 7 10 C7 9.34 7 8.68 7 8 C5.35 8 3.7 8 2 8 Z " fill="#363334" transform="translate(341,287)"/>
<path d="M0 0 C2.97 0 5.94 0 9 0 C10.93395001 3.86790003 11.23289353 5.1500459 11.125 9.25 C11.10695313 10.14203125 11.08890625 11.0340625 11.0703125 11.953125 C11.03550781 12.96632813 11.03550781 12.96632813 11 14 C9.39620659 14.05416188 7.79188594 14.09286638 6.1875 14.125 C5.29417969 14.14820313 4.40085937 14.17140625 3.48046875 14.1953125 C1 14 1 14 -2 12 C-2.3125 9.5 -2.3125 9.5 -2 7 C0 5 0 5 3.625 4.875 C5.295625 4.936875 5.295625 4.936875 7 5 C7 4.34 7 3.68 7 3 C4.69 3.33 2.38 3.66 0 4 C0 2.68 0 1.36 0 0 Z M2 8 C2 8.99 2 9.98 2 11 C3.65 10.67 5.3 10.34 7 10 C7 9.34 7 8.68 7 8 C5.35 8 3.7 8 2 8 Z " fill="#363334" transform="translate(492,287)"/>
<path d="M0 0 C2 1.75 2 1.75 3 4 C3 5.32 3 6.64 3 8 C-0.3 8 -3.6 8 -7 8 C-6.67 8.66 -6.34 9.32 -6 10 C-2.535 9.505 -2.535 9.505 1 9 C1 10.32 1 11.64 1 13 C-1.84083641 14.42041821 -3.85477278 14.31452272 -7 14 C-9.375 12.4375 -9.375 12.4375 -11 10 C-11.42213381 6.56262469 -11.60856522 4.17909511 -10 1.0625 C-6.76574089 -0.65570015 -3.56837032 -0.67650354 0 0 Z M-7 3 C-7 3.66 -7 4.32 -7 5 C-5.02 5 -3.04 5 -1 5 C-1 4.34 -1 3.68 -1 3 C-2.98 3 -4.96 3 -7 3 Z " fill="#363435" transform="translate(220,287)"/>
<path d="M0 0 C2.45321644 2.83653151 3 4.25123496 3 8 C-0.3 8 -3.6 8 -7 8 C-6.67 8.66 -6.34 9.32 -6 10 C-2.535 9.505 -2.535 9.505 1 9 C1 10.32 1 11.64 1 13 C-1.84083641 14.42041821 -3.85477278 14.31452272 -7 14 C-9.375 12.4375 -9.375 12.4375 -11 10 C-11.42213381 6.56262469 -11.60856522 4.17909511 -10 1.0625 C-6.76290724 -0.65720553 -3.56240858 -0.80896361 0 0 Z M-7 3 C-7 3.66 -7 4.32 -7 5 C-5.02 5 -3.04 5 -1 5 C-1.33 4.34 -1.66 3.68 -2 3 C-3.65 3 -5.3 3 -7 3 Z " fill="#363334" transform="translate(81,287)"/>
<path d="M0 0 C0.7940625 -0.01675781 1.588125 -0.03351563 2.40625 -0.05078125 C3.0971875 0.06910156 3.788125 0.18898438 4.5 0.3125 C6.6519437 3.54041555 6.70086443 4.59650809 6.5 8.3125 C2.045 8.8075 2.045 8.8075 -2.5 9.3125 C0.26264289 9.90982819 2.66032769 10.3125 5.5 10.3125 C5.17 11.3025 4.84 12.2925 4.5 13.3125 C1.3125 14.125 1.3125 14.125 -2.5 14.3125 C-5.5 12.3125 -5.5 12.3125 -7.5 9.3125 C-7.39548701 3.1462336 -6.43403982 0.03133461 0 0 Z M-2.0625 3.8125 C-2.536875 4.3075 -3.01125 4.8025 -3.5 5.3125 C-1.19 5.3125 1.12 5.3125 3.5 5.3125 C2.52149805 4.29145449 1.52019573 3.2918879 0.5 2.3125 C-0.74076302 2.19707803 -0.74076302 2.19707803 -2.0625 3.8125 Z " fill="#373334" transform="translate(253.5,286.6875)"/>
<path d="M0 0 C0.7940625 -0.01675781 1.588125 -0.03351563 2.40625 -0.05078125 C3.0971875 0.06910156 3.788125 0.18898438 4.5 0.3125 C6.6519437 3.54041555 6.70086443 4.59650809 6.5 8.3125 C2.045 8.8075 2.045 8.8075 -2.5 9.3125 C0.26264289 9.90982819 2.66032769 10.3125 5.5 10.3125 C5.17 11.3025 4.84 12.2925 4.5 13.3125 C1.3125 14.125 1.3125 14.125 -2.5 14.3125 C-5.5 12.3125 -5.5 12.3125 -7.5 9.3125 C-7.39548701 3.1462336 -6.43403982 0.03133461 0 0 Z M-2.0625 3.8125 C-2.536875 4.3075 -3.01125 4.8025 -3.5 5.3125 C-1.19 5.3125 1.12 5.3125 3.5 5.3125 C2.52149805 4.29145449 1.52019573 3.2918879 0.5 2.3125 C-0.74076302 2.19707803 -0.74076302 2.19707803 -2.0625 3.8125 Z " fill="#373334" transform="translate(467.5,286.6875)"/>
<path d="M0 0 C9.1796875 -0.29296875 9.1796875 -0.29296875 12 0 C14.28062828 3.42094242 14.21925007 4.68187222 14.125 8.6875 C14.10695313 9.68136719 14.08890625 10.67523438 14.0703125 11.69921875 C14.03550781 12.83810547 14.03550781 12.83810547 14 14 C12.68 14 11.36 14 10 14 C9.67 10.7 9.34 7.4 9 4 C7.68 4 6.36 4 5 4 C4.67 7.3 4.34 10.6 4 14 C2.68 14 1.36 14 0 14 C0 9.38 0 4.76 0 0 Z " fill="#363435" transform="translate(85,287)"/>
<path d="M0 0 C3.96 0 7.92 0 12 0 C13.93395001 3.86790003 14.23289353 5.1500459 14.125 9.25 C14.10695313 10.14203125 14.08890625 11.0340625 14.0703125 11.953125 C14.03550781 12.96632813 14.03550781 12.96632813 14 14 C12.68 14 11.36 14 10 14 C9.67 10.7 9.34 7.4 9 4 C7.68 4 6.36 4 5 4 C4.67 7.3 4.34 10.6 4 14 C2.68 14 1.36 14 0 14 C0 9.38 0 4.76 0 0 Z " fill="#373334" transform="translate(354,287)"/>
<path d="M0 0 C3.63 0 7.26 0 11 0 C11 1.65 11 3.3 11 5 C10.03320312 5.35191406 10.03320312 5.35191406 9.046875 5.7109375 C6.7922092 6.81161073 6.7922092 6.81161073 6.390625 9.1640625 C6.34421875 9.97617187 6.2978125 10.78828125 6.25 11.625 C6.19328125 12.44226563 6.1365625 13.25953125 6.078125 14.1015625 C6.05234375 14.72804688 6.0265625 15.35453125 6 16 C4.02 16 2.04 16 0 16 C0 10.72 0 5.44 0 0 Z " fill="#221E1F" transform="translate(65,247)"/>
<path d="M0 0 C2 1.0625 2 1.0625 3 3 C3.50030235 6.93094707 3.5996142 9.1005787 1.375 12.4375 C-1.69817115 14.45932313 -3.38247881 14.52755517 -7 14 C-9.375 13 -9.375 13 -11 11 C-11.65964122 7.44238446 -11.63041883 4.26083766 -10 1 C-6.7413581 -0.62932095 -3.56102656 -0.52673518 0 0 Z M-6 3 C-6.66 3.66 -7.32 4.32 -8 5 C-7.67958603 7.60280568 -7.67958603 7.60280568 -7 10 C-5.16299211 10.77242269 -5.16299211 10.77242269 -3 11 C-1.08333333 9.91666667 -1.08333333 9.91666667 0 8 C-0.22757731 5.83700789 -0.22757731 5.83700789 -1 4 C-3.39719432 3.32041397 -3.39719432 3.32041397 -6 3 Z " fill="#363334" transform="translate(401,287)"/>
<path d="M0 0 C1.32 0 2.64 0 4 0 C4.99 2.31 5.98 4.62 7 7 C8.32 4.69 9.64 2.38 11 0 C11.99 0 12.98 0 14 0 C13.34362284 3.98988812 12.12232204 7.46151561 10.5625 11.1875 C10.13066406 12.23292969 9.69882813 13.27835937 9.25390625 14.35546875 C8 17 8 17 6 19 C2.875 18.625 2.875 18.625 0 18 C0.495 16.515 0.495 16.515 1 15 C2.32 14.67 3.64 14.34 5 14 C3.35 9.38 1.7 4.76 0 0 Z " fill="#363334" transform="translate(163,287)"/>
<path d="M0 0 C8.3984375 -0.1953125 8.3984375 -0.1953125 11 0 C13 2 13 2 13.1953125 4.8203125 C13.16050781 6.45613281 13.16050781 6.45613281 13.125 8.125 C13.10695313 9.22070312 13.08890625 10.31640625 13.0703125 11.4453125 C13.04710937 12.28835938 13.02390625 13.13140625 13 14 C12.01 14 11.02 14 10 14 C9.67 10.37 9.34 6.74 9 3 C7.35 3.66 5.7 4.32 4 5 C3.67 7.97 3.34 10.94 3 14 C2.01 14 1.02 14 0 14 C0 9.38 0 4.76 0 0 Z " fill="#363334" transform="translate(262,287)"/>
<path d="M0 0 C1.32 0 2.64 0 4 0 C4 5.28 4 10.56 4 16 C6.64 16 9.28 16 12 16 C12 16.99 12 17.98 12 19 C8.04 19 4.08 19 0 19 C0 12.73 0 6.46 0 0 Z " fill="#363435" transform="translate(39,282)"/>
<path d="M0 0 C1.32 0 2.64 0 4 0 C4 1.32 4 2.64 4 4 C5.32 4 6.64 4 8 4 C8 4.99 8 5.98 8 7 C6.68 7 5.36 7 4 7 C4 9.64 4 12.28 4 15 C4.99 14.67 5.98 14.34 7 14 C7 15.32 7 16.64 7 18 C4.625 18.125 4.625 18.125 2 18 C0 16 0 16 -0.1953125 13.8359375 C-0.17210937 13.02382813 -0.14890625 12.21171875 -0.125 11.375 C-0.10695313 10.55773437 -0.08890625 9.74046875 -0.0703125 8.8984375 C-0.04710937 8.27195312 -0.02390625 7.64546875 0 7 C-0.66 7 -1.32 7 -2 7 C-2 6.01 -2 5.02 -2 4 C-1.34 4 -0.68 4 0 4 C0 2.68 0 1.36 0 0 Z " fill="#363334" transform="translate(278,283)"/>
<path d="M0 0 C-0.33 0.99 -0.66 1.98 -1 3 C-1.99 2.67 -2.98 2.34 -4 2 C-4 2.99 -4 3.98 -4 5 C-3.01 5 -2.02 5 -1 5 C-1 5.99 -1 6.98 -1 8 C-1.99 8 -2.98 8 -4 8 C-4 11.63 -4 15.26 -4 19 C-5.32 19 -6.64 19 -8 19 C-8.22307542 16.7722603 -8.42788178 14.54268636 -8.625 12.3125 C-8.74101562 11.07113281 -8.85703125 9.82976562 -8.9765625 8.55078125 C-8.99968589 5.04758722 -8.66384653 3.0503853 -7 0 C-4.3333581 -1.33332095 -2.83319697 -0.67102033 0 0 Z " fill="#363334" transform="translate(414,282)"/>
<path d="M0 0 C0.66 0.33 1.32 0.66 2 1 C1.67 1.99 1.34 2.98 1 4 C-1.31 4 -3.62 4 -6 4 C-6.5534764 6.07553648 -7 7.84365964 -7 10 C-6.2575 10 -5.515 10 -4.75 10 C-2.5 10 -0.25 10 2 10 C1 13 1 13 -1 14 C-4.54231061 14.38503376 -6.36257342 14.41935959 -9.375 12.4375 C-11.5996142 9.1005787 -11.50030235 6.93094707 -11 3 C-8.75946291 -1.34104061 -4.26847229 -0.27101411 0 0 Z " fill="#373334" transform="translate(68,287)"/>
<path d="M0 0 C1.98 0 3.96 0 6 0 C6 5.28 6 10.56 6 16 C4.02 16 2.04 16 0 16 C0 10.72 0 5.44 0 0 Z " fill="#231F20" transform="translate(302,247)"/>
<path d="M0 0 C1.98 0 3.96 0 6 0 C6 5.28 6 10.56 6 16 C4.02 16 2.04 16 0 16 C0 10.72 0 5.44 0 0 Z " fill="#231E1F" transform="translate(77,247)"/>
<path d="M0 0 C1.98 0 3.96 0 6 0 C6 5.28 6 10.56 6 16 C4.02 16 2.04 16 0 16 C0 10.72 0 5.44 0 0 Z " fill="#231F1F" transform="translate(22,247)"/>
<path d="M0 0 C0.99 0 1.98 0 3 0 C3 1.32 3 2.64 3 4 C4.32 4 5.64 4 7 4 C7 4.99 7 5.98 7 7 C5.68 7 4.36 7 3 7 C3.33 9.31 3.66 11.62 4 14 C5.32 14.33 6.64 14.66 8 15 C7.67 15.99 7.34 16.98 7 18 C4.625 18.125 4.625 18.125 2 18 C0 16 0 16 -0.1953125 13.8359375 C-0.17210937 13.02382813 -0.14890625 12.21171875 -0.125 11.375 C-0.10695312 10.55773437 -0.08890625 9.74046875 -0.0703125 8.8984375 C-0.04710937 8.27195312 -0.02390625 7.64546875 0 7 C-0.66 7 -1.32 7 -2 7 C-2 6.01 -2 5.02 -2 4 C-1.34 4 -0.68 4 0 4 C0 2.68 0 1.36 0 0 Z " fill="#353233" transform="translate(185,283)"/>
<path d="M0 0 C1.32 0 2.64 0 4 0 C6.7956252 6.53891996 7.60606326 12.00819076 6 19 C4.94921875 21.29296875 4.94921875 21.29296875 4 23 C2.68 22.67 1.36 22.34 0 22 C0.48726563 20.93072266 0.48726563 20.93072266 0.984375 19.83984375 C3.26346073 13.46716942 2.66845048 6.17079173 0 0 Z " fill="#333031" transform="translate(503,281)"/>
<path d="M0 0 C0.99 0 1.98 0 3 0 C2.67 0.969375 2.34 1.93875 2 2.9375 C0.03157196 9.89729914 0.6964218 16.23323904 3 23 C1.125 22.75 1.125 22.75 -1 22 C-3.28076164 18.63087492 -3.29864882 15.55625584 -3.3125 11.5625 C-3.32925781 10.45003906 -3.34601562 9.33757812 -3.36328125 8.19140625 C-2.96246095 4.67022149 -2.20394566 2.76138391 0 0 Z " fill="#363334" transform="translate(35,281)"/>
<path d="M0 0 C2.64 0 5.28 0 8 0 C8.33 0.99 8.66 1.98 9 3 C7.68 3.33 6.36 3.66 5 4 C4.67 7.3 4.34 10.6 4 14 C2.68 14 1.36 14 0 14 C0 9.38 0 4.76 0 0 Z " fill="#302D2E" transform="translate(287,287)"/>
<path d="M0 0 C0.99 0 1.98 0 3 0 C3 6.6 3 13.2 3 20 C2.01 20 1.02 20 0 20 C0 13.4 0 6.8 0 0 Z " fill="#363335" transform="translate(310,281)"/>
<path d="M0 0 C2.64 0 5.28 0 8 0 C8 0.99 8 1.98 8 3 C7.35546875 3.23460937 6.7109375 3.46921875 6.046875 3.7109375 C3.7922092 4.81161073 3.7922092 4.81161073 3.390625 7.1640625 C3.34421875 7.97617187 3.2978125 8.78828125 3.25 9.625 C3.19328125 10.44226563 3.1365625 11.25953125 3.078125 12.1015625 C3.05234375 12.72804688 3.0265625 13.35453125 3 14 C2.01 14 1.02 14 0 14 C0 9.38 0 4.76 0 0 Z " fill="#373334" transform="translate(476,287)"/>
<path d="M0 0 C0.99 0 1.98 0 3 0 C3 4.62 3 9.24 3 14 C2.01 14 1.02 14 0 14 C0 9.38 0 4.76 0 0 Z " fill="#373335" transform="translate(485,287)"/>
<path d="M0 0 C0.99 0 1.98 0 3 0 C3 4.62 3 9.24 3 14 C2.01 14 1.02 14 0 14 C0 9.38 0 4.76 0 0 Z " fill="#373434" transform="translate(440,287)"/>
<path d="M0 0 C0.99 0 1.98 0 3 0 C3 4.62 3 9.24 3 14 C2.01 14 1.02 14 0 14 C0 9.38 0 4.76 0 0 Z " fill="#363335" transform="translate(52,287)"/>
<path d="M0 0 C1.98 0 3.96 0 6 0 C6 1.65 6 3.3 6 5 C4.34385343 5.38218767 2.67542976 5.71395102 1 6 C0 5 0 5 -0.0625 2.4375 C-0.041875 1.633125 -0.02125 0.82875 0 0 Z " fill="#201D1D" transform="translate(77,240)"/>
<path d="M0 0 C1.65 0 3.3 0 5 0 C5.33 1.65 5.66 3.3 6 5 C4.35 5.33 2.7 5.66 1 6 C-0.0625 4.125 -0.0625 4.125 -1 2 C-0.67 1.34 -0.34 0.68 0 0 Z " fill="#211D1E" transform="translate(22,240)"/>
<path d="M0 0 C1.65 0 3.3 0 5 0 C5.33 1.65 5.66 3.3 6 5 C4.34385343 5.38218767 2.67542976 5.71395102 1 6 C0 5 0 5 -0.0625 2.4375 C-0.041875 1.633125 -0.02125 0.82875 0 0 Z " fill="#221E1F" transform="translate(302,240)"/>
<path d="M0 0 C0.99 0 1.98 0 3 0 C3 1.32 3 2.64 3 4 C1.68 3.67 0.36 3.34 -1 3 C-0.67 2.01 -0.34 1.02 0 0 Z " fill="#322F30" transform="translate(52,281)"/>
<path d="M0 0 C0.99 0 1.98 0 3 0 C3 1.32 3 2.64 3 4 C2.01 4 1.02 4 0 4 C0 2.68 0 1.36 0 0 Z " fill="#393132" transform="translate(485,281)"/>
<path d="M0 0 C0.99 0 1.98 0 3 0 C3 1.32 3 2.64 3 4 C2.01 4 1.02 4 0 4 C0 2.68 0 1.36 0 0 Z " fill="#363435" transform="translate(440,281)"/>
</svg>
