<svg xmlns="http://www.w3.org/2000/svg" xmlns:v="https://svgstorm.com"
viewBox = "0 0 474 106"
width="474"
height="106">
<g fill="None" fill-opacity="0.0" stroke="#FEFEFE" stroke-opacity="1.00" stroke-width="0.3"><path d="
M 0.00 4.00 
C 17.79 6.52 44.98 -2.98 57.25 13.75 C 69.51 30.49 56.81 52.98 38.00 54.00
C 31.05 55.13 22.65 55.24 15.00 55.00
C 14.34 63.83 16.33 73.99 14.00 82.00
C 10.87 84.19 3.52 80.36 0.00 82.00
L 0.00 106.00
L 162.00 106.00
C 155.37 104.44 147.39 103.44 142.00 98.00
C 143.56 94.36 146.46 91.62 148.00 88.00
C 160.39 98.50 186.59 93.43 182.00 73.00
C 173.89 82.40 153.96 86.30 147.08 72.92 C 140.20 59.53 145.85 40.03 144.00 25.00
C 148.67 25.00 153.33 25.00 158.00 25.00
C 160.88 37.11 149.45 70.39 170.00 69.00 C 190.55 67.60 178.90 37.60 182.00 25.00
C 186.67 25.00 191.33 25.00 196.00 25.00
C 192.59 52.26 208.30 97.54 173.00 106.00
L 474.00 106.00
L 474.00 38.00
C 446.89 30.33 451.75 65.03 452.00 82.00
C 447.67 82.00 443.33 82.00 439.00 82.00
C 439.00 63.00 439.00 44.00 439.00 25.00
C 443.33 25.00 447.67 25.00 452.00 25.00
C 452.56 27.52 450.81 31.30 453.00 33.00
C 456.36 25.56 466.47 21.99 474.00 25.00
L 474.00 0.00
L 355.00 0.00
C 355.00 27.33 355.00 54.67 355.00 82.00
C 350.33 82.00 345.67 82.00 341.00 82.00
C 341.00 54.67 341.00 27.33 341.00 0.00
L 0.00 0.00
L 0.00 4.00
M 113.00 32.00 
C 112.90 31.42 114.22 25.54 115.00 25.00
C 117.91 22.96 124.74 26.53 128.00 25.00
C 128.00 44.00 128.00 63.00 128.00 82.00
C 121.99 81.50 111.06 84.94 114.00 75.00
C 94.81 94.25 69.40 77.76 69.00 54.00 C 68.60 30.24 94.65 12.34 113.00 32.00
M 264.00 36.00 
C 258.57 42.22 253.55 43.40 247.77 38.23 C 241.99 33.06 231.73 36.20 227.25 41.25 C 222.76 46.30 222.46 59.06 226.31 64.69 C 230.15 70.33 240.11 74.30 246.23 69.23 C 252.34 64.16 257.73 64.37 264.00 70.00
C 249.15 94.51 210.39 84.05 209.01 54.99 C 207.63 25.93 246.76 11.49 264.00 36.00
M 305.00 83.00 
C 302.19 83.40 299.77 83.45 297.00 83.00
C 271.56 81.62 261.85 47.57 280.75 30.75 C 299.66 13.93 334.69 30.04 328.00 58.00
C 313.67 58.00 299.33 58.00 285.00 58.00
C 287.51 74.52 309.09 73.88 319.00 65.00
C 320.89 67.62 323.35 70.24 326.00 72.00
C 322.44 79.19 312.96 83.03 305.00 83.00
M 396.00 71.00 
C 398.21 71.18 400.79 71.21 403.00 71.00
C 407.04 70.10 411.98 69.42 414.00 65.00
C 417.91 65.50 419.57 70.44 423.00 72.00
C 413.27 87.43 385.55 88.09 374.25 72.75 C 362.95 57.41 367.21 32.06 387.08 25.08 C 406.94 18.09 430.92 35.04 425.00 58.00
C 411.00 58.00 397.00 58.00 383.00 58.00
C 382.83 64.80 389.17 71.18 396.00 71.00 Z"/>
</g>
<g fill="None" fill-opacity="0.0" stroke="#14B1F0" stroke-opacity="1.00" stroke-width="0.3"><path d="
M 355.00 0.00 
L 341.00 0.00
C 341.00 27.33 341.00 54.67 341.00 82.00
C 345.67 82.00 350.33 82.00 355.00 82.00
C 355.00 54.67 355.00 27.33 355.00 0.00 Z"/>
</g>
<g fill="None" fill-opacity="0.0" stroke="#0CB0F0" stroke-opacity="1.00" stroke-width="0.3"><path d="
M 0.00 82.00 
C 3.52 80.36 10.87 84.19 14.00 82.00
C 16.35 75.84 10.87 61.32 14.00 56.00 C 17.13 50.68 32.49 54.30 38.00 54.00
C 56.81 52.98 69.51 30.49 57.25 13.75 C 44.98 -2.98 17.79 6.52 0.00 4.00
L 0.00 82.00
M 15.00 25.00 
C 13.33 23.83 13.36 18.15 15.00 17.00
C 19.06 14.16 29.10 18.52 34.00 17.00 C 38.90 15.48 45.05 20.42 46.00 25.00
C 35.67 25.00 25.33 25.00 15.00 25.00
M 46.00 33.00 
C 46.00 36.00 46.00 39.00 46.00 42.00
C 35.78 40.86 17.70 46.15 15.00 33.00
C 25.33 33.00 35.67 33.00 46.00 33.00 Z"/>
</g>
<g fill="None" fill-opacity="0.0" stroke="#A6DDF8" stroke-opacity="1.00" stroke-width="0.3"><path d="
M 15.00 25.00 
C 15.00 22.33 15.00 19.67 15.00 17.00
C 13.36 18.15 13.33 23.83 15.00 25.00 Z"/>
</g>
<g fill="None" fill-opacity="0.0" stroke="#FEFEFE" stroke-opacity="1.00" stroke-width="0.3"><path d="
M 15.00 25.00 
C 25.33 25.00 35.67 25.00 46.00 25.00
C 45.05 20.42 38.90 15.48 34.00 17.00 C 29.10 18.52 19.06 14.16 15.00 17.00
C 15.00 19.67 15.00 22.33 15.00 25.00 Z"/>
</g>
<g fill="None" fill-opacity="0.0" stroke="#11B1F0" stroke-opacity="1.00" stroke-width="0.3"><path d="
M 115.00 25.00 
C 115.00 28.00 115.00 31.00 115.00 34.00
C 114.17 33.59 113.13 33.03 113.00 32.00
C 94.65 12.34 68.60 30.24 69.00 54.00 C 69.40 77.76 94.81 94.25 114.00 75.00
C 111.06 84.94 121.99 81.50 128.00 82.00
C 128.00 63.00 128.00 44.00 128.00 25.00
C 124.74 26.53 117.91 22.96 115.00 25.00
M 103.00 36.00 
C 123.03 40.15 115.61 76.71 95.00 71.00 C 74.39 65.29 81.96 31.64 103.00 36.00 Z"/>
</g>
<g fill="None" fill-opacity="0.0" stroke="#19B1F0" stroke-opacity="1.00" stroke-width="0.3"><path d="
M 264.00 36.00 
C 246.76 11.49 207.63 25.93 209.01 54.99 C 210.39 84.05 249.15 94.51 264.00 70.00
C 257.73 64.37 252.34 64.16 246.23 69.23 C 240.11 74.30 230.15 70.33 226.31 64.69 C 222.46 59.06 222.76 46.30 227.25 41.25 C 231.73 36.20 241.99 33.06 247.77 38.23 C 253.55 43.40 258.57 42.22 264.00 36.00 Z"/>
</g>
<g fill="None" fill-opacity="0.0" stroke="#1DB2F0" stroke-opacity="1.00" stroke-width="0.3"><path d="
M 297.00 83.00 
C 299.63 83.14 302.37 83.10 305.00 83.00
C 312.96 83.03 322.44 79.19 326.00 72.00
C 323.35 70.24 320.89 67.62 319.00 65.00
C 309.09 73.88 287.51 74.52 285.00 58.00
C 299.33 58.00 313.67 58.00 328.00 58.00
C 334.69 30.04 299.66 13.93 280.75 30.75 C 261.85 47.57 271.56 81.62 297.00 83.00
M 314.00 48.00 
C 304.33 48.00 294.67 48.00 285.00 48.00
C 285.84 32.01 314.49 31.27 314.00 48.00 Z"/>
</g>
<g fill="None" fill-opacity="0.0" stroke="#1EB2F0" stroke-opacity="1.00" stroke-width="0.3"><path d="
M 403.00 71.00 
C 400.27 71.61 398.67 71.55 396.00 71.00
C 389.17 71.18 382.83 64.80 383.00 58.00
C 397.00 58.00 411.00 58.00 425.00 58.00
C 430.92 35.04 406.94 18.09 387.08 25.08 C 367.21 32.06 362.95 57.41 374.25 72.75 C 385.55 88.09 413.27 87.43 423.00 72.00
C 419.57 70.44 417.91 65.50 414.00 65.00
C 411.98 69.42 407.04 70.10 403.00 71.00
M 411.00 48.00 
C 401.67 48.00 392.33 48.00 383.00 48.00
C 382.50 31.96 412.42 31.15 411.00 48.00 Z"/>
</g>
<g fill="None" fill-opacity="0.0" stroke="#0AB0F0" stroke-opacity="1.00" stroke-width="0.3"><path d="
M 474.00 38.00 
L 474.00 25.00
C 466.47 21.99 456.36 25.56 453.00 33.00
C 450.81 31.30 452.56 27.52 452.00 25.00
C 447.67 25.00 443.33 25.00 439.00 25.00
C 439.00 44.00 439.00 63.00 439.00 82.00
C 443.33 82.00 447.67 82.00 452.00 82.00
C 451.75 65.03 446.89 30.33 474.00 38.00 Z"/>
</g>
<g fill="None" fill-opacity="0.0" stroke="#A7DFF8" stroke-opacity="1.00" stroke-width="0.3"><path d="
M 113.00 32.00 
C 113.13 33.03 114.17 33.59 115.00 34.00
C 115.00 31.00 115.00 28.00 115.00 25.00
C 114.22 25.54 112.90 31.42 113.00 32.00 Z"/>
</g>
<g fill="None" fill-opacity="0.0" stroke="#18B1F0" stroke-opacity="1.00" stroke-width="0.3"><path d="
M 162.00 106.00 
L 173.00 106.00
C 208.30 97.54 192.59 52.26 196.00 25.00
C 191.33 25.00 186.67 25.00 182.00 25.00
C 178.90 37.60 190.55 67.60 170.00 69.00 C 149.45 70.39 160.88 37.11 158.00 25.00
C 153.33 25.00 148.67 25.00 144.00 25.00
C 145.85 40.03 140.20 59.53 147.08 72.92 C 153.96 86.30 173.89 82.40 182.00 73.00
C 186.59 93.43 160.39 98.50 148.00 88.00
C 146.46 91.62 143.56 94.36 142.00 98.00
C 147.39 103.44 155.37 104.44 162.00 106.00 Z"/>
</g>
<g fill="None" fill-opacity="0.0" stroke="#F0F9FE" stroke-opacity="1.00" stroke-width="0.3"><path d="
M 46.00 33.00 
C 35.67 33.00 25.33 33.00 15.00 33.00
C 17.70 46.15 35.78 40.86 46.00 42.00
C 46.00 39.00 46.00 36.00 46.00 33.00 Z"/>
</g>
<g fill="None" fill-opacity="0.0" stroke="#FDFEFE" stroke-opacity="1.00" stroke-width="0.3"><path d="
M 103.00 36.00 
C 81.96 31.64 74.39 65.29 95.00 71.00 C 115.61 76.71 123.03 40.15 103.00 36.00 Z"/>
</g>
<g fill="None" fill-opacity="0.0" stroke="#FDFEFE" stroke-opacity="1.00" stroke-width="0.3"><path d="
M 314.00 48.00 
C 314.49 31.27 285.84 32.01 285.00 48.00
C 294.67 48.00 304.33 48.00 314.00 48.00 Z"/>
</g>
<g fill="None" fill-opacity="0.0" stroke="#FDFEFE" stroke-opacity="1.00" stroke-width="0.3"><path d="
M 411.00 48.00 
C 412.42 31.15 382.50 31.96 383.00 48.00
C 392.33 48.00 401.67 48.00 411.00 48.00 Z"/>
</g>
<g fill="None" fill-opacity="0.0" stroke="#AADFF8" stroke-opacity="1.00" stroke-width="0.3"><path d="
M 14.00 82.00 
C 16.33 73.99 14.34 63.83 15.00 55.00
C 22.65 55.24 31.05 55.13 38.00 54.00
C 32.49 54.30 17.13 50.68 14.00 56.00 C 10.87 61.32 16.35 75.84 14.00 82.00 Z"/>
</g>
<g fill="None" fill-opacity="0.0" stroke="#A9DEF8" stroke-opacity="1.00" stroke-width="0.3"><path d="
M 403.00 71.00 
C 400.79 71.21 398.21 71.18 396.00 71.00
C 398.67 71.55 400.27 71.61 403.00 71.00 Z"/>
</g>
<g fill="None" fill-opacity="0.0" stroke="#A8DEF8" stroke-opacity="1.00" stroke-width="0.3"><path d="
M 305.00 83.00 
C 302.37 83.10 299.63 83.14 297.00 83.00
C 299.77 83.45 302.19 83.40 305.00 83.00 Z"/>
</g>
<g fill="#FEFEFE" fill-opacity="1.00" stroke="None">
<path d="
M 0.00 4.00 
C 17.79 6.52 44.98 -2.98 57.25 13.75 C 69.51 30.49 56.81 52.98 38.00 54.00
C 31.05 55.13 22.65 55.24 15.00 55.00
C 14.34 63.83 16.33 73.99 14.00 82.00
C 10.87 84.19 3.52 80.36 0.00 82.00
L 0.00 106.00
L 162.00 106.00
C 155.37 104.44 147.39 103.44 142.00 98.00
C 143.56 94.36 146.46 91.62 148.00 88.00
C 160.39 98.50 186.59 93.43 182.00 73.00
C 173.89 82.40 153.96 86.30 147.08 72.92 C 140.20 59.53 145.85 40.03 144.00 25.00
C 148.67 25.00 153.33 25.00 158.00 25.00
C 160.88 37.11 149.45 70.39 170.00 69.00 C 190.55 67.60 178.90 37.60 182.00 25.00
C 186.67 25.00 191.33 25.00 196.00 25.00
C 192.59 52.26 208.30 97.54 173.00 106.00
L 474.00 106.00
L 474.00 38.00
C 446.89 30.33 451.75 65.03 452.00 82.00
C 447.67 82.00 443.33 82.00 439.00 82.00
C 439.00 63.00 439.00 44.00 439.00 25.00
C 443.33 25.00 447.67 25.00 452.00 25.00
C 452.56 27.52 450.81 31.30 453.00 33.00
C 456.36 25.56 466.47 21.99 474.00 25.00
L 474.00 0.00
L 355.00 0.00
C 355.00 27.33 355.00 54.67 355.00 82.00
C 350.33 82.00 345.67 82.00 341.00 82.00
C 341.00 54.67 341.00 27.33 341.00 0.00
L 0.00 0.00
L 0.00 4.00
M 113.00 32.00 
C 112.90 31.42 114.22 25.54 115.00 25.00
C 117.91 22.96 124.74 26.53 128.00 25.00
C 128.00 44.00 128.00 63.00 128.00 82.00
C 121.99 81.50 111.06 84.94 114.00 75.00
C 94.81 94.25 69.40 77.76 69.00 54.00 C 68.60 30.24 94.65 12.34 113.00 32.00
M 264.00 36.00 
C 258.57 42.22 253.55 43.40 247.77 38.23 C 241.99 33.06 231.73 36.20 227.25 41.25 C 222.76 46.30 222.46 59.06 226.31 64.69 C 230.15 70.33 240.11 74.30 246.23 69.23 C 252.34 64.16 257.73 64.37 264.00 70.00
C 249.15 94.51 210.39 84.05 209.01 54.99 C 207.63 25.93 246.76 11.49 264.00 36.00
M 305.00 83.00 
C 302.19 83.40 299.77 83.45 297.00 83.00
C 271.56 81.62 261.85 47.57 280.75 30.75 C 299.66 13.93 334.69 30.04 328.00 58.00
C 313.67 58.00 299.33 58.00 285.00 58.00
C 287.51 74.52 309.09 73.88 319.00 65.00
C 320.89 67.62 323.35 70.24 326.00 72.00
C 322.44 79.19 312.96 83.03 305.00 83.00
M 396.00 71.00 
C 398.21 71.18 400.79 71.21 403.00 71.00
C 407.04 70.10 411.98 69.42 414.00 65.00
C 417.91 65.50 419.57 70.44 423.00 72.00
C 413.27 87.43 385.55 88.09 374.25 72.75 C 362.95 57.41 367.21 32.06 387.08 25.08 C 406.94 18.09 430.92 35.04 425.00 58.00
C 411.00 58.00 397.00 58.00 383.00 58.00
C 382.83 64.80 389.17 71.18 396.00 71.00 Z"/>
</g>
<g fill="#14B1F0" fill-opacity="1.00" stroke="None">
<path d="
M 355.00 0.00 
L 341.00 0.00
C 341.00 27.33 341.00 54.67 341.00 82.00
C 345.67 82.00 350.33 82.00 355.00 82.00
C 355.00 54.67 355.00 27.33 355.00 0.00 Z"/>
</g>
<g fill="#0CB0F0" fill-opacity="1.00" stroke="None">
<path d="
M 0.00 82.00 
C 3.52 80.36 10.87 84.19 14.00 82.00
C 16.35 75.84 10.87 61.32 14.00 56.00 C 17.13 50.68 32.49 54.30 38.00 54.00
C 56.81 52.98 69.51 30.49 57.25 13.75 C 44.98 -2.98 17.79 6.52 0.00 4.00
L 0.00 82.00
M 15.00 25.00 
C 13.33 23.83 13.36 18.15 15.00 17.00
C 19.06 14.16 29.10 18.52 34.00 17.00 C 38.90 15.48 45.05 20.42 46.00 25.00
C 35.67 25.00 25.33 25.00 15.00 25.00
M 46.00 33.00 
C 46.00 36.00 46.00 39.00 46.00 42.00
C 35.78 40.86 17.70 46.15 15.00 33.00
C 25.33 33.00 35.67 33.00 46.00 33.00 Z"/>
</g>
<g fill="#A6DDF8" fill-opacity="1.00" stroke="None">
<path d="
M 15.00 25.00 
C 15.00 22.33 15.00 19.67 15.00 17.00
C 13.36 18.15 13.33 23.83 15.00 25.00 Z"/>
</g>
<g fill="#FEFEFE" fill-opacity="1.00" stroke="None">
<path d="
M 15.00 25.00 
C 25.33 25.00 35.67 25.00 46.00 25.00
C 45.05 20.42 38.90 15.48 34.00 17.00 C 29.10 18.52 19.06 14.16 15.00 17.00
C 15.00 19.67 15.00 22.33 15.00 25.00 Z"/>
</g>
<g fill="#11B1F0" fill-opacity="1.00" stroke="None">
<path d="
M 115.00 25.00 
C 115.00 28.00 115.00 31.00 115.00 34.00
C 114.17 33.59 113.13 33.03 113.00 32.00
C 94.65 12.34 68.60 30.24 69.00 54.00 C 69.40 77.76 94.81 94.25 114.00 75.00
C 111.06 84.94 121.99 81.50 128.00 82.00
C 128.00 63.00 128.00 44.00 128.00 25.00
C 124.74 26.53 117.91 22.96 115.00 25.00
M 103.00 36.00 
C 123.03 40.15 115.61 76.71 95.00 71.00 C 74.39 65.29 81.96 31.64 103.00 36.00 Z"/>
</g>
<g fill="#19B1F0" fill-opacity="1.00" stroke="None">
<path d="
M 264.00 36.00 
C 246.76 11.49 207.63 25.93 209.01 54.99 C 210.39 84.05 249.15 94.51 264.00 70.00
C 257.73 64.37 252.34 64.16 246.23 69.23 C 240.11 74.30 230.15 70.33 226.31 64.69 C 222.46 59.06 222.76 46.30 227.25 41.25 C 231.73 36.20 241.99 33.06 247.77 38.23 C 253.55 43.40 258.57 42.22 264.00 36.00 Z"/>
</g>
<g fill="#1DB2F0" fill-opacity="1.00" stroke="None">
<path d="
M 297.00 83.00 
C 299.63 83.14 302.37 83.10 305.00 83.00
C 312.96 83.03 322.44 79.19 326.00 72.00
C 323.35 70.24 320.89 67.62 319.00 65.00
C 309.09 73.88 287.51 74.52 285.00 58.00
C 299.33 58.00 313.67 58.00 328.00 58.00
C 334.69 30.04 299.66 13.93 280.75 30.75 C 261.85 47.57 271.56 81.62 297.00 83.00
M 314.00 48.00 
C 304.33 48.00 294.67 48.00 285.00 48.00
C 285.84 32.01 314.49 31.27 314.00 48.00 Z"/>
</g>
<g fill="#1EB2F0" fill-opacity="1.00" stroke="None">
<path d="
M 403.00 71.00 
C 400.27 71.61 398.67 71.55 396.00 71.00
C 389.17 71.18 382.83 64.80 383.00 58.00
C 397.00 58.00 411.00 58.00 425.00 58.00
C 430.92 35.04 406.94 18.09 387.08 25.08 C 367.21 32.06 362.95 57.41 374.25 72.75 C 385.55 88.09 413.27 87.43 423.00 72.00
C 419.57 70.44 417.91 65.50 414.00 65.00
C 411.98 69.42 407.04 70.10 403.00 71.00
M 411.00 48.00 
C 401.67 48.00 392.33 48.00 383.00 48.00
C 382.50 31.96 412.42 31.15 411.00 48.00 Z"/>
</g>
<g fill="#0AB0F0" fill-opacity="1.00" stroke="None">
<path d="
M 474.00 38.00 
L 474.00 25.00
C 466.47 21.99 456.36 25.56 453.00 33.00
C 450.81 31.30 452.56 27.52 452.00 25.00
C 447.67 25.00 443.33 25.00 439.00 25.00
C 439.00 44.00 439.00 63.00 439.00 82.00
C 443.33 82.00 447.67 82.00 452.00 82.00
C 451.75 65.03 446.89 30.33 474.00 38.00 Z"/>
</g>
<g fill="#A7DFF8" fill-opacity="1.00" stroke="None">
<path d="
M 113.00 32.00 
C 113.13 33.03 114.17 33.59 115.00 34.00
C 115.00 31.00 115.00 28.00 115.00 25.00
C 114.22 25.54 112.90 31.42 113.00 32.00 Z"/>
</g>
<g fill="#18B1F0" fill-opacity="1.00" stroke="None">
<path d="
M 162.00 106.00 
L 173.00 106.00
C 208.30 97.54 192.59 52.26 196.00 25.00
C 191.33 25.00 186.67 25.00 182.00 25.00
C 178.90 37.60 190.55 67.60 170.00 69.00 C 149.45 70.39 160.88 37.11 158.00 25.00
C 153.33 25.00 148.67 25.00 144.00 25.00
C 145.85 40.03 140.20 59.53 147.08 72.92 C 153.96 86.30 173.89 82.40 182.00 73.00
C 186.59 93.43 160.39 98.50 148.00 88.00
C 146.46 91.62 143.56 94.36 142.00 98.00
C 147.39 103.44 155.37 104.44 162.00 106.00 Z"/>
</g>
<g fill="#F0F9FE" fill-opacity="1.00" stroke="None">
<path d="
M 46.00 33.00 
C 35.67 33.00 25.33 33.00 15.00 33.00
C 17.70 46.15 35.78 40.86 46.00 42.00
C 46.00 39.00 46.00 36.00 46.00 33.00 Z"/>
</g>
<g fill="#FDFEFE" fill-opacity="1.00" stroke="None">
<path d="
M 103.00 36.00 
C 81.96 31.64 74.39 65.29 95.00 71.00 C 115.61 76.71 123.03 40.15 103.00 36.00 Z"/>
</g>
<g fill="#FDFEFE" fill-opacity="1.00" stroke="None">
<path d="
M 314.00 48.00 
C 314.49 31.27 285.84 32.01 285.00 48.00
C 294.67 48.00 304.33 48.00 314.00 48.00 Z"/>
</g>
<g fill="#FDFEFE" fill-opacity="1.00" stroke="None">
<path d="
M 411.00 48.00 
C 412.42 31.15 382.50 31.96 383.00 48.00
C 392.33 48.00 401.67 48.00 411.00 48.00 Z"/>
</g>
<g fill="#AADFF8" fill-opacity="1.00" stroke="None">
<path d="
M 14.00 82.00 
C 16.33 73.99 14.34 63.83 15.00 55.00
C 22.65 55.24 31.05 55.13 38.00 54.00
C 32.49 54.30 17.13 50.68 14.00 56.00 C 10.87 61.32 16.35 75.84 14.00 82.00 Z"/>
</g>
<g fill="#A9DEF8" fill-opacity="1.00" stroke="None">
<path d="
M 403.00 71.00 
C 400.79 71.21 398.21 71.18 396.00 71.00
C 398.67 71.55 400.27 71.61 403.00 71.00 Z"/>
</g>
<g fill="#A8DEF8" fill-opacity="1.00" stroke="None">
<path d="
M 305.00 83.00 
C 302.37 83.10 299.63 83.14 297.00 83.00
C 299.77 83.45 302.19 83.40 305.00 83.00 Z"/>
</g>
</svg>