<?xml version="1.0" encoding="UTF-8"?>
<svg version="1.1" xmlns="http://www.w3.org/2000/svg" width="1200" height="630">
<path d="M0 0 C396 0 792 0 1200 0 C1200 207.9 1200 415.8 1200 630 C804 630 408 630 0 630 C0 422.1 0 214.2 0 0 Z " fill="#FEFEFE" transform="translate(0,0)"/>
<path d="M0 0 C10.57724594 7.24662461 15.34199809 17.44045918 17.796875 29.71484375 C17.796875 33.67484375 17.796875 37.63484375 17.796875 41.71484375 C-3.653125 41.71484375 -25.103125 41.71484375 -47.203125 41.71484375 C-42.2766415 56.33502814 -42.2766415 56.33502814 -31.828125 66.21484375 C-24.0312693 69.62596812 -12.54576868 69.00678049 -4.640625 66.08984375 C-0.03399712 63.8932013 3.85135372 60.92971294 7.796875 57.71484375 C10.106875 59.69484375 12.416875 61.67484375 14.796875 63.71484375 C10.67325921 71.96207532 1.65140787 76.01149888 -6.765625 78.96484375 C-17.48495727 81.31167981 -29.19300771 80.71759954 -38.7890625 75.23828125 C-49.11712352 68.44595283 -55.8977046 60.00410247 -58.78637695 47.92724609 C-61.21921133 35.01198829 -59.57121972 22.32724814 -52.59375 11.1328125 C-40.11485446 -6.12584349 -18.48335122 -10.78195488 0 0 Z " fill="#095F80" transform="translate(943.203125,284.28515625)"/>
<path d="M0 0 C8.83559726 6.36225225 13.61428074 14.70712296 16.25 25.25 C16.25 30.53 16.25 35.81 16.25 41.25 C-4.87 41.25 -25.99 41.25 -47.75 41.25 C-43.62910937 55.3962452 -43.62910937 55.3962452 -33.37109375 64.65234375 C-23.72716008 69.11683364 -15.73299279 69.12330242 -5.73828125 65.60546875 C-1.15378321 63.52596441 2.52432777 60.5993417 6.25 57.25 C8.56 59.23 10.87 61.21 13.25 63.25 C9.13866321 71.47267357 1.46562183 75.50729522 -7.01171875 78.33984375 C-17.60253593 80.91838126 -29.47881004 80.22267001 -39.109375 74.9609375 C-49.84892271 68.22169112 -56.46537716 59.50845693 -60.125 47.25 C-62.69227473 34.44009312 -59.95249668 21.86522052 -53.40234375 10.71875 C-48.16895025 2.89958997 -40.79325161 -2.32933796 -31.86328125 -5.3984375 C-20.66460504 -7.26143354 -9.67706139 -6.01199495 0 0 Z " fill="#095F81" transform="translate(452.75,284.75)"/>
<path d="M0 0 C5.33643391 3.34996402 9.99134541 7.37521631 12.7734375 13.11328125 C13.5778125 12.08203125 14.3821875 11.05078125 15.2109375 9.98828125 C20.93187634 3.32061494 28.24041563 -1.38725488 37.10546875 -2.1875 C48.16606211 -2.22474106 56.61498321 -0.79578797 64.7734375 7.11328125 C71.86434947 15.96792259 72.05894904 24.74191776 71.96875 35.703125 C71.9659201 37.00278702 71.96309021 38.30244904 71.96017456 39.64149475 C71.95258405 43.0757738 71.93297573 46.50988032 71.9107666 49.9440918 C71.89020871 53.45684476 71.8811517 56.96962594 71.87109375 60.48242188 C71.84972484 67.35945248 71.81458078 74.23634079 71.7734375 81.11328125 C67.8134375 81.11328125 63.8534375 81.11328125 59.7734375 81.11328125 C59.7640918 79.49953613 59.75474609 77.88579102 59.74511719 76.22314453 C59.70507292 70.20317564 59.63927297 64.18371002 59.56591797 58.1640625 C59.5377921 55.5648447 59.51653614 52.9655427 59.50244141 50.36621094 C59.48089653 46.61740268 59.43418373 42.86959791 59.3828125 39.12109375 C59.38158386 37.96964874 59.38035522 36.81820374 59.37908936 35.63186646 C59.2326447 27.45961164 58.25132715 19.68034755 52.3359375 13.61328125 C45.62595355 9.68548577 39.45060334 9.20463119 31.7734375 10.11328125 C26.59743578 12.08276618 22.73878612 15.43715458 19.7734375 20.11328125 C18.20518877 24.16759558 17.51346372 27.59801667 17.45458984 31.93505859 C17.43472015 33.05576752 17.41485046 34.17647644 17.39437866 35.33114624 C17.38282745 36.52511017 17.37127625 37.7190741 17.359375 38.94921875 C17.34000885 40.18370758 17.3206427 41.41819641 17.3006897 42.69009399 C17.24103653 46.62275337 17.19456487 50.55544225 17.1484375 54.48828125 C17.11131207 57.15888578 17.07119225 59.82943489 17.03125 62.5 C16.93534641 69.03766146 16.85126212 75.57538059 16.7734375 82.11328125 C12.4834375 82.11328125 8.1934375 82.11328125 3.7734375 82.11328125 C3.75885498 80.42847656 3.74427246 78.74367188 3.72924805 77.0078125 C3.67741827 71.41575104 3.61208528 65.82395414 3.53772259 60.23214722 C3.49316194 56.84473083 3.45387551 53.45743075 3.42700195 50.06982422 C3.39334758 46.16734873 3.34102349 42.26549433 3.28515625 38.36328125 C3.27876633 37.15776611 3.2723764 35.95225098 3.26579285 34.71020508 C3.14025844 27.47666437 2.89405428 20.85092907 -1.9453125 15.0546875 C-2.82703125 14.37212891 -2.82703125 14.37212891 -3.7265625 13.67578125 C-4.314375 13.20269531 -4.9021875 12.72960937 -5.5078125 12.2421875 C-10.44048048 9.00232149 -16.57913466 9.6044394 -22.2265625 10.11328125 C-28.09070522 11.79011945 -31.86222681 15.01871578 -35.2265625 20.11328125 C-38.40930002 27.06782697 -38.69407349 33.81936485 -38.73828125 41.3671875 C-38.75623245 42.50864731 -38.77418365 43.65010712 -38.79267883 44.82615662 C-38.8465067 48.4426615 -38.88058973 52.05903649 -38.9140625 55.67578125 C-38.94725979 58.13999193 -38.98175166 60.60418552 -39.01757812 63.06835938 C-39.10221762 69.0832392 -39.16916012 75.09808233 -39.2265625 81.11328125 C-43.1865625 81.11328125 -47.1465625 81.11328125 -51.2265625 81.11328125 C-51.2265625 54.05328125 -51.2265625 26.99328125 -51.2265625 -0.88671875 C-47.2665625 -0.88671875 -43.3065625 -0.88671875 -39.2265625 -0.88671875 C-38.8965625 3.07328125 -38.5665625 7.03328125 -38.2265625 11.11328125 C-37.2778125 9.89640625 -36.3290625 8.67953125 -35.3515625 7.42578125 C-26.55200372 -2.44304662 -12.34913913 -5.68923222 0 0 Z " fill="#0C6082" transform="translate(620.2265625,280.88671875)"/>
<path d="M0 0 C6.84299855 4.96009801 12.26044857 10.49375312 14 19 C14.92229355 27.48207671 13.20126578 35.08346715 8.52734375 42.26171875 C-2.03357612 55.36924341 -18.75166434 58.19248325 -34.5625 60.25 C-35.80580078 60.42273438 -37.04910156 60.59546875 -38.33007812 60.7734375 C-42.93301565 61.40077133 -47.34943844 62 -52 62 C-51.66894959 59.33303317 -51.3353287 56.66643014 -51 54 C-50.85183838 52.81035645 -50.85183838 52.81035645 -50.70068359 51.59667969 C-45.92137582 13.85278407 -45.92137582 13.85278407 -32 1 C-22.30865318 -6.00946468 -10.2364458 -5.89421153 0 0 Z " fill="#035D81" transform="translate(210,325)"/>
<path d="M0 0 C48.87667913 6.36476383 48.87667913 6.36476383 61 20 C65.77140406 27.50977509 67.39636911 35.38499718 65.5390625 44.18359375 C62.76255143 52.30080551 57.7793529 60.03061706 50 64 C42.97071289 66.786118 34.94102364 67.33953076 27.59375 65.34765625 C25.53917811 64.3978244 23.82506395 63.33811631 22 62 C21.31292969 61.50242187 20.62585938 61.00484375 19.91796875 60.4921875 C4.16665655 47.92620559 2.76424543 25.2051461 0.2878418 6.69458008 C0 4 0 4 0 0 Z " fill="#58C5CF" transform="translate(158,242)"/>
<path d="M0 0 C9.37240479 4.90935489 16.36957743 12.50846891 19.59765625 22.60546875 C22.55323153 32.71982196 24.11830838 42.83245413 24.99804688 53.31347656 C25.32940148 57.02840581 25.76177351 60.73238288 26.1875 64.4375 C8.11813058 63.13712648 -11.14699153 61.30782882 -26.8125 51.4375 C-27.43125 51.04949219 -28.05 50.66148437 -28.6875 50.26171875 C-33.17889469 46.99422912 -35.41643517 42.29645218 -37.8125 37.4375 C-38.1425 36.7775 -38.4725 36.1175 -38.8125 35.4375 C-39.57602939 26.00245819 -39.82734329 18.22831373 -33.8125 10.4375 C-33.11125 9.385625 -32.41 8.33375 -31.6875 7.25 C-23.50299636 -1.8241236 -11.2941145 -4.45155287 0 0 Z " fill="#035D81" transform="translate(275.8125,322.5625)"/>
<path d="M0 0 C8.22369931 6.72848125 14.13613837 16.18007295 16.0625 26.6875 C17.20684416 40.75413055 13.96270205 52.60904582 5.0625 63.6875 C-4.42303883 73.17303883 -14.95852022 76.73708095 -28.1875 77 C-40.39863806 76.89246552 -49.80004494 71.5955311 -58.6875 63.4375 C-67.78425208 53.8975187 -69.53056691 41.75335647 -69.25 29.1484375 C-68.7028219 18.30975137 -63.57199884 10.94828247 -56.625 3.0625 C-40.20215621 -11.45071079 -17.98827474 -12.84876767 0 0 Z M-50.46875 13.5 C-56.13319145 21.93640216 -57.98536329 30.62563092 -56.9375 40.6875 C-54.06112483 50.8663966 -49.57731547 57.90631846 -40.375 63.125 C-31.93481577 67.02127317 -23.93709065 66.88954989 -15.125 64.1875 C-7.26357204 60.93291466 -2.14871787 55.18628678 1.37109375 47.546875 C4.27481176 39.73800622 4.42812928 30.16736874 2.00390625 22.21484375 C-1.08949879 15.58372346 -4.91809868 10.82727983 -10.9375 6.6875 C-11.50726562 6.25566406 -12.07703125 5.82382812 -12.6640625 5.37890625 C-25.05001915 -2.50554633 -41.89198735 2.81950312 -50.46875 13.5 Z " fill="#085E80" transform="translate(772.9375,287.3125)"/>
<path d="M0 0 C1.52400924 0.89794325 3.02737296 1.83256334 4.5 2.8125 C5.593125 3.534375 6.68625 4.25625 7.8125 5 C14.16620333 11.64922441 16.88498564 19.77815239 16.77734375 28.83203125 C16.03491126 36.81056635 12.30439305 43.39795424 6.5 48.8125 C-1.56621883 55.03021035 -9.57756128 55.71453988 -19.5 54.8125 C-27.62612584 52.63690914 -33.41621454 47.95307152 -37.875 40.9375 C-41.80663994 33.27080212 -41.82040232 25.1220543 -39.76171875 16.84375 C-36.43016299 7.74023961 -31.6079924 3.02266805 -22.88671875 -1.04296875 C-15.15135103 -3.65711263 -7.41042954 -3.49380612 0 0 Z " fill="#EF5A23" transform="translate(277.5,253.1875)"/>
<path d="M0 0 C4.29 0 8.58 0 13 0 C21.78649255 18.76034896 29.96506048 37.80044426 38.0859375 56.85644531 C39.3863899 59.90611734 40.69302639 62.95311777 42 66 C48.37838506 50.20671145 54.52662332 34.33754528 60.46875 18.375 C60.8800415 17.27188477 61.29133301 16.16876953 61.71508789 15.03222656 C62.5189954 12.87370199 63.32033959 10.71422072 64.11889648 8.55371094 C64.48055908 7.58208008 64.84222168 6.61044922 65.21484375 5.609375 C65.69618774 4.3095166 65.69618774 4.3095166 66.18725586 2.98339844 C67 1 67 1 68 0 C70.18639453 -0.07258946 72.37500389 -0.08373783 74.5625 -0.0625 C76.35880859 -0.04896484 76.35880859 -0.04896484 78.19140625 -0.03515625 C79.11824219 -0.02355469 80.04507812 -0.01195312 81 0 C76.9583476 11.13586084 72.55494493 22.11046058 68.04760742 33.06567383 C65.31937351 39.70826662 62.67487783 46.37497942 60.12231445 53.0871582 C58.18926858 58.10416284 56.09612787 63.04945511 54 68 C53.29803855 69.69004663 52.59622854 71.38015617 51.89453125 73.0703125 C40.98376787 99.17647358 40.98376787 99.17647358 30 105.8125 C23.61285534 108.28219594 15.55482858 108.10371694 9.09375 106.09765625 C6.625 105 6.625 105 3 103 C3.99 100.03 4.98 97.06 6 94 C6.928125 94.165 7.85625 94.33 8.8125 94.5 C14.76049772 95.32375528 21.05223432 95.98258856 26.8125 94.0625 C30.20095138 90.86767442 33.17229417 87.30816374 35 83 C34.57014608 78.20859612 32.95995187 74.22060756 30.9296875 69.91796875 C30.61638992 69.23864792 30.30309235 68.55932709 29.9803009 67.85942078 C29.30406125 66.39541972 28.62451313 64.93294321 27.94198608 63.47186279 C26.86195392 61.15956901 25.79078097 58.84335757 24.72192383 56.52587891 C23.2348026 53.3031115 21.74451885 50.0818395 20.25146484 46.86181641 C17.0347668 39.92063028 13.84107047 32.96902662 10.66387939 26.00967407 C9.70877203 23.92150739 8.74788268 21.83607158 7.78662109 19.75073242 C4.81144685 13.26034126 2.07279081 6.83946138 0 0 Z " fill="#095F80" transform="translate(961,281)"/>
<path d="M0 0 C8.31595764 4.92754948 12.65473753 11.15274124 15.25 20.4375 C15.76067684 25.14857896 15.71814224 29.80502782 15.640625 34.5390625 C15.63496521 35.85667572 15.62930542 37.17428894 15.62347412 38.53182983 C15.60834783 42.00082892 15.56918309 45.46913656 15.5246582 48.93786621 C15.48342063 52.49103446 15.46540294 56.04431665 15.4453125 59.59765625 C15.40267216 66.54458004 15.33243299 73.49093543 15.25 80.4375 C11.29 80.4375 7.33 80.4375 3.25 80.4375 C3.23541748 78.84357422 3.22083496 77.24964844 3.20581055 75.60742188 C3.14767986 69.67327856 3.07044702 63.73950881 2.98754883 57.80566406 C2.95436906 55.24127278 2.92631568 52.67680969 2.90356445 50.11230469 C2.8698915 46.41830958 2.81756693 42.7249684 2.76171875 39.03125 C2.75532883 37.8913562 2.7489389 36.7514624 2.74235535 35.57702637 C2.57241798 26.3005469 1.06659921 19.0991765 -5.75 12.4375 C-12.24003117 8.46401153 -19.7671465 8.30652338 -27.125 9.9765625 C-34.64100929 12.56730813 -38.35910641 16.53460948 -41.75 23.4375 C-42.61856863 26.91566248 -42.89438496 30.20067426 -42.95532227 33.77856445 C-42.97526749 34.8192659 -42.99521271 35.85996735 -43.01576233 36.9322052 C-43.04083107 38.59965034 -43.04083107 38.59965034 -43.06640625 40.30078125 C-43.08718735 41.44790085 -43.10796844 42.59502045 -43.12937927 43.77690125 C-43.19466619 47.43454098 -43.25366286 51.09225138 -43.3125 54.75 C-43.35570504 57.23242913 -43.39931997 59.71485116 -43.44335938 62.19726562 C-43.55032626 68.27727167 -43.65165252 74.35734867 -43.75 80.4375 C-47.71 80.4375 -51.67 80.4375 -55.75 80.4375 C-55.75 53.7075 -55.75 26.9775 -55.75 -0.5625 C-51.79 -0.5625 -47.83 -0.5625 -43.75 -0.5625 C-43.42 3.3975 -43.09 7.3575 -42.75 11.4375 C-41.63625 10.055625 -40.5225 8.67375 -39.375 7.25 C-29.16764653 -3.98517725 -13.84134067 -6.42017298 0 0 Z " fill="#065D7F" transform="translate(536.75,281.5625)"/>
<path d="M0 0 C7.95342161 4.89664209 11.97565201 10.17915336 14.6806488 19.08551025 C15.25088136 21.83266527 15.26405397 24.3836776 15.25805664 27.19042969 C15.25794334 28.96181305 15.25794334 28.96181305 15.25782776 30.76898193 C15.25266647 32.03888977 15.24750519 33.30879761 15.2421875 34.6171875 C15.24077255 35.92109436 15.2393576 37.22500122 15.23789978 38.56842041 C15.23408992 42.02734305 15.22427276 45.48622341 15.2131958 48.94512939 C15.20294871 52.47773669 15.1983951 56.01035086 15.19335938 59.54296875 C15.18264907 66.46876908 15.16506471 73.3945344 15.14453125 80.3203125 C11.18453125 80.3203125 7.22453125 80.3203125 3.14453125 80.3203125 C3.12994873 78.69609375 3.11536621 77.071875 3.1003418 75.3984375 C3.0422185 69.35248177 2.96498553 63.30689298 2.88208008 57.26123047 C2.84889686 54.64833548 2.82084454 52.03536995 2.7980957 49.42236328 C2.76442917 45.65887489 2.71210476 41.89602911 2.65625 38.1328125 C2.64986008 36.97104492 2.64347015 35.80927734 2.6368866 34.61230469 C2.50765107 27.42692773 1.98326294 21.33797102 -2.28515625 15.296875 C-3.00058594 14.62785156 -3.00058594 14.62785156 -3.73046875 13.9453125 C-4.20226562 13.48382813 -4.6740625 13.02234375 -5.16015625 12.546875 C-11.3081018 8.09882223 -18.61167735 8.57068267 -25.85546875 9.3203125 C-31.54954365 10.93538652 -35.59313113 13.32751753 -38.85546875 18.3203125 C-41.4621025 23.07358581 -43.09607441 27.28927451 -43.17431641 32.75317383 C-43.1941861 33.81389603 -43.21405579 34.87461823 -43.23452759 35.96748352 C-43.2460788 37.1009874 -43.25763 38.23449127 -43.26953125 39.40234375 C-43.2888974 40.57165939 -43.30826355 41.74097504 -43.32821655 42.94572449 C-43.3879207 46.67467999 -43.43436172 50.40366651 -43.48046875 54.1328125 C-43.5186569 56.6634248 -43.55770912 59.19402423 -43.59765625 61.72460938 C-43.69361499 67.92307227 -43.77768044 74.12159602 -43.85546875 80.3203125 C-47.81546875 80.3203125 -51.77546875 80.3203125 -55.85546875 80.3203125 C-55.85546875 53.5903125 -55.85546875 26.8603125 -55.85546875 -0.6796875 C-51.89546875 -0.6796875 -47.93546875 -0.6796875 -43.85546875 -0.6796875 C-43.52546875 3.2803125 -43.19546875 7.2403125 -42.85546875 11.3203125 C-41.74171875 9.9384375 -40.62796875 8.5565625 -39.48046875 7.1328125 C-29.45117279 -3.92557644 -13.62733112 -6.63955145 0 0 Z " fill="#065D7F" transform="translate(856.85546875,281.6796875)"/>
<path d="M0 0 C0 4.29 0 8.58 0 13 C-1.794375 13.226875 -3.58875 13.45375 -5.4375 13.6875 C-13.72234916 15.0927041 -20.37128536 18.14658033 -25.65234375 24.83984375 C-31.24323382 33.80147334 -33.10742136 42.67474776 -33.31640625 53.01953125 C-33.33718735 53.87810226 -33.35796844 54.73667328 -33.37937927 55.6212616 C-33.44452523 58.35159654 -33.50359654 61.08202395 -33.5625 63.8125 C-33.6057185 65.66862918 -33.64933384 67.52474916 -33.69335938 69.38085938 C-33.80017061 73.92047925 -33.90153565 78.46019172 -34 83 C-37.96 83 -41.92 83 -46 83 C-46 55.94 -46 28.88 -46 1 C-41.71 1 -37.42 1 -33 1 C-32.67 6.94 -32.34 12.88 -32 19 C-31.175 17.824375 -30.35 16.64875 -29.5 15.4375 C-21.74874831 5.18115994 -13.0940973 -0.83137126 0 0 Z " fill="#0C6284" transform="translate(392,279)"/>
<path d="M0 0 C7.64726489 4.16051636 10.91105598 10.35323236 14.0859375 18.21484375 C14.7734375 20.96484375 14.7734375 20.96484375 14.7734375 25.96484375 C-2.3865625 25.96484375 -19.5465625 25.96484375 -37.2265625 25.96484375 C-36.10205033 15.84423421 -34.03765245 9.63284736 -26.2265625 2.96484375 C-18.19219095 -2.81990376 -9.24814043 -4.09560505 0 0 Z " fill="#FAFDFD" transform="translate(442.2265625,291.03515625)"/>
<path d="M0 0 C6.80850707 3.86428779 11.2774495 8.6895651 13.6875 16.1875 C14.64530989 19.73770553 14.75 22.18322782 14.75 26 C-2.41 26 -19.57 26 -37.25 26 C-35.97371332 15.7897066 -33.46582749 8.87164498 -25.27734375 2.40625 C-17.40433215 -3.05479851 -8.75630714 -3.94500291 0 0 Z " fill="#F5FBFC" transform="translate(933.25,291)"/>
<path d="M0 0 C2.97 0 5.94 0 9 0 C9 4.29 9 8.58 9 13 C10.65 13 12.3 13 14 13 C15.05645264 16.26539906 15.19220888 17.59727663 13.6875 20.75 C13.130625 21.8225 12.57375 22.895 12 24 C9.93793806 30.64428499 9.667232 37.25178927 9.5859375 44.16015625 C9.56657135 45.19063583 9.5472052 46.22111542 9.5272522 47.28282166 C9.46793874 50.54263281 9.42126534 53.80248022 9.375 57.0625 C9.33677577 59.28582186 9.29772152 61.50912962 9.2578125 63.73242188 C9.16227729 69.15483203 9.07806996 74.57731141 9 80 C5.7 80 2.4 80 -1 80 C-1.02313729 69.86460923 -1.04092219 59.72922471 -1.05181217 49.59381294 C-1.05703795 44.88789057 -1.0641301 40.18198622 -1.07543945 35.47607422 C-1.08627912 30.93736468 -1.09227914 26.3986725 -1.09487724 21.85995102 C-1.09672954 20.12554526 -1.10034643 18.39114049 -1.10573006 16.6567421 C-1.11295478 14.23354259 -1.11399033 11.81041552 -1.11352539 9.38720703 C-1.11712067 8.66503998 -1.12071594 7.94287292 -1.12442017 7.19882202 C-1.11405216 2.22810432 -1.11405216 2.22810432 0 0 Z " fill="#035B7F" transform="translate(571,281)"/>
<path d="M0 0 C0.33 0 0.66 0 1 0 C1 2.31 1 4.62 1 7 C16.84 7 32.68 7 49 7 C49 4.69 49 2.38 49 0 C51.05164237 3.46214649 51 4.59389235 51 9 C33.84 9 16.68 9 -1 9 C-0.67 6.03 -0.34 3.06 0 0 Z " fill="#C8EBF4" transform="translate(406,308)"/>
<path d="M0 0 C21.12 0 42.24 0 64 0 C64 0.33 64 0.66 64 1 C43.54 1 23.08 1 2 1 C2.99 4.3 3.98 7.6 5 11 C5.66 11.33 6.32 11.66 7 12 C7 13.65 7 15.3 7 17 C2.63839087 13.54079276 1.22409651 9.26732436 0 4 C0 2.68 0 1.36 0 0 Z " fill="#EBFFFF" transform="translate(405,326)"/>
<path d="M0 0 C1.2588465 3.75775073 0.91298846 7.07713023 0.625 11 C-0.04292789 21.03322327 -0.29764935 31.074912 -0.5625 41.125 C-0.58455505 41.95451172 -0.60661011 42.78402344 -0.6293335 43.63867188 C-0.75622284 48.42569931 -0.87960394 53.21280503 -1 58 C-1.33 58 -1.66 58 -2 58 C-2.05077576 50.70429461 -2.08576551 43.40863492 -2.10986328 36.11279297 C-2.119911 33.63165585 -2.13355144 31.15053055 -2.15087891 28.66943359 C-2.17518086 25.09990521 -2.18649558 21.53053362 -2.1953125 17.9609375 C-2.20563507 16.85446869 -2.21595764 15.74799988 -2.22659302 14.60800171 C-2.2273567 9.34718992 -2.1532238 4.9099463 0 0 Z " fill="#F0FFFF" transform="translate(639,301)"/>
<path d="M0 0 C0.66 0 1.32 0 2 0 C2 2 2 2 0.0625 4 C-0.618125 4.66 -1.29875 5.32 -2 6 C-2.33 6.66 -2.66 7.32 -3 8 C-3.66 8 -4.32 8 -5 8 C-5.87510383 13.47859123 -6.29024034 18.89857799 -6.5625 24.4375 C-6.60568359 25.26443359 -6.64886719 26.09136719 -6.69335938 26.94335938 C-6.79838033 28.96209549 -6.89958559 30.98102951 -7 33 C-9.87678185 30.12321815 -9.33453175 28.01445059 -9.375 24 C-9.34163096 14.37245524 -6.85325139 6.85325139 0 0 Z " fill="#E06B41" transform="translate(246,257)"/>
<path d="M0 0 C4.62 0 9.24 0 14 0 C14 0.33 14 0.66 14 1 C10.04 1 6.08 1 2 1 C2.45375 2.629375 2.9075 4.25875 3.375 5.9375 C3.63023437 6.85402344 3.88546875 7.77054687 4.1484375 8.71484375 C4.76660104 11.16745087 4.76660104 11.16745087 7 12 C7 13.65 7 15.3 7 17 C2.63839087 13.54079276 1.22409651 9.26732436 0 4 C0 2.68 0 1.36 0 0 Z " fill="#DDF6FA" transform="translate(405,326)"/>
<path d="M0 0 C3.22914752 -0.02917228 6.45826083 -0.04685663 9.6875 -0.0625 C10.59951172 -0.07087891 11.51152344 -0.07925781 12.45117188 -0.08789062 C13.33740234 -0.09111328 14.22363281 -0.09433594 15.13671875 -0.09765625 C15.94842529 -0.10289307 16.76013184 -0.10812988 17.59643555 -0.11352539 C20.14864673 0.0070209 22.51026137 0.440051 25 1 C25.33 1.99 25.66 2.98 26 4 C24.906875 3.67 23.81375 3.34 22.6875 3 C14.00361807 0.86738589 6.21854792 1.59082457 -2 5 C-1.34 3.35 -0.68 1.7 0 0 Z " fill="#E3F9FA" transform="translate(182,320)"/>
<path d="M0 0 C0 0.66 0 1.32 0 2 C0.66 2.33 1.32 2.66 2 3 C1.42032471 2.99476318 0.84064941 2.98952637 0.2434082 2.98413086 C-2.4002167 2.96325666 -5.04382421 2.95030673 -7.6875 2.9375 C-8.59951172 2.92912109 -9.51152344 2.92074219 -10.45117188 2.91210938 C-11.78051758 2.90727539 -11.78051758 2.90727539 -13.13671875 2.90234375 C-13.94842529 2.89710693 -14.76013184 2.89187012 -15.59643555 2.88647461 C-18.14864673 3.0070209 -20.51026137 3.440051 -23 4 C-23 3.34 -23 2.68 -23 2 C-15.8416455 -0.38611817 -7.51561232 -0.17478168 0 0 Z " fill="#D8F4F9" transform="translate(932,277)"/>
<path d="M0 0 C0 0.66 0 1.32 0 2 C-0.99 2 -1.98 2 -3 2 C-3.268125 2.58265625 -3.53625 3.1653125 -3.8125 3.765625 C-5.01480991 6.02786601 -6.33825913 7.80576318 -8 9.75 C-8.515625 10.36359375 -9.03125 10.9771875 -9.5625 11.609375 C-11 13 -11 13 -13 13 C-11.3653947 7.79898315 -6.07346989 0 0 0 Z " fill="#DAF2F7" transform="translate(422,291)"/>
<path d="M0 0 C1.5 1.375 1.5 1.375 3 3 C3 3.66 3 4.32 3 5 C5.97 5.495 5.97 5.495 9 6 C9.33 8.31 9.66 10.62 10 13 C4.78311899 10.03586306 2.60919755 7.4191026 0 2 C0 1.34 0 0.68 0 0 Z " fill="#E46539" transform="translate(239,290)"/>
<path d="M0 0 C0.99 0 1.98 0 3 0 C3 5.61 3 11.22 3 17 C0.20041658 12.80062487 -0.11598878 10.90294562 -0.0625 5.875 C-0.05347656 4.77929688 -0.04445313 3.68359375 -0.03515625 2.5546875 C-0.02355469 1.71164062 -0.01195312 0.86859375 0 0 Z " fill="#C6E0E6" transform="translate(716,316)"/>
<path d="M0 0 C0.66 0 1.32 0 2 0 C1.67 5.61 1.34 11.22 1 17 C-1 15 -1 15 -1.23046875 11.77734375 C-1.20919922 9.87662109 -1.20919922 9.87662109 -1.1875 7.9375 C-1.18105469 6.66777344 -1.17460937 5.39804687 -1.16796875 4.08984375 C-1 1 -1 1 0 0 Z " fill="#FDE1CE" transform="translate(236,271)"/>
<path d="M0 0 C0 0.66 0 1.32 0 2 C-5.61 2 -11.22 2 -17 2 C-13.91271496 -0.05819003 -12.64024762 -0.35931563 -9.0625 -0.6875 C-7.78052734 -0.81705078 -7.78052734 -0.81705078 -6.47265625 -0.94921875 C-4.09047864 -0.99814183 -2.26490737 -0.69891573 0 0 Z " fill="#D7F2F7" transform="translate(529,277)"/>
<path d="M0 0 C4.62 0.66 9.24 1.32 14 2 C14 2.33 14 2.66 14 3 C10.04 3 6.08 3 2 3 C2 5.31 2 7.62 2 10 C1.67 10 1.34 10 1 10 C0.67 6.7 0.34 3.4 0 0 Z " fill="#73C3CB" transform="translate(158,242)"/>
<path d="M0 0 C-0.33 0.99 -0.66 1.98 -1 3 C-1.9590625 3.2165625 -1.9590625 3.2165625 -2.9375 3.4375 C-3.9584375 3.7159375 -3.9584375 3.7159375 -5 4 C-5.68486725 5.32407669 -6.34870203 6.65909241 -7 8 C-9.625 10.25 -9.625 10.25 -12 12 C-10.82763323 7.16398706 -5.40844892 0 0 0 Z " fill="#DAF2F8" transform="translate(733,293)"/>
<path d="M0 0 C0.763125 0.309375 1.52625 0.61875 2.3125 0.9375 C4.18789677 1.67893593 6.08684652 2.36228217 8 3 C8 3.66 8 4.32 8 5 C2.06 4.34 -3.88 3.68 -10 3 C-10 2.67 -10 2.34 -10 2 C-6.7 2 -3.4 2 0 2 C0 1.34 0 0.68 0 0 Z " fill="#C3E5EF" transform="translate(752,276)"/>
<path d="M0 0 C-2.92965912 2.92965912 -5.680053 3.94133569 -9.8125 4.125 C-10.534375 4.08375 -11.25625 4.0425 -12 4 C-12.33 3.34 -12.66 2.68 -13 2 C-11.21089097 1.47044766 -9.41860852 0.9516063 -7.625 0.4375 C-6.62726562 0.14746094 -5.62953125 -0.14257812 -4.6015625 -0.44140625 C-2 -1 -2 -1 0 0 Z " fill="#D4EFF5" transform="translate(945,361)"/>
<path d="M0 0 C0.66 0 1.32 0 2 0 C0.34643078 3.58273331 -1.67980703 6.80973467 -4 10 C-4.66 10 -5.32 10 -6 10 C-4.63312778 6.01328937 -2.84804907 3.11505367 0 0 Z " fill="#CFE8F0" transform="translate(501,295)"/>
<path d="M0 0 C0 0.99 0 1.98 0 3 C-1.28650706 3.69710731 -2.57940665 4.38242876 -3.875 5.0625 C-4.95394531 5.63677734 -4.95394531 5.63677734 -6.0546875 6.22265625 C-6.69664062 6.47917969 -7.33859375 6.73570312 -8 7 C-8.66 6.67 -9.32 6.34 -10 6 C-2.6 0 -2.6 0 0 0 Z " fill="#19667F" transform="translate(596,281)"/>
<path d="M0 0 C0.33 0.66 0.66 1.32 1 2 C2.98 2 4.96 2 7 2 C7.33 3.32 7.66 4.64 8 6 C7.01 6.495 7.01 6.495 6 7 C3 5.1875 3 5.1875 0 3 C0 2.01 0 1.02 0 0 Z " fill="#1B6284" transform="translate(248,370)"/>
<path d="M0 0 C0.33 0.99 0.66 1.98 1 3 C-1.33333333 5.33333333 -3.66666667 7.66666667 -6 10 C-6.99 9.67 -7.98 9.34 -9 9 C-6 6 -3 3 0 0 Z " fill="#E3FAFB" transform="translate(217,297)"/>
<path d="M0 0 C2.69082872 0.17635452 5.32851446 0.61835921 8 1 C4.71536341 3.18975773 1.79303725 3.99806563 -2 5 C-1.125 1.125 -1.125 1.125 0 0 Z " fill="#115F7D" transform="translate(826,288)"/>
<path d="M0 0 C0.33 0.66 0.66 1.32 1 2 C-2.78756477 5.61139896 -2.78756477 5.61139896 -5 7 C-7.875 6.8125 -7.875 6.8125 -10 6 C-7.99006295 3.99006295 -6.40788768 3.10059081 -3.875 1.875 C-3.15054688 1.52179688 -2.42609375 1.16859375 -1.6796875 0.8046875 C-1.12539063 0.53914063 -0.57109375 0.27359375 0 0 Z " fill="#D6EFF4" transform="translate(771,356)"/>
<path d="M0 0 C0 0.99 0 1.98 0 3 C-0.99 3.495 -0.99 3.495 -2 4 C-2.65213292 6.02463255 -2.65213292 6.02463255 -3 8 C-4.65 8 -6.3 8 -8 8 C-3.375 2.25 -3.375 2.25 0 0 Z " fill="#206782" transform="translate(411,284)"/>
<path d="M0 0 C1.10336858 3.31010574 1.13531135 5.6813976 0 9 C-2.05078125 10.1484375 -2.05078125 10.1484375 -4 11 C-3.52269162 9.5410574 -3.04308958 8.08286504 -2.5625 6.625 C-2.29566406 5.81289063 -2.02882813 5.00078125 -1.75390625 4.1640625 C-1 2 -1 2 0 0 Z " fill="#E3F4FA" transform="translate(364,306)"/>
<path d="M0 0 C0.33 0.66 0.66 1.32 1 2 C0.04060332 3.69036558 -0.96642853 5.35394174 -2 7 C-2.69822617 8.65369357 -3.37498605 10.31727014 -4 12 C-4.66 12 -5.32 12 -6 12 C-4.68139111 7.38486888 -2.78644563 3.90102388 0 0 Z " fill="#206580" transform="translate(402,292)"/>
<path d="M0 0 C0.33 0.66 0.66 1.32 1 2 C-1.65654657 5.73884332 -3.58110387 7.64978174 -8 9 C-7.04270084 7.87411986 -6.08412105 6.7493285 -5.125 5.625 C-4.59132813 4.99851562 -4.05765625 4.37203125 -3.5078125 3.7265625 C-2.38567993 2.44163349 -1.20628025 1.20628025 0 0 Z " fill="#1A627E" transform="translate(371,285)"/>
<path d="M0 0 C0.33 0 0.66 0 1 0 C1 2.64 1 5.28 1 8 C1.99 8.33 2.98 8.66 4 9 C2.68 10.32 1.36 11.64 0 13 C0 8.71 0 4.42 0 0 Z " fill="#B2E2EF" transform="translate(493,281)"/>
<path d="M0 0 C0.66 0.33 1.32 0.66 2 1 C0.02 2.98 -1.96 4.96 -4 7 C-4.99 6.67 -5.98 6.34 -7 6 C-4.69 4.02 -2.38 2.04 0 0 Z " fill="#E0F8FC" transform="translate(648,292)"/>
<path d="M0 0 C-5.28 -0.33 -10.56 -0.66 -16 -1 C-16 -1.33 -16 -1.66 -16 -2 C-13.89807303 -2.24887295 -11.79326036 -2.4734719 -9.6875 -2.6875 C-7.92986328 -2.87892578 -7.92986328 -2.87892578 -6.13671875 -3.07421875 C-3 -3 -3 -3 0 0 Z " fill="#D4F4F7" transform="translate(672,280)"/>
<path d="M0 0 C0.33 0.99 0.66 1.98 1 3 C-0.40445835 5.2636564 -2.1967913 7.0208685 -4 9 C-4.66 8.67 -5.32 8.34 -6 8 C-4.02 5.36 -2.04 2.72 0 0 Z " fill="#D9F2F6" transform="translate(782,344)"/>
<path d="M0 0 C1.46534385 3.80989402 0.55203911 6.3241179 -1 10 C-1.99 10.495 -1.99 10.495 -3 11 C-2.53199289 6.94393835 -2.12046792 3.53411321 0 0 Z " fill="#DEF5F9" transform="translate(720,305)"/>
<path d="M0 0 C0.33 0 0.66 0 1 0 C1.25 3.3125 1.25 3.3125 1 7 C-0.32 7.99 -1.64 8.98 -3 10 C-2.01 6.7 -1.02 3.4 0 0 Z " fill="#1E6782" transform="translate(1014,319)"/>
<path d="M0 0 C0.33 0 0.66 0 1 0 C1.36923077 5.53846154 1.36923077 5.53846154 -0.5 7.875 C-1.2425 8.431875 -1.2425 8.431875 -2 9 C-2.66 8.67 -3.32 8.34 -4 8 C-2.68 5.36 -1.36 2.72 0 0 Z " fill="#DDF9FA" transform="translate(222,288)"/>
<path d="M0 0 C5.75 3.625 5.75 3.625 8 7 C4.84859577 6.65930765 3.39218439 6.41923159 1.1875 4.0625 C0 2 0 2 0 0 Z " fill="#19637D" transform="translate(770,286)"/>
<path d="M0 0 C0.33 0.99 0.66 1.98 1 3 C0.01 4.485 0.01 4.485 -1 6 C-2.32 5.34 -3.64 4.68 -5 4 C-3.35 2.68 -1.7 1.36 0 0 Z " fill="#1D6385" transform="translate(900,286)"/>
<path d="M0 0 C0.33 0 0.66 0 1 0 C1 2.97 1 5.94 1 9 C1.66 9 2.32 9 3 9 C2.34 10.32 1.68 11.64 1 13 C0.67 13 0.34 13 0 13 C0 8.71 0 4.42 0 0 Z " fill="#AADFEE" transform="translate(813,281)"/>
<path d="M0 0 C0.99 0.66 1.98 1.32 3 2 C0.03 3.65 -2.94 5.3 -6 7 C-6 6.01 -6 5.02 -6 4 C-3 1.8125 -3 1.8125 0 0 Z " fill="#E0F6FA" transform="translate(905,280)"/>
<path d="M0 0 C4.61691161 0.52464905 6.09987886 1.07490914 10 4 C6.7 3.34 3.4 2.68 0 2 C0 1.34 0 0.68 0 0 Z " fill="#6AC3C7" transform="translate(195,249)"/>
<path d="M0 0 C0.66 0 1.32 0 2 0 C1.01 2.97 0.02 5.94 -1 9 C-1.92131287 5.3147485 -2.15237495 4.34188735 -1 1 C-0.67 0.67 -0.34 0.34 0 0 Z " fill="#1A627E" transform="translate(1011,352)"/>
<path d="M0 0 C0.91004613 3.07140568 1.33694826 5.79899154 1 9 C0.01 9.66 -0.98 10.32 -2 11 C-1.125 3.375 -1.125 3.375 0 0 Z " fill="#D7F2F7" transform="translate(639,301)"/>
<path d="M0 0 C4.31392226 0.4793247 6.16569547 1.7457985 9 5 C3.46153846 4.50769231 3.46153846 4.50769231 1.125 1.9375 C0.75375 1.298125 0.3825 0.65875 0 0 Z " fill="#D5F1F5" transform="translate(665,291)"/>
</svg>
