<?xml version="1.0" encoding="UTF-8"?>
<svg version="1.1" xmlns="http://www.w3.org/2000/svg" width="466" height="117">
<path d="M0 0 C0.98408592 -0.0098568 0.98408592 -0.0098568 1.98805237 -0.01991272 C4.14812359 -0.03953697 6.3081255 -0.05128626 8.46826172 -0.0612793 C9.2111935 -0.06535482 9.95412529 -0.06943035 10.71957016 -0.07362938 C14.65500352 -0.09444774 18.5904025 -0.1087655 22.52587891 -0.11816406 C26.5638752 -0.12919656 30.60131562 -0.16357145 34.63911629 -0.20333576 C37.76723155 -0.22964961 40.89521752 -0.23786905 44.02343369 -0.24144554 C45.51040255 -0.2462765 46.99736703 -0.2577892 48.48422623 -0.27648354 C58.90202226 -0.39928683 67.65102679 0.57048568 76.58544922 6.30200195 C83.59120607 13.79653254 86.36529794 20.74401938 86.44995117 30.90405273 C86.45652237 31.56011002 86.46309357 32.2161673 86.46986389 32.8921051 C86.48948814 35.05217632 86.50123744 37.21217824 86.51123047 39.37231445 C86.515306 40.11524624 86.51938152 40.85817802 86.52358055 41.62362289 C86.54439891 45.55905626 86.55871667 49.49445523 86.56811523 53.42993164 C86.57914773 57.46792793 86.61352262 61.50536835 86.65328693 65.54316902 C86.67960078 68.67128428 86.68782022 71.79927025 86.69139671 74.92748642 C86.69622768 76.41445529 86.70774037 77.90141976 86.72643471 79.38827896 C86.849238 89.806075 85.87946549 98.55507952 80.14794922 107.48950195 C72.65341863 114.49525881 65.7059318 117.26935067 55.54589844 117.35400391 C54.88984116 117.3605751 54.23378387 117.3671463 53.55784607 117.37391663 C51.39777485 117.39354087 49.23777293 117.40529017 47.07763672 117.4152832 C45.96323904 117.42139649 45.96323904 117.42139649 44.82632828 117.42763329 C40.89089492 117.44845164 36.95549594 117.46276941 33.02001953 117.47216797 C28.98202324 117.48320047 24.94458282 117.51757536 20.90678215 117.55733967 C17.77866689 117.58365351 14.65068092 117.59187296 11.52246475 117.59544945 C10.03549588 117.60028041 8.54853141 117.61179311 7.06167221 117.63048744 C-3.35612383 117.75329074 -12.10512835 116.78351823 -21.03955078 111.05200195 C-28.04530764 103.55747136 -30.8193995 96.60998453 -30.90405273 86.44995117 C-30.91062393 85.79389389 -30.91719513 85.13783661 -30.92396545 84.4618988 C-30.9435897 82.30182758 -30.955339 80.14182567 -30.96533203 77.98168945 C-30.96940756 77.23875767 -30.97348309 76.49582588 -30.97768211 75.73038101 C-30.99850047 71.79494765 -31.01281824 67.85954867 -31.0222168 63.92407227 C-31.0332493 59.88607597 -31.06762419 55.84863555 -31.1073885 51.81083488 C-31.13370234 48.68271962 -31.14192179 45.55473366 -31.14549828 42.42651749 C-31.15032924 40.93954862 -31.16184194 39.45258414 -31.18053627 37.96572495 C-31.30333957 27.54792891 -30.33356706 18.79892438 -24.60205078 9.86450195 C-17.10752019 2.8587451 -10.16003336 0.08465323 0 0 Z " fill="#16161B" transform="translate(30.72705078125,-0.177001953125)"/>
<path d="M0 0 C3.135 -0.0825 6.27 -0.165 9.5 -0.25 C10.47130859 -0.28641602 11.44261719 -0.32283203 12.44335938 -0.36035156 C18.43242407 -0.43588493 23.0565164 0.47373481 28 4 C30.71890069 7.54281 31.2116493 10.21939793 30.9375 14.5625 C30.45228299 17.93645084 30.04862597 18.94025952 27.8125 21.6875 C27.214375 22.450625 26.61625 23.21375 26 24 C26.41150153 26.91398245 26.41150153 26.91398245 28 30 C28.70856291 31.62489991 29.41688621 33.24990432 30.125 34.875 C30.74375 36.23625 31.3625 37.5975 32 39 C28.37 39 24.74 39 21 39 C16 29.25 16 29.25 16 27 C13.69 27 11.38 27 9 27 C9 30.96 9 34.92 9 39 C6.03 39 3.06 39 0 39 C0 26.13 0 13.26 0 0 Z M9 8 C9 11.63 9 15.26 9 19 C15.39825263 19.47326369 15.39825263 19.47326369 21 17 C21.41666667 13.5 21.41666667 13.5 21 10 C19.18806994 7.75675164 19.18806994 7.75675164 16.6171875 7.8046875 C15.71226562 7.82789063 14.80734375 7.85109375 13.875 7.875 C12.26625 7.91625 10.6575 7.9575 9 8 Z " fill="#191C1F" transform="translate(142,18)"/>
<path d="M0 0 C2.64 0 5.28 0 8 0 C8.33 3.96 8.66 7.92 9 12 C9.99 11.34 10.98 10.68 12 10 C17.57604492 9.54294714 21.2230171 9.77831386 26 13 C29.71699029 17.2296786 30.13640778 22.54368876 30 28 C29.19065576 31.81548 27.48280171 34.46039809 24.875 37.375 C20.97132769 39.58142348 17.47374918 40.23546048 13 40 C9.4375 38.5625 9.4375 38.5625 7 37 C7 37.66 7 38.32 7 39 C4.69 39 2.38 39 0 39 C0 26.13 0 13.26 0 0 Z M10.3125 19.125 C7.77494218 21.79608855 7.77494218 21.79608855 7.5 25.0625 C8.05129265 28.3013443 8.64494497 29.72905408 11 32 C12.84267868 33.08568503 12.84267868 33.08568503 15 33 C18.69759178 31.23136411 18.69759178 31.23136411 21 28 C21.50095023 25.12693772 21.50095023 25.12693772 21 22 C18.81197419 19.06145926 18.81197419 19.06145926 16 17 C12.82118821 16.68988221 12.82118821 16.68988221 10.3125 19.125 Z " fill="#191C1F" transform="translate(210,18)"/>
<path d="M0 0 C1.38349388 0.01273453 1.38349388 0.01273453 2.79493713 0.02572632 C5.71998501 0.05912071 8.64220206 0.13437126 11.56640625 0.2109375 C13.55790269 0.24105526 15.54944266 0.26842789 17.54101562 0.29296875 C22.40472454 0.35886601 27.2663367 0.46228867 32.12890625 0.5859375 C32.33512984 4.80468304 32.37886716 6.21456701 29.94140625 9.8359375 C25.38201423 14.2940097 21.61290297 14.81369098 15.46379089 14.81253052 C14.61464615 14.80220795 13.7655014 14.79188538 12.890625 14.78125 C11.56947441 14.77700516 11.56947441 14.77700516 10.22163391 14.77267456 C7.4197508 14.76151583 4.61819209 14.73641921 1.81640625 14.7109375 C-0.087886 14.70090213 -1.99218327 14.69177725 -3.89648438 14.68359375 C-8.55481172 14.66159059 -13.21289781 14.62709044 -17.87109375 14.5859375 C-17.78641193 9.67439191 -17.53905346 6.62600334 -13.92553711 3.12255859 C-9.48062044 -0.21503093 -5.39202321 -0.18919596 0 0 Z " fill="#FDFDFD" transform="translate(49.87109375,49.4140625)"/>
<path d="M0 0 C5.85315939 -0.14883824 11.70520644 -0.2574473 17.55981445 -0.32958984 C19.54926757 -0.3596767 21.53858898 -0.40055754 23.52758789 -0.45263672 C26.39502515 -0.52581125 29.26070244 -0.55953679 32.12890625 -0.5859375 C33.01147598 -0.61690521 33.89404572 -0.64787292 34.80335999 -0.67977905 C40.57984102 -0.68289423 43.54049314 0.49213625 47.71812439 4.51278687 C50.36453966 7.58311875 50.08562396 10.06129786 50 14 C44.27088428 14.09913284 38.54227161 14.1715934 32.8125 14.21972656 C30.86482034 14.23979906 28.91720063 14.26706332 26.96972656 14.30175781 C24.16456279 14.35046852 21.36019813 14.37301241 18.5546875 14.390625 C17.68883026 14.41127014 16.82297302 14.43191528 15.93087769 14.45318604 C10.4507672 14.45520417 7.34094359 13.66553617 3 10 C0.29488763 6.48335392 -0.13071395 4.34986982 0 0 Z " fill="#FDFDFD" transform="translate(32,28)"/>
<path d="M0 0 C4.38683116 2.24941768 6.42070317 4.69570326 7.9609375 9.31640625 C7.9609375 11.62640625 7.9609375 13.93640625 7.9609375 16.31640625 C1.0309375 16.31640625 -5.8990625 16.31640625 -13.0390625 16.31640625 C-12.3790625 17.63640625 -11.7190625 18.95640625 -11.0390625 20.31640625 C-7.97731014 20.97249604 -5.16684866 21.31640625 -2.0390625 21.31640625 C-1.7090625 20.32640625 -1.3790625 19.33640625 -1.0390625 18.31640625 C1.6009375 18.31640625 4.2409375 18.31640625 6.9609375 18.31640625 C6.48093609 22.63641891 5.34590341 24.58962816 1.9609375 27.31640625 C-2.08208176 29.50182207 -5.48594289 29.77943536 -10.0390625 29.31640625 C-14.82380246 27.60694114 -18.3372707 25.73679342 -21.0390625 21.31640625 C-22.26399181 16.6880341 -22.63548452 11.96991987 -20.9140625 7.44140625 C-16.32456163 -0.20776187 -8.44700878 -2.8318516 0 0 Z M-10.0390625 6.31640625 C-10.6990625 7.63640625 -11.3590625 8.95640625 -12.0390625 10.31640625 C-8.4090625 10.31640625 -4.7790625 10.31640625 -1.0390625 10.31640625 C-1.6990625 8.99640625 -2.3590625 7.67640625 -3.0390625 6.31640625 C-5.3490625 6.31640625 -7.6590625 6.31640625 -10.0390625 6.31640625 Z " fill="#191C1F" transform="translate(278.0390625,28.68359375)"/>
<path d="M0 0 C2.60278932 1.73519288 4.09741488 3.03429312 5.625 5.75 C5.625 6.74 5.625 7.73 5.625 8.75 C-2.10506135 9.13650307 -2.10506135 9.13650307 -6.375 5.75 C-9.04640463 5.81709284 -9.04640463 5.81709284 -11.375 6.75 C-11.705 7.41 -12.035 8.07 -12.375 8.75 C-11.05435547 8.89695312 -11.05435547 8.89695312 -9.70703125 9.046875 C-8.54558594 9.19640625 -7.38414062 9.3459375 -6.1875 9.5 C-4.46466797 9.70882812 -4.46466797 9.70882812 -2.70703125 9.921875 C1.05096459 10.85586693 2.93734442 11.98271018 5.625 14.75 C6.48923634 17.49837893 6.24702166 19.95090253 5.625 22.75 C3.22080413 26.13368307 0.59246466 27.64280056 -3.375 28.75 C-8.86097164 29.26754449 -13.58568624 28.4790459 -18.375 25.75 C-20.7332726 22.80215925 -21.375 21.52583766 -21.375 17.75 C-18.735 17.75 -16.095 17.75 -13.375 17.75 C-13.045 18.74 -12.715 19.73 -12.375 20.75 C-9.405 20.75 -6.435 20.75 -3.375 20.75 C-3.375 20.09 -3.375 19.43 -3.375 18.75 C-4.26703125 18.57984375 -5.1590625 18.4096875 -6.078125 18.234375 C-7.24859375 17.99203125 -8.4190625 17.7496875 -9.625 17.5 C-10.78515625 17.26796875 -11.9453125 17.0359375 -13.140625 16.796875 C-16.64578111 15.66235587 -18.15124442 14.65218948 -20.375 11.75 C-20.9375 8.3125 -20.9375 8.3125 -20.375 4.75 C-14.95481955 -1.98860273 -7.91013182 -2.92967845 0 0 Z " fill="#191C1F" transform="translate(309.375,29.25)"/>
<path d="M0 0 C2.64 0 5.28 0 8 0 C8.06058594 1.26457031 8.12117187 2.52914063 8.18359375 3.83203125 C8.26800904 5.49219871 8.35265655 7.15235437 8.4375 8.8125 C8.47681641 9.64587891 8.51613281 10.47925781 8.55664062 11.33789062 C8.61948242 12.54155273 8.61948242 12.54155273 8.68359375 13.76953125 C8.72025146 14.50792236 8.75690918 15.24631348 8.79467773 16.00708008 C8.94842141 18.207495 8.94842141 18.207495 10 21 C12.91634129 21.2502157 12.91634129 21.2502157 16 21 C18.0140956 17.9788566 18.26836596 17.19339983 18.4140625 13.76953125 C18.45273438 12.96708984 18.49140625 12.16464844 18.53125 11.33789062 C18.57765625 10.08782227 18.57765625 10.08782227 18.625 8.8125 C18.66367188 7.96751953 18.70234375 7.12253906 18.7421875 6.25195312 C18.83636279 4.16832476 18.91926675 2.08419247 19 0 C21.64 0 24.28 0 27 0 C27 9.57 27 19.14 27 29 C23.66666667 29 20.33333333 29 17 29 C15.54128569 29.226729 14.08298279 29.45611365 12.625 29.6875 C9.42957757 30.05061618 8.17233177 30.07118051 5.125 28.8125 C2.15913562 26.28279215 0.18617505 24.40238523 -0.34057617 20.43457031 C-0.32486572 19.49194336 -0.30915527 18.54931641 -0.29296875 17.578125 C-0.28330078 16.55332031 -0.27363281 15.52851562 -0.26367188 14.47265625 C-0.23853516 13.40917969 -0.21339844 12.34570312 -0.1875 11.25 C-0.17396484 10.17105469 -0.16042969 9.09210937 -0.14648438 7.98046875 C-0.11116584 5.3198058 -0.06184199 2.66015704 0 0 Z " fill="#191C1F" transform="translate(177,28)"/>
<path d="M0 0 C19.69706059 -0.80578884 19.69706059 -0.80578884 27 5.8125 C28.40430547 8.88441822 28.06204945 11.66096393 28 15 C24.95736733 15.10845027 21.91863796 15.18752063 18.875 15.25 C18.0190625 15.28351563 17.163125 15.31703125 16.28125 15.3515625 C10.65108551 15.43818042 7.45035771 14.79671142 3 11 C0.01480985 7.21875915 -0.11693686 4.71645354 0 0 Z " fill="#F6F6F6" transform="translate(54,71)"/>
<path d="M0 0 C0.75460007 -0.0033284 1.50920013 -0.0066568 2.28666687 -0.01008606 C3.88112785 -0.01513987 5.47559937 -0.01749486 7.07006836 -0.01733398 C9.49285613 -0.01951428 11.9151837 -0.03766895 14.33789062 -0.05664062 C15.89192554 -0.05957623 17.4459626 -0.06155991 19 -0.0625 C20.07535759 -0.07327827 20.07535759 -0.07327827 21.17243958 -0.08427429 C27.32987862 -0.0567106 32.81132658 1.15074913 38.19921875 4.16796875 C38.19921875 4.82796875 38.19921875 5.48796875 38.19921875 6.16796875 C38.85921875 6.16796875 39.51921875 6.16796875 40.19921875 6.16796875 C42.28823072 9.56261321 42.54283481 12.21638404 42.19921875 16.16796875 C39.86313783 18.50404967 39.37888513 18.4391735 36.21191406 18.55029297 C35.39055969 18.58307343 34.56920532 18.61585388 33.72296143 18.64962769 C32.83340759 18.67372711 31.94385376 18.69782654 31.02734375 18.72265625 C30.1121698 18.75150909 29.19699585 18.78036194 28.25408936 18.81008911 C26.3140709 18.86722135 24.37388801 18.9189812 22.43359375 18.96582031 C19.47411403 19.04232519 16.51697273 19.15119892 13.55859375 19.26171875 C11.67323058 19.31319604 9.78781336 19.36273748 7.90234375 19.41015625 C7.02088684 19.44640106 6.13942993 19.48264587 5.23126221 19.51998901 C-0.31650535 19.61223966 -3.3984611 18.88001471 -7.80078125 15.16796875 C-11.72427276 10.70330599 -11.91083541 7.000839 -11.80078125 1.16796875 C-7.92279576 -0.0871339 -4.0306451 0.00620406 0 0 Z M-9.80078125 3.16796875 C-9.18689977 8.44486911 -8.6269475 11.3418025 -4.80078125 15.16796875 C-1.95532205 16.87321372 0.11493754 17.41540258 3.41699219 17.39501953 C4.23754089 17.39486847 5.0580896 17.39471741 5.90350342 17.39456177 C6.77968323 17.3842392 7.65586304 17.37391663 8.55859375 17.36328125 C9.4629718 17.36045135 10.36734985 17.35762146 11.2991333 17.35470581 C14.1826307 17.34352657 17.0658155 17.31842608 19.94921875 17.29296875 C21.90624551 17.28293603 23.86327714 17.27381069 25.8203125 17.265625 C30.61340137 17.2435946 35.40625709 17.20908019 40.19921875 17.16796875 C40.36333242 11.69516135 40.36333242 11.69516135 37.32421875 7.35546875 C36.79054687 6.77152344 36.256875 6.18757813 35.70703125 5.5859375 C33.18889429 3.21784497 31.46554188 3.04441688 28.11669922 3.05444336 C27.2759787 3.05451889 26.43525818 3.05459442 25.56906128 3.05467224 C24.66068512 3.05983353 23.75230896 3.06499481 22.81640625 3.0703125 C21.88700226 3.07172745 20.95759827 3.0731424 20.00003052 3.07460022 C17.02472751 3.08020822 14.04949911 3.09276207 11.07421875 3.10546875 C9.05989692 3.11048272 7.04557391 3.1150458 5.03125 3.11914062 C0.08721073 3.13018025 -4.8567726 3.14745026 -9.80078125 3.16796875 Z " fill="#434346" transform="translate(41.80078125,24.83203125)"/>
<path d="M0 0 C2.64 0 5.28 0 8 0 C8 9.57 8 19.14 8 29 C5.36 29 2.72 29 0 29 C0 19.43 0 9.86 0 0 Z " fill="#191B1F" transform="translate(244,28)"/>
<path d="M0 0 C0.85241272 0.00045822 1.70482544 0.00091644 2.58306885 0.00138855 C4.37489219 0.00439676 6.16671326 0.01223991 7.95849609 0.0246582 C10.70810133 0.04300195 13.45737098 0.04516707 16.20703125 0.04492188 C17.95052376 0.04983439 19.69401398 0.05566154 21.4375 0.0625 C22.2614325 0.06361282 23.08536499 0.06472565 23.93426514 0.06587219 C29.72091963 0.11436606 29.72091963 0.11436606 31.953125 1.23046875 C33.10885608 5.44063195 33.33552994 7.48036675 31.328125 11.41796875 C29.00807156 14.16540045 27.0048134 16.3231635 23.953125 18.23046875 C21.640625 17.98046875 21.640625 17.98046875 19.953125 17.23046875 C21.79457157 16.0028377 23.64660646 14.79070002 25.515625 13.60546875 C28.05329099 11.13287112 28.38086397 10.37447508 29.10546875 7.08203125 C29.38519531 5.81101562 29.66492188 4.54 29.953125 3.23046875 C24.08086824 3.24991331 18.21010499 3.30170546 12.33837891 3.38305664 C10.342368 3.40620583 8.34623549 3.42062512 6.35009766 3.42602539 C3.47481775 3.43533746 0.60144249 3.47637691 -2.2734375 3.5234375 C-3.16116852 3.51950485 -4.04889954 3.5155722 -4.96353149 3.51152039 C-9.22896709 3.6112164 -12.14320726 3.85641937 -15.53271484 6.5871582 C-18.1237628 9.16000095 -18.1237628 9.16000095 -20.046875 12.23046875 C-20.376875 11.24046875 -20.706875 10.25046875 -21.046875 9.23046875 C-20.04296875 7.4765625 -20.04296875 7.4765625 -18.484375 5.66796875 C-17.98808594 5.06855469 -17.49179687 4.46914063 -16.98046875 3.8515625 C-12.03941284 -0.29093892 -6.10298256 -0.05375235 0 0 Z " fill="#434347" transform="translate(52.046875,46.76953125)"/>
<path d="M0 0 C1.32 0 2.64 0 4 0 C5.484375 1.6796875 5.484375 1.6796875 6.75 3.875 C7.39195312 4.95394531 7.39195312 4.95394531 8.046875 6.0546875 C9 8 9 8 9 10 C9.66 10 10.32 10 11 10 C11.268125 9.278125 11.53625 8.55625 11.8125 7.8125 C13.01531675 4.96372348 14.15327038 2.48598219 16 0 C17.32 0 18.64 0 20 0 C20 6.27 20 12.54 20 19 C19.01 19 18.02 19 17 19 C16.67 15.37 16.34 11.74 16 8 C14.02 10.97 14.02 10.97 12 14 C9.6875 13.8125 9.6875 13.8125 7 13 C5.1875 10.4375 5.1875 10.4375 4 8 C3.67 11.63 3.34 15.26 3 19 C2.01 19 1.02 19 0 19 C0 12.73 0 6.46 0 0 Z " fill="#697582" transform="translate(142,81)"/>
<path d="M0 0 C1.5675 -0.061875 3.135 -0.12375 4.75 -0.1875 C6.07257813 -0.23970703 6.07257813 -0.23970703 7.421875 -0.29296875 C10.44671583 0.05076316 11.75583602 1.00227459 14 3 C13.814375 4.134375 13.62875 5.26875 13.4375 6.4375 C13.2209375 8.2009375 13.2209375 8.2009375 13 10 C13.33 10.33 13.66 10.66 14 11 C14.1875 13.9375 14.1875 13.9375 14 17 C12 19 12 19 9.1796875 19.1953125 C6.11979167 19.13020833 3.05989583 19.06510417 0 19 C0 12.73 0 6.46 0 0 Z M3 3 C3 4.65 3 6.3 3 8 C5.31 8 7.62 8 10 8 C10.33 7.01 10.66 6.02 11 5 C9.10244856 2.65026182 9.10244856 2.65026182 5.875 2.875 C4.92625 2.91625 3.9775 2.9575 3 3 Z M3 11 C3 12.65 3 14.3 3 16 C5.31 16 7.62 16 10 16 C10.59070014 14.05396726 10.59070014 14.05396726 11 12 C9.81575674 10.58422523 9.81575674 10.58422523 6.4375 10.9375 C4.7359375 10.9684375 4.7359375 10.9684375 3 11 Z " fill="#697582" transform="translate(388,81)"/>
<path d="M0 0 C4.88147688 1.22036922 5.46258112 2.52074263 8.25 6.5625 C8.95640625 7.57441406 9.6628125 8.58632812 10.390625 9.62890625 C10.92171875 10.41136719 11.4528125 11.19382812 12 12 C12.33 8.04 12.66 4.08 13 0 C13.99 0 14.98 0 16 0 C16 6.27 16 12.54 16 19 C14.68 19 13.36 19 12 19 C9.859375 16.59375 9.859375 16.59375 7.75 13.5 C7.04359375 12.4790625 6.3371875 11.458125 5.609375 10.40625 C5.07828125 9.6121875 4.5471875 8.818125 4 8 C3.67 11.63 3.34 15.26 3 19 C2.01 19 1.02 19 0 19 C0 12.73 0 6.46 0 0 Z " fill="#6A7582" transform="translate(273,81)"/>
<path d="M0 0 C4.7058812 1.1764703 5.39507754 2.30351876 8.25 6.0625 C8.95640625 6.98160156 9.6628125 7.90070313 10.390625 8.84765625 C10.92171875 9.55792969 11.4528125 10.26820312 12 11 C12.33 7.37 12.66 3.74 13 0 C13.99 0 14.98 0 16 0 C16 6.27 16 12.54 16 19 C11.11852312 17.77963078 10.53741888 16.47925737 7.75 12.4375 C7.04359375 11.42558594 6.3371875 10.41367188 5.609375 9.37109375 C5.07828125 8.58863281 4.5471875 7.80617188 4 7 C3.67 10.96 3.34 14.92 3 19 C2.01 19 1.02 19 0 19 C0 12.73 0 6.46 0 0 Z " fill="#697582" transform="translate(428,81)"/>
<path d="M0 0 C4.6 2.2 4.6 2.2 6 5 C6.65157772 9.73790088 6.65620107 12.99519212 4 17.0625 C0.15043788 19.54867554 -2.54150049 19.94574232 -7 19 C-10.00697829 17.46452173 -11.53577667 16.38113648 -12.62890625 13.12890625 C-13.27092057 9.55390019 -13.21701031 7.49912371 -11.75 4.125 C-8.1848005 -0.20417082 -5.39444547 -0.4650384 0 0 Z M-7.8125 4.25 C-9.19559099 6.28823936 -9.78263554 7.53653608 -10 10 C-9.27587495 12.6859613 -9.27587495 12.6859613 -8 15 C-5.20129973 16.39935013 -3.09501208 16.25265405 0 16 C2 15 2 15 3 13 C3.42454541 9.67439432 3.31414524 7.66319551 1.875 4.625 C0.02736015 2.7287461 0.02736015 2.7287461 -3 2.5625 C-5.94715536 2.76608522 -5.94715536 2.76608522 -7.8125 4.25 Z " fill="#697582" transform="translate(232,81)"/>
<path d="M0 0 C4.88147688 1.22036922 5.46258112 2.52074263 8.25 6.5625 C8.95640625 7.57441406 9.6628125 8.58632812 10.390625 9.62890625 C10.92171875 10.41136719 11.4528125 11.19382812 12 12 C12.33 8.04 12.66 4.08 13 0 C13.99 0 14.98 0 16 0 C16 6.27 16 12.54 16 19 C14.68 19 13.36 19 12 19 C9.859375 16.59375 9.859375 16.59375 7.75 13.5 C7.04359375 12.4790625 6.3371875 11.458125 5.609375 10.40625 C5.07828125 9.6121875 4.5471875 8.818125 4 8 C3.67 11.63 3.34 15.26 3 19 C2.01 19 1.02 19 0 19 C0 12.73 0 6.46 0 0 Z " fill="#697582" transform="translate(316,81)"/>
<path d="M0 0 C1.5675 -0.061875 3.135 -0.12375 4.75 -0.1875 C6.07257813 -0.23970703 6.07257813 -0.23970703 7.421875 -0.29296875 C10.51205282 0.05818782 11.81735287 0.80731771 14 3 C14.75336323 9.02690583 14.75336323 9.02690583 12.5 11.9375 C12.005 12.288125 11.51 12.63875 11 13 C12.98 15.97 12.98 15.97 15 19 C11.3967764 18.69973137 10.27135597 18.31924232 7.875 15.5 C7.25625 14.675 6.6375 13.85 6 13 C5.01 12.67 4.02 12.34 3 12 C3 14.31 3 16.62 3 19 C2.01 19 1.02 19 0 19 C0 12.73 0 6.46 0 0 Z M3 3 C3 4.98 3 6.96 3 9 C5.31 9 7.62 9 10 9 C10.38218767 7.34385343 10.71395102 5.67542976 11 4 C9.81575674 2.58422523 9.81575674 2.58422523 6.4375 2.9375 C4.7359375 2.9684375 4.7359375 2.9684375 3 3 Z " fill="#697582" transform="translate(200,81)"/>
<path d="M0 0 C4.29 0 8.58 0 13 0 C13 0.99 13 1.98 13 3 C9.7 3 6.4 3 3 3 C3 4.65 3 6.3 3 8 C6.3 8 9.6 8 13 8 C13 8.99 13 9.98 13 11 C9.7 11 6.4 11 3 11 C3 12.65 3 14.3 3 16 C6.63 16 10.26 16 14 16 C14 16.99 14 17.98 14 19 C9.38 19 4.76 19 0 19 C0 12.73 0 6.46 0 0 Z " fill="#697582" transform="translate(360,81)"/>
<path d="M0 0 C2.375 0.75 2.375 0.75 4 2 C4.75 4.125 4.75 4.125 5 6 C1.125 5.125 1.125 5.125 0 4 C-2.95817107 3.74994614 -2.95817107 3.74994614 -6 4 C-8.37994368 5.94332332 -8.37994368 5.94332332 -8.25 9.5 C-8.37994368 13.05667668 -8.37994368 13.05667668 -6 15 C-2.04841529 15.34361606 0.60535554 15.08901197 4 13 C4 14.32 4 15.64 4 17 C0.2951856 19.46987627 -2.7034072 19.66165854 -7 19 C-9.9375 17.4375 -9.9375 17.4375 -12 15 C-13.22575053 10.86309196 -13.27765284 8.73578003 -11.75 4.6875 C-8.51283249 -0.28386439 -5.62256294 -0.39456582 0 0 Z " fill="#697582" transform="translate(190,81)"/>
<path d="M0 0 C0.99 0 1.98 0 3 0 C3 2.64 3 5.28 3 8 C3.99 8 4.98 8 6 8 C6.268125 7.4225 6.53625 6.845 6.8125 6.25 C8.05085045 3.90365177 9.19121484 1.94792248 11 0 C12.32 0 13.64 0 15 0 C13.34832443 3.5786304 11.21713508 6.74820188 9 10 C9.433125 10.48210937 9.86625 10.96421875 10.3125 11.4609375 C10.869375 12.09257813 11.42625 12.72421875 12 13.375 C12.8353125 14.31472656 12.8353125 14.31472656 13.6875 15.2734375 C15 17 15 17 15 19 C11 19 11 19 9.3671875 17.50390625 C8.62855469 16.54291016 8.62855469 16.54291016 7.875 15.5625 C5.81128519 12.83429715 5.81128519 12.83429715 3 11 C3 13.64 3 16.28 3 19 C2.01 19 1.02 19 0 19 C0 12.73 0 6.46 0 0 Z " fill="#697582" transform="translate(451,81)"/>
<path d="M0 0 C2.5 1.3125 2.5 1.3125 4 3 C4 3.99 4 4.98 4 6 C0.125 5.125 0.125 5.125 -1 4 C-3.95817107 3.74994614 -3.95817107 3.74994614 -7 4 C-9.37994368 5.94332332 -9.37994368 5.94332332 -9.25 9.5 C-9.37994368 13.05667668 -9.37994368 13.05667668 -7 15 C-3.04841529 15.34361606 -0.39464446 15.08901197 3 13 C3 14.32 3 15.64 3 17 C-0.68070204 19.45380136 -3.72574782 19.81652381 -8 19 C-11.0002525 16.76576942 -12.5516288 15.0648816 -14 11.625 C-14 7.86112694 -12.74270569 5.29869292 -11 2 C-7.30628421 -0.46247719 -4.28710603 -0.56931388 0 0 Z " fill="#697582" transform="translate(351,81)"/>
<path d="M0 0 C1.87988281 0.24780273 1.87988281 0.24780273 4 1 C5.09667969 2.76586914 5.09667969 2.76586914 5.921875 5.03515625 C6.22480469 5.84404297 6.52773438 6.65292969 6.83984375 7.48632812 C7.14019531 8.33646484 7.44054687 9.18660156 7.75 10.0625 C8.22373047 11.34350586 8.22373047 11.34350586 8.70703125 12.65039062 C9.48567191 14.76215849 10.24916297 16.87822066 11 19 C9.68 19 8.36 19 7 19 C6.67 17.35 6.34 15.7 6 14 C1.94914321 14.24631557 1.94914321 14.24631557 -2 15 C-3.5899433 16.92064793 -3.5899433 16.92064793 -4 19 C-4.99 19 -5.98 19 -7 19 C-6.33392561 14.59041892 -4.73375271 10.73427814 -2.9375 6.6875 C-2.65583984 6.04232422 -2.37417969 5.39714844 -2.08398438 4.73242188 C-1.3937257 3.15301642 -0.69746802 1.57623507 0 0 Z M1 5 C0.34 6.98 -0.32 8.96 -1 11 C0.65 11 2.3 11 4 11 C3.34 9.02 2.68 7.04 2 5 C1.67 5 1.34 5 1 5 Z " fill="#697582" transform="translate(413,81)"/>
<path d="M0 0 C0.99 0 1.98 0 3 0 C4.1734316 2.60130627 5.33892508 5.20568508 6.5 7.8125 C6.83386719 8.55048828 7.16773438 9.28847656 7.51171875 10.04882812 C7.82753906 10.76103516 8.14335937 11.47324219 8.46875 12.20703125 C8.90864258 13.18893433 8.90864258 13.18893433 9.35742188 14.19067383 C10 16 10 16 10 19 C8.0625 18.6875 8.0625 18.6875 6 18 C5.67 17.01 5.34 16.02 5 15 C2.36 14.67 -0.28 14.34 -3 14 C-3.33 15.65 -3.66 17.3 -4 19 C-5.32 18.67 -6.64 18.34 -8 18 C-6.85718854 15.18623705 -5.71091259 12.37397584 -4.5625 9.5625 C-4.23701172 8.76005859 -3.91152344 7.95761719 -3.57617188 7.13085938 C-3.10727539 5.98520508 -3.10727539 5.98520508 -2.62890625 4.81640625 C-2.34088135 4.10943604 -2.05285645 3.40246582 -1.75610352 2.67407227 C-1 1 -1 1 0 0 Z M1 5 C0.34 6.98 -0.32 8.96 -1 11 C0.65 11 2.3 11 4 11 C3.34 9.02 2.68 7.04 2 5 C1.67 5 1.34 5 1 5 Z " fill="#697582" transform="translate(301,81)"/>
<path d="M0 0 C4.29 0 8.58 0 13 0 C13 0.99 13 1.98 13 3 C9.7 3 6.4 3 3 3 C3 4.65 3 6.3 3 8 C6.3 8 9.6 8 13 8 C13 8.99 13 9.98 13 11 C9.7 11 6.4 11 3 11 C3 13.64 3 16.28 3 19 C2.01 19 1.02 19 0 19 C0 12.73 0 6.46 0 0 Z " fill="#697582" transform="translate(244,81)"/>
<path d="M0 0 C0.33 0 0.66 0 1 0 C1 2.31 1 4.62 1 7 C14.53 7 28.06 7 42 7 C42.495 7.99 42.495 7.99 43 9 C36.8944529 9.02464513 30.78893449 9.04283371 24.68334961 9.05493164 C22.60456844 9.05997288 20.52579084 9.06680574 18.44702148 9.07543945 C15.46597414 9.08751422 12.48497351 9.09323024 9.50390625 9.09765625 C8.10078941 9.10539818 8.10078941 9.10539818 6.66932678 9.11329651 C5.37810158 9.11340981 5.37810158 9.11340981 4.06079102 9.11352539 C3.29912125 9.115746 2.53745148 9.11796661 1.75270081 9.12025452 C0 9 0 9 -1 8 C-1.125 4.5 -1.125 4.5 -1 1 C-0.67 0.67 -0.34 0.34 0 0 Z " fill="#232328" transform="translate(31,57)"/>
<path d="M0 0 C0.66 0 1.32 0 2 0 C2.14695313 0.60328125 2.29390625 1.2065625 2.4453125 1.828125 C2.78175781 3.02695312 2.78175781 3.02695312 3.125 4.25 C3.33382812 5.03890625 3.54265625 5.8278125 3.7578125 6.640625 C5.57026158 10.08313835 7.57433389 11.15979756 11 13 C14.18712783 13.58119372 17.32080921 13.60478618 20.5546875 13.609375 C21.45623566 13.62591125 22.35778381 13.64244751 23.28665161 13.65948486 C26.14950457 13.70784103 29.0118268 13.72930816 31.875 13.75 C33.82294319 13.77817006 35.77086179 13.80809893 37.71875 13.83984375 C42.47912295 13.91359666 47.23920343 13.96324688 52 14 C52 14.33 52 14.66 52 15 C46.12910869 15.2424287 40.2580861 15.45727796 34.38525391 15.64697266 C32.38888861 15.71529919 30.39276322 15.79106745 28.39697266 15.87451172 C25.52277327 15.99337497 22.6487649 16.08516848 19.7734375 16.171875 C18.44184097 16.23565338 18.44184097 16.23565338 17.08334351 16.30072021 C11.49729257 16.43580129 8.44431685 15.72715587 4 12 C0.3732597 8.49831971 0.40226924 4.82723083 0 0 Z " fill="#37373B" transform="translate(30,28)"/>
<path d="M0 0 C3 0.25 3 0.25 5 2.25 C5.25 4.75 5.25 4.75 5 7.25 C3 9.25 3 9.25 0 9.5 C-3 9.25 -3 9.25 -5 7.25 C-5.25 4.75 -5.25 4.75 -5 2.25 C-3 0.25 -3 0.25 0 0 Z " fill="#191C1F" transform="translate(248,16.75)"/>
<path d="M0 0 C1.32 0 2.64 0 4 0 C4 6.27 4 12.54 4 19 C2.68 19 1.36 19 0 19 C0 12.73 0 6.46 0 0 Z " fill="#6A7682" transform="translate(168,81)"/>
<path d="M0 0 C0.99 0 1.98 0 3 0 C3 6.27 3 12.54 3 19 C2.01 19 1.02 19 0 19 C0 12.73 0 6.46 0 0 Z " fill="#697582" transform="translate(263,81)"/>
<path d="M0 0 C5.44886576 1.26717808 7.97896591 3.29074098 11 8 C11.3125 11.875 11.3125 11.875 11 15 C10.01 15.495 10.01 15.495 9 16 C8.938125 14.948125 8.87625 13.89625 8.8125 12.8125 C7.84575542 8.27623698 6.58833167 6.85435474 3 4 C0.33466965 2.680982 0.33466965 2.680982 -2 2 C-1.34 1.34 -0.68 0.68 0 0 Z " fill="#303035" transform="translate(73,70)"/>
<path d="M0 0 C0.66 0.33 1.32 0.66 2 1 C2.45703125 2.92578125 2.45703125 2.92578125 2.8125 5.3125 C3.52232515 8.88434014 3.82041404 9.82041404 6.5 12.5 C8.88495525 13.9744345 8.88495525 13.9744345 11 15 C11 15.66 11 16.32 11 17 C6.03602813 15.75900703 3.67825877 14.39999655 1 10 C0.04307658 7.30509676 -0.48774887 4.84066534 -1 2 C-0.67 1.34 -0.34 0.68 0 0 Z " fill="#2B2B2F" transform="translate(52,70)"/>
<path d="M0 0 C0.99 0.33 1.98 0.66 3 1 C3 1.66 3 2.32 3 3 C3.66 3 4.32 3 5 3 C7.09350689 6.4019487 7.17942163 9.05272412 7 13 C6.01 13.495 6.01 13.495 5 14 C4.731875 12.741875 4.46375 11.48375 4.1875 10.1875 C3.38113763 6.89243652 2.60038262 5.24578499 0 3 C0 2.01 0 1.02 0 0 Z " fill="#3C3C40" transform="translate(77,28)"/>
<path d="M0 0 C0.66 0 1.32 0 2 0 C1.74658809 3.42106076 0.69217816 4.30782184 -1.8125 6.8125 C-5 9 -5 9 -7.375 8.8125 C-7.91125 8.544375 -8.4475 8.27625 -9 8 C-8.01 7.34 -7.02 6.68 -6 6 C-2.46321928 3.45954713 -2.46321928 3.45954713 0 0 Z " fill="#313136" transform="translate(81,56)"/>
<path d="M0 0 C0.99 0.33 1.98 0.66 3 1 C2.236875 1.7425 1.47375 2.485 0.6875 3.25 C-1.4393702 5.4263323 -3.2559956 7.52167796 -5 10 C-5.33 9.01 -5.66 8.02 -6 7 C-4.78515625 5.17578125 -4.78515625 5.17578125 -3.0625 3.3125 C-2.49660156 2.68988281 -1.93070313 2.06726562 -1.34765625 1.42578125 C-0.90292969 0.95527344 -0.45820312 0.48476563 0 0 Z " fill="#313136" transform="translate(37,49)"/>
<path d="M0 0 C0.66 0.33 1.32 0.66 2 1 C2 3.64 2 6.28 2 9 C1.34 8.67 0.68 8.34 0 8 C-1.27536232 2.55072464 -1.27536232 2.55072464 0 0 Z " fill="#313136" transform="translate(52,70)"/>
</svg>
