<?xml version="1.0" encoding="UTF-8"?>
<svg version="1.1" xmlns="http://www.w3.org/2000/svg" width="225" height="225">
<path d="M0 0 C74.25 0 148.5 0 225 0 C225 74.25 225 148.5 225 225 C150.75 225 76.5 225 0 225 C0 150.75 0 76.5 0 0 Z " fill="#ED2267" transform="translate(0,0)"/>
<path d="M0 0 C1.81008545 -0.0467688 1.81008545 -0.0467688 3.65673828 -0.09448242 C8.43263848 0.56208807 11.48647766 2.83532875 14.76171875 6.28515625 C17.1260354 10.47608544 16.85826544 14.73734115 15.9296875 19.35546875 C13.80893054 23.18771377 10.90814128 26.16650771 7.9296875 29.35546875 C6.38396021 31.1237849 4.8554581 32.90621054 3.32641602 34.68896484 C1.65870342 36.62989055 -0.02051846 38.56025933 -1.703125 40.48828125 C-4.88457716 44.13754028 -8.04545489 47.80392039 -11.1953125 51.48046875 C-11.68870117 52.05635742 -12.18208984 52.63224609 -12.69042969 53.22558594 C-16.45360566 57.62381336 -20.19364325 62.04131805 -23.9284668 66.46362305 C-28.77437056 72.19737893 -33.6635254 77.89378772 -38.55419922 83.58935547 C-40.56208642 85.92833389 -42.56819391 88.26883421 -44.57397461 90.60961914 C-45.56790288 91.7692832 -46.56220362 92.92862813 -47.55688477 94.08764648 C-50.13938426 97.09752997 -52.71523507 100.11276407 -55.28125 103.13671875 C-55.81105469 103.75933594 -56.34085937 104.38195312 -56.88671875 105.0234375 C-57.88881733 106.20134285 -58.88898162 107.38089803 -59.88671875 108.5625 C-69.64261634 120.01269913 -69.64261634 120.01269913 -76.8203125 120.73046875 C-80.83657794 120.65650438 -83.25718358 119.46753794 -86.52734375 117.23046875 C-92.13237481 110.41929177 -92.90909076 99.60635912 -94.6953125 91.16796875 C-95.00986828 89.70496011 -95.32496829 88.24206837 -95.640625 86.77929688 C-96.81735972 81.31139251 -97.98659218 75.84270159 -99.0703125 70.35546875 C-93.68582785 66.85965633 -88.20963621 63.79287882 -82.44921875 60.96484375 C-81.2711692 60.37972015 -81.2711692 60.37972015 -80.06932068 59.78277588 C-77.592386 58.55312416 -75.11280957 57.32893075 -72.6328125 56.10546875 C-70.12820469 54.86697658 -67.6241986 53.62730342 -65.12132263 52.38531494 C-63.57103476 51.61630142 -62.01968266 50.84942891 -60.46717834 50.0848999 C-57.04229169 48.55788084 -57.04229169 48.55788084 -54.0703125 46.35546875 C-54.02967418 44.6892976 -54.0275915 43.0215878 -54.0703125 41.35546875 C-60.32695676 41.81855566 -64.86432365 43.97957621 -70.36328125 46.8984375 C-72.14503749 47.81603644 -73.92694294 48.73334567 -75.70898438 49.65039062 C-78.49660944 51.1003108 -81.28139857 52.555356 -84.06323242 54.01635742 C-86.76059019 55.42819823 -89.467362 56.82046573 -92.17578125 58.2109375 C-93.0081279 58.6555986 -93.84047455 59.1002597 -94.69804382 59.55839539 C-95.47597794 59.9557338 -96.25391205 60.3530722 -97.05541992 60.76245117 C-98.07631966 61.29753548 -98.07631966 61.29753548 -99.11784363 61.84342957 C-101.0703125 62.35546875 -101.0703125 62.35546875 -103.17988586 61.59346008 C-110.58524902 56.74387998 -116.43996652 47.78139059 -121.95703125 40.94140625 C-124.47701381 37.85780467 -127.09718737 34.8764715 -129.7578125 31.9140625 C-132.78648122 28.3175184 -132.4575095 24.65652002 -132.421875 20.125 C-131.8692087 15.77121773 -130.32487465 14.24019429 -127.0703125 11.35546875 C-123.95615478 9.47034723 -121.36090992 9.01199084 -117.75 8.73291016 C-116.67499237 8.64573227 -115.59998474 8.55855438 -114.49240112 8.46873474 C-112.73659225 8.33919151 -112.73659225 8.33919151 -110.9453125 8.20703125 C-109.71491241 8.10959122 -108.48451233 8.01215118 -107.21682739 7.91175842 C-103.8651732 7.64800827 -100.51311379 7.39167621 -97.16062164 7.13894272 C-93.66378958 6.87383511 -90.1676274 6.60016927 -86.67138672 6.32739258 C-81.65966295 5.93723971 -76.64769103 5.55055381 -71.63539696 5.16779804 C-63.07284776 4.51374905 -54.51271533 3.83242967 -45.953125 3.140625 C-42.47093259 2.86209014 -38.98866679 2.58450191 -35.50634766 2.30755615 C-33.32586276 2.1333119 -31.14551899 1.95729116 -28.96533203 1.77935791 C-19.32413301 0.99534544 -9.6735967 0.21685506 0 0 Z " fill="#FEFDFD" transform="translate(174.0703125,57.64453125)"/>
</svg>
