<svg width="1220" height="256" viewBox="0 0 1220 256" fill="none" xmlns="http://www.w3.org/2000/svg">
<g style="mix-blend-mode:screen" opacity="0.4" filter="url(#filter0_f_961_3684)">
<path d="M609.5 238.101C665.071 188.16 722.902 138.218 781.392 98.2095C856.46 46.8621 941.508 5.35419 1033.34 5.35419C1213.62 5.35419 1363 153.96 1363 333.299C1363 512.639 1213.62 661.242 1033.34 661.242C941.508 661.242 856.46 619.643 781.392 568.385C722.902 528.376 665.071 478.438 609.5 428.497C553.929 478.438 496.098 528.376 437.608 568.385C362.54 619.643 277.49 661.242 185.656 661.242C5.38136 661.242 -144 512.639 -144 333.299C-144 153.96 5.38136 5.35419 185.656 5.35419C277.49 5.35419 362.54 46.8621 437.608 98.2095C496.098 138.218 553.929 188.16 609.5 238.101ZM714.425 333.299C764.909 378.556 813.51 419.69 861.357 452.578C927.66 497.834 983.796 520.697 1033.34 520.697C1135.63 520.697 1221.72 435.056 1221.72 333.299C1221.72 231.543 1135.63 145.902 1033.34 145.902C983.898 145.902 927.67 168.765 861.452 214.021C813.416 246.815 764.909 288.042 714.425 333.299ZM185.656 145.902C83.3686 145.902 -2.71875 231.543 -2.71875 333.299C-2.71875 435.056 83.3686 520.697 185.656 520.697C235.104 520.697 291.335 497.834 357.548 452.578C405.584 419.784 454.091 378.556 504.575 333.299C454.091 288.042 405.49 246.909 357.643 214.021C291.241 168.765 235.104 145.902 185.656 145.902Z" fill="url(#paint0_linear_961_3684)" fill-opacity="0.2"/>
</g>
<defs>
<filter id="filter0_f_961_3684" x="-149.354" y="-1.43051e-06" width="1517.71" height="666.596" filterUnits="userSpaceOnUse" color-interpolation-filters="sRGB">
<feFlood flood-opacity="0" result="BackgroundImageFix"/>
<feBlend mode="normal" in="SourceGraphic" in2="BackgroundImageFix" result="shape"/>
<feGaussianBlur stdDeviation="2.67709" result="effect1_foregroundBlur_961_3684"/>
</filter>
<linearGradient id="paint0_linear_961_3684" x1="175.913" y1="99.0525" x2="1363.2" y2="683.998" gradientUnits="userSpaceOnUse">
<stop stop-color="#007DFE"/>
<stop offset="0.894275" stop-color="#80BEFF"/>
<stop offset="1" stop-color="white"/>
</linearGradient>
</defs>
</svg>
