<svg xmlns="http://www.w3.org/2000/svg" xmlns:v="https://svgstorm.com"
viewBox = "0 0 225 225"
width="225"
height="225">
<g fill="None" fill-opacity="0.0" stroke="#1A1B2B" stroke-opacity="1.00" stroke-width="0.3"><path d="
M 0.00 225.00 
L 225.00 225.00
L 225.00 0.00
L 0.00 0.00
L 0.00 225.00
M 125.00 53.00 
C 126.10 53.27 129.10 52.85 129.00 55.00
C 131.22 57.60 128.84 58.74 128.00 61.00
C 126.81 64.20 128.06 65.69 124.00 67.00
C 123.85 67.05 124.00 68.00 124.00 68.00
C 121.46 74.56 108.27 74.18 103.78 72.22 C 99.29 70.26 94.05 58.83 96.00 56.00
C 101.09 48.59 117.91 51.26 125.00 53.00
M 115.00 99.00 
C 115.38 101.37 115.59 103.57 116.00 106.00
C 116.77 108.46 120.01 113.79 120.00 118.00
C 111.83 128.23 104.77 118.57 107.92 109.92 C 111.08 101.27 110.18 89.96 105.00 85.00
C 105.44 83.71 106.58 82.79 108.00 83.00
C 107.77 82.84 108.00 82.00 108.00 82.00
C 107.88 81.01 108.09 79.99 108.00 79.00
C 112.40 77.34 121.86 80.04 117.23 85.23 C 112.60 90.42 118.56 94.54 115.00 99.00
M 97.00 88.00 
C 93.55 96.12 88.57 99.28 90.00 110.00
C 90.93 113.59 97.25 116.23 96.00 121.00
C 99.64 121.12 102.90 123.31 105.00 127.00
C 105.76 127.33 106.16 127.82 107.00 128.00
C 110.12 127.98 115.14 127.00 119.00 127.00
C 119.50 127.00 120.00 127.00 120.00 127.00
C 122.19 123.87 125.23 121.59 129.00 121.00
C 131.73 114.57 135.28 107.89 134.00 100.00 C 132.72 92.11 125.54 89.77 124.00 85.00
C 126.34 82.60 132.23 88.89 134.00 91.00
C 141.95 95.92 142.78 110.23 137.00 117.00
C 136.51 118.17 136.20 118.69 136.00 120.00
C 135.57 122.85 136.33 125.40 137.00 128.00
C 133.37 124.81 128.61 128.77 128.00 133.00
C 115.82 137.91 101.11 135.17 91.00 126.00
C 90.48 127.89 87.83 128.25 86.00 128.00
C 85.61 125.71 88.07 124.59 90.00 125.00
C 85.32 122.29 85.56 110.52 85.00 104.00 C 84.44 97.48 91.29 89.66 94.00 84.00
C 100.49 81.17 108.59 87.49 97.00 88.00
M 65.00 160.00 
C 66.53 160.11 67.80 158.88 69.00 159.00
C 70.27 159.13 70.70 160.97 72.00 161.00
C 66.76 162.35 75.25 168.50 70.00 169.00
C 68.39 169.20 66.62 169.00 65.00 169.00
C 64.04 169.00 62.95 169.13 62.00 169.00
C 59.32 168.64 57.56 169.29 56.00 172.00
C 55.84 168.95 56.81 164.89 54.00 163.00
C 54.53 167.54 52.28 171.39 53.00 176.00
C 48.57 177.10 50.36 171.51 50.00 169.00
C 50.05 168.50 50.00 168.00 50.00 168.00
C 46.94 165.66 48.01 161.17 49.00 158.00
C 46.55 157.91 43.39 157.77 42.00 160.00
C 45.06 162.39 40.32 166.30 43.00 169.00
C 36.50 175.50 33.33 162.03 38.00 159.00
C 33.61 159.64 35.79 153.00 32.00 156.00
C 30.43 155.33 29.59 151.88 34.00 152.00
C 38.25 151.62 42.73 152.00 47.00 152.00
C 47.50 152.00 48.58 152.18 49.00 152.00
C 50.79 151.24 52.25 150.54 54.00 152.00
C 52.28 154.27 53.27 157.34 53.00 160.00
C 53.24 159.74 55.61 160.00 56.00 160.00
C 56.00 157.33 56.00 154.67 56.00 152.00
C 62.42 151.61 59.24 156.31 59.00 160.00
C 59.19 159.76 60.50 160.00 61.00 160.00
C 61.50 160.00 62.00 160.00 62.00 160.00
C 62.00 157.76 62.35 155.21 62.00 153.00
C 60.32 152.74 61.92 152.24 62.00 152.00
C 64.59 144.20 74.63 149.64 72.00 157.00
C 69.45 156.52 67.81 156.26 65.00 156.00
C 65.00 157.33 65.00 158.67 65.00 160.00
M 131.00 152.00 
C 135.52 149.64 136.37 152.22 138.00 156.00
C 139.20 158.02 141.25 161.09 143.00 162.00
C 145.50 159.25 142.38 154.32 145.00 152.00
C 145.81 151.61 147.15 152.31 148.00 152.00
C 148.51 157.86 145.11 169.89 155.00 168.00
C 154.47 169.60 152.25 168.72 151.00 169.00
C 152.23 169.76 154.05 169.77 155.00 171.00
C 152.40 175.56 147.45 176.35 142.00 176.00
C 141.27 169.57 140.56 176.92 138.00 177.00
C 135.57 174.07 140.30 171.43 139.00 168.00
C 136.28 165.83 130.27 163.54 132.00 171.00
C 127.67 172.12 127.02 166.51 129.00 164.00
C 124.02 162.35 126.32 158.01 123.00 155.00
C 118.75 155.86 118.12 158.36 117.00 163.00
C 127.15 165.63 118.98 177.94 115.00 167.00
C 113.05 166.89 110.23 169.12 112.00 171.00
C 107.91 170.58 104.64 171.07 104.00 166.00
C 102.75 166.30 102.29 167.83 101.00 168.00
C 100.53 168.33 99.35 168.65 99.00 169.00
C 98.86 169.14 97.79 170.81 98.00 171.00
C 98.31 170.76 99.00 171.00 99.00 171.00
C 101.95 170.90 100.92 171.58 102.00 173.00
C 99.53 175.80 95.76 178.16 91.00 176.00 C 86.24 173.84 88.57 175.16 84.00 176.00
C 82.59 172.50 83.17 172.23 80.00 174.00
C 80.87 166.70 78.41 159.76 80.00 153.00
C 81.71 151.22 82.46 152.59 84.00 153.00
C 85.24 153.33 85.72 154.81 87.00 155.00
C 86.73 153.72 87.77 152.28 89.00 152.00
C 90.31 151.83 91.68 152.13 93.00 152.00
C 92.07 153.14 91.92 154.55 92.00 156.00
C 92.26 157.01 92.75 159.11 93.78 160.22 C 94.81 161.34 93.01 166.02 93.00 166.00
C 99.20 174.68 101.64 160.55 102.00 157.00
C 99.13 158.99 96.48 156.30 96.00 153.00
C 99.99 151.33 102.71 149.59 107.00 152.00
C 107.49 152.08 108.00 152.00 108.00 152.00
C 110.27 149.28 112.94 150.28 113.00 154.00
C 115.92 152.64 116.56 150.49 117.00 148.00
C 124.51 146.04 122.55 160.93 130.00 155.00
C 130.12 153.53 128.15 151.69 131.00 152.00
M 156.00 168.00 
C 158.86 163.48 158.68 156.90 157.00 152.00
C 160.22 154.16 160.72 166.27 156.00 168.00
M 177.00 162.00 
C 176.15 160.23 174.90 158.04 174.00 156.00
C 169.73 158.30 171.29 163.92 171.00 168.00
C 170.47 169.33 169.86 168.32 169.00 169.00
C 167.00 170.59 162.70 166.16 164.22 162.78 C 165.75 159.40 160.90 154.10 162.00 153.00
C 164.39 150.61 172.52 152.00 176.00 152.00
C 177.67 152.00 179.33 152.00 181.00 152.00
C 188.56 152.00 198.58 155.54 193.69 164.69 C 188.81 173.85 179.91 168.09 177.00 162.00 Z"/>
</g>
<g fill="None" fill-opacity="0.0" stroke="#B09667" stroke-opacity="1.00" stroke-width="0.3"><path d="
M 96.00 56.00 
C 96.03 58.37 98.50 59.72 99.00 62.00
C 105.97 59.36 113.81 56.53 121.00 60.00
C 122.25 60.32 122.10 60.56 123.00 61.00
C 123.24 61.12 125.69 62.03 126.00 62.00
C 125.84 61.80 129.58 57.53 128.00 55.00
C 126.77 54.70 125.85 53.38 125.00 53.00
C 117.91 51.26 101.09 48.59 96.00 56.00 Z"/>
</g>
<g fill="None" fill-opacity="0.0" stroke="#302B23" stroke-opacity="1.00" stroke-width="0.3"><path d="
M 128.00 55.00 
C 128.47 55.12 129.00 55.00 129.00 55.00
C 129.10 52.85 126.10 53.27 125.00 53.00
C 125.85 53.38 126.77 54.70 128.00 55.00 Z"/>
</g>
<g fill="None" fill-opacity="0.0" stroke="#595255" stroke-opacity="1.00" stroke-width="0.3"><path d="
M 126.00 62.00 
C 126.24 61.98 127.84 61.13 128.00 61.00
C 128.84 58.74 131.22 57.60 129.00 55.00
C 129.00 55.00 128.47 55.12 128.00 55.00
C 129.58 57.53 125.84 61.80 126.00 62.00 Z"/>
</g>
<g fill="None" fill-opacity="0.0" stroke="#281D0F" stroke-opacity="1.00" stroke-width="0.3"><path d="
M 124.00 68.00 
C 123.80 68.41 122.38 68.86 122.00 69.00
C 119.89 70.61 118.84 70.74 116.00 71.00
C 111.07 71.45 105.67 71.50 102.00 68.00
C 104.62 66.25 108.53 65.82 112.00 66.00
C 111.98 66.00 112.00 65.00 112.00 65.00
C 108.46 64.68 103.01 66.54 101.00 63.00
C 106.84 60.30 113.58 58.92 120.00 61.00
C 120.34 60.99 120.74 60.11 121.00 60.00
C 113.81 56.53 105.97 59.36 99.00 62.00
C 98.50 59.72 96.03 58.37 96.00 56.00
C 94.05 58.83 99.29 70.26 103.78 72.22 C 108.27 74.18 121.46 74.56 124.00 68.00 Z"/>
</g>
<g fill="None" fill-opacity="0.0" stroke="#A49572" stroke-opacity="1.00" stroke-width="0.3"><path d="
M 112.00 65.00 
C 109.50 59.89 116.50 61.22 114.00 65.00
C 116.84 65.59 120.98 63.78 123.00 66.00
C 123.50 65.95 124.00 66.00 124.00 66.00
C 124.53 62.42 121.44 63.25 120.00 61.00
C 113.58 58.92 106.84 60.30 101.00 63.00
C 103.01 66.54 108.46 64.68 112.00 65.00 Z"/>
</g>
<g fill="None" fill-opacity="0.0" stroke="#4D462E" stroke-opacity="1.00" stroke-width="0.3"><path d="
M 120.00 61.00 
C 121.44 63.25 124.53 62.42 124.00 66.00
C 125.81 64.23 123.21 61.24 123.00 61.00
C 122.10 60.56 122.25 60.32 121.00 60.00
C 120.74 60.11 120.34 60.99 120.00 61.00 Z"/>
</g>
<g fill="None" fill-opacity="0.0" stroke="#4F3B1D" stroke-opacity="1.00" stroke-width="0.3"><path d="
M 112.00 65.00 
C 112.00 65.00 111.98 66.00 112.00 66.00
C 115.65 65.92 118.55 66.59 122.00 67.00
C 122.20 66.98 122.65 66.03 123.00 66.00
C 120.98 63.78 116.84 65.59 114.00 65.00
C 116.50 61.22 109.50 59.89 112.00 65.00 Z"/>
</g>
<g fill="None" fill-opacity="0.0" stroke="#1C1D10" stroke-opacity="1.00" stroke-width="0.3"><path d="
M 124.00 66.00 
C 124.00 66.00 123.50 65.95 123.00 66.00
C 122.65 66.03 122.20 66.98 122.00 67.00
C 122.49 67.06 123.84 66.77 124.00 67.00
C 128.06 65.69 126.81 64.20 128.00 61.00
C 127.84 61.13 126.24 61.98 126.00 62.00
C 125.69 62.03 123.24 61.12 123.00 61.00
C 123.21 61.24 125.81 64.23 124.00 66.00 Z"/>
</g>
<g fill="None" fill-opacity="0.0" stroke="#A6946A" stroke-opacity="1.00" stroke-width="0.3"><path d="
M 116.00 71.00 
C 117.31 70.79 120.39 69.59 122.00 69.00
C 122.38 68.86 123.80 68.41 124.00 68.00
C 124.00 68.00 123.85 67.05 124.00 67.00
C 123.84 66.77 122.49 67.06 122.00 67.00
C 118.55 66.59 115.65 65.92 112.00 66.00
C 108.53 65.82 104.62 66.25 102.00 68.00
C 105.67 71.50 111.07 71.45 116.00 71.00 Z"/>
</g>
<g fill="None" fill-opacity="0.0" stroke="#615037" stroke-opacity="1.00" stroke-width="0.3"><path d="
M 116.00 71.00 
C 118.84 70.74 119.89 70.61 122.00 69.00
C 120.39 69.59 117.31 70.79 116.00 71.00 Z"/>
</g>
<g fill="None" fill-opacity="0.0" stroke="#251D16" stroke-opacity="1.00" stroke-width="0.3"><path d="
M 108.00 82.00 
C 113.95 76.73 120.72 85.06 112.00 87.00
C 111.04 85.43 109.68 83.75 108.00 83.00
C 106.58 82.79 105.44 83.71 105.00 85.00
C 110.18 89.96 111.08 101.27 107.92 109.92 C 104.77 118.57 111.83 128.23 120.00 118.00
C 120.01 113.79 116.77 108.46 116.00 106.00
C 116.62 109.65 118.01 113.15 118.00 117.00
C 115.78 116.95 114.01 119.29 113.00 121.00
C 102.75 114.23 112.78 100.79 112.00 91.00
C 111.51 89.59 112.80 88.86 114.00 89.00
C 114.00 90.00 114.00 91.00 114.00 92.00
C 115.01 93.57 114.70 97.11 115.00 99.00
C 118.56 94.54 112.60 90.42 117.23 85.23 C 121.86 80.04 112.40 77.34 108.00 79.00
C 108.09 79.99 107.88 81.01 108.00 82.00 Z"/>
</g>
<g fill="None" fill-opacity="0.0" stroke="#A49472" stroke-opacity="1.00" stroke-width="0.3"><path d="
M 108.00 82.00 
C 108.00 82.00 107.77 82.84 108.00 83.00
C 109.68 83.75 111.04 85.43 112.00 87.00
C 120.72 85.06 113.95 76.73 108.00 82.00 Z"/>
</g>
<g fill="None" fill-opacity="0.0" stroke="#211915" stroke-opacity="1.00" stroke-width="0.3"><path d="
M 90.00 125.00 
C 90.32 125.19 90.79 125.70 91.00 126.00
C 101.11 135.17 115.82 137.91 128.00 133.00
C 128.61 128.77 133.37 124.81 137.00 128.00
C 136.33 125.40 135.57 122.85 136.00 120.00
C 124.84 142.36 92.44 132.98 87.00 112.00
C 86.13 108.65 85.58 105.34 87.00 102.00
C 87.00 101.50 86.92 100.49 87.00 100.00
C 87.62 96.40 89.81 93.58 92.00 91.00
C 92.77 90.09 98.99 83.32 97.00 88.00
C 108.59 87.49 100.49 81.17 94.00 84.00
C 91.29 89.66 84.44 97.48 85.00 104.00 C 85.56 110.52 85.32 122.29 90.00 125.00 Z"/>
</g>
<g fill="None" fill-opacity="0.0" stroke="#96958F" stroke-opacity="1.00" stroke-width="0.3"><path d="
M 124.00 85.00 
C 127.85 84.11 134.08 94.25 135.00 97.00
C 135.10 96.71 136.98 96.11 137.00 96.00
C 136.31 94.52 135.01 92.21 134.00 91.00
C 132.23 88.89 126.34 82.60 124.00 85.00 Z"/>
</g>
<g fill="None" fill-opacity="0.0" stroke="#211A13" stroke-opacity="1.00" stroke-width="0.3"><path d="
M 120.00 127.00 
C 132.71 124.01 138.92 108.75 135.00 97.00
C 134.08 94.25 127.85 84.11 124.00 85.00
C 125.54 89.77 132.72 92.11 134.00 100.00 C 135.28 107.89 131.73 114.57 129.00 121.00
C 125.23 121.59 122.19 123.87 120.00 127.00 Z"/>
</g>
<g fill="None" fill-opacity="0.0" stroke="#A0916C" stroke-opacity="1.00" stroke-width="0.3"><path d="
M 92.00 91.00 
C 90.00 93.91 88.87 97.32 87.00 100.00
C 86.92 100.49 87.00 101.50 87.00 102.00
C 87.00 105.24 86.57 108.80 87.00 112.00
C 92.44 132.98 124.84 142.36 136.00 120.00
C 136.20 118.69 136.51 118.17 137.00 117.00
C 137.81 115.04 138.73 113.14 139.00 111.00
C 139.04 109.81 138.98 105.21 139.00 104.00
C 138.80 101.31 138.15 98.45 137.00 96.00
C 136.98 96.11 135.10 96.71 135.00 97.00
C 138.92 108.75 132.71 124.01 120.00 127.00
C 120.00 127.00 119.50 127.00 119.00 127.00
C 116.78 128.64 110.02 128.64 107.00 128.00
C 106.16 127.82 105.76 127.33 105.00 127.00
C 97.82 123.90 91.11 118.31 90.00 110.00
C 88.57 99.28 93.55 96.12 97.00 88.00
C 98.99 83.32 92.77 90.09 92.00 91.00 Z"/>
</g>
<g fill="None" fill-opacity="0.0" stroke="#9E8C86" stroke-opacity="1.00" stroke-width="0.3"><path d="
M 112.00 91.00 
C 112.16 91.46 113.81 91.70 114.00 92.00
C 114.00 91.00 114.00 90.00 114.00 89.00
C 112.80 88.86 111.51 89.59 112.00 91.00 Z"/>
</g>
<g fill="None" fill-opacity="0.0" stroke="#5A4D36" stroke-opacity="1.00" stroke-width="0.3"><path d="
M 87.00 100.00 
C 88.87 97.32 90.00 93.91 92.00 91.00
C 89.81 93.58 87.62 96.40 87.00 100.00 Z"/>
</g>
<g fill="None" fill-opacity="0.0" stroke="#AD9565" stroke-opacity="1.00" stroke-width="0.3"><path d="
M 116.00 106.00 
C 115.59 103.57 115.38 101.37 115.00 99.00
C 114.70 97.11 115.01 93.57 114.00 92.00
C 113.81 91.70 112.16 91.46 112.00 91.00
C 112.78 100.79 102.75 114.23 113.00 121.00
C 114.01 119.29 115.78 116.95 118.00 117.00
C 118.01 113.15 116.62 109.65 116.00 106.00 Z"/>
</g>
<g fill="None" fill-opacity="0.0" stroke="#261D1C" stroke-opacity="1.00" stroke-width="0.3"><path d="
M 137.00 96.00 
C 138.15 98.45 138.80 101.31 139.00 104.00
C 139.16 106.18 139.27 108.83 139.00 111.00
C 138.73 113.14 137.81 115.04 137.00 117.00
C 142.78 110.23 141.95 95.92 134.00 91.00
C 135.01 92.21 136.31 94.52 137.00 96.00 Z"/>
</g>
<g fill="None" fill-opacity="0.0" stroke="#4E3F21" stroke-opacity="1.00" stroke-width="0.3"><path d="
M 87.00 112.00 
C 86.57 108.80 87.00 105.24 87.00 102.00
C 85.58 105.34 86.13 108.65 87.00 112.00 Z"/>
</g>
<g fill="None" fill-opacity="0.0" stroke="#C3B4A2" stroke-opacity="1.00" stroke-width="0.3"><path d="
M 139.00 111.00 
C 139.27 108.83 139.16 106.18 139.00 104.00
C 138.98 105.21 139.04 109.81 139.00 111.00 Z"/>
</g>
<g fill="None" fill-opacity="0.0" stroke="#292016" stroke-opacity="1.00" stroke-width="0.3"><path d="
M 105.00 127.00 
C 102.90 123.31 99.64 121.12 96.00 121.00
C 97.25 116.23 90.93 113.59 90.00 110.00
C 91.11 118.31 97.82 123.90 105.00 127.00 Z"/>
</g>
<g fill="None" fill-opacity="0.0" stroke="#12201B" stroke-opacity="1.00" stroke-width="0.3"><path d="
M 91.00 126.00 
C 90.79 125.70 90.32 125.19 90.00 125.00
C 88.07 124.59 85.61 125.71 86.00 128.00
C 87.83 128.25 90.48 127.89 91.00 126.00 Z"/>
</g>
<g fill="None" fill-opacity="0.0" stroke="#1A1A15" stroke-opacity="1.00" stroke-width="0.3"><path d="
M 107.00 128.00 
C 110.02 128.64 116.78 128.64 119.00 127.00
C 115.14 127.00 110.12 127.98 107.00 128.00 Z"/>
</g>
<g fill="None" fill-opacity="0.0" stroke="#171818" stroke-opacity="1.00" stroke-width="0.3"><path d="
M 62.00 152.00 
C 64.17 151.37 68.55 151.68 70.00 153.00
C 68.93 154.14 65.95 152.29 64.00 153.00
C 64.31 155.29 63.69 157.71 64.00 160.00
C 64.25 159.75 65.00 160.00 65.00 160.00
C 65.00 158.67 65.00 157.33 65.00 156.00
C 67.81 156.26 69.45 156.52 72.00 157.00
C 74.63 149.64 64.59 144.20 62.00 152.00 Z"/>
</g>
<g fill="None" fill-opacity="0.0" stroke="#191819" stroke-opacity="1.00" stroke-width="0.3"><path d="
M 108.00 152.00 
C 112.66 151.94 116.13 163.18 119.00 167.00
C 119.77 168.03 121.76 167.49 122.00 169.00
C 120.64 170.13 117.98 169.31 117.00 168.00
C 115.93 167.29 115.85 162.72 114.00 162.00
C 110.42 163.78 112.04 169.63 108.00 169.00
C 108.72 166.02 111.14 163.24 113.00 161.00
C 111.82 157.49 109.22 154.86 107.00 152.00
C 102.71 149.59 99.99 151.33 96.00 153.00
C 96.48 156.30 99.13 158.99 102.00 157.00
C 102.17 155.35 101.87 153.65 102.00 152.00
C 104.15 154.21 103.87 164.19 101.00 168.00
C 102.29 167.83 102.75 166.30 104.00 166.00
C 104.64 171.07 107.91 170.58 112.00 171.00
C 110.23 169.12 113.05 166.89 115.00 167.00
C 118.98 177.94 127.15 165.63 117.00 163.00
C 118.12 158.36 118.75 155.86 123.00 155.00
C 126.32 158.01 124.02 162.35 129.00 164.00
C 127.02 166.51 127.67 172.12 132.00 171.00
C 130.27 163.54 136.28 165.83 139.00 168.00
C 140.30 171.43 135.57 174.07 138.00 177.00
C 140.56 176.92 141.27 169.57 142.00 176.00
C 147.45 176.35 152.40 175.56 155.00 171.00
C 154.05 169.77 152.23 169.76 151.00 169.00
C 144.51 164.95 146.64 159.05 145.00 152.00
C 142.38 154.32 145.50 159.25 143.00 162.00
C 141.25 161.09 139.20 158.02 138.00 156.00
C 140.82 162.53 142.07 170.84 149.00 174.00
C 139.57 175.38 142.25 159.13 132.00 163.00
C 131.63 165.06 131.83 169.03 129.00 169.00
C 130.35 163.46 133.06 158.38 135.00 153.00
C 133.86 152.07 132.45 151.92 131.00 152.00
C 128.15 151.69 130.12 153.53 130.00 155.00
C 122.55 160.93 124.51 146.04 117.00 148.00
C 116.56 150.49 115.92 152.64 113.00 154.00
C 112.94 150.28 110.27 149.28 108.00 152.00
M 120.00 152.00 
C 117.60 158.90 113.99 152.65 120.00 152.00 Z"/>
</g>
<g fill="None" fill-opacity="0.0" stroke="#3B392A" stroke-opacity="1.00" stroke-width="0.3"><path d="
M 49.00 152.00 
C 51.70 154.09 50.00 164.82 50.00 168.00
C 50.00 168.00 50.05 168.50 50.00 169.00
C 50.25 169.25 51.00 169.00 51.00 169.00
C 51.50 163.48 51.39 157.11 50.00 152.00
C 55.41 150.77 49.49 158.21 53.00 160.00
C 53.27 157.34 52.28 154.27 54.00 152.00
C 52.25 150.54 50.79 151.24 49.00 152.00 Z"/>
</g>
<g fill="None" fill-opacity="0.0" stroke="#898780" stroke-opacity="1.00" stroke-width="0.3"><path d="
M 131.00 152.00 
C 132.45 151.92 133.86 152.07 135.00 153.00
C 133.06 158.38 130.35 163.46 129.00 169.00
C 131.83 169.03 131.63 165.06 132.00 163.00
C 142.25 159.13 139.57 175.38 149.00 174.00
C 142.07 170.84 140.82 162.53 138.00 156.00
C 136.37 152.22 135.52 149.64 131.00 152.00
M 133.00 162.00 
C 133.00 159.46 135.60 157.74 135.00 155.00
C 138.75 157.10 139.06 164.13 133.00 162.00 Z"/>
</g>
<g fill="None" fill-opacity="0.0" stroke="#4F4E53" stroke-opacity="1.00" stroke-width="0.3"><path d="
M 32.00 156.00 
C 32.89 155.11 32.46 153.92 34.00 153.00
C 34.22 152.87 34.00 152.00 34.00 152.00
C 29.59 151.88 30.43 155.33 32.00 156.00 Z"/>
</g>
<g fill="None" fill-opacity="0.0" stroke="#7D7B72" stroke-opacity="1.00" stroke-width="0.3"><path d="
M 34.00 153.00 
C 35.62 152.71 37.37 153.22 39.00 153.00
C 40.06 158.07 36.71 165.49 41.00 169.00
C 41.37 164.83 40.74 158.13 41.00 153.00
C 43.15 151.79 47.17 155.43 47.00 152.00
C 42.73 152.00 38.25 151.62 34.00 152.00
C 34.00 152.00 34.22 152.87 34.00 153.00 Z"/>
</g>
<g fill="None" fill-opacity="0.0" stroke="#14100E" stroke-opacity="1.00" stroke-width="0.3"><path d="
M 34.00 153.00 
C 32.46 153.92 32.89 155.11 32.00 156.00
C 35.79 153.00 33.61 159.64 38.00 159.00
C 33.33 162.03 36.50 175.50 43.00 169.00
C 40.32 166.30 45.06 162.39 42.00 160.00
C 43.39 157.77 46.55 157.91 49.00 158.00
C 48.01 161.17 46.94 165.66 50.00 168.00
C 50.00 164.82 51.70 154.09 49.00 152.00
C 48.58 152.18 47.50 152.00 47.00 152.00
C 47.17 155.43 43.15 151.79 41.00 153.00
C 40.74 158.13 41.37 164.83 41.00 169.00
C 36.71 165.49 40.06 158.07 39.00 153.00
C 37.37 153.22 35.62 152.71 34.00 153.00 Z"/>
</g>
<g fill="None" fill-opacity="0.0" stroke="#989681" stroke-opacity="1.00" stroke-width="0.3"><path d="
M 51.00 169.00 
C 53.54 169.04 51.39 163.18 53.00 161.00
C 53.24 160.68 53.00 160.00 53.00 160.00
C 49.49 158.21 55.41 150.77 50.00 152.00
C 51.39 157.11 51.50 163.48 51.00 169.00 Z"/>
</g>
<g fill="None" fill-opacity="0.0" stroke="#131715" stroke-opacity="1.00" stroke-width="0.3"><path d="
M 56.00 160.00 
C 56.35 160.00 58.81 160.23 59.00 160.00
C 59.24 156.31 62.42 151.61 56.00 152.00
C 56.00 154.67 56.00 157.33 56.00 160.00 Z"/>
</g>
<g fill="None" fill-opacity="0.0" stroke="#7F807B" stroke-opacity="1.00" stroke-width="0.3"><path d="
M 62.00 153.00 
C 62.49 153.08 63.00 153.00 63.00 153.00
C 63.50 153.00 64.00 153.00 64.00 153.00
C 65.95 152.29 68.93 154.14 70.00 153.00
C 68.55 151.68 64.17 151.37 62.00 152.00
C 61.92 152.24 60.32 152.74 62.00 153.00 Z"/>
</g>
<g fill="None" fill-opacity="0.0" stroke="#86837A" stroke-opacity="1.00" stroke-width="0.3"><path d="
M 80.00 153.00 
C 81.91 156.84 79.94 167.32 83.08 169.92 C 86.23 172.51 98.74 175.49 99.00 171.00
C 99.00 171.00 98.31 170.76 98.00 171.00
C 93.83 174.25 87.56 169.33 83.00 169.00
C 83.00 167.33 83.00 165.67 83.00 164.00
C 82.97 162.67 83.01 161.33 83.00 160.00
C 82.99 157.81 82.25 154.38 84.00 153.00
C 82.46 152.59 81.71 151.22 80.00 153.00 Z"/>
</g>
<g fill="None" fill-opacity="0.0" stroke="#151310" stroke-opacity="1.00" stroke-width="0.3"><path d="
M 84.00 153.00 
C 82.25 154.38 82.99 157.81 83.00 160.00
C 83.27 158.81 85.50 155.81 87.00 156.00
C 87.27 159.59 89.83 164.68 86.00 167.00
C 84.73 166.44 84.75 164.15 83.00 164.00
C 83.00 165.67 83.00 167.33 83.00 169.00
C 87.56 169.33 93.83 174.25 98.00 171.00
C 97.79 170.81 98.86 169.14 99.00 169.00
C 87.73 171.68 90.95 158.13 89.00 152.00
C 87.77 152.28 86.73 153.72 87.00 155.00
C 85.72 154.81 85.24 153.33 84.00 153.00 Z"/>
</g>
<g fill="None" fill-opacity="0.0" stroke="#85827B" stroke-opacity="1.00" stroke-width="0.3"><path d="
M 99.00 169.00 
C 99.35 168.65 100.53 168.33 101.00 168.00
C 103.87 164.19 104.15 154.21 102.00 152.00
C 101.87 153.65 102.17 155.35 102.00 157.00
C 101.64 160.55 99.20 174.68 93.00 166.00
C 91.11 163.35 92.13 159.12 92.00 156.00
C 91.92 154.55 92.07 153.14 93.00 152.00
C 91.68 152.13 90.31 151.83 89.00 152.00
C 90.95 158.13 87.73 171.68 99.00 169.00 Z"/>
</g>
<g fill="None" fill-opacity="0.0" stroke="#8A867D" stroke-opacity="1.00" stroke-width="0.3"><path d="
M 117.00 168.00 
C 118.27 168.84 118.49 167.03 119.00 167.00
C 116.13 163.18 112.66 151.94 108.00 152.00
C 108.00 152.00 107.49 152.08 107.00 152.00
C 109.22 154.86 111.82 157.49 113.00 161.00
C 111.14 163.24 108.72 166.02 108.00 169.00
C 112.04 169.63 110.42 163.78 114.00 162.00
C 115.85 162.72 115.93 167.29 117.00 168.00 Z"/>
</g>
<g fill="None" fill-opacity="0.0" stroke="#888882" stroke-opacity="1.00" stroke-width="0.3"><path d="
M 120.00 152.00 
C 113.99 152.65 117.60 158.90 120.00 152.00 Z"/>
</g>
<g fill="None" fill-opacity="0.0" stroke="#8C898A" stroke-opacity="1.00" stroke-width="0.3"><path d="
M 151.00 169.00 
C 152.25 168.72 154.47 169.60 155.00 168.00
C 145.11 169.89 148.51 157.86 148.00 152.00
C 147.15 152.31 145.81 151.61 145.00 152.00
C 146.64 159.05 144.51 164.95 151.00 169.00 Z"/>
</g>
<g fill="None" fill-opacity="0.0" stroke="#94928D" stroke-opacity="1.00" stroke-width="0.3"><path d="
M 156.00 168.00 
C 160.72 166.27 160.22 154.16 157.00 152.00
C 158.68 156.90 158.86 163.48 156.00 168.00 Z"/>
</g>
<g fill="None" fill-opacity="0.0" stroke="#908D8C" stroke-opacity="1.00" stroke-width="0.3"><path d="
M 162.00 153.00 
C 163.57 152.18 166.32 153.62 168.00 153.00
C 168.65 158.16 166.69 164.66 169.00 169.00
C 169.86 168.32 170.47 169.33 171.00 168.00
C 171.69 164.49 168.40 157.41 170.00 153.00
C 172.15 151.79 176.17 155.43 176.00 152.00
C 172.52 152.00 164.39 150.61 162.00 153.00 Z"/>
</g>
<g fill="None" fill-opacity="0.0" stroke="#191816" stroke-opacity="1.00" stroke-width="0.3"><path d="
M 171.00 168.00 
C 171.29 163.92 169.73 158.30 174.00 156.00
C 174.90 158.04 176.15 160.23 177.00 162.00
C 176.65 159.23 177.99 153.23 181.00 152.00
C 179.33 152.00 177.67 152.00 176.00 152.00
C 176.17 155.43 172.15 151.79 170.00 153.00
C 168.40 157.41 171.69 164.49 171.00 168.00 Z"/>
</g>
<g fill="None" fill-opacity="0.0" stroke="#908E8B" stroke-opacity="1.00" stroke-width="0.3"><path d="
M 177.00 162.00 
C 179.91 168.09 188.81 173.85 193.69 164.69 C 198.58 155.54 188.56 152.00 181.00 152.00
C 177.99 153.23 176.65 159.23 177.00 162.00
M 193.00 163.00 
C 191.97 167.61 185.71 168.97 182.00 167.00
C 166.66 158.85 197.43 143.23 193.00 163.00 Z"/>
</g>
<g fill="None" fill-opacity="0.0" stroke="#A49E83" stroke-opacity="1.00" stroke-width="0.3"><path d="
M 62.00 160.00 
C 62.00 163.00 62.00 166.00 62.00 169.00
C 62.95 169.13 64.04 169.00 65.00 169.00
C 65.25 168.73 65.00 168.00 65.00 168.00
C 64.55 168.15 64.00 168.00 64.00 168.00
C 62.25 166.30 62.74 162.71 64.00 161.00
C 64.24 160.68 64.00 160.00 64.00 160.00
C 62.63 158.15 62.95 155.50 63.00 153.00
C 63.00 153.00 62.49 153.08 62.00 153.00
C 62.35 155.21 62.00 157.76 62.00 160.00 Z"/>
</g>
<g fill="None" fill-opacity="0.0" stroke="#474425" stroke-opacity="1.00" stroke-width="0.3"><path d="
M 64.00 160.00 
C 63.69 157.71 64.31 155.29 64.00 153.00
C 64.00 153.00 63.50 153.00 63.00 153.00
C 62.95 155.50 62.63 158.15 64.00 160.00 Z"/>
</g>
<g fill="None" fill-opacity="0.0" stroke="#151413" stroke-opacity="1.00" stroke-width="0.3"><path d="
M 99.00 171.00 
C 98.74 175.49 86.23 172.51 83.08 169.92 C 79.94 167.32 81.91 156.84 80.00 153.00
C 78.41 159.76 80.87 166.70 80.00 174.00
C 83.17 172.23 82.59 172.50 84.00 176.00
C 88.57 175.16 86.24 173.84 91.00 176.00 C 95.76 178.16 99.53 175.80 102.00 173.00
C 100.92 171.58 101.95 170.90 99.00 171.00 Z"/>
</g>
<g fill="None" fill-opacity="0.0" stroke="#151314" stroke-opacity="1.00" stroke-width="0.3"><path d="
M 169.00 169.00 
C 166.69 164.66 168.65 158.16 168.00 153.00
C 166.32 153.62 163.57 152.18 162.00 153.00
C 160.90 154.10 165.75 159.40 164.22 162.78 C 162.70 166.16 167.00 170.59 169.00 169.00 Z"/>
</g>
<g fill="None" fill-opacity="0.0" stroke="#151417" stroke-opacity="1.00" stroke-width="0.3"><path d="
M 182.00 167.00 
C 178.96 163.96 181.01 157.33 184.00 155.00
C 188.04 156.77 192.34 158.52 193.00 163.00
C 197.43 143.23 166.66 158.85 182.00 167.00 Z"/>
</g>
<g fill="None" fill-opacity="0.0" stroke="#1F160B" stroke-opacity="1.00" stroke-width="0.3"><path d="
M 133.00 162.00 
C 139.06 164.13 138.75 157.10 135.00 155.00
C 135.60 157.74 133.00 159.46 133.00 162.00 Z"/>
</g>
<g fill="None" fill-opacity="0.0" stroke="#1D1B2B" stroke-opacity="1.00" stroke-width="0.3"><path d="
M 182.00 167.00 
C 185.71 168.97 191.97 167.61 193.00 163.00
C 192.34 158.52 188.04 156.77 184.00 155.00
C 181.01 157.33 178.96 163.96 182.00 167.00 Z"/>
</g>
<g fill="None" fill-opacity="0.0" stroke="#1A1625" stroke-opacity="1.00" stroke-width="0.3"><path d="
M 83.00 160.00 
C 83.01 161.33 82.97 162.67 83.00 164.00
C 84.75 164.15 84.73 166.44 86.00 167.00
C 89.83 164.68 87.27 159.59 87.00 156.00
C 85.50 155.81 83.27 158.81 83.00 160.00 Z"/>
</g>
<g fill="None" fill-opacity="0.0" stroke="#10110B" stroke-opacity="1.00" stroke-width="0.3"><path d="
M 93.00 166.00 
C 93.01 166.02 94.81 161.34 93.78 160.22 C 92.75 159.11 92.26 157.01 92.00 156.00
C 92.13 159.12 91.11 163.35 93.00 166.00 Z"/>
</g>
<g fill="None" fill-opacity="0.0" stroke="#6F6F6F" stroke-opacity="1.00" stroke-width="0.3"><path d="
M 65.00 160.00 
C 65.00 160.00 64.25 159.75 64.00 160.00
C 64.00 160.00 64.24 160.68 64.00 161.00
C 65.62 161.48 67.62 160.58 69.00 162.00
C 69.00 161.00 69.00 160.00 69.00 159.00
C 67.80 158.88 66.53 160.11 65.00 160.00 Z"/>
</g>
<g fill="None" fill-opacity="0.0" stroke="#1B1B1B" stroke-opacity="1.00" stroke-width="0.3"><path d="
M 64.00 161.00 
C 64.23 163.30 63.69 165.71 64.00 168.00
C 64.00 168.00 64.55 168.15 65.00 168.00
C 67.39 167.19 70.12 168.98 70.00 169.00
C 75.25 168.50 66.76 162.35 72.00 161.00
C 70.70 160.97 70.27 159.13 69.00 159.00
C 69.00 160.00 69.00 161.00 69.00 162.00
C 67.62 160.58 65.62 161.48 64.00 161.00 Z"/>
</g>
<g fill="None" fill-opacity="0.0" stroke="#807C80" stroke-opacity="1.00" stroke-width="0.3"><path d="
M 53.00 161.00 
C 55.68 161.24 59.06 161.44 61.00 160.00
C 60.50 160.00 59.19 159.76 59.00 160.00
C 58.81 160.23 56.35 160.00 56.00 160.00
C 55.61 160.00 53.24 159.74 53.00 160.00
C 53.00 160.00 53.24 160.68 53.00 161.00 Z"/>
</g>
<g fill="None" fill-opacity="0.0" stroke="#1D1A1A" stroke-opacity="1.00" stroke-width="0.3"><path d="
M 53.00 161.00 
C 51.39 163.18 53.54 169.04 51.00 169.00
C 51.00 169.00 50.25 169.25 50.00 169.00
C 50.36 171.51 48.57 177.10 53.00 176.00
C 52.28 171.39 54.53 167.54 54.00 163.00
C 56.81 164.89 55.84 168.95 56.00 172.00
C 57.56 169.29 59.32 168.64 62.00 169.00
C 62.00 166.00 62.00 163.00 62.00 160.00
C 62.00 160.00 61.50 160.00 61.00 160.00
C 59.06 161.44 55.68 161.24 53.00 161.00 Z"/>
</g>
<g fill="None" fill-opacity="0.0" stroke="#4B4827" stroke-opacity="1.00" stroke-width="0.3"><path d="
M 64.00 168.00 
C 63.69 165.71 64.23 163.30 64.00 161.00
C 62.74 162.71 62.25 166.30 64.00 168.00 Z"/>
</g>
<g fill="None" fill-opacity="0.0" stroke="#727176" stroke-opacity="1.00" stroke-width="0.3"><path d="
M 65.00 168.00 
C 65.00 168.00 65.25 168.73 65.00 169.00
C 66.62 169.00 68.39 169.20 70.00 169.00
C 70.12 168.98 67.39 167.19 65.00 168.00 Z"/>
</g>
<g fill="None" fill-opacity="0.0" stroke="#50544E" stroke-opacity="1.00" stroke-width="0.3"><path d="
M 117.00 168.00 
C 117.98 169.31 120.64 170.13 122.00 169.00
C 121.76 167.49 119.77 168.03 119.00 167.00
C 118.49 167.03 118.27 168.84 117.00 168.00 Z"/>
</g>
<g fill="#1A1B2B" fill-opacity="1.00" stroke="None">
<path d="
M 0.00 225.00 
L 225.00 225.00
L 225.00 0.00
L 0.00 0.00
L 0.00 225.00
M 125.00 53.00 
C 126.10 53.27 129.10 52.85 129.00 55.00
C 131.22 57.60 128.84 58.74 128.00 61.00
C 126.81 64.20 128.06 65.69 124.00 67.00
C 123.85 67.05 124.00 68.00 124.00 68.00
C 121.46 74.56 108.27 74.18 103.78 72.22 C 99.29 70.26 94.05 58.83 96.00 56.00
C 101.09 48.59 117.91 51.26 125.00 53.00
M 115.00 99.00 
C 115.38 101.37 115.59 103.57 116.00 106.00
C 116.77 108.46 120.01 113.79 120.00 118.00
C 111.83 128.23 104.77 118.57 107.92 109.92 C 111.08 101.27 110.18 89.96 105.00 85.00
C 105.44 83.71 106.58 82.79 108.00 83.00
C 107.77 82.84 108.00 82.00 108.00 82.00
C 107.88 81.01 108.09 79.99 108.00 79.00
C 112.40 77.34 121.86 80.04 117.23 85.23 C 112.60 90.42 118.56 94.54 115.00 99.00
M 97.00 88.00 
C 93.55 96.12 88.57 99.28 90.00 110.00
C 90.93 113.59 97.25 116.23 96.00 121.00
C 99.64 121.12 102.90 123.31 105.00 127.00
C 105.76 127.33 106.16 127.82 107.00 128.00
C 110.12 127.98 115.14 127.00 119.00 127.00
C 119.50 127.00 120.00 127.00 120.00 127.00
C 122.19 123.87 125.23 121.59 129.00 121.00
C 131.73 114.57 135.28 107.89 134.00 100.00 C 132.72 92.11 125.54 89.77 124.00 85.00
C 126.34 82.60 132.23 88.89 134.00 91.00
C 141.95 95.92 142.78 110.23 137.00 117.00
C 136.51 118.17 136.20 118.69 136.00 120.00
C 135.57 122.85 136.33 125.40 137.00 128.00
C 133.37 124.81 128.61 128.77 128.00 133.00
C 115.82 137.91 101.11 135.17 91.00 126.00
C 90.48 127.89 87.83 128.25 86.00 128.00
C 85.61 125.71 88.07 124.59 90.00 125.00
C 85.32 122.29 85.56 110.52 85.00 104.00 C 84.44 97.48 91.29 89.66 94.00 84.00
C 100.49 81.17 108.59 87.49 97.00 88.00
M 65.00 160.00 
C 66.53 160.11 67.80 158.88 69.00 159.00
C 70.27 159.13 70.70 160.97 72.00 161.00
C 66.76 162.35 75.25 168.50 70.00 169.00
C 68.39 169.20 66.62 169.00 65.00 169.00
C 64.04 169.00 62.95 169.13 62.00 169.00
C 59.32 168.64 57.56 169.29 56.00 172.00
C 55.84 168.95 56.81 164.89 54.00 163.00
C 54.53 167.54 52.28 171.39 53.00 176.00
C 48.57 177.10 50.36 171.51 50.00 169.00
C 50.05 168.50 50.00 168.00 50.00 168.00
C 46.94 165.66 48.01 161.17 49.00 158.00
C 46.55 157.91 43.39 157.77 42.00 160.00
C 45.06 162.39 40.32 166.30 43.00 169.00
C 36.50 175.50 33.33 162.03 38.00 159.00
C 33.61 159.64 35.79 153.00 32.00 156.00
C 30.43 155.33 29.59 151.88 34.00 152.00
C 38.25 151.62 42.73 152.00 47.00 152.00
C 47.50 152.00 48.58 152.18 49.00 152.00
C 50.79 151.24 52.25 150.54 54.00 152.00
C 52.28 154.27 53.27 157.34 53.00 160.00
C 53.24 159.74 55.61 160.00 56.00 160.00
C 56.00 157.33 56.00 154.67 56.00 152.00
C 62.42 151.61 59.24 156.31 59.00 160.00
C 59.19 159.76 60.50 160.00 61.00 160.00
C 61.50 160.00 62.00 160.00 62.00 160.00
C 62.00 157.76 62.35 155.21 62.00 153.00
C 60.32 152.74 61.92 152.24 62.00 152.00
C 64.59 144.20 74.63 149.64 72.00 157.00
C 69.45 156.52 67.81 156.26 65.00 156.00
C 65.00 157.33 65.00 158.67 65.00 160.00
M 131.00 152.00 
C 135.52 149.64 136.37 152.22 138.00 156.00
C 139.20 158.02 141.25 161.09 143.00 162.00
C 145.50 159.25 142.38 154.32 145.00 152.00
C 145.81 151.61 147.15 152.31 148.00 152.00
C 148.51 157.86 145.11 169.89 155.00 168.00
C 154.47 169.60 152.25 168.72 151.00 169.00
C 152.23 169.76 154.05 169.77 155.00 171.00
C 152.40 175.56 147.45 176.35 142.00 176.00
C 141.27 169.57 140.56 176.92 138.00 177.00
C 135.57 174.07 140.30 171.43 139.00 168.00
C 136.28 165.83 130.27 163.54 132.00 171.00
C 127.67 172.12 127.02 166.51 129.00 164.00
C 124.02 162.35 126.32 158.01 123.00 155.00
C 118.75 155.86 118.12 158.36 117.00 163.00
C 127.15 165.63 118.98 177.94 115.00 167.00
C 113.05 166.89 110.23 169.12 112.00 171.00
C 107.91 170.58 104.64 171.07 104.00 166.00
C 102.75 166.30 102.29 167.83 101.00 168.00
C 100.53 168.33 99.35 168.65 99.00 169.00
C 98.86 169.14 97.79 170.81 98.00 171.00
C 98.31 170.76 99.00 171.00 99.00 171.00
C 101.95 170.90 100.92 171.58 102.00 173.00
C 99.53 175.80 95.76 178.16 91.00 176.00 C 86.24 173.84 88.57 175.16 84.00 176.00
C 82.59 172.50 83.17 172.23 80.00 174.00
C 80.87 166.70 78.41 159.76 80.00 153.00
C 81.71 151.22 82.46 152.59 84.00 153.00
C 85.24 153.33 85.72 154.81 87.00 155.00
C 86.73 153.72 87.77 152.28 89.00 152.00
C 90.31 151.83 91.68 152.13 93.00 152.00
C 92.07 153.14 91.92 154.55 92.00 156.00
C 92.26 157.01 92.75 159.11 93.78 160.22 C 94.81 161.34 93.01 166.02 93.00 166.00
C 99.20 174.68 101.64 160.55 102.00 157.00
C 99.13 158.99 96.48 156.30 96.00 153.00
C 99.99 151.33 102.71 149.59 107.00 152.00
C 107.49 152.08 108.00 152.00 108.00 152.00
C 110.27 149.28 112.94 150.28 113.00 154.00
C 115.92 152.64 116.56 150.49 117.00 148.00
C 124.51 146.04 122.55 160.93 130.00 155.00
C 130.12 153.53 128.15 151.69 131.00 152.00
M 156.00 168.00 
C 158.86 163.48 158.68 156.90 157.00 152.00
C 160.22 154.16 160.72 166.27 156.00 168.00
M 177.00 162.00 
C 176.15 160.23 174.90 158.04 174.00 156.00
C 169.73 158.30 171.29 163.92 171.00 168.00
C 170.47 169.33 169.86 168.32 169.00 169.00
C 167.00 170.59 162.70 166.16 164.22 162.78 C 165.75 159.40 160.90 154.10 162.00 153.00
C 164.39 150.61 172.52 152.00 176.00 152.00
C 177.67 152.00 179.33 152.00 181.00 152.00
C 188.56 152.00 198.58 155.54 193.69 164.69 C 188.81 173.85 179.91 168.09 177.00 162.00 Z"/>
</g>
<g fill="#B09667" fill-opacity="1.00" stroke="None">
<path d="
M 96.00 56.00 
C 96.03 58.37 98.50 59.72 99.00 62.00
C 105.97 59.36 113.81 56.53 121.00 60.00
C 122.25 60.32 122.10 60.56 123.00 61.00
C 123.24 61.12 125.69 62.03 126.00 62.00
C 125.84 61.80 129.58 57.53 128.00 55.00
C 126.77 54.70 125.85 53.38 125.00 53.00
C 117.91 51.26 101.09 48.59 96.00 56.00 Z"/>
</g>
<g fill="#302B23" fill-opacity="1.00" stroke="None">
<path d="
M 128.00 55.00 
C 128.47 55.12 129.00 55.00 129.00 55.00
C 129.10 52.85 126.10 53.27 125.00 53.00
C 125.85 53.38 126.77 54.70 128.00 55.00 Z"/>
</g>
<g fill="#595255" fill-opacity="1.00" stroke="None">
<path d="
M 126.00 62.00 
C 126.24 61.98 127.84 61.13 128.00 61.00
C 128.84 58.74 131.22 57.60 129.00 55.00
C 129.00 55.00 128.47 55.12 128.00 55.00
C 129.58 57.53 125.84 61.80 126.00 62.00 Z"/>
</g>
<g fill="#281D0F" fill-opacity="1.00" stroke="None">
<path d="
M 124.00 68.00 
C 123.80 68.41 122.38 68.86 122.00 69.00
C 119.89 70.61 118.84 70.74 116.00 71.00
C 111.07 71.45 105.67 71.50 102.00 68.00
C 104.62 66.25 108.53 65.82 112.00 66.00
C 111.98 66.00 112.00 65.00 112.00 65.00
C 108.46 64.68 103.01 66.54 101.00 63.00
C 106.84 60.30 113.58 58.92 120.00 61.00
C 120.34 60.99 120.74 60.11 121.00 60.00
C 113.81 56.53 105.97 59.36 99.00 62.00
C 98.50 59.72 96.03 58.37 96.00 56.00
C 94.05 58.83 99.29 70.26 103.78 72.22 C 108.27 74.18 121.46 74.56 124.00 68.00 Z"/>
</g>
<g fill="#A49572" fill-opacity="1.00" stroke="None">
<path d="
M 112.00 65.00 
C 109.50 59.89 116.50 61.22 114.00 65.00
C 116.84 65.59 120.98 63.78 123.00 66.00
C 123.50 65.95 124.00 66.00 124.00 66.00
C 124.53 62.42 121.44 63.25 120.00 61.00
C 113.58 58.92 106.84 60.30 101.00 63.00
C 103.01 66.54 108.46 64.68 112.00 65.00 Z"/>
</g>
<g fill="#4D462E" fill-opacity="1.00" stroke="None">
<path d="
M 120.00 61.00 
C 121.44 63.25 124.53 62.42 124.00 66.00
C 125.81 64.23 123.21 61.24 123.00 61.00
C 122.10 60.56 122.25 60.32 121.00 60.00
C 120.74 60.11 120.34 60.99 120.00 61.00 Z"/>
</g>
<g fill="#4F3B1D" fill-opacity="1.00" stroke="None">
<path d="
M 112.00 65.00 
C 112.00 65.00 111.98 66.00 112.00 66.00
C 115.65 65.92 118.55 66.59 122.00 67.00
C 122.20 66.98 122.65 66.03 123.00 66.00
C 120.98 63.78 116.84 65.59 114.00 65.00
C 116.50 61.22 109.50 59.89 112.00 65.00 Z"/>
</g>
<g fill="#1C1D10" fill-opacity="1.00" stroke="None">
<path d="
M 124.00 66.00 
C 124.00 66.00 123.50 65.95 123.00 66.00
C 122.65 66.03 122.20 66.98 122.00 67.00
C 122.49 67.06 123.84 66.77 124.00 67.00
C 128.06 65.69 126.81 64.20 128.00 61.00
C 127.84 61.13 126.24 61.98 126.00 62.00
C 125.69 62.03 123.24 61.12 123.00 61.00
C 123.21 61.24 125.81 64.23 124.00 66.00 Z"/>
</g>
<g fill="#A6946A" fill-opacity="1.00" stroke="None">
<path d="
M 116.00 71.00 
C 117.31 70.79 120.39 69.59 122.00 69.00
C 122.38 68.86 123.80 68.41 124.00 68.00
C 124.00 68.00 123.85 67.05 124.00 67.00
C 123.84 66.77 122.49 67.06 122.00 67.00
C 118.55 66.59 115.65 65.92 112.00 66.00
C 108.53 65.82 104.62 66.25 102.00 68.00
C 105.67 71.50 111.07 71.45 116.00 71.00 Z"/>
</g>
<g fill="#615037" fill-opacity="1.00" stroke="None">
<path d="
M 116.00 71.00 
C 118.84 70.74 119.89 70.61 122.00 69.00
C 120.39 69.59 117.31 70.79 116.00 71.00 Z"/>
</g>
<g fill="#251D16" fill-opacity="1.00" stroke="None">
<path d="
M 108.00 82.00 
C 113.95 76.73 120.72 85.06 112.00 87.00
C 111.04 85.43 109.68 83.75 108.00 83.00
C 106.58 82.79 105.44 83.71 105.00 85.00
C 110.18 89.96 111.08 101.27 107.92 109.92 C 104.77 118.57 111.83 128.23 120.00 118.00
C 120.01 113.79 116.77 108.46 116.00 106.00
C 116.62 109.65 118.01 113.15 118.00 117.00
C 115.78 116.95 114.01 119.29 113.00 121.00
C 102.75 114.23 112.78 100.79 112.00 91.00
C 111.51 89.59 112.80 88.86 114.00 89.00
C 114.00 90.00 114.00 91.00 114.00 92.00
C 115.01 93.57 114.70 97.11 115.00 99.00
C 118.56 94.54 112.60 90.42 117.23 85.23 C 121.86 80.04 112.40 77.34 108.00 79.00
C 108.09 79.99 107.88 81.01 108.00 82.00 Z"/>
</g>
<g fill="#A49472" fill-opacity="1.00" stroke="None">
<path d="
M 108.00 82.00 
C 108.00 82.00 107.77 82.84 108.00 83.00
C 109.68 83.75 111.04 85.43 112.00 87.00
C 120.72 85.06 113.95 76.73 108.00 82.00 Z"/>
</g>
<g fill="#211915" fill-opacity="1.00" stroke="None">
<path d="
M 90.00 125.00 
C 90.32 125.19 90.79 125.70 91.00 126.00
C 101.11 135.17 115.82 137.91 128.00 133.00
C 128.61 128.77 133.37 124.81 137.00 128.00
C 136.33 125.40 135.57 122.85 136.00 120.00
C 124.84 142.36 92.44 132.98 87.00 112.00
C 86.13 108.65 85.58 105.34 87.00 102.00
C 87.00 101.50 86.92 100.49 87.00 100.00
C 87.62 96.40 89.81 93.58 92.00 91.00
C 92.77 90.09 98.99 83.32 97.00 88.00
C 108.59 87.49 100.49 81.17 94.00 84.00
C 91.29 89.66 84.44 97.48 85.00 104.00 C 85.56 110.52 85.32 122.29 90.00 125.00 Z"/>
</g>
<g fill="#96958F" fill-opacity="1.00" stroke="None">
<path d="
M 124.00 85.00 
C 127.85 84.11 134.08 94.25 135.00 97.00
C 135.10 96.71 136.98 96.11 137.00 96.00
C 136.31 94.52 135.01 92.21 134.00 91.00
C 132.23 88.89 126.34 82.60 124.00 85.00 Z"/>
</g>
<g fill="#211A13" fill-opacity="1.00" stroke="None">
<path d="
M 120.00 127.00 
C 132.71 124.01 138.92 108.75 135.00 97.00
C 134.08 94.25 127.85 84.11 124.00 85.00
C 125.54 89.77 132.72 92.11 134.00 100.00 C 135.28 107.89 131.73 114.57 129.00 121.00
C 125.23 121.59 122.19 123.87 120.00 127.00 Z"/>
</g>
<g fill="#A0916C" fill-opacity="1.00" stroke="None">
<path d="
M 92.00 91.00 
C 90.00 93.91 88.87 97.32 87.00 100.00
C 86.92 100.49 87.00 101.50 87.00 102.00
C 87.00 105.24 86.57 108.80 87.00 112.00
C 92.44 132.98 124.84 142.36 136.00 120.00
C 136.20 118.69 136.51 118.17 137.00 117.00
C 137.81 115.04 138.73 113.14 139.00 111.00
C 139.04 109.81 138.98 105.21 139.00 104.00
C 138.80 101.31 138.15 98.45 137.00 96.00
C 136.98 96.11 135.10 96.71 135.00 97.00
C 138.92 108.75 132.71 124.01 120.00 127.00
C 120.00 127.00 119.50 127.00 119.00 127.00
C 116.78 128.64 110.02 128.64 107.00 128.00
C 106.16 127.82 105.76 127.33 105.00 127.00
C 97.82 123.90 91.11 118.31 90.00 110.00
C 88.57 99.28 93.55 96.12 97.00 88.00
C 98.99 83.32 92.77 90.09 92.00 91.00 Z"/>
</g>
<g fill="#9E8C86" fill-opacity="1.00" stroke="None">
<path d="
M 112.00 91.00 
C 112.16 91.46 113.81 91.70 114.00 92.00
C 114.00 91.00 114.00 90.00 114.00 89.00
C 112.80 88.86 111.51 89.59 112.00 91.00 Z"/>
</g>
<g fill="#5A4D36" fill-opacity="1.00" stroke="None">
<path d="
M 87.00 100.00 
C 88.87 97.32 90.00 93.91 92.00 91.00
C 89.81 93.58 87.62 96.40 87.00 100.00 Z"/>
</g>
<g fill="#AD9565" fill-opacity="1.00" stroke="None">
<path d="
M 116.00 106.00 
C 115.59 103.57 115.38 101.37 115.00 99.00
C 114.70 97.11 115.01 93.57 114.00 92.00
C 113.81 91.70 112.16 91.46 112.00 91.00
C 112.78 100.79 102.75 114.23 113.00 121.00
C 114.01 119.29 115.78 116.95 118.00 117.00
C 118.01 113.15 116.62 109.65 116.00 106.00 Z"/>
</g>
<g fill="#261D1C" fill-opacity="1.00" stroke="None">
<path d="
M 137.00 96.00 
C 138.15 98.45 138.80 101.31 139.00 104.00
C 139.16 106.18 139.27 108.83 139.00 111.00
C 138.73 113.14 137.81 115.04 137.00 117.00
C 142.78 110.23 141.95 95.92 134.00 91.00
C 135.01 92.21 136.31 94.52 137.00 96.00 Z"/>
</g>
<g fill="#4E3F21" fill-opacity="1.00" stroke="None">
<path d="
M 87.00 112.00 
C 86.57 108.80 87.00 105.24 87.00 102.00
C 85.58 105.34 86.13 108.65 87.00 112.00 Z"/>
</g>
<g fill="#C3B4A2" fill-opacity="1.00" stroke="None">
<path d="
M 139.00 111.00 
C 139.27 108.83 139.16 106.18 139.00 104.00
C 138.98 105.21 139.04 109.81 139.00 111.00 Z"/>
</g>
<g fill="#292016" fill-opacity="1.00" stroke="None">
<path d="
M 105.00 127.00 
C 102.90 123.31 99.64 121.12 96.00 121.00
C 97.25 116.23 90.93 113.59 90.00 110.00
C 91.11 118.31 97.82 123.90 105.00 127.00 Z"/>
</g>
<g fill="#12201B" fill-opacity="1.00" stroke="None">
<path d="
M 91.00 126.00 
C 90.79 125.70 90.32 125.19 90.00 125.00
C 88.07 124.59 85.61 125.71 86.00 128.00
C 87.83 128.25 90.48 127.89 91.00 126.00 Z"/>
</g>
<g fill="#1A1A15" fill-opacity="1.00" stroke="None">
<path d="
M 107.00 128.00 
C 110.02 128.64 116.78 128.64 119.00 127.00
C 115.14 127.00 110.12 127.98 107.00 128.00 Z"/>
</g>
<g fill="#171818" fill-opacity="1.00" stroke="None">
<path d="
M 62.00 152.00 
C 64.17 151.37 68.55 151.68 70.00 153.00
C 68.93 154.14 65.95 152.29 64.00 153.00
C 64.31 155.29 63.69 157.71 64.00 160.00
C 64.25 159.75 65.00 160.00 65.00 160.00
C 65.00 158.67 65.00 157.33 65.00 156.00
C 67.81 156.26 69.45 156.52 72.00 157.00
C 74.63 149.64 64.59 144.20 62.00 152.00 Z"/>
</g>
<g fill="#191819" fill-opacity="1.00" stroke="None">
<path d="
M 108.00 152.00 
C 112.66 151.94 116.13 163.18 119.00 167.00
C 119.77 168.03 121.76 167.49 122.00 169.00
C 120.64 170.13 117.98 169.31 117.00 168.00
C 115.93 167.29 115.85 162.72 114.00 162.00
C 110.42 163.78 112.04 169.63 108.00 169.00
C 108.72 166.02 111.14 163.24 113.00 161.00
C 111.82 157.49 109.22 154.86 107.00 152.00
C 102.71 149.59 99.99 151.33 96.00 153.00
C 96.48 156.30 99.13 158.99 102.00 157.00
C 102.17 155.35 101.87 153.65 102.00 152.00
C 104.15 154.21 103.87 164.19 101.00 168.00
C 102.29 167.83 102.75 166.30 104.00 166.00
C 104.64 171.07 107.91 170.58 112.00 171.00
C 110.23 169.12 113.05 166.89 115.00 167.00
C 118.98 177.94 127.15 165.63 117.00 163.00
C 118.12 158.36 118.75 155.86 123.00 155.00
C 126.32 158.01 124.02 162.35 129.00 164.00
C 127.02 166.51 127.67 172.12 132.00 171.00
C 130.27 163.54 136.28 165.83 139.00 168.00
C 140.30 171.43 135.57 174.07 138.00 177.00
C 140.56 176.92 141.27 169.57 142.00 176.00
C 147.45 176.35 152.40 175.56 155.00 171.00
C 154.05 169.77 152.23 169.76 151.00 169.00
C 144.51 164.95 146.64 159.05 145.00 152.00
C 142.38 154.32 145.50 159.25 143.00 162.00
C 141.25 161.09 139.20 158.02 138.00 156.00
C 140.82 162.53 142.07 170.84 149.00 174.00
C 139.57 175.38 142.25 159.13 132.00 163.00
C 131.63 165.06 131.83 169.03 129.00 169.00
C 130.35 163.46 133.06 158.38 135.00 153.00
C 133.86 152.07 132.45 151.92 131.00 152.00
C 128.15 151.69 130.12 153.53 130.00 155.00
C 122.55 160.93 124.51 146.04 117.00 148.00
C 116.56 150.49 115.92 152.64 113.00 154.00
C 112.94 150.28 110.27 149.28 108.00 152.00
M 120.00 152.00 
C 117.60 158.90 113.99 152.65 120.00 152.00 Z"/>
</g>
<g fill="#3B392A" fill-opacity="1.00" stroke="None">
<path d="
M 49.00 152.00 
C 51.70 154.09 50.00 164.82 50.00 168.00
C 50.00 168.00 50.05 168.50 50.00 169.00
C 50.25 169.25 51.00 169.00 51.00 169.00
C 51.50 163.48 51.39 157.11 50.00 152.00
C 55.41 150.77 49.49 158.21 53.00 160.00
C 53.27 157.34 52.28 154.27 54.00 152.00
C 52.25 150.54 50.79 151.24 49.00 152.00 Z"/>
</g>
<g fill="#898780" fill-opacity="1.00" stroke="None">
<path d="
M 131.00 152.00 
C 132.45 151.92 133.86 152.07 135.00 153.00
C 133.06 158.38 130.35 163.46 129.00 169.00
C 131.83 169.03 131.63 165.06 132.00 163.00
C 142.25 159.13 139.57 175.38 149.00 174.00
C 142.07 170.84 140.82 162.53 138.00 156.00
C 136.37 152.22 135.52 149.64 131.00 152.00
M 133.00 162.00 
C 133.00 159.46 135.60 157.74 135.00 155.00
C 138.75 157.10 139.06 164.13 133.00 162.00 Z"/>
</g>
<g fill="#4F4E53" fill-opacity="1.00" stroke="None">
<path d="
M 32.00 156.00 
C 32.89 155.11 32.46 153.92 34.00 153.00
C 34.22 152.87 34.00 152.00 34.00 152.00
C 29.59 151.88 30.43 155.33 32.00 156.00 Z"/>
</g>
<g fill="#7D7B72" fill-opacity="1.00" stroke="None">
<path d="
M 34.00 153.00 
C 35.62 152.71 37.37 153.22 39.00 153.00
C 40.06 158.07 36.71 165.49 41.00 169.00
C 41.37 164.83 40.74 158.13 41.00 153.00
C 43.15 151.79 47.17 155.43 47.00 152.00
C 42.73 152.00 38.25 151.62 34.00 152.00
C 34.00 152.00 34.22 152.87 34.00 153.00 Z"/>
</g>
<g fill="#14100E" fill-opacity="1.00" stroke="None">
<path d="
M 34.00 153.00 
C 32.46 153.92 32.89 155.11 32.00 156.00
C 35.79 153.00 33.61 159.64 38.00 159.00
C 33.33 162.03 36.50 175.50 43.00 169.00
C 40.32 166.30 45.06 162.39 42.00 160.00
C 43.39 157.77 46.55 157.91 49.00 158.00
C 48.01 161.17 46.94 165.66 50.00 168.00
C 50.00 164.82 51.70 154.09 49.00 152.00
C 48.58 152.18 47.50 152.00 47.00 152.00
C 47.17 155.43 43.15 151.79 41.00 153.00
C 40.74 158.13 41.37 164.83 41.00 169.00
C 36.71 165.49 40.06 158.07 39.00 153.00
C 37.37 153.22 35.62 152.71 34.00 153.00 Z"/>
</g>
<g fill="#989681" fill-opacity="1.00" stroke="None">
<path d="
M 51.00 169.00 
C 53.54 169.04 51.39 163.18 53.00 161.00
C 53.24 160.68 53.00 160.00 53.00 160.00
C 49.49 158.21 55.41 150.77 50.00 152.00
C 51.39 157.11 51.50 163.48 51.00 169.00 Z"/>
</g>
<g fill="#131715" fill-opacity="1.00" stroke="None">
<path d="
M 56.00 160.00 
C 56.35 160.00 58.81 160.23 59.00 160.00
C 59.24 156.31 62.42 151.61 56.00 152.00
C 56.00 154.67 56.00 157.33 56.00 160.00 Z"/>
</g>
<g fill="#7F807B" fill-opacity="1.00" stroke="None">
<path d="
M 62.00 153.00 
C 62.49 153.08 63.00 153.00 63.00 153.00
C 63.50 153.00 64.00 153.00 64.00 153.00
C 65.95 152.29 68.93 154.14 70.00 153.00
C 68.55 151.68 64.17 151.37 62.00 152.00
C 61.92 152.24 60.32 152.74 62.00 153.00 Z"/>
</g>
<g fill="#86837A" fill-opacity="1.00" stroke="None">
<path d="
M 80.00 153.00 
C 81.91 156.84 79.94 167.32 83.08 169.92 C 86.23 172.51 98.74 175.49 99.00 171.00
C 99.00 171.00 98.31 170.76 98.00 171.00
C 93.83 174.25 87.56 169.33 83.00 169.00
C 83.00 167.33 83.00 165.67 83.00 164.00
C 82.97 162.67 83.01 161.33 83.00 160.00
C 82.99 157.81 82.25 154.38 84.00 153.00
C 82.46 152.59 81.71 151.22 80.00 153.00 Z"/>
</g>
<g fill="#151310" fill-opacity="1.00" stroke="None">
<path d="
M 84.00 153.00 
C 82.25 154.38 82.99 157.81 83.00 160.00
C 83.27 158.81 85.50 155.81 87.00 156.00
C 87.27 159.59 89.83 164.68 86.00 167.00
C 84.73 166.44 84.75 164.15 83.00 164.00
C 83.00 165.67 83.00 167.33 83.00 169.00
C 87.56 169.33 93.83 174.25 98.00 171.00
C 97.79 170.81 98.86 169.14 99.00 169.00
C 87.73 171.68 90.95 158.13 89.00 152.00
C 87.77 152.28 86.73 153.72 87.00 155.00
C 85.72 154.81 85.24 153.33 84.00 153.00 Z"/>
</g>
<g fill="#85827B" fill-opacity="1.00" stroke="None">
<path d="
M 99.00 169.00 
C 99.35 168.65 100.53 168.33 101.00 168.00
C 103.87 164.19 104.15 154.21 102.00 152.00
C 101.87 153.65 102.17 155.35 102.00 157.00
C 101.64 160.55 99.20 174.68 93.00 166.00
C 91.11 163.35 92.13 159.12 92.00 156.00
C 91.92 154.55 92.07 153.14 93.00 152.00
C 91.68 152.13 90.31 151.83 89.00 152.00
C 90.95 158.13 87.73 171.68 99.00 169.00 Z"/>
</g>
<g fill="#8A867D" fill-opacity="1.00" stroke="None">
<path d="
M 117.00 168.00 
C 118.27 168.84 118.49 167.03 119.00 167.00
C 116.13 163.18 112.66 151.94 108.00 152.00
C 108.00 152.00 107.49 152.08 107.00 152.00
C 109.22 154.86 111.82 157.49 113.00 161.00
C 111.14 163.24 108.72 166.02 108.00 169.00
C 112.04 169.63 110.42 163.78 114.00 162.00
C 115.85 162.72 115.93 167.29 117.00 168.00 Z"/>
</g>
<g fill="#888882" fill-opacity="1.00" stroke="None">
<path d="
M 120.00 152.00 
C 113.99 152.65 117.60 158.90 120.00 152.00 Z"/>
</g>
<g fill="#8C898A" fill-opacity="1.00" stroke="None">
<path d="
M 151.00 169.00 
C 152.25 168.72 154.47 169.60 155.00 168.00
C 145.11 169.89 148.51 157.86 148.00 152.00
C 147.15 152.31 145.81 151.61 145.00 152.00
C 146.64 159.05 144.51 164.95 151.00 169.00 Z"/>
</g>
<g fill="#94928D" fill-opacity="1.00" stroke="None">
<path d="
M 156.00 168.00 
C 160.72 166.27 160.22 154.16 157.00 152.00
C 158.68 156.90 158.86 163.48 156.00 168.00 Z"/>
</g>
<g fill="#908D8C" fill-opacity="1.00" stroke="None">
<path d="
M 162.00 153.00 
C 163.57 152.18 166.32 153.62 168.00 153.00
C 168.65 158.16 166.69 164.66 169.00 169.00
C 169.86 168.32 170.47 169.33 171.00 168.00
C 171.69 164.49 168.40 157.41 170.00 153.00
C 172.15 151.79 176.17 155.43 176.00 152.00
C 172.52 152.00 164.39 150.61 162.00 153.00 Z"/>
</g>
<g fill="#191816" fill-opacity="1.00" stroke="None">
<path d="
M 171.00 168.00 
C 171.29 163.92 169.73 158.30 174.00 156.00
C 174.90 158.04 176.15 160.23 177.00 162.00
C 176.65 159.23 177.99 153.23 181.00 152.00
C 179.33 152.00 177.67 152.00 176.00 152.00
C 176.17 155.43 172.15 151.79 170.00 153.00
C 168.40 157.41 171.69 164.49 171.00 168.00 Z"/>
</g>
<g fill="#908E8B" fill-opacity="1.00" stroke="None">
<path d="
M 177.00 162.00 
C 179.91 168.09 188.81 173.85 193.69 164.69 C 198.58 155.54 188.56 152.00 181.00 152.00
C 177.99 153.23 176.65 159.23 177.00 162.00
M 193.00 163.00 
C 191.97 167.61 185.71 168.97 182.00 167.00
C 166.66 158.85 197.43 143.23 193.00 163.00 Z"/>
</g>
<g fill="#A49E83" fill-opacity="1.00" stroke="None">
<path d="
M 62.00 160.00 
C 62.00 163.00 62.00 166.00 62.00 169.00
C 62.95 169.13 64.04 169.00 65.00 169.00
C 65.25 168.73 65.00 168.00 65.00 168.00
C 64.55 168.15 64.00 168.00 64.00 168.00
C 62.25 166.30 62.74 162.71 64.00 161.00
C 64.24 160.68 64.00 160.00 64.00 160.00
C 62.63 158.15 62.95 155.50 63.00 153.00
C 63.00 153.00 62.49 153.08 62.00 153.00
C 62.35 155.21 62.00 157.76 62.00 160.00 Z"/>
</g>
<g fill="#474425" fill-opacity="1.00" stroke="None">
<path d="
M 64.00 160.00 
C 63.69 157.71 64.31 155.29 64.00 153.00
C 64.00 153.00 63.50 153.00 63.00 153.00
C 62.95 155.50 62.63 158.15 64.00 160.00 Z"/>
</g>
<g fill="#151413" fill-opacity="1.00" stroke="None">
<path d="
M 99.00 171.00 
C 98.74 175.49 86.23 172.51 83.08 169.92 C 79.94 167.32 81.91 156.84 80.00 153.00
C 78.41 159.76 80.87 166.70 80.00 174.00
C 83.17 172.23 82.59 172.50 84.00 176.00
C 88.57 175.16 86.24 173.84 91.00 176.00 C 95.76 178.16 99.53 175.80 102.00 173.00
C 100.92 171.58 101.95 170.90 99.00 171.00 Z"/>
</g>
<g fill="#151314" fill-opacity="1.00" stroke="None">
<path d="
M 169.00 169.00 
C 166.69 164.66 168.65 158.16 168.00 153.00
C 166.32 153.62 163.57 152.18 162.00 153.00
C 160.90 154.10 165.75 159.40 164.22 162.78 C 162.70 166.16 167.00 170.59 169.00 169.00 Z"/>
</g>
<g fill="#151417" fill-opacity="1.00" stroke="None">
<path d="
M 182.00 167.00 
C 178.96 163.96 181.01 157.33 184.00 155.00
C 188.04 156.77 192.34 158.52 193.00 163.00
C 197.43 143.23 166.66 158.85 182.00 167.00 Z"/>
</g>
<g fill="#1F160B" fill-opacity="1.00" stroke="None">
<path d="
M 133.00 162.00 
C 139.06 164.13 138.75 157.10 135.00 155.00
C 135.60 157.74 133.00 159.46 133.00 162.00 Z"/>
</g>
<g fill="#1D1B2B" fill-opacity="1.00" stroke="None">
<path d="
M 182.00 167.00 
C 185.71 168.97 191.97 167.61 193.00 163.00
C 192.34 158.52 188.04 156.77 184.00 155.00
C 181.01 157.33 178.96 163.96 182.00 167.00 Z"/>
</g>
<g fill="#1A1625" fill-opacity="1.00" stroke="None">
<path d="
M 83.00 160.00 
C 83.01 161.33 82.97 162.67 83.00 164.00
C 84.75 164.15 84.73 166.44 86.00 167.00
C 89.83 164.68 87.27 159.59 87.00 156.00
C 85.50 155.81 83.27 158.81 83.00 160.00 Z"/>
</g>
<g fill="#10110B" fill-opacity="1.00" stroke="None">
<path d="
M 93.00 166.00 
C 93.01 166.02 94.81 161.34 93.78 160.22 C 92.75 159.11 92.26 157.01 92.00 156.00
C 92.13 159.12 91.11 163.35 93.00 166.00 Z"/>
</g>
<g fill="#6F6F6F" fill-opacity="1.00" stroke="None">
<path d="
M 65.00 160.00 
C 65.00 160.00 64.25 159.75 64.00 160.00
C 64.00 160.00 64.24 160.68 64.00 161.00
C 65.62 161.48 67.62 160.58 69.00 162.00
C 69.00 161.00 69.00 160.00 69.00 159.00
C 67.80 158.88 66.53 160.11 65.00 160.00 Z"/>
</g>
<g fill="#1B1B1B" fill-opacity="1.00" stroke="None">
<path d="
M 64.00 161.00 
C 64.23 163.30 63.69 165.71 64.00 168.00
C 64.00 168.00 64.55 168.15 65.00 168.00
C 67.39 167.19 70.12 168.98 70.00 169.00
C 75.25 168.50 66.76 162.35 72.00 161.00
C 70.70 160.97 70.27 159.13 69.00 159.00
C 69.00 160.00 69.00 161.00 69.00 162.00
C 67.62 160.58 65.62 161.48 64.00 161.00 Z"/>
</g>
<g fill="#807C80" fill-opacity="1.00" stroke="None">
<path d="
M 53.00 161.00 
C 55.68 161.24 59.06 161.44 61.00 160.00
C 60.50 160.00 59.19 159.76 59.00 160.00
C 58.81 160.23 56.35 160.00 56.00 160.00
C 55.61 160.00 53.24 159.74 53.00 160.00
C 53.00 160.00 53.24 160.68 53.00 161.00 Z"/>
</g>
<g fill="#1D1A1A" fill-opacity="1.00" stroke="None">
<path d="
M 53.00 161.00 
C 51.39 163.18 53.54 169.04 51.00 169.00
C 51.00 169.00 50.25 169.25 50.00 169.00
C 50.36 171.51 48.57 177.10 53.00 176.00
C 52.28 171.39 54.53 167.54 54.00 163.00
C 56.81 164.89 55.84 168.95 56.00 172.00
C 57.56 169.29 59.32 168.64 62.00 169.00
C 62.00 166.00 62.00 163.00 62.00 160.00
C 62.00 160.00 61.50 160.00 61.00 160.00
C 59.06 161.44 55.68 161.24 53.00 161.00 Z"/>
</g>
<g fill="#4B4827" fill-opacity="1.00" stroke="None">
<path d="
M 64.00 168.00 
C 63.69 165.71 64.23 163.30 64.00 161.00
C 62.74 162.71 62.25 166.30 64.00 168.00 Z"/>
</g>
<g fill="#727176" fill-opacity="1.00" stroke="None">
<path d="
M 65.00 168.00 
C 65.00 168.00 65.25 168.73 65.00 169.00
C 66.62 169.00 68.39 169.20 70.00 169.00
C 70.12 168.98 67.39 167.19 65.00 168.00 Z"/>
</g>
<g fill="#50544E" fill-opacity="1.00" stroke="None">
<path d="
M 117.00 168.00 
C 117.98 169.31 120.64 170.13 122.00 169.00
C 121.76 167.49 119.77 168.03 119.00 167.00
C 118.49 167.03 118.27 168.84 117.00 168.00 Z"/>
</g>
</svg>