<svg width="576" height="588" viewBox="0 0 576 588" fill="none" xmlns="http://www.w3.org/2000/svg">
<g filter="url(#filter0_f_961_2544)">
<path d="M298.195 239.4L1107.48 487.422L1096.43 557.075M298.195 239.4L238.19 598.22L178.185 957.04L241.807 976.737M298.195 239.4L267.498 231.174M298.195 239.4L300.498 226M241.807 976.737L392.791 83.8451M241.807 976.737L291.064 991.985M291.064 991.985L436.211 154.102M291.064 991.985L358.791 1012.95M358.791 1012.95L479.632 224.359M358.791 1012.95L411.432 1029.25M520.927 1063.15L676.201 102.875M520.927 1063.15L464.073 1045.55M520.927 1063.15L581.471 1081.89M464.073 1045.55L626.162 152.838M464.073 1045.55L411.432 1029.25M411.432 1029.25L550.881 199.364M929.345 1189.58L992.968 1209.28L1003.35 1143.85M929.345 1189.58L1078.27 299.871M929.345 1189.58L875.039 1172.77M875.039 1172.77L1015.53 338.642M875.039 1172.77L804.152 1150.83M804.152 1150.83L944.433 382.583M804.152 1150.83L750.791 1134.31M750.791 1134.31L892.498 298.55M750.791 1134.31L693.325 1116.52M693.325 1116.52L846.524 224.16M693.325 1116.52L642.016 1100.63M642.016 1100.63L800.549 149.77M642.016 1100.63L581.471 1081.89M581.471 1081.89L773.799 8.29017M1050.22 848.352L8.40548 534.625M1050.22 848.352L1041.35 904.285M1050.22 848.352L1059.08 792.538M1003.35 1143.85L139.649 866.63M1003.35 1143.85L1012.45 1086.49M1012.45 1086.49L81.1271 799.995M1012.45 1086.49L1023.77 1015.1M1023.77 1015.1L34.3012 724.227M1023.77 1015.1L1032.48 960.219M1032.48 960.219L101.206 684.782M1032.48 960.219L1041.35 904.285M1041.35 904.285L171.642 641.252M1096.43 557.075L225.489 284.333M1096.43 557.075L1087.84 611.213M1087.84 611.213L161.837 323.671M1087.84 611.213L1079.26 665.35M1079.26 665.35L33.8723 349.451M1079.26 665.35L1067.93 736.724M1067.93 736.724L137.727 435.664M1067.93 736.724L1059.08 792.538M1059.08 792.538L129.227 503.741" stroke="#525A6A"/>
</g>
<defs>
<filter id="filter0_f_961_2544" x="0.26123" y="0.202026" width="1115.78" height="1217.73" filterUnits="userSpaceOnUse" color-interpolation-filters="sRGB">
<feFlood flood-opacity="0" result="BackgroundImageFix"/>
<feBlend mode="normal" in="SourceGraphic" in2="BackgroundImageFix" result="shape"/>
<feGaussianBlur stdDeviation="4" result="effect1_foregroundBlur_961_2544"/>
</filter>
</defs>
</svg>
