<?xml version="1.0" encoding="UTF-8"?>
<svg version="1.1" xmlns="http://www.w3.org/2000/svg" width="283" height="60">
<path d="M0 0 C4.62 -0.0825 9.24 -0.165 14 -0.25 C16.16175781 -0.30462402 16.16175781 -0.30462402 18.3671875 -0.36035156 C25.72558953 -0.4238567 30.81785779 -0.13407056 37 4 C40.08157857 7.67801313 40.83585552 11.23981008 41 16 C39.69868836 19.90393491 38.45526634 23.55251968 35 26 C34.01 26 33.02 26 32 26 C32.5775 27.13179687 33.155 28.26359375 33.75 29.4296875 C34.50020991 30.91135207 35.25019847 32.39312873 36 33.875 C36.3815625 34.62136719 36.763125 35.36773437 37.15625 36.13671875 C37.69765625 37.20986328 37.69765625 37.20986328 38.25 38.3046875 C38.58515625 38.96452637 38.9203125 39.62436523 39.265625 40.30419922 C40 42 40 42 40 44 C36.7 44 33.4 44 30 44 C29.56171875 42.92878906 29.1234375 41.85757813 28.671875 40.75390625 C25.93444566 34.51281764 25.93444566 34.51281764 22 29 C17.54860562 27.30629872 14.85647719 27.61368931 10 28 C10 33.28 10 38.56 10 44 C6.7 44 3.4 44 0 44 C0 29.48 0 14.96 0 0 Z M10 10 C10 12.97 10 15.94 10 19 C12.75026417 19.05404449 15.49946203 19.09369306 18.25 19.125 C19.41595703 19.15013672 19.41595703 19.15013672 20.60546875 19.17578125 C26.08306936 19.25968301 26.08306936 19.25968301 31 17 C31.16687448 14.58354218 31.16687448 14.58354218 31 12 C29.234465 9.82009873 29.234465 9.82009873 27.02880859 9.77294922 C25.8505249 9.78865967 25.8505249 9.78865967 24.6484375 9.8046875 C23.79765625 9.81113281 22.946875 9.81757813 22.0703125 9.82421875 C21.18085937 9.84097656 20.29140625 9.85773437 19.375 9.875 C18.02921875 9.88853516 18.02921875 9.88853516 16.65625 9.90234375 C14.43738678 9.92594868 12.2186603 9.96182038 10 10 Z " fill="#36543F" transform="translate(49,15)"/>
<path d="M0 0 C9 0 9 0 12.1875 2.859375 C13.15412015 4.1346932 14.09068526 5.43320931 15 6.75 C15.74975098 7.76042358 15.74975098 7.76042358 16.51464844 8.79125977 C17.5355353 10.1717994 18.5444147 11.56130018 19.54101562 12.95947266 C21.29643525 15.41459268 23.11581664 17.81620383 24.94628906 20.21557617 C26.64848521 22.46381389 28.32149582 24.73401936 30 27 C30.33 18.09 30.66 9.18 31 0 C33.97 0 36.94 0 40 0 C40 14.52 40 29.04 40 44 C31 44 31 44 28.28515625 41.83203125 C27.55167969 40.83558594 26.81820312 39.83914062 26.0625 38.8125 C25.45752686 38.01730957 25.45752686 38.01730957 24.84033203 37.20605469 C23.98508724 36.07738223 23.14188048 34.93950132 22.31005859 33.79345703 C20.54296951 31.37432986 18.69913687 29.01835877 16.85473633 26.65795898 C14.88552905 24.11888047 12.94566678 21.55716206 11 19 C10.67 27.25 10.34 35.5 10 44 C6.7 44 3.4 44 0 44 C0 29.48 0 14.96 0 0 Z " fill="#36543F" transform="translate(190,15)"/>
<path d="M0 0 C2.97 0 5.94 0 9 0 C9.46374023 0.98806641 9.92748047 1.97613281 10.40527344 2.99414062 C12.14124966 6.69220332 13.87854075 10.38964708 15.61621094 14.08691406 C16.36526261 15.68114894 17.11396706 17.27554701 17.86230469 18.87011719 C18.94372728 21.17426826 20.0264356 23.4778115 21.109375 25.78125 C21.43871033 26.48366821 21.76804565 27.18608643 22.10736084 27.90979004 C24.07858798 32.09888032 26.12233392 36.23754302 28.26177979 40.34362793 C29 42 29 42 29 44 C25.37 44 21.74 44 18 44 C16.35 40.37 14.7 36.74 13 33 C7.39 32.67 1.78 32.34 -4 32 C-4.66 33.98 -5.32 35.96 -6 38 C-6.97004121 40.01470098 -7.96244882 42.01922047 -9 44 C-12.3 44 -15.6 44 -19 44 C-16.56405787 35.94399137 -13.09281643 28.46336159 -9.5 20.875 C-8.62244748 19.01086717 -7.7463335 17.14606929 -6.87121582 15.28079224 C-6.07877938 13.59339552 -5.28267015 11.90772502 -4.48632812 10.22216797 C-2.92567656 6.83887636 -1.45303124 3.43064789 0 0 Z M4 14 C3.01 16.97 2.02 19.94 1 23 C3.64 23 6.28 23 9 23 C7.68 20.03 6.36 17.06 5 14 C4.67 14 4.34 14 4 14 Z " fill="#36543F" transform="translate(254,15)"/>
<path d="M0 0 C3.63 0 7.26 0 11 0 C15.29 9.57 19.58 19.14 24 29 C26.54271402 25.60971464 28.04079512 22.96475477 29.69921875 19.140625 C30.18583984 18.02558594 30.67246094 16.91054688 31.17382812 15.76171875 C31.67333984 14.60285156 32.17285156 13.44398437 32.6875 12.25 C33.19861328 11.07566406 33.70972656 9.90132812 34.23632812 8.69140625 C35.4955925 5.79627508 36.74995275 2.89911998 38 0 C41.63 0 45.26 0 49 0 C45.75155542 8.40921257 42.08390063 16.5997687 38.34448242 24.79858398 C37.30110736 27.08749266 36.26266442 29.37859634 35.22460938 31.66992188 C34.56279039 33.1251321 33.90069155 34.58021509 33.23828125 36.03515625 C32.92788406 36.72045914 32.61748688 37.40576202 32.29768372 38.11183167 C30.11500094 42.88499906 30.11500094 42.88499906 29 44 C25.99996555 44.14177857 23.00242765 44.04228771 20 44 C15.3950212 34.97081817 11.03796896 25.86819317 6.91772461 16.60864258 C6.0420902 14.64165225 5.16098758 12.67717276 4.27929688 10.71289062 C0 1.14182716 0 1.14182716 0 0 Z " fill="#36543F" transform="translate(136,15)"/>
<path d="M0 0 C13.53 0 27.06 0 41 0 C41 3.3 41 6.6 41 10 C35.72 10 30.44 10 25 10 C25 21.22 25 32.44 25 44 C22.03 44 19.06 44 16 44 C16 32.78 16 21.56 16 10 C10.72 10 5.44 10 0 10 C0 6.7 0 3.4 0 0 Z " fill="#36543F" transform="translate(0,15)"/>
<path d="M0 0 C1.23556641 0.01740234 1.23556641 0.01740234 2.49609375 0.03515625 C3.32238281 0.04417969 4.14867188 0.05320312 5 0.0625 C5.63808594 0.07410156 6.27617188 0.08570313 6.93359375 0.09765625 C7.47717529 1.31328247 7.47717529 1.31328247 8.03173828 2.5534668 C9.40661532 5.62714594 10.78219011 8.70051097 12.15820312 11.77368164 C12.7479911 13.09126926 13.33751911 14.40897329 13.92675781 15.72680664 C14.78508325 17.64632113 15.64431324 19.56542785 16.50390625 21.484375 C16.78711731 22.11737518 17.07032837 22.75037537 17.36212158 23.40255737 C18.7854217 26.57477132 20.22605274 29.73722469 21.70214844 32.88525391 C22.25032227 34.05491699 22.79849609 35.22458008 23.36328125 36.4296875 C23.85812012 37.47487549 24.35295898 38.52006348 24.86279297 39.59692383 C25.93359375 42.09765625 25.93359375 42.09765625 25.93359375 44.09765625 C22.30359375 44.09765625 18.67359375 44.09765625 14.93359375 44.09765625 C10.60026042 31.09765625 6.26692708 18.09765625 1.93359375 5.09765625 C1.57531494 6.24355225 1.21703613 7.38944824 0.84790039 8.57006836 C-0.4777443 12.80705645 -1.80745804 17.04275811 -3.13842773 21.27807617 C-3.71474132 23.11398853 -4.28993946 24.95025141 -4.86401367 26.78686523 C-5.68768453 29.42133275 -6.51531244 32.05452814 -7.34375 34.6875 C-7.60107407 35.51354233 -7.85839813 36.33958466 -8.1235199 37.19065857 C-9.95253454 42.98378454 -9.95253454 42.98378454 -11.06640625 44.09765625 C-12.91928127 44.16992127 -14.77474503 44.18146845 -16.62890625 44.16015625 C-17.64082031 44.15113281 -18.65273437 44.14210937 -19.6953125 44.1328125 C-20.47777344 44.12121094 -21.26023437 44.10960937 -22.06640625 44.09765625 C-17.92109373 33.61760557 -13.41260509 23.33160693 -8.69140625 13.09765625 C-8.15547852 11.93379395 -7.61955078 10.76993164 -7.06738281 9.57080078 C-2.68578487 0.12692745 -2.68578487 0.12692745 0 0 Z " fill="#36543F" transform="translate(116.06640625,14.90234375)"/>
<path d="M0 0 C0.99 0 1.98 0 3 0 C3 1.32 3 2.64 3 4 C4.4540625 4.4021875 4.4540625 4.4021875 5.9375 4.8125 C6.948125 5.204375 7.95875 5.59625 9 6 C9.33 6.99 9.66 7.98 10 9 C8.35 9 6.7 9 5 9 C5.33 10.32 5.66 11.64 6 13 C2.7 13 -0.6 13 -4 13 C-3.67 11.68 -3.34 10.36 -3 9 C-4.65 9 -6.3 9 -8 9 C-8 8.34 -8 7.68 -8 7 C-3.61538462 4 -3.61538462 4 -1 4 C-0.67 2.68 -0.34 1.36 0 0 Z " fill="#36543F" transform="translate(117,1)"/>
<path d="M0 0 C0.66 0 1.32 0 2 0 C3.59412284 3.18824568 3.10174735 6.62896662 3.0625 10.125 C3.05798828 10.87910156 3.05347656 11.63320313 3.04882812 12.41015625 C3.03703499 14.27347127 3.01909942 16.13674555 3 18 C1.68 18 0.36 18 -1 18 C-1.02696365 16.20841511 -1.04637917 14.41671527 -1.0625 12.625 C-1.07410156 11.62726562 -1.08570312 10.62953125 -1.09765625 9.6015625 C-1 7 -1 7 0 5 C0.0396713 3.33380554 0.04384447 1.66608987 0 0 Z " fill="#36543F" transform="translate(117,24)"/>
<path d="M0 0 C1.32 0 2.64 0 4 0 C4 2.64 4 5.28 4 8 C2.68 8 1.36 8 0 8 C0 5.36 0 2.72 0 0 Z " fill="#36543F" transform="translate(116,51)"/>
<path d="M0 0 C1.32 0 2.64 0 4 0 C4 2.31 4 4.62 4 7 C2.68 7 1.36 7 0 7 C0 4.69 0 2.38 0 0 Z " fill="#36543F" transform="translate(116,43)"/>
</svg>
