<svg id="Layer_1" data-name="Layer 1" xmlns="http://www.w3.org/2000/svg" width="164.6" height="174.9" viewBox="0 0 164.6 174.9"><defs><style>.cls-1{fill:#0e9347;}.cls-2{fill:#91c290;}.cls-3{fill:#fbfdfa;}.cls-4{fill:#4faa53;}.cls-5{fill:#fff;}.cls-6{fill:#51aa56;}.cls-7{fill:#52a95f;}.cls-8{fill:#4faa5c;}.cls-9{fill:#a3cda6;}.cls-10{fill:#74ae7f;}.cls-11{fill:#bedec1;}.cls-12{fill:#ecf6eb;}.cls-13{fill:#add5b3;}.cls-14{fill:#50aa5c;}.cls-15{fill:#4eab52;}.cls-16{fill:#55a95a;}.cls-17{fill:#fefffe;}.cls-18{fill:#fefefe;}.cls-19{fill:#fdfefd;}.cls-20{fill:#0e9247;}</style></defs><title>WGC LOGO</title><path id="_Path_" data-name="&lt;Path&gt;" class="cls-1" d="M142.4,24.7A82.2,82.2,0,0,0,2,82.9a81.3371,81.3371,0,0,0,16.7,49.7,32.5314,32.5314,0,0,0,2.3,2.9c1.6,1.9,3.3,3.8,5.1,5.6a84.7035,84.7035,0,0,0,10.3,8.7l.1-.2a62.9944,62.9944,0,0,1,19.3-15.9,59.8331,59.8331,0,0,1-16.9-14.3,31.5491,31.5491,0,0,1-2.2-2.9,58.3,58.3,0,1,1,95.2,0,31.5491,31.5491,0,0,1-2.2,2.9,58.0128,58.0128,0,0,1-16.9,14.3,62.9944,62.9944,0,0,1,19.3,15.9l.1.2a84.7035,84.7035,0,0,0,10.3-8.7c1.8-1.8,3.5-3.7,5.1-5.6a32.5314,32.5314,0,0,0,2.3-2.9,82.1829,82.1829,0,0,0-7.5-107.9Z" transform="translate(-2 -0.6)"/><path id="_Path_2" data-name="&lt;Path&gt;" class="cls-1" d="M79.7,82.4a2.5065,2.5065,0,0,1-.4-.7,64.5225,64.5225,0,0,1-2.1-6.2c-.3-1.2-.7-2.3-1.1-3.5a5.7682,5.7682,0,0,0-.3-1.4c-.1-.2,0-.3.1-.5.3-.5.7-1,1-1.5a6.2561,6.2561,0,0,0,1-2,2.2633,2.2633,0,0,0-.1-1.8c-.3-.5-.6-.5-.9-.1a4.1293,4.1293,0,0,0-.7,1.1c-.6,1.3-1.1,2.6-1.7,3.9a2.8947,2.8947,0,0,0,0,1.6,28.3728,28.3728,0,0,1,.6,3.1v1.3a1.6562,1.6562,0,0,0,0,1.2.6613.6613,0,0,1-.1.6.9984.9984,0,0,1-.4-.5c-.5-.8-.9-1.7-1.4-2.5l-2.1-4.2a8.3309,8.3309,0,0,1-.4-1.5c-.1-1.4-.2-2.8-.3-4.1-.1-1-.2-2-.4-3a2.044,2.044,0,0,0-.5-.9c-.4-.4-.9-.8-1.3-1.2a.3491.3491,0,0,0-.2-.1,5.702,5.702,0,0,0,.1,1.3c.1.8.4,1.6.5,2.4a6.15,6.15,0,0,1,.1,1.4c0,2,0,4,.1,5.9a1.6129,1.6129,0,0,0,.3.9,6.07,6.07,0,0,1,.5,1.8,30.3409,30.3409,0,0,0,.6,4.2.52.52,0,0,0,.2.4c.4.7,1,1.2,1.4,1.8.3.4.6.8.8,1.1a3.9524,3.9524,0,0,1,.7,2.8c-.2,2.4-.3,4.7-.3,7.1a13.5523,13.5523,0,0,0,.2,2c0,.1,0,.1-.1.1-.5-1.1-1-2.3-1.5-3.4a9.3848,9.3848,0,0,0-.6-1.5c-.4-1-.9-1.9-1.3-2.9a.9984.9984,0,0,0-.4-.5c-.1-.2.1-.2.2-.2a.6375.6375,0,0,1,.6,0,.3536.3536,0,0,0,.4-.4V79.5c0-.3,0-.3-.3-.3H64.7c-.3,0-.3,0-.3.3v4.3c0,.2,0,.3.3.4.3.3.7.2,1.1.2h.7c.1,0,.3,0,.3.3-.3,0-.5.2-.7.5a2,2,0,0,0-.4,2.3c.5,1.2,1,2.5,1.5,3.7l.9,2.4c.1.2.1.3.2.5-.7-.8-1.5-1.7-2.2-2.5a11.37,11.37,0,0,0-1.6-1.5.9853.9853,0,0,0-1.6.2,7.4955,7.4955,0,0,0-1,2,6.11,6.11,0,0,1-.7,1.4.9984.9984,0,0,1-.4.5.6012.6012,0,0,1-.4.1l-1.8-.9c-.2-.1-.2-.2-.2-.4l.9-3.6c0-.2,0-.2-.2-.3a4.8745,4.8745,0,0,1-1.1-.4.5925.5925,0,0,0-.7.1c-.3.2-.5.3-.8.5a2.436,2.436,0,0,1-2.2,0,.6047.6047,0,0,1-.3-.6V80.1c0-.2,0-.3.2-.3a2.1774,2.1774,0,0,0,.8-.5.7494.7494,0,0,1,.1.5.2652.2652,0,0,0,.3.3h7.1a.2652.2652,0,0,0,.3-.3V74.1a.2151.2151,0,0,0-.2-.2H55.5c-.2,0-.3,0-.4-.1a8.5187,8.5187,0,0,1-.4-2.3,2.7686,2.7686,0,0,1,.1-.9c0-.1.1-.3,0-.4a11.8654,11.8654,0,0,1,1.6-2.3,3.393,3.393,0,0,1,2.4-1.1c1.1,0,2.3-.1,3.4-.1h1.9c.4,0,.9-.1,1.3-.1.2,0,.2-.1.2-.2V61.8a5.6521,5.6521,0,0,0,0-1.3c-.4-.1-.9,0-1.3-.1h-.7c-.6-.4-.6-.4-.6-.7v-.1a10.1226,10.1226,0,0,0,.2-3,7.9848,7.9848,0,0,0-.5-2.6,13.3385,13.3385,0,0,0-1.3-3.3,2.3347,2.3347,0,0,1,0-2c.5-1.1,1-2.3,1.4-3.4a6.3562,6.3562,0,0,0,.6-1.8c.1-.4.1-.4.5-.4,1.2,0,2.5.1,3.7.1a5.702,5.702,0,0,1,1.3.1c.9,0,1.9.1,2.8.1.7,0,1.4.1,2.1.1a.52.52,0,0,0,.4-.2c.5-.9.9-1.8,1.4-2.7.1-.2.1-.3.3-.4.1-.1.2-.2.2-.3a15.1744,15.1744,0,0,1,2.6-3.5,5.4956,5.4956,0,0,1,.9-.7c.1,0,.1-.1.2-.1a3.9356,3.9356,0,0,1,2.1-.6h.2c.2.1.5,0,.7,0a1.1493,1.1493,0,0,1,.9.6c.6,1.3,1.3,2.6,2,3.9.1.2.2.2.4.2,1.8.2,3.6.3,5.4.5h.4c.3.1.3,0,.3-.3v-3c0-.2,0-.2.2-.2h5.8a.2652.2652,0,0,1,.3.3v6.5c0,.2,0,.3-.3.3H97.1c-.2,0-.2,0-.2.2v5.1c0,.2.1.2.3.3,1,.4,2,.7,3,1.1.1,0,.2.1.3.1a.9016.9016,0,0,1,.6.6c.7,1.5,1.4,3,2.2,4.4.1.1.1.2.3.2.3,0,.7.1,1,.1.4,0,.6.2.9.5,1.1,1.4,2.3,2.7,3.4,4.1a.9078.9078,0,0,0,.7.3c.8-.1,1.5-.1,2.3-.2a7.4124,7.4124,0,0,1,2.1.1c.9.1,1.2.5,1.4,1.4.1.7.1,1.4.2,2.1.2,2,.2,4.1.2,6.1v4.6c0,.2-.1.2-.2.1s-.3-.2-.4-.3c-1.1-.9-2.3-1.8-3.4-2.7a.1875.1875,0,0,0-.3,0,10.9165,10.9165,0,0,0-1.3,1.7c-.7.9-1.5,1.8-2.2,2.7-.1,0-.2,0-.2.1-.1.2-.3.2-.5.2H107a9.3491,9.3491,0,0,0-3.3-.4,21.75,21.75,0,0,0-2.6.1,4.89,4.89,0,0,0-2.3.8A20.2784,20.2784,0,0,0,97,78.5c-.2.1-.2.1-.4,0a4.62,4.62,0,0,0-.7-.7c-.2-.1-.2-.3-.4-.5-.3-.3-.3-.3-.5,0a3.1139,3.1139,0,0,1-.7.9,15.757,15.757,0,0,0-1.2,1.5,9.6107,9.6107,0,0,0-1.4,2.1c-.1.2-.2.1-.3.1s-.2,0-.2-.1h0a1.7969,1.7969,0,0,1-.4-.9c0-.3.3-.5.5-.8.9-1.3,1.6-2.7,2.6-3.9.5-.6,1-1.2,1.6-1.8a7.6322,7.6322,0,0,1,1.1-.8,8.51,8.51,0,0,1,1.7-.6c.2,0,.2-.1.2-.3V70.8c0-.2-.1-.3-.2-.3a2.7686,2.7686,0,0,0-.9-.1h-1a1.33,1.33,0,0,0-.8.3,11.984,11.984,0,0,0-1.7,2.1c-1.2,1.7-2.6,3.4-3.8,5.1a.0979.0979,0,0,1-.1.1,4.2528,4.2528,0,0,1-.2-1.1c-.3-1.7-.5-3.3-.8-5a15.525,15.525,0,0,0-.4-2.1c-.1-.4-.3-.5-.6-.5a.67.67,0,0,0-.7.4,1.934,1.934,0,0,0,0,1.3c.3,1.8.6,3.7.9,5.5.1.8.3,1.7.4,2.5,0,.1,0,.2-.1.2A9.9962,9.9962,0,0,0,86.8,82a2.1532,2.1532,0,0,0-.2,1.1c-.1,1.8,0,3.6,0,5.4,0,1.2.1,2.5.2,3.7.1,1.3.1,2.6.2,3.9v.4c-.2-.2-.2-.4-.3-.6a15.525,15.525,0,0,0-.4-2.1c-.4-1.5-.4-3-.8-4.5-.1-.3-.2-.7-.3-1-.1-.2,0-.5,0-.8a11.019,11.019,0,0,0,.2-1.8,3.4019,3.4019,0,0,0-.1-1c-.1-.2-.1-.2-.3-.1l-1.2.6c0-.7.1-1.4.1-2.1.1-1.3.2-2.5.3-3.8,0-.5.1-1.1.1-1.6a6.1538,6.1538,0,0,0-.2-1.9,3.32,3.32,0,0,1,0-2.2c.7-3.2,1.2-6.5,1.8-9.7l.3-1.2a1.2037,1.2037,0,0,0-.9-1.4c-.2,0-.1.1-.2.2l-.6,2.1c-.8,2.8-1.7,5.7-2.5,8.5a4.3042,4.3042,0,0,0,0,1.6l.9,4.8a4.102,4.102,0,0,1,.1,1.1v.2c-.3.2-.5.4-.8.6-.1,0-.2.1-.3.1a1.91,1.91,0,0,0-1.6,1.6.3436.3436,0,0,1-.6.3Z" transform="translate(-2 -0.6)"/><path id="_Path_3" data-name="&lt;Path&gt;" class="cls-2" d="M83.1,34.9c-.2,0-.5.1-.7,0a.8542.8542,0,0,1,.7,0Z" transform="translate(-2 -0.6)"/><path id="_Path_4" data-name="&lt;Path&gt;" class="cls-3" d="M86.2,124.2a3.7513,3.7513,0,0,0-.1-1c-.1-.3.1-.5.1-.8s0-.3-.3-.3H83.5c-1.5.1-3,0-4.4,0a.2652.2652,0,0,0-.3.3v.3c0,.2,0,.4-.3.4-.2,0-.1.1,0,.2s.1.1.2.1c.2,0,.3.2.2.4a.6375.6375,0,0,0,0,.6c0,.4-.1.7-.1,1.1-.2-.1-.2-.2-.4-.3-.1,0,0,.1-.1.1-.1.3-.2.3-.4.1-.1-.1-.2-.1-.3.1a.0979.0979,0,0,1-.1.1c-.1.4-.4.5-.8.5a1.2683,1.2683,0,0,0-.6.1.2652.2652,0,0,1-.3-.3.8456.8456,0,0,0,0-.7.7494.7494,0,0,1-.1-.5,26.3522,26.3522,0,0,0-.2-2.8.2151.2151,0,0,0-.2-.2c-.2,0-.4.1-.7.1-.2,0-.4-.1-.3-.3v-.7a1.2683,1.2683,0,0,1,.1-.6c.2-.2,0-.5,0-.7-.1-.5-.1-.5.4-.5h.4c.4,0,.5-.1.5-.5v-.8c0-.2.1-.2.2-.2a2.2018,2.2018,0,0,0,.8-.1.8236.8236,0,0,0,.8-.5.7581.7581,0,0,1,.2-.4c.1-.1.2-.2.3-.1a.1385.1385,0,0,1,0,.2c0,.1-.1.2-.1.3.2-.1.3-.3.4-.4a3.5521,3.5521,0,0,0,.4-.9v-.3c0-.2-.1-.3,0-.5a2.5563,2.5563,0,0,0,0-1.5c0-.2,0-.2.2-.2h.7c.4,0,.5-.2.6-.6v-.2c0-.2.1-.3.2-.2.1,0,.2,0,.2-.2,0-.1,0-.3.3-.3.4,0,.5.1.5.4s-.1.6-.1.9c-.2-.1-.2-.3-.2-.5a9.9928,9.9928,0,0,0-.8,1.4c-.6,1-1.2,2.1-1.8,3.1a.961.961,0,0,1-.9.6,2.2018,2.2018,0,0,1-.8.1.43.43,0,0,0-.4.4c-.1.3-.2.5-.3.8a6.5287,6.5287,0,0,1-.8,1.7c-.2.3-.2.3.1.4a.8746.8746,0,0,1,.6.9c0,.9.1,1.8.1,2.8a.2652.2652,0,0,0,.3.3c.6.1.9-.2,1-.8a5.0194,5.0194,0,0,0-.2-1.2c0-.1-.1-.3-.1-.4,0-1.1-.1-2.3-.1-3.4,0-.3,0-.4.4-.4.8-.2,1.7-.4,2.5-.6h.2c.2,0,.3,0,.2.2-.1.5-.1,1-.2,1.5-.1.4,0,.4.3.4a13.5235,13.5235,0,0,1,2.9.4c.7.4.7.4.7,0,.1-.7.2-1.5.3-2.2a4.1955,4.1955,0,0,1,.9-1.9c.1-.2.2-.1.4,0a.7581.7581,0,0,1,.2.4c.2.2.2.4.3.7a5.3884,5.3884,0,0,0,.3,1,6.4653,6.4653,0,0,1,.4,2v1.7a5.0792,5.0792,0,0,1-.3,1.7C86.4,124,86.4,124.1,86.2,124.2Z" transform="translate(-2 -0.6)"/><path id="_Path_5" data-name="&lt;Path&gt;" class="cls-4" d="M85.8,116.9c-.1-.1-.1-.3-.2-.4s-.1-.1-.2,0a5.234,5.234,0,0,0-1,2.7,9.8524,9.8524,0,0,1-.2,1.7c0,.2-.1.2-.2.2a12.7,12.7,0,0,0-3.4-.5c-.1,0-.2,0-.2-.2l.3-1.8c0-.1,0-.2-.1-.1-.9.2-1.9.4-2.8.6a.2151.2151,0,0,0-.2.2c0,1.2,0,2.4.1,3.6,0,.4.2.7.2,1.1v.6c-.1.6-.5.8-1.1.7a.2652.2652,0,0,1-.3-.3c0-1.1-.1-2.2-.1-3.3a.2151.2151,0,0,0-.2-.2l-.6-.3c-.1-.1-.1-.1-.1-.2a7.2389,7.2389,0,0,0,1.2-2.7.7808.7808,0,0,1,.4-.4,4.401,4.401,0,0,0,1-.2,1.2755,1.2755,0,0,0,.7-.5c.8-1.4,1.6-2.8,2.4-4.3.1-.1.2-.3.3-.4a.8437.8437,0,0,0,.2.7v1.9a6.7525,6.7525,0,0,0,.2,1.4c0,.1.1.2.2.3a1.7105,1.7105,0,0,0,1.7.1c.2,0,.2-.2.2-.3.1-.4.2-.8.3-1.3.1-.3.1-.4.5-.4a2.7155,2.7155,0,0,1,1.7.6,10.9487,10.9487,0,0,1,1.1,1,1.2172,1.2172,0,0,0,1,.6H89a.2151.2151,0,0,1,.2.2c0,.1-.1.1-.2.1h-.8a4.2528,4.2528,0,0,1-1.1-.2.76.76,0,0,1-.6-.8c0-.3-.2-.5-.6-.5a.0979.0979,0,0,0-.1.1c0,.1,0,.2.1.2C86,116.6,86,116.7,85.8,116.9Z" transform="translate(-2 -0.6)"/><path id="_Path_6" data-name="&lt;Path&gt;" class="cls-5" d="M54.9,73.5h7.5c.3,0,.3.1.3.3v5.8c0,.2,0,.3-.3.3H55.1a.2652.2652,0,0,1-.3-.3V73.9A.7559.7559,0,0,0,54.9,73.5Z" transform="translate(-2 -0.6)"/><path id="_Path_7" data-name="&lt;Path&gt;" class="cls-6" d="M79.7,97v.5c-.1.2,0,.3,0,.5v.4c-.1.2,0,.3,0,.5v.5c-.1.1,0,.3,0,.4v.5c-.1.2,0,.3,0,.5v.4c-.1.1,0,.3,0,.4,0,0,0,.2-.1,0a.3674.3674,0,0,1-.1-.3,20.9021,20.9021,0,0,1-.1-2.5,21.6276,21.6276,0,0,0-.9-6.2,13.0691,13.0691,0,0,0-1.2-2.7c-.6-1.1-1.2-2.1-1.9-3.2a1.24,1.24,0,0,1-.1-1.3c.2-.3.3-.6.5-.9.1-.1.1-.1.2,0,.1.2.2.3.3.5a5.0234,5.0234,0,0,0,.5,1.3,11.2236,11.2236,0,0,1,.8,2.6c.5,1.7,1.2,3.4,1.8,5a8.5606,8.5606,0,0,1,.5,2.3A1.0775,1.0775,0,0,0,79.7,97Z" transform="translate(-2 -0.6)"/><path id="_Path_8" data-name="&lt;Path&gt;" class="cls-3" d="M86.2,114.6c0-.5-.1-.9.3-1.2.1-.1,0-.1,0-.1-.2-.1-.2-.3-.2-.5,0-.6.1-1.3.1-1.9,0-.5-.1-1-.1-1.5,0-.1-.1-.2-.1-.3s-.1-.3,0-.4c.1-.2.2-.2.3-.2s.2-.1.3-.2a1.0775,1.0775,0,0,1,.8-.2c.2,0,.3.1.4-.1,0-.1.1,0,.2,0,.1.1.3.2.4.4,0,.1.1.1.1.2a.2474.2474,0,0,1,.1.4.7638.7638,0,0,0-.2.5v.5a.7347.7347,0,0,0,.2.6,1.4861,1.4861,0,0,1,.2.9,1.8539,1.8539,0,0,1-.2.7c-.2.3,0,.7,0,1s.1.6,0,.8c-.1.3-.3.3-.6.1a.1875.1875,0,0,0-.3,0,1.1042,1.1042,0,0,1-.8,0c-.5-.2-.5-.2-.7.3C86.3,114.4,86.3,114.5,86.2,114.6Z" transform="translate(-2 -0.6)"/><path id="_Path_9" data-name="&lt;Path&gt;" class="cls-4" d="M85.8,116.9c0-.1.1-.1.1-.2.1-.1.1-.2-.1-.3-.1,0-.1-.1-.1-.2s-.1-.2.1-.2a1.2683,1.2683,0,0,1,.6.1c.2.1.1.3.1.5a.67.67,0,0,0,.4.7c.1,0,.2.1.4,0a.5067.5067,0,0,1,.5.1.6012.6012,0,0,0,.4.1,2.1521,2.1521,0,0,1,.8,0c.1,0,.2,0,.2-.1a.3491.3491,0,0,0-.1-.2h0a2.0749,2.0749,0,0,0,.6-1,.44.44,0,0,0,.1-.5c.3.2.3.4.5.6.7,1.3,1.5,2.6,2.1,4,.3.7.8,1.4,1.1,2.2a2.5367,2.5367,0,0,1,.2,1.2c-.1.5-.5.6-.9.8h-.1a3.3794,3.3794,0,0,0-1.2-.6c-.3-.1-.5-.3-.8-.4-.2,0-.4-.2-.7-.3a2.3535,2.3535,0,0,0-.8-.2.8643.8643,0,0,0-.6.3c-.1.1-.1.2-.2.2a.6452.6452,0,0,1,.6-.6,3.194,3.194,0,0,1,1.4.3l1.2.6c.1.1.3.2.4,0s-.1-.2-.2-.2c-.3-.2-.4-.4-.1-.6a.0979.0979,0,0,0,.1-.1c0-.1-.1,0-.1,0-.3.2-.5,0-.8-.2a.1.1,0,0,1,0-.2c.2-.1.5-.1.7-.2.2,0,.3-.1.4-.4,0-.3.2-.5.2-.8a.7494.7494,0,0,0-.1-.5c-.7-1.4-1.4-2.8-2.1-4.1h-.1a3.5521,3.5521,0,0,1-.4.9.1875.1875,0,0,0,0,.3c0,.3,0,.3-.3.3a1.4861,1.4861,0,0,0-.9.2c-.1.1-.2,0-.2-.1a.7777.7777,0,0,0-.8-.2c-.2.1-.4,0-.6-.2a.6586.6586,0,0,1-.3-.9c0-.1,0-.2-.1-.2a.3674.3674,0,0,1,.1.3,5.9019,5.9019,0,0,0,.2,1.4,9.0042,9.0042,0,0,1,.5,4.6,4.7956,4.7956,0,0,1-.5,1.7.3674.3674,0,0,1-.1.3c0,.1,0,.2-.1.1a.0979.0979,0,0,0-.1-.1c0-.2,0-.3.1-.4h0a.3992.3992,0,0,0,.2-.4,9.758,9.758,0,0,0,.2-3.4,8.6481,8.6481,0,0,0-.6-2.3,1.4213,1.4213,0,0,1-.2-.6C86,117.2,85.8,117.1,85.8,116.9Z" transform="translate(-2 -0.6)"/><path id="_Path_10" data-name="&lt;Path&gt;" class="cls-7" d="M107.4,76.6c.2-.1.4-.1.5-.3s.1.1.2.1c-.1.1-.1.2,0,.4,1.3,1.1,2.6,2.3,4,3.4a14.29,14.29,0,0,0,2,1.4c.3.2.6.5.9.7a.1875.1875,0,0,0,.3,0,3.5082,3.5082,0,0,0,.5-.8,1.64,1.64,0,0,1-.7,1.2c-.1,0-.2,0-.2-.1-1.1-.6-2.3-1.2-3.4-1.9-.3-.2-.7-.3-1-.5-.6-.5-1.3-.9-1.6-1.6,0-.1-.1-.2-.2-.3A3.8572,3.8572,0,0,0,107.4,76.6Z" transform="translate(-2 -0.6)"/><path id="_Path_11" data-name="&lt;Path&gt;" class="cls-8" d="M108.9,87.4c.2-.5.4-.9.6-1.4a.3491.3491,0,0,1,.1-.2c.1-.1.2-.2.3-.1s.2.2.1.3c0,.1,0,.1-.1.1a16.6727,16.6727,0,0,0-.8,2c-.1.2-.1.3-.4.3-.2,0-.3-.2-.3-.4-.1-.7-.2-1.3-.3-2.1-.2.5-.4.9-.6,1.3,0,.1-.1.2-.1.3-.1.1-.2.2-.3.2-.2-.1-.2-.2-.1-.4a.0979.0979,0,0,1,.1-.1c.3-.6.5-1.3.8-1.9a.0979.0979,0,0,1,.1-.1.52.52,0,0,1,.4-.2c.2,0,.2.1.3.3.1.6.2,1.3.3,1.9-.2,0-.2.1-.1.2Z" transform="translate(-2 -0.6)"/><path id="_Path_12" data-name="&lt;Path&gt;" class="cls-3" d="M87.5,116.5a2.4067,2.4067,0,0,1-.8-.6,2.5771,2.5771,0,0,0-1.3-.8c-.3-.1-.6,0-.9-.1-.1,0-.1.1-.1.2-.1.5-.2,1-.3,1.4a.2652.2652,0,0,1-.3.3,2.4622,2.4622,0,0,1-1.2.1.55.55,0,0,1-.5-.3.4542.4542,0,0,1,.5,0c.3.2.7-.1.8-.6v-.3c-.1-.2-.1-.4.2-.5.2-.1.1-.2,0-.3-.1-.2,0-.2.1-.2h.4a2.0788,2.0788,0,0,1,1.1-.1c.1,0,.3.1.4,0,.4-.1.7.1,1.1.3.1,0,.1.1.1.2a.2652.2652,0,0,0,.3.3.0979.0979,0,0,1,.1.1C87.6,115.8,87.4,116.2,87.5,116.5Z" transform="translate(-2 -0.6)"/><path id="_Path_13" data-name="&lt;Path&gt;" class="cls-8" d="M111.5,75.6c-.2.4-.3.7-.5,1.1-.1.1-.1.2-.2.3s-.1.1-.2.1-.1-.1-.1-.2,0-.2.1-.2a14.1669,14.1669,0,0,0,.8-1.8c.1-.1.1-.3.3-.3s.2.2.2.4c0,.6.1,1.3.1,1.9.2-.3.3-.7.5-1,.1-.1.1-.3.2-.4s.1-.2.3-.1c.1,0,.1.1.1.3,0,.1,0,.1-.1.2l-.9,1.8c-.1.1-.1.3-.3.2-.2,0-.2-.2-.3-.3,0-.6-.1-1.2-.1-1.7.2-.1.2-.2.1-.3Z" transform="translate(-2 -0.6)"/><path id="_Path_14" data-name="&lt;Path&gt;" class="cls-8" d="M111.9,89.1a2.9283,2.9283,0,0,1,.7-1.6.9188.9188,0,0,1,1-.2.8745.8745,0,0,1,.5.9,2.8367,2.8367,0,0,1-.7,1.7.7755.7755,0,0,1-1,.2A1.2308,1.2308,0,0,1,111.9,89.1Z" transform="translate(-2 -0.6)"/><path id="_Path_15" data-name="&lt;Path&gt;" class="cls-8" d="M110.7,87.3c.6.1.9.3,1,.7a1.0861,1.0861,0,0,1-.7,1.2.9668.9668,0,0,1-1.2-.5.9015.9015,0,0,1-.1-.5.2.2,0,1,1,.4,0v.2c0,.2.1.4.3.4a.3653.3653,0,0,0,.5-.2.8024.8024,0,0,0,.1-.8.4711.4711,0,0,0-.6-.1c-.1,0-.3.1-.4,0s0-.3,0-.4c.2-.3.3-.5.5-.8.1-.2.2-.2.4-.1a3.5521,3.5521,0,0,1,.9.4c.1.1.3.1.2.3s-.2.2-.4.1l-.6-.3c-.1-.1-.2-.1-.3.1C110.9,87,110.8,87.1,110.7,87.3Z" transform="translate(-2 -0.6)"/><path id="_Path_16" data-name="&lt;Path&gt;" class="cls-8" d="M102.3,80.2V78.8a.2.2,0,1,1,.4,0v2c0,.1,0,.3-.2.3-.2.1-.3,0-.4-.2-.3-.4-.5-.8-.8-1.2,0-.1-.1-.1-.1-.2a2.1521,2.1521,0,0,0,0,.8v.5c0,.1,0,.3-.2.3s-.2-.2-.2-.3V79c0-.1.1-.3.2-.3.2,0,.3.1.3.2.3.3.6.8,1,1.3Z" transform="translate(-2 -0.6)"/><path id="_Path_17" data-name="&lt;Path&gt;" class="cls-8" d="M116.4,78.1a2.9655,2.9655,0,0,1-.7,1.5.7777.7777,0,0,1-.8.2.8907.8907,0,0,1-.5-.8,2.4647,2.4647,0,0,1,.8-1.7.5925.5925,0,0,1,.7-.1c.3.1.4.3.5.6Z" transform="translate(-2 -0.6)"/><path id="_Path_18" data-name="&lt;Path&gt;" class="cls-8" d="M112.7,77.9v-.2a.2151.2151,0,0,1,.2-.2c.1,0,.1.1.1.2v.1a.4575.4575,0,0,0,.4.5c.3,0,.5-.4.5-.7s-.2-.4-.5-.3c-.1,0-.2.1-.3-.1-.1-.1,0-.2,0-.3a5.5821,5.5821,0,0,0,.5-.8c.1-.2.2-.2.4-.1a4.348,4.348,0,0,0,.7.4c.1.1.2.2.1.3-.1.2-.2.1-.4,0-.1-.1-.3-.2-.4-.3s-.2-.1-.3.1c-.2.3-.2.3.1.4a.7512.7512,0,0,1,.4.9.8963.8963,0,0,1-.9.9C113.1,78.8,112.7,78.4,112.7,77.9Z" transform="translate(-2 -0.6)"/><path id="_Path_19" data-name="&lt;Path&gt;" class="cls-8" d="M106.7,79.8a1.7018,1.7018,0,0,1-.1.7.6662.6662,0,0,1-.7.5.752.752,0,0,1-.7-.5,2.2083,2.2083,0,0,1,0-1.6.5483.5483,0,0,1,.6-.4.7549.7549,0,0,1,.7.4A2.92,2.92,0,0,1,106.7,79.8Z" transform="translate(-2 -0.6)"/><path id="_Path_20" data-name="&lt;Path&gt;" class="cls-8" d="M103.6,79.5c.3-.1.5-.2.8,0a.7593.7593,0,0,1,.3.9.73.73,0,0,1-.7.6c-.4,0-.7-.1-.8-.4a.3042.3042,0,0,1,0-.4c.2-.1.2.1.3.2a.3653.3653,0,0,0,.5.2.5737.5737,0,0,0,.2-.7.462.462,0,0,0-.5-.3c-.1,0-.2.1-.3.2s-.2.1-.2,0c-.1,0-.1-.1-.1-.2.1-.3.1-.6.2-.9,0-.2.1-.2.3-.2h.8c.1,0,.3,0,.3.2s-.1.2-.3.2h-.5a.2652.2652,0,0,0-.3.3C103.7,79.3,103.6,79.4,103.6,79.5Z" transform="translate(-2 -0.6)"/><path id="_Path_21" data-name="&lt;Path&gt;" class="cls-9" d="M67,84.5c-.1-.2-.2-.2-.4-.2H65.4c-.2,0-.4,0-.5-.2.2-.1.4,0,.6,0a10.8187,10.8187,0,0,0,1.8,0c1,0,2.1-.1,3.1-.1h.3c0,.2-.1.1-.3.1h-.7c-.1,0-.2,0-.2.2a9.702,9.702,0,0,0-1.7-.1A1.1355,1.1355,0,0,1,67,84.5Z" transform="translate(-2 -0.6)"/><path id="_Path_22" data-name="&lt;Path&gt;" class="cls-10" d="M79.7,82.4a.3042.3042,0,0,0,.4,0c0,.1-.1.2-.1.3l-.1.1a.0979.0979,0,0,1-.1-.1A.3674.3674,0,0,0,79.7,82.4Z" transform="translate(-2 -0.6)"/><path id="_Path_23" data-name="&lt;Path&gt;" class="cls-3" d="M81.6,114.3a2.0542,2.0542,0,0,1,0-1.1Z" transform="translate(-2 -0.6)"/><path id="_Path_24" data-name="&lt;Path&gt;" class="cls-3" d="M79.7,97v-.9A1.3875,1.3875,0,0,1,79.7,97Z" transform="translate(-2 -0.6)"/><path id="_Path_25" data-name="&lt;Path&gt;" class="cls-3" d="M78.1,126h0C78,126.1,78,126,78.1,126Z" transform="translate(-2 -0.6)"/><path id="_Path_26" data-name="&lt;Path&gt;" class="cls-3" d="M79.6,97.9v-.5A.4464.4464,0,0,1,79.6,97.9Z" transform="translate(-2 -0.6)"/><path id="_Path_27" data-name="&lt;Path&gt;" class="cls-3" d="M79.6,98.8v-.5C79.6,98.5,79.7,98.7,79.6,98.8Z" transform="translate(-2 -0.6)"/><path id="_Path_28" data-name="&lt;Path&gt;" class="cls-3" d="M79.5,100.6v-.5C79.5,100.3,79.6,100.5,79.5,100.6Z" transform="translate(-2 -0.6)"/><path id="_Path_29" data-name="&lt;Path&gt;" class="cls-3" d="M79.5,99.7v-.4A.3042.3042,0,0,1,79.5,99.7Z" transform="translate(-2 -0.6)"/><path id="_Path_30" data-name="&lt;Path&gt;" class="cls-3" d="M79.4,101.5v-.4A.3042.3042,0,0,1,79.4,101.5Z" transform="translate(-2 -0.6)"/><path id="_Path_31" data-name="&lt;Path&gt;" class="cls-3" d="M88.9,117.1h0c-.2,0-.3.1-.4,0Z" transform="translate(-2 -0.6)"/><path id="_Path_32" data-name="&lt;Path&gt;" class="cls-11" d="M73.4,92.9c0-.1.1-.1,0,0,.1,0,.1.1,0,0Z" transform="translate(-2 -0.6)"/><path id="_Path_33" data-name="&lt;Path&gt;" class="cls-3" d="M81.6,115c-.1-.1,0-.2,0-.3Z" transform="translate(-2 -0.6)"/><path id="_Path_34" data-name="&lt;Path&gt;" class="cls-5" d="M94.6,50.8h3.7a.2652.2652,0,0,1,.3.3v5.8a.2652.2652,0,0,1-.3.3H91c-.2,0-.3,0-.3-.3V51.1a.2652.2652,0,0,1,.3-.3,21.6282,21.6282,0,0,0,3.6,0Z" transform="translate(-2 -0.6)"/><path id="_Path_35" data-name="&lt;Path&gt;" class="cls-5" d="M79.9,64H76.2a.2652.2652,0,0,1-.3-.3V57.8a.2652.2652,0,0,1,.3-.3h7.3c.3,0,.3.1.3.3v5.7c0,.4.1.4-.4.4-1.1.1-2.3.1-3.5.1Z" transform="translate(-2 -0.6)"/><path id="_Path_36" data-name="&lt;Path&gt;" class="cls-5" d="M76.5,44h3.7c.2,0,.3,0,.3.3v5.9c0,.2,0,.2-.2.2H72.9a.2652.2652,0,0,1-.3-.3V44.3a.2652.2652,0,0,1,.3-.3Z" transform="translate(-2 -0.6)"/><path id="_Path_37" data-name="&lt;Path&gt;" class="cls-5" d="M72.7,58.7a.2151.2151,0,0,1-.2.2H65c-.2,0-.2-.1-.2-.2v-6c0-.1,0-.2.1-.2a.3674.3674,0,0,1,.3-.1h7.1c.4,0,.4,0,.4.4v5.6C72.8,58.4,72.8,58.6,72.7,58.7Z" transform="translate(-2 -0.6)"/><path id="_Path_38" data-name="&lt;Path&gt;" class="cls-5" d="M96.3,67.8H88.6c-.1,0-.2,0-.2-.2v-6c0-.2.1-.2.3-.2h7.6a.6012.6012,0,0,1,.1.4c.1,1.6,0,3.2,0,4.8v.9A.3674.3674,0,0,1,96.3,67.8Z" transform="translate(-2 -0.6)"/><path id="_Path_39" data-name="&lt;Path&gt;" class="cls-5" d="M55.3,85.1c0-.1.1-.3.1-.4.4-1.4.8-2.9,1.2-4.3.1-.4.1-.4.5-.3,1,.2,2,.6,3,.9a23.3474,23.3474,0,0,1,2.5.7c.7.2.7.2.5.9-.4,1.5-.9,2.9-1.2,4.4,0,.2-.1.2-.3.2-1.1-.2-2.1-.7-3.2-.9a27.5856,27.5856,0,0,1-2.7-.8C55.4,85.3,55.3,85.3,55.3,85.1Z" transform="translate(-2 -0.6)"/><path id="_Path_40" data-name="&lt;Path&gt;" class="cls-5" d="M70.8,84.2h-.5a29.4375,29.4375,0,0,1-4.2,0,3.75,3.75,0,0,1-1.1-.1h-.2c-.2,0-.2,0-.2-.2V79.2c0-.2,0-.2.2-.2h5.9c.2,0,.2,0,.2.2v4.7C70.9,84.1,70.9,84.2,70.8,84.2Z" transform="translate(-2 -0.6)"/><path id="_Path_41" data-name="&lt;Path&gt;" class="cls-12" d="M72.7,58.7V52.9c0-.4,0-.4-.4-.4H64.9c0-.2.2-.1.3-.1h7.4c.2,0,.2,0,.2.2,0,2,0,4-.1,6.1C72.8,58.5,72.9,58.6,72.7,58.7Z" transform="translate(-2 -0.6)"/><path id="_Path_42" data-name="&lt;Path&gt;" class="cls-13" d="M96.3,67.8a1.2683,1.2683,0,0,0,.1-.6,14.7188,14.7188,0,0,1,0-2.1V61.9a.6012.6012,0,0,0-.1-.4c.2,0,.1.2.1.3a52.3042,52.3042,0,0,1,0,5.6.6012.6012,0,0,1-.1.4Z" transform="translate(-2 -0.6)"/><path id="_Path_43" data-name="&lt;Path&gt;" class="cls-14" d="M60.2,63.6V62.3c0-.1.1-.2.2-.3a.2151.2151,0,0,1,.2.2v2c0,.1,0,.2-.2.3-.2,0-.3,0-.4-.1-.3-.4-.5-.8-.8-1.2-.1-.1-.1-.2-.2-.3v1.6c0,.1-.1.1-.2.1s-.2,0-.2-.1V62.4c0-.1.1-.2.2-.3.2,0,.2,0,.3.2a14.96,14.96,0,0,1,1.1,1.3Z" transform="translate(-2 -0.6)"/><path id="_Path_44" data-name="&lt;Path&gt;" class="cls-8" d="M62.9,63.3a1.7018,1.7018,0,0,1,.1-.7.6338.6338,0,0,1,.6-.5.8116.8116,0,0,1,.8.4,2.204,2.204,0,0,1,0,1.6.6662.6662,0,0,1-.7.5.752.752,0,0,1-.7-.5A2.4852,2.4852,0,0,1,62.9,63.3Z" transform="translate(-2 -0.6)"/><path id="_Path_45" data-name="&lt;Path&gt;" class="cls-8" d="M61.5,62.9h.2a.7406.7406,0,0,1,1,.6.8241.8241,0,0,1-.7,1,.8074.8074,0,0,1-.9-.4.3042.3042,0,0,1,0-.4c.2-.1.2.1.3.2a.55.55,0,0,0,.5.3c.2-.1.3-.2.3-.4s0-.4-.3-.5c-.2-.1-.3,0-.5.1-.1.1-.2.2-.3.1a.3674.3674,0,0,1-.1-.3c0-.3.1-.5.1-.8,0-.2.1-.2.3-.2h.8c.1,0,.2,0,.2.2s-.1.2-.2.2h-.4c-.3,0-.5,0-.4.4C61.5,62.8,61.5,62.9,61.5,62.9Z" transform="translate(-2 -0.6)"/><path id="_Path_46" data-name="&lt;Path&gt;" class="cls-8" d="M56.4,76.3v1.3c0,.2,0,.3-.2.3s-.2-.2-.2-.3V75.8c0-.2,0-.3.2-.4s.3.1.4.2c.3.5.6.9.9,1.4V75.5a.2.2,0,1,1,.4,0v2.1a.2151.2151,0,0,1-.2.2.3674.3674,0,0,1-.3-.1c-.1-.2-.3-.4-.4-.6a3.2779,3.2779,0,0,0-.6-.8Z" transform="translate(-2 -0.6)"/><path id="_Path_47" data-name="&lt;Path&gt;" class="cls-8" d="M61.9,76.8a1.4862,1.4862,0,0,1-.1.6.74.74,0,0,1-1.4,0,2.2083,2.2083,0,0,1,0-1.6.5483.5483,0,0,1,.6-.4.7549.7549,0,0,1,.7.4A1.4987,1.4987,0,0,1,61.9,76.8Z" transform="translate(-2 -0.6)"/><path id="_Path_48" data-name="&lt;Path&gt;" class="cls-8" d="M58.9,76.3c.5-.2.8-.1,1,.2a.8562.8562,0,0,1-1,1.3c-.2-.1-.4-.2-.4-.5a.3674.3674,0,0,1,.1-.3c.1,0,.2,0,.2.1s.1.1.1.2a.52.52,0,0,0,.4.2.2652.2652,0,0,0,.3-.3c0-.2.1-.5-.2-.6a.4711.4711,0,0,0-.6.1.2236.2236,0,0,1-.4-.2c0-.3.1-.5.1-.8a.2652.2652,0,0,1,.3-.3h.8c.1,0,.3,0,.3.2s-.1.2-.2.2h-.3C58.9,75.8,58.9,75.8,58.9,76.3Z" transform="translate(-2 -0.6)"/><path id="_Path_49" data-name="&lt;Path&gt;" class="cls-7" d="M87.8,108.7v5.1c0,.2,0,.3-.2.2-.2,0-.4.1-.4-.2,0-1.6,0-3.2-.1-4.8,0-.2,0-.2.2-.3Z" transform="translate(-2 -0.6)"/><path id="_Path_50" data-name="&lt;Path&gt;" class="cls-15" d="M88.2,123.2h0c-.2.2-.3.3-.3.4s-.1.2-.2.1-.2,0-.2.1a.6613.6613,0,0,0,.1.6,1.0775,1.0775,0,0,1,.2.8.2652.2652,0,0,1-.3.3c-.3,0-.6-.1-.9-.1s-.3-.1-.3-.4h0c.1-.1,0-.2.1-.2.1-.6.5-1.1.5-1.7a9.6624,9.6624,0,0,0,.1-2.4,7.7891,7.7891,0,0,0-.4-2.1l-.3-.9a3.0828,3.0828,0,0,1-.1-1c0-.2,0-.3-.2-.4v-.1c0-.1.1,0,.1,0,.2,0,.3,0,.3.3,0,.1-.1.3-.1.4l.6.6c.1.1.2,0,.3,0a.7777.7777,0,0,1,.8.2c.1.1.1.1.2,0,.2-.3.5-.2.8-.2.4,0,.4,0,.3-.4v-.2a3.8805,3.8805,0,0,0,.6-1.1,4.6959,4.6959,0,0,1,.6.9c.6,1.1,1.2,2.2,1.7,3.3a1.2868,1.2868,0,0,1-.1,1.2c0,.1-.1.1-.1.2.1.4-.2.4-.4.4-.3.1-.6.1-.9.2a2.1859,2.1859,0,0,1,.5.3.1385.1385,0,0,0,.2,0c.1,0,.1-.1.2-.1h.2c0,.1-.1.1-.1.2h0c-.1.1-.3.2-.3.3,0,.2.2.2.4.3.1,0,.3.1.2.2,0,.2-.2.1-.3.1s-.2-.1-.3-.1a7.1042,7.1042,0,0,0-1.8-.8c-.7-.1-.9-.1-1.2.4C88.2,123.1,88.2,123.1,88.2,123.2Z" transform="translate(-2 -0.6)"/><path id="_Path_51" data-name="&lt;Path&gt;" class="cls-16" d="M86.2,124.7c0,.1,0,.2-.1.2v-.3A.0979.0979,0,0,1,86.2,124.7Z" transform="translate(-2 -0.6)"/><path id="_Path_52" data-name="&lt;Path&gt;" class="cls-16" d="M86.2,125c0,.3.2.3.5.3a1.95,1.95,0,0,1,.8.1c.2,0,.2,0,.2-.2a1.0775,1.0775,0,0,0-.2-.8c-.2-.2-.1-.4-.1-.6,0-.1.1-.2.2-.3.1,0,.1.2.3.2,0-.2,0-.4.3-.4a14.9189,14.9189,0,0,0-.2,2.1c0,.3-.1.4-.4.3a3.5949,3.5949,0,0,0-1.1-.2C85.9,125.4,85.9,125.4,86.2,125Z" transform="translate(-2 -0.6)"/><path id="_Path_53" data-name="&lt;Path&gt;" class="cls-17" d="M113.6,88.1a3.5061,3.5061,0,0,1-.6,1.4c-.1.1-.2.2-.4.1s-.2-.2-.2-.4a4.7144,4.7144,0,0,1,.6-1.5c.1-.1.2-.2.4-.1S113.6,87.8,113.6,88.1Z" transform="translate(-2 -0.6)"/><path id="_Path_54" data-name="&lt;Path&gt;" class="cls-17" d="M114.8,79a2.6663,2.6663,0,0,1,.7-1.4.3674.3674,0,0,1,.3-.1c.1.1.2.1.2.3v.3a2.3838,2.3838,0,0,1-.6,1.1c-.1.1-.2.2-.4.1C114.9,79.3,114.8,79.2,114.8,79Z" transform="translate(-2 -0.6)"/><path id="_Path_55" data-name="&lt;Path&gt;" class="cls-17" d="M105.5,79.8a1.7018,1.7018,0,0,1,.1-.7c0-.1.1-.2.3-.2s.3.1.3.2a2.8542,2.8542,0,0,1,0,1.3c0,.1-.1.2-.3.2s-.2-.1-.3-.3A.7494.7494,0,0,1,105.5,79.8Z" transform="translate(-2 -0.6)"/><path id="_Path_56" data-name="&lt;Path&gt;" class="cls-8" d="M93.3,54.4V53.1c0-.1,0-.3.2-.3s.2.2.2.3V55c0,.1,0,.3-.2.3s-.3,0-.4-.2c-.3-.4-.5-.8-.8-1.2-.1-.1-.1-.2-.2-.3V55a.2.2,0,1,1-.4,0V53c0-.1,0-.3.2-.3.2-.1.3.1.4.2a5.6047,5.6047,0,0,0,1,1.5Z" transform="translate(-2 -0.6)"/><path id="_Path_57" data-name="&lt;Path&gt;" class="cls-8" d="M96,54.1a1.2683,1.2683,0,0,1,.1-.6.6611.6611,0,0,1,.7-.6.7493.7493,0,0,1,.8.5,1.95,1.95,0,0,1,0,1.5.74.74,0,0,1-1.4,0c0-.1-.1-.2-.1-.3A1.0873,1.0873,0,0,1,96,54.1Z" transform="translate(-2 -0.6)"/><path id="_Path_58" data-name="&lt;Path&gt;" class="cls-8" d="M94.6,53.8a1.2683,1.2683,0,0,1,.6-.1.7791.7791,0,0,1,.5,1,.9605.9605,0,0,1-.9.7.6662.6662,0,0,1-.7-.5.3674.3674,0,0,1,.1-.3c.1,0,.2,0,.2.1h0c.2.3.3.4.6.3a.6047.6047,0,0,0,.3-.6.4419.4419,0,0,0-.7-.3c-.1,0-.1.1-.2.1-.2.1-.3,0-.3-.2,0-.3.1-.6.1-.9,0-.1.1-.2.3-.2h.9c.1,0,.2,0,.2.2a.2151.2151,0,0,1-.2.2h-.5c-.2,0-.3.1-.4.3C94.6,53.6,94.6,53.7,94.6,53.8Z" transform="translate(-2 -0.6)"/><path id="_Path_59" data-name="&lt;Path&gt;" class="cls-8" d="M77.4,60.5v1.4c0,.1-.1.3-.2.3-.2,0-.2-.1-.2-.3v-2c0-.1,0-.2.2-.3.1,0,.3,0,.3.1.3.4.5.9.8,1.3,0,.1.1.1.2.2V60c0-.2-.1-.4.2-.4s.2.2.2.4v1.7c0,.2,0,.3-.2.4a.52.52,0,0,1-.4-.2,4.1945,4.1945,0,0,0-.9-1.4Z" transform="translate(-2 -0.6)"/><path id="_Path_60" data-name="&lt;Path&gt;" class="cls-8" d="M81.3,60.8a1.7018,1.7018,0,0,1,.1-.7.7726.7726,0,0,1,1.4-.1,2.2083,2.2083,0,0,1,0,1.6.6662.6662,0,0,1-.7.5.752.752,0,0,1-.7-.5A1.95,1.95,0,0,1,81.3,60.8Z" transform="translate(-2 -0.6)"/><path id="_Path_61" data-name="&lt;Path&gt;" class="cls-8" d="M79.9,60.5c.5-.1.8-.1,1,.2a.8562.8562,0,0,1-1,1.3c-.2-.1-.4-.2-.4-.4a.3674.3674,0,0,1,.1-.3c.1-.1.2,0,.3.1,0,.1.1.1.1.2a.3881.3881,0,0,0,.7-.1.8782.8782,0,0,0-.1-.7c-.2-.2-.4-.1-.6.1a1.3382,1.3382,0,0,1-.5.1.3674.3674,0,0,1-.1-.3c0-.2.1-.5.1-.7a.2652.2652,0,0,1,.3-.3h.8c.1,0,.2,0,.2.2a.2151.2151,0,0,1-.2.2h-.4C79.9,60,79.9,60,79.9,60.5Z" transform="translate(-2 -0.6)"/><path id="_Path_62" data-name="&lt;Path&gt;" class="cls-8" d="M75.1,47.5V46.1a.2151.2151,0,0,1,.2-.2c.2,0,.2.1.2.3v2c0,.1,0,.3-.2.3s-.3,0-.4-.2-.2-.3-.3-.5l-.6-.9v1.3a.2.2,0,0,1-.4,0v-2c0-.1.1-.2.2-.3.2,0,.2,0,.3.2a14.803,14.803,0,0,1,.8,1.3.3491.3491,0,0,1,.2.1Z" transform="translate(-2 -0.6)"/><path id="_Path_63" data-name="&lt;Path&gt;" class="cls-8" d="M79.5,47.2a1.4828,1.4828,0,0,1-.1.7.6662.6662,0,0,1-.7.5.752.752,0,0,1-.7-.5,2.2083,2.2083,0,0,1,0-1.6.5483.5483,0,0,1,.6-.4.9078.9078,0,0,1,.7.3A1.803,1.803,0,0,1,79.5,47.2Z" transform="translate(-2 -0.6)"/><path id="_Path_64" data-name="&lt;Path&gt;" class="cls-8" d="M76.5,46.8c.5-.2.8-.1,1,.2a.8562.8562,0,0,1-1,1.3c-.2-.1-.4-.2-.4-.5a.3674.3674,0,0,1,.1-.3c.1,0,.2,0,.2.1h0q.3.45.6.3a.5737.5737,0,0,0,.2-.7c-.1-.3-.3-.4-.6-.2-.1,0-.1.1-.2.1-.2.1-.3,0-.3-.2a4.401,4.401,0,0,1,.2-1,.2151.2151,0,0,1,.2-.2h.9c.1,0,.2,0,.2.2a.2151.2151,0,0,1-.2.2h-.5c-.2,0-.3,0-.3.3C76.5,46.7,76.5,46.7,76.5,46.8Z" transform="translate(-2 -0.6)"/><path id="_Path_65" data-name="&lt;Path&gt;" class="cls-14" d="M66.4,55.3v1.3a.2.2,0,1,1-.4,0V54.7c0-.2,0-.3.2-.3a.52.52,0,0,1,.4.2c.3.4.5.8.8,1.2,0,.1.1.1.2.2V54.5a.2.2,0,0,1,.4,0v1.9c0,.2,0,.4-.2.4a.52.52,0,0,1-.4-.2,11.3187,11.3187,0,0,1-1-1.3Z" transform="translate(-2 -0.6)"/><path id="_Path_66" data-name="&lt;Path&gt;" class="cls-8" d="M70.3,55.7a1.4828,1.4828,0,0,1,.1-.7,1.0573,1.0573,0,0,1,.7-.6.64.64,0,0,1,.7.5,1.95,1.95,0,0,1,0,1.5.74.74,0,0,1-1.4,0,.3491.3491,0,0,0-.1-.2Z" transform="translate(-2 -0.6)"/><path id="_Path_67" data-name="&lt;Path&gt;" class="cls-8" d="M68.8,55.3c.2-.1.5-.2.7,0a.91.91,0,0,1,.4.8.8579.8579,0,0,1-.6.7.7593.7593,0,0,1-.9-.3.3491.3491,0,0,0-.1-.2c0-.1,0-.2.1-.2s.2,0,.2.1h0q.3.45.6.3a.6052.6052,0,0,0,.1-.8c-.1-.2-.3-.2-.5-.1-.1,0-.1.1-.2.1-.2.1-.3,0-.3-.2a2.92,2.92,0,0,1,.2-.9c0-.1.1-.2.3-.2h.8c.1,0,.3,0,.2.2a.2151.2151,0,0,1-.2.2h-.5a.2652.2652,0,0,0-.3.3C68.9,55.2,68.9,55.3,68.8,55.3Z" transform="translate(-2 -0.6)"/><path id="_Path_68" data-name="&lt;Path&gt;" class="cls-8" d="M91.1,65V63.5a.2.2,0,0,1,.4,0v1.9c0,.2,0,.3-.2.4a.52.52,0,0,1-.4-.2,14.803,14.803,0,0,1-.8-1.3c0-.1-.1-.1-.2-.2v1.4a.2.2,0,0,1-.4,0V63.6c0-.2,0-.3.2-.3s.3.1.3.2c.3.4.5.9.8,1.3C90.9,64.9,90.9,65,91.1,65Z" transform="translate(-2 -0.6)"/><path id="_Path_69" data-name="&lt;Path&gt;" class="cls-8" d="M93.8,64.6a2.2018,2.2018,0,0,1,.1-.8.7726.7726,0,0,1,1.4-.1,2.2083,2.2083,0,0,1,0,1.6.74.74,0,0,1-1.4,0A1.4828,1.4828,0,0,1,93.8,64.6Z" transform="translate(-2 -0.6)"/><path id="_Path_70" data-name="&lt;Path&gt;" class="cls-8" d="M92.4,64.3c.6-.2,1,0,1.1.5a.9062.9062,0,0,1-.6,1.1.819.819,0,0,1-1-.4.3042.3042,0,0,1,0-.4c.2-.1.2.1.3.2a.3653.3653,0,0,0,.5.2.5737.5737,0,0,0,.2-.7.55.55,0,0,0-.5-.3c-.1,0-.2.1-.3.2s-.2.1-.2,0c-.1,0-.1-.1-.1-.2a2.7686,2.7686,0,0,0,.1-.9c0-.2.1-.2.3-.2H93c.1,0,.2,0,.2.2s-.1.2-.2.2h-.4c-.2,0-.4.1-.4.3C92.4,64.1,92.4,64.2,92.4,64.3Z" transform="translate(-2 -0.6)"/><path id="_Path_71" data-name="&lt;Path&gt;" class="cls-8" d="M57.4,82.6c-.1.4-.2.7-.3,1,0,.1,0,.1-.1.2,0,.1-.1.2-.2.1-.1,0-.1-.1-.1-.2a1.4213,1.4213,0,0,1,.2-.6l.3-.9a.3193.3193,0,0,1,.3-.3c.2,0,.2.2.2.3.1.4.3.9.4,1.4.1-.4.2-.7.3-1.1,0-.1.1-.3.2-.2.2,0,.1.2.1.3-.1.5-.3,1-.4,1.5a.2.2,0,0,1-.4,0A8.8,8.8,0,0,1,57.4,82.6Z" transform="translate(-2 -0.6)"/><path id="_Path_72" data-name="&lt;Path&gt;" class="cls-8" d="M60.3,84.3a1.6129,1.6129,0,0,1,.3-.9.7549.7549,0,0,1,.7-.4.6662.6662,0,0,1,.5.7,1.6894,1.6894,0,0,1-.3,1,.5851.5851,0,0,1-.7.3C60.5,85,60.3,84.8,60.3,84.3Z" transform="translate(-2 -0.6)"/><path id="_Path_73" data-name="&lt;Path&gt;" class="cls-14" d="M59.3,83.3c.4,0,.6.1.7.4a.7777.7777,0,0,1-.2.8.7463.7463,0,0,1-.9,0,.55.55,0,0,1-.3-.5.2151.2151,0,0,1,.2-.2c.1,0,.1.1.2.1h0a.43.43,0,0,0,.4.4c.2,0,.3-.3.3-.5,0-.3-.2-.4-.5-.3-.1,0-.2.1-.3,0s0-.2,0-.3v-.1c.4-.7.5-.8,1.2-.4.1,0,.1.1.1.2s-.1.1-.2.1-.2-.1-.3-.1C59.5,82.9,59.5,82.9,59.3,83.3Z" transform="translate(-2 -0.6)"/><path id="_Path_74" data-name="&lt;Path&gt;" class="cls-14" d="M66.7,81.9v-1c0-.1,0-.3.2-.3s.2.1.2.3v1.5a.2236.2236,0,0,1-.4.2l-.6-.9a.2151.2151,0,0,0-.2-.2v1c0,.1,0,.3-.2.3s-.2-.1-.2-.3V81.1c0-.1,0-.3.2-.3.1,0,.2.1.3.2.1.2.4.5.7.9Z" transform="translate(-2 -0.6)"/><path id="_Path_75" data-name="&lt;Path&gt;" class="cls-8" d="M68.9,81.6A1.2683,1.2683,0,0,1,69,81a.8215.8215,0,0,1,.5-.5.5483.5483,0,0,1,.6.4,2.4375,2.4375,0,0,1,0,1.2.5483.5483,0,0,1-.6.4.6338.6338,0,0,1-.6-.5Z" transform="translate(-2 -0.6)"/><path id="_Path_76" data-name="&lt;Path&gt;" class="cls-14" d="M67.8,81.4a.6271.6271,0,0,1,.8.2c.2.2.1.5,0,.8a.6542.6542,0,0,1-1.1,0,.1875.1875,0,0,1,0-.3c.1-.1.2,0,.2.1a.3653.3653,0,0,0,.5.2c.2-.1.2-.4.1-.6s-.3-.2-.5-.1c-.1.1-.2.2-.3.1a.3674.3674,0,0,1-.1-.3v-.1c.1-.8.2-.8,1-.7.1,0,.2,0,.2.1a.2151.2151,0,0,1-.2.2h-.3C67.8,81,67.8,81,67.8,81.4Z" transform="translate(-2 -0.6)"/><path id="_Path_77" data-name="&lt;Path&gt;" class="cls-18" d="M64.1,63.3a1.7018,1.7018,0,0,1-.1.7c-.1.1-.1.2-.3.2s-.3-.1-.3-.2a2.8542,2.8542,0,0,1,0-1.3c0-.1.1-.2.3-.2s.3.1.3.2C64.1,62.8,64.1,63,64.1,63.3Z" transform="translate(-2 -0.6)"/><path id="_Path_78" data-name="&lt;Path&gt;" class="cls-18" d="M61.5,76.7a1.2683,1.2683,0,0,1-.1.6.3.3,0,0,1-.6,0,2.8542,2.8542,0,0,1,0-1.3c0-.2.1-.2.3-.2s.3.1.3.2A1.4828,1.4828,0,0,1,61.5,76.7Z" transform="translate(-2 -0.6)"/><path id="_Path_79" data-name="&lt;Path&gt;" class="cls-17" d="M97.2,54a1.7018,1.7018,0,0,1-.1.7.3.3,0,0,1-.6,0,2.8542,2.8542,0,0,1,0-1.3.2652.2652,0,0,1,.3-.3c.2,0,.2.1.3.3A1.2683,1.2683,0,0,1,97.2,54Z" transform="translate(-2 -0.6)"/><path id="_Path_80" data-name="&lt;Path&gt;" class="cls-17" d="M82.5,60.8a1.7018,1.7018,0,0,1-.1.7c0,.1-.1.2-.3.2s-.3-.1-.3-.2a3.3042,3.3042,0,0,1,0-1.4c0-.1.1-.2.3-.2s.2.1.3.2A1.9523,1.9523,0,0,1,82.5,60.8Z" transform="translate(-2 -0.6)"/><path id="_Path_81" data-name="&lt;Path&gt;" class="cls-17" d="M78.4,47.1a1.2683,1.2683,0,0,1,.1-.6c0-.1.1-.2.3-.2s.3.1.3.2a2.8542,2.8542,0,0,1,0,1.3c0,.1-.1.2-.3.2s-.2-.1-.3-.3C78.4,47.6,78.4,47.4,78.4,47.1Z" transform="translate(-2 -0.6)"/><path id="_Path_82" data-name="&lt;Path&gt;" class="cls-17" d="M71.4,55.6a1.7018,1.7018,0,0,1-.1.7c-.1.1-.1.2-.3.3a.2652.2652,0,0,1-.3-.3,2.8542,2.8542,0,0,1,0-1.3.2652.2652,0,0,1,.3-.3c.2,0,.3.1.3.2A1.9523,1.9523,0,0,1,71.4,55.6Z" transform="translate(-2 -0.6)"/><path id="_Path_83" data-name="&lt;Path&gt;" class="cls-18" d="M94.3,64.6a1.2683,1.2683,0,0,1,.1-.6c0-.1.1-.2.3-.2s.3.1.3.2a2.8542,2.8542,0,0,1,0,1.3c0,.1-.1.2-.3.2s-.2-.1-.3-.3A1.2683,1.2683,0,0,1,94.3,64.6Z" transform="translate(-2 -0.6)"/><path id="_Path_84" data-name="&lt;Path&gt;" class="cls-18" d="M61.4,83.7a1.6129,1.6129,0,0,1-.3.9c-.1.1-.2.2-.3.2-.2,0-.2-.2-.2-.3a1.6894,1.6894,0,0,1,.3-1c.1-.1.2-.2.3-.2C61.4,83.4,61.5,83.5,61.4,83.7Z" transform="translate(-2 -0.6)"/><path id="_Path_85" data-name="&lt;Path&gt;" class="cls-19" d="M69.9,81.6a.7494.7494,0,0,1-.1.5c0,.1-.1.2-.3.2a.2151.2151,0,0,1-.2-.2,2.0542,2.0542,0,0,1,0-1.1.2.2,0,0,1,.4,0A.8454.8454,0,0,1,69.9,81.6Z" transform="translate(-2 -0.6)"/><path id="_Path_86" data-name="&lt;Path&gt;" class="cls-1" d="M129.7,151.5a82.0748,82.0748,0,0,1-90.8,0,58.1508,58.1508,0,0,1,45.4-21.7,58.9469,58.9469,0,0,1,25.2,5.7A58.0942,58.0942,0,0,1,129.7,151.5Z" transform="translate(-2 -0.6)"/><g id="_Group_" data-name="&lt;Group&gt;"><path id="_Path_87" data-name="&lt;Path&gt;" class="cls-1" d="M149.8,132.5a32.5314,32.5314,0,0,1-2.3,2.9c-1.6,1.9-3.3,3.8-5.1,5.6a84.7035,84.7035,0,0,1-10.3,8.7l-.1-.2a61.8419,61.8419,0,0,0-19.3-15.9c-.7-.3-1.3-.7-2-1a61.5208,61.5208,0,0,0-53,0c-.7.3-1.3.7-2,1a62.9944,62.9944,0,0,0-19.3,15.9l-.1.2A84.7035,84.7035,0,0,1,26,141c-1.8-1.8-3.5-3.7-5.1-5.6a32.5314,32.5314,0,0,1-2.3-2.9c1.5-1.8,3.2-3.6,4.9-5.3a90.6257,90.6257,0,0,1,13.1-10.8c.1,0,.1-.1.2-.1a85.708,85.708,0,0,1,94.8,0c.1,0,.1.1.2.1a84.5182,84.5182,0,0,1,13.1,10.8A60.309,60.309,0,0,1,149.8,132.5Z" transform="translate(-2 -0.6)"/><path id="_Path_88" data-name="&lt;Path&gt;" class="cls-1" d="M142.4,129.8a83.637,83.637,0,0,0-12.7-10.4,82.5779,82.5779,0,0,0-90.8,0,83.637,83.637,0,0,0-12.7,10.4c-1.8,1.8-3.5,3.7-5.1,5.6,1.6,1.9,3.3,3.8,5.1,5.6a84.7035,84.7035,0,0,0,10.3,8.7l.1-.2a62.9944,62.9944,0,0,1,19.3-15.9c.7-.3,1.3-.7,2-1a61.5208,61.5208,0,0,1,53,0c.7.3,1.3.7,2,1a62.9944,62.9944,0,0,1,19.3,15.9l.1.2a84.7035,84.7035,0,0,0,10.3-8.7c1.8-1.8,3.5-3.7,5.1-5.6C145.9,133.5,144.2,131.6,142.4,129.8Z" transform="translate(-2 -0.6)"/></g><g id="_Group_2" data-name="&lt;Group&gt;"><path id="_Path_89" data-name="&lt;Path&gt;" class="cls-5" d="M65.9,144.9l-1.2,2.9a.4193.4193,0,0,0,.3.6c2.8,1,4.8-1.5,4.8-3.6a3.44,3.44,0,0,0-3.6-3.5,4.7,4.7,0,0,0-4.7,4.4c0,.3.1.6.1.9.2.5.1.7-.4,1.1a.4871.4871,0,0,1-.8-.2,3.9846,3.9846,0,0,1-.3-1.7,6,6,0,0,1,6.1-5.8c3.1,0,5.2,2.1,5.2,4.8,0,3.2-2.9,6.3-6.8,4.8-.3-.1-.5-.1-.7.3l-1.4,3.5a.7786.7786,0,0,1-.9.6h-.3c-.4,0-.6-.2-.4-.6l3.6-9a3.0067,3.0067,0,0,1,2.1-2c.3-.1.5.1.7.4.1.4.1.5-.3.8A2.0985,2.0985,0,0,0,65.9,144.9Z" transform="translate(-2 -0.6)"/><path id="_Path_90" data-name="&lt;Path&gt;" class="cls-5" d="M75.3,149.5c.3-.5,1,0,.7.5-1.3,2.2-2.7,4.1-4.3,4.1-1.3,0-2.1-.9-.9-3.8l3-7.4a.7786.7786,0,0,1,.9-.6H75c.4,0,.6.2.4.6l-3.2,8c-.7,1.8-.4,2.1,0,2.1C72.9,152.9,74.2,151.3,75.3,149.5Z" transform="translate(-2 -0.6)"/><path id="_Compound_Path_" data-name="&lt;Compound Path&gt;" class="cls-5" d="M83.7,149.5c.3-.5,1,0,.7.5-1.2,2.2-2.7,4.1-4.4,4.1a1.485,1.485,0,0,1-1.4-.8c-.1-.3-.2-.3-.5-.1a2.8537,2.8537,0,0,1-1.9.9,1.6335,1.6335,0,0,1-1.6-1.8c0-1.7,1.5-7,4.3-7a1.6169,1.6169,0,0,1,1.4.8c.2.4.4.4.7.2l1-.5c.3-.2.5,0,.3.3l-1.9,4.8c-.7,1.6-.5,2.1,0,2.1C81.3,152.9,82.6,151.3,83.7,149.5Zm-6.8,3.1c.6,0,1.2-.6,1.6-1.1.1-.2.4-.5.4-.7l1.1-2.7a1.1042,1.1042,0,0,0,0-.8.7487.7487,0,0,0-.7-.6c-1.5,0-2.9,4-2.9,5.3C76.3,152.4,76.5,152.6,76.9,152.6Z" transform="translate(-2 -0.6)"/><path id="_Compound_Path_2" data-name="&lt;Compound Path&gt;" class="cls-5" d="M91.6,149.5c.3-.5,1,0,.7.5a9.6152,9.6152,0,0,1-4.7,4.3,1.3444,1.3444,0,0,0-.6.7c-.6,1.6-1.5,3.5-3.3,3.5-1.1,0-1.7-.6-1.6-1.6a2.6085,2.6085,0,0,1,1.8-2l1.4-.6a1.0573,1.0573,0,0,0,.6-.7l.1-.2c.1-.2,0-.3-.2-.1a2.2915,2.2915,0,0,1-1.5.6c-1.2,0-2-.9-.9-3.8L85,146a.7786.7786,0,0,1,.9-.6h.3c.4,0,.6.2.4.6l-1.9,4.8c-.7,1.6-.5,1.9-.1,1.9.8,0,1.8-1.5,2.5-2.6l.4-.8,1.3-3.3a.7786.7786,0,0,1,.9-.6H90c.4,0,.6.2.4.6l-2.8,6.8c-.1.2,0,.4.3.2A8.2636,8.2636,0,0,0,91.6,149.5Zm-8.7,7.4c0,.3.2.4.5.4.4,0,1-.4,1.5-1.5q.15-.45-.3-.3C83.9,155.9,82.9,156.4,82.9,156.9Z" transform="translate(-2 -0.6)"/><path id="_Compound_Path_3" data-name="&lt;Compound Path&gt;" class="cls-5" d="M106.7,146.6c.3-.2.5,0,.3.3l-1.6,3.9c-.6,1.5-.3,2.2.4,2.2,1.4,0,3.2-2.6,3.2-5a3.753,3.753,0,0,0-4-3.9c-3.5,0-6.3,3.4-6.3,7.3,0,2.7,1.6,4.6,4.4,4.6a5.4859,5.4859,0,0,0,3.2-.9c.3-.2.5-.2.7.1a.5211.5211,0,0,1-.1.8,7.5413,7.5413,0,0,1-4,1.2,5.3979,5.3979,0,0,1-5.7-5.7c0-4,2.9-8.5,7.8-8.5a4.8393,4.8393,0,0,1,5.2,5.1c0,3.1-2.4,6.1-4.6,6.1a1.7421,1.7421,0,0,1-1.8-1.2c-.1-.3-.2-.3-.4-.1a2.3935,2.3935,0,0,1-1.6.7c-.8,0-1.2-.7-1.2-1.5,0-1.4,1.2-5.8,3.5-5.8a1.1082,1.1082,0,0,1,1.1.6c.2.4.4.4.7.2Zm-1.7,1.9a.8542.8542,0,0,0,0-.7.7385.7385,0,0,0-.6-.5c-1.2,0-2.4,3.3-2.4,4.4,0,.4.1.5.5.5s.9-.5,1.2-.9c.1-.2.4-.5.5-.7Z" transform="translate(-2 -0.6)"/></g><path class="cls-20" d="M8.9,140h0l3.4-1.7,1.5,1.7L8,142.4l-1.5-1.7,2-3h0l-3.2,1.7-1.5-1.7L7,132.3,8.5,134l-2.2,3.1h0l3.4-1.7,1.3,1.5Z" transform="translate(-2 -0.6)"/><path class="cls-20" d="M16.7,147.7h0l3.2-2.1,1.6,1.5-5.4,3.1-1.7-1.6,1.7-3.2h0l-3,2-1.7-1.6,2.6-5.7,1.7,1.6L13.9,145h0l3.2-2.1,1.5,1.3Z" transform="translate(-2 -0.6)"/><path class="cls-20" d="M25.3,154.6h0l2.9-2.4,1.8,1.3-5,3.6-1.8-1.4,1.3-3.3h0l-2.7,2.3L20,153.3l1.9-5.9,1.8,1.4-1.4,3.5h0l2.9-2.4,1.6,1.2Z" transform="translate(-2 -0.6)"/><path class="cls-20" d="M27.1,158.5l1.3-2,2,1.3-1.3,2Z" transform="translate(-2 -0.6)"/><path class="cls-20" d="M32.4,162.1v.3c.1.1.2.3.4.4a.7829.7829,0,0,0,.8.1,1.4405,1.4405,0,0,0,.6-.7l.2-.4a2.2018,2.2018,0,0,1-.8.1,2.2356,2.2356,0,0,1-1-.3,2.6957,2.6957,0,0,1-.8-.7,3.5521,3.5521,0,0,1-.4-.9,1.7042,1.7042,0,0,1,0-1,2.9946,2.9946,0,0,1,.4-1,5.4956,5.4956,0,0,1,.7-.9,1.7987,1.7987,0,0,1,.9-.6,4.2528,4.2528,0,0,1,1.1-.2,1.9217,1.9217,0,0,1,1.2.4,2.6957,2.6957,0,0,1,.8.7,1.6894,1.6894,0,0,1,.3,1l.4-.7,1.8,1-2.3,4.2c-.3.5-.5.8-.7,1.1a1.5551,1.5551,0,0,1-.8.6,1.9862,1.9862,0,0,1-1.1.1,8.2325,8.2325,0,0,1-1.6-.6,4.44,4.44,0,0,1-1.1-.8,2.0969,2.0969,0,0,1-.6-.8,2.3535,2.3535,0,0,1-.2-.8,1.7018,1.7018,0,0,1,.1-.7Zm2.1-3.8a1.8972,1.8972,0,0,0-.7.8,1.2025,1.2025,0,0,0-.2.8.6752.6752,0,0,0,.4.6.8024.8024,0,0,0,.8.1.9016.9016,0,0,0,.6-.6,1.02,1.02,0,0,0,.2-.9c0-.3-.2-.5-.5-.7A.3769.3769,0,0,0,34.5,158.3Z" transform="translate(-2 -0.6)"/><path class="cls-20" d="M40.2,160a3.0846,3.0846,0,0,1,2.6.3,3.3733,3.3733,0,0,1,1.9,1.8,2.8809,2.8809,0,0,1-.1,2.4,3.596,3.596,0,0,1-.8,1.2,2.3838,2.3838,0,0,1-1.1.6,4.8686,4.8686,0,0,1-1.2.1,6.4682,6.4682,0,0,1-1.3-.4,3.985,3.985,0,0,1-1.9-1.7,3.1346,3.1346,0,0,1,.1-2.5A3.1824,3.1824,0,0,1,40.2,160Zm1.5,1.7a.52.52,0,0,0-.4.2l-.4.4a2.1859,2.1859,0,0,0-.3.5,3.4573,3.4573,0,0,0-.3,1.2,1.1572,1.1572,0,0,0,.5.7,1.0954,1.0954,0,0,0,.8,0,2.8985,2.8985,0,0,0,.8-1,1.54,1.54,0,0,0,.2-1.1.752.752,0,0,0-.5-.7C42,161.7,41.8,161.6,41.7,161.7Z" transform="translate(-2 -0.6)"/><path class="cls-20" d="M44.6,167.7l3-7.6,2.2.9-3,7.6Z" transform="translate(-2 -0.6)"/><path class="cls-20" d="M52.4,170.6l.2-.8a1.6164,1.6164,0,0,1-1,.4,3.7513,3.7513,0,0,1-1-.1,2.2864,2.2864,0,0,1-1.6-1.4,3.04,3.04,0,0,1,0-2.3,3.3692,3.3692,0,0,1,.6-1.2,3.0435,3.0435,0,0,1,.8-.8,2.9946,2.9946,0,0,1,1-.4,3.4019,3.4019,0,0,1,1,.1,1.9336,1.9336,0,0,1,.9.5,2.1774,2.1774,0,0,1,.5.8l.9-2.7,2.2.7-2.6,7.7Zm.2-2a3.49,3.49,0,0,0,.6-.9,3.7513,3.7513,0,0,0,.1-1,.9016.9016,0,0,0-.6-.6.4542.4542,0,0,0-.5,0,.7581.7581,0,0,0-.4.2,1.38,1.38,0,0,0-.3.4c-.1.2-.1.3-.2.5a.9015.9015,0,0,0-.1.5v.4a.7581.7581,0,0,0,.2.4,1.38,1.38,0,0,0,.4.3A1.3447,1.3447,0,0,0,52.6,168.6Z" transform="translate(-2 -0.6)"/><path class="cls-20" d="M58.5,169.8a1.4119,1.4119,0,0,0,.1.9c.1.3.4.4.7.5h.5c.2,0,.3-.1.4-.3l2.2.5a2.6957,2.6957,0,0,1-.7.8,3.5521,3.5521,0,0,1-.9.4,3.4019,3.4019,0,0,1-1,.1,4.2528,4.2528,0,0,1-1.1-.2,3.3373,3.3373,0,0,1-1.2-.5,2.3609,2.3609,0,0,1-.9-.8,3.6966,3.6966,0,0,1-.5-1.1,2.8789,2.8789,0,0,1,.1-1.3,2.281,2.281,0,0,1,.6-1.2,6.47,6.47,0,0,1,.9-.8,5.6377,5.6377,0,0,1,1.2-.4,5.702,5.702,0,0,1,1.3.1,2.618,2.618,0,0,1,1.3.6,4.2985,4.2985,0,0,1,.9,1,4.9508,4.9508,0,0,1,.4,1.3,3.8123,3.8123,0,0,1-.1,1.5Zm2.3-.7a1.1284,1.1284,0,0,0-.1-.8c-.1-.3-.4-.4-.6-.5a.7549.7549,0,0,0-.8.1,1.2755,1.2755,0,0,0-.5.7Z" transform="translate(-2 -0.6)"/><path class="cls-20" d="M64.5,167.6l2.1.4-.2.9a6.07,6.07,0,0,1,1-.7,2.4826,2.4826,0,0,1,2.7.8,3.0382,3.0382,0,0,1,.3,2l-.6,3.5-2.3-.4L68,171a2.1337,2.1337,0,0,0,0-.8.6752.6752,0,0,0-.6-.4.7777.7777,0,0,0-.8.2,1.8844,1.8844,0,0,0-.4.9l-.5,3-2.3-.4Z" transform="translate(-2 -0.6)"/><path class="cls-20" d="M75.7,171.4c0-.3,0-.5-.2-.6a.6047.6047,0,0,0-.6-.3.7494.7494,0,0,0-.5.1c-.1.1-.3.2-.3.4-.1.2-.2.3-.2.5s-.1.4-.1.6a1.8154,1.8154,0,0,0,.2,1.1c.1.3.4.4.7.5a.8437.8437,0,0,0,.7-.2.8643.8643,0,0,0,.3-.6l2.3.1a2.22,2.22,0,0,1-.5,1.1,2.6957,2.6957,0,0,1-.8.7,1.6894,1.6894,0,0,1-1,.3,2.4375,2.4375,0,0,1-1.2,0,4.9613,4.9613,0,0,1-1.3-.3,3.5915,3.5915,0,0,1-1-.7,2.0749,2.0749,0,0,1-.6-1,2.769,2.769,0,0,1-.1-1.3,2.8361,2.8361,0,0,1,.4-1.3,2.3609,2.3609,0,0,1,.8-.9,3.6966,3.6966,0,0,1,1.1-.5,6.15,6.15,0,0,1,1.4-.1,3.5949,3.5949,0,0,1,1.1.2,3.1281,3.1281,0,0,1,1,.5,2.6957,2.6957,0,0,1,.7.8,1.978,1.978,0,0,1,.2,1.1Z" transform="translate(-2 -0.6)"/><path class="cls-20" d="M79.3,167.3h2.4v3a5.0084,5.0084,0,0,1,.8-.7,2.9585,2.9585,0,0,1,1-.2,1.94,1.94,0,0,1,1.7.7,2.395,2.395,0,0,1,.5,1.9v3.5H83.4v-3.1a1.8839,1.8839,0,0,0-.2-.8.6047.6047,0,0,0-.6-.3.7786.7786,0,0,0-.7.3,1.9968,1.9968,0,0,0-.2.9v3H79.3Z" transform="translate(-2 -0.6)"/><path class="cls-20" d="M91.4,175.1l-.2-.6a3.5915,3.5915,0,0,1-1,.7,10.3777,10.3777,0,0,1-1.2.3,2.41,2.41,0,0,1-1.5-.4,1.5606,1.5606,0,0,1-.7-1.3,1.6446,1.6446,0,0,1,.2-1,1.167,1.167,0,0,1,.6-.6c.3-.1.5-.3.8-.3a2.9585,2.9585,0,0,1,1-.2,5.3067,5.3067,0,0,0,1.1-.3c.2-.1.3-.2.3-.4s-.1-.3-.3-.4a.9015.9015,0,0,0-.5-.1.7638.7638,0,0,0-.5.2c-.2.1-.2.2-.2.5l-2.3.1a1.6825,1.6825,0,0,1,.7-1.5,4.5584,4.5584,0,0,1,2.4-.7,7.1152,7.1152,0,0,1,1.6.1,1.8844,1.8844,0,0,1,.9.4,1.6118,1.6118,0,0,1,.4.7c.1.3.1.6.2,1l.2,2.8c0,.2,0,.3.1.4q0,.15.3.3v.1Zm-.6-1.4c.2-.2.2-.5.2-.9v-.2a3.3853,3.3853,0,0,1-.8.3,2.3893,2.3893,0,0,0-.7.3.7638.7638,0,0,0-.2.5c0,.2.1.3.2.3.1.1.3.1.6.1A1.6118,1.6118,0,0,0,90.8,173.7Z" transform="translate(-2 -0.6)"/><path class="cls-20" d="M94.2,169l2.1-.3.1.9a2.3609,2.3609,0,0,1,.8-.9,1.82,1.82,0,0,1,1.1-.4,2.056,2.056,0,0,1,1.8.4,3.02,3.02,0,0,1,.8,1.8l.5,3.5-2.3.3-.4-3.1a1.1355,1.1355,0,0,0-.3-.8c-.1-.2-.4-.2-.7-.2a.8418.8418,0,0,0-.7.4,2.22,2.22,0,0,0-.1.9l.4,3-2.3.3Z" transform="translate(-2 -0.6)"/><path class="cls-20" d="M106.1,169.2a.9984.9984,0,0,0-.4-.5.6613.6613,0,0,0-.6-.1.55.55,0,0,0-.5.3.7581.7581,0,0,0-.2.4c0,.2-.1.3,0,.5a1.2683,1.2683,0,0,0,.1.6,2.3445,2.3445,0,0,0,.5,1,.7777.7777,0,0,0,.8.2.9183.9183,0,0,0,.6-.4,1.4828,1.4828,0,0,0,.1-.7l2.3-.5a4.8686,4.8686,0,0,1-.1,1.2,1.4562,1.4562,0,0,1-.6.9,2.0337,2.0337,0,0,1-.9.6,3.5823,3.5823,0,0,1-1.1.4,6.602,6.602,0,0,1-1.4.1,5.274,5.274,0,0,1-1.2-.3,1.7646,1.7646,0,0,1-.9-.8,4.3283,4.3283,0,0,1-.5-1.2,6.602,6.602,0,0,1-.1-1.4,1.4327,1.4327,0,0,1,.5-1.1,3.45,3.45,0,0,1,.9-.8,5.0234,5.0234,0,0,1,1.3-.5,4.8686,4.8686,0,0,1,1.2-.1,4.2528,4.2528,0,0,1,1.1.2,2.3613,2.3613,0,0,1,.9.6,3.3283,3.3283,0,0,1,.6,1Z" transform="translate(-2 -0.6)"/><path class="cls-20" d="M112,168.9a1.0573,1.0573,0,0,0,.6.7,1.4119,1.4119,0,0,0,.9.1c.2-.1.3-.2.5-.3a.7638.7638,0,0,0,.2-.5l2.2-.7a2.9585,2.9585,0,0,1-.2,1,1.5551,1.5551,0,0,1-.6.8,5.5469,5.5469,0,0,1-.8.6,2.9946,2.9946,0,0,1-1,.4,6.882,6.882,0,0,1-1.3.2,2.6626,2.6626,0,0,1-1.2-.3,3.5915,3.5915,0,0,1-1-.7,2.281,2.281,0,0,1-.6-1.2,2.9787,2.9787,0,0,1-.1-1.3,2.8426,2.8426,0,0,1,.4-1.2,2.3609,2.3609,0,0,1,.8-.9,2.281,2.281,0,0,1,1.2-.6,3.887,3.887,0,0,1,1.5-.2,3.1393,3.1393,0,0,1,2.3,1.3,4.58,4.58,0,0,1,.7,1.4Zm1.7-1.8c-.1-.3-.2-.5-.5-.6a1.1284,1.1284,0,0,0-.8-.1,1.2755,1.2755,0,0,0-.7.5,1.95,1.95,0,0,0-.1.8Z" transform="translate(-2 -0.6)"/><path class="cls-20" d="M118.3,169.4l-2.8-7.6,2.2-.8,2.8,7.6Z" transform="translate(-2 -0.6)"/><path class="cls-20" d="M120.5,162.9a3.2262,3.2262,0,0,1,1.9-1.7,3.4323,3.4323,0,0,1,2.6-.2,2.6218,2.6218,0,0,1,1.7,1.7,3.5292,3.5292,0,0,1,.3,1.4,2.6626,2.6626,0,0,1-.3,1.2,3.5915,3.5915,0,0,1-.7,1,3.4579,3.4579,0,0,1-1.2.7,3.1865,3.1865,0,0,1-2.5.2,2.747,2.747,0,0,1-1.8-1.7A3.8563,3.8563,0,0,1,120.5,162.9Zm2.2.1c-.1.1-.1.3-.2.4v.5c0,.2.1.3.2.5a2.8549,2.8549,0,0,0,.7,1,.7829.7829,0,0,0,.8.1.6662.6662,0,0,0,.5-.7,1.8838,1.8838,0,0,0-.2-1.2,2.1776,2.1776,0,0,0-.7-.9.8024.8024,0,0,0-.8-.1A1.38,1.38,0,0,0,122.7,163Z" transform="translate(-2 -0.6)"/><path class="cls-20" d="M132.5,163.1a6.5748,6.5748,0,0,1-1.2.6,2.9669,2.9669,0,0,1-1.1.4.8456.8456,0,0,1-.7,0,.9984.9984,0,0,1-.5-.4,3.49,3.49,0,0,1-.6-.9l-1.1-2.2-.7.4-.6-1.2.8-.4-.8-1.6,2.1-1.1.8,1.6,1-.5.6,1.2-1,.5,1,1.9a1.0823,1.0823,0,0,0,.4.5,1.7594,1.7594,0,0,0,.6-.1l.3-.2Z" transform="translate(-2 -0.6)"/><path class="cls-20" d="M137.1,160.5a7.1736,7.1736,0,0,0-1.1.7l-1,.5a.8456.8456,0,0,1-.7,0,2.092,2.092,0,0,1-.6-.4,3.49,3.49,0,0,1-.6-.9l-1.2-2.1-.7.4-.7-1.2.8-.4-.9-1.6,2-1.2.9,1.6,1-.6.7,1.2-1,.6,1.1,1.9c.1.2.3.4.4.4a.9875.9875,0,0,0,.6-.2l.3-.2Z" transform="translate(-2 -0.6)"/><path class="cls-20" d="M136,154.9a4.12,4.12,0,0,1,4.1-2.8,2.969,2.969,0,0,1,2,1.3,3.79,3.79,0,0,1,.6,1.3,2.4375,2.4375,0,0,1,0,1.2,2.3838,2.3838,0,0,1-.6,1.1,9.016,9.016,0,0,1-1,.9,3.8272,3.8272,0,0,1-2.5.7,2.5471,2.5471,0,0,1-2-1.4A2.6392,2.6392,0,0,1,136,154.9Zm2.2-.3a.9015.9015,0,0,0-.1.5c0,.2.1.3.1.5.1.2.1.3.2.5a2.5468,2.5468,0,0,0,.9.9.6052.6052,0,0,0,.8-.1.7549.7549,0,0,0,.4-.7,2.7721,2.7721,0,0,0-.5-1.2,1.3375,1.3375,0,0,0-.8-.7.7549.7549,0,0,0-.8.1C138.4,154.3,138.2,154.4,138.2,154.6Z" transform="translate(-2 -0.6)"/><path class="cls-20" d="M144.9,155.2l-1.4-1.9,1.9-1.4,1.4,1.9Z" transform="translate(-2 -0.6)"/><path class="cls-20" d="M148.7,147.4a.8643.8643,0,0,0-.6-.3.7347.7347,0,0,0-.6.2.55.55,0,0,0-.3.5v.5c0,.2.1.3.2.5s.2.3.3.5a2.7569,2.7569,0,0,0,.9.7.7777.7777,0,0,0,.8-.2.8643.8643,0,0,0,.3-.6,2.5439,2.5439,0,0,0-.2-.7l1.8-1.5a5.3594,5.3594,0,0,1,.5,1.1,2.0788,2.0788,0,0,1-.1,1.1,4.6711,4.6711,0,0,1-.5,1,6.47,6.47,0,0,1-.8.9,3.7455,3.7455,0,0,1-1.2.7,2.5367,2.5367,0,0,1-1.2.2,2.6626,2.6626,0,0,1-1.2-.3,3.9153,3.9153,0,0,1-1-.8,7.4586,7.4586,0,0,1-.7-1.2,2.4622,2.4622,0,0,1-.1-1.2,3.1975,3.1975,0,0,1,1.3-2.2,3.5915,3.5915,0,0,1,1-.7,1.93,1.93,0,0,1,1-.3,4.102,4.102,0,0,1,1.1.1,2.6642,2.6642,0,0,1,1,.6Z" transform="translate(-2 -0.6)"/><path class="cls-20" d="M150.9,143.4a3.83,3.83,0,0,1,3.4-3.4,3.1023,3.1023,0,0,1,2.2.9,4.184,4.184,0,0,1,.8,1.2,2.5367,2.5367,0,0,1,.2,1.2,2.6626,2.6626,0,0,1-.3,1.2,7.6322,7.6322,0,0,1-.8,1.1,3.3266,3.3266,0,0,1-2.3,1.1,3.0766,3.0766,0,0,1-2.3-.9A3.4482,3.4482,0,0,1,150.9,143.4Zm2-.8v.5c0,.2.1.3.2.5.1.1.2.3.3.4a2.6088,2.6088,0,0,0,1,.7.7777.7777,0,0,0,.8-.2,1.1355,1.1355,0,0,0,.3-.8,2.0454,2.0454,0,0,0-.7-1,2.3613,2.3613,0,0,0-.9-.6.7777.7777,0,0,0-.8.2C153,142.3,152.9,142.5,152.9,142.6Z" transform="translate(-2 -0.6)"/><path class="cls-20" d="M155.1,138.2l1.4-1.7.7.6a3.75,3.75,0,0,1-.1-1.1,2.0969,2.0969,0,0,1,.4-1.1,3.5112,3.5112,0,0,1,1-.8,2.0451,2.0451,0,0,1,1.1,0,2.3949,2.3949,0,0,1,.5-2.3,1.9237,1.9237,0,0,1,1.6-.9,2.9,2.9,0,0,1,1.8.8l2.7,2.2-1.5,1.8-2.3-1.9a2.5087,2.5087,0,0,0-.8-.5.8643.8643,0,0,0-.6.3.4941.4941,0,0,0-.1.7,1.874,1.874,0,0,0,.6.7l2.3,1.9-1.5,1.8-2.3-1.9a2.5087,2.5087,0,0,0-.8-.5.8643.8643,0,0,0-.6.3.4941.4941,0,0,0-.1.7,1.874,1.874,0,0,0,.6.7l2.3,1.9-1.5,1.8Z" transform="translate(-2 -0.6)"/><g id="_Group_3" data-name="&lt;Group&gt;"><path id="_Path_91" data-name="&lt;Path&gt;" class="cls-5" d="M21.4,67.9a23.3588,23.3588,0,0,1,.2,5.5,9.6228,9.6228,0,0,1-3,6.3,7.588,7.588,0,0,1-5.9,1.5c-5.4-.8-7.6-5.2-7-10.3a11.8262,11.8262,0,0,1,1.4-4.4l3.2,1.3a9.2971,9.2971,0,0,0-1.2,3.6c-.3,2.6.7,4.9,3.9,5.3a4.3354,4.3354,0,0,0,5.2-3.8,2.7083,2.7083,0,0,0,0-1.3l-2.7-.4-.3,2.1L12,72.9l.8-6.1Z" transform="translate(-2 -0.6)"/><path id="_Compound_Path_4" data-name="&lt;Compound Path&gt;" class="cls-5" d="M26.1,58.4c-2,4.5-6.4,5.4-10.4,3.7-4.2-1.8-6.3-6-4.4-10.4,2-4.6,6.5-5.5,10.3-3.8,4.7,2,6.5,6,4.5,10.5Zm-3-1.6c.8-1.9-.5-3.7-3.1-4.9-2.5-1.1-4.8-.8-5.7,1.1-.8,1.9.6,3.8,3.1,4.9,2.6,1.2,4.9.8,5.7-1.1Z" transform="translate(-2 -0.6)"/><path id="_Path_92" data-name="&lt;Path&gt;" class="cls-5" d="M18.7,38.7l2.6-3.3,9.6,7.5,3.7-4.7,2.8,2.2-6.3,8.1Z" transform="translate(-2 -0.6)"/><path id="_Compound_Path_5" data-name="&lt;Compound Path&gt;" class="cls-5" d="M30,25.8a43.8429,43.8429,0,0,1,3.7-3.4c2.4-1.8,4.2-2.6,6.1-2.7a6.69,6.69,0,0,1,5.9,3,7.6024,7.6024,0,0,1,1.8,6.8c-.5,2.1-2.2,4.2-4.6,6.1A38.0643,38.0643,0,0,1,39.4,38ZM40.9,33a3.0388,3.0388,0,0,0,.7-.5c2.2-1.6,2.8-4.1.7-6.9-1.9-2.4-4.2-2.4-6.2-.9a11.1476,11.1476,0,0,0-1,.9Z" transform="translate(-2 -0.6)"/><path id="_Path_93" data-name="&lt;Path&gt;" class="cls-5" d="M60.3,18.1l-5.2,2.2L56.2,23,62,20.5l1.4,3.2-9.7,4.2L47.5,13.5l9.4-4.1,1.4,3.2L52.8,15l1,2.3L59,15.1Z" transform="translate(-2 -0.6)"/><path id="_Path_94" data-name="&lt;Path&gt;" class="cls-5" d="M66.6,22.6,64.1,7.1,69,6.3l3.2,4.4a48.1188,48.1188,0,0,1,3.3,5h.1a56.9709,56.9709,0,0,1-1.4-6.5l-.6-3.7,3.8-.6L80,20.4l-4.4.7-3.5-4.7a52.3071,52.3071,0,0,1-3.5-5.2h-.1c.4,2.1.9,4.4,1.3,6.9l.6,3.8Z" transform="translate(-2 -0.6)"/><path id="_Path_95" data-name="&lt;Path&gt;" class="cls-5" d="M101.7,22.7a10.8694,10.8694,0,0,1-4-.1c-5.8-1.2-7.6-5.2-6.8-9.3,1.1-5.4,5.6-7.4,10.2-6.5a11.815,11.815,0,0,1,3.7,1.4l-1.5,3.1a6.8583,6.8583,0,0,0-2.7-1.1,4.1694,4.1694,0,0,0-5.3,3.6,4.19,4.19,0,0,0,3.6,5.4,9.0435,9.0435,0,0,0,2.8.1Z" transform="translate(-2 -0.6)"/><path id="_Path_96" data-name="&lt;Path&gt;" class="cls-5" d="M115.5,11.9l-2.6,5.2,4.6,2.2,2.6-5.2,3.8,1.9L117,30.1l-3.8-1.9,2.7-5.6-4.6-2.2L108.6,26l-3.8-1.9L111.7,10Z" transform="translate(-2 -0.6)"/><path id="_Compound_Path_6" data-name="&lt;Compound Path&gt;" class="cls-5" d="M125.6,32.3l-3.1,2.1-3.2-2.9,13.9-8.7,4.2,3.7-7,14.8-3.4-3,1.7-3.4Zm4.7,0,1.3-2.6c.4-.8,1-2,1.5-2.8h0c-.8.5-1.8,1.3-2.6,1.8l-2.4,1.7Z" transform="translate(-2 -0.6)"/><path id="_Path_97" data-name="&lt;Path&gt;" class="cls-5" d="M132.2,43.7l13.2-8.5,2.7,4.2-2.7,4.7a36.6626,36.6626,0,0,1-3.3,5.1v.1a46.5994,46.5994,0,0,1,5.4-3.8l3.1-2,2.1,3.2-13.2,8.5-2.4-3.7,2.9-5.1c.9-1.6,2.1-3.6,3.3-5.3l-.1-.1c-1.7,1.2-3.7,2.6-5.8,3.9L134.2,47Z" transform="translate(-2 -0.6)"/><path id="_Path_98" data-name="&lt;Path&gt;" class="cls-5" d="M145.1,69.8a9.1307,9.1307,0,0,1-1.8-3.5c-1.8-5.6.9-9.2,4.9-10.5,5.3-1.7,9.2,1.3,10.6,5.8a9.3086,9.3086,0,0,1,.6,3.9l-3.4.2a6.6341,6.6341,0,0,0-.4-2.9c-.7-2.3-2.7-3.8-5.8-2.9-2.7.9-3.9,3-3,5.8a6.5062,6.5062,0,0,0,1.3,2.5Z" transform="translate(-2 -0.6)"/><path id="_Path_99" data-name="&lt;Path&gt;" class="cls-5" d="M152.3,82.6l-.5-5.6-2.9.2.5,6.3-3.4.3-.8-10.5L160.9,72l.8,10.2-3.4.3-.5-6-2.5.2.5,5.6Z" transform="translate(-2 -0.6)"/></g><g id="_Group_4" data-name="&lt;Group&gt;"><path id="_Path_100" data-name="&lt;Path&gt;" class="cls-5" d="M44.3,118l3.8-1.8,5.2,11,5.5-2.6,1.5,3.2L51,132.2Z" transform="translate(-2 -0.6)"/><path id="_Compound_Path_7" data-name="&lt;Compound Path&gt;" class="cls-5" d="M69.2,125.7c-4.8,1.1-8.2-1.9-9.1-6.2-1-4.5,1.1-8.7,5.8-9.7,4.9-1.1,8.3,2,9.2,6.1,1.1,4.9-1.2,8.7-5.9,9.8Zm-.5-3.3c2-.4,2.7-2.6,2.1-5.4-.6-2.6-2.2-4.4-4.2-3.9-2,.4-2.7,2.7-2.1,5.4.5,2.7,2.1,4.3,4.2,3.9Z" transform="translate(-2 -0.6)"/><path id="_Path_101" data-name="&lt;Path&gt;" class="cls-5" d="M82.7,111.6h-4v-3.5l12.3.1v3.5H86.9l-.1,12.2H82.6Z" transform="translate(-2 -0.6)"/><path id="_Path_102" data-name="&lt;Path&gt;" class="cls-5" d="M99.9,113.1l-3.9-.9.8-3.5,12,2.7-.8,3.5-4-.9-2.7,11.9-4.1-.9Z" transform="translate(-2 -0.6)"/><path id="_Compound_Path_8" data-name="&lt;Compound Path&gt;" class="cls-5" d="M113.7,130.7c-4.4-2.1-5.2-6.6-3.3-10.5,2-4.1,6.3-6.1,10.6-4,4.6,2.2,5.2,6.7,3.4,10.5-2.2,4.5-6.3,6.1-10.7,4Zm1.7-2.9c1.8.9,3.7-.4,5-2.9,1.2-2.4,1-4.8-.9-5.7-1.8-.9-3.8.4-5,2.9-1.3,2.5-1,4.8.9,5.7Z" transform="translate(-2 -0.6)"/></g></svg>