<?xml version="1.0" encoding="UTF-8"?>
<svg version="1.1" xmlns="http://www.w3.org/2000/svg" width="206" height="192">
<path d="M0 0 C1.72974441 0.00015918 3.45949355 0.0058569 5.18920898 0.01586914 C6.09783188 0.01728409 7.00645477 0.01869904 7.94261169 0.02015686 C10.85687494 0.02577346 13.77106254 0.03832874 16.68530273 0.05102539 C18.65600475 0.05603825 20.62670797 0.06060153 22.59741211 0.06469727 C27.43923832 0.07574828 32.28100768 0.09302401 37.12280273 0.11352539 C38.11360677 1.85506185 39.10441081 3.59659831 40.09521484 5.33813477 C40.92990268 6.78024689 41.80219167 8.20054769 42.68530273 9.61352539 C44.05858484 12.0018421 45.12207715 14.41864925 46.17358398 16.96118164 C47.8621514 20.78999089 49.80920629 24.4933359 51.69702148 28.22680664 C52.85158724 30.5644069 53.92922833 32.89735008 54.93530273 35.30102539 C55.85469441 37.97087608 55.85469441 37.97087608 57.12280273 39.11352539 C60.4857442 32.490941 63.78670793 25.84570902 66.96655273 19.13305664 C67.45663818 18.09930908 67.94672363 17.06556152 68.45166016 16.00048828 C69.43469397 13.92199537 70.41407251 11.84176944 71.38964844 9.75976562 C71.84428467 8.7988501 72.2989209 7.83793457 72.76733398 6.84790039 C73.17314697 5.98390625 73.57895996 5.11991211 73.99707031 4.22973633 C75.12280273 2.11352539 75.12280273 2.11352539 77.12280273 0.11352539 C80.20805212 -0.0620088 83.20244475 -0.11770258 86.28686523 -0.08178711 C87.64767715 -0.07754227 87.64767715 -0.07754227 89.03598022 -0.07321167 C91.94005396 -0.06199614 94.84382185 -0.03688924 97.74780273 -0.01147461 C99.71394412 -0.00144658 101.68009033 0.00767958 103.64624023 0.01586914 C108.47187932 0.03794767 113.29728914 0.07248674 118.12280273 0.11352539 C119.39908301 2.31895433 120.67200129 4.52621495 121.94311523 6.73461914 C122.30058838 7.3515564 122.65806152 7.96849365 123.02636719 8.60412598 C125.7862028 13.40775737 128.16542337 18.31848125 130.43139648 23.37524414 C132.55770724 28.11895787 134.81672819 32.79946714 137.06030273 37.48852539 C140.64815173 44.99393213 144.18404867 52.51988016 147.65014648 60.08227539 C149.0411293 63.06720434 149.0411293 63.06720434 150.62670898 65.58227539 C152.4411584 68.65215325 153.7435324 71.82556784 155.12280273 75.11352539 C156.34717183 77.79234636 157.61002115 80.4526311 158.87280273 83.11352539 C162.99661037 91.82346373 162.99661037 91.82346373 164.95483398 96.09790039 C168.26919922 103.31964003 171.77968386 110.36137108 175.64233398 117.30883789 C178.37177679 122.47965565 179.63365547 125.28698325 178.12280273 131.11352539 C177.1622085 133.62499205 176.16629953 136.04424825 175.06030273 138.48852539 C174.75447266 139.1768042 174.44864258 139.86508301 174.13354492 140.57421875 C171.54265986 146.33704256 168.75712793 151.99787432 165.87646484 157.62084961 C165.40285522 158.54728271 165.40285522 158.54728271 164.91967773 159.49243164 C164.64478516 160.02425049 164.36989258 160.55606934 164.08666992 161.10400391 C162.66606848 164.06574921 161.40476818 167.08926877 160.12280273 170.11352539 C154.09068966 170.31151181 148.06047172 170.45655616 142.02587891 170.55297852 C139.9741115 170.59317429 137.92257276 170.64774306 135.87158203 170.71704102 C132.919593 170.81427291 129.97063363 170.85948756 127.01733398 170.89477539 C126.1025679 170.93606567 125.18780182 170.97735596 124.24531555 171.01989746 C121.6393205 171.02172737 119.59765461 170.93700243 117.12280273 170.11352539 C114.79765979 167.7203881 113.45709886 165.14893149 112.12280273 162.11352539 C111.60073242 161.01266602 111.07866211 159.91180664 110.54077148 158.77758789 C110.1347168 157.77469727 109.72866211 156.77180664 109.31030273 155.73852539 C108.89135742 154.72016602 108.47241211 153.70180664 108.04077148 152.65258789 C107.12280273 150.11352539 107.12280273 150.11352539 107.12280273 148.11352539 C106.46280273 148.11352539 105.80280273 148.11352539 105.12280273 148.11352539 C104.88045898 147.55665039 104.63811523 146.99977539 104.38842773 146.42602539 C102.11085792 141.24017411 99.69243294 136.1610133 97.12280273 131.11352539 C96.64069336 132.24532227 96.15858398 133.37711914 95.66186523 134.54321289 C95.0240947 136.02509147 94.38606013 137.50685644 93.74780273 138.98852539 C93.27213867 140.10807617 93.27213867 140.10807617 92.78686523 141.25024414 C92.32280273 142.32338867 92.32280273 142.32338867 91.84936523 143.41821289 C91.56657715 144.07805176 91.28378906 144.73789063 90.99243164 145.41772461 C90.12280273 147.11352539 90.12280273 147.11352539 88.12280273 149.11352539 C87.13280273 151.42352539 86.14280273 153.73352539 85.12280273 156.11352539 C82.81280273 160.73352539 80.50280273 165.35352539 78.12280273 170.11352539 C63.93280273 170.11352539 49.74280273 170.11352539 35.12280273 170.11352539 C32.48280273 164.50352539 29.84280273 158.89352539 27.12280273 153.11352539 C26.13280273 151.13352539 25.14280273 149.15352539 24.12280273 147.11352539 C23.54264918 145.88645217 22.9685334 144.65648069 22.40405273 143.42211914 C21.96512695 142.46982422 21.96512695 142.46982422 21.51733398 141.49829102 C20.91949768 140.19688752 20.32315007 138.89479915 19.72827148 137.59204102 C18.45819687 134.84207769 17.16204623 132.17829718 15.59155273 129.58618164 C14.13387175 127.1321602 13.0129123 124.63393813 11.91772461 122.0012207 C10.49458435 118.62169968 8.92986451 115.30796738 7.37280273 111.98852539 C7.02862305 111.2529541 6.68444336 110.51738281 6.32983398 109.75952148 C3.56917173 103.92092306 0.55930343 98.27164046 -2.62719727 92.65258789 C-3.87719727 90.11352539 -3.87719727 90.11352539 -3.87719727 87.11352539 C-4.53719727 86.78352539 -5.19719727 86.45352539 -5.87719727 86.11352539 C-6.62329102 84.22290039 -6.62329102 84.22290039 -7.31469727 81.86352539 C-8.46317228 78.22954474 -9.79090211 75.32321024 -11.87719727 72.11352539 C-14.90789639 66.90389225 -17.59983745 61.70340856 -19.87719727 56.11352539 C-20.43407227 55.06165039 -20.99094727 54.00977539 -21.56469727 52.92602539 C-24.22627219 46.43753734 -24.03077237 39.63555289 -21.41235352 33.17993164 C-19.29139667 28.42419571 -16.91482788 23.84126663 -14.23266602 19.37524414 C-12.82587228 17.02788514 -11.813103 14.61432967 -10.76782227 12.09008789 C-5.39124396 0.15785709 -5.39124396 0.15785709 0 0 Z " fill="#A16BCC" transform="translate(22.877197265625,17.886474609375)"/>
<path d="M0 0 C1.72974441 0.00015918 3.45949355 0.0058569 5.18920898 0.01586914 C6.09783188 0.01728409 7.00645477 0.01869904 7.94261169 0.02015686 C10.85687494 0.02577346 13.77106254 0.03832874 16.68530273 0.05102539 C18.65600475 0.05603825 20.62670797 0.06060153 22.59741211 0.06469727 C27.43923832 0.07574828 32.28100768 0.09302401 37.12280273 0.11352539 C38.11360677 1.85506185 39.10441081 3.59659831 40.09521484 5.33813477 C40.92990268 6.78024689 41.80219167 8.20054769 42.68530273 9.61352539 C44.05910491 12.00274656 45.12690296 14.41252756 46.15795898 16.96508789 C47.1546991 19.2615278 47.1546991 19.2615278 48.68139648 21.94946289 C52.11971502 28.25437033 54.02389582 32.05232251 52.12280273 39.11352539 C53.60780273 39.60852539 53.60780273 39.60852539 55.12280273 40.11352539 C58.12280273 44.44685872 58.12280273 44.44685872 58.12280273 47.11352539 C57.38642578 47.13334473 56.65004883 47.15316406 55.89135742 47.17358398 C52.55148218 47.26890367 49.21222635 47.37855535 45.87280273 47.48852539 C44.71393555 47.51946289 43.55506836 47.55040039 42.36108398 47.58227539 C41.24604492 47.62094727 40.13100586 47.65961914 38.98217773 47.69946289 C37.95576172 47.73088379 36.9293457 47.76230469 35.87182617 47.79467773 C31.96194026 48.24816894 29.88472067 49.15407318 27.43530273 52.23852539 C25.74635542 55.93812427 25.46568286 59.06753992 25.12280273 63.11352539 C20.66780273 63.60852539 20.66780273 63.60852539 16.12280273 64.11352539 C15.79280273 76.65352539 15.46280273 89.19352539 15.12280273 102.11352539 C18.42280273 102.11352539 21.72280273 102.11352539 25.12280273 102.11352539 C25.13698242 102.92176758 25.15116211 103.73000977 25.16577148 104.56274414 C25.40673363 111.27504976 25.40673363 111.27504976 28.18530273 117.23852539 C35.60953607 121.97739773 44.28267558 121.54013 52.81030273 121.61352539 C54.02008789 121.65477539 55.22987305 121.69602539 56.47631836 121.73852539 C62.52755476 121.98182992 62.52755476 121.98182992 68.00512695 119.87646484 C70.16097305 117.37387702 71.72766632 114.39429023 72.87280273 111.30102539 C74.12280273 108.11352539 74.12280273 108.11352539 75.12280273 107.11352539 C78.17549495 106.68008025 81.07410956 106.64202275 84.12280273 107.11352539 C87.51177488 110.14576362 89.28559438 113.97980658 91.12280273 118.11352539 C91.12280273 118.77352539 91.12280273 119.43352539 91.12280273 120.11352539 C91.76217773 120.40227539 92.40155273 120.69102539 93.06030273 120.98852539 C95.12280273 122.11352539 95.12280273 122.11352539 96.12280273 124.11352539 C97.67894277 132.6722956 94.10611697 138.93608903 90.1237793 146.22094727 C88.42452649 149.43377842 86.93846336 152.74307902 85.43530273 156.05102539 C83.201226 160.95106481 80.81510986 165.40198792 78.12280273 170.11352539 C63.93280273 170.11352539 49.74280273 170.11352539 35.12280273 170.11352539 C32.48280273 164.50352539 29.84280273 158.89352539 27.12280273 153.11352539 C26.13280273 151.13352539 25.14280273 149.15352539 24.12280273 147.11352539 C23.54264918 145.88645217 22.9685334 144.65648069 22.40405273 143.42211914 C21.96512695 142.46982422 21.96512695 142.46982422 21.51733398 141.49829102 C20.91949768 140.19688752 20.32315007 138.89479915 19.72827148 137.59204102 C18.45819687 134.84207769 17.16204623 132.17829718 15.59155273 129.58618164 C14.13387175 127.1321602 13.0129123 124.63393813 11.91772461 122.0012207 C10.49458435 118.62169968 8.92986451 115.30796738 7.37280273 111.98852539 C7.02862305 111.2529541 6.68444336 110.51738281 6.32983398 109.75952148 C3.56917173 103.92092306 0.55930343 98.27164046 -2.62719727 92.65258789 C-3.87719727 90.11352539 -3.87719727 90.11352539 -3.87719727 87.11352539 C-4.53719727 86.78352539 -5.19719727 86.45352539 -5.87719727 86.11352539 C-6.62329102 84.22290039 -6.62329102 84.22290039 -7.31469727 81.86352539 C-8.46317228 78.22954474 -9.79090211 75.32321024 -11.87719727 72.11352539 C-14.90789639 66.90389225 -17.59983745 61.70340856 -19.87719727 56.11352539 C-20.43407227 55.06165039 -20.99094727 54.00977539 -21.56469727 52.92602539 C-24.22627219 46.43753734 -24.03077237 39.63555289 -21.41235352 33.17993164 C-19.29139667 28.42419571 -16.91482788 23.84126663 -14.23266602 19.37524414 C-12.82587228 17.02788514 -11.813103 14.61432967 -10.76782227 12.09008789 C-5.39124396 0.15785709 -5.39124396 0.15785709 0 0 Z " fill="#1C39B2" transform="translate(22.877197265625,17.886474609375)"/>
<path d="M0 0 C19.53333296 -0.06067288 39.05694647 0.05526627 58.58764648 0.37231445 C62.07722978 0.42874131 65.56687851 0.47841365 69.05658245 0.52671719 C72.43753054 0.57476672 75.8183607 0.62958075 79.19921875 0.68359375 C80.44579758 0.70030624 81.6923764 0.71701874 82.97673035 0.73423767 C84.12095963 0.75418289 85.2651889 0.77412811 86.4440918 0.79467773 C87.44836716 0.81022202 88.45264252 0.8257663 89.48735046 0.84178162 C92 1 92 1 95 2 C95.06949924 9.24961654 95.12281062 16.4991613 95.15543652 23.74904346 C95.17109511 27.11544877 95.19233621 30.48162623 95.22631836 33.84790039 C95.26261749 37.71767249 95.2797075 41.58712026 95.29296875 45.45703125 C95.30845261 46.66647903 95.32393646 47.87592682 95.33988953 49.12202454 C95.34011612 50.24296005 95.34034271 51.36389557 95.34057617 52.51879883 C95.35056892 54.00105705 95.35056892 54.00105705 95.36076355 55.51325989 C95 58 95 58 93.65667725 59.81732178 C89.57728004 62.72954517 82.86715115 61.46385968 78.0625 61.4375 C76.12987305 61.4674707 76.12987305 61.4674707 74.15820312 61.49804688 C72.92134766 61.49740234 71.68449219 61.49675781 70.41015625 61.49609375 C69.27715088 61.49794678 68.14414551 61.4997998 66.97680664 61.50170898 C63.34180203 60.88906776 62.22748073 59.88335898 60 57 C59.505 55.824375 59.01 54.64875 58.5 53.4375 C56.92817783 49.83540753 56.31970427 48.88415648 53 47 C49.86470017 46.48820821 49.86470017 46.48820821 46.5 46.5625 C45.3759375 46.54316406 44.251875 46.52382812 43.09375 46.50390625 C39.33879628 47.10602635 38.27941633 48.0089107 36 51 C34.77057269 53.29526237 34.77057269 53.29526237 33.875 55.6875 C32.20816327 59.89591837 32.20816327 59.89591837 30 61 C25.87758955 61.25678732 21.75355479 61.2709285 17.6237793 61.29516602 C15.57338028 61.3124085 13.52458239 61.35630254 11.47460938 61.40039062 C10.18490234 61.40876953 8.89519531 61.41714844 7.56640625 61.42578125 C6.37990479 61.44036377 5.19340332 61.45494629 3.97094727 61.4699707 C1 61 1 61 -0.66241455 59.29911804 C-2.26096243 56.55144291 -2.37447807 54.90862803 -2.37231445 51.74414062 C-2.37854324 50.69625366 -2.38477203 49.6483667 -2.39118958 48.56872559 C-2.38197983 47.44260864 -2.37277008 46.3164917 -2.36328125 45.15625 C-2.36377975 43.9950061 -2.36427826 42.83376221 -2.36479187 41.6373291 C-2.36245201 39.18284392 -2.35272872 36.7283563 -2.33618164 34.27392578 C-2.31259055 30.51443044 -2.31562157 26.7556443 -2.32226562 22.99609375 C-2.3166888 20.61197493 -2.30957889 18.22785911 -2.30078125 15.84375 C-2.30169266 14.71763306 -2.30260406 13.59151611 -2.30354309 12.43127441 C-2.29401108 11.38338745 -2.28447906 10.33550049 -2.2746582 9.25585938 C-2.27005081 8.33526733 -2.26544342 7.41467529 -2.26069641 6.46618652 C-1.98696015 3.87664312 -1.31085472 2.22937494 0 0 Z " fill="#9E66CA" transform="translate(56,72)"/>
<path d="M0 0 C6.12571449 3.06285724 7.42500043 4.65571908 10 10.4375 C10.68076449 11.88291853 11.36175619 13.32823008 12.04296875 14.7734375 C12.37216309 15.48854492 12.70135742 16.20365234 13.04052734 16.94042969 C14.39583485 19.84968518 15.85418793 22.7037741 17.3125 25.5625 C19.05691441 29.00634392 20.64068276 32.47950639 22.14526367 36.03442383 C23.83525626 39.92077925 25.6786405 43.73644283 27.5 47.5625 C27.89058594 48.38685547 28.28117187 49.21121094 28.68359375 50.06054688 C29.06644531 50.86685547 29.44929688 51.67316406 29.84375 52.50390625 C30.20984375 53.28137207 30.5759375 54.05883789 30.953125 54.85986328 C31.84444394 56.68199523 32.8345946 58.45523593 33.84375 60.21484375 C35.77364459 64.86354255 34.39509768 67.96701998 32.65234375 72.5234375 C32.08890169 73.81089927 31.51685222 75.0946189 30.9375 76.375 C30.63166992 77.06327881 30.32583984 77.75155762 30.01074219 78.46069336 C27.41985712 84.22351717 24.6343252 89.88434893 21.75366211 95.50732422 C21.43792236 96.12494629 21.12218262 96.74256836 20.796875 97.37890625 C20.52198242 97.9107251 20.24708984 98.44254395 19.96386719 98.99047852 C18.54326575 101.95222381 17.28196544 104.97574338 16 108 C9.96788692 108.19798642 3.93766899 108.34303077 -2.09692383 108.43945312 C-4.14869123 108.4796489 -6.20022998 108.53421767 -8.2512207 108.60351562 C-11.20320973 108.70074752 -14.1521691 108.74596217 -17.10546875 108.78125 C-18.02023483 108.82254028 -18.93500092 108.86383057 -19.87748718 108.90637207 C-22.48348223 108.90820198 -24.52514813 108.82347704 -27 108 C-29.32514295 105.60686271 -30.66570387 103.0354061 -32 100 C-32.52207031 98.89914063 -33.04414063 97.79828125 -33.58203125 96.6640625 C-33.98808594 95.66117187 -34.39414063 94.65828125 -34.8125 93.625 C-35.44091797 92.09746094 -35.44091797 92.09746094 -36.08203125 90.5390625 C-37 88 -37 88 -37 86 C-37.66 86 -38.32 86 -39 86 C-39.24234375 85.443125 -39.4846875 84.88625 -39.734375 84.3125 C-42.01194482 79.12664872 -44.43036979 74.0474879 -47 69 C-47.33 69 -47.66 69 -48 69 C-48.33 66.03 -48.66 63.06 -49 60 C-48.25951416 59.98541748 -47.51902832 59.97083496 -46.75610352 59.95581055 C-43.35774587 59.88072778 -39.9603066 59.78426719 -36.5625 59.6875 C-34.81549805 59.65366211 -34.81549805 59.65366211 -33.03320312 59.61914062 C-26.14465963 59.4056928 -20.38127549 58.60889515 -14 56 C-13.01 55.67 -12.02 55.34 -11 55 C-10.67 50.05 -10.34 45.1 -10 40 C-6.7 40 -3.4 40 0 40 C0 26.8 0 13.6 0 0 Z " fill="#A16ACB" transform="translate(167,80)"/>
<path d="M0 0 C0.93835693 -0.00817749 1.87671387 -0.01635498 2.84350586 -0.02478027 C5.95775712 -0.04965172 9.07196278 -0.06615418 12.1862793 -0.08056641 C13.77940476 -0.08855192 13.77940476 -0.08855192 15.40471458 -0.09669876 C21.025499 -0.12343709 26.64626115 -0.14281041 32.26708984 -0.15722656 C38.07807906 -0.1738822 43.88850199 -0.21866608 49.69927692 -0.26959801 C54.16280279 -0.30322261 58.62619342 -0.31479874 63.08983421 -0.32045364 C65.23209146 -0.32717862 67.37433942 -0.34243284 69.51647377 -0.36634445 C72.51405885 -0.39789757 75.51010554 -0.39804744 78.5078125 -0.390625 C79.83666725 -0.415233 79.83666725 -0.415233 81.19236755 -0.44033813 C85.68332603 -0.39478832 87.37723284 -0.27353675 90.97550964 2.6668396 C91.62643082 3.50042999 92.27735199 4.33402039 92.94799805 5.19287109 C93.44299805 5.68787109 93.44299805 5.68787109 93.94799805 6.19287109 C94.08993142 9.19618127 93.99036183 12.18504244 93.94799805 15.19287109 C96.91799805 15.19287109 99.88799805 15.19287109 102.94799805 15.19287109 C102.94799805 28.06287109 102.94799805 40.93287109 102.94799805 54.19287109 C99.97799805 54.19287109 97.00799805 54.19287109 93.94799805 54.19287109 C93.95959961 55.02431641 93.97120117 55.85576172 93.9831543 56.71240234 C93.99217773 57.79908203 94.00120117 58.88576172 94.01049805 60.00537109 C94.02209961 61.08431641 94.03370117 62.16326172 94.0456543 63.27490234 C93.94799805 66.19287109 93.94799805 66.19287109 92.94799805 69.19287109 C84.69187602 74.59110472 77.14613116 74.45545859 67.44799805 74.56787109 C66.22467773 74.60525391 65.00135742 74.64263672 63.7409668 74.68115234 C54.76595521 74.76943115 54.76595521 74.76943115 50.74487305 71.93505859 C49.23289219 69.62764433 47.82954422 67.45528717 46.69799805 64.94287109 C45.60793327 62.37005507 45.60793327 62.37005507 43.94799805 60.19287109 C42.42871767 60.12107145 40.90632323 60.10895102 39.38549805 60.13037109 C38.55920898 60.13939453 37.73291992 60.14841797 36.8815918 60.15771484 C36.24350586 60.16931641 35.60541992 60.18091797 34.94799805 60.19287109 C34.47620117 61.20607422 34.47620117 61.20607422 33.99487305 62.23974609 C33.5669043 63.13177734 33.13893555 64.02380859 32.69799805 64.94287109 C32.2803418 65.82458984 31.86268555 66.70630859 31.43237305 67.61474609 C29.82509069 70.40634177 28.44342633 72.15159368 25.94799805 74.19287109 C23.14233398 74.67871094 23.14233398 74.67871094 19.93237305 74.65380859 C18.17860352 74.64800781 18.17860352 74.64800781 16.3894043 74.64208984 C15.17124023 74.61759766 13.95307617 74.59310547 12.69799805 74.56787109 C11.49530273 74.56658203 10.29260742 74.56529297 9.0534668 74.56396484 C-7.65200656 74.39892724 -7.65200656 74.39892724 -14.05200195 68.19287109 C-15.43426212 65.42835077 -15.14725582 63.14673479 -15.11450195 60.06787109 C-15.10547852 58.97216797 -15.09645508 57.87646484 -15.0871582 56.74755859 C-15.07555664 55.90451172 -15.06395508 55.06146484 -15.05200195 54.19287109 C-18.35200195 54.19287109 -21.65200195 54.19287109 -25.05200195 54.19287109 C-25.07665045 48.79940121 -25.09483726 43.40596384 -25.10693359 38.01245117 C-25.11197427 36.17618235 -25.11880672 34.33991755 -25.12744141 32.50366211 C-25.13951868 29.87010708 -25.14523276 27.23660493 -25.1496582 24.60302734 C-25.15481949 23.77698502 -25.15998077 22.95094269 -25.16529846 22.09986877 C-25.165494 20.13050742 -25.11404347 18.16125496 -25.05200195 16.19287109 C-24.05200195 15.19287109 -24.05200195 15.19287109 -21.9855957 15.09521484 C-20.7500293 15.11261719 -20.7500293 15.11261719 -19.48950195 15.13037109 C-18.66321289 15.13939453 -17.83692383 15.14841797 -16.9855957 15.15771484 C-16.34750977 15.16931641 -15.70942383 15.18091797 -15.05200195 15.19287109 C-15.13450195 13.99662109 -15.21700195 12.80037109 -15.30200195 11.56787109 C-15.3178369 7.11033234 -13.91799115 4.64891689 -11.05200195 1.19287109 C-7.64460696 -0.5108264 -3.75031403 0.01791096 0 0 Z M-7.05200195 6.19287109 C-8.93235663 9.3907965 -9.30819153 11.75855709 -9.32666016 15.44873047 C-9.33619217 16.49661743 -9.34572418 17.54450439 -9.35554504 18.62414551 C-9.35463364 19.75026245 -9.35372223 20.87637939 -9.3527832 22.03662109 C-9.35706833 23.19786499 -9.36135345 24.35910889 -9.36576843 25.55554199 C-9.3715098 28.01000313 -9.37201343 30.46448129 -9.36767578 32.91894531 C-9.36451402 36.67851686 -9.38798475 40.43730299 -9.41333008 44.19677734 C-9.41560286 46.58089093 -9.41630667 48.96500664 -9.4152832 51.34912109 C-9.42449295 52.47523804 -9.4337027 53.60135498 -9.44319153 54.76159668 C-9.43696274 55.80948364 -9.43073395 56.85737061 -9.42431641 57.93701172 C-9.42494583 58.85760376 -9.42557526 59.7781958 -9.42622375 60.72668457 C-8.97703406 63.68692253 -8.13210757 65.06087889 -6.05200195 67.19287109 C-3.00886356 67.79512986 -3.00886356 67.79512986 0.47924805 67.68896484 C1.76444336 67.68960938 3.04963867 67.69025391 4.3737793 67.69091797 C5.04231934 67.6805249 5.71085937 67.67013184 6.3996582 67.65942383 C8.44133778 67.63046556 10.4804202 67.63881435 12.5222168 67.65185547 C19.0185625 68.03990428 19.0185625 68.03990428 24.78979492 65.80273438 C26.6847122 63.16886327 27.70246404 60.25341364 28.88549805 57.25146484 C29.94799805 55.19287109 29.94799805 55.19287109 32.94799805 53.19287109 C35.90893555 52.85693359 35.90893555 52.85693359 39.32299805 52.81787109 C40.44448242 52.78951172 41.5659668 52.76115234 42.72143555 52.73193359 C46.6473344 53.29277629 48.19265885 54.37942281 50.94799805 57.19287109 C52.2409668 59.51708984 52.2409668 59.51708984 53.13549805 61.88037109 C54.23674293 65.24232783 54.23674293 65.24232783 56.94799805 67.19287109 C61.58870316 67.46481155 66.23773321 67.42450955 70.88549805 67.44287109 C72.18680664 67.46349609 73.48811523 67.48412109 74.82885742 67.50537109 C76.07344727 67.51052734 77.31803711 67.51568359 78.6003418 67.52099609 C80.3172522 67.53501465 80.3172522 67.53501465 82.06884766 67.54931641 C84.89063618 67.43143704 84.89063618 67.43143704 86.60665894 66.01316833 C88.4570576 63.5020393 88.30949108 61.81433831 88.28857422 58.71166992 C88.28834763 57.59073441 88.28812103 56.46979889 88.28788757 55.31489563 C88.27240372 54.10544785 88.25691986 52.89600006 88.2409668 51.64990234 C88.23672195 50.41116867 88.23247711 49.172435 88.22810364 47.89616394 C88.21414537 44.60638108 88.18720018 41.31703906 88.1539917 38.02740479 C88.12327737 34.66920363 88.10959544 31.31093791 88.09448242 27.95263672 C88.06137163 21.36587536 88.01114061 14.77940929 87.94799805 8.19287109 C84.85372538 7.16144687 82.6383985 7.03779554 79.39208984 6.98754883 C78.24786057 6.96760361 77.10363129 6.94765839 75.92472839 6.92710876 C74.67814957 6.91039627 73.43157074 6.89368378 72.1472168 6.87646484 C70.84645706 6.85568375 69.54569733 6.83490265 68.20552063 6.81349182 C65.43050621 6.76944335 62.65546916 6.7285977 59.88037109 6.69018555 C56.42173911 6.64223018 52.96323596 6.5883601 49.50472832 6.53221703 C30.65128737 6.22808493 11.80385925 6.13430252 -7.05200195 6.19287109 Z " fill="#F7F6FC" transform="translate(63.052001953125,65.80712890625)"/>
<path d="M0 0 C2.88916016 -0.34057617 2.88916016 -0.34057617 6.5390625 -0.29296875 C8.49199219 -0.2784668 8.49199219 -0.2784668 10.484375 -0.26367188 C11.86458923 -0.23860388 13.24479756 -0.21320902 14.625 -0.1875 C16.01300663 -0.17245517 17.40102867 -0.15876641 18.7890625 -0.14648438 C22.19309509 -0.1110257 25.59635622 -0.06160298 29 0 C35.114214 11.53024873 41.14396542 23.08750424 46.75 34.875 C47.17974121 35.77758545 47.60948242 36.6801709 48.05224609 37.61010742 C51 43.86175651 51 43.86175651 51 45 C50.25234375 45.02578125 49.5046875 45.0515625 48.734375 45.078125 C42.8689384 45.3132304 42.8689384 45.3132304 37.5625 47.5 C35.64899375 50.56161 34.25797381 53.72057026 32.9296875 57.07421875 C32 59 32 59 30 60 C25.87758955 60.25678732 21.75355479 60.2709285 17.6237793 60.29516602 C15.57338028 60.3124085 13.52458239 60.35630254 11.47460938 60.40039062 C10.18490234 60.40876953 8.89519531 60.41714844 7.56640625 60.42578125 C6.37990479 60.44036377 5.19340332 60.45494629 3.97094727 60.4699707 C1 60 1 60 -0.66241455 58.30010986 C-2.26299833 55.54774848 -2.3744746 53.89803865 -2.37231445 50.72827148 C-2.37854324 49.67715683 -2.38477203 48.62604218 -2.39118958 47.54307556 C-2.38197983 46.41382156 -2.37277008 45.28456757 -2.36328125 44.12109375 C-2.36402901 42.37567039 -2.36402901 42.37567039 -2.36479187 40.59498596 C-2.36245218 38.13630464 -2.35272994 35.67762089 -2.33618164 33.21899414 C-2.31256897 29.44851354 -2.31562433 25.67873897 -2.32226562 21.90820312 C-2.31668959 19.5208291 -2.30958018 17.13345807 -2.30078125 14.74609375 C-2.30169266 13.61481552 -2.30260406 12.48353729 -2.30354309 11.31797791 C-2.29401108 10.27001541 -2.28447906 9.22205292 -2.2746582 8.14233398 C-2.27005081 7.21952133 -2.26544342 6.29670868 -2.26069641 5.34593201 C-2 3 -2 3 0 0 Z " fill="#1A37B0" transform="translate(56,73)"/>
<path d="M0 0 C0.33 0 0.66 0 1 0 C1.21911314 7.74082864 1.41399463 15.48199558 1.59204102 23.22387695 C1.65546813 25.85748088 1.7244414 28.49095732 1.79907227 31.12426758 C1.90538614 34.90946946 1.99174455 38.69468169 2.07421875 42.48046875 C2.11157639 43.65772018 2.14893402 44.83497162 2.18742371 46.04789734 C2.20767105 47.14866104 2.2279184 48.24942474 2.2487793 49.38354492 C2.27320602 50.34951096 2.29763275 51.31547699 2.32279968 52.31071472 C1.94011009 55.49895046 0.80920649 57.38089535 -1 60 C0.32 59.67 1.64 59.34 3 59 C0.7279503 62.40807455 -0.5440452 62.78576201 -4.43212891 63.62939453 C-9.83078105 64.40854969 -15.24217098 64.41113746 -20.6875 64.4375 C-21.89728516 64.47037109 -23.10707031 64.50324219 -24.35351562 64.53710938 C-33.16649277 64.59069851 -33.16649277 64.59069851 -37.19140625 61.73828125 C-38.71422667 59.43267193 -40.11674021 57.26622088 -41.25 54.75 C-42.34006477 52.17718398 -42.34006477 52.17718398 -44 50 C-45.51928038 49.92820036 -47.04167482 49.91607993 -48.5625 49.9375 C-49.38878906 49.94652344 -50.21507812 49.95554688 -51.06640625 49.96484375 C-51.70449219 49.97644531 -52.34257813 49.98804688 -53 50 C-53.47179687 51.01320313 -53.47179687 51.01320313 -53.953125 52.046875 C-54.38109375 52.93890625 -54.8090625 53.8309375 -55.25 54.75 C-55.66765625 55.63171875 -56.0853125 56.5134375 -56.515625 57.421875 C-58.12352303 60.21454001 -59.50253766 61.95902287 -62 64 C-64.8215332 64.48583984 -64.8215332 64.48583984 -68.05078125 64.4609375 C-69.22447266 64.45707031 -70.39816406 64.45320313 -71.60742188 64.44921875 C-73.44143555 64.41248047 -73.44143555 64.41248047 -75.3125 64.375 C-77.12911133 64.37306641 -77.12911133 64.37306641 -78.98242188 64.37109375 C-85.00420506 64.31176584 -90.32956528 64.09395669 -96 62 C-96.33 59.03 -96.66 56.06 -97 53 C-96.01 53.99 -95.02 54.98 -94 56 C-90.70338429 56.41599077 -90.70338429 56.41599077 -86.92578125 56.29296875 C-86.2419487 56.28872391 -85.55811615 56.28447906 -84.8535614 56.28010559 C-82.67280439 56.26333353 -80.49297691 56.22568657 -78.3125 56.1875 C-76.83269565 56.17245114 -75.3528768 56.15876308 -73.87304688 56.14648438 C-70.24839664 56.11343569 -66.62428906 56.06166446 -63 56 C-62.70778564 55.07876343 -62.70778564 55.07876343 -62.40966797 54.13891602 C-62.14814941 53.33123779 -61.88663086 52.52355957 -61.6171875 51.69140625 C-61.23216064 50.49173218 -61.23216064 50.49173218 -60.83935547 49.26782227 C-59.48064505 45.59677483 -58.36112811 44.08389943 -55 42 C-49.93776155 41.20347093 -44.74821278 40.87173185 -39.92578125 42.8515625 C-35.72194552 45.96473052 -34.58014412 50.25956765 -33 55 C-30.0780231 56.46098845 -27.50106525 56.11134901 -24.2421875 56.09765625 C-23.02901855 56.09515869 -21.81584961 56.09266113 -20.56591797 56.09008789 C-19.01791504 56.08098389 -17.46991211 56.07187988 -15.875 56.0625 C-8.511875 56.0315625 -8.511875 56.0315625 -1 56 C-0.67 37.52 -0.34 19.04 0 0 Z " fill="#F1EFFB" transform="translate(151,76)"/>
<path d="M0 0 C0.99 0 1.98 0 3 0 C3.06949924 7.24961654 3.12281062 14.4991613 3.15543652 21.74904346 C3.17109511 25.11544877 3.19233621 28.48162623 3.22631836 31.84790039 C3.26261749 35.71767249 3.2797075 39.58712026 3.29296875 43.45703125 C3.30845261 44.66647903 3.32393646 45.87592682 3.33988953 47.12202454 C3.34011612 48.24296005 3.34034271 49.36389557 3.34057617 50.51879883 C3.34723801 51.50697098 3.35389984 52.49514313 3.36076355 53.51325989 C3 56 3 56 1.65866089 57.81930542 C-0.92961012 59.66172998 -3.21258361 59.37144608 -6.34765625 59.36328125 C-7.59224609 59.36263672 -8.83683594 59.36199219 -10.11914062 59.36132812 C-11.42044922 59.34521484 -12.72175781 59.32910156 -14.0625 59.3125 C-15.36767578 59.31572266 -16.67285156 59.31894531 -18.01757812 59.32226562 C-27.73313673 59.26686327 -27.73313673 59.26686327 -30 57 C-29.23856689 56.97494385 -28.47713379 56.9498877 -27.69262695 56.92407227 C-24.23242624 56.80780952 -20.77247746 56.68522022 -17.3125 56.5625 C-16.11431641 56.52318359 -14.91613281 56.48386719 -13.68164062 56.44335938 C-12.52470703 56.40146484 -11.36777344 56.35957031 -10.17578125 56.31640625 C-8.58117065 56.26141968 -8.58117065 56.26141968 -6.9543457 56.20532227 C-4.21795468 56.0151475 -1.67143268 55.6068493 1 55 C0.67 54.34 0.34 53.68 0 53 C-0.09051069 51.30456409 -0.11754872 49.60556022 -0.11352539 47.90771484 C-0.11344986 46.84676605 -0.11337433 45.78581726 -0.11329651 44.69271851 C-0.10813522 43.54373077 -0.10297394 42.39474304 -0.09765625 41.2109375 C-0.0962413 40.03737701 -0.09482635 38.86381653 -0.09336853 37.6546936 C-0.08775689 33.89477015 -0.07520238 30.13490555 -0.0625 26.375 C-0.0574865 23.83073002 -0.05292333 21.28645912 -0.04882812 18.7421875 C-0.03778368 12.49477147 -0.02103418 6.24738994 0 0 Z " fill="#9C6BBF" transform="translate(148,74)"/>
<path d="M0 0 C5.41506894 6.161975 7.54645877 13.32615827 10 21 C8.68 20.34 7.36 19.68 6 19 C5.67 31.87 5.34 44.74 5 58 C4.67 58 4.34 58 4 58 C4 45.13 4 32.26 4 19 C1.03 19 -1.94 19 -5 19 C-5 17.02 -5 15.04 -5 13 C-4.67 13 -4.34 13 -4 13 C-4 14.65 -4 16.3 -4 18 C-2.40443894 16.40443894 -2.72576645 14.58076306 -2.5625 12.375 C-2.17304753 8.00308196 -1.35830876 4.16548021 0 0 Z " fill="#AC7FD0" transform="translate(162,62)"/>
<path d="M0 0 C2.47923801 -0.02685095 4.9581884 -0.04676547 7.4375 -0.0625 C8.14455078 -0.07087891 8.85160156 -0.07925781 9.58007812 -0.08789062 C11.38693559 -0.09653588 13.19387603 -0.05220011 15 0 C16 1 16 1 16.125 4 C16 7 16 7 15 8 C12.46950598 8.07313567 9.96695163 8.09247527 7.4375 8.0625 C6.37112305 8.05573242 6.37112305 8.05573242 5.28320312 8.04882812 C3.52209987 8.03700864 1.76103964 8.01907263 0 8 C0 5.36 0 2.72 0 0 Z " fill="#FFFCFD" transform="translate(95,78)"/>
<path d="M0 0 C13.53 0 27.06 0 41 0 C42.32 2.31 43.64 4.62 45 7 C45.53625 7.825 46.0725 8.65 46.625 9.5 C48.30829602 12.56053821 49.13988603 15.62570673 50 19 C47.12049214 16.3991542 45.78262987 14.78271103 45 11 C44.34 10.67 43.68 10.34 43 10 C41.6250851 7.09740189 41 5.23861295 41 2 C35.19744647 2.11805535 29.39507112 2.24228962 23.59277344 2.37231445 C21.61787538 2.41569203 19.64293913 2.457365 17.66796875 2.49731445 C14.8332161 2.55494873 11.99865622 2.6186627 9.1640625 2.68359375 C7.83430893 2.70866249 7.83430893 2.70866249 6.47769165 2.73423767 C2.10074845 2.71085211 2.10074845 2.71085211 -2 4 C-1.34 2.68 -0.68 1.36 0 0 Z " fill="#8495D9" transform="translate(19,18)"/>
<path d="M0 0 C4.23582327 -0.04938628 8.47149465 -0.08571263 12.70751953 -0.10986328 C14.14895547 -0.11992963 15.59037095 -0.1335838 17.03173828 -0.15087891 C19.10193934 -0.17510012 21.17187076 -0.18647641 23.2421875 -0.1953125 C25.11173096 -0.21102295 25.11173096 -0.21102295 27.01904297 -0.22705078 C30 0 30 0 32 2 C34.89223503 2.46396693 34.89223503 2.46396693 38.125 2.625 C39.76855469 2.73714844 39.76855469 2.73714844 41.4453125 2.8515625 C42.70988281 2.92503906 42.70988281 2.92503906 44 3 C44 3.66 44 4.32 44 5 C43.21625 5.144375 42.4325 5.28875 41.625 5.4375 C38.84843237 6.71536857 38.84843237 6.71536857 38.22265625 9.13671875 C37.73164391 11.41974691 37.31887599 13.68695927 37 16 C34.84821844 13.23612808 33.01629579 10.43466931 31.3125 7.375 C30.87550781 6.59898438 30.43851563 5.82296875 29.98828125 5.0234375 C29 3 29 3 29 1 C19.43 1 9.86 1 0 1 C0 0.67 0 0.34 0 0 Z " fill="#977ED7" transform="translate(56,72)"/>
<path d="M0 0 C1.32 0 2.64 0 4 0 C4 8.25 4 16.5 4 25 C2.68 25 1.36 25 0 25 C0 16.75 0 8.5 0 0 Z " fill="#3147A7" transform="translate(44,88)"/>
<path d="M0 0 C0.99 0 1.98 0 3 0 C3 8.25 3 16.5 3 25 C2.01 25 1.02 25 0 25 C0 16.75 0 8.5 0 0 Z " fill="#9868C0" transform="translate(158,88)"/>
<path d="M0 0 C1.20970459 0.00523682 2.41940918 0.01047363 3.66577148 0.01586914 C4.97094727 0.0190918 6.27612305 0.02231445 7.62084961 0.02563477 C9.00952213 0.03399138 10.39819401 0.04245634 11.78686523 0.05102539 C13.17944179 0.05603873 14.57202005 0.06060193 15.96459961 0.06469727 C19.38456394 0.07653105 22.80444367 0.09301659 26.22436523 0.11352539 C26.55436523 1.10352539 26.88436523 2.09352539 27.22436523 3.11352539 C22.80775373 3.1715682 18.39124028 3.20713643 13.97436523 3.23852539 C12.72010742 3.2552832 11.46584961 3.27204102 10.17358398 3.28930664 C8.96831055 3.29575195 7.76303711 3.30219727 6.52124023 3.30883789 C4.85593262 3.32454834 4.85593262 3.32454834 3.15698242 3.34057617 C0.28485582 3.11820873 -1.34787212 2.60634115 -3.77563477 1.11352539 C-2.77563477 0.11352539 -2.77563477 0.11352539 0 0 Z " fill="#1B3AA0" transform="translate(58.775634765625,72.886474609375)"/>
<path d="M0 0 C0.33 0.99 0.66 1.98 1 3 C-3.57662216 5.28831108 -9.97497292 4.18502705 -15 4.1875 C-16.3096875 4.19974609 -17.619375 4.21199219 -18.96875 4.22460938 C-20.84046875 4.22750977 -20.84046875 4.22750977 -22.75 4.23046875 C-23.89984375 4.23457764 -25.0496875 4.23868652 -26.234375 4.24291992 C-29 4 -29 4 -31 2 C-30.23856689 1.97494385 -29.47713379 1.9498877 -28.69262695 1.92407227 C-25.23242624 1.80780952 -21.77247746 1.68522022 -18.3125 1.5625 C-17.11431641 1.52318359 -15.91613281 1.48386719 -14.68164062 1.44335938 C-13.52470703 1.40146484 -12.36777344 1.35957031 -11.17578125 1.31640625 C-10.11270752 1.27974854 -9.04963379 1.24309082 -7.9543457 1.20532227 C-5.21795468 1.0151475 -2.67143268 0.6068493 0 0 Z " fill="#A380C5" transform="translate(149,129)"/>
<path d="M0 0 C2.47923801 -0.02685095 4.9581884 -0.04676547 7.4375 -0.0625 C8.14455078 -0.07087891 8.85160156 -0.07925781 9.58007812 -0.08789062 C11.38693559 -0.09653588 13.19387603 -0.05220011 15 0 C16 1 16 1 16.125 4 C16 7 16 7 15 8 C12.46950598 8.07313567 9.96695163 8.09247527 7.4375 8.0625 C6.37112305 8.05573242 6.37112305 8.05573242 5.28320312 8.04882812 C3.52209987 8.03700864 1.76103964 8.01907263 0 8 C0 7.67 0 7.34 0 7 C4.76307437 6.04738513 9.1666528 5.91666643 14 6 C14 4.35 14 2.7 14 1 C9.38 1 4.76 1 0 1 C0 0.67 0 0.34 0 0 Z " fill="#DDC1ED" transform="translate(95,78)"/>
<path d="M0 0 C0.495 1.485 0.495 1.485 1 3 C-0.00317383 4.48168945 -0.00317383 4.48168945 -2 6 C-4.72906362 6.26156261 -7.2246099 6.34921131 -9.94921875 6.29296875 C-10.72183548 6.28872391 -11.49445221 6.28447906 -12.29048157 6.28010559 C-14.75650992 6.26332183 -17.22171896 6.22567147 -19.6875 6.1875 C-21.36001423 6.17245271 -23.03254128 6.15876438 -24.70507812 6.14648438 C-28.80370078 6.11341946 -32.90171151 6.06164028 -37 6 C-37 5.67 -37 5.34 -37 5 C-36.0212793 4.9906543 -35.04255859 4.98130859 -34.03417969 4.97167969 C-30.39586209 4.93174542 -26.75838709 4.86597866 -23.12060547 4.79248047 C-21.54747356 4.76429046 -19.97420053 4.74306602 -18.40087891 4.72900391 C-16.13631044 4.70754558 -13.87343496 4.66088652 -11.609375 4.609375 C-10.90818542 4.60814636 -10.20699585 4.60691772 -9.48455811 4.60565186 C-5.97027928 4.50071761 -4.27809605 4.22894929 -1.52441406 1.96191406 C-1.02135742 1.31448242 -0.51830078 0.66705078 0 0 Z " fill="#2437A1" transform="translate(93,135)"/>
<path d="M0 0 C3.08236365 2.78407039 3.95206337 3.80825346 5 8 C-3.25 8 -11.5 8 -20 8 C-20 7.67 -20 7.34 -20 7 C-12.74 6.67 -5.48 6.34 2 6 C1.34 4.68 0.68 3.36 0 2 C0 1.34 0 0.68 0 0 Z " fill="#2235A0" transform="translate(76,57)"/>
<path d="M0 0 C5.18599084 4.78706847 7.32494181 11.29976725 9 18 C6.12049214 15.3991542 4.78262987 13.78271103 4 10 C3.34 9.67 2.68 9.34 2 9 C0.37265234 5.65489648 0 3.81164166 0 0 Z " fill="#7489E0" transform="translate(60,19)"/>
<path d="M0 0 C0.28875 0.639375 0.5775 1.27875 0.875 1.9375 C1.82823451 4.15206079 1.82823451 4.15206079 4 5 C5.10546875 6.9609375 5.10546875 6.9609375 6.1875 9.375 C6.55230469 10.16648438 6.91710938 10.95796875 7.29296875 11.7734375 C8 14 8 14 7 17 C5.82286337 14.9219935 4.65828026 12.83848217 3.5 10.75 C3.16613281 10.16347656 2.83226562 9.57695312 2.48828125 8.97265625 C0.63923194 5.61417893 0 3.93354216 0 0 Z " fill="#6E84D6" transform="translate(37,141)"/>
<path d="M0 0 C1.98 0 3.96 0 6 0 C5.67 2.31 5.34 4.62 5 7 C4.34 7 3.68 7 3 7 C3 6.34 3 5.68 3 5 C2.34 5 1.68 5 1 5 C0.67 5.99 0.34 6.98 0 8 C0 5.36 0 2.72 0 0 Z " fill="#8C67CA" transform="translate(119,141)"/>
<path d="M0 0 C0.84653438 3.0590674 1.24513185 4.99093136 0 8 C-0.99 8.33 -1.98 8.66 -3 9 C-3.33 10.98 -3.66 12.96 -4 15 C-4.66 15 -5.32 15 -6 15 C-4.64475824 9.57903298 -2.63365987 4.9221313 0 0 Z " fill="#C198E1" transform="translate(93,30)"/>
<path d="M0 0 C0.66 0 1.32 0 2 0 C2 0.66 2 1.32 2 2 C2.99 2.33 3.98 2.66 5 3 C4.67 3.99 4.34 4.98 4 6 C4.66 6 5.32 6 6 6 C6.33 8.31 6.66 10.62 7 13 C3.30250259 8.92000285 1.7410336 5.13604912 0 0 Z " fill="#788AD4" transform="translate(21,110)"/>
<path d="M0 0 C0.66 0.99 1.32 1.98 2 3 C1.67 3.33 1.34 3.66 1 4 C0.63239269 6.32817964 0.29758419 8.6618385 0 11 C-3.3 11 -6.6 11 -10 11 C-10 10.67 -10 10.34 -10 10 C-7.03 10 -4.06 10 -1 10 C-1.020625 8.72125 -1.04125 7.4425 -1.0625 6.125 C-1.125 2.25 -1.125 2.25 0 0 Z " fill="#BAC8F3" transform="translate(49,71)"/>
<path d="M0 0 C0.66 1.32 1.32 2.64 2 4 C1.01 4.495 1.01 4.495 0 5 C0 5.99 0 6.98 0 8 C-2.5 10.1875 -2.5 10.1875 -5 12 C-3.41037341 7.96479403 -1.71767682 3.98188718 0 0 Z " fill="#BB96DD" transform="translate(86,45)"/>
<path d="M0 0 C1 3 1 3 0.22265625 5.04296875 C-0.16019531 5.75066406 -0.54304688 6.45835937 -0.9375 7.1875 C-1.31777344 7.90292969 -1.69804688 8.61835938 -2.08984375 9.35546875 C-2.54037109 10.16951172 -2.54037109 10.16951172 -3 11 C-3.144375 10.401875 -3.28875 9.80375 -3.4375 9.1875 C-3.8872439 7.43849596 -4.42892341 5.71322977 -5 4 C-4.34 3.67 -3.68 3.34 -3 3 C-2.34 3.33 -1.68 3.66 -1 4 C-0.67 2.68 -0.34 1.36 0 0 Z " fill="#6279D8" transform="translate(118,149)"/>
<path d="M0 0 C3.63 0 7.26 0 11 0 C11 0.33 11 0.66 11 1 C10.37351562 1.02578125 9.74703125 1.0515625 9.1015625 1.078125 C8.28429687 1.13484375 7.46703125 1.1915625 6.625 1.25 C5.81289062 1.29640625 5.00078125 1.3428125 4.1640625 1.390625 C1.81161073 1.7922092 1.81161073 1.7922092 0.7109375 4.046875 C0.47632812 4.69140625 0.24171875 5.3359375 0 6 C0 4.02 0 2.04 0 0 Z " fill="#FAE8FE" transform="translate(95,79)"/>
<path d="M0 0 C2.475 0.495 2.475 0.495 5 1 C5.33 2.32 5.66 3.64 6 5 C4.125 4.75 4.125 4.75 2 4 C0.75 1.9375 0.75 1.9375 0 0 Z " fill="#EEF2F4" transform="translate(31,147)"/>
<path d="M0 0 C3.48624056 0.6456001 6.12498789 1.92360237 9 4 C9 4.99 9 5.98 9 7 C5.62660226 5.87553409 4.39930725 4.55410127 2 2 C1.34 1.34 0.68 0.68 0 0 Z " fill="#A380C1" transform="translate(149,65)"/>
<path d="M0 0 C4 4.625 4 4.625 4 8 C3.01 8.33 2.02 8.66 1 9 C0.67 6.03 0.34 3.06 0 0 Z " fill="#E4EEF7" transform="translate(54,129)"/>
<path d="M0 0 C3.80026809 2.53351206 4.50840015 4.74894043 6 9 C5.67 9.99 5.34 10.98 5 12 C4.15885829 10.56705502 3.32734313 9.12845595 2.5 7.6875 C1.80390625 6.48673828 1.80390625 6.48673828 1.09375 5.26171875 C0 3 0 3 0 0 Z " fill="#7D94D9" transform="translate(6,78)"/>
<path d="M0 0 C2.15377564 2.62198774 3.40072174 4.64404172 4 8 C2.35 7.67 0.7 7.34 -1 7 C-0.67 4.69 -0.34 2.38 0 0 Z " fill="#BC93DA" transform="translate(194,129)"/>
<path d="M0 0 C0.66 0.99 1.32 1.98 2 3 C1.01 3.99 0.02 4.98 -1 6 C-0.34 6.33 0.32 6.66 1 7 C-0.98 7.99 -0.98 7.99 -3 9 C-2.5020163 5.26512223 -2.12508244 3.18762365 0 0 Z " fill="#6778D0" transform="translate(5,45)"/>
<path d="M0 0 C3.0916909 2.52956528 3.90931332 5.22454612 5 9 C3.0625 8.4375 3.0625 8.4375 1 7 C0.25 3.375 0.25 3.375 0 0 Z " fill="#CFA3E5" transform="translate(175,90)"/>
<path d="M0 0 C0.33 0 0.66 0 1 0 C1 2.31 1 4.62 1 7 C1.99 7.33 2.98 7.66 4 8 C2.02 8.99 2.02 8.99 0 10 C-1.2380014 6.42355152 -0.74926071 3.66305234 0 0 Z " fill="#A775CF" transform="translate(94,79)"/>
</svg>
