<svg width="164" height="48" viewBox="0 0 164 48" fill="none" xmlns="http://www.w3.org/2000/svg">
<g filter="url(#filter0_dd_941_1831)">
<rect x="2" y="1" width="160" height="44" rx="6" fill="white"/>
<rect x="2" y="1" width="160" height="44" rx="6" fill="url(#paint0_linear_941_1831)" fill-opacity="0.05"/>
<path d="M27.2963 28V17.8182H33.6799V19.1406H28.8326V22.2429H33.3468V23.5604H28.8326V26.6776H33.7395V28H27.2963ZM36.7859 20.3636L38.4712 23.3366L40.1715 20.3636H41.7972L39.4158 24.1818L41.8171 28H40.1914L38.4712 25.1463L36.756 28H35.1254L37.5018 24.1818L35.1552 20.3636H36.7859ZM43.3235 30.8636V20.3636H44.7752V21.6016H44.8995C44.9857 21.4425 45.11 21.2585 45.2724 21.0497C45.4348 20.8409 45.6602 20.6586 45.9485 20.5028C46.2369 20.3438 46.618 20.2642 47.092 20.2642C47.7085 20.2642 48.2586 20.42 48.7425 20.7315C49.2264 21.0431 49.6059 21.4922 49.881 22.0788C50.1594 22.6655 50.2987 23.3714 50.2987 24.1967C50.2987 25.022 50.1611 25.7296 49.886 26.3196C49.6109 26.9062 49.2331 27.3587 48.7525 27.6768C48.2719 27.9917 47.7234 28.1491 47.1069 28.1491C46.6429 28.1491 46.2634 28.0713 45.9684 27.9155C45.6767 27.7597 45.448 27.5774 45.2823 27.3686C45.1166 27.1598 44.989 26.9742 44.8995 26.8118H44.81V30.8636H43.3235ZM44.7802 24.1818C44.7802 24.7187 44.8581 25.1894 45.0138 25.5938C45.1696 25.9981 45.395 26.3146 45.69 26.5433C45.985 26.7687 46.3462 26.8814 46.7738 26.8814C47.2179 26.8814 47.5891 26.7637 47.8874 26.5284C48.1857 26.2898 48.4111 25.9666 48.5636 25.5589C48.7193 25.1513 48.7972 24.6922 48.7972 24.1818C48.7972 23.678 48.721 23.2256 48.5685 22.8246C48.4194 22.4235 48.194 22.107 47.8924 21.875C47.5941 21.643 47.2212 21.527 46.7738 21.527C46.3429 21.527 45.9783 21.638 45.68 21.8601C45.3851 22.0821 45.1613 22.392 45.0089 22.7898C44.8564 23.1875 44.7802 23.6515 44.7802 24.1818ZM53.4506 17.8182V28H51.9641V17.8182H53.4506ZM58.6671 28.1541C57.9512 28.1541 57.3264 27.9901 56.7928 27.6619C56.2592 27.3338 55.8449 26.8748 55.5499 26.2848C55.2549 25.6948 55.1074 25.0054 55.1074 24.2166C55.1074 23.4245 55.2549 22.7318 55.5499 22.1385C55.8449 21.5452 56.2592 21.0845 56.7928 20.7564C57.3264 20.4283 57.9512 20.2642 58.6671 20.2642C59.383 20.2642 60.0078 20.4283 60.5414 20.7564C61.075 21.0845 61.4893 21.5452 61.7843 22.1385C62.0792 22.7318 62.2267 23.4245 62.2267 24.2166C62.2267 25.0054 62.0792 25.6948 61.7843 26.2848C61.4893 26.8748 61.075 27.3338 60.5414 27.6619C60.0078 27.9901 59.383 28.1541 58.6671 28.1541ZM58.6721 26.9062C59.1361 26.9062 59.5205 26.7836 59.8255 26.5384C60.1304 26.2931 60.3558 25.9666 60.5016 25.5589C60.6507 25.1513 60.7253 24.7022 60.7253 24.2116C60.7253 23.7244 60.6507 23.277 60.5016 22.8693C60.3558 22.4583 60.1304 22.1286 59.8255 21.88C59.5205 21.6314 59.1361 21.5071 58.6721 21.5071C58.2047 21.5071 57.8169 21.6314 57.5087 21.88C57.2038 22.1286 56.9767 22.4583 56.8276 22.8693C56.6818 23.277 56.6088 23.7244 56.6088 24.2116C56.6088 24.7022 56.6818 25.1513 56.8276 25.5589C56.9767 25.9666 57.2038 26.2931 57.5087 26.5384C57.8169 26.7836 58.2047 26.9062 58.6721 26.9062ZM63.886 28V20.3636H65.3228V21.5767H65.4023C65.5415 21.1657 65.7868 20.8426 66.1381 20.6072C66.4928 20.3686 66.8938 20.2493 67.3413 20.2493C67.4341 20.2493 67.5434 20.2526 67.6694 20.2592C67.7987 20.2659 67.8997 20.2741 67.9727 20.2841V21.706C67.913 21.6894 67.8069 21.6712 67.6545 21.6513C67.502 21.6281 67.3496 21.6165 67.1971 21.6165C66.8458 21.6165 66.5326 21.6911 66.2575 21.8402C65.9857 21.986 65.7702 22.1899 65.6112 22.4517C65.4521 22.7102 65.3725 23.0052 65.3725 23.3366V28H63.886ZM72.2768 28.1541C71.5244 28.1541 70.8765 27.9934 70.3329 27.6719C69.7927 27.3471 69.3751 26.8913 69.0801 26.3047C68.7884 25.7147 68.6426 25.0237 68.6426 24.2315C68.6426 23.4493 68.7884 22.7599 69.0801 22.1634C69.3751 21.5668 69.786 21.1011 70.313 20.7663C70.8433 20.4316 71.4631 20.2642 72.1724 20.2642C72.6033 20.2642 73.0209 20.3355 73.4252 20.478C73.8296 20.6205 74.1925 20.8442 74.514 21.1491C74.8355 21.4541 75.0891 21.8501 75.2747 22.3374C75.4603 22.8213 75.5531 23.4096 75.5531 24.1023V24.6293H69.4828V23.5156H74.0964C74.0964 23.1245 74.0169 22.7782 73.8578 22.4766C73.6987 22.1716 73.475 21.9313 73.1866 21.7557C72.9016 21.58 72.5668 21.4922 72.1824 21.4922C71.7647 21.4922 71.4002 21.5949 71.0886 21.8004C70.7804 22.0026 70.5417 22.2678 70.3727 22.5959C70.207 22.9207 70.1241 23.2737 70.1241 23.6548V24.5249C70.1241 25.0353 70.2136 25.4695 70.3926 25.8274C70.5749 26.1854 70.8284 26.4588 71.1532 26.6477C71.478 26.8333 71.8575 26.9261 72.2917 26.9261C72.5734 26.9261 72.8303 26.8864 73.0623 26.8068C73.2943 26.724 73.4949 26.6013 73.6639 26.4389C73.8329 26.2765 73.9622 26.076 74.0517 25.8374L75.4586 26.0909C75.3459 26.5052 75.1438 26.8681 74.8521 27.1797C74.5637 27.4879 74.2008 27.7282 73.7633 27.9006C73.3291 28.0696 72.8336 28.1541 72.2768 28.1541ZM86.5801 20.4929C86.527 20.0223 86.3083 19.6577 85.9238 19.3991C85.5394 19.1373 85.0555 19.0064 84.4721 19.0064C84.0545 19.0064 83.6932 19.0727 83.3883 19.2053C83.0834 19.3345 82.8464 19.5135 82.6774 19.7422C82.5117 19.9676 82.4288 20.2244 82.4288 20.5128C82.4288 20.7547 82.4851 20.9635 82.5978 21.1392C82.7138 21.3149 82.8646 21.4624 83.0502 21.5817C83.2392 21.6977 83.4413 21.7955 83.6568 21.875C83.8722 21.9512 84.0794 22.0142 84.2782 22.0639L85.2725 22.3224C85.5974 22.402 85.9305 22.5097 86.2718 22.6456C86.6132 22.7815 86.9297 22.9605 87.2214 23.1825C87.5131 23.4046 87.7484 23.6797 87.9274 24.0078C88.1097 24.3359 88.2008 24.7287 88.2008 25.1861C88.2008 25.7628 88.0517 26.2749 87.7534 26.7223C87.4584 27.1697 87.0292 27.5227 86.4657 27.7812C85.9056 28.0398 85.2278 28.169 84.4324 28.169C83.67 28.169 83.0105 28.0481 82.4537 27.8061C81.8968 27.5642 81.461 27.2211 81.1461 26.777C80.8313 26.3295 80.6573 25.7992 80.6241 25.1861H82.1653C82.1951 25.554 82.3145 25.8606 82.5233 26.1058C82.7354 26.3478 83.0055 26.5284 83.3336 26.6477C83.6651 26.7637 84.028 26.8217 84.4224 26.8217C84.8566 26.8217 85.2427 26.7538 85.5808 26.6179C85.9222 26.4787 86.1906 26.2865 86.3862 26.0412C86.5817 25.7926 86.6795 25.5026 86.6795 25.1712C86.6795 24.8696 86.5933 24.6226 86.421 24.4304C86.252 24.2382 86.0216 24.0791 85.7299 23.9531C85.4416 23.8272 85.1151 23.7161 84.7505 23.62L83.5474 23.2919C82.7321 23.0698 82.0858 22.7434 81.6085 22.3125C81.1345 21.8816 80.8975 21.3116 80.8975 20.6023C80.8975 20.0156 81.0566 19.5036 81.3748 19.0661C81.693 18.6286 82.1239 18.2888 82.6674 18.0469C83.211 17.8016 83.8242 17.679 84.5069 17.679C85.1963 17.679 85.8045 17.8 86.3315 18.0419C86.8618 18.2839 87.2794 18.617 87.5843 19.0412C87.8893 19.4621 88.0484 19.946 88.0616 20.4929H86.5801ZM93.2085 28.1541C92.4561 28.1541 91.8081 27.9934 91.2646 27.6719C90.7243 27.3471 90.3067 26.8913 90.0117 26.3047C89.7201 25.7147 89.5742 25.0237 89.5742 24.2315C89.5742 23.4493 89.7201 22.7599 90.0117 22.1634C90.3067 21.5668 90.7177 21.1011 91.2447 20.7663C91.775 20.4316 92.3948 20.2642 93.104 20.2642C93.5349 20.2642 93.9525 20.3355 94.3569 20.478C94.7612 20.6205 95.1242 20.8442 95.4457 21.1491C95.7672 21.4541 96.0207 21.8501 96.2063 22.3374C96.3919 22.8213 96.4847 23.4096 96.4847 24.1023V24.6293H90.4144V23.5156H95.0281C95.0281 23.1245 94.9485 22.7782 94.7894 22.4766C94.6303 22.1716 94.4066 21.9313 94.1183 21.7557C93.8332 21.58 93.4985 21.4922 93.114 21.4922C92.6964 21.4922 92.3318 21.5949 92.0202 21.8004C91.712 22.0026 91.4734 22.2678 91.3043 22.5959C91.1386 22.9207 91.0558 23.2737 91.0558 23.6548V24.5249C91.0558 25.0353 91.1452 25.4695 91.3242 25.8274C91.5065 26.1854 91.7601 26.4588 92.0849 26.6477C92.4097 26.8333 92.7892 26.9261 93.2234 26.9261C93.5051 26.9261 93.762 26.8864 93.994 26.8068C94.226 26.724 94.4265 26.6013 94.5955 26.4389C94.7646 26.2765 94.8938 26.076 94.9833 25.8374L96.3903 26.0909C96.2776 26.5052 96.0754 26.8681 95.7837 27.1797C95.4954 27.4879 95.1325 27.7282 94.695 27.9006C94.2608 28.0696 93.7653 28.1541 93.2085 28.1541ZM98.1341 28V20.3636H99.5708V21.5767H99.6504C99.7896 21.1657 100.035 20.8426 100.386 20.6072C100.741 20.3686 101.142 20.2493 101.589 20.2493C101.682 20.2493 101.791 20.2526 101.917 20.2592C102.047 20.2659 102.148 20.2741 102.221 20.2841V21.706C102.161 21.6894 102.055 21.6712 101.903 21.6513C101.75 21.6281 101.598 21.6165 101.445 21.6165C101.094 21.6165 100.781 21.6911 100.506 21.8402C100.234 21.986 100.018 22.1899 99.8592 22.4517C99.7001 22.7102 99.6206 23.0052 99.6206 23.3366V28H98.1341ZM110.272 20.3636L107.503 28H105.912L103.138 20.3636H104.734L106.668 26.2401H106.747L108.676 20.3636H110.272ZM111.669 28V20.3636H113.156V28H111.669ZM112.42 19.1854C112.161 19.1854 111.939 19.0992 111.754 18.9268C111.571 18.7512 111.48 18.5424 111.48 18.3004C111.48 18.0552 111.571 17.8464 111.754 17.674C111.939 17.4983 112.161 17.4105 112.42 17.4105C112.678 17.4105 112.899 17.4983 113.081 17.674C113.267 17.8464 113.36 18.0552 113.36 18.3004C113.36 18.5424 113.267 18.7512 113.081 18.9268C112.899 19.0992 112.678 19.1854 112.42 19.1854ZM118.372 28.1541C117.633 28.1541 116.997 27.9867 116.463 27.652C115.933 27.3139 115.525 26.8482 115.24 26.255C114.955 25.6617 114.812 24.9822 114.812 24.2166C114.812 23.4411 114.958 22.7566 115.25 22.1634C115.542 21.5668 115.953 21.1011 116.483 20.7663C117.013 20.4316 117.638 20.2642 118.357 20.2642C118.937 20.2642 119.454 20.3719 119.908 20.5874C120.362 20.7995 120.729 21.0978 121.007 21.4822C121.289 21.8667 121.456 22.3158 121.509 22.8295H120.062C119.983 22.4716 119.801 22.1634 119.516 21.9048C119.234 21.6463 118.856 21.517 118.382 21.517C117.968 21.517 117.605 21.6264 117.293 21.8452C116.985 22.0606 116.745 22.3688 116.572 22.7699C116.4 23.1676 116.314 23.6383 116.314 24.1818C116.314 24.7386 116.398 25.2192 116.567 25.6236C116.737 26.0279 116.975 26.3411 117.283 26.5632C117.595 26.7853 117.961 26.8963 118.382 26.8963C118.664 26.8963 118.919 26.8449 119.148 26.7422C119.38 26.6361 119.574 26.4853 119.729 26.2898C119.888 26.0942 120 25.8589 120.062 25.5838H121.509C121.456 26.0777 121.295 26.5185 121.027 26.9062C120.759 27.294 120.399 27.599 119.948 27.821C119.501 28.0431 118.975 28.1541 118.372 28.1541ZM126.39 28.1541C125.638 28.1541 124.99 27.9934 124.446 27.6719C123.906 27.3471 123.488 26.8913 123.193 26.3047C122.902 25.7147 122.756 25.0237 122.756 24.2315C122.756 23.4493 122.902 22.7599 123.193 22.1634C123.488 21.5668 123.899 21.1011 124.426 20.7663C124.957 20.4316 125.576 20.2642 126.286 20.2642C126.717 20.2642 127.134 20.3355 127.539 20.478C127.943 20.6205 128.306 20.8442 128.627 21.1491C128.949 21.4541 129.202 21.8501 129.388 22.3374C129.574 22.8213 129.666 23.4096 129.666 24.1023V24.6293H123.596V23.5156H128.21C128.21 23.1245 128.13 22.7782 127.971 22.4766C127.812 22.1716 127.588 21.9313 127.3 21.7557C127.015 21.58 126.68 21.4922 126.296 21.4922C125.878 21.4922 125.513 21.5949 125.202 21.8004C124.894 22.0026 124.655 22.2678 124.486 22.5959C124.32 22.9207 124.237 23.2737 124.237 23.6548V24.5249C124.237 25.0353 124.327 25.4695 124.506 25.8274C124.688 26.1854 124.942 26.4588 125.267 26.6477C125.591 26.8333 125.971 26.9261 126.405 26.9261C126.687 26.9261 126.944 26.8864 127.176 26.8068C127.408 26.724 127.608 26.6013 127.777 26.4389C127.946 26.2765 128.075 26.076 128.165 25.8374L129.572 26.0909C129.459 26.5052 129.257 26.8681 128.965 27.1797C128.677 27.4879 128.314 27.7282 127.877 27.9006C127.442 28.0696 126.947 28.1541 126.39 28.1541ZM137.038 22.228L135.691 22.4666C135.634 22.2943 135.545 22.1302 135.422 21.9744C135.303 21.8187 135.141 21.6911 134.935 21.5916C134.73 21.4922 134.473 21.4425 134.164 21.4425C133.743 21.4425 133.392 21.5369 133.11 21.7259C132.829 21.9115 132.688 22.1518 132.688 22.4467C132.688 22.7019 132.782 22.9074 132.971 23.0632C133.16 23.219 133.465 23.3466 133.886 23.446L135.099 23.7244C135.802 23.8868 136.325 24.1371 136.67 24.4751C137.015 24.8132 137.187 25.2524 137.187 25.7926C137.187 26.25 137.055 26.6577 136.789 27.0156C136.528 27.3703 136.161 27.6487 135.691 27.8509C135.223 28.053 134.681 28.1541 134.065 28.1541C133.21 28.1541 132.512 27.9718 131.972 27.6072C131.432 27.2393 131.1 26.7173 130.978 26.0412L132.414 25.8224C132.504 26.197 132.688 26.4804 132.966 26.6726C133.245 26.8615 133.608 26.956 134.055 26.956C134.542 26.956 134.932 26.8549 135.223 26.6527C135.515 26.4472 135.661 26.197 135.661 25.902C135.661 25.6634 135.571 25.4628 135.392 25.3004C135.217 25.138 134.947 25.0154 134.582 24.9325L133.289 24.6491C132.577 24.4867 132.05 24.2282 131.708 23.8736C131.37 23.5189 131.201 23.0698 131.201 22.5263C131.201 22.0755 131.327 21.6811 131.579 21.343C131.831 21.005 132.179 20.7415 132.623 20.5526C133.067 20.3603 133.576 20.2642 134.15 20.2642C134.975 20.2642 135.624 20.4432 136.098 20.8011C136.572 21.1558 136.886 21.6314 137.038 22.228Z" fill="#36394A"/>
</g>
<defs>
<filter id="filter0_dd_941_1831" x="0" y="0" width="164" height="48" filterUnits="userSpaceOnUse" color-interpolation-filters="sRGB">
<feFlood flood-opacity="0" result="BackgroundImageFix"/>
<feColorMatrix in="SourceAlpha" type="matrix" values="0 0 0 0 0 0 0 0 0 0 0 0 0 0 0 0 0 0 127 0" result="hardAlpha"/>
<feMorphology radius="1" operator="dilate" in="SourceAlpha" result="effect1_dropShadow_941_1831"/>
<feOffset/>
<feComposite in2="hardAlpha" operator="out"/>
<feColorMatrix type="matrix" values="0 0 0 0 0.0696 0 0 0 0 0.215657 0 0 0 0 0.4104 0 0 0 0.08 0"/>
<feBlend mode="normal" in2="BackgroundImageFix" result="effect1_dropShadow_941_1831"/>
<feColorMatrix in="SourceAlpha" type="matrix" values="0 0 0 0 0 0 0 0 0 0 0 0 0 0 0 0 0 0 127 0" result="hardAlpha"/>
<feOffset dy="1"/>
<feGaussianBlur stdDeviation="1"/>
<feComposite in2="hardAlpha" operator="out"/>
<feColorMatrix type="matrix" values="0 0 0 0 0.166412 0 0 0 0 0.230005 0 0 0 0 0.315941 0 0 0 0.12 0"/>
<feBlend mode="normal" in2="effect1_dropShadow_941_1831" result="effect2_dropShadow_941_1831"/>
<feBlend mode="normal" in="SourceGraphic" in2="effect2_dropShadow_941_1831" result="shape"/>
</filter>
<linearGradient id="paint0_linear_941_1831" x1="82" y1="1" x2="82" y2="45" gradientUnits="userSpaceOnUse">
<stop stop-color="#DFE1E7" stop-opacity="0"/>
<stop offset="1" stop-color="#DFE1E7"/>
</linearGradient>
</defs>
</svg>
