<svg width="32" height="32" viewBox="0 0 32 32" fill="none" xmlns="http://www.w3.org/2000/svg">
<path fill-rule="evenodd" clip-rule="evenodd" d="M1.33594 13.3346C1.33594 11.5665 2.03832 9.87083 3.28856 8.62059C4.5388 7.37035 6.23449 6.66797 8.0026 6.66797H16.0026C17.7707 6.66797 19.4664 7.37035 20.7167 8.62059C21.9669 9.87083 22.6693 11.5665 22.6693 13.3346C22.6693 15.1027 21.9669 16.7984 20.7167 18.0487C19.4664 19.2989 17.7707 20.0013 16.0026 20.0013C15.649 20.0013 15.3098 19.8608 15.0598 19.6108C14.8097 19.3607 14.6693 19.0216 14.6693 18.668C14.6693 18.3143 14.8097 17.9752 15.0598 17.7252C15.3098 17.4751 15.649 17.3346 16.0026 17.3346C17.0635 17.3346 18.0809 16.9132 18.831 16.1631C19.5812 15.4129 20.0026 14.3955 20.0026 13.3346C20.0026 12.2738 19.5812 11.2564 18.831 10.5062C18.0809 9.75606 17.0635 9.33464 16.0026 9.33464H8.0026C7.02788 9.33304 6.08612 9.6874 5.35423 10.3312C4.62234 10.9749 4.1507 11.8638 4.02791 12.8307C3.90512 13.7977 4.13962 14.7762 4.68737 15.5825C5.23512 16.3887 6.05842 16.9672 7.0026 17.2093C7.33813 17.3038 7.62331 17.526 7.79704 17.8282C7.97077 18.1304 8.01925 18.4886 7.93208 18.8261C7.84491 19.1636 7.62904 19.4536 7.33069 19.6339C7.03235 19.8141 6.67527 19.8704 6.33594 19.7906C4.90495 19.4207 3.6374 18.5859 2.73239 17.4173C1.82737 16.2488 1.33617 14.8127 1.33594 13.3346ZM16.0026 14.668C15.4773 14.668 14.9572 14.7714 14.4719 14.9724C13.9866 15.1735 13.5456 15.4681 13.1742 15.8395C12.8027 16.211 12.5081 16.6519 12.3071 17.1372C12.1061 17.6225 12.0026 18.1427 12.0026 18.668C12.0026 19.1933 12.1061 19.7134 12.3071 20.1987C12.5081 20.684 12.8027 21.125 13.1742 21.4964C13.5456 21.8678 13.9866 22.1625 14.4719 22.3635C14.9572 22.5645 15.4773 22.668 16.0026 22.668H24.0026C24.9764 22.6683 25.9169 22.3134 26.6477 21.6697C27.3785 21.0261 27.8494 20.138 27.9721 19.172C28.0948 18.2059 27.8609 17.2283 27.3142 16.4224C26.7675 15.6165 25.9456 15.0378 25.0026 14.7946C24.6601 14.7062 24.3668 14.4854 24.1871 14.1807C24.0075 13.876 23.9562 13.5125 24.0446 13.17C24.133 12.8275 24.3538 12.5341 24.6585 12.3545C24.9632 12.1748 25.3268 12.1236 25.6693 12.212C27.2372 12.621 28.6025 13.5869 29.5103 14.9291C30.4181 16.2713 30.8061 17.8982 30.6019 19.5056C30.3978 21.1131 29.6154 22.5913 28.4009 23.664C27.1864 24.7367 25.623 25.3305 24.0026 25.3346H16.0026C14.2345 25.3346 12.5388 24.6323 11.2886 23.382C10.0383 22.1318 9.33594 20.4361 9.33594 18.668C9.33594 16.8999 10.0383 15.2042 11.2886 13.9539C12.5388 12.7037 14.2345 12.0013 16.0026 12.0013C16.3562 12.0013 16.6954 12.1418 16.9454 12.3918C17.1955 12.6419 17.3359 12.981 17.3359 13.3346C17.3359 13.6883 17.1955 14.0274 16.9454 14.2774C16.6954 14.5275 16.3562 14.668 16.0026 14.668Z" fill="#007DFE"/>
</svg>
