<svg width="32" height="32" viewBox="0 0 32 32" fill="none" xmlns="http://www.w3.org/2000/svg">
<path d="M18.6641 4C19.3713 4 20.0496 4.28095 20.5497 4.78105C21.0498 5.28115 21.3307 5.95942 21.3307 6.66667V10.6667H26.6641C27.3713 10.6667 28.0496 10.9476 28.5497 11.4477C29.0498 11.9478 29.3307 12.6261 29.3307 13.3333V25.3333C29.3307 26.0406 29.0498 26.7189 28.5497 27.219C28.0496 27.719 27.3713 28 26.6641 28H5.33073C4.62349 28 3.94521 27.719 3.44511 27.219C2.94501 26.7189 2.66406 26.0406 2.66406 25.3333V17.3333C2.66406 16.6261 2.94501 15.9478 3.44511 15.4477C3.94521 14.9476 4.62349 14.6667 5.33073 14.6667H10.6641V6.66667C10.6641 5.95942 10.945 5.28115 11.4451 4.78105C11.9452 4.28095 12.6235 4 13.3307 4H18.6641ZM18.6641 6.66667H13.3307V25.3333H18.6641V6.66667ZM26.6641 13.3333H21.3307V25.3333H26.6641V13.3333ZM10.6641 17.3333H5.33073V25.3333H10.6641V17.3333Z" fill="#007DFE"/>
</svg>
