<svg width="56" height="56" viewBox="0 0 56 56" fill="none" xmlns="http://www.w3.org/2000/svg">
<path d="M0 8C0 3.58172 3.58172 0 8 0H48C52.4183 0 56 3.58172 56 8V48C56 52.4183 52.4183 56 48 56H8C3.58172 56 0 52.4183 0 48V8Z" fill="#1F2228"/>
<g clip-path="url(#clip0_1108_1758)">
<path fill-rule="evenodd" clip-rule="evenodd" d="M37.3333 17.332C38.0061 17.3318 38.6541 17.5859 39.1474 18.0434C39.6407 18.5008 39.9429 19.1278 39.9933 19.7987L40 19.9987V37.332C40.0002 38.0048 39.7461 38.6528 39.2887 39.1461C38.8312 39.6394 38.2042 39.9416 37.5333 39.992L37.3333 39.9987H18.6667C17.9939 39.9989 17.3459 39.7448 16.8526 39.2874C16.3593 38.8299 16.0571 38.2029 16.0067 37.532L16 37.332V19.9987C15.9998 19.3259 16.2539 18.6779 16.7113 18.1846C17.1688 17.6913 17.7958 17.3892 18.4667 17.3387L18.6667 17.332H37.3333ZM22.6667 33.332H18.6667V37.332H22.6667V33.332ZM37.3333 33.332H25.3333V37.332H37.3333V33.332ZM22.6667 26.6654H18.6667V30.6654H22.6667V26.6654ZM37.3333 26.6654H25.3333V30.6654H37.3333V26.6654ZM22.6667 19.9987H18.6667V23.9987H22.6667V19.9987ZM37.3333 19.9987H25.3333V23.9987H37.3333V19.9987Z" fill="#007DFE"/>
</g>
<defs>
<clipPath id="clip0_1108_1758">
<rect width="32" height="32" fill="white" transform="translate(12 12)"/>
</clipPath>
</defs>
</svg>
