<svg width="32" height="32" viewBox="0 0 32 32" fill="none" xmlns="http://www.w3.org/2000/svg">
<path fill-rule="evenodd" clip-rule="evenodd" d="M25.3333 5.33203C26.0061 5.33182 26.6541 5.58591 27.1474 6.04336C27.6407 6.50081 27.9429 7.12782 27.9933 7.7987L28 7.9987V25.332C28.0002 26.0048 27.7461 26.6528 27.2887 27.1461C26.8312 27.6394 26.2042 27.9416 25.5333 27.992L25.3333 27.9987H6.66667C5.9939 27.9989 5.34591 27.7448 4.8526 27.2874C4.35929 26.8299 4.05712 26.2029 4.00667 25.532L4 25.332V7.9987C3.99979 7.32593 4.25388 6.67794 4.71133 6.18463C5.16878 5.69133 5.79579 5.38916 6.46667 5.3387L6.66667 5.33203H25.3333ZM10.6667 21.332H6.66667V25.332H10.6667V21.332ZM25.3333 21.332H13.3333V25.332H25.3333V21.332ZM10.6667 14.6654H6.66667V18.6654H10.6667V14.6654ZM25.3333 14.6654H13.3333V18.6654H25.3333V14.6654ZM10.6667 7.9987H6.66667V11.9987H10.6667V7.9987ZM25.3333 7.9987H13.3333V11.9987H25.3333V7.9987Z" fill="#007DFE"/>
</svg>
