<svg width="32" height="32" viewBox="0 0 32 32" fill="none" xmlns="http://www.w3.org/2000/svg">
<path d="M26.6667 5.33203C27.3394 5.33182 27.9874 5.58591 28.4807 6.04336C28.974 6.50081 29.2762 7.12782 29.3267 7.7987L29.3333 7.9987V23.9987C29.3335 24.6715 29.0795 25.3195 28.622 25.8128C28.1646 26.3061 27.5375 26.6082 26.8667 26.6587L26.6667 26.6654H5.33333C4.66056 26.6656 4.01258 26.4115 3.51927 25.954C3.02596 25.4966 2.72379 24.8696 2.67333 24.1987L2.66667 23.9987V22.6654H5.33333V23.9987H26.6667V9.88403L17.4133 19.1374C17.0633 19.4873 16.596 19.695 16.1017 19.7204C15.6074 19.7458 15.1213 19.587 14.7373 19.2747L14.5853 19.1374L5.33333 9.88403V10.6654H2.66667V7.9987C2.66645 7.32593 2.92054 6.67794 3.378 6.18463C3.83545 5.69133 4.46246 5.38916 5.13333 5.3387L5.33333 5.33203H26.6667ZM8 17.332C8.35362 17.332 8.69276 17.4725 8.94281 17.7226C9.19286 17.9726 9.33333 18.3117 9.33333 18.6654C9.33333 19.019 9.19286 19.3581 8.94281 19.6082C8.69276 19.8582 8.35362 19.9987 8 19.9987H1.33333C0.979711 19.9987 0.640573 19.8582 0.390524 19.6082C0.140476 19.3581 0 19.019 0 18.6654C0 18.3117 0.140476 17.9726 0.390524 17.7226C0.640573 17.4725 0.979711 17.332 1.33333 17.332H8ZM24.7813 7.9987H7.21867L16 16.78L24.7813 7.9987ZM6.66667 13.332C7.00651 13.3324 7.33338 13.4625 7.58049 13.6958C7.82761 13.9291 7.97631 14.248 7.99623 14.5872C8.01615 14.9265 7.90577 15.2605 7.68765 15.5211C7.46953 15.7817 7.16013 15.9492 6.82267 15.9894L6.66667 15.9987H2.66667C2.32683 15.9983 1.99996 15.8682 1.75284 15.6349C1.50573 15.4016 1.35702 15.0828 1.3371 14.7435C1.31719 14.4042 1.42757 14.0702 1.64569 13.8096C1.86381 13.549 2.17321 13.3815 2.51067 13.3414L2.66667 13.332H6.66667Z" fill="#007DFE"/>
</svg>
