<svg width="32" height="32" viewBox="0 0 32 32" fill="none" xmlns="http://www.w3.org/2000/svg">
<g clip-path="url(#clip0_1216_1897)">
<path fill-rule="evenodd" clip-rule="evenodd" d="M13.6529 18.6654C14.3961 17.5532 14.7462 16.2246 14.6478 14.8906C14.5494 13.5566 14.0081 12.2938 13.1098 11.3027C12.2115 10.3116 11.0078 9.64909 9.68994 9.42039C8.37204 9.19169 7.01551 9.40993 5.83584 10.0404C4.65617 10.6709 3.72101 11.6775 3.17891 12.9004C2.63681 14.1232 2.51886 15.4921 2.8438 16.7896C3.16874 18.0871 3.91794 19.2389 4.97237 20.0619C6.02681 20.8849 7.32601 21.3319 8.66361 21.332H23.3303C24.6679 21.3319 25.9671 20.8849 27.0215 20.0619C28.0759 19.2389 28.8251 18.0871 29.1501 16.7896C29.475 15.4921 29.3571 14.1232 28.815 12.9004C28.2729 11.6775 27.3377 10.6709 26.158 10.0404C24.9784 9.40993 23.6218 9.19169 22.3039 9.42039C20.986 9.64909 19.7824 10.3116 18.8841 11.3027C17.9858 12.2938 17.4445 13.5566 17.3461 14.8906C17.2477 16.2246 17.5978 17.5532 18.3409 18.6654H13.6529ZM8.66361 11.9987C7.77955 11.9987 6.93171 12.3499 6.30659 12.975C5.68147 13.6001 5.33028 14.448 5.33028 15.332C5.33028 16.2161 5.68147 17.0639 6.30659 17.6891C6.93171 18.3142 7.77955 18.6654 8.66361 18.6654C9.54766 18.6654 10.3955 18.3142 11.0206 17.6891C11.6458 17.0639 11.9969 16.2161 11.9969 15.332C11.9969 14.448 11.6458 13.6001 11.0206 12.975C10.3955 12.3499 9.54766 11.9987 8.66361 11.9987ZM23.3303 18.6654C24.2143 18.6654 25.0622 18.3142 25.6873 17.6891C26.3124 17.0639 26.6636 16.2161 26.6636 15.332C26.6636 14.448 26.3124 13.6001 25.6873 12.975C25.0622 12.3499 24.2143 11.9987 23.3303 11.9987C22.4462 11.9987 21.5984 12.3499 20.9733 12.975C20.3481 13.6001 19.9969 14.448 19.9969 15.332C19.9969 16.2161 20.3481 17.0639 20.9733 17.6891C21.5984 18.3142 22.4462 18.6654 23.3303 18.6654Z" fill="#007DFE"/>
</g>
<defs>
<clipPath id="clip0_1216_1897">
<rect width="32" height="32" fill="white"/>
</clipPath>
</defs>
</svg>
