<svg width="56" height="56" viewBox="0 0 56 56" fill="none" xmlns="http://www.w3.org/2000/svg">
<path d="M0 8C0 3.58172 3.58172 0 8 0H48C52.4183 0 56 3.58172 56 8V48C56 52.4183 52.4183 56 48 56H8C3.58172 56 0 52.4183 0 48V8Z" fill="#1F2228"/>
<g clip-path="url(#clip0_1108_1750)">
<path fill-rule="evenodd" clip-rule="evenodd" d="M25.6529 30.6654C26.3961 29.5532 26.7462 28.2246 26.6478 26.8906C26.5494 25.5566 26.0081 24.2938 25.1098 23.3027C24.2115 22.3116 23.0078 21.6491 21.6899 21.4204C20.372 21.1917 19.0155 21.4099 17.8358 22.0404C16.6562 22.6709 15.721 23.6775 15.1789 24.9004C14.6368 26.1232 14.5189 27.4921 14.8438 28.7896C15.1687 30.0871 15.9179 31.2389 16.9724 32.0619C18.0268 32.8849 19.326 33.3319 20.6636 33.332H35.3303C36.6679 33.3319 37.9671 32.8849 39.0215 32.0619C40.0759 31.2389 40.8251 30.0871 41.1501 28.7896C41.475 27.4921 41.3571 26.1232 40.815 24.9004C40.2729 23.6775 39.3377 22.6709 38.158 22.0404C36.9784 21.4099 35.6218 21.1917 34.3039 21.4204C32.986 21.6491 31.7824 22.3116 30.8841 23.3027C29.9858 24.2938 29.4445 25.5566 29.3461 26.8906C29.2477 28.2246 29.5978 29.5532 30.3409 30.6654H25.6529ZM20.6636 23.9987C19.7796 23.9987 18.9317 24.3499 18.3066 24.975C17.6815 25.6001 17.3303 26.448 17.3303 27.332C17.3303 28.2161 17.6815 29.0639 18.3066 29.6891C18.9317 30.3142 19.7796 30.6654 20.6636 30.6654C21.5477 30.6654 22.3955 30.3142 23.0206 29.6891C23.6458 29.0639 23.9969 28.2161 23.9969 27.332C23.9969 26.448 23.6458 25.6001 23.0206 24.975C22.3955 24.3499 21.5477 23.9987 20.6636 23.9987ZM35.3303 30.6654C36.2143 30.6654 37.0622 30.3142 37.6873 29.6891C38.3124 29.0639 38.6636 28.2161 38.6636 27.332C38.6636 26.448 38.3124 25.6001 37.6873 24.975C37.0622 24.3499 36.2143 23.9987 35.3303 23.9987C34.4462 23.9987 33.5984 24.3499 32.9733 24.975C32.3481 25.6001 31.9969 26.448 31.9969 27.332C31.9969 28.2161 32.3481 29.0639 32.9733 29.6891C33.5984 30.3142 34.4462 30.6654 35.3303 30.6654Z" fill="#007DFE"/>
</g>
<defs>
<clipPath id="clip0_1108_1750">
<rect width="32" height="32" fill="white" transform="translate(12 12)"/>
</clipPath>
</defs>
</svg>
