<svg width="32" height="32" viewBox="0 0 32 32" fill="none" xmlns="http://www.w3.org/2000/svg">
<g clip-path="url(#clip0_940_1717)">
<path fill-rule="evenodd" clip-rule="evenodd" d="M24 21.3346C25.0609 21.3346 26.0783 21.7561 26.8284 22.5062C27.5786 23.2564 28 24.2738 28 25.3346C28 26.3955 27.5786 27.4129 26.8284 28.1631C26.0783 28.9132 25.0609 29.3346 24 29.3346C22.9391 29.3346 21.9217 28.9132 21.1716 28.1631C20.4214 27.4129 20 26.3955 20 25.3346C20 24.2738 20.4214 23.2564 21.1716 22.5062C21.9217 21.7561 22.9391 21.3346 24 21.3346ZM20.6667 5.33464C22.258 5.33464 23.7841 5.96678 24.9093 7.09199C26.0345 8.21721 26.6667 9.74334 26.6667 11.3346C26.6667 12.9259 26.0345 14.4521 24.9093 15.5773C23.7841 16.7025 22.258 17.3346 20.6667 17.3346H11.3333C10.4493 17.3346 9.60143 17.6858 8.97631 18.3109C8.35119 18.9361 8 19.7839 8 20.668C8 21.552 8.35119 22.3999 8.97631 23.025C9.60143 23.6501 10.4493 24.0013 11.3333 24.0013H17.3333C17.687 24.0013 18.0261 24.1418 18.2761 24.3918C18.5262 24.6419 18.6667 24.981 18.6667 25.3346C18.6667 25.6883 18.5262 26.0274 18.2761 26.2774C18.0261 26.5275 17.687 26.668 17.3333 26.668H11.3333C9.74203 26.668 8.21591 26.0358 7.09069 24.9106C5.96547 23.7854 5.33333 22.2593 5.33333 20.668C5.33333 19.0767 5.96547 17.5505 7.09069 16.4253C8.21591 15.3001 9.74203 14.668 11.3333 14.668H20.6667C21.5507 14.668 22.3986 14.3168 23.0237 13.6917C23.6488 13.0665 24 12.2187 24 11.3346C24 10.4506 23.6488 9.60273 23.0237 8.97761C22.3986 8.35249 21.5507 8.0013 20.6667 8.0013H14.6667C14.313 8.0013 13.9739 7.86083 13.7239 7.61078C13.4738 7.36073 13.3333 7.02159 13.3333 6.66797C13.3333 6.31435 13.4738 5.97521 13.7239 5.72516C13.9739 5.47511 14.313 5.33464 14.6667 5.33464H20.6667ZM24 24.0013C23.6464 24.0013 23.3072 24.1418 23.0572 24.3918C22.8071 24.6419 22.6667 24.981 22.6667 25.3346C22.6667 25.6883 22.8071 26.0274 23.0572 26.2774C23.3072 26.5275 23.6464 26.668 24 26.668C24.3536 26.668 24.6928 26.5275 24.9428 26.2774C25.1929 26.0274 25.3333 25.6883 25.3333 25.3346C25.3333 24.981 25.1929 24.6419 24.9428 24.3918C24.6928 24.1418 24.3536 24.0013 24 24.0013ZM8 2.66797C9.06087 2.66797 10.0783 3.0894 10.8284 3.83954C11.5786 4.58969 12 5.6071 12 6.66797C12 7.72883 11.5786 8.74625 10.8284 9.4964C10.0783 10.2465 9.06087 10.668 8 10.668C6.93913 10.668 5.92172 10.2465 5.17157 9.4964C4.42143 8.74625 4 7.72883 4 6.66797C4 5.6071 4.42143 4.58969 5.17157 3.83954C5.92172 3.0894 6.93913 2.66797 8 2.66797ZM8 5.33464C7.64638 5.33464 7.30724 5.47511 7.05719 5.72516C6.80714 5.97521 6.66667 6.31435 6.66667 6.66797C6.66667 7.02159 6.80714 7.36073 7.05719 7.61078C7.30724 7.86083 7.64638 8.0013 8 8.0013C8.35362 8.0013 8.69276 7.86083 8.94281 7.61078C9.19286 7.36073 9.33333 7.02159 9.33333 6.66797C9.33333 6.31435 9.19286 5.97521 8.94281 5.72516C8.69276 5.47511 8.35362 5.33464 8 5.33464Z" fill="#007DFE"/>
</g>
<defs>
<clipPath id="clip0_940_1717">
<rect width="32" height="32" fill="white"/>
</clipPath>
</defs>
</svg>
