<svg width="56" height="56" viewBox="0 0 56 56" fill="none" xmlns="http://www.w3.org/2000/svg">
<path d="M0 8C0 3.58172 3.58172 0 8 0H48C52.4183 0 56 3.58172 56 8V48C56 52.4183 52.4183 56 48 56H8C3.58172 56 0 52.4183 0 48V8Z" fill="#1F2228"/>
<g clip-path="url(#clip0_1108_1774)">
<path d="M21.1401 15.2593C22.8241 16.4873 24.0988 18.2126 25.1841 19.798L26.0348 21.0486C26.299 21.4347 26.4198 21.901 26.3765 22.3668C26.3331 22.8326 26.1283 23.2686 25.7975 23.5993L23.9895 25.4073L24.1801 25.8126C24.6468 26.758 25.4521 28.1193 26.6641 29.3326C27.501 30.1569 28.4445 30.8654 29.4695 31.4393L29.9588 31.702L30.3948 31.918L30.5895 32.0073L32.3961 30.1993C32.7281 29.8677 33.1661 29.6633 33.6334 29.6216C34.1008 29.5799 34.568 29.7037 34.9535 29.9713L36.3055 30.9086C37.8415 31.9886 39.4455 33.2193 40.6921 34.8166C40.9076 35.0938 41.0447 35.4239 41.089 35.7722C41.1334 36.1205 41.0833 36.4743 40.9441 36.7966C39.8281 39.4006 37.0041 41.618 34.0668 41.5086L33.6668 41.4873L33.3561 41.4606L33.0121 41.4206L32.6375 41.37L32.2308 41.302L31.7961 41.2166L31.3348 41.114L30.8468 40.9886L30.3335 40.842L29.7975 40.6686C27.3361 39.834 24.2121 38.194 21.0068 34.9886C17.8028 31.7846 16.1628 28.6606 15.3281 26.1993L15.1548 25.6633L15.0081 25.15L14.8828 24.662L14.7788 24.2006C14.7488 24.0562 14.7207 23.9113 14.6948 23.766L14.6281 23.3593L14.5748 22.9846L14.5361 22.6406L14.5095 22.33L14.4881 21.93C14.3801 19.002 16.6215 16.158 19.2135 15.0473C19.5254 14.9126 19.8671 14.8613 20.2048 14.8985C20.5426 14.9356 20.8649 15.06 21.1401 15.2593ZM19.9041 17.67C18.4748 18.4166 17.0908 20.1233 17.1535 21.8313L17.1801 22.2686L17.2095 22.542L17.2481 22.8486L17.3015 23.186L17.3695 23.5553L17.4561 23.9526L17.5628 24.3793L17.6908 24.8313L17.8428 25.3086C17.8988 25.4713 17.9575 25.638 18.0215 25.8086L18.2268 26.3313L18.4615 26.874C19.2988 28.7166 20.6641 30.874 22.8948 33.1033C25.1241 35.3326 27.2815 36.6993 29.1241 37.5366L29.6668 37.7713L30.1895 37.9766C30.3601 38.0406 30.5268 38.0993 30.6895 38.1553L31.1668 38.3073L31.6201 38.4353L32.0455 38.542L32.4428 38.6286L32.8121 38.6966L33.1508 38.75L33.4575 38.79L33.7295 38.8166L34.1668 38.8433C35.8521 38.906 37.5721 37.53 38.3161 36.1193C37.3668 35.006 36.1881 34.0926 34.8881 33.1726L33.8908 32.478L33.6375 32.7433L33.0961 33.334L32.8095 33.6353C32.0281 34.4313 31.1161 35.1073 30.0228 34.666L29.7215 34.5393L29.3535 34.374L29.1481 34.2766L28.6975 34.0513L28.2028 33.7846C26.951 33.088 25.7995 32.2245 24.7801 31.218C23.7736 30.1985 22.9101 29.0471 22.2135 27.7953L21.9468 27.302L21.7201 26.85L21.4588 26.2766L21.3308 25.9726C20.9161 24.9473 21.4868 24.082 22.2161 23.3326L22.5148 23.0393L23.2575 22.3553L23.5241 22.102L22.8935 21.178C21.9561 19.818 21.0401 18.5913 19.9028 17.6686L19.9041 17.67ZM31.9881 20.0526L32.1428 20.07C33.1133 20.2412 34.0048 20.7152 34.6893 21.4242C35.3739 22.1332 35.8164 23.0407 35.9535 24.0166C36.0023 24.3542 35.92 24.6977 35.7233 24.9764C35.5267 25.2551 35.2307 25.4478 34.8963 25.5149C34.5618 25.5821 34.2144 25.5185 33.9254 25.3372C33.6365 25.156 33.428 24.8709 33.3428 24.5406L33.3121 24.3873C33.2585 24.0048 33.0952 23.646 32.842 23.3542C32.5889 23.0625 32.2566 22.8503 31.8855 22.7433L31.6788 22.6966C31.344 22.6373 31.0445 22.4523 30.8416 22.1795C30.6387 21.9066 30.5477 21.5666 30.5872 21.2288C30.6267 20.8911 30.7937 20.5813 31.0541 20.3626C31.3146 20.144 31.6487 20.0331 31.9881 20.0526ZM31.9975 15.9993C34.1192 15.9993 36.154 16.8422 37.6543 18.3425C39.1546 19.8427 39.9975 21.8776 39.9975 23.9993C39.9971 24.3391 39.867 24.666 39.6337 24.9131C39.4004 25.1602 39.0815 25.309 38.7423 25.3289C38.403 25.3488 38.069 25.2384 37.8083 25.0203C37.5477 24.8022 37.3803 24.4928 37.3401 24.1553L37.3308 23.9993C37.3313 22.6452 36.8164 21.3417 35.8908 20.3533C34.9651 19.365 33.698 18.766 32.3468 18.678L31.9975 18.666C31.6438 18.666 31.3047 18.5255 31.0546 18.2755C30.8046 18.0254 30.6641 17.6863 30.6641 17.3326C30.6641 16.979 30.8046 16.6399 31.0546 16.3898C31.3047 16.1398 31.6438 15.9993 31.9975 15.9993Z" fill="#007DFE"/>
</g>
<defs>
<clipPath id="clip0_1108_1774">
<rect width="32" height="32" fill="white" transform="translate(12 12)"/>
</clipPath>
</defs>
</svg>
