<svg width="310" height="316" viewBox="0 0 310 316" fill="none" xmlns="http://www.w3.org/2000/svg">
<g filter="url(#filter0_d_49_8253)">
<path d="M10.1094 25.2763C10.1094 14.1082 19.1629 5.05469 30.3309 5.05469H278.888C290.056 5.05469 299.109 14.1082 299.109 25.2763V260.352C299.109 271.52 290.056 280.574 278.888 280.574H30.331C19.1629 280.574 10.1094 271.52 10.1094 260.352V25.2763Z" fill="white"/>
</g>
<g clip-path="url(#clip0_49_8253)">
<path d="M154.184 63.1953C172.811 63.1953 190.854 69.6913 205.206 81.5643C219.558 93.4373 229.32 109.944 232.81 128.24L217.085 131.24C214.293 116.603 206.483 103.398 195.002 93.8992C183.52 84.4009 169.086 79.2041 154.184 79.2041L154.184 63.1953Z" fill="#F36960"/>
<path d="M154.183 79.2031C164.476 79.2031 174.617 81.6843 183.748 86.4363C192.878 91.1884 200.728 98.0713 206.633 106.502C212.538 114.932 216.323 124.662 217.669 134.867C219.014 145.071 217.88 155.449 214.363 165.123C210.845 174.796 205.048 183.478 197.461 190.435C189.875 197.391 180.724 202.416 170.783 205.084C160.842 207.752 150.404 207.985 140.354 205.762C130.304 203.539 120.938 198.926 113.05 192.315L123.333 180.046C129.25 185.004 136.274 188.464 143.812 190.131C151.349 191.798 159.177 191.624 166.633 189.623C174.089 187.622 180.952 183.853 186.642 178.635C192.332 173.418 196.68 166.906 199.318 159.651C201.956 152.397 202.807 144.613 201.797 136.959C200.788 129.306 197.949 122.009 193.52 115.686C189.092 109.363 183.204 104.201 176.356 100.637C169.509 97.0727 161.903 95.2119 154.183 95.2119L154.183 79.2031Z" fill="#3FC587"/>
<path d="M113.023 192.292C102.95 183.84 95.7237 172.493 92.3248 159.791C88.926 147.089 89.5196 133.649 94.0249 121.297C98.5303 108.944 106.729 98.2777 117.507 90.7468C128.285 83.216 141.121 79.1856 154.269 79.2032L154.248 95.2119C144.386 95.1987 134.76 98.2215 126.676 103.87C118.593 109.518 112.444 117.518 109.065 126.782C105.686 136.046 105.24 146.126 107.789 155.653C110.339 165.179 115.758 173.69 123.313 180.028L113.023 192.292Z" fill="#66B1FE"/>
<path d="M135.458 143.734V140.685H137.906C139.837 140.685 141.137 139.538 141.137 137.874C141.137 136.237 139.976 135.16 137.878 135.16C135.92 135.16 134.619 136.321 134.507 138.083H130.619C130.772 134.349 133.682 131.915 138.06 131.915C142.256 131.915 145.124 134.069 145.124 137.3C145.124 139.776 143.431 141.566 140.956 142.014V142.098C143.963 142.35 145.907 144.168 145.907 146.966C145.907 150.589 142.62 152.994 137.962 152.994C133.402 152.994 130.423 150.491 130.227 146.77H134.269C134.395 148.476 135.794 149.595 138.018 149.595C140.13 149.595 141.613 148.406 141.613 146.7C141.613 144.854 140.228 143.734 137.948 143.734H135.458ZM149.642 152.547L158.329 135.803V135.719H148.061V132.362H162.497V135.761L154.076 152.547H149.642ZM172.904 153.008C170.008 153.008 167.617 151.694 166.204 149.288C165.085 147.581 164.511 145.301 164.511 142.615C164.511 135.929 167.756 131.901 172.974 131.901C176.821 131.901 179.828 134.181 180.388 137.482H176.233C175.827 136.139 174.527 135.244 172.946 135.244C170.134 135.244 168.428 137.944 168.526 142.504H168.61C169.421 140.531 171.407 139.216 173.981 139.216C177.814 139.216 180.653 142.042 180.653 145.875C180.653 150.029 177.422 153.008 172.904 153.008ZM172.862 149.637C174.918 149.637 176.541 148.029 176.541 146.001C176.541 143.916 174.988 142.392 172.876 142.392C170.778 142.392 169.183 143.916 169.183 145.959C169.183 148.015 170.792 149.637 172.862 149.637Z" fill="black"/>
</g>
<g opacity="0.3" clip-path="url(#clip1_49_8253)">
<path d="M58.4778 60.4694C59.6566 60.4694 60.584 60.8611 61.2598 61.6444C61.9394 62.4239 62.2792 63.4818 62.2792 64.818C62.2792 66.1543 61.9394 67.2141 61.2598 67.9974C60.584 68.7807 59.6566 69.1724 58.4778 69.1724C57.2913 69.1724 56.3582 68.7807 55.6786 67.9974C54.9989 67.2141 54.6591 66.1543 54.6591 64.818C54.6591 63.4818 55.0009 62.4239 55.6844 61.6444C56.3717 60.8611 57.3028 60.4694 58.4778 60.4694ZM58.4778 61.4256C57.6331 61.4256 56.963 61.7308 56.4677 62.3414C55.9723 62.9519 55.7247 63.7774 55.7247 64.818C55.7247 65.8586 55.9685 66.6861 56.4562 67.3005C56.9477 67.911 57.6215 68.2163 58.4778 68.2163C59.3264 68.2163 59.9945 67.9091 60.4822 67.2947C60.9699 66.6804 61.2137 65.8548 61.2137 64.818C61.2137 63.7736 60.9699 62.948 60.4822 62.3414C59.9945 61.7308 59.3264 61.4256 58.4778 61.4256ZM68.9778 62.7676V68.9766H68.0332V68.0032H67.941C67.7836 68.3526 67.5417 68.6214 67.2153 68.8095C66.8889 68.9938 66.4896 69.086 66.0173 69.086C65.3261 69.086 64.8001 68.8882 64.4391 68.4927C64.0782 68.0972 63.8977 67.529 63.8977 66.7879V62.7676H64.8884V66.546C64.8884 67.1104 64.9997 67.5251 65.2225 67.7901C65.4452 68.0512 65.8023 68.1817 66.2938 68.1817C66.8352 68.1817 67.2518 68.03 67.5436 67.7267C67.8393 67.4195 67.9871 66.9914 67.9871 66.4423V62.7676H68.9778ZM71.2586 61.1606H72.2493V62.7676H73.6317V63.597H72.2493V67.1104C72.2493 67.4752 72.3223 67.7401 72.4682 67.9053C72.6141 68.0704 72.8483 68.1529 73.1709 68.1529C73.313 68.1529 73.4665 68.1452 73.6317 68.1299V68.965C73.4128 69.0034 73.2189 69.0226 73.0499 69.0226C72.4087 69.0226 71.9498 68.894 71.6733 68.6367C71.3969 68.3795 71.2586 67.9552 71.2586 67.3638V63.597H70.2565V62.7676H71.2586V61.1606ZM77.5483 68.0089C78.1204 68.0089 78.5697 67.8093 78.896 67.4099C79.2263 67.0067 79.3914 66.4634 79.3914 65.7799C79.3914 65.1003 79.2263 64.5589 78.896 64.1557C78.5658 63.7525 78.1166 63.5509 77.5483 63.5509C76.98 63.5509 76.5384 63.7506 76.2235 64.1499C75.9087 64.5493 75.7512 65.0926 75.7512 65.7799C75.7512 66.4672 75.9087 67.0106 76.2235 67.4099C76.5384 67.8093 76.98 68.0089 77.5483 68.0089ZM77.5943 71.3611C76.8533 71.3611 76.2523 71.2075 75.7916 70.9003C75.3346 70.5931 75.0677 70.1803 74.991 69.662H76.0392C76.093 69.9192 76.2562 70.1227 76.5288 70.2725C76.8014 70.4223 77.1566 70.4971 77.5943 70.4971C78.1511 70.4971 78.585 70.3666 78.896 70.1055C79.2109 69.8482 79.3683 69.4911 79.3683 69.0342V67.8131H79.2762C79.0804 68.1548 78.8135 68.4198 78.4756 68.6079C78.1377 68.7923 77.7556 68.8844 77.3294 68.8844C76.5307 68.8844 75.8971 68.6022 75.4287 68.0377C74.9602 67.4694 74.726 66.7168 74.726 65.7799C74.726 64.843 74.9622 64.0885 75.4345 63.5163C75.9067 62.9442 76.5384 62.6581 77.3294 62.6581C77.7633 62.6581 78.1588 62.758 78.5159 62.9576C78.873 63.1535 79.1418 63.4184 79.3223 63.7525H79.4144V62.7676H80.359V69.086C80.359 69.781 80.1094 70.3339 79.6103 70.7448C79.1111 71.1557 78.4391 71.3611 77.5943 71.3611ZM86.8675 68.2278C86.3568 68.7999 85.6599 69.086 84.7767 69.086C83.8936 69.086 83.1947 68.7999 82.6802 68.2278C82.1695 67.6518 81.9141 66.8666 81.9141 65.8721C81.9141 64.8737 82.1695 64.0885 82.6802 63.5163C83.1909 62.9442 83.8897 62.6581 84.7767 62.6581C85.6637 62.6581 86.3626 62.9442 86.8733 63.5163C87.384 64.0885 87.6393 64.8737 87.6393 65.8721C87.6393 66.8666 87.382 67.6518 86.8675 68.2278ZM83.4174 67.5885C83.7361 67.9916 84.1892 68.1932 84.7767 68.1932C85.3642 68.1932 85.8173 67.9916 86.136 67.5885C86.4547 67.1814 86.6141 66.6093 86.6141 65.8721C86.6141 65.1348 86.4547 64.5646 86.136 64.1614C85.8173 63.7544 85.3642 63.5509 84.7767 63.5509C84.1892 63.5509 83.7361 63.7544 83.4174 64.1614C83.0987 64.5646 82.9394 65.1348 82.9394 65.8721C82.9394 66.6093 83.0987 67.1814 83.4174 67.5885ZM89.2175 68.9766V62.7676H90.2081V68.9766H89.2175ZM90.2024 61.3046C90.068 61.439 89.9048 61.5062 89.7128 61.5062C89.5208 61.5062 89.3576 61.439 89.2232 61.3046C89.0888 61.1664 89.0216 61.0032 89.0216 60.815C89.0216 60.6269 89.0888 60.4656 89.2232 60.3312C89.3576 60.193 89.5208 60.1239 89.7128 60.1239C89.9048 60.1239 90.068 60.193 90.2024 60.3312C90.3368 60.4656 90.404 60.6269 90.404 60.815C90.404 61.0032 90.3368 61.1664 90.2024 61.3046ZM92.0973 68.9766V62.7676H93.0419V63.7467H93.1341C93.4643 63.021 94.0864 62.6581 95.0002 62.6581C95.6952 62.6581 96.2309 62.8578 96.6072 63.2572C96.9835 63.6527 97.1717 64.219 97.1717 64.9563V68.9766H96.181V65.1982C96.181 64.6414 96.06 64.2286 95.8181 63.9598C95.5801 63.6872 95.2133 63.5509 94.718 63.5509C94.2188 63.5509 93.8214 63.7083 93.5257 64.0232C93.2339 64.3342 93.088 64.7604 93.088 65.3019V68.9766H92.0973ZM101.497 68.0089C102.069 68.0089 102.519 67.8093 102.845 67.4099C103.175 67.0067 103.34 66.4634 103.34 65.7799C103.34 65.1003 103.175 64.5589 102.845 64.1557C102.515 63.7525 102.066 63.5509 101.497 63.5509C100.929 63.5509 100.487 63.7506 100.172 64.1499C99.8576 64.5493 99.7002 65.0926 99.7002 65.7799C99.7002 66.4672 99.8576 67.0106 100.172 67.4099C100.487 67.8093 100.929 68.0089 101.497 68.0089ZM101.543 71.3611C100.802 71.3611 100.201 71.2075 99.7405 70.9003C99.2836 70.5931 99.0167 70.1803 98.9399 69.662H99.9882C100.042 69.9192 100.205 70.1227 100.478 70.2725C100.75 70.4223 101.106 70.4971 101.543 70.4971C102.1 70.4971 102.534 70.3666 102.845 70.1055C103.16 69.8482 103.317 69.4911 103.317 69.0342V67.8131H103.225C103.029 68.1548 102.762 68.4198 102.425 68.6079C102.087 68.7923 101.705 68.8844 101.278 68.8844C100.48 68.8844 99.8461 68.6022 99.3776 68.0377C98.9092 67.4694 98.6749 66.7168 98.6749 65.7799C98.6749 64.843 98.9111 64.0885 99.3834 63.5163C99.8557 62.9442 100.487 62.6581 101.278 62.6581C101.712 62.6581 102.108 62.758 102.465 62.9576C102.822 63.1535 103.091 63.4184 103.271 63.7525H103.363V62.7676H104.308V69.086C104.308 69.781 104.058 70.3339 103.559 70.7448C103.06 71.1557 102.388 71.3611 101.543 71.3611Z" fill="black"/>
<path d="M32.0144 72.4569C31.5491 72.4569 31.1719 72.0797 31.1719 71.6143V66.5589C31.1719 65.1629 32.3036 64.0312 33.6996 64.0312H38.755C39.2203 64.0312 39.5975 64.4085 39.5975 64.8738C39.5975 65.3392 39.2203 65.7164 38.755 65.7164H34.0486L41.0359 72.7037C41.3649 73.0327 41.3649 73.5662 41.0359 73.8953C40.7068 74.2243 40.1734 74.2243 39.8443 73.8953L32.857 66.9079V71.6143C32.857 72.0797 32.4798 72.4569 32.0144 72.4569Z" fill="#66B1FE"/>
<path d="M44.6529 79.1974C45.5836 79.1974 46.3381 78.443 46.3381 77.5123C46.3381 76.5816 45.5836 75.8272 44.6529 75.8272C43.7223 75.8272 42.9678 76.5816 42.9678 77.5123C42.9678 78.443 43.7223 79.1974 44.6529 79.1974Z" fill="#66B1FE"/>
<path d="M56.7729 92.1992V85.5813H56.6693L54.6303 86.9867V85.3682L56.7787 83.8879H58.5124V92.1992H56.7729ZM61.1906 92.1992L64.7329 85.42V85.3163H60.5398V83.8822H66.4838V85.3336L63.0107 92.1992H61.1906ZM67.8662 86.3761C67.8662 84.7692 69.0988 83.6748 70.8958 83.6748C72.6295 83.6748 73.839 84.6713 73.839 86.0997C73.839 87.0039 73.3494 87.7815 71.9095 89.135L70.3198 90.6499V90.7535H73.96V92.1992H67.9641V90.9839L70.6769 88.3287C71.8461 87.1883 72.1399 86.7563 72.1399 86.2149C72.1399 85.5467 71.5985 85.0744 70.8382 85.0744C70.0318 85.0744 69.4789 85.6043 69.4789 86.3704V86.4049H67.8662V86.3761Z" fill="white"/>
</g>
<g clip-path="url(#clip2_49_8253)">
<path d="M224.024 235.513C224.024 233.906 225.257 232.812 227.054 232.812C228.788 232.812 229.997 233.808 229.997 235.236C229.997 236.141 229.508 236.918 228.068 238.272L226.478 239.787V239.89H230.118V241.336H224.122V240.121L226.835 237.465C228.004 236.325 228.298 235.893 228.298 235.352C228.298 234.683 227.757 234.211 226.996 234.211C226.19 234.211 225.637 234.741 225.637 235.507V235.542H224.024V235.513ZM234.91 241.549C232.854 241.549 231.61 239.925 231.61 237.166C231.61 234.413 232.865 232.812 234.91 232.812C236.949 232.812 238.21 234.413 238.21 237.172C238.21 239.919 236.966 241.549 234.91 241.549ZM234.91 240.132C235.866 240.132 236.448 239.113 236.448 237.166C236.448 235.231 235.86 234.234 234.91 234.234C233.966 234.234 233.372 235.236 233.372 237.166C233.372 239.107 233.96 240.132 234.91 240.132ZM243.671 241.336V239.884H239.604V238.347C240.353 236.936 241.436 235.219 242.893 233.025H245.329V238.439H246.418V239.884H245.329V241.336H243.671ZM241.165 238.398V238.491H243.711V234.378H243.619C242.859 235.513 242.116 236.676 241.165 238.398Z" fill="black"/>
<path d="M225.378 221.484H224.341V213.173H225.378V221.484ZM227.371 221.484V215.275H228.315V216.255H228.407C228.738 215.529 229.36 215.166 230.274 215.166C230.969 215.166 231.504 215.366 231.881 215.765C232.257 216.16 232.445 216.727 232.445 217.464V221.484H231.454V217.706C231.454 217.149 231.333 216.736 231.091 216.468C230.853 216.195 230.487 216.059 229.991 216.059C229.492 216.059 229.095 216.216 228.799 216.531C228.507 216.842 228.361 217.268 228.361 217.81V221.484H227.371ZM239.397 217.176H238.395C238.31 216.85 238.128 216.583 237.848 216.375C237.571 216.164 237.22 216.059 236.794 216.059C236.237 216.059 235.793 216.266 235.463 216.681C235.137 217.095 234.973 217.654 234.973 218.357C234.973 219.071 235.139 219.641 235.469 220.067C235.799 220.49 236.241 220.701 236.794 220.701C237.212 220.701 237.56 220.607 237.836 220.419C238.116 220.231 238.303 219.962 238.395 219.612H239.397C239.305 220.2 239.03 220.678 238.573 221.047C238.116 221.411 237.525 221.594 236.799 221.594C235.928 221.594 235.235 221.302 234.72 220.718C234.206 220.131 233.948 219.344 233.948 218.357C233.948 217.389 234.206 216.615 234.72 216.036C235.235 215.456 235.926 215.166 236.794 215.166C237.519 215.166 238.111 215.356 238.568 215.736C239.028 216.116 239.305 216.596 239.397 217.176ZM245.502 220.736C244.992 221.308 244.295 221.594 243.411 221.594C242.528 221.594 241.829 221.308 241.315 220.736C240.804 220.16 240.549 219.374 240.549 218.38C240.549 217.382 240.804 216.596 241.315 216.024C241.826 215.452 242.524 215.166 243.411 215.166C244.298 215.166 244.997 215.452 245.508 216.024C246.019 216.596 246.274 217.382 246.274 218.38C246.274 219.374 246.017 220.16 245.502 220.736ZM242.052 220.096C242.371 220.499 242.824 220.701 243.411 220.701C243.999 220.701 244.452 220.499 244.771 220.096C245.089 219.689 245.249 219.117 245.249 218.38C245.249 217.643 245.089 217.072 244.771 216.669C244.452 216.262 243.999 216.059 243.411 216.059C242.824 216.059 242.371 216.262 242.052 216.669C241.733 217.072 241.574 217.643 241.574 218.38C241.574 219.117 241.733 219.689 242.052 220.096ZM247.829 221.484V215.275H248.774V216.255H248.866C249.008 215.909 249.229 215.642 249.528 215.454C249.828 215.262 250.185 215.166 250.6 215.166C251.007 215.166 251.356 215.264 251.648 215.46C251.944 215.656 252.166 215.92 252.316 216.255H252.408C252.577 215.92 252.831 215.656 253.168 215.46C253.506 215.264 253.887 215.166 254.309 215.166C254.942 215.166 255.43 215.343 255.772 215.696C256.114 216.045 256.284 216.544 256.284 217.193V221.484H255.294V217.424C255.294 216.514 254.858 216.059 253.986 216.059C253.564 216.059 253.218 216.197 252.95 216.473C252.681 216.75 252.546 217.09 252.546 217.493V221.484H251.556V217.268C251.556 216.9 251.437 216.606 251.199 216.387C250.964 216.168 250.651 216.059 250.26 216.059C249.857 216.059 249.515 216.212 249.235 216.519C248.958 216.827 248.82 217.199 248.82 217.637V221.484H247.829ZM258.116 221.484V215.275H259.107V221.484H258.116ZM259.101 213.812C258.967 213.947 258.803 214.014 258.611 214.014C258.419 214.014 258.256 213.947 258.122 213.812C257.987 213.674 257.92 213.511 257.92 213.323C257.92 213.135 257.987 212.973 258.122 212.839C258.256 212.701 258.419 212.632 258.611 212.632C258.803 212.632 258.967 212.701 259.101 212.839C259.235 212.973 259.303 213.135 259.303 213.323C259.303 213.511 259.235 213.674 259.101 213.812ZM260.996 221.484V215.275H261.941V216.255H262.033C262.363 215.529 262.985 215.166 263.899 215.166C264.594 215.166 265.129 215.366 265.506 215.765C265.882 216.16 266.07 216.727 266.07 217.464V221.484H265.08V217.706C265.08 217.149 264.959 216.736 264.717 216.468C264.479 216.195 264.112 216.059 263.617 216.059C263.117 216.059 262.72 216.216 262.424 216.531C262.133 216.842 261.987 217.268 261.987 217.81V221.484H260.996ZM270.396 220.517C270.968 220.517 271.417 220.317 271.744 219.918C272.074 219.515 272.239 218.971 272.239 218.288C272.239 217.608 272.074 217.067 271.744 216.663C271.413 216.26 270.964 216.059 270.396 216.059C269.828 216.059 269.386 216.258 269.071 216.658C268.756 217.057 268.599 217.6 268.599 218.288C268.599 218.975 268.756 219.518 269.071 219.918C269.386 220.317 269.828 220.517 270.396 220.517ZM270.442 223.869C269.701 223.869 269.1 223.715 268.639 223.408C268.182 223.101 267.915 222.688 267.838 222.17H268.887C268.941 222.427 269.104 222.631 269.376 222.78C269.649 222.93 270.004 223.005 270.442 223.005C270.999 223.005 271.433 222.874 271.744 222.613C272.058 222.356 272.216 221.999 272.216 221.542V220.321H272.124C271.928 220.663 271.661 220.928 271.323 221.116C270.985 221.3 270.603 221.392 270.177 221.392C269.378 221.392 268.745 221.11 268.276 220.546C267.808 219.977 267.574 219.225 267.574 218.288C267.574 217.351 267.81 216.596 268.282 216.024C268.754 215.452 269.386 215.166 270.177 215.166C270.611 215.166 271.006 215.266 271.363 215.465C271.721 215.661 271.989 215.926 272.17 216.26H272.262V215.275H273.207V221.594C273.207 222.289 272.957 222.842 272.458 223.253C271.959 223.663 271.287 223.869 270.442 223.869Z" fill="black"/>
<path d="M200.282 211.727C199.953 211.398 199.42 211.398 199.091 211.727C198.761 212.056 198.761 212.59 199.091 212.919L206.078 219.906H201.371C200.906 219.906 200.529 220.283 200.529 220.749C200.529 221.214 200.906 221.591 201.371 221.591H206.427C207.823 221.591 208.955 220.46 208.955 219.064V214.008C208.955 213.543 208.577 213.166 208.112 213.166C207.647 213.166 207.269 213.543 207.269 214.008V218.715L200.282 211.727Z" fill="#3FC587"/>
<path d="M214.01 224.962C214.01 225.892 213.255 226.647 212.325 226.647C211.394 226.647 210.64 225.892 210.64 224.962C210.64 224.031 211.394 223.276 212.325 223.276C213.255 223.276 214.01 224.031 214.01 224.962Z" fill="#3FC587"/>
</g>
<g clip-path="url(#clip3_49_8253)">
<path d="M203.567 60.1797V58.7282H199.5V57.1904C200.249 55.7793 201.332 54.0629 202.789 51.8684H205.226V57.2825H206.314V58.7282H205.226V60.1797H203.567ZM201.061 57.2422V57.3344H203.607V53.2219H203.515C202.755 54.3566 202.012 55.5201 201.061 57.2422ZM210.945 60.3928C209.136 60.3928 207.904 59.3042 207.852 57.8182H209.459C209.557 58.5094 210.167 58.9701 210.956 58.9701C211.849 58.9701 212.466 58.3711 212.466 57.4669C212.466 56.5511 211.843 55.9405 210.962 55.9405C210.317 55.9405 209.828 56.2228 209.54 56.6893H207.984L208.399 51.8684H213.623V53.3141H209.747L209.563 55.451H209.666C210.018 54.9441 210.605 54.6388 211.429 54.6388C213.007 54.6388 214.124 55.7965 214.124 57.4265C214.124 59.189 212.851 60.3928 210.945 60.3928Z" fill="black"/>
<path d="M208.094 40.3281H207.126V33.9809H207.057L204.436 40.2705H203.561L200.94 33.9809H200.871V40.3281H199.904V32.0168H201.107L203.953 38.894H204.045L206.89 32.0168H208.094V40.3281ZM210.11 40.3281V34.1191H211.1V40.3281H210.11ZM211.095 32.6562C210.96 32.7906 210.797 32.8578 210.605 32.8578C210.413 32.8578 210.25 32.7906 210.116 32.6562C209.981 32.5179 209.914 32.3547 209.914 32.1666C209.914 31.9784 209.981 31.8172 210.116 31.6828C210.25 31.5445 210.413 31.4754 210.605 31.4754C210.797 31.4754 210.96 31.5445 211.095 31.6828C211.229 31.8172 211.296 31.9784 211.296 32.1666C211.296 32.3547 211.229 32.5179 211.095 32.6562ZM212.846 35.8183C212.846 35.3037 213.066 34.8737 213.508 34.5281C213.95 34.1825 214.501 34.0097 215.161 34.0097C215.81 34.0097 216.346 34.1595 216.768 34.459C217.19 34.7585 217.434 35.1636 217.5 35.6743H216.52C216.451 35.4208 216.298 35.2212 216.06 35.0753C215.825 34.9255 215.524 34.8506 215.155 34.8506C214.783 34.8506 214.47 34.937 214.216 35.1098C213.967 35.2826 213.842 35.5053 213.842 35.7779C213.842 35.9891 213.928 36.1658 214.101 36.3078C214.278 36.4461 214.551 36.5593 214.919 36.6477L215.875 36.878C216.467 37.0201 216.902 37.2256 217.183 37.4943C217.467 37.7631 217.609 38.1183 217.609 38.5599C217.609 39.109 217.373 39.5602 216.9 39.9134C216.428 40.2628 215.835 40.4376 215.121 40.4376C214.43 40.4376 213.863 40.284 213.422 39.9768C212.98 39.6696 212.732 39.2587 212.679 38.7442H213.698C213.783 39.013 213.95 39.2242 214.199 39.3778C214.449 39.5275 214.767 39.6024 215.155 39.6024C215.574 39.6024 215.917 39.5122 216.186 39.3317C216.455 39.1512 216.589 38.9189 216.589 38.6348C216.589 38.2124 216.261 37.9206 215.605 37.7593L214.539 37.5001C213.952 37.358 213.521 37.1545 213.249 36.8896C212.98 36.6208 212.846 36.2637 212.846 35.8183ZM218.905 35.8183C218.905 35.3037 219.126 34.8737 219.567 34.5281C220.009 34.1825 220.56 34.0097 221.22 34.0097C221.869 34.0097 222.405 34.1595 222.827 34.459C223.25 34.7585 223.493 35.1636 223.559 35.6743H222.58C222.51 35.4208 222.357 35.2212 222.119 35.0753C221.885 34.9255 221.583 34.8506 221.215 34.8506C220.842 34.8506 220.529 34.937 220.276 35.1098C220.026 35.2826 219.901 35.5053 219.901 35.7779C219.901 35.9891 219.988 36.1658 220.16 36.3078C220.337 36.4461 220.61 36.5593 220.978 36.6477L221.934 36.878C222.526 37.0201 222.962 37.2256 223.242 37.4943C223.526 37.7631 223.668 38.1183 223.668 38.5599C223.668 39.109 223.432 39.5602 222.96 39.9134C222.487 40.2628 221.894 40.4376 221.18 40.4376C220.489 40.4376 219.922 40.284 219.481 39.9768C219.039 39.6696 218.792 39.2587 218.738 38.7442H219.757C219.842 39.013 220.009 39.2242 220.258 39.3778C220.508 39.5275 220.827 39.6024 221.215 39.6024C221.633 39.6024 221.977 39.5122 222.246 39.3317C222.514 39.1512 222.649 38.9189 222.649 38.6348C222.649 38.2124 222.32 37.9206 221.664 37.7593L220.598 37.5001C220.011 37.358 219.581 37.1545 219.308 36.8896C219.039 36.6208 218.905 36.2637 218.905 35.8183ZM227.7 34.8852C227.205 34.8852 226.798 35.0522 226.479 35.3863C226.16 35.7203 225.982 36.1619 225.943 36.711H229.365C229.353 36.1619 229.196 35.7203 228.892 35.3863C228.589 35.0522 228.191 34.8852 227.7 34.8852ZM229.336 38.7212H230.326C230.177 39.2587 229.871 39.6792 229.411 39.9825C228.954 40.2859 228.387 40.4376 227.711 40.4376C226.851 40.4376 226.17 40.1496 225.667 39.5736C225.164 38.9938 224.912 38.2124 224.912 37.2294C224.912 36.2502 225.166 35.4688 225.673 34.8852C226.179 34.3015 226.859 34.0097 227.711 34.0097C228.549 34.0097 229.207 34.2881 229.687 34.8449C230.167 35.4016 230.407 36.1638 230.407 37.1315V37.5116H225.943V37.5577C225.97 38.1721 226.143 38.6597 226.462 39.0207C226.784 39.3816 227.208 39.5621 227.735 39.5621C228.537 39.5621 229.071 39.2818 229.336 38.7212ZM234.26 40.4376C233.465 40.4376 232.832 40.1457 232.36 39.5621C231.887 38.9784 231.651 38.1989 231.651 37.2236C231.651 36.2522 231.887 35.4746 232.36 34.8909C232.836 34.3035 233.469 34.0097 234.26 34.0097C234.694 34.0097 235.082 34.1076 235.424 34.3035C235.769 34.4954 236.03 34.7604 236.207 35.0983H236.293V31.654H237.284V40.3281H236.34V39.3375H236.247C236.052 39.683 235.779 39.9537 235.43 40.1496C235.08 40.3416 234.69 40.4376 234.26 40.4376ZM234.491 34.9025C233.926 34.9025 233.483 35.1098 233.16 35.5245C232.838 35.9354 232.676 36.5017 232.676 37.2236C232.676 37.9494 232.836 38.5177 233.154 38.9285C233.477 39.3394 233.922 39.5448 234.491 39.5448C235.055 39.5448 235.501 39.3375 235.827 38.9228C236.153 38.5081 236.317 37.9417 236.317 37.2236C236.317 36.5133 236.151 35.9488 235.821 35.5303C235.495 35.1117 235.051 34.9025 234.491 34.9025Z" fill="black"/>
<path d="M175.845 30.5749C175.516 30.2459 174.982 30.2459 174.653 30.5749C174.324 30.9039 174.324 31.4374 174.653 31.7665L181.64 38.7538H176.934C176.469 38.7538 176.091 39.131 176.091 39.5963C176.091 40.0617 176.469 40.4389 176.934 40.4389H181.989C183.385 40.4389 184.517 39.3072 184.517 37.9112V32.8558C184.517 32.3905 184.14 32.0133 183.674 32.0133C183.209 32.0133 182.832 32.3905 182.832 32.8558V37.5622L175.845 30.5749Z" fill="#F36960"/>
<path d="M185.606 41.5283C185.935 41.1992 186.469 41.1992 186.798 41.5283L187.887 42.6176L188.977 41.5283C189.306 41.1992 189.839 41.1992 190.168 41.5283C190.497 41.8573 190.497 42.3908 190.168 42.7198L189.079 43.8092L190.168 44.8985C190.497 45.2276 190.497 45.761 190.168 46.0901C189.839 46.4191 189.306 46.4191 188.977 46.0901L187.887 45.0007L186.798 46.0901C186.469 46.4191 185.935 46.4191 185.606 46.0901C185.277 45.761 185.277 45.2276 185.606 44.8985L186.696 43.8092L185.606 42.7198C185.277 42.3908 185.277 41.8573 185.606 41.5283Z" fill="#F36960"/>
</g>
<g opacity="0.3" filter="url(#filter1_d_49_8253)">
<circle cx="68.2426" cy="93.5239" r="21.9067" fill="black" fill-opacity="0.01"/>
</g>
<circle cx="68.2426" cy="93.5239" r="21.9067" fill="#66B1FE"/>
<defs>
<filter id="filter0_d_49_8253" x="-0.00141239" y="-0.000706196" width="309.222" height="295.741" filterUnits="userSpaceOnUse" color-interpolation-filters="sRGB">
<feFlood flood-opacity="0" result="BackgroundImageFix"/>
<feColorMatrix in="SourceAlpha" type="matrix" values="0 0 0 0 0 0 0 0 0 0 0 0 0 0 0 0 0 0 127 0" result="hardAlpha"/>
<feOffset dy="5.05539"/>
<feGaussianBlur stdDeviation="5.05539"/>
<feColorMatrix type="matrix" values="0 0 0 0 0 0 0 0 0 0.137255 0 0 0 0 0.321569 0 0 0 0.15 0"/>
<feBlend mode="normal" in2="BackgroundImageFix" result="effect1_dropShadow_49_8253"/>
<feBlend mode="normal" in="SourceGraphic" in2="effect1_dropShadow_49_8253" result="shape"/>
</filter>
<filter id="filter1_d_49_8253" x="39.5954" y="68.2469" width="57.2935" height="57.2935" filterUnits="userSpaceOnUse" color-interpolation-filters="sRGB">
<feFlood flood-opacity="0" result="BackgroundImageFix"/>
<feColorMatrix in="SourceAlpha" type="matrix" values="0 0 0 0 0 0 0 0 0 0 0 0 0 0 0 0 0 0 127 0" result="hardAlpha"/>
<feOffset dy="3.37026"/>
<feGaussianBlur stdDeviation="3.37026"/>
<feColorMatrix type="matrix" values="0 0 0 0 0 0 0 0 0 0 0 0 0 0 0 0 0 0 0.291029 0"/>
<feBlend mode="normal" in2="BackgroundImageFix" result="effect1_dropShadow_49_8253"/>
<feBlend mode="normal" in="SourceGraphic" in2="effect1_dropShadow_49_8253" result="shape"/>
</filter>
<clipPath id="clip0_49_8253">
<rect width="160.93" height="160.93" fill="white" transform="translate(74.1406 62.3516)"/>
</clipPath>
<clipPath id="clip1_49_8253">
<rect width="93.5248" height="36.2303" fill="white" transform="translate(26.9609 59.8203)"/>
</clipPath>
<clipPath id="clip2_49_8253">
<rect width="87.6268" height="37.9155" fill="white" transform="translate(194.633 207.27)"/>
</clipPath>
<clipPath id="clip3_49_8253">
<rect width="112.061" height="37.9155" fill="white" transform="translate(170.195 26.1172)"/>
</clipPath>
</defs>
</svg>
