<svg width="32" height="32" viewBox="0 0 32 32" fill="none" xmlns="http://www.w3.org/2000/svg">
<g clip-path="url(#clip0_1215_1889)">
<path fill-rule="evenodd" clip-rule="evenodd" d="M13.9974 5.33464C13.6629 5.33458 13.3339 5.42003 13.0416 5.58289C12.7494 5.74574 12.5037 5.98059 12.3277 6.26513C12.1518 6.54968 12.0515 6.87447 12.0364 7.20867C12.0213 7.54287 12.0919 7.87538 12.2414 8.17464L12.4587 8.60797C12.5675 8.82508 12.6189 9.06642 12.608 9.30902C12.5972 9.55161 12.5244 9.78739 12.3966 9.99389C12.2688 10.2004 12.0903 10.3708 11.8781 10.4887C11.6658 10.6067 11.4269 10.6684 11.1841 10.668H6.66406C6.31044 10.668 5.9713 10.8084 5.72125 11.0585C5.47121 11.3085 5.33073 11.6477 5.33073 12.0013V13.5933C7.7574 13.448 9.9974 15.368 9.9974 18.0013C9.9974 20.6346 7.7574 22.5546 5.33073 22.4093V25.3346C5.33073 25.6883 5.47121 26.0274 5.72125 26.2774C5.9713 26.5275 6.31044 26.668 6.66406 26.668H9.5894C9.44406 24.2413 11.3641 22.0013 13.9974 22.0013C16.6307 22.0013 18.5507 24.2413 18.4054 26.668H19.9974C20.351 26.668 20.6902 26.5275 20.9402 26.2774C21.1903 26.0274 21.3307 25.6883 21.3307 25.3346V20.8146C21.3307 19.756 22.4441 19.068 23.3907 19.54L23.8227 19.7573C24.122 19.9067 24.4544 19.9771 24.7885 19.9619C25.1226 19.9468 25.4473 19.8464 25.7317 19.6705C26.0162 19.4946 26.2509 19.2489 26.4138 18.9568C26.5766 18.6646 26.6621 18.3358 26.6621 18.0013C26.6621 17.6669 26.5766 17.338 26.4138 17.0458C26.2509 16.7537 26.0162 16.508 25.7317 16.3321C25.4473 16.1562 25.1226 16.0558 24.7885 16.0407C24.4544 16.0255 24.122 16.0959 23.8227 16.2453L23.3907 16.4626C23.1736 16.5714 22.9323 16.6228 22.6897 16.612C22.4471 16.6011 22.2113 16.5283 22.0048 16.4005C21.7983 16.2727 21.6279 16.0942 21.51 15.882C21.392 15.6697 21.3303 15.4308 21.3307 15.188V12.0013C21.3307 11.6477 21.1903 11.3085 20.9402 11.0585C20.6902 10.8084 20.351 10.668 19.9974 10.668H16.8107C15.7521 10.668 15.0641 9.55464 15.5361 8.60797L15.7534 8.17464C15.9029 7.87538 15.9735 7.54287 15.9584 7.20867C15.9433 6.87447 15.843 6.54968 15.6671 6.26513C15.4911 5.98059 15.2454 5.74574 14.9532 5.58289C14.6609 5.42003 14.3319 5.33458 13.9974 5.33464ZM9.41606 8.0013C8.99473 5.31197 11.0561 2.66797 13.9974 2.66797C16.9374 2.66797 19.0001 5.31197 18.5787 8.0013H19.9974C21.0583 8.0013 22.0757 8.42273 22.8258 9.17288C23.576 9.92302 23.9974 10.9404 23.9974 12.0013V13.42C26.6867 12.9986 29.3307 15.06 29.3307 18.0013C29.3307 20.9413 26.6867 23.004 23.9974 22.5826V25.3346C23.9974 26.3955 23.576 27.4129 22.8258 28.1631C22.0757 28.9132 21.0583 29.3346 19.9974 29.3346H16.7881C16.5537 29.3349 16.3229 29.2769 16.1165 29.166C15.9101 29.055 15.7345 28.8944 15.6054 28.6988C15.4764 28.5031 15.398 28.2785 15.3773 28.045C15.3566 27.8116 15.3942 27.5766 15.4867 27.3613L15.6001 27.0986C15.7139 26.8334 15.7601 26.544 15.7345 26.2564C15.709 25.9689 15.6124 25.6922 15.4536 25.4512C15.2947 25.2101 15.0785 25.0123 14.8244 24.8754C14.5702 24.7385 14.2861 24.6669 13.9974 24.6669C13.7087 24.6669 13.4246 24.7385 13.1704 24.8754C12.9163 25.0123 12.7001 25.2101 12.5412 25.4512C12.3824 25.6922 12.2858 25.9689 12.2602 26.2564C12.2347 26.544 12.2809 26.8334 12.3947 27.0986L12.5081 27.3626C12.9081 28.296 12.2227 29.3346 11.2067 29.3346H6.66406C5.6032 29.3346 4.58578 28.9132 3.83564 28.1631C3.08549 27.4129 2.66406 26.3955 2.66406 25.3346V20.792C2.66406 19.776 3.70273 19.0906 4.6374 19.4906L4.90006 19.604C5.16534 19.7178 5.45473 19.764 5.74226 19.7384C6.0298 19.7129 6.30649 19.6163 6.54752 19.4575C6.78856 19.2986 6.98639 19.0824 7.12327 18.8283C7.26015 18.5741 7.33181 18.29 7.33181 18.0013C7.33181 17.7126 7.26015 17.4285 7.12327 17.1743C6.98639 16.9202 6.78856 16.704 6.54752 16.5451C6.30649 16.3863 6.0298 16.2897 5.74226 16.2642C5.45473 16.2386 5.16534 16.2848 4.90006 16.3986L4.63606 16.512C3.70273 16.912 2.66406 16.2266 2.66406 15.2106V12.0013C2.66406 10.9404 3.08549 9.92302 3.83564 9.17288C4.58578 8.42273 5.6032 8.0013 6.66406 8.0013H9.41606Z" fill="#007DFE"/>
</g>
<defs>
<clipPath id="clip0_1215_1889">
<rect width="32" height="32" fill="white"/>
</clipPath>
</defs>
</svg>
