<svg width="32" height="32" viewBox="0 0 32 32" fill="none" xmlns="http://www.w3.org/2000/svg">
<path d="M5.33333 21.3333C5.65991 21.3334 5.97512 21.4533 6.21916 21.6703C6.46321 21.8873 6.61912 22.1863 6.65733 22.5107L6.66667 22.6667V25.3333H9.33333C9.67317 25.3337 10 25.4638 10.2472 25.6971C10.4943 25.9304 10.643 26.2493 10.6629 26.5885C10.6828 26.9278 10.5724 27.2618 10.3543 27.5224C10.1362 27.783 9.82679 27.9505 9.48933 27.9907L9.33333 28H6.66667C5.9939 28.0002 5.34591 27.7461 4.8526 27.2887C4.35929 26.8312 4.05712 26.2042 4.00667 25.5333L4 25.3333V22.6667C4 22.313 4.14048 21.9739 4.39052 21.7239C4.64057 21.4738 4.97971 21.3333 5.33333 21.3333ZM26.6667 21.3333C27.0203 21.3333 27.3594 21.4738 27.6095 21.7239C27.8595 21.9739 28 22.313 28 22.6667V25.3333C28 26.0406 27.719 26.7189 27.219 27.219C26.7189 27.719 26.0406 28 25.3333 28H22.6667C22.313 28 21.9739 27.8595 21.7239 27.6095C21.4738 27.3594 21.3333 27.0203 21.3333 26.6667C21.3333 26.313 21.4738 25.9739 21.7239 25.7239C21.9739 25.4738 22.313 25.3333 22.6667 25.3333H25.3333V22.6667C25.3333 22.313 25.4738 21.9739 25.7239 21.7239C25.9739 21.4738 26.313 21.3333 26.6667 21.3333ZM19.7333 18.476C19.8577 18.3505 20.0058 18.251 20.169 18.1832C20.3322 18.1155 20.5072 18.0809 20.6839 18.0813C20.8606 18.0818 21.0355 18.1174 21.1983 18.1861C21.3611 18.2547 21.5087 18.3551 21.6324 18.4812C21.7561 18.6074 21.8535 18.7569 21.9189 18.9211C21.9843 19.0852 22.0164 19.2607 22.0134 19.4374C22.0104 19.6141 21.9723 19.7884 21.9013 19.9502C21.8304 20.112 21.7279 20.2581 21.6 20.38C20.1058 21.8477 18.0944 22.669 16 22.6667C13.9056 22.669 11.8942 21.8477 10.4 20.38C10.2721 20.2581 10.1696 20.112 10.0987 19.9502C10.0277 19.7884 9.98961 19.6141 9.9866 19.4374C9.98358 19.2607 10.0157 19.0852 10.0811 18.9211C10.1465 18.7569 10.2439 18.6074 10.3676 18.4812C10.4913 18.3551 10.6389 18.2547 10.8017 18.1861C10.9645 18.1174 11.1394 18.0818 11.3161 18.0813C11.4928 18.0809 11.6678 18.1155 11.831 18.1832C11.9942 18.251 12.1423 18.3505 12.2667 18.476C13.2624 19.455 14.6036 20.0024 16 20C17.4533 20 18.7693 19.42 19.7333 18.476ZM11.3333 10.6667C11.8638 10.6667 12.3725 10.8774 12.7475 11.2525C13.1226 11.6275 13.3333 12.1362 13.3333 12.6667C13.3333 13.1971 13.1226 13.7058 12.7475 14.0809C12.3725 14.456 11.8638 14.6667 11.3333 14.6667C10.8029 14.6667 10.2942 14.456 9.91912 14.0809C9.54405 13.7058 9.33333 13.1971 9.33333 12.6667C9.33333 12.1362 9.54405 11.6275 9.91912 11.2525C10.2942 10.8774 10.8029 10.6667 11.3333 10.6667ZM20.6667 10.6667C21.1971 10.6667 21.7058 10.8774 22.0809 11.2525C22.456 11.6275 22.6667 12.1362 22.6667 12.6667C22.6667 13.1971 22.456 13.7058 22.0809 14.0809C21.7058 14.456 21.1971 14.6667 20.6667 14.6667C20.1362 14.6667 19.6275 14.456 19.2525 14.0809C18.8774 13.7058 18.6667 13.1971 18.6667 12.6667C18.6667 12.1362 18.8774 11.6275 19.2525 11.2525C19.6275 10.8774 20.1362 10.6667 20.6667 10.6667ZM9.33333 4C9.68696 4 10.0261 4.14048 10.2761 4.39052C10.5262 4.64057 10.6667 4.97971 10.6667 5.33333C10.6667 5.68696 10.5262 6.02609 10.2761 6.27614C10.0261 6.52619 9.68696 6.66667 9.33333 6.66667H6.66667V9.33333C6.66667 9.68696 6.52619 10.0261 6.27614 10.2761C6.02609 10.5262 5.68696 10.6667 5.33333 10.6667C4.97971 10.6667 4.64057 10.5262 4.39052 10.2761C4.14048 10.0261 4 9.68696 4 9.33333V6.66667C4 5.95942 4.28095 5.28115 4.78105 4.78105C5.28115 4.28095 5.95942 4 6.66667 4H9.33333ZM25.3333 4C26.0406 4 26.7189 4.28095 27.219 4.78105C27.719 5.28115 28 5.95942 28 6.66667V9.33333C28 9.68696 27.8595 10.0261 27.6095 10.2761C27.3594 10.5262 27.0203 10.6667 26.6667 10.6667C26.313 10.6667 25.9739 10.5262 25.7239 10.2761C25.4738 10.0261 25.3333 9.68696 25.3333 9.33333V6.66667H22.6667C22.313 6.66667 21.9739 6.52619 21.7239 6.27614C21.4738 6.02609 21.3333 5.68696 21.3333 5.33333C21.3333 4.97971 21.4738 4.64057 21.7239 4.39052C21.9739 4.14048 22.313 4 22.6667 4H25.3333Z" fill="#007DFE"/>
</svg>
