<svg width="32" height="32" viewBox="0 0 32 32" fill="none" xmlns="http://www.w3.org/2000/svg">
<g clip-path="url(#clip0_940_1896)">
<path fill-rule="evenodd" clip-rule="evenodd" d="M6.66667 4C5.95942 4 5.28115 4.28095 4.78105 4.78105C4.28095 5.28115 4 5.95942 4 6.66667V25.3333C4 26.0406 4.28095 26.7189 4.78105 27.219C5.28115 27.719 5.95942 28 6.66667 28H14.6667C15.3739 28 16.0522 27.719 16.5523 27.219C17.0524 26.7189 17.3333 26.0406 17.3333 25.3333V17.3333H25.3333C26.0406 17.3333 26.7189 17.0524 27.219 16.5523C27.719 16.0522 28 15.3739 28 14.6667V6.66667C28 5.95942 27.719 5.28115 27.219 4.78105C26.7189 4.28095 26.0406 4 25.3333 4H6.66667ZM17.3333 14.6667H25.3333V6.66667H17.3333V14.6667ZM6.66667 17.3333V25.3333H14.6667V17.3333H6.66667ZM6.66667 14.6667H14.6667V6.66667H6.66667V14.6667Z" fill="#007DFE"/>
</g>
<defs>
<clipPath id="clip0_940_1896">
<rect width="32" height="32" fill="white"/>
</clipPath>
</defs>
</svg>
