<svg width="32" height="32" viewBox="0 0 32 32" fill="none" xmlns="http://www.w3.org/2000/svg">
<g clip-path="url(#clip0_940_1733)">
<path fill-rule="evenodd" clip-rule="evenodd" d="M12.7843 19.9993C13.4915 19.9995 14.1696 20.2806 14.6696 20.7807L16.0029 22.114L17.3363 20.7807C17.8363 20.2806 18.5144 19.9995 19.2216 19.9993H24.5869C25.4788 19.9994 26.3451 20.2976 27.0481 20.8465C27.7511 21.3954 28.2505 22.1634 28.4669 23.0287L29.2963 26.3433C29.3421 26.5143 29.3535 26.6927 29.3297 26.8681C29.3059 27.0435 29.2474 27.2125 29.1576 27.365C29.0679 27.5176 28.9486 27.6508 28.8068 27.7568C28.6651 27.8627 28.5036 27.9394 28.3319 27.9824C28.1601 28.0253 27.9816 28.0336 27.8066 28.0068C27.6316 27.98 27.4637 27.9186 27.3127 27.8263C27.1617 27.7339 27.0306 27.6124 26.9271 27.4688C26.8235 27.3252 26.7496 27.1625 26.7096 26.99L25.8816 23.6767C25.8096 23.3881 25.6432 23.1319 25.4089 22.9487C25.1745 22.7656 24.8857 22.6661 24.5883 22.666H19.2216L17.8883 23.9993C17.3882 24.4993 16.71 24.7801 16.0029 24.7801C15.2958 24.7801 14.6177 24.4993 14.1176 23.9993L12.7843 22.666H7.41894C7.12152 22.6661 6.83267 22.7656 6.59832 22.9487C6.36397 23.1319 6.19758 23.3881 6.1256 23.6767L5.29627 26.99C5.25629 27.1625 5.18237 27.3252 5.07882 27.4688C4.97527 27.6124 4.84417 27.7339 4.69316 27.8263C4.54216 27.9186 4.37427 27.98 4.19929 28.0068C4.02431 28.0336 3.84575 28.0253 3.67401 27.9824C3.50228 27.9394 3.34082 27.8627 3.19904 27.7568C3.05726 27.6508 2.93801 27.5176 2.84824 27.365C2.75846 27.2125 2.69997 27.0435 2.67617 26.8681C2.65237 26.6927 2.66373 26.5143 2.7096 26.3433L3.5376 23.0287C3.75404 22.1634 4.25343 21.3954 4.95643 20.8465C5.65944 20.2976 6.52571 19.9994 7.4176 19.9993H12.7843ZM16.0029 2.66602C17.0483 2.66602 18.2176 2.91935 19.1763 3.18735C21.3936 3.80468 22.6696 5.87935 22.6696 7.99535V13.3367C22.6696 15.454 21.3936 17.5273 19.1763 18.1447C18.2176 18.4113 17.0483 18.666 16.0029 18.666C14.9576 18.666 13.7883 18.4127 12.8296 18.1447C10.6123 17.5273 9.33627 15.454 9.33627 13.3367V7.99535C9.33627 5.87935 10.6123 3.80468 12.8296 3.18735C13.7883 2.92068 14.9576 2.66602 16.0029 2.66602ZM16.0029 5.33268C15.3243 5.33268 14.4336 5.50868 13.5456 5.75668C12.6549 6.00468 12.0029 6.88602 12.0029 7.99535V13.3367C12.0029 14.446 12.6549 15.3273 13.5456 15.5767C14.4336 15.8233 15.3243 15.9993 16.0029 15.9993C16.6816 15.9993 17.5723 15.8233 18.4603 15.5753C19.3509 15.3273 20.0029 14.446 20.0029 13.3367V7.99535C20.0029 6.88602 19.3509 6.00468 18.4603 5.75535C17.5723 5.51002 16.6829 5.33268 16.0029 5.33268Z" fill="#007DFE"/>
</g>
<defs>
<clipPath id="clip0_940_1733">
<rect width="32" height="32" fill="white"/>
</clipPath>
</defs>
</svg>
