<svg width="32" height="32" viewBox="0 0 32 32" fill="none" xmlns="http://www.w3.org/2000/svg">
<g clip-path="url(#clip0_1216_1921)">
<path d="M9.14012 3.25931C10.8241 4.48731 12.0988 6.21264 13.1841 7.79798L14.0348 9.04864C14.299 9.43473 14.4198 9.90102 14.3765 10.3668C14.3331 10.8326 14.1283 11.2686 13.7975 11.5993L11.9895 13.4073L12.1801 13.8126C12.6468 14.758 13.4521 16.1193 14.6641 17.3326C15.501 18.1569 16.4445 18.8654 17.4695 19.4393L17.9588 19.702L18.3948 19.918L18.5895 20.0073L20.3961 18.1993C20.7281 17.8677 21.1661 17.6633 21.6334 17.6216C22.1008 17.5799 22.568 17.7037 22.9535 17.9713L24.3055 18.9086C25.8415 19.9886 27.4455 21.2193 28.6921 22.8166C28.9076 23.0938 29.0447 23.4239 29.089 23.7722C29.1334 24.1205 29.0833 24.4743 28.9441 24.7966C27.8281 27.4006 25.0041 29.618 22.0668 29.5086L21.6668 29.4873L21.3561 29.4606L21.0121 29.4206L20.6375 29.37L20.2308 29.302L19.7961 29.2166L19.3348 29.114L18.8468 28.9886L18.3335 28.842L17.7975 28.6686C15.3361 27.834 12.2121 26.194 9.00679 22.9886C5.80279 19.7846 4.16279 16.6606 3.32812 14.1993L3.15479 13.6633L3.00812 13.15L2.88279 12.662L2.77879 12.2006C2.74875 12.0562 2.72075 11.9113 2.69479 11.766L2.62812 11.3593L2.57479 10.9846L2.53612 10.6406L2.50946 10.33L2.48812 9.92998C2.38012 7.00198 4.62146 4.15798 7.21346 3.04731C7.52543 2.9126 7.86706 2.86131 8.20483 2.89848C8.5426 2.93564 8.86491 3.05999 9.14012 3.25931ZM7.90412 5.66998C6.47479 6.41664 5.09079 8.12331 5.15346 9.83131L5.18012 10.2686L5.20946 10.542L5.24812 10.8486L5.30146 11.186L5.36946 11.5553L5.45612 11.9526L5.56279 12.3793L5.69079 12.8313L5.84279 13.3086C5.89879 13.4713 5.95746 13.638 6.02146 13.8086L6.22679 14.3313L6.46146 14.874C7.29879 16.7166 8.66412 18.874 10.8948 21.1033C13.1241 23.3326 15.2815 24.6993 17.1241 25.5366L17.6668 25.7713L18.1895 25.9766C18.3601 26.0406 18.5268 26.0993 18.6895 26.1553L19.1668 26.3073L19.6201 26.4353L20.0455 26.542L20.4428 26.6286L20.8121 26.6966L21.1508 26.75L21.4575 26.79L21.7295 26.8166L22.1668 26.8433C23.8521 26.906 25.5721 25.53 26.3161 24.1193C25.3668 23.006 24.1881 22.0926 22.8881 21.1726L21.8908 20.478L21.6375 20.7433L21.0961 21.334L20.8095 21.6353C20.0281 22.4313 19.1161 23.1073 18.0228 22.666L17.7215 22.5393L17.3535 22.374L17.1481 22.2766L16.6975 22.0513L16.2028 21.7846C14.951 21.088 13.7995 20.2245 12.7801 19.218C11.7736 18.1985 10.9101 17.0471 10.2135 15.7953L9.94679 15.302L9.72012 14.85L9.45879 14.2766L9.33079 13.9726C8.91612 12.9473 9.48679 12.082 10.2161 11.3326L10.5148 11.0393L11.2575 10.3553L11.5241 10.102L10.8935 9.17798C9.95612 7.81798 9.04012 6.59131 7.90279 5.66864L7.90412 5.66998ZM19.9881 8.05264L20.1428 8.06998C21.1133 8.24117 22.0048 8.71523 22.6893 9.42421C23.3739 10.1332 23.8164 11.0407 23.9535 12.0166C24.0023 12.3542 23.92 12.6977 23.7233 12.9764C23.5267 13.2551 23.2307 13.4478 22.8963 13.5149C22.5618 13.5821 22.2144 13.5185 21.9254 13.3372C21.6365 13.156 21.428 12.8709 21.3428 12.5406L21.3121 12.3873C21.2585 12.0048 21.0952 11.646 20.842 11.3542C20.5889 11.0625 20.2566 10.8503 19.8855 10.7433L19.6788 10.6966C19.344 10.6373 19.0445 10.4523 18.8416 10.1795C18.6387 9.90661 18.5477 9.56656 18.5872 9.22884C18.6267 8.89112 18.7937 8.58125 19.0541 8.36262C19.3146 8.14398 19.6487 8.0331 19.9881 8.05264ZM19.9975 3.99931C22.1192 3.99931 24.154 4.84217 25.6543 6.34246C27.1546 7.84275 27.9975 9.87758 27.9975 11.9993C27.9971 12.3391 27.867 12.666 27.6337 12.9131C27.4004 13.1602 27.0815 13.309 26.7423 13.3289C26.403 13.3488 26.069 13.2384 25.8083 13.0203C25.5477 12.8022 25.3803 12.4928 25.3401 12.1553L25.3308 11.9993C25.3313 10.6452 24.8164 9.34166 23.8908 8.35335C22.9651 7.36503 21.698 6.76604 20.3468 6.67798L19.9975 6.66598C19.6438 6.66598 19.3047 6.5255 19.0546 6.27545C18.8046 6.0254 18.6641 5.68627 18.6641 5.33264C18.6641 4.97902 18.8046 4.63988 19.0546 4.38984C19.3047 4.13979 19.6438 3.99931 19.9975 3.99931Z" fill="#007DFE"/>
</g>
<defs>
<clipPath id="clip0_1216_1921">
<rect width="32" height="32" fill="white"/>
</clipPath>
</defs>
</svg>
