<svg width="32" height="32" viewBox="0 0 32 32" fill="none" xmlns="http://www.w3.org/2000/svg">
<g clip-path="url(#clip0_940_1864)">
<path d="M15.9974 2.66797C23.3534 2.66797 29.3307 8.59463 29.3307 15.9253C29.3307 17.7413 29.1054 19.0466 28.7627 20.1026C27.9481 22.612 26.2641 24.7226 24.3601 26.5026C23.0507 27.7266 21.1081 27.54 19.9414 26.38C18.2854 24.7333 17.8321 22.1773 19.6281 20.3933L20.8547 19.1733C21.4674 18.5647 22.2924 18.2176 23.1559 18.2051C24.0195 18.1927 24.8541 18.5159 25.4841 19.1066C25.8534 19.4533 26.0361 19.8666 26.2267 19.28C26.4681 18.5333 26.6641 17.5106 26.6641 15.9253C26.6641 10.084 21.8961 5.33464 15.9974 5.33464C10.0987 5.33464 5.33073 10.084 5.33073 15.9253C5.33073 17.512 5.52673 18.532 5.76806 19.28C5.95873 19.8666 6.1414 19.4533 6.51073 19.1066C7.14069 18.5159 7.97533 18.1927 8.83886 18.2051C9.70238 18.2176 10.5274 18.5647 11.1401 19.1733L12.3667 20.3933C14.1627 22.1773 13.7094 24.7333 12.0534 26.38C10.8867 27.54 8.94406 27.7266 7.63473 26.504C5.7174 24.712 4.05206 22.6266 3.23206 20.104C2.89073 19.0453 2.66406 17.74 2.66406 15.924C2.66406 8.59464 8.6414 2.66797 15.9974 2.66797ZM22.7334 21.0653C21.9627 21.8306 20.3467 23.0213 21.5067 24.176C21.7627 24.4293 22.1614 24.9066 22.5387 24.5546C23.3894 23.76 24.2227 22.8613 24.7827 22.1053C24.3427 21.692 23.4147 20.3893 22.7334 21.0653ZM9.2614 21.0653C8.5814 20.3893 7.65206 21.692 7.21206 22.1053C7.77206 22.8613 8.6054 23.7586 9.45606 24.5546C9.83206 24.9066 10.2321 24.4306 10.4881 24.176C11.6481 23.0213 10.0321 21.8306 9.2614 21.0653Z" fill="#007DFE"/>
</g>
<defs>
<clipPath id="clip0_940_1864">
<rect width="32" height="32" fill="white"/>
</clipPath>
</defs>
</svg>
