<svg width="1440" height="851" viewBox="0 0 1440 851" fill="none" xmlns="http://www.w3.org/2000/svg">
<g clip-path="url(#clip0_805_7234)">
<rect width="1440" height="851" fill="#001933"/>
<g opacity="0.1" clip-path="url(#clip1_805_7234)">
<g clip-path="url(#clip2_805_7234)">
<path d="M585.688 1776.79C704.918 1655.98 774.213 1724.37 893.444 1603.56C1012.67 1482.75 943.379 1414.36 1062.57 1293.59C1181.77 1172.82 1251.1 1241.17 1370.33 1120.36C1489.56 999.556 1420.27 931.166 1539.5 810.358C1658.73 689.55 1728.02 757.941 1847.29 637.098C1966.55 516.256 1897.22 447.9 2016.45 327.092" stroke="#F0F1F3" stroke-opacity="0.2" stroke-width="2.154" stroke-miterlimit="10"/>
<path d="M-769.727 416.76C-650.496 295.952 -581.201 364.343 -461.97 243.535C-342.74 122.727 -412.035 54.3365 -292.839 -66.4365C-173.643 -187.209 -104.314 -118.854 14.9167 -239.661C134.147 -360.469 64.8517 -428.86 184.082 -549.667C303.312 -670.475 372.608 -602.085 491.872 -722.927C611.137 -843.77 541.808 -912.126 661.038 -1032.93" stroke="#F0F1F3" stroke-opacity="0.2" stroke-width="2.154" stroke-miterlimit="10"/>
<path d="M96.3281 1268.81C215.558 1148 284.854 1216.39 404.084 1095.58C523.315 974.776 454.019 906.385 573.215 785.612C692.411 664.839 761.741 733.195 880.971 612.387C1000.2 491.58 930.906 423.189 1050.14 302.381C1169.37 181.574 1238.66 249.964 1357.93 129.122C1477.19 8.27909 1407.86 -60.0767 1527.09 -180.884" stroke="#F0F1F3" stroke-opacity="0.2" stroke-width="2.154" stroke-miterlimit="10"/>
<path d="M-343.219 835.572C-223.988 714.765 -154.693 783.155 -35.4627 662.347C83.7677 541.54 14.4724 473.149 133.668 352.376C252.865 231.603 322.194 299.959 441.425 179.151C560.655 58.3433 491.359 -10.0472 610.59 -130.855C729.82 -251.663 799.116 -183.272 918.38 -304.115C1037.64 -424.957 968.315 -493.313 1087.55 -614.121" stroke="#F0F1F3" stroke-opacity="0.2" stroke-width="2.154" stroke-miterlimit="10"/>
<path d="M521.125 1700.4C640.355 1579.6 709.651 1647.99 828.881 1527.18C948.111 1406.37 878.816 1337.98 998.012 1217.21C1117.21 1096.44 1186.54 1164.79 1305.77 1043.98C1425 923.175 1355.7 854.785 1474.93 733.977C1594.16 613.169 1663.46 681.56 1782.72 560.717C1901.99 439.875 1832.66 371.519 1951.89 250.711" stroke="#F0F1F3" stroke-opacity="0.2" stroke-width="2.154" stroke-miterlimit="10"/>
<path d="M-560.141 639.793C-440.91 518.985 -371.615 587.376 -252.385 466.568C-133.154 345.76 -202.45 277.37 -83.2534 156.597C35.9426 35.8237 105.272 104.179 224.503 -16.6283C343.733 -137.436 274.438 -205.827 393.668 -326.634C512.898 -447.442 582.194 -379.052 701.458 -499.894C820.723 -620.737 751.393 -689.092 870.624 -809.9" stroke="#F0F1F3" stroke-opacity="0.2" stroke-width="2.154" stroke-miterlimit="10"/>
<path d="M304.203 1490.41C423.433 1369.6 492.729 1437.99 611.959 1317.18C731.19 1196.37 661.894 1127.98 781.09 1007.21C900.286 886.437 969.616 954.793 1088.85 833.985C1208.08 713.177 1138.78 644.787 1258.01 523.979C1377.24 403.171 1446.54 471.562 1565.8 350.719C1685.07 229.877 1615.74 161.521 1734.97 40.7132" stroke="#F0F1F3" stroke-opacity="0.2" stroke-width="2.154" stroke-miterlimit="10"/>
<path d="M-133.625 1058.61C-14.3946 937.798 54.9007 1006.19 174.131 885.381C293.361 764.573 224.066 696.182 343.262 575.409C462.458 454.636 531.788 522.992 651.018 402.184C770.249 281.376 700.953 212.986 820.184 92.1782C939.414 -28.6295 1008.71 39.761 1127.97 -81.0815C1247.24 -201.924 1177.91 -270.28 1297.14 -391.088" stroke="#F0F1F3" stroke-opacity="0.2" stroke-width="2.154" stroke-miterlimit="10"/>
<path d="M730.711 1923.44C849.941 1802.63 919.237 1871.02 1038.47 1750.21C1157.7 1629.4 1088.4 1561.01 1207.6 1440.24C1326.79 1319.47 1396.12 1387.82 1515.35 1267.01C1634.58 1146.21 1565.29 1077.82 1684.52 957.008C1803.75 836.201 1873.05 904.591 1992.31 783.749C2111.57 662.906 2042.25 594.55 2161.48 473.743" stroke="#F0F1F3" stroke-opacity="0.2" stroke-width="2.154" stroke-miterlimit="10"/>
<path d="M-798.703 377.268C-679.473 256.46 -610.177 324.85 -490.947 204.043C-371.717 83.2349 -441.012 14.8443 -321.816 -105.929C-202.62 -226.702 -133.29 -158.346 -14.0599 -279.154C105.171 -399.961 35.8751 -468.352 155.105 -589.16C274.336 -709.967 343.631 -641.577 462.896 -762.419C582.161 -883.262 512.831 -951.618 632.061 -1072.43" stroke="#F0F1F3" stroke-opacity="0.2" stroke-width="2.154" stroke-miterlimit="10"/>
<path d="M67.3594 1229.32C186.59 1108.51 255.885 1176.9 375.115 1056.09C494.346 935.284 425.05 866.893 544.247 746.12C663.443 625.347 732.772 693.703 852.003 572.895C971.233 452.087 901.938 383.697 1021.17 262.889C1140.4 142.081 1209.69 210.472 1328.96 89.6294C1448.22 -31.2131 1378.89 -99.5689 1498.12 -220.377" stroke="#F0F1F3" stroke-opacity="0.2" stroke-width="2.154" stroke-miterlimit="10"/>
<path d="M-372.188 796.08C-252.957 675.272 -183.662 743.663 -64.4314 622.855C54.7989 502.047 -14.4964 433.657 104.7 312.884C223.896 192.111 293.225 260.467 412.456 139.659C531.686 18.8511 462.391 -49.5394 581.621 -170.347C700.851 -291.155 770.147 -222.764 889.412 -343.607C1008.68 -464.449 939.347 -532.805 1058.58 -653.613" stroke="#F0F1F3" stroke-opacity="0.2" stroke-width="2.154" stroke-miterlimit="10"/>
<path d="M492.148 1660.91C611.379 1540.1 680.674 1608.49 799.905 1487.69C919.135 1366.88 849.84 1298.49 969.036 1177.72C1088.23 1056.94 1157.56 1125.3 1276.79 1004.49C1396.02 883.683 1326.73 815.293 1445.96 694.485C1565.19 573.677 1634.48 642.068 1753.75 521.225C1873.01 400.383 1803.68 332.027 1922.91 211.219" stroke="#F0F1F3" stroke-opacity="0.2" stroke-width="2.154" stroke-miterlimit="10"/>
<path d="M-589.109 600.299C-469.879 479.491 -400.584 547.882 -281.353 427.074C-162.123 306.266 -231.418 237.876 -112.222 117.103C6.97388 -3.67043 76.3035 64.6853 195.534 -56.1224C314.764 -176.93 245.469 -245.321 364.699 -366.128C483.93 -486.936 553.225 -418.546 672.49 -539.388C791.754 -660.231 722.425 -728.586 841.655 -849.394" stroke="#F0F1F3" stroke-opacity="0.2" stroke-width="2.154" stroke-miterlimit="10"/>
<path d="M275.227 1450.91C394.457 1330.1 463.752 1398.49 582.983 1277.69C702.213 1156.88 632.918 1088.49 752.114 967.716C871.31 846.943 940.639 915.299 1059.87 794.491C1179.1 673.683 1109.8 605.293 1229.04 484.485C1348.27 363.677 1417.56 432.068 1536.83 311.225C1656.09 190.383 1586.76 122.027 1705.99 1.21907" stroke="#F0F1F3" stroke-opacity="0.2" stroke-width="2.154" stroke-miterlimit="10"/>
<path d="M-162.594 1019.11C-43.3634 898.306 25.9319 966.696 145.162 845.888C264.393 725.081 195.097 656.69 314.293 535.917C433.49 415.144 502.819 483.5 622.05 362.692C741.28 241.884 671.984 173.494 791.215 52.6861C910.445 -68.1217 979.741 0.268802 1099.01 -120.574C1218.27 -241.416 1148.94 -309.772 1268.17 -430.58" stroke="#F0F1F3" stroke-opacity="0.2" stroke-width="2.154" stroke-miterlimit="10"/>
<path d="M701.742 1883.94C820.973 1763.14 890.268 1831.53 1009.5 1710.72C1128.73 1589.91 1059.43 1521.52 1178.63 1400.75C1297.83 1279.97 1367.16 1348.33 1486.39 1227.52C1605.62 1106.71 1536.32 1038.32 1655.55 917.516C1774.78 796.708 1844.08 865.099 1963.34 744.256C2082.61 623.414 2013.28 555.058 2132.51 434.25" stroke="#F0F1F3" stroke-opacity="0.2" stroke-width="2.154" stroke-miterlimit="10"/>
<path d="M-880.102 304.303C-760.871 183.495 -691.576 251.886 -572.345 131.078C-453.115 10.27 -522.41 -58.1205 -403.214 -178.894C-284.018 -299.667 -214.689 -231.311 -95.4583 -352.118C23.7721 -472.926 -45.5233 -541.317 73.7071 -662.124C192.937 -782.932 262.233 -714.542 381.497 -835.384C500.762 -956.227 431.433 -1024.58 550.663 -1145.39" stroke="#F0F1F3" stroke-opacity="0.2" stroke-width="2.154" stroke-miterlimit="10"/>
<path d="M-14.0469 1156.35C105.183 1035.54 174.479 1103.93 293.709 983.127C412.94 862.319 343.644 793.928 462.84 673.155C582.036 552.382 651.366 620.738 770.596 499.93C889.827 379.123 820.531 310.732 939.762 189.924C1058.99 69.1166 1128.29 137.507 1247.55 16.6646C1366.82 -104.178 1297.49 -172.534 1416.72 -293.341" stroke="#F0F1F3" stroke-opacity="0.2" stroke-width="2.154" stroke-miterlimit="10"/>
<path d="M-453.594 737.336C-334.363 616.528 -265.068 684.919 -145.838 564.111C-26.6073 443.303 -95.9026 374.913 23.2934 254.14C142.49 133.367 211.819 201.722 331.05 80.9147C450.28 -39.893 380.984 -108.284 500.215 -229.091C619.445 -349.899 688.741 -281.509 808.005 -402.351C927.27 -523.194 857.94 -591.549 977.171 -712.357" stroke="#F0F1F3" stroke-opacity="0.2" stroke-width="2.154" stroke-miterlimit="10"/>
<path d="M410.75 1587.95C529.98 1467.14 599.276 1535.53 718.506 1414.72C837.736 1293.91 768.441 1225.52 887.637 1104.75C1006.83 983.978 1076.16 1052.33 1195.39 931.526C1314.62 810.718 1245.33 742.328 1364.56 621.52C1483.79 500.712 1553.08 569.103 1672.35 448.26C1791.61 327.418 1722.28 259.062 1841.51 138.254" stroke="#F0F1F3" stroke-opacity="0.2" stroke-width="2.154" stroke-miterlimit="10"/>
<path d="M-670.516 527.336C-551.285 406.528 -481.99 474.919 -362.76 354.111C-243.529 233.303 -312.825 164.913 -193.628 44.1397C-74.4324 -76.6333 -5.10274 -8.27754 114.128 -129.085C233.358 -249.893 164.063 -318.284 283.293 -439.091C402.523 -559.899 471.819 -491.509 591.083 -612.351C710.348 -733.194 641.018 -801.549 760.249 -922.357" stroke="#F0F1F3" stroke-opacity="0.2" stroke-width="2.154" stroke-miterlimit="10"/>
<path d="M195.547 1379.38C314.777 1258.58 384.073 1326.97 503.303 1206.16C622.533 1085.35 553.238 1016.96 672.434 896.188C791.63 775.416 860.96 843.771 980.19 722.964C1099.42 602.156 1030.13 533.765 1149.36 412.958C1268.59 292.15 1337.88 360.54 1457.15 239.698C1576.41 118.855 1507.08 50.4995 1626.31 -70.3083" stroke="#F0F1F3" stroke-opacity="0.2" stroke-width="2.154" stroke-miterlimit="10"/>
<path d="M-244 946.152C-124.77 825.345 -55.4743 893.735 63.7561 772.927C182.986 652.12 113.691 583.729 232.887 462.956C352.083 342.183 421.413 410.539 540.643 289.731C659.874 168.923 590.578 100.533 709.809 -20.2749C829.039 -141.083 898.334 -72.6921 1017.6 -193.535C1136.86 -314.377 1067.53 -382.733 1186.76 -503.541" stroke="#F0F1F3" stroke-opacity="0.2" stroke-width="2.154" stroke-miterlimit="10"/>
<path d="M620.336 1810.98C739.566 1690.17 808.862 1758.57 928.092 1637.76C1047.32 1516.95 978.027 1448.56 1097.22 1327.79C1216.42 1207.01 1285.75 1275.37 1404.98 1154.56C1524.21 1033.75 1454.91 965.363 1574.14 844.555C1693.37 723.747 1762.67 792.138 1881.93 671.295C2001.2 550.453 1931.87 482.097 2051.1 361.289" stroke="#F0F1F3" stroke-opacity="0.2" stroke-width="2.154" stroke-miterlimit="10"/>
<path d="M-735.078 450.957C-615.848 330.149 -546.552 398.54 -427.322 277.732C-308.092 156.924 -377.387 88.5338 -258.191 -32.2392C-138.995 -153.012 -69.6652 -84.6564 49.5651 -205.464C168.796 -326.272 99.5001 -394.662 218.73 -515.47C337.961 -636.278 407.256 -567.887 526.521 -688.73C645.786 -809.572 576.456 -877.928 695.686 -998.736" stroke="#F0F1F3" stroke-opacity="0.2" stroke-width="2.154" stroke-miterlimit="10"/>
<path d="M130.984 1303.01C250.215 1182.2 319.51 1250.59 438.74 1129.78C557.971 1008.97 488.675 940.583 607.872 819.81C727.068 699.037 796.397 767.392 915.628 646.585C1034.86 525.777 965.563 457.386 1084.79 336.579C1204.02 215.771 1273.32 284.161 1392.58 163.319C1511.85 42.4764 1442.52 -25.8794 1561.75 -146.687" stroke="#F0F1F3" stroke-opacity="0.2" stroke-width="2.154" stroke-miterlimit="10"/>
<path d="M-308.57 869.77C-189.34 748.962 -120.045 817.352 -0.814246 696.545C118.416 575.737 49.1208 507.346 168.317 386.573C287.513 265.8 356.843 334.156 476.073 213.348C595.303 92.5405 526.008 24.1501 645.238 -96.6577C764.469 -217.465 833.764 -149.075 953.029 -269.917C1072.29 -390.76 1002.96 -459.116 1122.19 -579.924" stroke="#F0F1F3" stroke-opacity="0.2" stroke-width="2.154" stroke-miterlimit="10"/>
<path d="M555.766 1734.6C674.996 1613.79 744.291 1682.18 863.522 1561.37C982.752 1440.57 913.457 1372.18 1032.65 1251.4C1151.85 1130.63 1221.18 1198.99 1340.41 1078.18C1459.64 957.371 1390.34 888.98 1509.57 768.172C1628.8 647.365 1698.1 715.755 1817.36 594.913C1936.63 474.07 1867.3 405.714 1986.53 284.907" stroke="#F0F1F3" stroke-opacity="0.2" stroke-width="2.154" stroke-miterlimit="10"/>
<path d="M-525.492 673.988C-406.262 553.181 -336.966 621.571 -217.736 500.763C-98.5058 379.956 -167.801 311.565 -48.605 190.792C70.5911 70.019 139.921 138.375 259.151 17.567C378.381 -103.241 309.086 -171.631 428.316 -292.439C547.547 -413.247 616.842 -344.856 736.107 -465.699C855.372 -586.541 786.042 -654.897 905.272 -775.705" stroke="#F0F1F3" stroke-opacity="0.2" stroke-width="2.154" stroke-miterlimit="10"/>
<path d="M338.844 1524.6C458.074 1403.8 527.369 1472.19 646.6 1351.38C765.83 1230.57 696.535 1162.18 815.731 1041.41C934.927 920.634 1004.26 988.99 1123.49 868.182C1242.72 747.375 1173.42 678.984 1292.65 558.176C1411.88 437.369 1481.18 505.759 1600.44 384.917C1719.71 264.074 1650.38 195.718 1769.61 74.9105" stroke="#F0F1F3" stroke-opacity="0.2" stroke-width="2.154" stroke-miterlimit="10"/>
<path d="M-98.9844 1092.8C20.246 971.995 89.5413 1040.39 208.772 919.578C328.002 798.77 258.707 730.379 377.903 609.606C497.099 488.833 566.429 557.189 685.659 436.382C804.889 315.574 735.594 247.183 854.824 126.376C974.055 5.56776 1043.35 73.9583 1162.61 -46.8843C1281.88 -167.727 1212.55 -236.083 1331.78 -356.89" stroke="#F0F1F3" stroke-opacity="0.2" stroke-width="2.154" stroke-miterlimit="10"/>
<path d="M765.359 1957.63C884.59 1836.83 953.885 1905.22 1073.12 1784.41C1192.35 1663.6 1123.05 1595.21 1242.25 1474.44C1361.44 1353.66 1430.77 1422.02 1550 1301.21C1669.23 1180.4 1599.94 1112.01 1719.17 991.206C1838.4 870.398 1907.69 938.788 2026.96 817.946C2146.22 697.103 2076.89 628.748 2196.12 507.94" stroke="#F0F1F3" stroke-opacity="0.2" stroke-width="2.154" stroke-miterlimit="10"/>
<path d="M-278.656 911.955C-159.426 791.147 -90.1306 859.538 29.0998 738.73C148.33 617.922 79.0349 549.532 198.231 428.759C317.427 307.986 386.757 376.342 505.987 255.534C625.217 134.726 555.922 66.3356 675.152 -54.4721C794.383 -175.28 863.678 -106.889 982.943 -227.732C1102.21 -348.574 1032.88 -416.93 1152.11 -537.738" stroke="#F0F1F3" stroke-opacity="0.2" stroke-width="2.154" stroke-miterlimit="10"/>
<path d="M-914.75 270.109C-795.52 149.302 -726.224 217.692 -606.994 96.8844C-487.764 -23.9233 -557.059 -92.3139 -437.863 -213.087C-318.667 -333.86 -249.337 -265.504 -130.107 -386.312C-10.8764 -507.12 -80.1718 -575.51 39.0586 -696.318C158.289 -817.126 227.584 -748.735 346.849 -869.578C466.114 -990.42 396.784 -1058.78 516.014 -1179.58" stroke="#F0F1F3" stroke-opacity="0.2" stroke-width="2.154" stroke-miterlimit="10"/>
<path d="M-48.6875 1122.16C70.5429 1001.35 139.838 1069.74 259.069 948.933C378.299 828.125 309.004 759.735 428.2 638.962C547.396 518.189 616.725 586.545 735.956 465.737C855.186 344.929 785.891 276.539 905.121 155.731C1024.35 34.9232 1093.65 103.314 1212.91 -17.5288C1332.18 -138.371 1262.85 -206.727 1382.08 -327.535" stroke="#F0F1F3" stroke-opacity="0.2" stroke-width="2.154" stroke-miterlimit="10"/>
<path d="M-488.242 703.139C-369.012 582.331 -299.716 650.721 -180.486 529.914C-61.2558 409.106 -130.551 340.715 -11.355 219.942C107.841 99.1694 177.171 167.525 296.401 46.7174C415.631 -74.0903 346.336 -142.481 465.566 -263.289C584.797 -384.096 654.092 -315.706 773.357 -436.548C892.622 -557.391 823.292 -625.747 942.522 -746.554" stroke="#F0F1F3" stroke-opacity="0.2" stroke-width="2.154" stroke-miterlimit="10"/>
<path d="M376.094 1553.75C495.324 1432.95 564.619 1501.34 683.85 1380.53C803.08 1259.72 733.785 1191.33 852.981 1070.56C972.177 949.785 1041.51 1018.14 1160.74 897.333C1279.97 776.525 1210.67 708.134 1329.9 587.327C1449.13 466.519 1518.43 534.909 1637.69 414.067C1756.96 293.224 1687.63 224.869 1806.86 104.061" stroke="#F0F1F3" stroke-opacity="0.2" stroke-width="2.154" stroke-miterlimit="10"/>
<path d="M-705.156 493.141C-585.926 372.333 -516.631 440.723 -397.4 319.916C-278.17 199.108 -347.465 130.717 -228.269 9.94436C-109.073 -110.829 -39.7434 -42.4729 79.487 -163.281C198.717 -284.088 129.422 -352.479 248.652 -473.287C367.883 -594.094 437.178 -525.704 556.443 -646.546C675.707 -767.389 606.378 -835.745 725.608 -956.552" stroke="#F0F1F3" stroke-opacity="0.2" stroke-width="2.154" stroke-miterlimit="10"/>
<path d="M160.898 1345.19C280.129 1224.38 349.424 1292.77 468.655 1171.97C587.885 1051.16 518.59 982.768 637.786 861.995C756.982 741.222 826.311 809.578 945.542 688.77C1064.77 567.962 995.477 499.572 1114.71 378.764C1233.94 257.956 1303.23 326.347 1422.5 205.504C1541.76 84.6619 1472.43 16.3061 1591.66 -104.502" stroke="#F0F1F3" stroke-opacity="0.2" stroke-width="2.154" stroke-miterlimit="10"/>
<path d="M-833.344 343.07C-714.113 222.263 -644.818 290.653 -525.588 169.845C-406.357 49.0376 -475.653 -19.353 -356.457 -140.126C-237.26 -260.899 -167.931 -192.543 -48.7005 -313.351C70.5299 -434.159 1.2345 -502.549 120.465 -623.357C239.695 -744.165 308.991 -675.774 428.255 -796.617C547.52 -917.459 478.19 -985.815 597.421 -1106.62" stroke="#F0F1F3" stroke-opacity="0.2" stroke-width="2.154" stroke-miterlimit="10"/>
<path d="M32.7188 1195.12C151.949 1074.31 221.244 1142.7 340.475 1021.89C459.705 901.086 390.41 832.696 509.606 711.923C628.802 591.15 698.132 659.506 817.362 538.698C936.592 417.89 867.297 349.5 986.527 228.692C1105.76 107.884 1175.05 176.275 1294.32 55.4321C1413.58 -65.4104 1344.25 -133.766 1463.48 -254.574" stroke="#F0F1F3" stroke-opacity="0.2" stroke-width="2.154" stroke-miterlimit="10"/>
<path d="M-406.836 761.883C-287.606 641.075 -218.31 709.466 -99.0799 588.658C20.1505 467.85 -49.1448 399.46 70.0513 278.687C189.247 157.914 258.577 226.269 377.807 105.462C497.038 -15.3462 427.742 -83.7367 546.973 -204.544C666.203 -325.352 735.498 -256.962 854.763 -377.804C974.028 -498.647 904.698 -567.002 1023.93 -687.81" stroke="#F0F1F3" stroke-opacity="0.2" stroke-width="2.154" stroke-miterlimit="10"/>
<path d="M457.5 1626.71C576.73 1505.91 646.026 1574.3 765.256 1453.49C884.486 1332.68 815.191 1264.29 934.387 1143.52C1053.58 1022.75 1122.91 1091.1 1242.14 970.294C1361.37 849.486 1292.08 781.095 1411.31 660.288C1530.54 539.48 1599.83 607.87 1719.1 487.028C1838.36 366.185 1769.03 297.83 1888.26 177.022" stroke="#F0F1F3" stroke-opacity="0.2" stroke-width="2.154" stroke-miterlimit="10"/>
<path d="M-623.758 566.104C-504.527 445.296 -435.232 513.686 -316.002 392.879C-196.771 272.071 -266.067 203.68 -146.871 82.9072C-27.6746 -37.8657 41.6551 30.49 160.885 -90.3177C280.116 -211.125 210.82 -279.516 330.051 -400.324C449.281 -521.131 518.577 -452.741 637.841 -573.583C757.106 -694.426 687.776 -762.782 807.007 -883.59" stroke="#F0F1F3" stroke-opacity="0.2" stroke-width="2.154" stroke-miterlimit="10"/>
<path d="M240.578 1416.72C359.808 1295.91 429.104 1364.3 548.334 1243.49C667.565 1122.68 598.269 1054.29 717.465 933.521C836.661 812.748 905.991 881.103 1025.22 760.296C1144.45 639.488 1075.16 571.097 1194.39 450.29C1313.62 329.482 1382.91 397.872 1502.18 277.03C1621.44 156.187 1552.11 87.8316 1671.34 -32.9762" stroke="#F0F1F3" stroke-opacity="0.2" stroke-width="2.154" stroke-miterlimit="10"/>
<path d="M-197.25 984.92C-78.0196 864.112 -8.7243 932.503 110.506 811.695C229.736 690.887 160.441 622.497 279.637 501.724C398.833 380.951 468.163 449.306 587.393 328.499C706.624 207.691 637.328 139.3 756.559 18.4927C875.789 -102.315 945.084 -33.9246 1064.35 -154.767C1183.61 -275.61 1114.28 -343.965 1233.51 -464.773" stroke="#F0F1F3" stroke-opacity="0.2" stroke-width="2.154" stroke-miterlimit="10"/>
<path d="M667.094 1849.75C786.324 1728.94 855.619 1797.33 974.85 1676.52C1094.08 1555.71 1024.78 1487.32 1143.98 1366.55C1263.18 1245.78 1332.51 1314.13 1451.74 1193.32C1570.97 1072.52 1501.67 1004.13 1620.9 883.319C1740.13 762.511 1809.43 830.902 1928.69 710.059C2047.96 589.217 1978.63 520.861 2097.86 400.053" stroke="#F0F1F3" stroke-opacity="0.2" stroke-width="2.154" stroke-miterlimit="10"/>
</g>
</g>
</g>
<defs>
<clipPath id="clip0_805_7234">
<rect width="1440" height="851" fill="white"/>
</clipPath>
<clipPath id="clip1_805_7234">
<rect width="1436" height="1024" fill="white" transform="translate(4)"/>
</clipPath>
<clipPath id="clip2_805_7234">
<rect width="1436" height="1021" fill="white" transform="translate(4 -2)"/>
</clipPath>
</defs>
</svg>
