<svg width="27" height="12" viewBox="0 0 27 12" fill="none" xmlns="http://www.w3.org/2000/svg">
<path d="M13.0089 4.35814C13.9683 3.49593 14.9668 2.6337 15.9766 1.94296C17.2726 1.05646 18.7409 0.339844 20.3264 0.339844C23.4389 0.339844 26.0178 2.90547 26.0178 6.0017C26.0178 9.09794 23.4389 11.6635 20.3264 11.6635C18.7409 11.6635 17.2726 10.9453 15.9766 10.0604C14.9668 9.36964 13.9683 8.50748 13.0089 7.64526C12.0495 8.50748 11.0511 9.36964 10.0413 10.0604C8.74524 10.9453 7.27687 11.6635 5.6914 11.6635C2.57902 11.6635 0 9.09794 0 6.0017C0 2.90547 2.57902 0.339844 5.6914 0.339844C7.27687 0.339844 8.74524 1.05646 10.0413 1.94296C11.0511 2.6337 12.0495 3.49593 13.0089 4.35814ZM14.8204 6.0017C15.692 6.78305 16.5311 7.49321 17.3571 8.06101C18.5018 8.84233 19.471 9.23706 20.3264 9.23706C22.0923 9.23706 23.5787 7.75849 23.5787 6.0017C23.5787 4.24491 22.0923 2.76635 20.3264 2.76635C19.4728 2.76635 18.502 3.16107 17.3588 3.9424C16.5295 4.50858 15.692 5.22036 14.8204 6.0017ZM5.6914 2.76635C3.92544 2.76635 2.43917 4.24491 2.43917 6.0017C2.43917 7.75849 3.92544 9.23706 5.6914 9.23706C6.5451 9.23706 7.5159 8.84233 8.65905 8.06101C9.48837 7.49482 10.3258 6.78305 11.1974 6.0017C10.3258 5.22036 9.48675 4.5102 8.66069 3.9424C7.51428 3.16107 6.5451 2.76635 5.6914 2.76635Z" fill="white"/>
</svg>
