<svg width="32" height="32" viewBox="0 0 32 32" fill="none" xmlns="http://www.w3.org/2000/svg">
<g clip-path="url(#clip0_940_1693)">
<path fill-rule="evenodd" clip-rule="evenodd" d="M15.9974 2.66536C16.351 2.66536 16.6902 2.80584 16.9402 3.05589C17.1903 3.30594 17.3307 3.64508 17.3307 3.9987C17.3307 4.35232 17.1903 4.69146 16.9402 4.94151C16.6902 5.19156 16.351 5.33203 15.9974 5.33203H10.6641C10.3104 5.33203 9.9713 5.47251 9.72125 5.72256C9.4712 5.9726 9.33073 6.31174 9.33073 6.66536V25.332C9.33073 25.6857 9.4712 26.0248 9.72125 26.2748C9.9713 26.5249 10.3104 26.6654 10.6641 26.6654H21.3307C21.6844 26.6654 22.0235 26.5249 22.2735 26.2748C22.5236 26.0248 22.6641 25.6857 22.6641 25.332V15.9987C22.6641 15.6451 22.8045 15.3059 23.0546 15.0559C23.3046 14.8058 23.6438 14.6654 23.9974 14.6654C24.351 14.6654 24.6902 14.8058 24.9402 15.0559C25.1903 15.3059 25.3307 15.6451 25.3307 15.9987V25.332C25.3307 26.3929 24.9093 27.4103 24.1592 28.1605C23.409 28.9106 22.3916 29.332 21.3307 29.332H10.6641C9.6032 29.332 8.58578 28.9106 7.83564 28.1605C7.08549 27.4103 6.66406 26.3929 6.66406 25.332V6.66536C6.66406 5.6045 7.08549 4.58708 7.83564 3.83694C8.58578 3.08679 9.6032 2.66536 10.6641 2.66536H15.9974ZM15.9974 21.332C16.5278 21.332 17.0365 21.5427 17.4116 21.9178C17.7867 22.2929 17.9974 22.8016 17.9974 23.332C17.9974 23.8625 17.7867 24.3712 17.4116 24.7462C17.0365 25.1213 16.5278 25.332 15.9974 25.332C15.467 25.332 14.9583 25.1213 14.5832 24.7462C14.2081 24.3712 13.9974 23.8625 13.9974 23.332C13.9974 22.8016 14.2081 22.2929 14.5832 21.9178C14.9583 21.5427 15.467 21.332 15.9974 21.332ZM23.9974 1.33203C24.2755 1.33214 24.5466 1.41922 24.7728 1.58108C24.999 1.74294 25.1689 1.97148 25.2587 2.2347L25.4321 2.7387C25.6294 3.31704 25.9566 3.84248 26.3886 4.27469C26.8206 4.7069 27.3458 5.03439 27.9241 5.23203L28.4281 5.40403C28.691 5.49413 28.9192 5.66414 29.0808 5.89029C29.2423 6.11644 29.3292 6.38743 29.3292 6.66536C29.3292 6.9433 29.2423 7.21429 29.0808 7.44044C28.9192 7.66659 28.691 7.8366 28.4281 7.9267L27.9241 8.10003C27.3457 8.29736 26.8203 8.62457 26.3881 9.05655C25.9559 9.48853 25.6284 10.0138 25.4307 10.592L25.2587 11.096C25.1686 11.359 24.9986 11.5872 24.7725 11.7487C24.5463 11.9103 24.2753 11.9971 23.9974 11.9971C23.7195 11.9971 23.4485 11.9103 23.2223 11.7487C22.9962 11.5872 22.8262 11.359 22.7361 11.096L22.5627 10.592C22.3654 10.0137 22.0382 9.48825 21.6062 9.05604C21.1742 8.62383 20.649 8.29634 20.0707 8.0987L19.5667 7.9267C19.3038 7.8366 19.0756 7.66659 18.914 7.44044C18.7525 7.21429 18.6656 6.9433 18.6656 6.66536C18.6656 6.38743 18.7525 6.11644 18.914 5.89029C19.0756 5.66414 19.3038 5.49413 19.5667 5.40403L20.0707 5.2307C20.6491 5.03337 21.1745 4.70616 21.6067 4.27418C22.0389 3.8422 22.3664 3.31693 22.5641 2.7387L22.7361 2.2347C22.8259 1.97148 22.9958 1.74294 23.222 1.58108C23.4481 1.41922 23.7193 1.33214 23.9974 1.33203ZM23.9974 5.59336C23.6819 5.99025 23.3223 6.3499 22.9254 6.66536C23.3227 6.98003 23.6814 7.34003 23.9974 7.73736C24.3121 7.34003 24.6721 6.98003 25.0694 6.66536C24.6725 6.3499 24.3129 5.99025 23.9974 5.59336Z" fill="#007DFE"/>
</g>
<defs>
<clipPath id="clip0_940_1693">
<rect width="32" height="32" fill="white"/>
</clipPath>
</defs>
</svg>
