<svg width="28" height="24" viewBox="0 0 28 24" fill="none" xmlns="http://www.w3.org/2000/svg">
<path fill-rule="evenodd" clip-rule="evenodd" d="M14.0001 0C14.9992 8.19862e-05 15.9782 0.280817 16.8255 0.810215C17.6729 1.33961 18.3545 2.09639 18.7927 2.9943C19.2309 3.89221 19.408 4.89516 19.3039 5.88885C19.1999 6.88254 18.8188 7.82702 18.2041 8.61467L20.9841 13.4307C21.9457 13.2443 22.94 13.3264 23.8581 13.6678C24.7761 14.0093 25.5824 14.597 26.1885 15.3665C26.7946 16.1359 27.1771 17.0574 27.294 18.0299C27.4109 19.0024 27.2578 19.9884 26.8513 20.8796C26.4449 21.7708 25.8009 22.5328 24.9899 23.0822C24.179 23.6315 23.2324 23.9469 22.254 23.9938C21.2756 24.0407 20.3033 23.8172 19.4435 23.3479C18.5837 22.8786 17.8698 22.1816 17.3801 21.3333H10.6201C10.1303 22.1816 9.41637 22.8786 8.55661 23.3479C7.69685 23.8172 6.72446 24.0407 5.74608 23.9938C4.7677 23.9469 3.82112 23.6315 3.01016 23.0822C2.19921 22.5328 1.5552 21.7708 1.14877 20.8796C0.742337 19.9884 0.589183 19.0024 0.706104 18.0299C0.823025 17.0574 1.2055 16.1359 1.81159 15.3665C2.41768 14.597 3.22397 14.0093 4.14202 13.6678C5.06008 13.3264 6.05444 13.2443 7.01605 13.4307L9.79605 8.61333C9.18173 7.82568 8.80096 6.88133 8.6971 5.88785C8.59325 4.89437 8.77048 3.89169 9.20862 2.99401C9.64676 2.09633 10.3282 1.33974 11.1753 0.810404C12.0224 0.281072 13.0012 0.000276772 14.0001 0ZM6.00005 16C5.29281 16 4.61453 16.281 4.11444 16.781C3.61434 17.2811 3.33339 17.9594 3.33339 18.6667C3.33339 19.3739 3.61434 20.0522 4.11444 20.5523C4.61453 21.0524 5.29281 21.3333 6.00005 21.3333C6.7073 21.3333 7.38557 21.0524 7.88567 20.5523C8.38577 20.0522 8.66672 19.3739 8.66672 18.6667C8.66672 17.9594 8.38577 17.2811 7.88567 16.781C7.38557 16.281 6.7073 16 6.00005 16ZM22.0001 16C21.6499 16.0001 21.3031 16.0692 20.9796 16.2032C20.6561 16.3373 20.3622 16.5338 20.1146 16.7815C19.8671 17.0292 19.6707 17.3232 19.5368 17.6468C19.4029 17.9704 19.334 18.3171 19.3341 18.6673C19.3341 19.0175 19.4032 19.3643 19.5373 19.6878C19.6714 20.0113 19.8679 20.3052 20.1156 20.5528C20.3633 20.8003 20.6573 20.9967 20.9808 21.1306C21.3044 21.2645 21.6512 21.3334 22.0014 21.3333C22.7086 21.3332 23.3868 21.052 23.8868 20.5518C24.3868 20.0516 24.6676 19.3732 24.6674 18.666C24.6672 17.9588 24.3861 17.2806 23.8859 16.7806C23.3856 16.2806 22.7073 15.9998 22.0001 16ZM16.0694 10.2507C15.4143 10.5262 14.7107 10.6676 14.0001 10.6667C13.2667 10.6667 12.5681 10.5187 11.9307 10.2507L9.42939 14.5827C10.0262 15.0827 10.506 15.7075 10.835 16.4132C11.164 17.1188 11.3341 17.8881 11.3334 18.6667H16.6667C16.6667 17.0267 17.4081 15.56 18.5707 14.5827L16.0694 10.2507ZM14.0001 2.66667C13.2928 2.66667 12.6145 2.94762 12.1144 3.44772C11.6143 3.94781 11.3334 4.62609 11.3334 5.33333C11.3334 6.04058 11.6143 6.71885 12.1144 7.21895C12.6145 7.71905 13.2928 8 14.0001 8C14.7073 8 15.3856 7.71905 15.8857 7.21895C16.3858 6.71885 16.6667 6.04058 16.6667 5.33333C16.6667 4.62609 16.3858 3.94781 15.8857 3.44772C15.3856 2.94762 14.7073 2.66667 14.0001 2.66667Z" fill="#007DFE"/>
</svg>
