<svg width="56" height="56" viewBox="0 0 56 56" fill="none" xmlns="http://www.w3.org/2000/svg">
<path d="M0 8C0 3.58172 3.58172 0 8 0H48C52.4183 0 56 3.58172 56 8V48C56 52.4183 52.4183 56 48 56H8C3.58172 56 0 52.4183 0 48V8Z" fill="#1F2228"/>
<g clip-path="url(#clip0_1108_1742)">
<path fill-rule="evenodd" clip-rule="evenodd" d="M25.9974 17.3346C25.6629 17.3346 25.3339 17.42 25.0416 17.5829C24.7494 17.7457 24.5037 17.9806 24.3277 18.2651C24.1518 18.5497 24.0515 18.8745 24.0364 19.2087C24.0213 19.5429 24.0919 19.8754 24.2414 20.1746L24.4587 20.608C24.5675 20.8251 24.6189 21.0664 24.608 21.309C24.5972 21.5516 24.5244 21.7874 24.3966 21.9939C24.2688 22.2004 24.0903 22.3708 23.8781 22.4887C23.6658 22.6067 23.4269 22.6684 23.1841 22.668H18.6641C18.3104 22.668 17.9713 22.8084 17.7213 23.0585C17.4712 23.3085 17.3307 23.6477 17.3307 24.0013V25.5933C19.7574 25.448 21.9974 27.368 21.9974 30.0013C21.9974 32.6346 19.7574 34.5546 17.3307 34.4093V37.3346C17.3307 37.6883 17.4712 38.0274 17.7213 38.2774C17.9713 38.5275 18.3104 38.668 18.6641 38.668H21.5894C21.4441 36.2413 23.3641 34.0013 25.9974 34.0013C28.6307 34.0013 30.5507 36.2413 30.4054 38.668H31.9974C32.351 38.668 32.6902 38.5275 32.9402 38.2774C33.1903 38.0274 33.3307 37.6883 33.3307 37.3346V32.8146C33.3307 31.756 34.4441 31.068 35.3907 31.54L35.8227 31.7573C36.122 31.9067 36.4544 31.9771 36.7885 31.9619C37.1226 31.9468 37.4473 31.8464 37.7317 31.6705C38.0162 31.4946 38.2509 31.2489 38.4138 30.9568C38.5766 30.6646 38.6621 30.3358 38.6621 30.0013C38.6621 29.6669 38.5766 29.338 38.4138 29.0458C38.2509 28.7537 38.0162 28.508 37.7317 28.3321C37.4473 28.1562 37.1226 28.0558 36.7885 28.0407C36.4544 28.0255 36.122 28.0959 35.8227 28.2453L35.3907 28.4626C35.1736 28.5714 34.9323 28.6228 34.6897 28.612C34.4471 28.6011 34.2113 28.5283 34.0048 28.4005C33.7983 28.2727 33.6279 28.0942 33.51 27.882C33.392 27.6697 33.3303 27.4308 33.3307 27.188V24.0013C33.3307 23.6477 33.1903 23.3085 32.9402 23.0585C32.6902 22.8084 32.351 22.668 31.9974 22.668H28.8107C27.7521 22.668 27.0641 21.5546 27.5361 20.608L27.7534 20.1746C27.9029 19.8754 27.9735 19.5429 27.9584 19.2087C27.9433 18.8745 27.843 18.5497 27.6671 18.2651C27.4911 17.9806 27.2454 17.7457 26.9532 17.5829C26.6609 17.42 26.3319 17.3346 25.9974 17.3346ZM21.4161 20.0013C20.9947 17.312 23.0561 14.668 25.9974 14.668C28.9374 14.668 31.0001 17.312 30.5787 20.0013H31.9974C33.0583 20.0013 34.0757 20.4227 34.8258 21.1729C35.576 21.923 35.9974 22.9404 35.9974 24.0013V25.42C38.6867 24.9986 41.3307 27.06 41.3307 30.0013C41.3307 32.9413 38.6867 35.004 35.9974 34.5826V37.3346C35.9974 38.3955 35.576 39.4129 34.8258 40.1631C34.0757 40.9132 33.0583 41.3346 31.9974 41.3346H28.7881C28.5537 41.3349 28.3229 41.2769 28.1165 41.166C27.9101 41.055 27.7345 40.8944 27.6054 40.6988C27.4764 40.5031 27.398 40.2785 27.3773 40.045C27.3566 39.8116 27.3942 39.5766 27.4867 39.3613L27.6001 39.0986C27.7139 38.8334 27.7601 38.544 27.7345 38.2564C27.709 37.9689 27.6124 37.6922 27.4536 37.4512C27.2947 37.2101 27.0785 37.0123 26.8244 36.8754C26.5702 36.7385 26.2861 36.6669 25.9974 36.6669C25.7087 36.6669 25.4246 36.7385 25.1704 36.8754C24.9163 37.0123 24.7001 37.2101 24.5412 37.4512C24.3824 37.6922 24.2858 37.9689 24.2602 38.2564C24.2347 38.544 24.2809 38.8334 24.3947 39.0986L24.5081 39.3626C24.9081 40.296 24.2227 41.3346 23.2067 41.3346H18.6641C17.6032 41.3346 16.5858 40.9132 15.8356 40.1631C15.0855 39.4129 14.6641 38.3955 14.6641 37.3346V32.792C14.6641 31.776 15.7027 31.0906 16.6374 31.4906L16.9001 31.604C17.1653 31.7178 17.4547 31.764 17.7423 31.7384C18.0298 31.7129 18.3065 31.6163 18.5475 31.4575C18.7886 31.2986 18.9864 31.0824 19.1233 30.8283C19.2602 30.5741 19.3318 30.29 19.3318 30.0013C19.3318 29.7126 19.2602 29.4285 19.1233 29.1743C18.9864 28.9202 18.7886 28.704 18.5475 28.5451C18.3065 28.3863 18.0298 28.2897 17.7423 28.2642C17.4547 28.2386 17.1653 28.2848 16.9001 28.3986L16.6361 28.512C15.7027 28.912 14.6641 28.2266 14.6641 27.2106V24.0013C14.6641 22.9404 15.0855 21.923 15.8356 21.1729C16.5858 20.4227 17.6032 20.0013 18.6641 20.0013H21.4161Z" fill="#007DFE"/>
</g>
<defs>
<clipPath id="clip0_1108_1742">
<rect width="32" height="32" fill="white" transform="translate(12 12)"/>
</clipPath>
</defs>
</svg>
