<svg width="32" height="32" viewBox="0 0 32 32" fill="none" xmlns="http://www.w3.org/2000/svg">
<path fill-rule="evenodd" clip-rule="evenodd" d="M17.6422 1.81179C18.4848 0.801119 20.1262 1.49179 19.9928 2.80112L19.0515 11.9985H26.6662C26.9195 11.9985 27.1676 12.0708 27.3814 12.2068C27.5951 12.3428 27.7657 12.5369 27.8732 12.7663C27.9806 12.9958 28.0205 13.2511 27.988 13.5023C27.9556 13.7536 27.8523 13.9905 27.6902 14.1851L14.3568 30.1851C13.5142 31.1958 11.8728 30.5051 12.0062 29.1958L12.9475 19.9985H5.33283C5.07948 19.9984 4.8314 19.9261 4.61764 19.7901C4.40388 19.6541 4.23329 19.46 4.12584 19.2306C4.0184 19.0011 3.97855 18.7458 4.01095 18.4946C4.04336 18.2433 4.14669 18.0065 4.30883 17.8118L17.6422 1.81179ZM8.1795 17.3318H15.3102C15.3847 17.3318 15.4584 17.3474 15.5265 17.3776C15.5947 17.4079 15.6557 17.4521 15.7057 17.5073C15.7557 17.5626 15.7936 17.6278 15.8168 17.6986C15.8401 17.7694 15.8483 17.8443 15.8408 17.9185L15.1035 25.1251L23.8195 14.6651H16.6888C16.6143 14.6651 16.5406 14.6495 16.4725 14.6193C16.4043 14.589 16.3433 14.5448 16.2933 14.4896C16.2433 14.4343 16.2054 14.3691 16.1822 14.2983C16.1589 14.2275 16.1507 14.1526 16.1582 14.0785L16.8955 6.87312L8.1795 17.3318Z" fill="#007DFE"/>
</svg>
