<svg width="56" height="56" viewBox="0 0 56 56" fill="none" xmlns="http://www.w3.org/2000/svg">
<path d="M0 8C0 3.58172 3.58172 0 8 0H48C52.4183 0 56 3.58172 56 8V48C56 52.4183 52.4183 56 48 56H8C3.58172 56 0 52.4183 0 48V8Z" fill="#1F2228"/>
<g clip-path="url(#clip0_1108_1782)">
<path d="M36.0002 18.668C36.3539 18.668 36.693 18.8084 36.9431 19.0585C37.1931 19.3085 37.3336 19.6477 37.3336 20.0013V30.668C37.3336 31.0216 37.1931 31.3607 36.9431 31.6108C36.693 31.8608 36.3539 32.0013 36.0002 32.0013C35.6466 32.0013 35.3075 31.8608 35.0574 31.6108C34.8074 31.3607 34.6669 31.0216 34.6669 30.668V23.22L21.4002 36.4866C21.1488 36.7295 20.812 36.8639 20.4624 36.8609C20.1128 36.8578 19.7784 36.7176 19.5311 36.4704C19.2839 36.2232 19.1437 35.8888 19.1407 35.5392C19.1376 35.1896 19.272 34.8528 19.5149 34.6013L32.7816 21.3346H25.3336C24.98 21.3346 24.6408 21.1942 24.3908 20.9441C24.1407 20.6941 24.0002 20.3549 24.0002 20.0013C24.0002 19.6477 24.1407 19.3085 24.3908 19.0585C24.6408 18.8084 24.98 18.668 25.3336 18.668H36.0002Z" fill="#007DFE"/>
</g>
<defs>
<clipPath id="clip0_1108_1782">
<rect width="32" height="32" fill="white" transform="translate(12 12)"/>
</clipPath>
</defs>
</svg>
