<svg width="32" height="32" viewBox="0 0 32 32" fill="none" xmlns="http://www.w3.org/2000/svg">
<path fill-rule="evenodd" clip-rule="evenodd" d="M15.9974 4C16.351 4 16.6902 4.14048 16.9402 4.39052C17.1903 4.64057 17.3307 4.97971 17.3307 5.33333V6.66667H18.3494C18.7632 6.66669 19.1713 6.76301 19.5414 6.948L21.6454 8H26.6641C27.0177 8 27.3568 8.14048 27.6069 8.39052C27.8569 8.64057 27.9974 8.97971 27.9974 9.33333C27.9974 9.68696 27.8569 10.0261 27.6069 10.2761C27.3568 10.5262 27.0177 10.6667 26.6641 10.6667H26.1547L29.1894 16.7373C29.2827 16.9227 29.3307 17.1267 29.3307 17.3333C29.3307 18.7478 28.7688 20.1044 27.7686 21.1046C26.7684 22.1048 25.4119 22.6667 23.9974 22.6667C22.5829 22.6667 21.2264 22.1048 20.2262 21.1046C19.226 20.1044 18.6641 18.7478 18.6641 17.3333C18.6641 17.1267 18.7121 16.9227 18.8054 16.7373L21.8401 10.6667H21.6454C21.2316 10.6666 20.8235 10.5703 20.4534 10.3853L18.3494 9.33333H17.3307V25.3333H21.3307C21.6844 25.3333 22.0235 25.4738 22.2735 25.7239C22.5236 25.9739 22.6641 26.313 22.6641 26.6667C22.6641 27.0203 22.5236 27.3594 22.2735 27.6095C22.0235 27.8595 21.6844 28 21.3307 28H10.6641C10.3104 28 9.9713 27.8595 9.72125 27.6095C9.4712 27.3594 9.33073 27.0203 9.33073 26.6667C9.33073 26.313 9.4712 25.9739 9.72125 25.7239C9.9713 25.4738 10.3104 25.3333 10.6641 25.3333H14.6641V9.33333H13.6454L11.5414 10.3853C11.1713 10.5703 10.7632 10.6666 10.3494 10.6667H10.1547L13.1894 16.7373C13.2821 16.9223 13.3305 17.1264 13.3307 17.3333C13.3307 18.7478 12.7688 20.1044 11.7686 21.1046C10.7684 22.1048 9.41188 22.6667 7.9974 22.6667C6.58291 22.6667 5.22635 22.1048 4.22616 21.1046C3.22597 20.1044 2.66406 18.7478 2.66406 17.3333C2.66428 17.1264 2.71267 16.9223 2.8054 16.7373L5.84006 10.6667H5.33073C4.97711 10.6667 4.63797 10.5262 4.38792 10.2761C4.13787 10.0261 3.9974 9.68696 3.9974 9.33333C3.9974 8.97971 4.13787 8.64057 4.38792 8.39052C4.63797 8.14048 4.97711 8 5.33073 8H10.3494L12.4534 6.948C12.8235 6.76301 13.2316 6.66669 13.6454 6.66667H14.6641V5.33333C14.6641 4.97971 14.8045 4.64057 15.0546 4.39052C15.3046 4.14048 15.6438 4 15.9974 4ZM7.9974 12.3147L5.3454 17.6173C5.41441 18.2726 5.72356 18.8791 6.21325 19.3199C6.70295 19.7608 7.33851 20.0047 7.9974 20.0047C8.65628 20.0047 9.29184 19.7608 9.78154 19.3199C10.2712 18.8791 10.5804 18.2726 10.6494 17.6173L7.9974 12.3147ZM23.9974 12.3147L21.3454 17.6173C21.4126 18.2544 21.7069 18.8459 22.1745 19.2837C22.642 19.7216 23.2515 19.9766 23.8916 20.002C24.5316 20.0274 25.1594 19.8216 25.6602 19.4221C26.1609 19.0227 26.5012 18.4563 26.6187 17.8267L26.6494 17.6187L23.9974 12.3147Z" fill="#007DFE"/>
</svg>
