<svg width="32" height="32" viewBox="0 0 32 32" fill="none" xmlns="http://www.w3.org/2000/svg">
<g clip-path="url(#clip0_1216_1929)">
<path d="M24.0002 6.66797C24.3539 6.66797 24.693 6.80844 24.9431 7.05849C25.1931 7.30854 25.3336 7.64768 25.3336 8.0013V18.668C25.3336 19.0216 25.1931 19.3607 24.9431 19.6108C24.693 19.8608 24.3539 20.0013 24.0002 20.0013C23.6466 20.0013 23.3075 19.8608 23.0574 19.6108C22.8074 19.3607 22.6669 19.0216 22.6669 18.668V11.22L9.40024 24.4866C9.14877 24.7295 8.81197 24.8639 8.46237 24.8609C8.11278 24.8578 7.77836 24.7176 7.53115 24.4704C7.28394 24.2232 7.14371 23.8888 7.14068 23.5392C7.13764 23.1896 7.27203 22.8528 7.51491 22.6013L20.7816 9.33464H13.3336C12.98 9.33464 12.6408 9.19416 12.3908 8.94411C12.1407 8.69406 12.0002 8.35492 12.0002 8.0013C12.0002 7.64768 12.1407 7.30854 12.3908 7.05849C12.6408 6.80844 12.98 6.66797 13.3336 6.66797H24.0002Z" fill="#007DFE"/>
</g>
<defs>
<clipPath id="clip0_1216_1929">
<rect width="32" height="32" fill="white"/>
</clipPath>
</defs>
</svg>
