<svg width="32" height="32" viewBox="0 0 32 32" fill="none" xmlns="http://www.w3.org/2000/svg">
<path d="M15.064 2.9269C15.5902 2.73004 16.1651 2.70438 16.7067 2.85357L16.936 2.9269L26.2693 6.42691C26.7426 6.60436 27.1556 6.91265 27.4604 7.31584C27.7652 7.71904 27.9491 8.20054 27.9907 8.70424L28 8.92424V16.0749C27.9999 18.2355 27.4166 20.3559 26.3115 22.2125C25.2064 24.069 23.6205 25.5928 21.7213 26.6229L21.3667 26.8082L16.8947 29.0442C16.6484 29.1672 16.3795 29.238 16.1046 29.2522C15.8298 29.2664 15.5549 29.2238 15.2973 29.1269L15.1053 29.0442L10.6333 26.8082C8.70081 25.842 7.06503 24.3718 5.89867 22.5531C4.73231 20.7343 4.07864 18.6343 4.00667 16.4749L4 16.0749V8.92424C4.00001 8.41908 4.1435 7.92431 4.41378 7.49753C4.68405 7.07076 5.06999 6.72953 5.52667 6.51357L5.73067 6.42691L15.064 2.9269ZM16 5.42424L6.66667 8.92424V16.0749C6.6667 17.7482 7.1166 19.3908 7.96927 20.8306C8.82194 22.2704 10.046 23.4545 11.5133 24.2589L11.8267 24.4229L16 26.5096L20.1733 24.4229C21.6703 23.6746 22.9385 22.5375 23.8452 21.1307C24.7518 19.724 25.2635 18.0993 25.3267 16.4269L25.3333 16.0749V8.92424L16 5.42424ZM20.5773 11.5056C20.8173 11.2664 21.1392 11.1276 21.4778 11.1173C21.8164 11.1069 22.1463 11.2259 22.4004 11.4499C22.6545 11.6739 22.8137 11.9863 22.8459 12.3235C22.878 12.6608 22.7806 12.9976 22.5733 13.2656L22.4627 13.3909L15.484 20.3709C15.2298 20.6251 14.8911 20.777 14.5322 20.7979C14.1734 20.8188 13.8193 20.7072 13.5373 20.4842L13.4093 20.3709L10.204 17.1656C9.96233 16.9262 9.82129 16.6035 9.80976 16.2635C9.79822 15.9235 9.91706 15.592 10.142 15.3368C10.3668 15.0816 10.6808 14.922 11.0195 14.8906C11.3582 14.8593 11.6961 14.9586 11.964 15.1682L12.0893 15.2789L14.4467 17.6362L20.5773 11.5056Z" fill="#007DFE"/>
</svg>
