<svg width="32" height="32" viewBox="0 0 32 32" fill="none" xmlns="http://www.w3.org/2000/svg">
<path fill-rule="evenodd" clip-rule="evenodd" d="M8.0026 2.66797C7.29536 2.66797 6.61708 2.94892 6.11699 3.44902C5.61689 3.94911 5.33594 4.62739 5.33594 5.33464V10.668H26.6693V5.33464C26.6693 4.62739 26.3883 3.94911 25.8882 3.44902C25.3881 2.94892 24.7098 2.66797 24.0026 2.66797H8.0026ZM14.6693 5.33464C14.3156 5.33464 13.9765 5.47511 13.7265 5.72516C13.4764 5.97521 13.3359 6.31435 13.3359 6.66797C13.3359 7.02159 13.4764 7.36073 13.7265 7.61078C13.9765 7.86083 14.3156 8.0013 14.6693 8.0013H17.3359C17.6896 8.0013 18.0287 7.86083 18.2787 7.61078C18.5288 7.36073 18.6693 7.02159 18.6693 6.66797C18.6693 6.31435 18.5288 5.97521 18.2787 5.72516C18.0287 5.47511 17.6896 5.33464 17.3359 5.33464H14.6693ZM26.6693 13.3346H5.33594V18.668H26.6693V13.3346ZM13.3359 16.0013C13.3359 15.6477 13.4764 15.3085 13.7265 15.0585C13.9765 14.8084 14.3156 14.668 14.6693 14.668H17.3359C17.6896 14.668 18.0287 14.8084 18.2787 15.0585C18.5288 15.3085 18.6693 15.6477 18.6693 16.0013C18.6693 16.3549 18.5288 16.6941 18.2787 16.9441C18.0287 17.1942 17.6896 17.3346 17.3359 17.3346H14.6693C14.3156 17.3346 13.9765 17.1942 13.7265 16.9441C13.4764 16.6941 13.3359 16.3549 13.3359 16.0013ZM5.33594 26.668V21.3346H26.6693V26.668C26.6693 27.3752 26.3883 28.0535 25.8882 28.5536C25.3881 29.0537 24.7098 29.3346 24.0026 29.3346H8.0026C7.29536 29.3346 6.61708 29.0537 6.11699 28.5536C5.61689 28.0535 5.33594 27.3752 5.33594 26.668ZM14.6693 24.0013C14.3156 24.0013 13.9765 24.1418 13.7265 24.3918C13.4764 24.6419 13.3359 24.981 13.3359 25.3346C13.3359 25.6883 13.4764 26.0274 13.7265 26.2774C13.9765 26.5275 14.3156 26.668 14.6693 26.668H17.3359C17.6896 26.668 18.0287 26.5275 18.2787 26.2774C18.5288 26.0274 18.6693 25.6883 18.6693 25.3346C18.6693 24.981 18.5288 24.6419 18.2787 24.3918C18.0287 24.1418 17.6896 24.0013 17.3359 24.0013H14.6693Z" fill="#007DFE"/>
</svg>
