<svg width="32" height="32" viewBox="0 0 32 32" fill="none" xmlns="http://www.w3.org/2000/svg">
<path d="M5.33333 5.33203C5.65991 5.33207 5.97512 5.45197 6.21916 5.66898C6.46321 5.886 6.61912 6.18503 6.65733 6.50936L6.66667 6.66536V23.9987H26.6667C27.0065 23.9991 27.3334 24.1292 27.5805 24.3625C27.8276 24.5958 27.9763 24.9146 27.9962 25.2539C28.0161 25.5931 27.9058 25.9272 27.6876 26.1878C27.4695 26.4484 27.1601 26.6159 26.8227 26.656L26.6667 26.6654H5.33333C5.00676 26.6653 4.69155 26.5454 4.4475 26.3284C4.20346 26.1114 4.04754 25.8124 4.00933 25.488L4 25.332V6.66536C4 6.31174 4.14048 5.9726 4.39052 5.72256C4.64057 5.47251 4.97971 5.33203 5.33333 5.33203ZM26.9253 9.08936C28.1253 9.08936 28.7253 10.54 27.8773 11.388L20.4507 18.8147C20.1756 19.0895 19.8028 19.2439 19.414 19.2439C19.0252 19.2439 18.6524 19.0895 18.3773 18.8147L14.7 15.1374L9.98667 19.8507C9.73666 20.1009 9.3975 20.2415 9.04381 20.2416C8.69011 20.2418 8.35085 20.1014 8.10067 19.8514C7.85048 19.6014 7.70986 19.2622 7.70973 18.9085C7.70961 18.5548 7.84999 18.2156 8.1 17.9654L13.6627 12.4027C13.7989 12.2664 13.9606 12.1583 14.1386 12.0846C14.3166 12.0108 14.5073 11.9729 14.7 11.9729C14.8927 11.9729 15.0834 12.0108 15.2614 12.0846C15.4394 12.1583 15.6011 12.2664 15.7373 12.4027L19.4147 16.08L23.7373 11.756H23.1853C22.8317 11.756 22.4926 11.6156 22.2425 11.3655C21.9925 11.1155 21.852 10.7763 21.852 10.4227C21.852 10.0691 21.9925 9.72994 22.2425 9.47989C22.4926 9.22984 22.8317 9.08936 23.1853 9.08936H26.9253Z" fill="#007DFE"/>
</svg>
