<svg width="32" height="32" viewBox="0 0 32 32" fill="none" xmlns="http://www.w3.org/2000/svg">
<path fill-rule="evenodd" clip-rule="evenodd" d="M13.3121 5.67464C12.9787 6.78797 12.6947 8.0613 12.4774 9.4613C14.821 9.29132 17.1738 9.29132 19.5174 9.4613C19.3258 8.18153 19.0469 6.91636 18.6827 5.67464C17.8056 5.44796 16.9033 5.33371 15.9974 5.33464C15.0681 5.33464 14.1694 5.4533 13.3121 5.67464ZM21.7814 7.0373C21.9654 7.8933 22.1241 8.79864 22.2534 9.74397C23.2001 9.87464 24.1067 10.0333 24.9614 10.2173C24.1379 8.94459 23.0541 7.86079 21.7814 7.0373ZM26.3241 13.316C25.2107 12.9826 23.9374 12.6986 22.5374 12.4813C22.7073 14.8249 22.7073 17.1777 22.5374 19.5213C23.8172 19.3297 25.0823 19.0508 26.3241 18.6866C26.5508 17.8096 26.665 16.9072 26.6641 16.0013C26.6641 15.072 26.5454 14.1733 26.3241 13.316ZM24.9614 21.7853C24.0655 21.9769 23.1626 22.1344 22.2547 22.2573C22.1314 23.1657 21.9735 24.069 21.7814 24.9653C23.0541 24.1418 24.1379 23.058 24.9614 21.7853ZM18.6827 26.328C19.0161 25.2146 19.3001 23.9413 19.5174 22.5413C17.1738 22.7112 14.821 22.7112 12.4774 22.5413C12.6947 23.9413 12.9774 25.2146 13.3121 26.328C14.1891 26.5547 15.0915 26.6689 15.9974 26.668C16.9267 26.668 17.8254 26.5493 18.6827 26.328ZM10.2134 24.9653C10.0217 24.0694 9.86429 23.1665 9.7414 22.2586C8.83305 22.1353 7.92973 21.9774 7.0334 21.7853C7.85689 23.058 8.94068 24.1418 10.2134 24.9653ZM5.67073 18.6866C6.78407 19.02 8.0574 19.304 9.4574 19.5213C9.2874 17.1777 9.2874 14.8249 9.4574 12.4813C8.17764 12.6729 6.91247 12.9518 5.67073 13.316C5.44404 14.1931 5.32979 15.0954 5.33073 16.0013C5.33073 16.9306 5.4494 17.8293 5.67073 18.6866ZM7.0334 10.2173C7.9293 10.0256 8.83218 9.8682 9.74007 9.7453C9.87073 8.79864 10.0294 7.89197 10.2134 7.0373C8.94068 7.86079 7.85689 8.94459 7.0334 10.2173ZM12.1561 12.1613C12.0493 13.4385 11.9963 14.7196 11.9974 16.0013C11.9974 17.332 12.0534 18.6186 12.1574 19.8413C13.3801 19.9453 14.6667 20.0013 15.9974 20.0013C17.3281 20.0013 18.6147 19.9453 19.8374 19.8413C19.9414 18.6186 19.9974 17.332 19.9974 16.0013C19.9974 14.6706 19.9414 13.384 19.8374 12.1613C18.5602 12.054 17.2791 12.0007 15.9974 12.0013C14.6667 12.0013 13.3787 12.0573 12.1561 12.1613ZM11.8427 3.33064C13.1838 2.89109 14.5862 2.66742 15.9974 2.66797C17.4467 2.66797 18.8441 2.89997 20.1534 3.3293C24.1747 4.64664 27.3521 7.82264 28.6694 11.8453C29.0987 13.1546 29.3307 14.552 29.3307 16.0013C29.3322 17.4128 29.1095 18.8157 28.6707 20.1573C28.0166 22.1444 26.9052 23.9501 25.4258 25.4292C23.9465 26.9083 22.1406 28.0195 20.1534 28.6733C18.8118 29.1125 17.409 29.3357 15.9974 29.3346C14.5859 29.3361 13.183 29.1134 11.8414 28.6746C9.85434 28.0205 8.04859 26.9091 6.56947 25.4297C5.09036 23.9504 3.97919 22.1445 3.3254 20.1573C2.88617 18.8158 2.66294 17.4129 2.66407 16.0013C2.66407 14.552 2.89607 13.1546 3.3254 11.8453C3.97937 9.85839 5.09061 8.05273 6.56972 6.57362C8.04882 5.09452 9.85449 3.98327 11.8414 3.3293" fill="#007DFE"/>
</svg>
