<svg width="32" height="32" viewBox="0 0 32 32" fill="none" xmlns="http://www.w3.org/2000/svg">
<g clip-path="url(#clip0_940_1774)">
<path d="M14.6652 15.9983C14.9918 15.9983 15.307 16.1182 15.551 16.3352C15.7951 16.5522 15.951 16.8513 15.9892 17.1756L15.9985 17.3316V23.9983C15.9982 24.3381 15.868 24.665 15.6347 24.9121C15.4015 25.1592 15.0826 25.3079 14.7434 25.3278C14.4041 25.3477 14.07 25.2374 13.8094 25.0192C13.5488 24.8011 13.3813 24.4917 13.3412 24.1543L13.3319 23.9983V20.5503L6.27454 27.6076C6.0346 27.8467 5.71263 27.9856 5.37403 27.9959C5.03543 28.0062 4.70559 27.8873 4.45151 27.6633C4.19742 27.4392 4.03814 27.1269 4.00601 26.7896C3.97389 26.4524 4.07133 26.1156 4.27854 25.8476L4.38921 25.7223L11.4465 18.6649H7.99854C7.6587 18.6645 7.33183 18.5344 7.08472 18.3011C6.8376 18.0678 6.6889 17.749 6.66898 17.4097C6.64907 17.0705 6.75944 16.7364 6.97756 16.4758C7.19568 16.2152 7.50508 16.0477 7.84254 16.0076L7.99854 15.9983H14.6652ZM25.7225 4.38893C25.9625 4.1498 26.2845 4.01096 26.6231 4.00062C26.9617 3.99028 27.2915 4.10921 27.5456 4.33326C27.7997 4.5573 27.9589 4.86966 27.9911 5.20689C28.0232 5.54412 27.9258 5.88094 27.7185 6.14893L27.6079 6.27426L20.5505 13.3316H23.9985C24.3384 13.332 24.6653 13.4621 24.9124 13.6954C25.1595 13.9287 25.3082 14.2475 25.3281 14.5868C25.348 14.926 25.2376 15.2601 25.0195 15.5207C24.8014 15.7813 24.492 15.9488 24.1545 15.9889L23.9985 15.9983H17.3319C17.0053 15.9982 16.6901 15.8783 16.446 15.6613C16.202 15.4443 16.0461 15.1453 16.0079 14.8209L15.9985 14.6649V7.99826C15.9989 7.65842 16.129 7.33155 16.3623 7.08443C16.5956 6.83732 16.9145 6.68861 17.2537 6.6687C17.593 6.64878 17.927 6.75916 18.1877 6.97728C18.4483 7.1954 18.6157 7.5048 18.6559 7.84226L18.6652 7.99826V11.4463L25.7225 4.38893Z" fill="#007DFE"/>
</g>
<defs>
<clipPath id="clip0_940_1774">
<rect width="32" height="32" fill="white"/>
</clipPath>
</defs>
</svg>
