<svg width="32" height="32" viewBox="0 0 32 32" fill="none" xmlns="http://www.w3.org/2000/svg">
<g clip-path="url(#clip0_940_1758)">
<path fill-rule="evenodd" clip-rule="evenodd" d="M13.3307 4.0013C13.3307 3.64768 13.1903 3.30854 12.9402 3.05849C12.6902 2.80844 12.351 2.66797 11.9974 2.66797C11.6438 2.66797 11.3046 2.80844 11.0546 3.05849C10.8045 3.30854 10.6641 3.64768 10.6641 4.0013V6.66797C10.6641 7.02159 10.8045 7.36073 11.0546 7.61078C11.3046 7.86083 11.6438 8.0013 11.9974 8.0013C12.351 8.0013 12.6902 7.86083 12.9402 7.61078C13.1903 7.36073 13.3307 7.02159 13.3307 6.66797V4.0013ZM7.28273 5.4013C7.15973 5.27396 7.01261 5.17238 6.84994 5.1025C6.68726 5.03262 6.5123 4.99584 6.33526 4.9943C6.15823 4.99276 5.98265 5.0265 5.81879 5.09354C5.65493 5.16058 5.50606 5.25958 5.38087 5.38477C5.25568 5.50997 5.15667 5.65883 5.08963 5.8227C5.02259 5.98656 4.98886 6.16213 4.9904 6.33917C4.99193 6.51621 5.02872 6.69117 5.09859 6.85384C5.16847 7.01651 5.27005 7.16364 5.3974 7.28664L7.28273 9.17464C7.4067 9.2986 7.55387 9.39694 7.71584 9.46403C7.87781 9.53112 8.05141 9.56565 8.22673 9.56565C8.40205 9.56565 8.57565 9.53112 8.73762 9.46403C8.89959 9.39694 9.04676 9.2986 9.17073 9.17464C9.2947 9.05067 9.39303 8.9035 9.46012 8.74152C9.52722 8.57955 9.56175 8.40595 9.56175 8.23064C9.56175 8.05532 9.52722 7.88172 9.46012 7.71975C9.39303 7.55777 9.2947 7.4106 9.17073 7.28664L7.28273 5.4013ZM13.0507 10.948C11.7481 10.5133 10.5094 11.752 10.9441 13.0546L15.6534 27.1853C16.1294 28.6146 18.1067 28.7293 18.7441 27.364L21.4854 21.4893L27.3601 18.7493C28.7254 18.112 28.6107 16.1333 27.1814 15.6573L13.0507 10.948ZM17.3894 23.9613L14.1054 14.1093L23.9587 17.3933L20.0281 19.2266C19.6734 19.3922 19.3883 19.6773 19.2227 20.032L17.3894 23.9613ZM18.5974 5.4013C18.8474 5.65134 18.9878 5.99042 18.9878 6.34397C18.9878 6.69752 18.8474 7.0366 18.5974 7.28664L16.7121 9.17464C16.5882 9.29852 16.4411 9.39678 16.2793 9.46383C16.1174 9.53087 15.9439 9.56538 15.7687 9.56538C15.5935 9.56538 15.4201 9.53087 15.2582 9.46383C15.0963 9.39678 14.9493 9.29852 14.8254 9.17464C14.7015 9.05076 14.6032 8.90369 14.5362 8.74183C14.4692 8.57997 14.4347 8.4065 14.4347 8.2313C14.4347 8.05611 14.4692 7.88263 14.5362 7.72077C14.6032 7.55892 14.7015 7.41185 14.8254 7.28797L16.7121 5.40264C16.9621 5.15267 17.3012 5.01225 17.6547 5.01225C18.0083 5.01225 18.3474 5.15134 18.5974 5.4013ZM2.66406 12.0013C2.66406 11.6477 2.80454 11.3085 3.05459 11.0585C3.30464 10.8084 3.64377 10.668 3.9974 10.668H6.66406C7.01768 10.668 7.35682 10.8084 7.60687 11.0585C7.85692 11.3085 7.9974 11.6477 7.9974 12.0013C7.9974 12.3549 7.85692 12.6941 7.60687 12.9441C7.35682 13.1942 7.01768 13.3346 6.66406 13.3346H3.9974C3.64377 13.3346 3.30464 13.1942 3.05459 12.9441C2.80454 12.6941 2.66406 12.3549 2.66406 12.0013ZM9.1694 16.716C9.29328 16.5922 9.39156 16.4452 9.45864 16.2834C9.52572 16.1216 9.56027 15.9482 9.56033 15.7731C9.56039 15.598 9.52596 15.4245 9.459 15.2627C9.39204 15.1009 9.29386 14.9538 9.17006 14.83C9.04627 14.7061 8.89929 14.6078 8.73751 14.5407C8.57574 14.4736 8.40233 14.4391 8.2272 14.439C8.05207 14.439 7.87864 14.4734 7.71682 14.5404C7.55499 14.6073 7.40794 14.7055 7.28406 14.8293L5.3974 16.7173C5.14739 16.9675 5.007 17.3067 5.00713 17.6604C5.00725 18.0141 5.14787 18.3533 5.39806 18.6033C5.64825 18.8533 5.98751 18.9937 6.3412 18.9936C6.69489 18.9934 7.03405 18.8528 7.28406 18.6026L9.1694 16.716Z" fill="#007DFE"/>
</g>
<defs>
<clipPath id="clip0_940_1758">
<rect width="32" height="32" fill="white"/>
</clipPath>
</defs>
</svg>
