<svg width="24" height="29" viewBox="0 0 24 29" fill="none" xmlns="http://www.w3.org/2000/svg">
<path fill-rule="evenodd" clip-rule="evenodd" d="M10.0013 1.66732C10.3549 1.66732 10.6941 1.80779 10.9441 2.05784C11.1942 2.30789 11.3346 2.64703 11.3346 3.00065C11.3346 3.35427 11.1942 3.69341 10.9441 3.94346C10.6941 4.19351 10.3549 4.33398 10.0013 4.33398H4.66797C4.31435 4.33398 3.97521 4.47446 3.72516 4.72451C3.47511 4.97456 3.33464 5.3137 3.33464 5.66732V24.334C3.33464 24.6876 3.47511 25.0267 3.72516 25.2768C3.97521 25.5268 4.31435 25.6673 4.66797 25.6673H15.3346C15.6883 25.6673 16.0274 25.5268 16.2774 25.2768C16.5275 25.0267 16.668 24.6876 16.668 24.334V15.0007C16.668 14.647 16.8084 14.3079 17.0585 14.0578C17.3085 13.8078 17.6477 13.6673 18.0013 13.6673C18.3549 13.6673 18.6941 13.8078 18.9441 14.0578C19.1942 14.3079 19.3346 14.647 19.3346 15.0007V24.334C19.3346 25.3949 18.9132 26.4123 18.1631 27.1624C17.4129 27.9126 16.3955 28.334 15.3346 28.334H4.66797C3.6071 28.334 2.58969 27.9126 1.83954 27.1624C1.0894 26.4123 0.667969 25.3949 0.667969 24.334V5.66732C0.667969 4.60645 1.0894 3.58904 1.83954 2.83889C2.58969 2.08875 3.6071 1.66732 4.66797 1.66732H10.0013ZM10.0013 20.334C10.5317 20.334 11.0404 20.5447 11.4155 20.9198C11.7906 21.2948 12.0013 21.8036 12.0013 22.334C12.0013 22.8644 11.7906 23.3731 11.4155 23.7482C11.0404 24.1233 10.5317 24.334 10.0013 24.334C9.47087 24.334 8.96216 24.1233 8.58709 23.7482C8.21202 23.3731 8.0013 22.8644 8.0013 22.334C8.0013 21.8036 8.21202 21.2948 8.58709 20.9198C8.96216 20.5447 9.47087 20.334 10.0013 20.334ZM18.0013 0.333984C18.2794 0.334095 18.5506 0.421177 18.7767 0.583037C19.0029 0.744897 19.1728 0.973434 19.2626 1.23665L19.436 1.74065C19.6333 2.31899 19.9605 2.84443 20.3925 3.27664C20.8245 3.70885 21.3497 4.03635 21.928 4.23398L22.432 4.40598C22.6949 4.49608 22.9231 4.66609 23.0847 4.89224C23.2462 5.11839 23.3331 5.38938 23.3331 5.66732C23.3331 5.94525 23.2462 6.21624 23.0847 6.44239C22.9231 6.66854 22.6949 6.83855 22.432 6.92865L21.928 7.10198C21.3496 7.29931 20.8242 7.62653 20.392 8.05851C19.9598 8.49049 19.6323 9.01575 19.4346 9.59398L19.2626 10.098C19.1725 10.3609 19.0025 10.5891 18.7764 10.7507C18.5502 10.9122 18.2792 10.9991 18.0013 10.9991C17.7234 10.9991 17.4524 10.9122 17.2262 10.7507C17.0001 10.5891 16.8301 10.3609 16.74 10.098L16.5666 9.59398C16.3693 9.01565 16.0421 8.49021 15.6101 8.05799C15.1781 7.62578 14.6529 7.29829 14.0746 7.10065L13.5706 6.92865C13.3077 6.83855 13.0795 6.66854 12.9179 6.44239C12.7564 6.21624 12.6695 5.94525 12.6695 5.66732C12.6695 5.38938 12.7564 5.11839 12.9179 4.89224C13.0795 4.66609 13.3077 4.49608 13.5706 4.40598L14.0746 4.23265C14.653 4.03532 15.1784 3.70811 15.6106 3.27613C16.0428 2.84415 16.3703 2.31888 16.568 1.74065L16.74 1.23665C16.8298 0.973434 16.9997 0.744897 17.2259 0.583037C17.452 0.421177 17.7232 0.334095 18.0013 0.333984ZM18.0013 4.59532C17.6858 4.9922 17.3262 5.35186 16.9293 5.66732C17.3266 5.98198 17.6853 6.34198 18.0013 6.73932C18.316 6.34198 18.676 5.98198 19.0733 5.66732C18.6764 5.35186 18.3168 4.9922 18.0013 4.59532Z" fill="#007DFE"/>
</svg>
