<svg width="56" height="56" viewBox="0 0 56 56" fill="none" xmlns="http://www.w3.org/2000/svg">
<path d="M0 8C0 3.58172 3.58172 0 8 0H48C52.4183 0 56 3.58172 56 8V48C56 52.4183 52.4183 56 48 56H8C3.58172 56 0 52.4183 0 48V8Z" fill="#1F2228"/>
<g clip-path="url(#clip0_1108_1766)">
<path d="M28 16C28.3266 16 28.6418 16.1199 28.8858 16.337C29.1299 16.554 29.2858 16.853 29.324 17.1773L29.3333 17.3333V38.6667C29.333 39.0065 29.2028 39.3334 28.9695 39.5805C28.7362 39.8276 28.4174 39.9763 28.0781 39.9962C27.7389 40.0161 27.4048 39.9058 27.1442 39.6876C26.8836 39.4695 26.7161 39.1601 26.676 38.8227L26.6667 38.6667V17.3333C26.6667 16.9797 26.8071 16.6406 27.0572 16.3905C27.3072 16.1405 27.6464 16 28 16ZM22.6667 20C23.0203 20 23.3594 20.1405 23.6095 20.3905C23.8595 20.6406 24 20.9797 24 21.3333V34.6667C24 35.0203 23.8595 35.3594 23.6095 35.6095C23.3594 35.8595 23.0203 36 22.6667 36C22.313 36 21.9739 35.8595 21.7239 35.6095C21.4738 35.3594 21.3333 35.0203 21.3333 34.6667V21.3333C21.3333 20.9797 21.4738 20.6406 21.7239 20.3905C21.9739 20.1405 22.313 20 22.6667 20ZM33.3333 20C33.687 20 34.0261 20.1405 34.2761 20.3905C34.5262 20.6406 34.6667 20.9797 34.6667 21.3333V34.6667C34.6667 35.0203 34.5262 35.3594 34.2761 35.6095C34.0261 35.8595 33.687 36 33.3333 36C32.9797 36 32.6406 35.8595 32.3905 35.6095C32.1405 35.3594 32 35.0203 32 34.6667V21.3333C32 20.9797 32.1405 20.6406 32.3905 20.3905C32.6406 20.1405 32.9797 20 33.3333 20ZM17.3333 24C17.687 24 18.0261 24.1405 18.2761 24.3905C18.5262 24.6406 18.6667 24.9797 18.6667 25.3333V30.6667C18.6667 31.0203 18.5262 31.3594 18.2761 31.6095C18.0261 31.8595 17.687 32 17.3333 32C16.9797 32 16.6406 31.8595 16.3905 31.6095C16.1405 31.3594 16 31.0203 16 30.6667V25.3333C16 24.9797 16.1405 24.6406 16.3905 24.3905C16.6406 24.1405 16.9797 24 17.3333 24ZM38.6667 24C38.9932 24 39.3084 24.1199 39.5525 24.337C39.7965 24.554 39.9525 24.853 39.9907 25.1773L40 25.3333V30.6667C39.9996 31.0065 39.8695 31.3334 39.6362 31.5805C39.4029 31.8276 39.0841 31.9763 38.7448 31.9962C38.4056 32.0161 38.0715 31.9058 37.8109 31.6876C37.5503 31.4695 37.3828 31.1601 37.3427 30.8227L37.3333 30.6667V25.3333C37.3333 24.9797 37.4738 24.6406 37.7239 24.3905C37.9739 24.1405 38.313 24 38.6667 24Z" fill="#007DFE"/>
</g>
<defs>
<clipPath id="clip0_1108_1766">
<rect width="32" height="32" fill="white" transform="translate(12 12)"/>
</clipPath>
</defs>
</svg>
