<svg width="25" height="25" viewBox="0 0 25 25" fill="none" xmlns="http://www.w3.org/2000/svg">
<path fill-rule="evenodd" clip-rule="evenodd" d="M20.5558 11.9855L21.3825 11.1589C22.2369 10.3044 22.8429 9.23378 23.1358 8.06152L24.6092 2.16818C24.6706 1.92246 24.6674 1.66502 24.5998 1.42091C24.5322 1.17681 24.4025 0.954382 24.2234 0.77528C24.0443 0.596178 23.8219 0.466511 23.5778 0.398908C23.3337 0.331305 23.0762 0.32807 22.8305 0.389518L16.9372 1.86285C15.7649 2.15581 14.6943 2.76185 13.8398 3.61618L7.73318 9.72285H4.78785C4.2576 9.72332 3.74923 9.93434 3.37452 10.3095L1.06785 12.6162C0.882834 12.8012 0.743821 13.0271 0.661993 13.2756C0.580165 13.5241 0.557806 13.7884 0.596715 14.0471C0.635623 14.3058 0.734713 14.5518 0.886014 14.7653C1.03731 14.9788 1.2366 15.1538 1.46785 15.2762C2.11052 15.6162 3.31852 16.2869 4.46785 17.0655C4.13107 17.1995 3.82525 17.401 3.56918 17.6575C2.52785 18.6975 1.44785 23.0789 1.68385 23.3135C1.91852 23.5495 6.29852 22.4695 7.33985 21.4282C7.60518 21.1642 7.80252 20.8575 7.93185 20.5309C8.71052 21.6775 9.38118 22.8869 9.72118 23.5295C9.8436 23.7608 10.0186 23.9601 10.2321 24.1114C10.4455 24.2627 10.6915 24.3617 10.9503 24.4007C11.209 24.4396 11.4733 24.4172 11.7218 24.3354C11.9703 24.2535 12.1962 24.1145 12.3812 23.9295L14.6878 21.6229C15.0625 21.2479 15.2731 20.7396 15.2732 20.2095V17.2669L20.5238 12.0162C20.5342 12.0061 20.5458 11.9959 20.5558 11.9855ZM21.5372 3.46152L17.5839 4.45085C17.2452 4.53485 16.9198 4.66419 16.6172 4.83085C17.3697 5.22872 18.0572 5.73903 18.6558 6.34418C19.2608 6.94224 19.7707 7.62929 20.1679 8.38152C20.3367 8.07751 20.4645 7.75246 20.5479 7.41485L21.5372 3.46152ZM18.1812 10.5882C18.0478 10.0575 17.7012 9.16152 16.7692 8.22818C15.8372 7.29618 14.9412 6.95085 14.4092 6.81752L9.42252 11.8042C9.0478 12.1794 8.53944 12.3904 8.00918 12.3909H5.06518L3.88918 13.5669C5.20118 14.3215 7.06652 15.4975 8.28385 16.7135C9.50118 17.9309 10.6772 19.7975 11.4318 21.1095L12.6078 19.9335V16.9909C12.6078 16.4602 12.8185 15.9509 13.1945 15.5762L18.1812 10.5882Z" fill="#007DFE"/>
</svg>
