<svg width="22" height="20" viewBox="0 0 22 20" fill="none" xmlns="http://www.w3.org/2000/svg">
<path fill-rule="evenodd" clip-rule="evenodd" d="M2.83333 1.83268C2.83333 1.52326 2.71042 1.22652 2.49162 1.00772C2.27283 0.788932 1.97609 0.666016 1.66667 0.666016C1.35725 0.666016 1.0605 0.788932 0.841709 1.00772C0.622916 1.22652 0.5 1.52326 0.5 1.83268V18.166C0.5 18.4754 0.622916 18.7722 0.841709 18.991C1.0605 19.2098 1.35725 19.3327 1.66667 19.3327H20.3333C20.6428 19.3327 20.9395 19.2098 21.1583 18.991C21.3771 18.7722 21.5 18.4754 21.5 18.166C21.5 17.8566 21.3771 17.5598 21.1583 17.3411C20.9395 17.1223 20.6428 16.9993 20.3333 16.9993H2.83333V1.83268ZM7.5 9.99935C7.5 9.68993 7.37708 9.39318 7.15829 9.17439C6.9395 8.9556 6.64275 8.83268 6.33333 8.83268C6.02391 8.83268 5.72717 8.9556 5.50838 9.17439C5.28958 9.39318 5.16667 9.68993 5.16667 9.99935V13.4993C5.16667 13.8088 5.28958 14.1055 5.50838 14.3243C5.72717 14.5431 6.02391 14.666 6.33333 14.666C6.64275 14.666 6.9395 14.5431 7.15829 14.3243C7.37708 14.1055 7.5 13.8088 7.5 13.4993V9.99935ZM11 2.99935C11.3094 2.99935 11.6062 3.12227 11.825 3.34106C12.0437 3.55985 12.1667 3.8566 12.1667 4.16602V13.4993C12.1667 13.8088 12.0437 14.1055 11.825 14.3243C11.6062 14.5431 11.3094 14.666 11 14.666C10.6906 14.666 10.3938 14.5431 10.175 14.3243C9.95625 14.1055 9.83333 13.8088 9.83333 13.4993V4.16602C9.83333 3.8566 9.95625 3.55985 10.175 3.34106C10.3938 3.12227 10.6906 2.99935 11 2.99935ZM16.8333 7.66602C16.8333 7.3566 16.7104 7.05985 16.4916 6.84106C16.2728 6.62227 15.9761 6.49935 15.6667 6.49935C15.3572 6.49935 15.0605 6.62227 14.8417 6.84106C14.6229 7.05985 14.5 7.3566 14.5 7.66602V13.4993C14.5 13.8088 14.6229 14.1055 14.8417 14.3243C15.0605 14.5431 15.3572 14.666 15.6667 14.666C15.9761 14.666 16.2728 14.5431 16.4916 14.3243C16.7104 14.1055 16.8333 13.8088 16.8333 13.4993V7.66602Z" fill="#3397FE"/>
</svg>
