<svg width="22" height="28" viewBox="0 0 22 28" fill="none" xmlns="http://www.w3.org/2000/svg">
<path fill-rule="evenodd" clip-rule="evenodd" d="M3.0026 0.666016C2.29536 0.666016 1.61708 0.946967 1.11699 1.44706C0.616889 1.94716 0.335938 2.62544 0.335938 3.33268V8.66602H21.6693V3.33268C21.6693 2.62544 21.3883 1.94716 20.8882 1.44706C20.3881 0.946967 19.7098 0.666016 19.0026 0.666016H3.0026ZM9.66927 3.33268C9.31565 3.33268 8.97651 3.47316 8.72646 3.72321C8.47641 3.97326 8.33594 4.31239 8.33594 4.66602C8.33594 5.01964 8.47641 5.35878 8.72646 5.60882C8.97651 5.85887 9.31565 5.99935 9.66927 5.99935H12.3359C12.6896 5.99935 13.0287 5.85887 13.2787 5.60882C13.5288 5.35878 13.6693 5.01964 13.6693 4.66602C13.6693 4.31239 13.5288 3.97326 13.2787 3.72321C13.0287 3.47316 12.6896 3.33268 12.3359 3.33268H9.66927ZM21.6693 11.3327H0.335938V16.666H21.6693V11.3327ZM8.33594 13.9993C8.33594 13.6457 8.47641 13.3066 8.72646 13.0565C8.97651 12.8065 9.31565 12.666 9.66927 12.666H12.3359C12.6896 12.666 13.0287 12.8065 13.2787 13.0565C13.5288 13.3066 13.6693 13.6457 13.6693 13.9993C13.6693 14.353 13.5288 14.6921 13.2787 14.9422C13.0287 15.1922 12.6896 15.3327 12.3359 15.3327H9.66927C9.31565 15.3327 8.97651 15.1922 8.72646 14.9422C8.47641 14.6921 8.33594 14.353 8.33594 13.9993ZM0.335938 24.666V19.3327H21.6693V24.666C21.6693 25.3733 21.3883 26.0515 20.8882 26.5516C20.3881 27.0517 19.7098 27.3327 19.0026 27.3327H3.0026C2.29536 27.3327 1.61708 27.0517 1.11699 26.5516C0.616889 26.0515 0.335938 25.3733 0.335938 24.666ZM9.66927 21.9993C9.31565 21.9993 8.97651 22.1398 8.72646 22.3899C8.47641 22.6399 8.33594 22.9791 8.33594 23.3327C8.33594 23.6863 8.47641 24.0254 8.72646 24.2755C8.97651 24.5255 9.31565 24.666 9.66927 24.666H12.3359C12.6896 24.666 13.0287 24.5255 13.2787 24.2755C13.5288 24.0254 13.6693 23.6863 13.6693 23.3327C13.6693 22.9791 13.5288 22.6399 13.2787 22.3899C13.0287 22.1398 12.6896 21.9993 12.3359 21.9993H9.66927Z" fill="#007DFE"/>
</svg>
