<svg width="24" height="24" viewBox="0 0 24 24" fill="none" xmlns="http://www.w3.org/2000/svg">
<path fill-rule="evenodd" clip-rule="evenodd" d="M10.2487 2.66732C9.95598 2.66727 9.6681 2.74204 9.4124 2.88454C9.1567 3.02704 8.94168 3.23253 8.78773 3.4815C8.63379 3.73048 8.54604 4.01467 8.53282 4.30709C8.5196 4.59952 8.58135 4.89047 8.7122 5.15232L8.90236 5.53148C8.99755 5.72145 9.04253 5.93263 9.03302 6.1449C9.0235 6.35717 8.95981 6.56347 8.848 6.74417C8.7362 6.92486 8.58 7.07392 8.39428 7.17716C8.20857 7.28041 7.99952 7.33439 7.78703 7.33398H3.83203C3.52261 7.33398 3.22587 7.4569 3.00707 7.67569C2.78828 7.89449 2.66536 8.19123 2.66536 8.50065V9.89365C4.7887 9.76649 6.7487 11.4465 6.7487 13.7507C6.7487 16.0548 4.7887 17.7348 2.66536 17.6077V20.1673C2.66536 20.4767 2.78828 20.7735 3.00707 20.9923C3.22587 21.2111 3.52261 21.334 3.83203 21.334H6.3917C6.26453 19.2107 7.94453 17.2507 10.2487 17.2507C12.5529 17.2507 14.2329 19.2107 14.1057 21.334H15.4987C15.8081 21.334 16.1049 21.2111 16.3237 20.9923C16.5424 20.7735 16.6654 20.4767 16.6654 20.1673V16.2123C16.6654 15.286 17.6395 14.684 18.4679 15.097L18.8459 15.2872C19.1077 15.4179 19.3986 15.4795 19.6909 15.4662C19.9833 15.4529 20.2674 15.3652 20.5162 15.2112C20.7651 15.0573 20.9706 14.8423 21.113 14.5867C21.2555 14.3311 21.3303 14.0433 21.3303 13.7507C21.3303 13.458 21.2555 13.1702 21.113 12.9146C20.9706 12.659 20.7651 12.444 20.5162 12.2901C20.2674 12.1362 19.9833 12.0484 19.6909 12.0351C19.3986 12.0218 19.1077 12.0834 18.8459 12.2142L18.4679 12.4043C18.2779 12.4995 18.0667 12.5445 17.8545 12.535C17.6422 12.5255 17.4359 12.4618 17.2552 12.35C17.0745 12.2382 16.9254 12.082 16.8222 11.8962C16.7189 11.7105 16.665 11.5015 16.6654 11.289V8.50065C16.6654 8.19123 16.5424 7.89449 16.3237 7.67569C16.1049 7.4569 15.8081 7.33398 15.4987 7.33398H12.7104C11.784 7.33398 11.182 6.35982 11.595 5.53148L11.7852 5.15232C11.916 4.89047 11.9778 4.59952 11.9646 4.30709C11.9514 4.01467 11.8636 3.73048 11.7097 3.4815C11.5557 3.23253 11.3407 3.02704 11.085 2.88454C10.8293 2.74204 10.5414 2.66727 10.2487 2.66732ZM6.24003 5.00065C5.87137 2.64748 7.67503 0.333984 10.2487 0.333984C12.8212 0.333984 14.626 2.64748 14.2574 5.00065H15.4987C16.427 5.00065 17.3172 5.3694 17.9736 6.02578C18.63 6.68216 18.9987 7.57239 18.9987 8.50065V9.74199C21.3519 9.37332 23.6654 11.177 23.6654 13.7507C23.6654 16.3232 21.3519 18.128 18.9987 17.7593V20.1673C18.9987 21.0956 18.63 21.9858 17.9736 22.6422C17.3172 23.2986 16.427 23.6673 15.4987 23.6673H12.6905C12.4855 23.6676 12.2835 23.6168 12.1029 23.5197C11.9223 23.4226 11.7686 23.2822 11.6557 23.1109C11.5428 22.9397 11.4742 22.7432 11.4561 22.5389C11.438 22.3346 11.4709 22.1291 11.5519 21.9407L11.651 21.7108C11.7506 21.4787 11.7911 21.2255 11.7687 20.9739C11.7463 20.7223 11.6619 20.4802 11.5229 20.2693C11.3839 20.0584 11.1947 19.8853 10.9723 19.7655C10.7499 19.6457 10.5013 19.583 10.2487 19.583C9.99611 19.583 9.74747 19.6457 9.52509 19.7655C9.30271 19.8853 9.11353 20.0584 8.97453 20.2693C8.83554 20.4802 8.75106 20.7223 8.72869 20.9739C8.70633 21.2255 8.74676 21.4787 8.84637 21.7108L8.94553 21.9418C9.29553 22.7585 8.69586 23.6673 7.80686 23.6673H3.83203C2.90377 23.6673 2.01354 23.2986 1.35716 22.6422C0.70078 21.9858 0.332031 21.0956 0.332031 20.1673V16.1925C0.332031 15.3035 1.24086 14.7038 2.0587 15.0538L2.28853 15.153C2.52065 15.2526 2.77386 15.293 3.02546 15.2707C3.27705 15.2483 3.51916 15.1638 3.73006 15.0248C3.94096 14.8858 4.11406 14.6966 4.23384 14.4743C4.35361 14.2519 4.41631 14.0032 4.41631 13.7507C4.41631 13.4981 4.35361 13.2494 4.23384 13.027C4.11406 12.8047 3.94096 12.6155 3.73006 12.4765C3.51916 12.3375 3.27705 12.253 3.02546 12.2306C2.77386 12.2083 2.52065 12.2487 2.28853 12.3483L2.05753 12.4475C1.24086 12.7975 0.332031 12.1978 0.332031 11.3088V8.50065C0.332031 7.57239 0.70078 6.68216 1.35716 6.02578C2.01354 5.3694 2.90377 5.00065 3.83203 5.00065H6.24003Z" fill="#3397FE"/>
</svg>
