<svg width="26" height="26" viewBox="0 0 26 26" fill="none" xmlns="http://www.w3.org/2000/svg">
<path d="M10.6482 10.6409C11.8577 9.43149 13.4858 8.73322 15.1957 8.69054C16.9056 8.64785 18.5665 9.26402 19.8348 10.4116L20.0762 10.6409L23.8468 14.4129C25.0749 15.6431 25.7739 17.3044 25.7948 19.0425C25.8157 20.7806 25.157 22.4582 23.9589 23.7176C22.7608 24.9771 21.1182 25.7188 19.3812 25.7847C17.6442 25.8505 15.9502 25.2353 14.6602 24.0702L14.4202 23.8409L11.5908 21.0116C11.3517 20.7716 11.2129 20.4497 11.2025 20.1111C11.1922 19.7725 11.3111 19.4426 11.5352 19.1885C11.7592 18.9345 12.0716 18.7752 12.4088 18.7431C12.746 18.7109 13.0829 18.8084 13.3508 19.0156L13.4762 19.1262L16.3055 21.9556C17.0389 22.6933 18.0309 23.1163 19.071 23.1348C20.1111 23.1533 21.1175 22.7658 21.8767 22.0547C22.6359 21.3435 23.0882 20.3646 23.1376 19.3255C23.1871 18.2864 22.8298 17.2689 22.1415 16.4889L21.9615 16.2983L18.1908 12.5276C17.8194 12.1561 17.3784 11.8614 16.8931 11.6603C16.4077 11.4593 15.8875 11.3558 15.3622 11.3558C14.8368 11.3558 14.3166 11.4593 13.8313 11.6603C13.3459 11.8614 12.905 12.1561 12.5335 12.5276C12.2833 12.7776 11.9441 12.918 11.5904 12.9179C11.2367 12.9177 10.8975 12.7771 10.6475 12.5269C10.3975 12.2767 10.2571 11.9375 10.2572 11.5838C10.2574 11.2301 10.398 10.8909 10.6482 10.6409ZM7.67218 19.6663C7.99876 19.6663 8.31396 19.7862 8.55801 20.0032C8.80206 20.2202 8.95797 20.5192 8.99618 20.8436L9.00551 20.9996V23.6663C9.00514 24.0061 8.87501 24.333 8.64172 24.5801C8.40842 24.8272 8.08958 24.9759 7.75032 24.9958C7.41106 25.0157 7.07701 24.9054 6.8164 24.6872C6.5558 24.4691 6.38832 24.1597 6.34818 23.8223L6.33885 23.6663V20.9996C6.33885 20.646 6.47932 20.3068 6.72937 20.0568C6.97942 19.8067 7.31856 19.6663 7.67218 19.6663ZM3.67218 16.9996C4.01202 17 4.33889 17.1301 4.586 17.3634C4.83312 17.5967 4.98183 17.9155 5.00174 18.2548C5.02166 18.594 4.91128 18.9281 4.69316 19.1887C4.47504 19.4493 4.16564 19.6168 3.82818 19.6569L3.67218 19.6663H2.33885C1.99901 19.6659 1.67214 19.5357 1.42502 19.3025C1.17791 19.0692 1.0292 18.7503 1.00928 18.4111C0.989368 18.0718 1.09975 17.7377 1.31787 17.4771C1.53599 17.2165 1.84539 17.0491 2.18285 17.0089L2.33885 16.9996H3.67218ZM2.16285 2.15558C3.37235 0.946161 5.00044 0.247889 6.71035 0.205203C8.42026 0.162518 10.0812 0.778684 11.3495 1.92625L11.5908 2.15558L14.4188 4.98625C14.658 5.22619 14.7968 5.54816 14.8071 5.88676C14.8175 6.22536 14.6986 6.5552 14.4745 6.80929C14.2505 7.06338 13.9381 7.22266 13.6009 7.25478C13.2636 7.28691 12.9268 7.18947 12.6588 6.98225L12.5335 6.87158L9.70551 4.04358C8.97081 3.31366 7.98163 2.89715 6.94609 2.88168C5.91056 2.86621 4.90938 3.25299 4.1532 3.96063C3.39701 4.66828 2.94477 5.64164 2.89161 6.67593C2.83846 7.71022 3.18853 8.72481 3.86818 9.50625L4.04818 9.69825L7.82018 13.4702C8.57029 14.2201 9.58752 14.6414 10.6482 14.6414C11.7088 14.6414 12.7261 14.2201 13.4762 13.4702C13.6 13.3464 13.747 13.2481 13.9087 13.181C14.0705 13.1139 14.2439 13.0794 14.419 13.0793C14.5942 13.0793 14.7676 13.1137 14.9294 13.1806C15.0912 13.2476 15.2383 13.3458 15.3622 13.4696C15.4861 13.5934 15.5843 13.7404 15.6514 13.9021C15.7185 14.0639 15.7531 14.2373 15.7531 14.4124C15.7532 14.5876 15.7187 14.761 15.6518 14.9228C15.5848 15.0847 15.4866 15.2317 15.3628 15.3556C14.1533 16.565 12.5252 17.2633 10.8153 17.306C9.10543 17.3486 7.44453 16.7325 6.17618 15.5849L5.93351 15.3556L2.16285 11.5836C0.91304 10.3334 0.210938 8.63801 0.210938 6.87025C0.210937 5.10249 0.91304 3.40577 2.16285 2.15558ZM23.6722 6.33292C24.0258 6.33292 24.3649 6.47339 24.615 6.72344C24.865 6.97349 25.0055 7.31263 25.0055 7.66625C25.0055 8.01987 24.865 8.35901 24.615 8.60906C24.3649 8.85911 24.0258 8.99958 23.6722 8.99958H22.3388C21.9852 8.99958 21.6461 8.85911 21.396 8.60906C21.146 8.35901 21.0055 8.01987 21.0055 7.66625C21.0055 7.31263 21.146 6.97349 21.396 6.72344C21.6461 6.47339 21.9852 6.33292 22.3388 6.33292H23.6722ZM18.3388 0.999583C18.6654 0.999627 18.9806 1.11953 19.2247 1.33654C19.4687 1.55355 19.6246 1.85258 19.6628 2.17692L19.6722 2.33292V4.99958C19.6718 5.33942 19.5417 5.66629 19.3084 5.91341C19.0751 6.16052 18.7562 6.30923 18.417 6.32915C18.0777 6.34906 17.7437 6.23868 17.4831 6.02056C17.2225 5.80244 17.055 5.49304 17.0148 5.15558L17.0055 4.99958V2.33292C17.0055 1.97929 17.146 1.64016 17.396 1.39011C17.6461 1.14006 17.9852 0.999583 18.3388 0.999583Z" fill="#007DFE"/>
</svg>
