<svg width="28" height="26" viewBox="0 0 28 26" fill="none" xmlns="http://www.w3.org/2000/svg">
<path d="M13.9974 0.666016C21.3534 0.666016 27.3307 6.59268 27.3307 13.9233C27.3307 15.7393 27.1054 17.0447 26.7627 18.1007C25.9481 20.61 24.2641 22.7207 22.3601 24.5007C21.0507 25.7247 19.1081 25.538 17.9414 24.378C16.2854 22.7313 15.8321 20.1753 17.6281 18.3913L18.8547 17.1713C19.4674 16.5627 20.2924 16.2156 21.1559 16.2032C22.0195 16.1907 22.8541 16.5139 23.4841 17.1047C23.8534 17.4513 24.0361 17.8647 24.2267 17.278C24.4681 16.5313 24.6641 15.5087 24.6641 13.9233C24.6641 8.08202 19.8961 3.33268 13.9974 3.33268C8.09873 3.33268 3.33073 8.08202 3.33073 13.9233C3.33073 15.51 3.52673 16.53 3.76806 17.278C3.95873 17.8647 4.1414 17.4513 4.51073 17.1047C5.14069 16.5139 5.97533 16.1907 6.83886 16.2032C7.70238 16.2156 8.52738 16.5627 9.14006 17.1713L10.3667 18.3913C12.1627 20.1753 11.7094 22.7313 10.0534 24.378C8.88673 25.538 6.94406 25.7247 5.63473 24.502C3.7174 22.71 2.05206 20.6247 1.23206 18.102C0.890729 17.0433 0.664062 15.738 0.664062 13.922C0.664062 6.59268 6.6414 0.666016 13.9974 0.666016ZM20.7334 19.0633C19.9627 19.8287 18.3467 21.0193 19.5067 22.174C19.7627 22.4273 20.1614 22.9047 20.5387 22.5527C21.3894 21.758 22.2227 20.8593 22.7827 20.1033C22.3427 19.69 21.4147 18.3873 20.7334 19.0633ZM7.2614 19.0633C6.5814 18.3873 5.65206 19.69 5.21206 20.1033C5.77206 20.8593 6.6054 21.7567 7.45606 22.5527C7.83206 22.9047 8.23206 22.4287 8.48806 22.174C9.64806 21.0193 8.03206 19.8287 7.2614 19.0633Z" fill="#007DFE"/>
</svg>
