<svg width="22" height="22" viewBox="0 0 22 22" fill="none" xmlns="http://www.w3.org/2000/svg">
<path fill-rule="evenodd" clip-rule="evenodd" d="M7.5 2.83333C7.5 2.21449 7.74583 1.621 8.18342 1.18342C8.621 0.745833 9.21449 0.5 9.83333 0.5H12.1667C12.7855 0.5 13.379 0.745833 13.8166 1.18342C14.2542 1.621 14.5 2.21449 14.5 2.83333V7.5H19.1667C19.7855 7.5 20.379 7.74583 20.8166 8.18342C21.2542 8.621 21.5 9.21449 21.5 9.83333V12.1667C21.5 12.7855 21.2542 13.379 20.8166 13.8166C20.379 14.2542 19.7855 14.5 19.1667 14.5H14.5V19.1667C14.5 19.7855 14.2542 20.379 13.8166 20.8166C13.379 21.2542 12.7855 21.5 12.1667 21.5H9.83333C9.21449 21.5 8.621 21.2542 8.18342 20.8166C7.74583 20.379 7.5 19.7855 7.5 19.1667V14.5H2.83333C2.21449 14.5 1.621 14.2542 1.18342 13.8166C0.745833 13.379 0.5 12.7855 0.5 12.1667V9.83333C0.5 9.21449 0.745833 8.621 1.18342 8.18342C1.621 7.74583 2.21449 7.5 2.83333 7.5H7.5V2.83333ZM12.1667 2.83333H9.83333V8.66667C9.83333 8.97609 9.71042 9.27283 9.49162 9.49162C9.27283 9.71042 8.97609 9.83333 8.66667 9.83333H2.83333V12.1667H8.66667C8.97609 12.1667 9.27283 12.2896 9.49162 12.5084C9.71042 12.7272 9.83333 13.0239 9.83333 13.3333V19.1667H12.1667V13.3333C12.1667 13.0239 12.2896 12.7272 12.5084 12.5084C12.7272 12.2896 13.0239 12.1667 13.3333 12.1667H19.1667V9.83333H13.3333C13.0239 9.83333 12.7272 9.71042 12.5084 9.49162C12.2896 9.27283 12.1667 8.97609 12.1667 8.66667V2.83333Z" fill="#3397FE"/>
</svg>
