<svg width="24" height="28" viewBox="0 0 24 28" fill="none" xmlns="http://www.w3.org/2000/svg">
<path d="M11.064 0.926905C11.5902 0.730041 12.1651 0.704376 12.7067 0.853572L12.936 0.926905L22.2693 4.42691C22.7426 4.60436 23.1556 4.91265 23.4604 5.31584C23.7652 5.71904 23.9491 6.20054 23.9907 6.70424L24 6.92424V14.0749C23.9999 16.2355 23.4166 18.3559 22.3115 20.2125C21.2064 22.069 19.6205 23.5928 17.7213 24.6229L17.3667 24.8082L12.8947 27.0442C12.6484 27.1672 12.3795 27.238 12.1046 27.2522C11.8298 27.2664 11.5549 27.2238 11.2973 27.1269L11.1053 27.0442L6.63333 24.8082C4.70081 23.842 3.06503 22.3718 1.89867 20.5531C0.73231 18.7343 0.0786407 16.6343 0.00666682 14.4749L0 14.0749V6.92424C7.7534e-06 6.41908 0.143502 5.92431 0.413778 5.49753C0.684054 5.07076 1.06999 4.72953 1.52667 4.51357L1.73067 4.42691L11.064 0.926905ZM12 3.42424L2.66667 6.92424V14.0749C2.6667 15.7482 3.1166 17.3908 3.96927 18.8306C4.82194 20.2704 6.04602 21.4545 7.51333 22.2589L7.82667 22.4229L12 24.5096L16.1733 22.4229C17.6703 21.6746 18.9385 20.5375 19.8452 19.1307C20.7518 17.724 21.2635 16.0993 21.3267 14.4269L21.3333 14.0749V6.92424L12 3.42424ZM16.5773 9.50557C16.8173 9.26644 17.1392 9.12761 17.4778 9.11727C17.8164 9.10693 18.1463 9.22586 18.4004 9.4499C18.6545 9.67395 18.8137 9.98631 18.8459 10.3235C18.878 10.6608 18.7806 10.9976 18.5733 11.2656L18.4627 11.3909L11.484 18.3709C11.2298 18.6251 10.8911 18.777 10.5322 18.7979C10.1734 18.8188 9.81932 18.7072 9.53733 18.4842L9.40933 18.3709L6.204 15.1656C5.96233 14.9262 5.82129 14.6035 5.80976 14.2635C5.79822 13.9235 5.91706 13.592 6.14195 13.3368C6.36685 13.0816 6.68078 12.922 7.0195 12.8906C7.35822 12.8593 7.6961 12.9586 7.964 13.1682L8.08933 13.2789L10.4467 15.6362L16.5773 9.50557Z" fill="#007DFE"/>
</svg>
