<svg width="48" height="48" viewBox="0 0 48 48" fill="none" xmlns="http://www.w3.org/2000/svg">
<rect width="48" height="48" rx="8" fill="#DEEEFF"/>
<g clip-path="url(#clip0_1102_5476)">
<path d="M23.064 10.9269C23.5902 10.73 24.1651 10.7044 24.7067 10.8536L24.936 10.9269L34.2693 14.4269C34.7426 14.6044 35.1556 14.9126 35.4604 15.3158C35.7652 15.719 35.9491 16.2005 35.9907 16.7042L36 16.9242V24.0749C35.9999 26.2355 35.4166 28.3559 34.3115 30.2125C33.2064 32.069 31.6205 33.5928 29.7213 34.6229L29.3667 34.8082L24.8947 37.0442C24.6484 37.1672 24.3795 37.238 24.1046 37.2522C23.8298 37.2664 23.5549 37.2238 23.2973 37.1269L23.1053 37.0442L18.6333 34.8082C16.7008 33.842 15.065 32.3718 13.8987 30.5531C12.7323 28.7343 12.0786 26.6343 12.0067 24.4749L12 24.0749V16.9242C12 16.4191 12.1435 15.9243 12.4138 15.4975C12.6841 15.0708 13.07 14.7295 13.5267 14.5136L13.7307 14.4269L23.064 10.9269ZM24 13.4242L14.6667 16.9242V24.0749C14.6667 25.7482 15.1166 27.3908 15.9693 28.8306C16.8219 30.2704 18.046 31.4545 19.5133 32.2589L19.8267 32.4229L24 34.5096L28.1733 32.4229C29.6703 31.6746 30.9385 30.5375 31.8452 29.1307C32.7518 27.724 33.2635 26.0993 33.3267 24.4269L33.3333 24.0749V16.9242L24 13.4242ZM28.5773 19.5056C28.8173 19.2664 29.1392 19.1276 29.4778 19.1173C29.8164 19.1069 30.1463 19.2259 30.4004 19.4499C30.6545 19.6739 30.8137 19.9863 30.8459 20.3235C30.878 20.6608 30.7806 20.9976 30.5733 21.2656L30.4627 21.3909L23.484 28.3709C23.2298 28.6251 22.8911 28.777 22.5322 28.7979C22.1734 28.8188 21.8193 28.7072 21.5373 28.4842L21.4093 28.3709L18.204 25.1656C17.9623 24.9262 17.8213 24.6035 17.8098 24.2635C17.7982 23.9235 17.9171 23.592 18.142 23.3368C18.3668 23.0816 18.6808 22.922 19.0195 22.8906C19.3582 22.8593 19.6961 22.9586 19.964 23.1682L20.0893 23.2789L22.4467 25.6362L28.5773 19.5056Z" fill="#007DFE"/>
</g>
<defs>
<clipPath id="clip0_1102_5476">
<rect width="32" height="32" fill="white" transform="translate(8 8)"/>
</clipPath>
</defs>
</svg>
