<svg width="25" height="22" viewBox="0 0 25 22" fill="none" xmlns="http://www.w3.org/2000/svg">
<path d="M1.33333 0.333984C1.65991 0.334027 1.97512 0.453926 2.21916 0.670938C2.46321 0.88795 2.61912 1.18698 2.65733 1.51132L2.66667 1.66732V19.0007H22.6667C23.0065 19.001 23.3334 19.1312 23.5805 19.3644C23.8276 19.5977 23.9763 19.9166 23.9962 20.2558C24.0161 20.5951 23.9058 20.9292 23.6876 21.1898C23.4695 21.4504 23.1601 21.6178 22.8227 21.658L22.6667 21.6673H1.33333C1.00676 21.6673 0.691551 21.5474 0.447504 21.3304C0.203457 21.1134 0.0475429 20.8143 0.00933329 20.49L0 20.334V1.66732C0 1.3137 0.140476 0.974557 0.390524 0.724509C0.640573 0.47446 0.979711 0.333984 1.33333 0.333984ZM22.9253 4.09132C24.1253 4.09132 24.7253 5.54198 23.8773 6.38998L16.4507 13.8167C16.1756 14.0914 15.8028 14.2458 15.414 14.2458C15.0252 14.2458 14.6524 14.0914 14.3773 13.8167L10.7 10.1393L5.98667 14.8527C5.73666 15.1028 5.3975 15.2435 5.04381 15.2436C4.69011 15.2437 4.35085 15.1033 4.10067 14.8533C3.85048 14.6033 3.70986 14.2642 3.70973 13.9105C3.70961 13.5568 3.84999 13.2175 4.1 12.9673L9.66267 7.40465C9.79887 7.26839 9.96058 7.16029 10.1386 7.08654C10.3166 7.01279 10.5073 6.97483 10.7 6.97483C10.8927 6.97483 11.0834 7.01279 11.2614 7.08654C11.4394 7.16029 11.6011 7.26839 11.7373 7.40465L15.4147 11.082L19.7373 6.75798H19.1853C18.8317 6.75798 18.4926 6.61751 18.2425 6.36746C17.9925 6.11741 17.852 5.77827 17.852 5.42465C17.852 5.07103 17.9925 4.73189 18.2425 4.48184C18.4926 4.23179 18.8317 4.09132 19.1853 4.09132H22.9253Z" fill="#007DFE"/>
</svg>
