<svg width="24" height="28" viewBox="0 0 24 28" fill="none" xmlns="http://www.w3.org/2000/svg">
<path d="M11.064 0.926661C11.5902 0.729797 12.1651 0.704132 12.7067 0.853328L12.936 0.926661L22.2693 4.42666C22.7426 4.60411 23.1556 4.9124 23.4604 5.3156C23.7652 5.71879 23.9491 6.20029 23.9907 6.70399L24 6.92399V14.0747C23.9999 16.2352 23.4166 18.3557 22.3115 20.2122C21.2064 22.0688 19.6205 23.5926 17.7213 24.6227L17.3667 24.808L12.8947 27.044C12.6484 27.1669 12.3795 27.2377 12.1046 27.252C11.8298 27.2662 11.5549 27.2235 11.2973 27.1267L11.1053 27.044L6.63333 24.808C4.70081 23.8417 3.06503 22.3716 1.89867 20.5528C0.73231 18.734 0.0786407 16.6341 0.00666682 14.4747L0 14.0747V6.92399C7.7534e-06 6.41883 0.143502 5.92407 0.413778 5.49729C0.684054 5.07051 1.06999 4.72928 1.52667 4.51333L1.73067 4.42666L11.064 0.926661ZM12 3.42399L2.66667 6.92399V14.0747C2.6667 15.748 3.1166 17.3906 3.96927 18.8304C4.82194 20.2702 6.04602 21.4543 7.51333 22.2587L7.82667 22.4227L12 24.5093L16.1733 22.4227C17.6703 21.6743 18.9385 20.5372 19.8452 19.1305C20.7518 17.7237 21.2635 16.0991 21.3267 14.4267L21.3333 14.0747V6.92399L12 3.42399ZM16.5773 9.50533C16.8173 9.2662 17.1392 9.12736 17.4778 9.11702C17.8164 9.10668 18.1463 9.22561 18.4004 9.44966C18.6545 9.6737 18.8137 9.98606 18.8459 10.3233C18.878 10.6605 18.7806 10.9973 18.5733 11.2653L18.4627 11.3907L11.484 18.3707C11.2298 18.6248 10.8911 18.7768 10.5322 18.7977C10.1734 18.8186 9.81932 18.7069 9.53733 18.484L9.40933 18.3707L6.204 15.1653C5.96233 14.9259 5.82129 14.6032 5.80976 14.2633C5.79822 13.9233 5.91706 13.5918 6.14195 13.3366C6.36685 13.0813 6.68078 12.9217 7.0195 12.8904C7.35822 12.8591 7.6961 12.9584 7.964 13.168L8.08933 13.2787L10.4467 15.636L16.5773 9.50533Z" fill="#007DFE"/>
</svg>
