<svg width="24" height="11" viewBox="0 0 24 11" fill="none" xmlns="http://www.w3.org/2000/svg">
<path fill-rule="evenodd" clip-rule="evenodd" d="M9.9473 8.33269C10.5975 7.35953 10.9039 6.197 10.8178 5.02978C10.7317 3.86255 10.258 2.75757 9.47205 1.89036C8.68606 1.02315 7.63284 0.443444 6.47967 0.243331C5.32651 0.0432179 4.13955 0.234174 3.10734 0.785864C2.07512 1.33755 1.25686 2.21834 0.78252 3.28831C0.308184 4.35828 0.20498 5.55606 0.489303 6.6914C0.773626 7.82674 1.42917 8.83451 2.3518 9.55463C3.27443 10.2748 4.41124 10.6659 5.58163 10.666H18.415C19.5854 10.6659 20.7222 10.2748 21.6448 9.55463C22.5674 8.83451 23.223 7.82674 23.5073 6.6914C23.7916 5.55606 23.6884 4.35828 23.2141 3.28831C22.7397 2.21834 21.9215 1.33755 20.8893 0.785864C19.8571 0.234174 18.6701 0.0432179 17.5169 0.243331C16.3638 0.443444 15.3105 1.02315 14.5246 1.89036C13.7386 2.75757 13.2649 3.86255 13.1788 5.02978C13.0927 6.197 13.3991 7.35953 14.0493 8.33269H9.9473ZM5.58163 2.49936C4.80809 2.49936 4.06622 2.80665 3.51924 3.35363C2.97226 3.90061 2.66497 4.64247 2.66497 5.41602C2.66497 6.18957 2.97226 6.93144 3.51924 7.47842C4.06622 8.0254 4.80809 8.33269 5.58163 8.33269C6.35518 8.33269 7.09705 8.0254 7.64403 7.47842C8.19101 6.93144 8.4983 6.18957 8.4983 5.41602C8.4983 4.64247 8.19101 3.90061 7.64403 3.35363C7.09705 2.80665 6.35518 2.49936 5.58163 2.49936ZM18.415 8.33269C19.1885 8.33269 19.9304 8.0254 20.4774 7.47842C21.0243 6.93144 21.3316 6.18957 21.3316 5.41602C21.3316 4.64247 21.0243 3.90061 20.4774 3.35363C19.9304 2.80665 19.1885 2.49936 18.415 2.49936C17.6414 2.49936 16.8996 2.80665 16.3526 3.35363C15.8056 3.90061 15.4983 4.64247 15.4983 5.41602C15.4983 6.18957 15.8056 6.93144 16.3526 7.47842C16.8996 8.0254 17.6414 8.33269 18.415 8.33269Z" fill="#3397FE"/>
</svg>
